M48
;Layer_Color=9474304
;FILE_FORMAT=2:4
INCH,TZ
;TYPE=PLATED
T1F00S00C0.0079
T2F00S00C0.0118
T3F00S00C0.0236
T4F00S00C0.0315
T5F00S00C0.0354
T6F00S00C0.0402
T7F00S00C0.0429
T8F00S00C0.1283
%
T01
X1488Y452
X2472
X3456
X4441
X5425
X6409
X7393
X8378
X9362
X10346
X11330
X12315
X12807Y1436
X11823
X10838
X9854
X8870
X7885
X6901
X5917
X4933
X3948
X2964
X1980
X996
X1488Y2420
X2472
X3456
X4441
X5425
X6409
X7393
X8378
X9362
X10346
X11330
X12315
X12807Y3404
X11823
X10838
X9854
X8870
X7885
X6901
X5917
X4933
X3948
X2964
X1980
X996
X1488Y4389
X2472
X3456
X4441
X5425
X6409
X7393
X8378
X9362
X10346
X11330
X12315
X504
Y2420
X13299
X14283
X15267
X16252
X17236
X18220
X19204
X20189
X21173
X22157
X23141
X24126
X25110
X26094
X27078
X28063
X28555Y3404
X27571
X26586
X25602
X24618
X23634
X22649
X21665
X20681
X19697
X18712
X17728
X16744
X15760
X14775
X13791
X14283Y4389
X15267
X16252
X17236
X18220
X19204
X20189
X21173
X22157
X23141
X24126
X25110
X26094
X26586Y1436
X27571
X28555
X28063Y452
X27078
X26094
X25110
X24126
X23141
X22157
X21173
X20189
X19204
X18220
X17236
X16252
X15267
X14283
X13299
X13791Y1436
X14775
X15760
X16744
X17728
X18712
X19697
X20681
X21665
X22649
X23634
X24618
X25602
X13299Y4389
X13791Y5373
X14283Y6357
X15267
X16252
X17236
X18220
X19204
X20189
X21173
X22157
X23141
X24126
X25110
X25602Y7341
X24618
X23634
X22649
X21665
X20681
X19697
X18712
X17728
X16744
X17236Y8326
X18220
X19204
X20189
X21173
X22157
X23141
X24126
X25110
X26094
X27078
X28063
X28555Y9310
X27571
X26586
X25602
X24618
X23634
X22649
X21665
X20681
X19697
X18712
X17728
X16744
X15760
X14775
X15267Y10294
X16252
X17236
X18220
X19204
X20189
X21173
X22157
X23141
X24126
X25110
X26094
X27078
X28063
Y12263
X27078
X26094
X25110
X24126
X23141
X22157
X21173
X20189
X19204
X18220
X17236
X16252
X15267
X14283
X13299
X13791Y13247
X14775
X15760
X16744
X17728
X18712
X19697
X20681
X21665
X22649
X23634
X24618
X25602
X26586
X27571
X28555
X28063Y14231
X27078
X26094
X25110
X24126
X23141
X22157
X21173
X20189
X19204
X18220
X17236
X16252
X15267
X14283
X13299
X13791Y15215
X14775
X15760
X16744
X17728
X18712
X19697
X20681
X21665
X22649
X23634
X24618
X25602
X26586
X27571
X28555
X28063Y16200
X27078
X26094
X25110
X24126
X23141
X22157
X21173
X20189
X19204
X18220
X17236
X16252
X15267
X14283
X13299
X13791Y17184
X14775
X15760
X16744
X17728
X18712
X19697
X20681
X21665
X22649
X23634
X24618
X25602
X26094Y18168
X27078
X27571Y17184
X28555
X26586Y19152
X25602
X26094Y20137
X27078
X25110
X24126
X23141
X22157
X21173
X20189
X19204
X18220
X17236
X16252
X15267
X14283
X13299
Y18168
X14283
X15267
X16252
X17236
X18220
X19204
X20189
X21173
X22157
X23141
X24126
X25110
X25602Y11278
X26586
X24618
X23634
X22649
X21665
X20681
X19697
X18712
X17728
X16744
X15760
X14775
X13791
X14283Y10294
X13299
Y8326
X14283
X15267
X16252
X14775Y7341
X13791
X28555
Y5373
X12807
X12315Y6357
X11330
X10346
X9362
X8378
X7393
X6409
X5425
X4441
X3456
X2472
X1488
X504
X996Y7341
X1488Y8326
X2472
X3456
X4441
X5425
X6409
X7393
X8378
X9362
X10346
X10838Y9310
X11823
X12807
X12315Y10294
X11330
X10346
X10838Y11278
X9854
X8870
X7885
X6901
X7393Y10294
X8378
X8870Y9310
X9854
X10838Y7341
X11823
X12807
X12315Y8326
X12807Y11278
X12315Y12263
X11330
X10346
X9362
X8378
X8870Y13247
X7885
X6901
X5917
X4933
X5425Y12263
X6409
Y14231
X7393
X8378
X9362
X10346
X11330
X12315
X12807Y15215
X11823
X10838
X9854
X8870
X9362Y16200
X10346
X11330
X12315
X12807Y17184
X11823
X10838
X9854
X8870
X7885
X6901
X7393Y18168
X8378
X9362
X10346
X11330
X12315
Y20137
X11330
X10346
X9362
X8378
X7393
X6409
X5425
X4441
Y18168
X4933Y17184
X5425Y16200
X6409
X7393
X8378
X6901Y15215
X5917
X4933
X3948
X2964
X2472Y16200
X1488
X996Y15215
Y13247
Y11278
X1488Y10294
X2472
X3456
X4441
X5425
X6409
X6901Y9310
X5917
X4933
Y11278
X4441Y12263
X3456
X4441Y14231
Y16200
X6409Y18168
X504Y20137
Y10294
X996Y9310
X504Y8326
X996Y5373
X4933
X5917
X6901
X7885
X8870
X9854
X10838
X8870Y7341
X7885
X6901
X5917
X4933
X10838Y13247
X11823
X12807
Y21121
X11823
X10838
X9854
X8870
X7885
X6901
X7393Y22105
X8378
X9362
X10346
X11330
X12315
X12807Y23089
X11823
X10838
X9854
X8870
X9362Y24074
X10346
X11330
X12315
X12807Y25058
X11823
X10838
X11330Y26042
X12315
X12807Y27026
X12315Y28011
X12807Y28995
Y30963
X11823
X10838
X9854
X8870
X7885
X6901
X5917
X4933
X3948
X4441Y31948
X5425
X6409
X7393
X8378
X9362
X10346
X11330
X12315
X12807Y32932
X11823
X10838
X9854
X8870
X7885
X6901
X5917
X4933
X3948
X4441Y33916
X5425
X6409
X7393
X8378
X9362
X10346
X11330
X12315
X12807Y34900
X11823
X10838
X9854
X8870
X7885
X6901
X5917
X4933
X3948
X2964
X1980
X996
X1488Y35885
X504
Y33916
X1488
X996Y32932
X1488Y31948
X504
Y29979
X2472
X3456
X4441
X5425
X6409
X7393
X8378
X9362
X10346
X11330
X10838Y28995
X9854
X8870
X7885
X6901
X5917
X4933
X3948
X4441Y28011
X5425
X6409
X7393
X8378
X9362
X8870Y27026
X7885
X6901
X5917
X4933
X3948
X2964
X1980
X2472Y28011
X3456
X4441Y26042
X5425
X6409
X7393
X6901Y25058
X5917
X4933
X5425Y24074
X4441
X3456
Y22105
X4933Y23089
X6901
X6409Y22105
X4933Y21121
X504Y22105
Y26042
X3456Y31948
Y33916
Y35885
X4441
X5425
X6409
X7393
X8378
X9362
X10346
X11330
X12315
X10838Y27026
X10346Y26042
X8870Y25058
X8378Y24074
X13299
X14283
X15267
X16252
X17236
X18220
X19204
X20189
X21173
X22157
X23141
X24126
X25110
X26094
X27078
X28063
X28555Y23089
X27571
X27078Y22105
X26094
X25110
X24126
X23141
X22157
X21173
X20189
X19204
X18220
X17236
X16252
X15267
X14283
X13299
X13791Y23089
X14775
X15760
X16744
X17728
X18712
X19697
X20681
X21665
X22649
X23634
X24618
X25602
Y25058
X24618
X23634
X22649
X21665
X20681
X19697
X18712
X17728
X16744
X15760
X14775
X13791
X14283Y26042
X15267
X16252
X17236
X18220
X19204
X20189
X21173
X22157
X23141
X24126
X25110
X26094
X27078
X28063
X28555Y27026
X27571
X28063Y28011
X27078
X26094
X25110
X24126
X23141
X22157
X21173
X20189
X19204
X18220
X17236
X16252
X15267
X14283
X13299
X13791Y27026
X14775
X15760
X16744
X17728
X18712
X19697
X20681
X21665
X22649
X23634
X24618
X25602
Y28995
X24618
X23634
X22649
X21665
X20681
X19697
X18712
X17728
X16744
X15760
X14775
X15267Y29979
X16252
X17236
X18220
X19204
X20189
X21173
X22157
X23141
X24126
X25110
X25602Y30963
X26586
Y32932
X25602
X24618
X23634
X22649
X21665
X20681
X19697
X18712
X17728
X16744
X15760
X14775
X13791
X14283Y33916
X15267
X16252
X17236
X18220
X19204
X20189
X21173
X22157
X23141
X24126
X25110
X26094
X27078
X27571Y34900
X28555
X26586
X25602
X24618
X23634
X22649
X21665
X20681
X19697
X18712
X17728
X16744
X15760
X14775
X13791
X14283Y35885
X15267
X16252
X17236
X18220
X19204
X20189
X21173
X22157
X23141
X24126
X25110
X26094
X27078
X27571Y28995
X28555
X24618Y30963
X23634
X22649
X21665
X20681
X19697
X18712
X17728
X16744
X14775
X14283Y29979
X13299Y31948
Y33916
Y35885
Y26042
X13791Y21121
X14775
X15760
X16744
X17728
X18712
X19697
X20681
X21665
X22649
X23634
X24618
X25602
X26586
Y36869
X27571
X28555
Y38837
X27571
X26586
X25602
X24618
X23634
X22649
X21665
X20681
X19697
X18712
X17728
X16744
X15760
X14775
X13791
Y36869
X14775
X15760
X16744
X17728
X18712
X19697
X20681
X21665
X22649
X23634
X24618
X25602
X12807
X11823
X10838
X9854
X8870
X7885
X6901
X5917
X4933
X3948
X2964
X1980
X996
X1488Y37853
X2472
X2964Y38837
X3948
X4933
X5917
X6901
X7885
X8870
X9854
X10838
X11823
X12807
X1980
X996
X504Y37853
T02
X34749Y3847
X34828Y5067
X40379Y4752
Y4241
X46127Y8965
X52918Y5844
X52950Y19527
X40510Y19241
Y19958
X40527Y20480
X40549Y18462
Y17951
X34919Y17557
X34998Y18777
Y19801
X35773Y7745
X34828Y6091
X38490Y7941
X40357Y6770
X40340Y6248
Y5531
X5827Y17362
X-4091Y11847
X790Y27600
X810Y32560
X26575Y31732
X35118Y31417
Y32441
X35039Y30197
X40669Y30591
Y31102
X40630Y31881
Y32598
X40647Y33120
X38780Y34291
X38660Y21651
X35943Y21454
X46297Y22675
X46417Y35315
X53070Y32167
T03
X30657Y11330
X31657
X32657
X33657
X28657
X27657
X27827Y25040
X28827
X30827
X31827
X32827
X33827
X33947Y37680
X32947
X31947
X30947
X28947
X27947
T04
X36790Y8996
X36790Y10964
X36960Y22706
X36960Y24674
X37080Y35346
Y37314
T05
X47130Y2550
Y3550
Y4550
Y5550
Y6550
Y7550
Y8550
Y9550
X47300Y16260
Y17260
Y18260
Y19260
Y20260
Y21260
Y22260
Y23260
X47420Y28900
Y29900
Y30900
Y31900
Y32900
Y33900
Y34900
Y35900
T06
X1900Y5690
Y6690
Y7690
Y8690
Y9690
Y10690
Y11690
Y12690
Y13690
Y14690
X2900
X3900
Y13690
X2900
Y12690
X3900
Y11690
X2900
Y10690
X3900
Y9690
X2900
Y8690
X3900
Y7690
X2900
Y6690
X3900
Y5690
X2900
X2880Y16900
X3880
Y17900
X2880
X1880
Y16900
Y18900
X2880
X3880
Y19900
X2880
X1880
Y20900
X2880
X3880
Y21900
X2880
X1880
Y22900
X2880
X3880
Y23900
X2880
X1880
Y24900
X2880
X3880
Y25900
X2880
X1880
X1960Y28620
X2960
Y29620
X1960
Y30620
X2960
Y31620
X1960
Y32620
X2960
Y33620
X1960
T07
X52276Y4750
Y5841
Y6931
Y8022
Y9112
X53394Y8567
Y7476
Y6386
Y5295
X53431Y17848
Y18939
Y20029
X52313Y20575
Y19484
Y18393
Y17303
Y21665
X53431Y21120
X53551Y30488
Y31579
Y32669
Y33760
X52433Y34305
Y33215
Y32124
Y31033
Y29943
T08
X52835Y2012
Y11850
X52872Y14565
Y24403
X52992Y27205
Y37043
M30
