G04*
G04 #@! TF.GenerationSoftware,Altium Limited,Altium Designer,24.3.1 (35)*
G04*
G04 Layer_Color=16711935*
%FSLAX25Y25*%
%MOIN*%
G70*
G04*
G04 #@! TF.SameCoordinates,BF8C9DD1-58C6-4B83-BD29-EF25C4F45F7E*
G04*
G04*
G04 #@! TF.FilePolarity,Negative*
G04*
G01*
G75*
%ADD51R,0.11417X0.02559*%
%ADD52C,0.06194*%
%ADD53R,0.06194X0.06194*%
%ADD54C,0.05930*%
%ADD55C,0.19540*%
%ADD56R,0.07453X0.07453*%
%ADD57C,0.07453*%
%ADD58C,0.06706*%
%ADD59R,0.06706X0.06706*%
D51*
X-48976Y113386D02*
D03*
Y116535D02*
D03*
Y119685D02*
D03*
Y122835D02*
D03*
Y125984D02*
D03*
Y129134D02*
D03*
Y132283D02*
D03*
Y135433D02*
D03*
Y138583D02*
D03*
Y141732D02*
D03*
Y144882D02*
D03*
Y148031D02*
D03*
Y151181D02*
D03*
Y154331D02*
D03*
Y157480D02*
D03*
Y160630D02*
D03*
Y163779D02*
D03*
Y166929D02*
D03*
Y170079D02*
D03*
Y173228D02*
D03*
Y176378D02*
D03*
Y179528D02*
D03*
Y182677D02*
D03*
Y198425D02*
D03*
Y201575D02*
D03*
Y204725D02*
D03*
Y207874D02*
D03*
Y211024D02*
D03*
Y214173D02*
D03*
Y217323D02*
D03*
Y220472D02*
D03*
Y223622D02*
D03*
Y226772D02*
D03*
Y229921D02*
D03*
Y233071D02*
D03*
Y236220D02*
D03*
Y239370D02*
D03*
Y242520D02*
D03*
Y245669D02*
D03*
Y248819D02*
D03*
Y251968D02*
D03*
Y255118D02*
D03*
Y258268D02*
D03*
Y261417D02*
D03*
Y264567D02*
D03*
Y267716D02*
D03*
Y270866D02*
D03*
Y274016D02*
D03*
Y277166D02*
D03*
Y280315D02*
D03*
D52*
X39000Y56900D02*
D03*
X29000D02*
D03*
X19000D02*
D03*
X39000Y66900D02*
D03*
X29000D02*
D03*
X19000D02*
D03*
X39000Y76900D02*
D03*
X29000D02*
D03*
X19000D02*
D03*
X39000Y86900D02*
D03*
X29000D02*
D03*
X19000D02*
D03*
X39000Y96900D02*
D03*
X29000D02*
D03*
X19000D02*
D03*
X39000Y106900D02*
D03*
X29000D02*
D03*
X19000D02*
D03*
X39000Y116900D02*
D03*
X29000D02*
D03*
X19000D02*
D03*
X39000Y126900D02*
D03*
X29000D02*
D03*
X19000D02*
D03*
X39000Y136900D02*
D03*
X29000D02*
D03*
X19000D02*
D03*
X39000Y146900D02*
D03*
X29000D02*
D03*
X29600Y336200D02*
D03*
X19600Y326200D02*
D03*
X29600D02*
D03*
X19600Y316200D02*
D03*
X29600D02*
D03*
X19600Y306200D02*
D03*
X29600D02*
D03*
X19600Y296200D02*
D03*
X29600D02*
D03*
X19600Y286200D02*
D03*
X29600D02*
D03*
X28800Y259000D02*
D03*
X38800D02*
D03*
X18800Y249000D02*
D03*
X28800D02*
D03*
X38800D02*
D03*
X18800Y239000D02*
D03*
X28800D02*
D03*
X38800D02*
D03*
X18800Y229000D02*
D03*
X28800D02*
D03*
X38800D02*
D03*
X18800Y219000D02*
D03*
X28800D02*
D03*
X38800D02*
D03*
X18800Y209000D02*
D03*
X28800D02*
D03*
X38800D02*
D03*
X18800Y199000D02*
D03*
X28800D02*
D03*
X38800D02*
D03*
X18800Y189000D02*
D03*
X28800D02*
D03*
X38800D02*
D03*
X18800Y179000D02*
D03*
X28800D02*
D03*
X38800D02*
D03*
X18800Y169000D02*
D03*
X28800D02*
D03*
X38800D02*
D03*
D53*
X19000Y146900D02*
D03*
X19600Y336200D02*
D03*
X18800Y259000D02*
D03*
D54*
X328937Y113189D02*
D03*
X308937D02*
D03*
X288937D02*
D03*
X278937D02*
D03*
X328543Y250590D02*
D03*
X308543D02*
D03*
X288543D02*
D03*
X278543D02*
D03*
X328386Y375590D02*
D03*
X308386D02*
D03*
X288386D02*
D03*
X278386D02*
D03*
D55*
X518268Y274035D02*
D03*
Y372421D02*
D03*
Y119665D02*
D03*
Y21280D02*
D03*
Y246043D02*
D03*
Y147658D02*
D03*
D56*
X512677Y345039D02*
D03*
Y92283D02*
D03*
Y218661D02*
D03*
D57*
X523858Y339587D02*
D03*
X512677Y334134D02*
D03*
X523858Y328681D02*
D03*
X512677Y323228D02*
D03*
X523858Y317776D02*
D03*
X512677Y312323D02*
D03*
X523858Y306870D02*
D03*
X512677Y301417D02*
D03*
Y48661D02*
D03*
X523858Y54114D02*
D03*
X512677Y59567D02*
D03*
X523858Y65020D02*
D03*
X512677Y70473D02*
D03*
X523858Y75925D02*
D03*
X512677Y81378D02*
D03*
X523858Y86831D02*
D03*
X512677Y175039D02*
D03*
X523858Y180492D02*
D03*
X512677Y185945D02*
D03*
X523858Y191398D02*
D03*
X512677Y196850D02*
D03*
X523858Y202303D02*
D03*
X512677Y207756D02*
D03*
X523858Y213209D02*
D03*
D58*
X474356Y25302D02*
D03*
Y35302D02*
D03*
Y45302D02*
D03*
Y55302D02*
D03*
Y65302D02*
D03*
Y75302D02*
D03*
Y85302D02*
D03*
Y349000D02*
D03*
Y339000D02*
D03*
Y329000D02*
D03*
Y319000D02*
D03*
Y309000D02*
D03*
Y299000D02*
D03*
Y289000D02*
D03*
Y222310D02*
D03*
Y212310D02*
D03*
Y202310D02*
D03*
Y192310D02*
D03*
Y182310D02*
D03*
Y172310D02*
D03*
Y162310D02*
D03*
D59*
Y95302D02*
D03*
Y359000D02*
D03*
Y232310D02*
D03*
M02*
