G04*
G04 #@! TF.GenerationSoftware,Altium Limited,Altium Designer,24.3.1 (35)*
G04*
G04 Layer_Color=8421504*
%FSLAX25Y25*%
%MOIN*%
G70*
G04*
G04 #@! TF.SameCoordinates,1C70C9C3-A150-4A92-8F18-269698CCFBF7*
G04*
G04*
G04 #@! TF.FilePolarity,Positive*
G04*
G01*
G75*
%ADD18O,0.08268X0.02559*%
%ADD19R,0.04000X0.03200*%
G04:AMPARAMS|DCode=20|XSize=23.62mil|YSize=57.09mil|CornerRadius=2.01mil|HoleSize=0mil|Usage=FLASHONLY|Rotation=90.000|XOffset=0mil|YOffset=0mil|HoleType=Round|Shape=RoundedRectangle|*
%AMROUNDEDRECTD20*
21,1,0.02362,0.05307,0,0,90.0*
21,1,0.01961,0.05709,0,0,90.0*
1,1,0.00402,0.02653,0.00980*
1,1,0.00402,0.02653,-0.00980*
1,1,0.00402,-0.02653,-0.00980*
1,1,0.00402,-0.02653,0.00980*
%
%ADD20ROUNDEDRECTD20*%
%ADD21R,0.03347X0.03740*%
%ADD22R,0.03740X0.03347*%
%ADD23R,0.03543X0.02756*%
G04:AMPARAMS|DCode=24|XSize=25.59mil|YSize=64.96mil|CornerRadius=1.92mil|HoleSize=0mil|Usage=FLASHONLY|Rotation=270.000|XOffset=0mil|YOffset=0mil|HoleType=Round|Shape=RoundedRectangle|*
%AMROUNDEDRECTD24*
21,1,0.02559,0.06112,0,0,270.0*
21,1,0.02175,0.06496,0,0,270.0*
1,1,0.00384,-0.03056,-0.01088*
1,1,0.00384,-0.03056,0.01088*
1,1,0.00384,0.03056,0.01088*
1,1,0.00384,0.03056,-0.01088*
%
%ADD24ROUNDEDRECTD24*%
%ADD25R,0.06102X0.05315*%
G04:AMPARAMS|DCode=26|XSize=47.64mil|YSize=71.65mil|CornerRadius=7.86mil|HoleSize=0mil|Usage=FLASHONLY|Rotation=90.000|XOffset=0mil|YOffset=0mil|HoleType=Round|Shape=RoundedRectangle|*
%AMROUNDEDRECTD26*
21,1,0.04764,0.05593,0,0,90.0*
21,1,0.03192,0.07165,0,0,90.0*
1,1,0.01572,0.02797,0.01596*
1,1,0.01572,0.02797,-0.01596*
1,1,0.01572,-0.02797,-0.01596*
1,1,0.01572,-0.02797,0.01596*
%
%ADD26ROUNDEDRECTD26*%
%ADD27R,0.03150X0.03150*%
%ADD28R,0.05315X0.06102*%
%ADD29R,0.06614X0.12362*%
%ADD30R,0.11024X0.02165*%
G36*
X65780Y34940D02*
X63779Y32940D01*
X61779Y34940D01*
X61779Y35840D01*
X65780D01*
Y34940D01*
D02*
G37*
G36*
Y30840D02*
X63779D01*
X61779Y30839D01*
Y33740D01*
X63779Y31740D01*
X65780Y33740D01*
Y30840D01*
D02*
G37*
D18*
X277362Y73504D02*
D03*
Y68504D02*
D03*
Y63504D02*
D03*
Y58504D02*
D03*
Y53504D02*
D03*
Y48504D02*
D03*
Y43504D02*
D03*
Y38504D02*
D03*
X315551Y73504D02*
D03*
Y68504D02*
D03*
Y63504D02*
D03*
Y58504D02*
D03*
Y53504D02*
D03*
Y48504D02*
D03*
Y43504D02*
D03*
Y38504D02*
D03*
X277953Y211004D02*
D03*
Y206004D02*
D03*
Y201004D02*
D03*
Y196004D02*
D03*
Y191004D02*
D03*
Y186004D02*
D03*
Y181004D02*
D03*
Y176004D02*
D03*
X316142Y211004D02*
D03*
Y206004D02*
D03*
Y201004D02*
D03*
Y196004D02*
D03*
Y191004D02*
D03*
Y186004D02*
D03*
Y181004D02*
D03*
Y176004D02*
D03*
X277362Y337008D02*
D03*
Y332008D02*
D03*
Y327008D02*
D03*
Y322008D02*
D03*
Y317008D02*
D03*
Y312008D02*
D03*
Y307008D02*
D03*
Y302008D02*
D03*
X315551Y337008D02*
D03*
Y332008D02*
D03*
Y327008D02*
D03*
Y322008D02*
D03*
Y317008D02*
D03*
Y312008D02*
D03*
Y307008D02*
D03*
Y302008D02*
D03*
D19*
X63779Y30090D02*
D03*
Y36840D02*
D03*
D20*
X53642Y21634D02*
D03*
Y26634D02*
D03*
Y31634D02*
D03*
Y36634D02*
D03*
X32185Y21634D02*
D03*
Y26634D02*
D03*
Y31634D02*
D03*
Y36634D02*
D03*
D21*
X67224Y23720D02*
D03*
X62106D02*
D03*
X19093Y37909D02*
D03*
X24211D02*
D03*
X19093Y31610D02*
D03*
X24211D02*
D03*
X19093Y25311D02*
D03*
X24211D02*
D03*
X62106Y16846D02*
D03*
X67224D02*
D03*
X267913Y63779D02*
D03*
X262795D02*
D03*
X330118D02*
D03*
X325000D02*
D03*
X267913Y200394D02*
D03*
X262795D02*
D03*
X330906Y200787D02*
D03*
X325787D02*
D03*
X267913Y327165D02*
D03*
X262795D02*
D03*
X330512Y327362D02*
D03*
X325394D02*
D03*
X397047Y302854D02*
D03*
X402165D02*
D03*
X397047Y312503D02*
D03*
X402165D02*
D03*
X397047Y322152D02*
D03*
X402165D02*
D03*
X397047Y331801D02*
D03*
X402165D02*
D03*
X397047Y341450D02*
D03*
X402165D02*
D03*
X397047Y351099D02*
D03*
X402165D02*
D03*
X397047Y39156D02*
D03*
X402165D02*
D03*
X397047Y48805D02*
D03*
X402165D02*
D03*
X397047Y58454D02*
D03*
X402165D02*
D03*
X397047Y68103D02*
D03*
X402165D02*
D03*
X397047Y77753D02*
D03*
X402165D02*
D03*
X397047Y87401D02*
D03*
X402165D02*
D03*
X397047Y224409D02*
D03*
X402165D02*
D03*
X397047Y214760D02*
D03*
X402165D02*
D03*
X397047Y205111D02*
D03*
X402165D02*
D03*
X397047Y195462D02*
D03*
X402165D02*
D03*
X397047Y185813D02*
D03*
X402165D02*
D03*
X397047Y176164D02*
D03*
X402165D02*
D03*
D22*
X50000Y50197D02*
D03*
Y45079D02*
D03*
X58979Y45109D02*
D03*
Y50227D02*
D03*
X394882Y104527D02*
D03*
Y109646D02*
D03*
Y241339D02*
D03*
Y246457D02*
D03*
Y367913D02*
D03*
Y373031D02*
D03*
X429756Y346654D02*
D03*
Y341535D02*
D03*
Y333076D02*
D03*
Y327958D02*
D03*
Y312596D02*
D03*
Y307478D02*
D03*
Y77838D02*
D03*
Y82956D02*
D03*
Y64261D02*
D03*
Y69379D02*
D03*
Y43780D02*
D03*
Y48898D02*
D03*
Y214846D02*
D03*
Y219964D02*
D03*
Y201269D02*
D03*
Y206387D02*
D03*
Y180788D02*
D03*
Y185906D02*
D03*
X-28346Y118701D02*
D03*
Y113583D02*
D03*
X-35827Y118701D02*
D03*
Y113583D02*
D03*
D23*
X65354Y51181D02*
D03*
Y45669D02*
D03*
D24*
X340215Y210495D02*
D03*
Y205495D02*
D03*
Y200495D02*
D03*
Y195495D02*
D03*
Y190495D02*
D03*
Y185495D02*
D03*
Y180495D02*
D03*
Y175495D02*
D03*
X362459Y210495D02*
D03*
Y205495D02*
D03*
Y200495D02*
D03*
Y195495D02*
D03*
Y190495D02*
D03*
Y185495D02*
D03*
Y180495D02*
D03*
Y175495D02*
D03*
X340215Y337185D02*
D03*
Y332185D02*
D03*
Y327185D02*
D03*
Y322185D02*
D03*
Y317185D02*
D03*
Y312185D02*
D03*
Y307185D02*
D03*
Y302185D02*
D03*
X362459Y337185D02*
D03*
Y332185D02*
D03*
Y327185D02*
D03*
Y322185D02*
D03*
Y317185D02*
D03*
Y312185D02*
D03*
Y307185D02*
D03*
Y302185D02*
D03*
X340215Y73487D02*
D03*
Y68487D02*
D03*
Y63487D02*
D03*
Y58487D02*
D03*
Y53487D02*
D03*
Y48487D02*
D03*
Y43487D02*
D03*
Y38487D02*
D03*
X362459Y73487D02*
D03*
Y68487D02*
D03*
Y63487D02*
D03*
Y58487D02*
D03*
Y53487D02*
D03*
Y48487D02*
D03*
Y43487D02*
D03*
Y38487D02*
D03*
D25*
X438173Y351800D02*
D03*
Y343926D02*
D03*
X438567Y323060D02*
D03*
Y330934D02*
D03*
X438567Y302194D02*
D03*
Y310068D02*
D03*
X268898Y335039D02*
D03*
Y342913D02*
D03*
X327559Y301378D02*
D03*
Y293504D02*
D03*
X354724Y372047D02*
D03*
Y364173D02*
D03*
X261221Y375098D02*
D03*
Y367224D02*
D03*
X356080Y101679D02*
D03*
Y109553D02*
D03*
X439939Y81994D02*
D03*
Y89868D02*
D03*
X440332Y69002D02*
D03*
Y61128D02*
D03*
Y48135D02*
D03*
Y40261D02*
D03*
X329309Y30813D02*
D03*
Y38687D02*
D03*
X356080Y238687D02*
D03*
Y246561D02*
D03*
X440332Y185143D02*
D03*
Y177269D02*
D03*
X439939Y219002D02*
D03*
Y226876D02*
D03*
X440332Y206010D02*
D03*
Y198135D02*
D03*
X329309Y167821D02*
D03*
Y175695D02*
D03*
D26*
X369685Y98228D02*
D03*
Y109646D02*
D03*
X368504Y234842D02*
D03*
Y246260D02*
D03*
X366929Y362008D02*
D03*
Y373425D02*
D03*
D27*
X402276Y110236D02*
D03*
Y103937D02*
D03*
Y247047D02*
D03*
Y240748D02*
D03*
Y373622D02*
D03*
Y367323D02*
D03*
D28*
X278740Y125984D02*
D03*
X270866D02*
D03*
X266880Y81939D02*
D03*
X259006D02*
D03*
X267323Y219488D02*
D03*
X259449D02*
D03*
D29*
X-490Y248500D02*
D03*
X-19309D02*
D03*
X-19610Y265600D02*
D03*
X-790D02*
D03*
X-19209Y283000D02*
D03*
X-390D02*
D03*
D30*
X-48976Y113350D02*
D03*
Y116500D02*
D03*
Y119650D02*
D03*
Y122799D02*
D03*
Y125949D02*
D03*
Y129098D02*
D03*
Y132248D02*
D03*
Y135398D02*
D03*
Y138547D02*
D03*
Y141697D02*
D03*
Y144846D02*
D03*
Y147996D02*
D03*
Y151146D02*
D03*
Y154295D02*
D03*
Y157445D02*
D03*
Y160594D02*
D03*
Y163744D02*
D03*
Y166894D02*
D03*
Y170043D02*
D03*
Y173193D02*
D03*
Y176343D02*
D03*
Y179492D02*
D03*
Y182642D02*
D03*
Y198390D02*
D03*
Y201539D02*
D03*
Y204689D02*
D03*
Y207839D02*
D03*
Y210988D02*
D03*
Y214138D02*
D03*
Y217287D02*
D03*
Y220437D02*
D03*
Y223587D02*
D03*
Y226736D02*
D03*
Y229886D02*
D03*
Y233035D02*
D03*
Y236185D02*
D03*
Y239335D02*
D03*
Y242484D02*
D03*
Y245634D02*
D03*
Y248783D02*
D03*
Y251933D02*
D03*
Y255083D02*
D03*
Y258232D02*
D03*
Y261382D02*
D03*
Y264531D02*
D03*
Y267681D02*
D03*
Y270831D02*
D03*
Y273980D02*
D03*
Y277130D02*
D03*
Y280280D02*
D03*
M02*
