G04*
G04 #@! TF.GenerationSoftware,Altium Limited,Altium Designer,24.3.1 (35)*
G04*
G04 Layer_Physical_Order=2*
G04 Layer_Color=16711680*
%FSLAX25Y25*%
%MOIN*%
G70*
G04*
G04 #@! TF.SameCoordinates,2EA59EBA-083A-455D-AF16-2CDF0F2A0F63*
G04*
G04*
G04 #@! TF.FilePolarity,Positive*
G04*
G01*
G75*
%ADD10C,0.00787*%
%ADD34R,0.11024X0.02165*%
%ADD60C,0.01181*%
%ADD61C,0.01968*%
%ADD62C,0.05394*%
%ADD63R,0.05394X0.05394*%
%ADD64C,0.05130*%
%ADD65C,0.18740*%
%ADD66R,0.06653X0.06653*%
%ADD67C,0.06653*%
%ADD68C,0.05906*%
%ADD69R,0.05906X0.05906*%
%ADD70C,0.01968*%
%ADD71C,0.02362*%
G36*
X292690Y370571D02*
X283885D01*
X283882Y357874D01*
X283881Y355986D01*
X283877Y339290D01*
X283875Y333109D01*
X283874Y328460D01*
X283874Y325715D01*
X283872Y319290D01*
X283871Y315007D01*
X283869Y309146D01*
X283868Y304779D01*
X283868Y302368D01*
X283866Y297501D01*
X283865Y292913D01*
X283864Y287510D01*
X283863Y283146D01*
X283861Y275385D01*
X283860Y272575D01*
X283859Y269086D01*
X283858Y266433D01*
X283857Y261124D01*
X283856Y257285D01*
X292765D01*
Y243505D01*
X283853D01*
X283852Y241260D01*
X283851Y235910D01*
X283849Y230968D01*
X283848Y226120D01*
X283847Y222763D01*
X283846Y218515D01*
X283845Y213560D01*
X283844Y208515D01*
X283842Y203886D01*
X283841Y199407D01*
X283840Y194431D01*
X283839Y189481D01*
X283838Y185238D01*
X283837Y180575D01*
X283835Y175909D01*
X283834Y170898D01*
X283833Y166091D01*
X283832Y161677D01*
X283831Y159792D01*
X283830Y154315D01*
X283829Y149373D01*
X283827Y144427D01*
X283826Y139991D01*
X283825Y135002D01*
X283824Y130330D01*
X283823Y125707D01*
X283822Y121638D01*
X283821Y119749D01*
X292997D01*
Y105970D01*
X283818D01*
X283817Y102580D01*
X283816Y98628D01*
X283815Y93809D01*
X283813Y88321D01*
X283812Y84427D01*
X283811Y79928D01*
X283810Y74727D01*
X283809Y70581D01*
X283807Y65479D01*
X283806Y60973D01*
X283805Y58321D01*
X283804Y53809D01*
X283803Y49629D01*
X283803Y47835D01*
X283801Y40577D01*
X283800Y36376D01*
X283794Y12237D01*
X2007Y12237D01*
Y98901D01*
X2507Y99108D01*
X5496Y96118D01*
Y74395D01*
X5557Y74088D01*
X5731Y73827D01*
X18586Y60973D01*
X18586Y60973D01*
X18846Y60799D01*
X19153Y60738D01*
X24027D01*
X26322Y58443D01*
X26120Y58093D01*
X25909Y57307D01*
Y56493D01*
X26120Y55707D01*
X26527Y55002D01*
X27102Y54427D01*
X27807Y54020D01*
X28593Y53809D01*
X29407D01*
X30193Y54020D01*
X30898Y54427D01*
X31473Y55002D01*
X31880Y55707D01*
X32090Y56493D01*
Y57307D01*
X31880Y58093D01*
X31473Y58798D01*
X30898Y59373D01*
X30193Y59780D01*
X29407Y59991D01*
X28593D01*
X27807Y59780D01*
X27457Y59578D01*
X24927Y62108D01*
X24667Y62282D01*
X24359Y62344D01*
X19486D01*
X18468Y63361D01*
X18727Y63810D01*
X19407D01*
X20193Y64020D01*
X20898Y64427D01*
X21473Y65002D01*
X21880Y65707D01*
X22091Y66493D01*
Y67307D01*
X21880Y68093D01*
X21473Y68798D01*
X20898Y69373D01*
X20193Y69780D01*
X19407Y69991D01*
X18593D01*
X17807Y69780D01*
X17457Y69578D01*
X10430Y76606D01*
Y95491D01*
X10430Y95491D01*
X10369Y95798D01*
X10763Y96108D01*
X16858Y90013D01*
X17022Y89904D01*
X17084Y89494D01*
X17069Y89339D01*
X16527Y88798D01*
X16120Y88093D01*
X15909Y87307D01*
Y86493D01*
X16120Y85707D01*
X16527Y85002D01*
X17102Y84427D01*
X17807Y84020D01*
X18593Y83810D01*
X19407D01*
X20193Y84020D01*
X20898Y84427D01*
X21473Y85002D01*
X21880Y85707D01*
X22091Y86493D01*
Y87062D01*
X22591Y87269D01*
X23086Y86773D01*
Y86694D01*
X23147Y86387D01*
X23321Y86127D01*
X28775Y80673D01*
X29035Y80499D01*
X29002Y80005D01*
X28994Y79991D01*
X28593D01*
X27807Y79780D01*
X27102Y79373D01*
X26527Y78798D01*
X26120Y78093D01*
X25909Y77307D01*
Y76493D01*
X26120Y75707D01*
X26527Y75002D01*
X27102Y74427D01*
X27807Y74020D01*
X28593Y73809D01*
X29407D01*
X30193Y74020D01*
X30898Y74427D01*
X31473Y75002D01*
X31880Y75707D01*
X32090Y76493D01*
Y76894D01*
X32590Y77102D01*
X33646Y76046D01*
Y50197D01*
X33707Y49890D01*
X33881Y49629D01*
X36327Y47183D01*
X36327Y47183D01*
X36588Y47009D01*
X36895Y46948D01*
X39518D01*
X39883Y46582D01*
X40390Y46373D01*
X40938D01*
X41444Y46582D01*
X41832Y46970D01*
X42042Y47477D01*
Y48025D01*
X41832Y48531D01*
X41444Y48919D01*
X40938Y49128D01*
X40390D01*
X39883Y48919D01*
X39518Y48553D01*
X37228D01*
X35252Y50529D01*
Y55030D01*
X35752Y55164D01*
X36054Y54640D01*
X36740Y53954D01*
X37579Y53470D01*
X38409Y53247D01*
Y56900D01*
Y60553D01*
X37579Y60330D01*
X36740Y59846D01*
X36054Y59160D01*
X35752Y58636D01*
X35252Y58770D01*
Y65030D01*
X35752Y65164D01*
X36054Y64640D01*
X36740Y63954D01*
X37579Y63470D01*
X38409Y63247D01*
Y66900D01*
X39000D01*
D01*
X38409D01*
Y70553D01*
X37579Y70330D01*
X36740Y69846D01*
X36054Y69160D01*
X35752Y68636D01*
X35252Y68770D01*
Y75030D01*
X35752Y75164D01*
X36054Y74640D01*
X36740Y73954D01*
X37579Y73470D01*
X38409Y73247D01*
Y76900D01*
Y80553D01*
X37579Y80330D01*
X36740Y79846D01*
X36054Y79160D01*
X35570Y78321D01*
X35319Y77385D01*
Y77351D01*
X34819Y77144D01*
X30155Y81808D01*
X29894Y81982D01*
X29697Y82021D01*
X28366Y83353D01*
X28565Y83754D01*
X28616Y83810D01*
X29407D01*
X30193Y84020D01*
X30898Y84427D01*
X31473Y85002D01*
X31880Y85707D01*
X32090Y86493D01*
Y87307D01*
X31880Y88093D01*
X31473Y88798D01*
X30898Y89373D01*
X30193Y89780D01*
X29407Y89991D01*
X28593D01*
X27807Y89780D01*
X27457Y89578D01*
X23052Y93984D01*
X22791Y94157D01*
X22484Y94219D01*
X21396D01*
X21189Y94719D01*
X21473Y95002D01*
X21880Y95707D01*
X22091Y96493D01*
Y97173D01*
X22539Y97432D01*
X23638Y96332D01*
X23899Y96158D01*
X24206Y96097D01*
X26015D01*
X26120Y95707D01*
X26527Y95002D01*
X27102Y94427D01*
X27807Y94020D01*
X28593Y93809D01*
X29407D01*
X30193Y94020D01*
X30898Y94427D01*
X31473Y95002D01*
X31880Y95707D01*
X32090Y96493D01*
Y97307D01*
X31880Y98093D01*
X31473Y98798D01*
X30898Y99373D01*
X30193Y99780D01*
X29407Y99991D01*
X28593D01*
X27807Y99780D01*
X27102Y99373D01*
X26527Y98798D01*
X26120Y98093D01*
X26015Y97703D01*
X24538D01*
X20886Y101355D01*
X21093Y101855D01*
X41983D01*
X49394Y94444D01*
Y53482D01*
X46502Y50591D01*
X45986D01*
X45479Y50381D01*
X45092Y49993D01*
X44882Y49487D01*
Y48939D01*
X45092Y48432D01*
X45479Y48044D01*
X45986Y47835D01*
X46534D01*
X47040Y48044D01*
X47428Y48432D01*
X47638Y48939D01*
Y49455D01*
X50765Y52582D01*
X50765Y52582D01*
X50939Y52842D01*
X51000Y53150D01*
Y94776D01*
X50939Y95083D01*
X50765Y95344D01*
X50765Y95344D01*
X42883Y103226D01*
X42622Y103400D01*
X42315Y103461D01*
X41405D01*
X41267Y103931D01*
X41266Y103961D01*
X41945Y104640D01*
X42430Y105479D01*
X42653Y106309D01*
X39000D01*
X35347D01*
X35570Y105479D01*
X36054Y104640D01*
X36733Y103961D01*
X36733Y103931D01*
X36595Y103461D01*
X30037D01*
X29971Y103961D01*
X30193Y104020D01*
X30898Y104427D01*
X31473Y105002D01*
X31880Y105707D01*
X32090Y106493D01*
Y107307D01*
X31880Y108093D01*
X31473Y108798D01*
X30898Y109373D01*
X30193Y109780D01*
X29407Y109991D01*
X28593D01*
X27807Y109780D01*
X27457Y109578D01*
X24263Y112772D01*
X24002Y112946D01*
X23695Y113007D01*
X14899D01*
X-26956Y154863D01*
X-27216Y155037D01*
X-27524Y155098D01*
X-42096D01*
X-42480Y155378D01*
Y156854D01*
X-48976D01*
X-55472D01*
Y155378D01*
X-54882D01*
Y153212D01*
X-55472D01*
Y151736D01*
X-48976D01*
X-42480D01*
Y153212D01*
X-42096Y153492D01*
X-27856D01*
X13999Y111637D01*
X13999Y111637D01*
X14260Y111463D01*
X14567Y111402D01*
X14567Y111402D01*
X23363D01*
X26322Y108443D01*
X26120Y108093D01*
X25909Y107307D01*
Y106493D01*
X26120Y105707D01*
X26527Y105002D01*
X27102Y104427D01*
X27807Y104020D01*
X28029Y103961D01*
X27963Y103461D01*
X20037D01*
X19971Y103961D01*
X20193Y104020D01*
X20898Y104427D01*
X21473Y105002D01*
X21880Y105707D01*
X22091Y106493D01*
Y107307D01*
X21880Y108093D01*
X21473Y108798D01*
X20898Y109373D01*
X20193Y109780D01*
X19407Y109991D01*
X18593D01*
X17807Y109780D01*
X17102Y109373D01*
X16527Y108798D01*
X16120Y108093D01*
X15909Y107307D01*
Y106906D01*
X15409Y106699D01*
X-23306Y145414D01*
X-23567Y145588D01*
X-23874Y145649D01*
X-42596D01*
X-43071Y145817D01*
X-43071Y146323D01*
X-43071Y146823D01*
Y149079D01*
X-42480D01*
Y150555D01*
X-48976D01*
X-55472D01*
Y149079D01*
X-54882D01*
Y146823D01*
X-54882Y146520D01*
X-54882Y146020D01*
Y143764D01*
X-55472D01*
Y142287D01*
X-48976D01*
X-42480D01*
Y143764D01*
X-42096Y144044D01*
X-24206D01*
X17353Y102484D01*
X17146Y101984D01*
X16081D01*
X-21050Y139115D01*
X-21311Y139289D01*
X-21618Y139350D01*
X-42096D01*
X-42480Y139630D01*
Y141106D01*
X-48976D01*
X-55472D01*
Y139630D01*
X-54882D01*
Y137071D01*
X-54882D01*
Y136874D01*
X-54882D01*
Y134315D01*
X-55472D01*
Y132839D01*
X-48976D01*
X-42480D01*
Y134315D01*
X-42096Y134595D01*
X-21681D01*
X10974Y101940D01*
Y99195D01*
X11035Y98888D01*
X11209Y98628D01*
X10847Y98294D01*
X-20524Y129666D01*
X-20785Y129840D01*
X-21092Y129901D01*
X-42096D01*
X-42480Y130181D01*
Y131658D01*
X-48976D01*
X-55472D01*
Y130181D01*
X-54882D01*
Y127925D01*
X-54882Y127622D01*
X-54882Y127122D01*
Y124776D01*
X-54882Y124472D01*
X-54882Y123972D01*
Y121626D01*
X-54882Y121323D01*
X-54882Y120823D01*
Y118567D01*
X-55472D01*
Y117091D01*
X-48976D01*
X-42480D01*
Y118567D01*
X-43071D01*
Y119632D01*
X-15650D01*
X-10671Y114653D01*
X-10878Y114153D01*
X-40751D01*
X-40942Y114615D01*
X-39761Y115796D01*
X-39644Y115748D01*
X-39096D01*
X-38590Y115958D01*
X-38202Y116345D01*
X-37992Y116852D01*
Y117400D01*
X-38202Y117906D01*
X-38590Y118294D01*
X-39096Y118504D01*
X-39644D01*
X-40151Y118294D01*
X-40538Y117906D01*
X-40748Y117400D01*
Y117080D01*
X-42018Y115810D01*
X-42259Y115910D01*
X-48976D01*
X-55472D01*
Y114433D01*
X-54882D01*
Y111874D01*
X-43071D01*
Y112548D01*
X-10835D01*
X-302Y102015D01*
X-509Y101515D01*
X-23910Y101515D01*
X-23958Y101505D01*
X-24008Y101512D01*
X-24394Y101494D01*
X-24538Y101457D01*
X-24687D01*
X-25444Y101307D01*
X-25627Y101231D01*
X-25820Y101193D01*
X-26533Y100897D01*
X-26698Y100787D01*
X-26880Y100712D01*
X-27522Y100283D01*
X-27662Y100143D01*
X-27826Y100033D01*
X-28372Y99488D01*
X-28482Y99323D01*
X-28622Y99183D01*
X-29050Y98542D01*
X-29126Y98359D01*
X-29236Y98195D01*
X-29531Y97482D01*
X-29570Y97288D01*
X-29645Y97105D01*
X-29796Y96348D01*
Y96200D01*
X-29832Y96055D01*
X-29851Y95669D01*
X-29844Y95620D01*
X-29853Y95571D01*
X-29854Y93641D01*
X-32847D01*
X-32847Y105413D01*
X-32857Y105462D01*
X-32849Y105511D01*
X-32868Y105897D01*
X-32904Y106042D01*
X-32904Y106191D01*
X-33055Y106948D01*
X-33131Y107130D01*
X-33169Y107324D01*
X-33464Y108037D01*
X-33574Y108201D01*
X-33650Y108384D01*
X-34079Y109026D01*
X-34218Y109166D01*
X-34328Y109330D01*
X-34874Y109876D01*
X-35038Y109986D01*
X-35178Y110125D01*
X-35820Y110554D01*
X-36002Y110630D01*
X-36167Y110740D01*
X-36880Y111035D01*
X-37074Y111074D01*
X-37256Y111149D01*
X-38013Y111300D01*
X-38162D01*
X-38306Y111336D01*
X-38692Y111355D01*
X-38742Y111348D01*
X-38791Y111357D01*
X-56469D01*
Y183820D01*
X-55472Y183820D01*
Y183232D01*
X-48976D01*
X-42480D01*
Y183820D01*
X-38004Y183820D01*
X-37939Y183833D01*
X-37873Y183824D01*
X-37256Y183864D01*
X-37065Y183916D01*
X-36868Y183929D01*
X-35677Y184248D01*
X-35441Y184364D01*
X-35192Y184448D01*
X-34124Y185065D01*
X-33927Y185238D01*
X-33709Y185384D01*
X-32837Y186256D01*
X-32691Y186474D01*
X-32518Y186672D01*
X-31901Y187740D01*
X-31817Y187988D01*
X-31701Y188224D01*
X-31381Y189415D01*
X-31364Y189677D01*
X-31313Y189935D01*
Y191168D01*
X-31364Y191425D01*
X-31381Y191687D01*
X-31701Y192879D01*
X-31817Y193114D01*
X-31901Y193363D01*
X-32518Y194431D01*
X-32691Y194628D01*
X-32837Y194846D01*
X-33709Y195719D01*
X-33927Y195864D01*
X-34124Y196037D01*
X-35192Y196654D01*
X-35441Y196739D01*
X-35677Y196855D01*
X-36544Y197087D01*
X-36478Y197587D01*
X-19589D01*
X4944Y173054D01*
X4944Y173054D01*
X5205Y172880D01*
X5512Y172819D01*
X5512Y172819D01*
X23845D01*
X26122Y170543D01*
X25920Y170193D01*
X25709Y169407D01*
Y168593D01*
X25920Y167807D01*
X26327Y167102D01*
X26902Y166527D01*
X27607Y166120D01*
X28393Y165910D01*
X29207D01*
X29993Y166120D01*
X30698Y166527D01*
X31273Y167102D01*
X31680Y167807D01*
X31890Y168593D01*
Y169407D01*
X31680Y170193D01*
X31273Y170898D01*
X30698Y171473D01*
X29993Y171880D01*
X29207Y172091D01*
X28393D01*
X27607Y171880D01*
X27257Y171678D01*
X24746Y174190D01*
X24485Y174364D01*
X24178Y174425D01*
X5844D01*
X-18688Y198958D01*
X-18949Y199132D01*
X-19256Y199193D01*
X-42096D01*
X-42480Y199472D01*
Y200949D01*
X-48976D01*
X-55472D01*
Y199472D01*
X-54882D01*
Y197283D01*
X-56469D01*
Y282343D01*
X-55472D01*
Y280870D01*
X-48976D01*
X-42480D01*
Y282343D01*
X-38791Y282343D01*
X-38742Y282353D01*
X-38693Y282346D01*
X-38307Y282365D01*
X-38162Y282401D01*
X-38013Y282401D01*
X-37257Y282551D01*
X-37074Y282627D01*
X-36880Y282665D01*
X-36167Y282961D01*
X-36002Y283071D01*
X-35820Y283146D01*
X-35178Y283575D01*
X-35038Y283715D01*
X-34874Y283825D01*
X-34328Y284370D01*
X-34218Y284535D01*
X-34078Y284675D01*
X-33650Y285316D01*
X-33574Y285499D01*
X-33464Y285664D01*
X-33169Y286377D01*
X-33130Y286570D01*
X-33055Y286753D01*
X-32904Y287510D01*
X-32904Y287659D01*
X-32868Y287803D01*
X-32849Y288189D01*
X-32856Y288238D01*
X-32847Y288287D01*
Y299706D01*
X-32493Y300060D01*
X-29853Y300060D01*
Y298130D01*
X-29844Y298081D01*
X-29851Y298031D01*
X-29832Y297646D01*
X-29796Y297501D01*
X-29796Y297353D01*
X-29645Y296596D01*
X-29570Y296413D01*
X-29531Y296219D01*
X-29236Y295506D01*
X-29126Y295342D01*
X-29050Y295159D01*
X-28622Y294517D01*
X-28482Y294377D01*
X-28372Y294213D01*
X-27826Y293667D01*
X-27662Y293558D01*
X-27522Y293418D01*
X-26880Y292989D01*
X-26698Y292913D01*
X-26533Y292804D01*
X-25820Y292508D01*
X-25627Y292470D01*
X-25444Y292394D01*
X-24687Y292243D01*
X-24538Y292243D01*
X-24394Y292207D01*
X-24008Y292188D01*
X-23959Y292196D01*
X-23910Y292186D01*
X-0D01*
X768Y292339D01*
X1419Y292774D01*
X1854Y293425D01*
X2007Y294193D01*
X2007Y381857D01*
X283534Y381857D01*
X292690Y381857D01*
Y370571D01*
D02*
G37*
G36*
X402729Y381824D02*
X513907Y381714D01*
X514005Y381224D01*
X513643Y381074D01*
X512044Y380005D01*
X510684Y378645D01*
X509615Y377046D01*
X508879Y375269D01*
X508504Y373383D01*
Y371460D01*
X508879Y369573D01*
X509615Y367796D01*
X510684Y366197D01*
X512044Y364837D01*
X513643Y363769D01*
X515420Y363033D01*
X517306Y362657D01*
X519229D01*
X521116Y363033D01*
X522893Y363769D01*
X524492Y364837D01*
X525852Y366197D01*
X526920Y367796D01*
X527656Y369573D01*
X528031Y371460D01*
Y373383D01*
X527656Y375269D01*
X526920Y377046D01*
X525852Y378645D01*
X524492Y380005D01*
X522893Y381074D01*
X522551Y381215D01*
X522649Y381705D01*
X549052Y381679D01*
X549052Y281280D01*
X524831D01*
X524492Y281620D01*
X522893Y282688D01*
X521116Y283424D01*
X519229Y283799D01*
X517306D01*
X515420Y283424D01*
X513643Y282688D01*
X512044Y281620D01*
X511704Y281280D01*
X304329Y281280D01*
X304329Y381857D01*
X368799Y381857D01*
X402729Y381824D01*
D02*
G37*
G36*
X548443Y155674D02*
X523845D01*
X522893Y156310D01*
X521116Y157046D01*
X519229Y157421D01*
X517306D01*
X515420Y157046D01*
X513643Y156310D01*
X512690Y155674D01*
X304048Y155674D01*
Y256067D01*
X516051Y256067D01*
X516100Y255567D01*
X515420Y255432D01*
X513643Y254696D01*
X512044Y253627D01*
X510684Y252267D01*
X509615Y250668D01*
X508879Y248891D01*
X508504Y247005D01*
Y245082D01*
X508879Y243195D01*
X509615Y241418D01*
X510684Y239819D01*
X512044Y238459D01*
X513643Y237391D01*
X515420Y236655D01*
X517306Y236280D01*
X519229D01*
X521116Y236655D01*
X522893Y237391D01*
X524492Y238459D01*
X525852Y239819D01*
X526920Y241418D01*
X527656Y243195D01*
X528031Y245082D01*
Y247005D01*
X527656Y248891D01*
X526920Y250668D01*
X525852Y252267D01*
X524492Y253627D01*
X522893Y254696D01*
X521116Y255432D01*
X520435Y255567D01*
X520484Y256067D01*
X548443D01*
Y155674D01*
D02*
G37*
G36*
X-43481Y199102D02*
X-43457Y199036D01*
X-43417Y198976D01*
X-43361Y198925D01*
X-43289Y198882D01*
X-43201Y198846D01*
X-43097Y198819D01*
X-42977Y198799D01*
X-42841Y198787D01*
X-42689Y198784D01*
Y197996D01*
X-42841Y197992D01*
X-42977Y197980D01*
X-43097Y197961D01*
X-43201Y197933D01*
X-43289Y197898D01*
X-43361Y197854D01*
X-43417Y197803D01*
X-43457Y197744D01*
X-43481Y197677D01*
X-43489Y197602D01*
Y199177D01*
X-43481Y199102D01*
D02*
G37*
G36*
Y155008D02*
X-43457Y154941D01*
X-43417Y154882D01*
X-43361Y154831D01*
X-43289Y154787D01*
X-43201Y154752D01*
X-43097Y154724D01*
X-42977Y154705D01*
X-42841Y154693D01*
X-42689Y154689D01*
Y153902D01*
X-42841Y153898D01*
X-42977Y153886D01*
X-43097Y153866D01*
X-43201Y153839D01*
X-43289Y153803D01*
X-43361Y153760D01*
X-43417Y153709D01*
X-43457Y153649D01*
X-43481Y153583D01*
X-43489Y153508D01*
Y155083D01*
X-43481Y155008D01*
D02*
G37*
G36*
Y145559D02*
X-43457Y145492D01*
X-43417Y145433D01*
X-43361Y145382D01*
X-43289Y145338D01*
X-43201Y145303D01*
X-43097Y145275D01*
X-42977Y145256D01*
X-42841Y145244D01*
X-42689Y145240D01*
Y144453D01*
X-42841Y144449D01*
X-42977Y144437D01*
X-43097Y144417D01*
X-43201Y144390D01*
X-43289Y144354D01*
X-43361Y144311D01*
X-43417Y144260D01*
X-43457Y144201D01*
X-43481Y144134D01*
X-43489Y144059D01*
Y145634D01*
X-43481Y145559D01*
D02*
G37*
G36*
Y139260D02*
X-43457Y139193D01*
X-43417Y139134D01*
X-43361Y139083D01*
X-43289Y139039D01*
X-43201Y139004D01*
X-43097Y138976D01*
X-42977Y138957D01*
X-42841Y138945D01*
X-42689Y138941D01*
Y138154D01*
X-42841Y138150D01*
X-42977Y138138D01*
X-43097Y138118D01*
X-43201Y138091D01*
X-43289Y138055D01*
X-43361Y138012D01*
X-43417Y137961D01*
X-43457Y137901D01*
X-43481Y137835D01*
X-43489Y137760D01*
Y139335D01*
X-43481Y139260D01*
D02*
G37*
G36*
Y136110D02*
X-43457Y136043D01*
X-43417Y135984D01*
X-43361Y135933D01*
X-43289Y135890D01*
X-43201Y135854D01*
X-43097Y135827D01*
X-42977Y135807D01*
X-42841Y135795D01*
X-42689Y135791D01*
Y135004D01*
X-42841Y135000D01*
X-42977Y134988D01*
X-43097Y134968D01*
X-43201Y134941D01*
X-43289Y134906D01*
X-43361Y134862D01*
X-43417Y134811D01*
X-43457Y134752D01*
X-43481Y134685D01*
X-43489Y134610D01*
Y136185D01*
X-43481Y136110D01*
D02*
G37*
G36*
Y129811D02*
X-43457Y129744D01*
X-43417Y129685D01*
X-43361Y129634D01*
X-43289Y129590D01*
X-43201Y129555D01*
X-43097Y129527D01*
X-42977Y129508D01*
X-42841Y129496D01*
X-42689Y129492D01*
Y128705D01*
X-42841Y128701D01*
X-42977Y128689D01*
X-43097Y128669D01*
X-43201Y128642D01*
X-43289Y128606D01*
X-43361Y128563D01*
X-43417Y128512D01*
X-43457Y128453D01*
X-43481Y128386D01*
X-43489Y128311D01*
Y129886D01*
X-43481Y129811D01*
D02*
G37*
G36*
X-42689Y113646D02*
X-42840Y113642D01*
X-42976Y113630D01*
X-43095Y113610D01*
X-43199Y113583D01*
X-43287Y113547D01*
X-43359Y113504D01*
X-43415Y113453D01*
X-43455Y113394D01*
X-43480Y113327D01*
X-43489Y113252D01*
X-43477Y114421D01*
X-42689Y114433D01*
Y113646D01*
D02*
G37*
G36*
X548745Y17689D02*
X527799D01*
X527521Y18105D01*
X527656Y18431D01*
X528031Y20318D01*
Y22241D01*
X527656Y24127D01*
X526920Y25904D01*
X525852Y27504D01*
X524492Y28863D01*
X522893Y29932D01*
X521116Y30668D01*
X519229Y31043D01*
X517306D01*
X515420Y30668D01*
X513643Y29932D01*
X512044Y28863D01*
X510684Y27504D01*
X509615Y25904D01*
X508879Y24127D01*
X508504Y22241D01*
Y20318D01*
X508879Y18431D01*
X509014Y18105D01*
X508737Y17689D01*
X304350D01*
Y118083D01*
X508627D01*
X508879Y116817D01*
X509615Y115041D01*
X510684Y113441D01*
X512044Y112081D01*
X513643Y111013D01*
X515420Y110277D01*
X517306Y109902D01*
X519229D01*
X521116Y110277D01*
X522893Y111013D01*
X524492Y112081D01*
X525852Y113441D01*
X526920Y115041D01*
X527656Y116817D01*
X527908Y118083D01*
X548745D01*
Y17689D01*
D02*
G37*
%LPC*%
G36*
X288976Y379107D02*
Y376181D01*
X291902D01*
X291693Y376960D01*
X291226Y377770D01*
X290565Y378431D01*
X289756Y378898D01*
X288976Y379107D01*
D02*
G37*
G36*
X287795D02*
X287016Y378898D01*
X286207Y378431D01*
X285546Y377770D01*
X285079Y376960D01*
X284870Y376181D01*
X287795D01*
Y379107D01*
D02*
G37*
G36*
X291902Y375000D02*
X288976D01*
Y372074D01*
X289756Y372283D01*
X290565Y372750D01*
X291226Y373411D01*
X291693Y374221D01*
X291902Y375000D01*
D02*
G37*
G36*
X287795D02*
X284870D01*
X285079Y374221D01*
X285546Y373411D01*
X286207Y372750D01*
X287016Y372283D01*
X287795Y372074D01*
Y375000D01*
D02*
G37*
G36*
X30007Y339290D02*
X29193D01*
X28407Y339080D01*
X27702Y338673D01*
X27127Y338098D01*
X26720Y337393D01*
X26509Y336607D01*
Y335793D01*
X26720Y335007D01*
X27127Y334302D01*
X27702Y333727D01*
X28407Y333320D01*
X29193Y333109D01*
X30007D01*
X30793Y333320D01*
X31498Y333727D01*
X32073Y334302D01*
X32480Y335007D01*
X32691Y335793D01*
Y336607D01*
X32480Y337393D01*
X32073Y338098D01*
X31498Y338673D01*
X30793Y339080D01*
X30007Y339290D01*
D02*
G37*
G36*
X22691D02*
X16510D01*
Y333109D01*
X22691D01*
Y339290D01*
D02*
G37*
G36*
X30191Y329853D02*
Y326790D01*
X33253D01*
X33030Y327621D01*
X32546Y328460D01*
X31860Y329146D01*
X31021Y329630D01*
X30191Y329853D01*
D02*
G37*
G36*
X20191D02*
Y326790D01*
X23253D01*
X23030Y327621D01*
X22546Y328460D01*
X21860Y329146D01*
X21021Y329630D01*
X20191Y329853D01*
D02*
G37*
G36*
X29010D02*
X28179Y329630D01*
X27340Y329146D01*
X26654Y328460D01*
X26170Y327621D01*
X25947Y326790D01*
X29010D01*
Y329853D01*
D02*
G37*
G36*
X19010D02*
X18179Y329630D01*
X17340Y329146D01*
X16654Y328460D01*
X16170Y327621D01*
X15947Y326790D01*
X19010D01*
Y329853D01*
D02*
G37*
G36*
X33253Y325609D02*
X30191D01*
Y322547D01*
X31021Y322770D01*
X31860Y323254D01*
X32546Y323940D01*
X33030Y324779D01*
X33253Y325609D01*
D02*
G37*
G36*
X23253D02*
X20191D01*
Y322547D01*
X21021Y322770D01*
X21860Y323254D01*
X22546Y323940D01*
X23030Y324779D01*
X23253Y325609D01*
D02*
G37*
G36*
X29010D02*
X25947D01*
X26170Y324779D01*
X26654Y323940D01*
X27340Y323254D01*
X28179Y322770D01*
X29010Y322547D01*
Y325609D01*
D02*
G37*
G36*
X19010D02*
X15947D01*
X16170Y324779D01*
X16654Y323940D01*
X17340Y323254D01*
X18179Y322770D01*
X19010Y322547D01*
Y325609D01*
D02*
G37*
G36*
X30007Y319290D02*
X29193D01*
X28407Y319080D01*
X27702Y318673D01*
X27127Y318098D01*
X26720Y317393D01*
X26509Y316607D01*
Y315793D01*
X26720Y315007D01*
X27127Y314302D01*
X27702Y313727D01*
X28407Y313320D01*
X29193Y313109D01*
X30007D01*
X30793Y313320D01*
X31498Y313727D01*
X32073Y314302D01*
X32480Y315007D01*
X32691Y315793D01*
Y316607D01*
X32480Y317393D01*
X32073Y318098D01*
X31498Y318673D01*
X30793Y319080D01*
X30007Y319290D01*
D02*
G37*
G36*
X20007D02*
X19193D01*
X18407Y319080D01*
X17702Y318673D01*
X17127Y318098D01*
X16720Y317393D01*
X16510Y316607D01*
Y315793D01*
X16720Y315007D01*
X17127Y314302D01*
X17702Y313727D01*
X18407Y313320D01*
X19193Y313109D01*
X20007D01*
X20793Y313320D01*
X21498Y313727D01*
X22073Y314302D01*
X22480Y315007D01*
X22691Y315793D01*
Y316607D01*
X22480Y317393D01*
X22073Y318098D01*
X21498Y318673D01*
X20793Y319080D01*
X20007Y319290D01*
D02*
G37*
G36*
X30191Y309853D02*
Y306790D01*
X33253D01*
X33030Y307621D01*
X32546Y308460D01*
X31860Y309146D01*
X31021Y309630D01*
X30191Y309853D01*
D02*
G37*
G36*
X20191D02*
Y306790D01*
X23253D01*
X23030Y307621D01*
X22546Y308460D01*
X21860Y309146D01*
X21021Y309630D01*
X20191Y309853D01*
D02*
G37*
G36*
X29010D02*
X28179Y309630D01*
X27340Y309146D01*
X26654Y308460D01*
X26170Y307621D01*
X25947Y306790D01*
X29010D01*
Y309853D01*
D02*
G37*
G36*
X19010D02*
X18179Y309630D01*
X17340Y309146D01*
X16654Y308460D01*
X16170Y307621D01*
X15947Y306790D01*
X19010D01*
Y309853D01*
D02*
G37*
G36*
X33253Y305609D02*
X30191D01*
Y302547D01*
X31021Y302770D01*
X31860Y303254D01*
X32546Y303940D01*
X33030Y304779D01*
X33253Y305609D01*
D02*
G37*
G36*
X23253D02*
X20191D01*
Y302547D01*
X21021Y302770D01*
X21860Y303254D01*
X22546Y303940D01*
X23030Y304779D01*
X23253Y305609D01*
D02*
G37*
G36*
X29010D02*
X25947D01*
X26170Y304779D01*
X26654Y303940D01*
X27340Y303254D01*
X28179Y302770D01*
X29010Y302547D01*
Y305609D01*
D02*
G37*
G36*
X19010D02*
X15947D01*
X16170Y304779D01*
X16654Y303940D01*
X17340Y303254D01*
X18179Y302770D01*
X19010Y302547D01*
Y305609D01*
D02*
G37*
G36*
X30007Y299290D02*
X29193D01*
X28407Y299080D01*
X27702Y298673D01*
X27127Y298098D01*
X26720Y297393D01*
X26509Y296607D01*
Y295793D01*
X26720Y295007D01*
X27127Y294302D01*
X27702Y293727D01*
X28407Y293320D01*
X29193Y293109D01*
X30007D01*
X30793Y293320D01*
X31498Y293727D01*
X32073Y294302D01*
X32480Y295007D01*
X32691Y295793D01*
Y296607D01*
X32480Y297393D01*
X32073Y298098D01*
X31498Y298673D01*
X30793Y299080D01*
X30007Y299290D01*
D02*
G37*
G36*
X20007D02*
X19193D01*
X18407Y299080D01*
X17702Y298673D01*
X17127Y298098D01*
X16720Y297393D01*
X16510Y296607D01*
Y295793D01*
X16720Y295007D01*
X17127Y294302D01*
X17702Y293727D01*
X18407Y293320D01*
X19193Y293109D01*
X20007D01*
X20793Y293320D01*
X21498Y293727D01*
X22073Y294302D01*
X22480Y295007D01*
X22691Y295793D01*
Y296607D01*
X22480Y297393D01*
X22073Y298098D01*
X21498Y298673D01*
X20793Y299080D01*
X20007Y299290D01*
D02*
G37*
G36*
X30191Y289853D02*
Y286790D01*
X33253D01*
X33030Y287621D01*
X32546Y288460D01*
X31860Y289146D01*
X31021Y289630D01*
X30191Y289853D01*
D02*
G37*
G36*
X20191D02*
Y286790D01*
X23253D01*
X23030Y287621D01*
X22546Y288460D01*
X21860Y289146D01*
X21021Y289630D01*
X20191Y289853D01*
D02*
G37*
G36*
X29010D02*
X28179Y289630D01*
X27340Y289146D01*
X26654Y288460D01*
X26170Y287621D01*
X25947Y286790D01*
X29010D01*
Y289853D01*
D02*
G37*
G36*
X19010D02*
X18179Y289630D01*
X17340Y289146D01*
X16654Y288460D01*
X16170Y287621D01*
X15947Y286790D01*
X19010D01*
Y289853D01*
D02*
G37*
G36*
X33253Y285609D02*
X30191D01*
Y282547D01*
X31021Y282770D01*
X31860Y283254D01*
X32546Y283940D01*
X33030Y284779D01*
X33253Y285609D01*
D02*
G37*
G36*
X23253D02*
X20191D01*
Y282547D01*
X21021Y282770D01*
X21860Y283254D01*
X22546Y283940D01*
X23030Y284779D01*
X23253Y285609D01*
D02*
G37*
G36*
X29010D02*
X25947D01*
X26170Y284779D01*
X26654Y283940D01*
X27340Y283254D01*
X28179Y282770D01*
X29010Y282547D01*
Y285609D01*
D02*
G37*
G36*
X19010D02*
X15947D01*
X16170Y284779D01*
X16654Y283940D01*
X17340Y283254D01*
X18179Y282770D01*
X19010Y282547D01*
Y285609D01*
D02*
G37*
G36*
X-42480Y279689D02*
X-48976D01*
X-55472D01*
Y278213D01*
Y277721D01*
X-48976D01*
X-42480D01*
Y278213D01*
Y279689D01*
D02*
G37*
G36*
X7203Y357874D02*
X6577D01*
X5998Y357634D01*
X5555Y357191D01*
X5315Y356612D01*
Y355986D01*
X5485Y355576D01*
Y289799D01*
X1539Y285854D01*
X-17761D01*
X-18298Y285747D01*
X-18754Y285442D01*
X-28811Y275385D01*
X-42480D01*
Y276539D01*
X-48976D01*
X-55472D01*
Y275063D01*
X-54882D01*
Y272898D01*
X-55472D01*
Y271421D01*
X-48976D01*
X-42480D01*
Y272575D01*
X-28229D01*
X-27692Y272682D01*
X-27236Y272987D01*
X-17179Y283044D01*
X2121D01*
X2659Y283151D01*
X3115Y283455D01*
X7883Y288224D01*
X8188Y288680D01*
X8295Y289217D01*
Y355576D01*
X8465Y355986D01*
Y356612D01*
X8225Y357191D01*
X7782Y357634D01*
X7203Y357874D01*
D02*
G37*
G36*
X-42480Y270240D02*
X-48976D01*
X-55472D01*
Y268764D01*
X-54882D01*
Y266598D01*
X-55472D01*
Y265122D01*
X-48976D01*
X-42480D01*
Y266276D01*
X-38318D01*
X-38183Y266249D01*
X-38047Y266276D01*
X-37908D01*
X-37781Y266329D01*
X-37645Y266356D01*
X-37530Y266433D01*
X-37402Y266486D01*
X-37304Y266584D01*
X-37189Y266661D01*
X-37112Y266776D01*
X-37014Y266874D01*
X-36961Y267001D01*
X-36884Y267116D01*
X-36858Y267252D01*
X-36805Y267380D01*
Y267518D01*
X-36778Y267654D01*
Y267681D01*
X-36805Y267817D01*
Y267928D01*
X-36847Y268031D01*
X-36884Y268219D01*
X-36991Y268378D01*
X-37014Y268435D01*
X-37058Y268478D01*
X-37189Y268674D01*
X-37385Y268806D01*
X-37402Y268822D01*
X-37424Y268831D01*
X-37645Y268979D01*
X-37906Y269031D01*
X-37908Y269032D01*
X-37911D01*
X-38183Y269086D01*
X-42480D01*
Y270240D01*
D02*
G37*
G36*
X39391Y262653D02*
Y259591D01*
X42453D01*
X42230Y260421D01*
X41745Y261260D01*
X41060Y261946D01*
X40221Y262430D01*
X39391Y262653D01*
D02*
G37*
G36*
X38209D02*
X37379Y262430D01*
X36540Y261946D01*
X35854Y261260D01*
X35370Y260421D01*
X35147Y259591D01*
X38209D01*
Y262653D01*
D02*
G37*
G36*
X-42480Y263941D02*
X-48976D01*
X-55472D01*
Y262464D01*
X-54882D01*
Y260299D01*
X-55472D01*
Y258823D01*
X-48976D01*
X-42480D01*
Y259977D01*
X-38034D01*
X-37949Y259994D01*
X-37922D01*
X-37786Y260021D01*
X-37648D01*
X-37520Y260073D01*
X-37384Y260101D01*
X-37269Y260177D01*
X-37141Y260230D01*
X-37043Y260328D01*
X-36928Y260405D01*
X-36852Y260520D01*
X-36754Y260618D01*
X-36701Y260746D01*
X-36624Y260861D01*
X-36597Y260997D01*
X-36544Y261124D01*
Y261263D01*
X-36517Y261399D01*
X-36544Y261534D01*
Y261673D01*
X-36597Y261801D01*
X-36624Y261936D01*
X-36701Y262051D01*
X-36754Y262179D01*
X-36852Y262277D01*
X-36928Y262392D01*
X-37043Y262469D01*
X-37141Y262567D01*
X-37269Y262620D01*
X-37384Y262697D01*
X-37520Y262723D01*
X-37648Y262776D01*
X-37786D01*
X-37922Y262804D01*
X-38017D01*
X-38101Y262787D01*
X-42480D01*
Y263941D01*
D02*
G37*
G36*
X29207Y262091D02*
X28393D01*
X27607Y261880D01*
X26902Y261473D01*
X26327Y260898D01*
X25920Y260193D01*
X25709Y259407D01*
Y258593D01*
X25920Y257807D01*
X26122Y257457D01*
X24550Y255885D01*
X22380D01*
X21891Y255909D01*
X21891Y256385D01*
Y262091D01*
X15709D01*
X15709Y255909D01*
X15219Y255885D01*
X-42096D01*
X-42480Y256165D01*
Y257642D01*
X-48976D01*
X-55472D01*
Y256165D01*
X-54882D01*
Y254000D01*
X-55472D01*
Y252524D01*
X-48976D01*
X-42480D01*
Y254000D01*
X-42096Y254280D01*
X24882D01*
X25190Y254341D01*
X25450Y254515D01*
X27257Y256322D01*
X27607Y256120D01*
X28393Y255909D01*
X29207D01*
X29993Y256120D01*
X30698Y256527D01*
X31273Y257102D01*
X31680Y257807D01*
X31890Y258593D01*
Y259407D01*
X31680Y260193D01*
X31273Y260898D01*
X30698Y261473D01*
X29993Y261880D01*
X29207Y262091D01*
D02*
G37*
G36*
X42453Y258410D02*
X39391D01*
Y255347D01*
X40221Y255570D01*
X41060Y256054D01*
X41745Y256740D01*
X42230Y257579D01*
X42453Y258410D01*
D02*
G37*
G36*
X38209D02*
X35147D01*
X35370Y257579D01*
X35854Y256740D01*
X36540Y256054D01*
X37379Y255570D01*
X38209Y255347D01*
Y258410D01*
D02*
G37*
G36*
X289134Y254107D02*
Y251181D01*
X292059D01*
X291851Y251960D01*
X291383Y252770D01*
X290723Y253431D01*
X289913Y253898D01*
X289134Y254107D01*
D02*
G37*
G36*
X287953D02*
X287173Y253898D01*
X286364Y253431D01*
X285703Y252770D01*
X285236Y251960D01*
X285027Y251181D01*
X287953D01*
Y254107D01*
D02*
G37*
G36*
X39391Y252653D02*
Y249591D01*
X42453D01*
X42230Y250421D01*
X41745Y251260D01*
X41060Y251946D01*
X40221Y252430D01*
X39391Y252653D01*
D02*
G37*
G36*
X38209D02*
X37379Y252430D01*
X36540Y251946D01*
X35854Y251260D01*
X35370Y250421D01*
X35147Y249591D01*
X38209D01*
Y252653D01*
D02*
G37*
G36*
X292059Y250000D02*
X289134D01*
Y247074D01*
X289913Y247283D01*
X290723Y247750D01*
X291383Y248411D01*
X291851Y249221D01*
X292059Y250000D01*
D02*
G37*
G36*
X287953D02*
X285027D01*
X285236Y249221D01*
X285703Y248411D01*
X286364Y247750D01*
X287173Y247283D01*
X287953Y247074D01*
Y250000D01*
D02*
G37*
G36*
X29207Y252091D02*
X28393D01*
X27607Y251880D01*
X26902Y251473D01*
X26327Y250898D01*
X25920Y250193D01*
X25709Y249407D01*
Y248593D01*
X25920Y247807D01*
X26122Y247457D01*
X24983Y246319D01*
X21196D01*
X20989Y246819D01*
X21273Y247102D01*
X21680Y247807D01*
X21891Y248593D01*
Y249407D01*
X21680Y250193D01*
X21273Y250898D01*
X20698Y251473D01*
X19993Y251880D01*
X19207Y252091D01*
X18393D01*
X17607Y251880D01*
X16902Y251473D01*
X16327Y250898D01*
X15920Y250193D01*
X15709Y249407D01*
Y248593D01*
X15920Y247807D01*
X16327Y247102D01*
X16611Y246819D01*
X16404Y246319D01*
X-9841D01*
X-12874Y249351D01*
X-13134Y249525D01*
X-13441Y249586D01*
X-42096D01*
X-42480Y249866D01*
Y251343D01*
X-48976D01*
X-55472D01*
Y249866D01*
X-54882D01*
Y247701D01*
X-55472D01*
Y246224D01*
X-48976D01*
X-42480D01*
Y247701D01*
X-42096Y247981D01*
X-13774D01*
X-10741Y244948D01*
X-10741Y244948D01*
X-10481Y244774D01*
X-10174Y244713D01*
X25316D01*
X25623Y244774D01*
X25883Y244948D01*
X27257Y246322D01*
X27607Y246120D01*
X28393Y245910D01*
X29207D01*
X29993Y246120D01*
X30698Y246527D01*
X31273Y247102D01*
X31680Y247807D01*
X31890Y248593D01*
Y249407D01*
X31680Y250193D01*
X31273Y250898D01*
X30698Y251473D01*
X29993Y251880D01*
X29207Y252091D01*
D02*
G37*
G36*
X42453Y248410D02*
X39391D01*
Y245347D01*
X40221Y245570D01*
X41060Y246054D01*
X41745Y246740D01*
X42230Y247579D01*
X42453Y248410D01*
D02*
G37*
G36*
X38209D02*
X35147D01*
X35370Y247579D01*
X35854Y246740D01*
X36540Y246054D01*
X37379Y245570D01*
X38209Y245347D01*
Y248410D01*
D02*
G37*
G36*
X39391Y242653D02*
Y239591D01*
X42453D01*
X42230Y240421D01*
X41745Y241260D01*
X41060Y241946D01*
X40221Y242430D01*
X39391Y242653D01*
D02*
G37*
G36*
X38209D02*
X37379Y242430D01*
X36540Y241946D01*
X35854Y241260D01*
X35370Y240421D01*
X35147Y239591D01*
X38209D01*
Y242653D01*
D02*
G37*
G36*
X-42480Y245043D02*
X-48976D01*
X-55472D01*
Y243567D01*
X-54882D01*
Y241402D01*
X-55472D01*
Y239925D01*
X-48976D01*
X-42480D01*
Y241402D01*
X-42096Y241681D01*
X16404D01*
X16611Y241181D01*
X16327Y240898D01*
X15920Y240193D01*
X15709Y239407D01*
Y238593D01*
X15920Y237807D01*
X16327Y237102D01*
X16902Y236527D01*
X17607Y236120D01*
X18393Y235910D01*
X19207D01*
X19993Y236120D01*
X20698Y236527D01*
X21273Y237102D01*
X21680Y237807D01*
X21891Y238593D01*
Y239407D01*
X21680Y240193D01*
X21273Y240898D01*
X20989Y241181D01*
X21196Y241681D01*
X24983D01*
X26122Y240543D01*
X25920Y240193D01*
X25709Y239407D01*
Y238593D01*
X25920Y237807D01*
X26327Y237102D01*
X26902Y236527D01*
X27607Y236120D01*
X28393Y235910D01*
X29207D01*
X29993Y236120D01*
X30698Y236527D01*
X31273Y237102D01*
X31680Y237807D01*
X31890Y238593D01*
Y239407D01*
X31680Y240193D01*
X31273Y240898D01*
X30698Y241473D01*
X29993Y241880D01*
X29207Y242091D01*
X28393D01*
X27607Y241880D01*
X27257Y241678D01*
X25883Y243052D01*
X25623Y243226D01*
X25316Y243287D01*
X-42096D01*
X-42480Y243567D01*
Y245043D01*
D02*
G37*
G36*
X42453Y238409D02*
X39391D01*
Y235347D01*
X40221Y235570D01*
X41060Y236054D01*
X41745Y236740D01*
X42230Y237579D01*
X42453Y238409D01*
D02*
G37*
G36*
X38209D02*
X35147D01*
X35370Y237579D01*
X35854Y236740D01*
X36540Y236054D01*
X37379Y235570D01*
X38209Y235347D01*
Y238409D01*
D02*
G37*
G36*
X39391Y232653D02*
Y229591D01*
X42453D01*
X42230Y230421D01*
X41745Y231260D01*
X41060Y231946D01*
X40221Y232430D01*
X39391Y232653D01*
D02*
G37*
G36*
X38209D02*
X37379Y232430D01*
X36540Y231946D01*
X35854Y231260D01*
X35370Y230421D01*
X35147Y229591D01*
X38209D01*
Y232653D01*
D02*
G37*
G36*
X-42480Y238744D02*
X-48976D01*
X-55472D01*
Y237268D01*
X-54882D01*
Y235102D01*
X-55472D01*
Y233626D01*
X-48976D01*
X-42480D01*
Y235102D01*
X-42096Y235382D01*
X8758D01*
X10850Y233291D01*
X11110Y233117D01*
X11417Y233055D01*
X23609D01*
X26122Y230543D01*
X25920Y230193D01*
X25709Y229407D01*
Y228593D01*
X25920Y227807D01*
X26327Y227102D01*
X26902Y226527D01*
X27607Y226120D01*
X28393Y225909D01*
X29207D01*
X29993Y226120D01*
X30698Y226527D01*
X31273Y227102D01*
X31680Y227807D01*
X31890Y228593D01*
Y229407D01*
X31680Y230193D01*
X31273Y230898D01*
X30698Y231473D01*
X29993Y231880D01*
X29207Y232091D01*
X28393D01*
X27607Y231880D01*
X27257Y231678D01*
X24509Y234426D01*
X24249Y234600D01*
X23942Y234661D01*
X11750D01*
X9658Y236753D01*
X9398Y236927D01*
X9091Y236988D01*
X-42096D01*
X-42480Y237268D01*
Y238744D01*
D02*
G37*
G36*
X19207Y232091D02*
X18393D01*
X17607Y231880D01*
X16902Y231473D01*
X16327Y230898D01*
X15920Y230193D01*
X15709Y229407D01*
Y228593D01*
X15920Y227807D01*
X16327Y227102D01*
X16902Y226527D01*
X17607Y226120D01*
X18393Y225909D01*
X19207D01*
X19993Y226120D01*
X20698Y226527D01*
X21273Y227102D01*
X21680Y227807D01*
X21891Y228593D01*
Y229407D01*
X21680Y230193D01*
X21273Y230898D01*
X20698Y231473D01*
X19993Y231880D01*
X19207Y232091D01*
D02*
G37*
G36*
X42453Y228410D02*
X39391D01*
Y225347D01*
X40221Y225570D01*
X41060Y226054D01*
X41745Y226740D01*
X42230Y227579D01*
X42453Y228410D01*
D02*
G37*
G36*
X38209D02*
X35147D01*
X35370Y227579D01*
X35854Y226740D01*
X36540Y226054D01*
X37379Y225570D01*
X38209Y225347D01*
Y228410D01*
D02*
G37*
G36*
X39391Y222653D02*
Y219591D01*
X42453D01*
X42230Y220421D01*
X41745Y221260D01*
X41060Y221946D01*
X40221Y222430D01*
X39391Y222653D01*
D02*
G37*
G36*
X38209D02*
X37379Y222430D01*
X36540Y221946D01*
X35854Y221260D01*
X35370Y220421D01*
X35147Y219591D01*
X38209D01*
Y222653D01*
D02*
G37*
G36*
X-42480Y232445D02*
X-48976D01*
X-55472D01*
Y230968D01*
X-54882D01*
Y228803D01*
X-55472D01*
Y227327D01*
X-48976D01*
X-42480D01*
Y228803D01*
X-42096Y229083D01*
X-6990D01*
X-174Y222267D01*
X87Y222093D01*
X394Y222032D01*
X16870D01*
X17004Y221532D01*
X16902Y221473D01*
X16327Y220898D01*
X15920Y220193D01*
X15709Y219407D01*
Y218593D01*
X15920Y217807D01*
X16327Y217102D01*
X16902Y216527D01*
X17607Y216120D01*
X18393Y215910D01*
X19207D01*
X19993Y216120D01*
X20698Y216527D01*
X21273Y217102D01*
X21680Y217807D01*
X21891Y218593D01*
Y219407D01*
X21680Y220193D01*
X21273Y220898D01*
X20698Y221473D01*
X20596Y221532D01*
X20730Y222032D01*
X24633D01*
X26122Y220543D01*
X25920Y220193D01*
X25709Y219407D01*
Y218593D01*
X25920Y217807D01*
X26327Y217102D01*
X26902Y216527D01*
X27607Y216120D01*
X28393Y215910D01*
X29207D01*
X29993Y216120D01*
X30698Y216527D01*
X31273Y217102D01*
X31680Y217807D01*
X31890Y218593D01*
Y219407D01*
X31680Y220193D01*
X31273Y220898D01*
X30698Y221473D01*
X29993Y221880D01*
X29207Y222091D01*
X28393D01*
X27607Y221880D01*
X27257Y221678D01*
X25533Y223402D01*
X25273Y223576D01*
X24965Y223638D01*
X726D01*
X-6090Y230453D01*
X-6350Y230627D01*
X-6657Y230689D01*
X-42096D01*
X-42480Y230968D01*
Y232445D01*
D02*
G37*
G36*
X42453Y218409D02*
X39391D01*
Y215347D01*
X40221Y215570D01*
X41060Y216054D01*
X41745Y216740D01*
X42230Y217579D01*
X42453Y218409D01*
D02*
G37*
G36*
X38209D02*
X35147D01*
X35370Y217579D01*
X35854Y216740D01*
X36540Y216054D01*
X37379Y215570D01*
X38209Y215347D01*
Y218409D01*
D02*
G37*
G36*
X-42480Y226146D02*
X-48976D01*
X-55472D01*
Y224669D01*
X-54882D01*
Y222504D01*
X-55472D01*
Y221028D01*
X-48976D01*
X-42480D01*
Y222504D01*
X-42096Y222784D01*
X-10927D01*
X-174Y212031D01*
X-174Y212031D01*
X87Y211857D01*
X394Y211796D01*
X394Y211796D01*
X16518D01*
X16725Y211296D01*
X16327Y210898D01*
X15920Y210193D01*
X15709Y209407D01*
Y208593D01*
X15920Y207807D01*
X16327Y207102D01*
X16902Y206527D01*
X17607Y206120D01*
X18393Y205909D01*
X19207D01*
X19993Y206120D01*
X20698Y206527D01*
X21273Y207102D01*
X21680Y207807D01*
X21891Y208593D01*
Y209407D01*
X21680Y210193D01*
X21273Y210898D01*
X20875Y211296D01*
X21082Y211796D01*
X24869D01*
X26122Y210543D01*
X25920Y210193D01*
X25709Y209407D01*
Y208593D01*
X25920Y207807D01*
X26327Y207102D01*
X26902Y206527D01*
X27607Y206120D01*
X28393Y205909D01*
X29207D01*
X29993Y206120D01*
X30698Y206527D01*
X31273Y207102D01*
X31680Y207807D01*
X31890Y208593D01*
Y209407D01*
X31680Y210193D01*
X31478Y210543D01*
X33125Y212189D01*
X36076D01*
X36283Y211689D01*
X35854Y211260D01*
X35370Y210421D01*
X35147Y209591D01*
X38800D01*
X42453D01*
X42230Y210421D01*
X41745Y211260D01*
X41317Y211689D01*
X41524Y212189D01*
X66177D01*
X66542Y211824D01*
X67049Y211614D01*
X67597D01*
X68103Y211824D01*
X68491Y212212D01*
X68701Y212718D01*
Y213266D01*
X68491Y213773D01*
X68103Y214160D01*
X67597Y214370D01*
X67049D01*
X66542Y214160D01*
X66177Y213795D01*
X32792D01*
X32792Y213795D01*
X32485Y213734D01*
X32224Y213560D01*
X32224Y213560D01*
X30343Y211678D01*
X29993Y211880D01*
X29207Y212091D01*
X28393D01*
X27607Y211880D01*
X27257Y211678D01*
X25769Y213166D01*
X25509Y213340D01*
X25201Y213401D01*
X726D01*
X-10027Y224154D01*
X-10287Y224328D01*
X-10594Y224389D01*
X-42096D01*
X-42480Y224669D01*
Y226146D01*
D02*
G37*
G36*
X42453Y208410D02*
X39391D01*
Y205347D01*
X40221Y205570D01*
X41060Y206054D01*
X41745Y206740D01*
X42230Y207579D01*
X42453Y208410D01*
D02*
G37*
G36*
X38209D02*
X35147D01*
X35370Y207579D01*
X35854Y206740D01*
X36540Y206054D01*
X37379Y205570D01*
X38209Y205347D01*
Y208410D01*
D02*
G37*
G36*
X39391Y202653D02*
Y199591D01*
X42453D01*
X42230Y200421D01*
X41745Y201260D01*
X41060Y201946D01*
X40221Y202430D01*
X39391Y202653D01*
D02*
G37*
G36*
X38209D02*
X37379Y202430D01*
X36540Y201946D01*
X35854Y201260D01*
X35370Y200421D01*
X35147Y199591D01*
X38209D01*
Y202653D01*
D02*
G37*
G36*
X-42480Y219847D02*
X-48976D01*
X-55472D01*
Y218370D01*
X-54882D01*
Y216205D01*
X-55472D01*
Y214728D01*
X-48976D01*
X-42480D01*
Y216205D01*
X-42096Y216485D01*
X-13289D01*
X220Y202976D01*
X220Y202976D01*
X480Y202802D01*
X787Y202741D01*
X788Y202741D01*
X23924D01*
X26122Y200543D01*
X25920Y200193D01*
X25709Y199407D01*
Y198593D01*
X25920Y197807D01*
X26327Y197102D01*
X26902Y196527D01*
X27607Y196120D01*
X28393Y195910D01*
X29207D01*
X29993Y196120D01*
X30698Y196527D01*
X31273Y197102D01*
X31680Y197807D01*
X31890Y198593D01*
Y199407D01*
X31680Y200193D01*
X31273Y200898D01*
X30698Y201473D01*
X29993Y201880D01*
X29207Y202091D01*
X28393D01*
X27607Y201880D01*
X27257Y201678D01*
X24824Y204111D01*
X24564Y204285D01*
X24257Y204346D01*
X1120D01*
X-12389Y217855D01*
X-12650Y218029D01*
X-12957Y218090D01*
X-42096D01*
X-42480Y218370D01*
Y219847D01*
D02*
G37*
G36*
X19207Y202091D02*
X18393D01*
X17607Y201880D01*
X16902Y201473D01*
X16327Y200898D01*
X15920Y200193D01*
X15709Y199407D01*
Y198593D01*
X15920Y197807D01*
X16327Y197102D01*
X16902Y196527D01*
X17607Y196120D01*
X18393Y195910D01*
X19207D01*
X19993Y196120D01*
X20698Y196527D01*
X21273Y197102D01*
X21680Y197807D01*
X21891Y198593D01*
Y199407D01*
X21680Y200193D01*
X21273Y200898D01*
X20698Y201473D01*
X19993Y201880D01*
X19207Y202091D01*
D02*
G37*
G36*
X42453Y198409D02*
X39391D01*
Y195347D01*
X40221Y195570D01*
X41060Y196054D01*
X41745Y196740D01*
X42230Y197579D01*
X42453Y198409D01*
D02*
G37*
G36*
X38209D02*
X35147D01*
X35370Y197579D01*
X35854Y196740D01*
X36540Y196054D01*
X37379Y195570D01*
X38209Y195347D01*
Y198409D01*
D02*
G37*
G36*
X39391Y192653D02*
Y189591D01*
X42453D01*
X42230Y190421D01*
X41745Y191260D01*
X41060Y191946D01*
X40221Y192430D01*
X39391Y192653D01*
D02*
G37*
G36*
X38209D02*
X37379Y192430D01*
X36540Y191946D01*
X35854Y191260D01*
X35370Y190421D01*
X35147Y189591D01*
X38209D01*
Y192653D01*
D02*
G37*
G36*
X-42480Y213547D02*
X-48976D01*
X-55472D01*
Y212071D01*
X-54882D01*
Y209906D01*
X-55472D01*
Y208429D01*
X-48976D01*
X-42480D01*
Y209906D01*
X-42096Y210185D01*
X-14864D01*
X2582Y192739D01*
X2582Y192739D01*
X2842Y192565D01*
X3150Y192504D01*
X18005D01*
X18071Y192004D01*
X17607Y191880D01*
X16902Y191473D01*
X16327Y190898D01*
X15920Y190193D01*
X15709Y189407D01*
Y188593D01*
X15920Y187807D01*
X16327Y187102D01*
X16902Y186527D01*
X17607Y186120D01*
X18393Y185909D01*
X19207D01*
X19993Y186120D01*
X20698Y186527D01*
X21273Y187102D01*
X21680Y187807D01*
X21715Y187937D01*
X22345D01*
X26598Y183684D01*
X26598Y183684D01*
X26858Y183510D01*
X27165Y183449D01*
X27165Y183449D01*
X47279D01*
X47645Y183084D01*
X48151Y182874D01*
X48699D01*
X49206Y183084D01*
X49593Y183471D01*
X49803Y183978D01*
Y184526D01*
X49593Y185032D01*
X49206Y185420D01*
X48699Y185630D01*
X48151D01*
X47645Y185420D01*
X47279Y185055D01*
X40231D01*
X40165Y185555D01*
X40221Y185570D01*
X41060Y186054D01*
X41745Y186740D01*
X42230Y187579D01*
X42453Y188409D01*
X38800D01*
X35147D01*
X35370Y187579D01*
X35854Y186740D01*
X36540Y186054D01*
X37379Y185570D01*
X37435Y185555D01*
X37369Y185055D01*
X27498D01*
X23246Y189307D01*
X22985Y189481D01*
X22678Y189542D01*
X21854D01*
X21680Y190193D01*
X21273Y190898D01*
X20698Y191473D01*
X19993Y191880D01*
X19529Y192004D01*
X19595Y192504D01*
X22047D01*
X22354Y192565D01*
X22364Y192572D01*
X24093D01*
X26122Y190543D01*
X25920Y190193D01*
X25709Y189407D01*
Y188593D01*
X25920Y187807D01*
X26327Y187102D01*
X26902Y186527D01*
X27607Y186120D01*
X28393Y185909D01*
X29207D01*
X29993Y186120D01*
X30698Y186527D01*
X31273Y187102D01*
X31680Y187807D01*
X31890Y188593D01*
Y189407D01*
X31680Y190193D01*
X31273Y190898D01*
X30698Y191473D01*
X29993Y191880D01*
X29207Y192091D01*
X28393D01*
X27607Y191880D01*
X27257Y191678D01*
X24993Y193942D01*
X24733Y194116D01*
X24425Y194177D01*
X22115D01*
X21808Y194116D01*
X21798Y194110D01*
X3482D01*
X-13964Y211556D01*
X-14224Y211730D01*
X-14532Y211791D01*
X-42096D01*
X-42480Y212071D01*
Y213547D01*
D02*
G37*
G36*
X39391Y182653D02*
Y179591D01*
X42453D01*
X42230Y180421D01*
X41745Y181260D01*
X41060Y181946D01*
X40221Y182430D01*
X39391Y182653D01*
D02*
G37*
G36*
X38209D02*
X37379Y182430D01*
X36540Y181946D01*
X35854Y181260D01*
X35370Y180421D01*
X35147Y179591D01*
X38209D01*
Y182653D01*
D02*
G37*
G36*
X19207Y182091D02*
X18393D01*
X17607Y181880D01*
X16902Y181473D01*
X16327Y180898D01*
X15920Y180193D01*
X15709Y179407D01*
Y178593D01*
X15920Y177807D01*
X16327Y177102D01*
X16902Y176527D01*
X17607Y176120D01*
X18393Y175909D01*
X19207D01*
X19993Y176120D01*
X20698Y176527D01*
X21273Y177102D01*
X21680Y177807D01*
X21891Y178593D01*
Y179407D01*
X21680Y180193D01*
X21273Y180898D01*
X20698Y181473D01*
X19993Y181880D01*
X19207Y182091D01*
D02*
G37*
G36*
X42453Y178410D02*
X39391D01*
Y175347D01*
X40221Y175570D01*
X41060Y176054D01*
X41745Y176740D01*
X42230Y177579D01*
X42453Y178410D01*
D02*
G37*
G36*
X38209D02*
X35147D01*
X35370Y177579D01*
X35854Y176740D01*
X36540Y176054D01*
X37379Y175570D01*
X38209Y175347D01*
Y178410D01*
D02*
G37*
G36*
X39391Y172653D02*
Y169591D01*
X42453D01*
X42230Y170421D01*
X41745Y171260D01*
X41060Y171946D01*
X40221Y172430D01*
X39391Y172653D01*
D02*
G37*
G36*
X38209D02*
X37379Y172430D01*
X36540Y171946D01*
X35854Y171260D01*
X35370Y170421D01*
X35147Y169591D01*
X38209D01*
Y172653D01*
D02*
G37*
G36*
X19207Y172091D02*
X18393D01*
X17607Y171880D01*
X16902Y171473D01*
X16327Y170898D01*
X15920Y170193D01*
X15709Y169407D01*
Y168593D01*
X15920Y167807D01*
X16327Y167102D01*
X16902Y166527D01*
X17607Y166120D01*
X18393Y165910D01*
X19207D01*
X19993Y166120D01*
X20698Y166527D01*
X21273Y167102D01*
X21680Y167807D01*
X21891Y168593D01*
Y169407D01*
X21680Y170193D01*
X21273Y170898D01*
X20698Y171473D01*
X19993Y171880D01*
X19207Y172091D01*
D02*
G37*
G36*
X42453Y168410D02*
X39391D01*
Y165347D01*
X40221Y165570D01*
X41060Y166054D01*
X41745Y166740D01*
X42230Y167579D01*
X42453Y168410D01*
D02*
G37*
G36*
X38209D02*
X35147D01*
X35370Y167579D01*
X35854Y166740D01*
X36540Y166054D01*
X37379Y165570D01*
X38209Y165347D01*
Y168410D01*
D02*
G37*
G36*
X-42480Y207248D02*
X-48976D01*
X-55472D01*
Y205772D01*
X-54882D01*
Y203606D01*
X-55472D01*
Y202130D01*
X-48976D01*
X-42480D01*
Y203606D01*
X-42096Y203886D01*
X-18014D01*
X2582Y183291D01*
X2842Y183117D01*
X3150Y183055D01*
X3150Y183055D01*
X23609D01*
X26122Y180543D01*
X25920Y180193D01*
X25709Y179407D01*
Y178593D01*
X25920Y177807D01*
X26327Y177102D01*
X26902Y176527D01*
X27607Y176120D01*
X28393Y175909D01*
X29207D01*
X29993Y176120D01*
X30343Y176322D01*
X32596Y174068D01*
Y159055D01*
X32657Y158748D01*
X32831Y158487D01*
X36768Y154551D01*
X36768Y154550D01*
X37029Y154376D01*
X37336Y154315D01*
X47103D01*
X47257Y153944D01*
X47645Y153556D01*
X48151Y153347D01*
X48699D01*
X49206Y153556D01*
X49593Y153944D01*
X49803Y154450D01*
Y154999D01*
X49593Y155505D01*
X49206Y155893D01*
X48699Y156102D01*
X48151D01*
X47713Y155921D01*
X37669D01*
X34202Y159388D01*
Y174401D01*
X34202Y174401D01*
X34141Y174708D01*
X33967Y174969D01*
X31478Y177457D01*
X31680Y177807D01*
X31890Y178593D01*
Y179407D01*
X31680Y180193D01*
X31273Y180898D01*
X30698Y181473D01*
X29993Y181880D01*
X29207Y182091D01*
X28393D01*
X27607Y181880D01*
X27257Y181678D01*
X24509Y184426D01*
X24249Y184600D01*
X23942Y184661D01*
X3482D01*
X-17113Y205257D01*
X-17374Y205431D01*
X-17681Y205492D01*
X-42096D01*
X-42480Y205772D01*
Y207248D01*
D02*
G37*
G36*
X39590Y150553D02*
Y147491D01*
X42653D01*
X42430Y148321D01*
X41945Y149160D01*
X41260Y149846D01*
X40421Y150330D01*
X39590Y150553D01*
D02*
G37*
G36*
X38409D02*
X37579Y150330D01*
X36740Y149846D01*
X36054Y149160D01*
X35570Y148321D01*
X35347Y147491D01*
X38409D01*
Y150553D01*
D02*
G37*
G36*
X-42480Y182051D02*
X-48976D01*
X-55472D01*
Y180575D01*
X-54882D01*
Y178410D01*
X-55472D01*
Y176933D01*
X-48976D01*
X-42480D01*
Y178410D01*
X-42096Y178689D01*
X-11321D01*
X16755Y150613D01*
X16939Y150491D01*
X16916Y150159D01*
X16856Y149991D01*
X15909D01*
Y143809D01*
X22091D01*
Y149878D01*
X22091Y149991D01*
X22362Y150378D01*
X24386D01*
X26322Y148443D01*
X26120Y148093D01*
X25909Y147307D01*
Y146493D01*
X26120Y145707D01*
X26527Y145002D01*
X27102Y144427D01*
X27807Y144020D01*
X28593Y143809D01*
X29407D01*
X30193Y144020D01*
X30898Y144427D01*
X31473Y145002D01*
X31880Y145707D01*
X32090Y146493D01*
Y147307D01*
X31880Y148093D01*
X31473Y148798D01*
X30898Y149373D01*
X30193Y149780D01*
X29407Y149991D01*
X28593D01*
X27807Y149780D01*
X27457Y149578D01*
X25286Y151749D01*
X25026Y151923D01*
X24719Y151984D01*
X17655D01*
X-10421Y180060D01*
X-10681Y180234D01*
X-10988Y180295D01*
X-42096D01*
X-42480Y180575D01*
Y182051D01*
D02*
G37*
G36*
X42653Y146309D02*
X39590D01*
Y143247D01*
X40421Y143470D01*
X41260Y143954D01*
X41945Y144640D01*
X42430Y145479D01*
X42653Y146309D01*
D02*
G37*
G36*
X38409D02*
X35347D01*
X35570Y145479D01*
X36054Y144640D01*
X36740Y143954D01*
X37579Y143470D01*
X38409Y143247D01*
Y146309D01*
D02*
G37*
G36*
X39590Y140553D02*
Y137491D01*
X42653D01*
X42430Y138321D01*
X41945Y139160D01*
X41260Y139846D01*
X40421Y140330D01*
X39590Y140553D01*
D02*
G37*
G36*
X38409D02*
X37579Y140330D01*
X36740Y139846D01*
X36054Y139160D01*
X35570Y138321D01*
X35347Y137491D01*
X38409D01*
Y140553D01*
D02*
G37*
G36*
X-42480Y175752D02*
X-48976D01*
X-55472D01*
Y174276D01*
X-54882D01*
Y172110D01*
X-55472D01*
Y170634D01*
X-48976D01*
X-42480D01*
Y172110D01*
X-42096Y172390D01*
X-16439D01*
X14393Y141558D01*
X14393Y141558D01*
X14653Y141384D01*
X14961Y141323D01*
X14961Y141323D01*
X23441D01*
X26322Y138443D01*
X26120Y138093D01*
X25909Y137307D01*
Y136493D01*
X26120Y135707D01*
X26527Y135002D01*
X27102Y134427D01*
X27807Y134020D01*
X28593Y133809D01*
X29407D01*
X30193Y134020D01*
X30898Y134427D01*
X31473Y135002D01*
X31880Y135707D01*
X32090Y136493D01*
Y137307D01*
X31880Y138093D01*
X31473Y138798D01*
X30898Y139373D01*
X30193Y139780D01*
X29407Y139991D01*
X28593D01*
X27807Y139780D01*
X27457Y139578D01*
X24342Y142694D01*
X24081Y142868D01*
X23774Y142929D01*
X15293D01*
X-15539Y173760D01*
X-15799Y173934D01*
X-16106Y173996D01*
X-42096D01*
X-42480Y174276D01*
Y175752D01*
D02*
G37*
G36*
X19407Y139991D02*
X18593D01*
X17807Y139780D01*
X17102Y139373D01*
X16527Y138798D01*
X16120Y138093D01*
X15909Y137307D01*
Y136493D01*
X16120Y135707D01*
X16527Y135002D01*
X17102Y134427D01*
X17807Y134020D01*
X18593Y133809D01*
X19407D01*
X20193Y134020D01*
X20898Y134427D01*
X21473Y135002D01*
X21880Y135707D01*
X22091Y136493D01*
Y137307D01*
X21880Y138093D01*
X21473Y138798D01*
X20898Y139373D01*
X20193Y139780D01*
X19407Y139991D01*
D02*
G37*
G36*
X42653Y136310D02*
X39590D01*
Y133247D01*
X40421Y133470D01*
X41260Y133954D01*
X41945Y134640D01*
X42430Y135479D01*
X42653Y136310D01*
D02*
G37*
G36*
X38409D02*
X35347D01*
X35570Y135479D01*
X36054Y134640D01*
X36740Y133954D01*
X37579Y133470D01*
X38409Y133247D01*
Y136310D01*
D02*
G37*
G36*
X39590Y130553D02*
Y127491D01*
X42653D01*
X42430Y128321D01*
X41945Y129160D01*
X41260Y129846D01*
X40421Y130330D01*
X39590Y130553D01*
D02*
G37*
G36*
X38409D02*
X37579Y130330D01*
X36740Y129846D01*
X36054Y129160D01*
X35570Y128321D01*
X35347Y127491D01*
X38409D01*
Y130553D01*
D02*
G37*
G36*
X-42480Y169453D02*
X-48976D01*
X-55472D01*
Y167976D01*
X-54882D01*
Y165811D01*
X-55472D01*
Y164335D01*
X-48976D01*
X-42480D01*
Y165811D01*
X-42096Y166091D01*
X-20770D01*
X13605Y131716D01*
X13605Y131716D01*
X13866Y131542D01*
X14173Y131481D01*
X14173Y131481D01*
X23284D01*
X26322Y128443D01*
X26120Y128093D01*
X25909Y127307D01*
Y126493D01*
X26120Y125707D01*
X26527Y125002D01*
X27102Y124427D01*
X27807Y124020D01*
X28593Y123810D01*
X29407D01*
X30193Y124020D01*
X30898Y124427D01*
X31473Y125002D01*
X31880Y125707D01*
X32090Y126493D01*
Y127307D01*
X31880Y128093D01*
X31473Y128798D01*
X30898Y129373D01*
X30193Y129780D01*
X29407Y129991D01*
X28593D01*
X27807Y129780D01*
X27457Y129578D01*
X24184Y132851D01*
X23924Y133025D01*
X23617Y133086D01*
X14506D01*
X-19869Y167461D01*
X-20130Y167635D01*
X-20437Y167696D01*
X-42096D01*
X-42480Y167976D01*
Y169453D01*
D02*
G37*
G36*
X19407Y129991D02*
X18593D01*
X17807Y129780D01*
X17102Y129373D01*
X16527Y128798D01*
X16120Y128093D01*
X15909Y127307D01*
Y126493D01*
X16120Y125707D01*
X16527Y125002D01*
X17102Y124427D01*
X17807Y124020D01*
X18593Y123810D01*
X19407D01*
X20193Y124020D01*
X20898Y124427D01*
X21473Y125002D01*
X21880Y125707D01*
X22091Y126493D01*
Y127307D01*
X21880Y128093D01*
X21473Y128798D01*
X20898Y129373D01*
X20193Y129780D01*
X19407Y129991D01*
D02*
G37*
G36*
X42653Y126310D02*
X39590D01*
Y123247D01*
X40421Y123470D01*
X41260Y123954D01*
X41945Y124640D01*
X42430Y125479D01*
X42653Y126310D01*
D02*
G37*
G36*
X38409D02*
X35347D01*
X35570Y125479D01*
X36054Y124640D01*
X36740Y123954D01*
X37579Y123470D01*
X38409Y123247D01*
Y126310D01*
D02*
G37*
G36*
X39590Y120553D02*
Y117491D01*
X42653D01*
X42430Y118321D01*
X41945Y119160D01*
X41260Y119846D01*
X40421Y120330D01*
X39590Y120553D01*
D02*
G37*
G36*
X38409D02*
X37579Y120330D01*
X36740Y119846D01*
X36054Y119160D01*
X35570Y118321D01*
X35347Y117491D01*
X38409D01*
Y120553D01*
D02*
G37*
G36*
X-42480Y163154D02*
X-48976D01*
X-55472D01*
Y161677D01*
X-54882D01*
Y159512D01*
X-55472D01*
Y158035D01*
X-48976D01*
X-42480D01*
Y159512D01*
X-42096Y159792D01*
X-23919D01*
X13999Y121873D01*
X14260Y121699D01*
X14567Y121638D01*
X14567Y121638D01*
X23126D01*
X26322Y118443D01*
X26120Y118093D01*
X25909Y117307D01*
Y116493D01*
X26120Y115707D01*
X26527Y115002D01*
X27102Y114427D01*
X27807Y114020D01*
X28593Y113810D01*
X29407D01*
X30193Y114020D01*
X30898Y114427D01*
X31473Y115002D01*
X31880Y115707D01*
X32090Y116493D01*
Y117307D01*
X31880Y118093D01*
X31473Y118798D01*
X30898Y119373D01*
X30193Y119780D01*
X29407Y119991D01*
X28593D01*
X27807Y119780D01*
X27457Y119578D01*
X24027Y123009D01*
X23766Y123183D01*
X23459Y123244D01*
X14899D01*
X-23019Y161162D01*
X-23279Y161336D01*
X-23586Y161397D01*
X-42096D01*
X-42480Y161677D01*
Y163154D01*
D02*
G37*
G36*
X19407Y119991D02*
X18593D01*
X17807Y119780D01*
X17102Y119373D01*
X16527Y118798D01*
X16120Y118093D01*
X15909Y117307D01*
Y116493D01*
X16120Y115707D01*
X16527Y115002D01*
X17102Y114427D01*
X17807Y114020D01*
X18593Y113810D01*
X19407D01*
X20193Y114020D01*
X20898Y114427D01*
X21473Y115002D01*
X21880Y115707D01*
X22091Y116493D01*
Y117307D01*
X21880Y118093D01*
X21473Y118798D01*
X20898Y119373D01*
X20193Y119780D01*
X19407Y119991D01*
D02*
G37*
G36*
X289528Y116705D02*
Y113779D01*
X292453D01*
X292244Y114559D01*
X291777Y115368D01*
X291116Y116029D01*
X290307Y116496D01*
X289528Y116705D01*
D02*
G37*
G36*
X288347D02*
X287567Y116496D01*
X286758Y116029D01*
X286097Y115368D01*
X285630Y114559D01*
X285421Y113779D01*
X288347D01*
Y116705D01*
D02*
G37*
G36*
X42653Y116309D02*
X39590D01*
Y113247D01*
X40421Y113470D01*
X41260Y113954D01*
X41945Y114640D01*
X42430Y115479D01*
X42653Y116309D01*
D02*
G37*
G36*
X38409D02*
X35347D01*
X35570Y115479D01*
X36054Y114640D01*
X36740Y113954D01*
X37579Y113470D01*
X38409Y113247D01*
Y116309D01*
D02*
G37*
G36*
X278775Y378549D02*
X277996D01*
X277244Y378348D01*
X276569Y377958D01*
X276018Y377407D01*
X275629Y376732D01*
X275427Y375980D01*
Y375201D01*
X275629Y374448D01*
X276018Y373774D01*
X276569Y373223D01*
X277244Y372833D01*
X277465Y372774D01*
Y370571D01*
Y257285D01*
Y253364D01*
X277401Y253348D01*
X276727Y252958D01*
X276176Y252407D01*
X275786Y251732D01*
X275585Y250980D01*
Y250201D01*
X275786Y249448D01*
X276176Y248774D01*
X276727Y248223D01*
X276865Y248143D01*
Y243505D01*
Y119749D01*
Y115301D01*
X276570Y115006D01*
X276180Y114331D01*
X275978Y113578D01*
Y112800D01*
X276180Y112047D01*
X276570Y111372D01*
X277120Y110821D01*
X277795Y110432D01*
X278548Y110230D01*
X279327D01*
X280079Y110432D01*
X280754Y110821D01*
X281305Y111372D01*
X281694Y112047D01*
X281896Y112800D01*
Y113578D01*
X281694Y114331D01*
X281305Y115006D01*
X281069Y115242D01*
X281049Y115342D01*
X280744Y115798D01*
X280288Y116103D01*
X279751Y116209D01*
X279675Y116272D01*
Y119749D01*
Y243505D01*
Y247831D01*
X279685Y247833D01*
X280360Y248223D01*
X280911Y248774D01*
X281300Y249448D01*
X281476Y250103D01*
X281523Y250175D01*
X281630Y250712D01*
X281523Y251250D01*
X281367Y251484D01*
X281300Y251732D01*
X280911Y252407D01*
X280360Y252958D01*
X280275Y253007D01*
Y257285D01*
Y370571D01*
Y373295D01*
X280753Y373774D01*
X281143Y374448D01*
X281345Y375201D01*
Y375980D01*
X281143Y376732D01*
X280753Y377407D01*
X280660Y377500D01*
X280463Y377796D01*
X280007Y378100D01*
X279930Y378116D01*
X279528Y378348D01*
X278775Y378549D01*
D02*
G37*
G36*
X292453Y112598D02*
X289528D01*
Y109673D01*
X290307Y109882D01*
X291116Y110349D01*
X291777Y111010D01*
X292244Y111819D01*
X292453Y112598D01*
D02*
G37*
G36*
X288347D02*
X285421D01*
X285630Y111819D01*
X286097Y111010D01*
X286758Y110349D01*
X287567Y109882D01*
X288347Y109673D01*
Y112598D01*
D02*
G37*
G36*
X39590Y110553D02*
Y107491D01*
X42653D01*
X42430Y108321D01*
X41945Y109160D01*
X41260Y109846D01*
X40421Y110330D01*
X39590Y110553D01*
D02*
G37*
G36*
X38409D02*
X37579Y110330D01*
X36740Y109846D01*
X36054Y109160D01*
X35570Y108321D01*
X35347Y107491D01*
X38409D01*
Y110553D01*
D02*
G37*
G36*
X39590Y100553D02*
Y97491D01*
X42653D01*
X42430Y98321D01*
X41945Y99160D01*
X41260Y99846D01*
X40421Y100330D01*
X39590Y100553D01*
D02*
G37*
G36*
X38409D02*
X37579Y100330D01*
X36740Y99846D01*
X36054Y99160D01*
X35570Y98321D01*
X35347Y97491D01*
X38409D01*
Y100553D01*
D02*
G37*
G36*
X42653Y96310D02*
X39590D01*
Y93247D01*
X40421Y93470D01*
X41260Y93954D01*
X41945Y94640D01*
X42430Y95479D01*
X42653Y96310D01*
D02*
G37*
G36*
X38409D02*
X35347D01*
X35570Y95479D01*
X36054Y94640D01*
X36740Y93954D01*
X37579Y93470D01*
X38409Y93247D01*
Y96310D01*
D02*
G37*
G36*
X39590Y90553D02*
Y87491D01*
X42653D01*
X42430Y88321D01*
X41945Y89160D01*
X41260Y89846D01*
X40421Y90330D01*
X39590Y90553D01*
D02*
G37*
G36*
X38409D02*
X37579Y90330D01*
X36740Y89846D01*
X36054Y89160D01*
X35570Y88321D01*
X35347Y87491D01*
X38409D01*
Y90553D01*
D02*
G37*
G36*
X42653Y86309D02*
X39590D01*
Y83247D01*
X40421Y83470D01*
X41260Y83954D01*
X41945Y84640D01*
X42430Y85479D01*
X42653Y86309D01*
D02*
G37*
G36*
X38409D02*
X35347D01*
X35570Y85479D01*
X36054Y84640D01*
X36740Y83954D01*
X37579Y83470D01*
X38409Y83247D01*
Y86309D01*
D02*
G37*
G36*
X39590Y80553D02*
Y77491D01*
X42653D01*
X42430Y78321D01*
X41945Y79160D01*
X41260Y79846D01*
X40421Y80330D01*
X39590Y80553D01*
D02*
G37*
G36*
X19407Y79991D02*
X18593D01*
X17807Y79780D01*
X17102Y79373D01*
X16527Y78798D01*
X16120Y78093D01*
X15909Y77307D01*
Y76493D01*
X16120Y75707D01*
X16527Y75002D01*
X17102Y74427D01*
X17807Y74020D01*
X18593Y73809D01*
X19407D01*
X20193Y74020D01*
X20898Y74427D01*
X21473Y75002D01*
X21880Y75707D01*
X22091Y76493D01*
Y77307D01*
X21880Y78093D01*
X21473Y78798D01*
X20898Y79373D01*
X20193Y79780D01*
X19407Y79991D01*
D02*
G37*
G36*
X42653Y76310D02*
X39590D01*
Y73247D01*
X40421Y73470D01*
X41260Y73954D01*
X41945Y74640D01*
X42430Y75479D01*
X42653Y76310D01*
D02*
G37*
G36*
X39590Y70553D02*
Y67491D01*
X42653D01*
X42430Y68321D01*
X41945Y69160D01*
X41260Y69846D01*
X40421Y70330D01*
X39590Y70553D01*
D02*
G37*
G36*
X29407Y69991D02*
X28593D01*
X27807Y69780D01*
X27102Y69373D01*
X26527Y68798D01*
X26120Y68093D01*
X25909Y67307D01*
Y66493D01*
X26120Y65707D01*
X26527Y65002D01*
X27102Y64427D01*
X27807Y64020D01*
X28593Y63810D01*
X29407D01*
X30193Y64020D01*
X30898Y64427D01*
X31473Y65002D01*
X31880Y65707D01*
X32090Y66493D01*
Y67307D01*
X31880Y68093D01*
X31473Y68798D01*
X30898Y69373D01*
X30193Y69780D01*
X29407Y69991D01*
D02*
G37*
G36*
X42653Y66309D02*
X39590D01*
Y63247D01*
X40421Y63470D01*
X41260Y63954D01*
X41945Y64640D01*
X42430Y65479D01*
X42653Y66309D01*
D02*
G37*
G36*
X39590Y60553D02*
Y57491D01*
X42653D01*
X42430Y58321D01*
X41945Y59160D01*
X41260Y59846D01*
X40421Y60330D01*
X39590Y60553D01*
D02*
G37*
G36*
X19407Y59991D02*
X18593D01*
X17807Y59780D01*
X17102Y59373D01*
X16527Y58798D01*
X16120Y58093D01*
X15909Y57307D01*
Y56493D01*
X16120Y55707D01*
X16527Y55002D01*
X17102Y54427D01*
X17807Y54020D01*
X18593Y53809D01*
X19407D01*
X20193Y54020D01*
X20898Y54427D01*
X21473Y55002D01*
X21880Y55707D01*
X22091Y56493D01*
Y57307D01*
X21880Y58093D01*
X21473Y58798D01*
X20898Y59373D01*
X20193Y59780D01*
X19407Y59991D01*
D02*
G37*
G36*
X42653Y56309D02*
X39590D01*
Y53247D01*
X40421Y53470D01*
X41260Y53954D01*
X41945Y54640D01*
X42430Y55479D01*
X42653Y56309D01*
D02*
G37*
G36*
X53424Y82087D02*
X52876D01*
X52369Y81877D01*
X51981Y81489D01*
X51772Y80983D01*
Y80435D01*
X51981Y79928D01*
X52347Y79563D01*
Y46592D01*
X49864Y44110D01*
X26766D01*
X26766Y44110D01*
X26458Y44049D01*
X26198Y43875D01*
X26198Y43875D01*
X25446Y43123D01*
X24930D01*
X24423Y42913D01*
X24035Y42526D01*
X23826Y42019D01*
Y41471D01*
X24035Y40965D01*
X24423Y40577D01*
X24930Y40367D01*
X25478D01*
X25984Y40577D01*
X26372Y40965D01*
X26582Y41471D01*
Y41988D01*
X27098Y42504D01*
X50197D01*
X50504Y42565D01*
X50765Y42739D01*
X53717Y45692D01*
X53717Y45692D01*
X53891Y45953D01*
X53952Y46260D01*
Y79563D01*
X54318Y79928D01*
X54528Y80435D01*
Y80983D01*
X54318Y81489D01*
X53930Y81877D01*
X53424Y82087D01*
D02*
G37*
G36*
X20943Y40748D02*
X20395D01*
X19889Y40538D01*
X19501Y40151D01*
X19291Y39644D01*
Y39096D01*
X19501Y38590D01*
X19889Y38202D01*
X20395Y37992D01*
X20729D01*
X21045Y37676D01*
X21371Y37459D01*
X21755Y37382D01*
X74388D01*
X75394Y36376D01*
Y36143D01*
X75603Y35637D01*
X75991Y35249D01*
X76498Y35039D01*
X77046D01*
X77552Y35249D01*
X77940Y35637D01*
X78150Y36143D01*
Y36691D01*
X77940Y37198D01*
X77552Y37585D01*
X77046Y37795D01*
X76813D01*
X75513Y39095D01*
X75187Y39313D01*
X74803Y39389D01*
X22171D01*
X22047Y39513D01*
Y39644D01*
X21837Y40151D01*
X21450Y40538D01*
X20943Y40748D01*
D02*
G37*
%LPD*%
G36*
X-43481Y255795D02*
X-43457Y255728D01*
X-43417Y255669D01*
X-43361Y255618D01*
X-43289Y255575D01*
X-43201Y255539D01*
X-43097Y255512D01*
X-42977Y255492D01*
X-42841Y255480D01*
X-42689Y255476D01*
Y254689D01*
X-42841Y254685D01*
X-42977Y254673D01*
X-43097Y254654D01*
X-43201Y254626D01*
X-43289Y254591D01*
X-43361Y254547D01*
X-43417Y254496D01*
X-43457Y254437D01*
X-43481Y254370D01*
X-43489Y254295D01*
Y255870D01*
X-43481Y255795D01*
D02*
G37*
G36*
Y249496D02*
X-43457Y249429D01*
X-43417Y249370D01*
X-43361Y249319D01*
X-43289Y249275D01*
X-43201Y249240D01*
X-43097Y249213D01*
X-42977Y249193D01*
X-42841Y249181D01*
X-42689Y249177D01*
Y248390D01*
X-42841Y248386D01*
X-42977Y248374D01*
X-43097Y248354D01*
X-43201Y248327D01*
X-43289Y248291D01*
X-43361Y248248D01*
X-43417Y248197D01*
X-43457Y248138D01*
X-43481Y248071D01*
X-43489Y247996D01*
Y249571D01*
X-43481Y249496D01*
D02*
G37*
G36*
Y243197D02*
X-43457Y243130D01*
X-43417Y243071D01*
X-43361Y243020D01*
X-43289Y242976D01*
X-43201Y242941D01*
X-43097Y242913D01*
X-42977Y242894D01*
X-42841Y242882D01*
X-42689Y242878D01*
Y242091D01*
X-42841Y242087D01*
X-42977Y242075D01*
X-43097Y242055D01*
X-43201Y242027D01*
X-43289Y241992D01*
X-43361Y241949D01*
X-43417Y241898D01*
X-43457Y241839D01*
X-43481Y241772D01*
X-43489Y241697D01*
Y243272D01*
X-43481Y243197D01*
D02*
G37*
G36*
Y236898D02*
X-43457Y236831D01*
X-43417Y236772D01*
X-43361Y236720D01*
X-43289Y236677D01*
X-43201Y236642D01*
X-43097Y236614D01*
X-42977Y236595D01*
X-42841Y236583D01*
X-42689Y236579D01*
Y235791D01*
X-42841Y235787D01*
X-42977Y235776D01*
X-43097Y235756D01*
X-43201Y235728D01*
X-43289Y235693D01*
X-43361Y235650D01*
X-43417Y235598D01*
X-43457Y235539D01*
X-43481Y235472D01*
X-43489Y235398D01*
Y236972D01*
X-43481Y236898D01*
D02*
G37*
G36*
Y230598D02*
X-43457Y230532D01*
X-43417Y230472D01*
X-43361Y230421D01*
X-43289Y230378D01*
X-43201Y230343D01*
X-43097Y230315D01*
X-42977Y230295D01*
X-42841Y230283D01*
X-42689Y230279D01*
Y229492D01*
X-42841Y229488D01*
X-42977Y229476D01*
X-43097Y229457D01*
X-43201Y229429D01*
X-43289Y229394D01*
X-43361Y229350D01*
X-43417Y229299D01*
X-43457Y229240D01*
X-43481Y229173D01*
X-43489Y229098D01*
Y230673D01*
X-43481Y230598D01*
D02*
G37*
G36*
Y224299D02*
X-43457Y224232D01*
X-43417Y224173D01*
X-43361Y224122D01*
X-43289Y224079D01*
X-43201Y224043D01*
X-43097Y224016D01*
X-42977Y223996D01*
X-42841Y223984D01*
X-42689Y223980D01*
Y223193D01*
X-42841Y223189D01*
X-42977Y223177D01*
X-43097Y223158D01*
X-43201Y223130D01*
X-43289Y223095D01*
X-43361Y223051D01*
X-43417Y223000D01*
X-43457Y222941D01*
X-43481Y222874D01*
X-43489Y222799D01*
Y224374D01*
X-43481Y224299D01*
D02*
G37*
G36*
Y218000D02*
X-43457Y217933D01*
X-43417Y217874D01*
X-43361Y217823D01*
X-43289Y217779D01*
X-43201Y217744D01*
X-43097Y217717D01*
X-42977Y217697D01*
X-42841Y217685D01*
X-42689Y217681D01*
Y216894D01*
X-42841Y216890D01*
X-42977Y216878D01*
X-43097Y216858D01*
X-43201Y216831D01*
X-43289Y216795D01*
X-43361Y216752D01*
X-43417Y216701D01*
X-43457Y216642D01*
X-43481Y216575D01*
X-43489Y216500D01*
Y218075D01*
X-43481Y218000D01*
D02*
G37*
G36*
Y211701D02*
X-43457Y211634D01*
X-43417Y211575D01*
X-43361Y211524D01*
X-43289Y211480D01*
X-43201Y211445D01*
X-43097Y211417D01*
X-42977Y211398D01*
X-42841Y211386D01*
X-42689Y211382D01*
Y210595D01*
X-42841Y210591D01*
X-42977Y210579D01*
X-43097Y210559D01*
X-43201Y210531D01*
X-43289Y210496D01*
X-43361Y210453D01*
X-43417Y210402D01*
X-43457Y210343D01*
X-43481Y210276D01*
X-43489Y210201D01*
Y211776D01*
X-43481Y211701D01*
D02*
G37*
G36*
Y205402D02*
X-43457Y205335D01*
X-43417Y205276D01*
X-43361Y205224D01*
X-43289Y205181D01*
X-43201Y205146D01*
X-43097Y205118D01*
X-42977Y205099D01*
X-42841Y205087D01*
X-42689Y205083D01*
Y204295D01*
X-42841Y204291D01*
X-42977Y204280D01*
X-43097Y204260D01*
X-43201Y204232D01*
X-43289Y204197D01*
X-43361Y204154D01*
X-43417Y204102D01*
X-43457Y204043D01*
X-43481Y203976D01*
X-43489Y203902D01*
Y205476D01*
X-43481Y205402D01*
D02*
G37*
G36*
Y180205D02*
X-43457Y180138D01*
X-43417Y180079D01*
X-43361Y180028D01*
X-43289Y179984D01*
X-43201Y179949D01*
X-43097Y179921D01*
X-42977Y179902D01*
X-42841Y179890D01*
X-42689Y179886D01*
Y179098D01*
X-42841Y179095D01*
X-42977Y179083D01*
X-43097Y179063D01*
X-43201Y179035D01*
X-43289Y179000D01*
X-43361Y178957D01*
X-43417Y178906D01*
X-43457Y178847D01*
X-43481Y178780D01*
X-43489Y178705D01*
Y180280D01*
X-43481Y180205D01*
D02*
G37*
G36*
Y173905D02*
X-43457Y173838D01*
X-43417Y173779D01*
X-43361Y173728D01*
X-43289Y173685D01*
X-43201Y173650D01*
X-43097Y173622D01*
X-42977Y173602D01*
X-42841Y173591D01*
X-42689Y173586D01*
Y172799D01*
X-42841Y172795D01*
X-42977Y172783D01*
X-43097Y172764D01*
X-43201Y172736D01*
X-43289Y172701D01*
X-43361Y172657D01*
X-43417Y172606D01*
X-43457Y172547D01*
X-43481Y172480D01*
X-43489Y172405D01*
Y173980D01*
X-43481Y173905D01*
D02*
G37*
G36*
Y167606D02*
X-43457Y167539D01*
X-43417Y167480D01*
X-43361Y167429D01*
X-43289Y167386D01*
X-43201Y167350D01*
X-43097Y167323D01*
X-42977Y167303D01*
X-42841Y167291D01*
X-42689Y167287D01*
Y166500D01*
X-42841Y166496D01*
X-42977Y166484D01*
X-43097Y166464D01*
X-43201Y166437D01*
X-43289Y166402D01*
X-43361Y166358D01*
X-43417Y166307D01*
X-43457Y166248D01*
X-43481Y166181D01*
X-43489Y166106D01*
Y167681D01*
X-43481Y167606D01*
D02*
G37*
G36*
Y161307D02*
X-43457Y161240D01*
X-43417Y161181D01*
X-43361Y161130D01*
X-43289Y161086D01*
X-43201Y161051D01*
X-43097Y161024D01*
X-42977Y161004D01*
X-42841Y160992D01*
X-42689Y160988D01*
Y160201D01*
X-42841Y160197D01*
X-42977Y160185D01*
X-43097Y160165D01*
X-43201Y160138D01*
X-43289Y160102D01*
X-43361Y160059D01*
X-43417Y160008D01*
X-43457Y159949D01*
X-43481Y159882D01*
X-43489Y159807D01*
Y161382D01*
X-43481Y161307D01*
D02*
G37*
%LPC*%
G36*
X308976Y379107D02*
Y376181D01*
X311902D01*
X311693Y376960D01*
X311226Y377770D01*
X310565Y378431D01*
X309756Y378898D01*
X308976Y379107D01*
D02*
G37*
G36*
X307795D02*
X307016Y378898D01*
X306207Y378431D01*
X305546Y377770D01*
X305079Y376960D01*
X304870Y376181D01*
X307795D01*
Y379107D01*
D02*
G37*
G36*
X328775Y378549D02*
X327996D01*
X327244Y378348D01*
X326569Y377958D01*
X326018Y377407D01*
X325629Y376732D01*
X325427Y375980D01*
Y375201D01*
X325629Y374448D01*
X326018Y373774D01*
X326569Y373223D01*
X327244Y372833D01*
X327996Y372632D01*
X328775D01*
X329528Y372833D01*
X330203Y373223D01*
X330753Y373774D01*
X331143Y374448D01*
X331345Y375201D01*
Y375980D01*
X331143Y376732D01*
X330753Y377407D01*
X330203Y377958D01*
X329528Y378348D01*
X328775Y378549D01*
D02*
G37*
G36*
X311902Y375000D02*
X308976D01*
Y372074D01*
X309756Y372283D01*
X310565Y372750D01*
X311226Y373411D01*
X311693Y374221D01*
X311902Y375000D01*
D02*
G37*
G36*
X307795D02*
X304870D01*
X305079Y374221D01*
X305546Y373411D01*
X306207Y372750D01*
X307016Y372283D01*
X307795Y372074D01*
Y375000D01*
D02*
G37*
G36*
X477702Y362347D02*
X471009D01*
Y355654D01*
X477702D01*
Y362347D01*
D02*
G37*
G36*
X464447Y354528D02*
X463899D01*
X463393Y354318D01*
X463005Y353930D01*
X462795Y353424D01*
Y352875D01*
X463005Y352369D01*
X463393Y351981D01*
X463899Y351772D01*
X464447D01*
X464954Y351981D01*
X465319Y352347D01*
X469718D01*
X471433Y350631D01*
X471238Y350292D01*
X471009Y349441D01*
Y348559D01*
X471238Y347708D01*
X471678Y346945D01*
X472301Y346322D01*
X473064Y345882D01*
X473915Y345654D01*
X474796D01*
X475648Y345882D01*
X476411Y346322D01*
X477034Y346945D01*
X477474Y347708D01*
X477702Y348559D01*
Y349441D01*
X477474Y350292D01*
X477034Y351055D01*
X476411Y351678D01*
X475648Y352118D01*
X474796Y352346D01*
X473915D01*
X473064Y352118D01*
X472527Y351808D01*
X470618Y353717D01*
X470358Y353891D01*
X470050Y353952D01*
X465319D01*
X464954Y354318D01*
X464447Y354528D01*
D02*
G37*
G36*
X516988Y349350D02*
X513268D01*
Y345630D01*
X516988D01*
Y349350D01*
D02*
G37*
G36*
X512087D02*
X508366D01*
Y345630D01*
X512087D01*
Y349350D01*
D02*
G37*
G36*
X516988Y344449D02*
X513268D01*
Y340728D01*
X516988D01*
Y344449D01*
D02*
G37*
G36*
X512087D02*
X508366D01*
Y340728D01*
X512087D01*
Y344449D01*
D02*
G37*
G36*
X407164Y352439D02*
X406616D01*
X406109Y352230D01*
X405722Y351842D01*
X405512Y351336D01*
Y350787D01*
X405722Y350281D01*
X405886Y350116D01*
Y342558D01*
X405722Y342393D01*
X405512Y341887D01*
Y341339D01*
X405722Y340832D01*
X406109Y340444D01*
X406616Y340235D01*
X407164D01*
X407670Y340444D01*
X408058Y340832D01*
X408268Y341339D01*
Y341887D01*
X408058Y342393D01*
X407893Y342558D01*
Y350116D01*
X408058Y350281D01*
X408268Y350787D01*
Y351336D01*
X408058Y351842D01*
X407670Y352230D01*
X407164Y352439D01*
D02*
G37*
G36*
X524348Y343307D02*
X523369D01*
X522422Y343054D01*
X521574Y342564D01*
X520881Y341871D01*
X520391Y341023D01*
X520138Y340076D01*
Y339097D01*
X520391Y338151D01*
X520881Y337302D01*
X521574Y336610D01*
X522422Y336120D01*
X523369Y335866D01*
X524348D01*
X525294Y336120D01*
X526143Y336610D01*
X526835Y337302D01*
X527325Y338151D01*
X527579Y339097D01*
Y340076D01*
X527325Y341023D01*
X526835Y341871D01*
X526143Y342564D01*
X525294Y343054D01*
X524348Y343307D01*
D02*
G37*
G36*
X474796Y342347D02*
X473915D01*
X473064Y342118D01*
X472301Y341678D01*
X471678Y341055D01*
X471238Y340292D01*
X471009Y339441D01*
Y338559D01*
X471238Y337708D01*
X471678Y336945D01*
X472301Y336322D01*
X473064Y335882D01*
X473915Y335653D01*
X474796D01*
X475648Y335882D01*
X476411Y336322D01*
X477034Y336945D01*
X477474Y337708D01*
X477702Y338559D01*
Y339441D01*
X477474Y340292D01*
X477034Y341055D01*
X476411Y341678D01*
X475648Y342118D01*
X474796Y342347D01*
D02*
G37*
G36*
Y332347D02*
X473915D01*
X473064Y332118D01*
X472301Y331678D01*
X471678Y331055D01*
X471238Y330292D01*
X471009Y329441D01*
Y328559D01*
X471238Y327708D01*
X471678Y326945D01*
X472301Y326322D01*
X473064Y325882D01*
X473915Y325654D01*
X474796D01*
X475648Y325882D01*
X476411Y326322D01*
X477034Y326945D01*
X477474Y327708D01*
X477702Y328559D01*
Y329441D01*
X477474Y330292D01*
X477034Y331055D01*
X476411Y331678D01*
X475648Y332118D01*
X474796Y332347D01*
D02*
G37*
G36*
X524348Y332402D02*
X523369D01*
X522422Y332148D01*
X521574Y331658D01*
X520881Y330965D01*
X520391Y330117D01*
X520138Y329171D01*
Y328191D01*
X520391Y327245D01*
X520881Y326397D01*
X521574Y325704D01*
X522422Y325214D01*
X523369Y324961D01*
X524348D01*
X525294Y325214D01*
X526143Y325704D01*
X526835Y326397D01*
X527325Y327245D01*
X527579Y328191D01*
Y329171D01*
X527325Y330117D01*
X526835Y330965D01*
X526143Y331658D01*
X525294Y332148D01*
X524348Y332402D01*
D02*
G37*
G36*
X513167Y337854D02*
X512187D01*
X511241Y337601D01*
X510393Y337111D01*
X509700Y336418D01*
X509210Y335570D01*
X508957Y334624D01*
Y333644D01*
X509210Y332698D01*
X509700Y331849D01*
X510393Y331157D01*
X511241Y330667D01*
X512187Y330413D01*
X513167D01*
X514113Y330667D01*
X514262Y330753D01*
X517551Y327464D01*
Y324481D01*
X517387Y324317D01*
X517177Y323810D01*
Y323262D01*
X517387Y322756D01*
X517774Y322368D01*
X518281Y322158D01*
X518829D01*
X519336Y322368D01*
X519723Y322756D01*
X519933Y323262D01*
Y323810D01*
X519723Y324317D01*
X519558Y324481D01*
Y327879D01*
X519482Y328263D01*
X519265Y328589D01*
X515782Y332071D01*
X516144Y332698D01*
X516398Y333644D01*
Y334624D01*
X516144Y335570D01*
X515654Y336418D01*
X514962Y337111D01*
X514113Y337601D01*
X513167Y337854D01*
D02*
G37*
G36*
X407348Y332867D02*
X406800D01*
X406293Y332657D01*
X405905Y332270D01*
X405696Y331763D01*
Y331215D01*
X405905Y330709D01*
X406175Y330439D01*
Y322614D01*
X406115Y322554D01*
X405905Y322047D01*
Y321499D01*
X406115Y320993D01*
X406503Y320605D01*
X407009Y320395D01*
X407557D01*
X408064Y320605D01*
X408452Y320993D01*
X408661Y321499D01*
Y322047D01*
X408452Y322554D01*
X408182Y322823D01*
Y330649D01*
X408242Y330709D01*
X408452Y331215D01*
Y331763D01*
X408242Y332270D01*
X407854Y332657D01*
X407348Y332867D01*
D02*
G37*
G36*
X513167Y326949D02*
X512187D01*
X511241Y326695D01*
X510393Y326205D01*
X509700Y325513D01*
X509210Y324664D01*
X508957Y323718D01*
Y322739D01*
X509210Y321792D01*
X509700Y320944D01*
X510393Y320251D01*
X511241Y319761D01*
X512187Y319508D01*
X513167D01*
X514113Y319761D01*
X514962Y320251D01*
X515654Y320944D01*
X516144Y321792D01*
X516398Y322739D01*
Y323718D01*
X516144Y324664D01*
X515654Y325513D01*
X514962Y326205D01*
X514113Y326695D01*
X513167Y326949D01*
D02*
G37*
G36*
X474796Y322346D02*
X473915D01*
X473064Y322118D01*
X472301Y321678D01*
X471678Y321055D01*
X471238Y320292D01*
X471009Y319441D01*
Y318559D01*
X471238Y317708D01*
X471678Y316945D01*
X472301Y316322D01*
X473064Y315882D01*
X473915Y315653D01*
X474796D01*
X475648Y315882D01*
X476411Y316322D01*
X477034Y316945D01*
X477474Y317708D01*
X477702Y318559D01*
Y319441D01*
X477474Y320292D01*
X477034Y321055D01*
X476411Y321678D01*
X475648Y322118D01*
X474796Y322346D01*
D02*
G37*
G36*
X524348Y321496D02*
X523369D01*
X522422Y321242D01*
X521574Y320753D01*
X520881Y320060D01*
X520391Y319212D01*
X520138Y318265D01*
Y317286D01*
X520391Y316339D01*
X520881Y315491D01*
X521574Y314798D01*
X522422Y314309D01*
X523369Y314055D01*
X524348D01*
X525294Y314309D01*
X526143Y314798D01*
X526835Y315491D01*
X527325Y316339D01*
X527579Y317286D01*
Y318265D01*
X527325Y319212D01*
X526835Y320060D01*
X526143Y320753D01*
X525294Y321242D01*
X524348Y321496D01*
D02*
G37*
G36*
X513167Y316043D02*
X512187D01*
X511241Y315790D01*
X510393Y315300D01*
X509700Y314607D01*
X509210Y313759D01*
X508957Y312813D01*
Y311833D01*
X509210Y310887D01*
X509700Y310038D01*
X510393Y309346D01*
X511241Y308856D01*
X512187Y308602D01*
X513167D01*
X514113Y308856D01*
X514962Y309346D01*
X515654Y310038D01*
X516144Y310887D01*
X516398Y311833D01*
Y312813D01*
X516144Y313759D01*
X515654Y314607D01*
X514962Y315300D01*
X514113Y315790D01*
X513167Y316043D01*
D02*
G37*
G36*
X474796Y312347D02*
X473915D01*
X473064Y312118D01*
X472301Y311678D01*
X471678Y311055D01*
X471238Y310292D01*
X471009Y309441D01*
Y308559D01*
X471238Y307708D01*
X471678Y306945D01*
X472301Y306322D01*
X473064Y305882D01*
X473915Y305654D01*
X474796D01*
X475648Y305882D01*
X476411Y306322D01*
X477034Y306945D01*
X477474Y307708D01*
X477702Y308559D01*
Y309441D01*
X477474Y310292D01*
X477034Y311055D01*
X476411Y311678D01*
X475648Y312118D01*
X474796Y312347D01*
D02*
G37*
G36*
X524348Y310591D02*
X523369D01*
X522422Y310337D01*
X521574Y309847D01*
X520881Y309155D01*
X520391Y308306D01*
X520138Y307360D01*
Y306380D01*
X520391Y305434D01*
X520881Y304586D01*
X521574Y303893D01*
X522422Y303403D01*
X523369Y303150D01*
X524348D01*
X525294Y303403D01*
X526143Y303893D01*
X526835Y304586D01*
X527325Y305434D01*
X527579Y306380D01*
Y307360D01*
X527325Y308306D01*
X526835Y309155D01*
X526143Y309847D01*
X525294Y310337D01*
X524348Y310591D01*
D02*
G37*
G36*
X351455Y325787D02*
X350907D01*
X350401Y325578D01*
X350013Y325190D01*
X349803Y324683D01*
Y324135D01*
X350013Y323629D01*
X350178Y323464D01*
Y315118D01*
X350013Y314954D01*
X349803Y314447D01*
Y313899D01*
X350013Y313393D01*
X350178Y313228D01*
Y303346D01*
X350120D01*
X349613Y303137D01*
X349225Y302749D01*
X349016Y302243D01*
Y301694D01*
X349225Y301188D01*
X349613Y300800D01*
X350120Y300590D01*
X350668D01*
X351174Y300800D01*
X351562Y301188D01*
X351772Y301694D01*
Y301927D01*
X351891Y302046D01*
X352108Y302372D01*
X352185Y302756D01*
Y313228D01*
X352349Y313393D01*
X352559Y313899D01*
Y314447D01*
X352349Y314954D01*
X352185Y315118D01*
Y323464D01*
X352349Y323629D01*
X352559Y324135D01*
Y324683D01*
X352349Y325190D01*
X351962Y325578D01*
X351455Y325787D01*
D02*
G37*
G36*
X513167Y305138D02*
X512187D01*
X511241Y304884D01*
X510393Y304394D01*
X509700Y303702D01*
X509210Y302853D01*
X508957Y301907D01*
Y300927D01*
X509210Y299981D01*
X509700Y299133D01*
X510393Y298440D01*
X511241Y297950D01*
X512187Y297697D01*
X513167D01*
X514113Y297950D01*
X514962Y298440D01*
X515654Y299133D01*
X516144Y299981D01*
X516398Y300927D01*
Y301907D01*
X516144Y302853D01*
X515654Y303702D01*
X514962Y304394D01*
X514113Y304884D01*
X513167Y305138D01*
D02*
G37*
G36*
X474796Y302346D02*
X473915D01*
X473064Y302118D01*
X472301Y301678D01*
X471678Y301055D01*
X471238Y300292D01*
X471009Y299441D01*
Y298559D01*
X471238Y297708D01*
X471678Y296945D01*
X472301Y296322D01*
X473064Y295882D01*
X473915Y295654D01*
X474796D01*
X475648Y295882D01*
X476411Y296322D01*
X477034Y296945D01*
X477474Y297708D01*
X477702Y298559D01*
Y299441D01*
X477474Y300292D01*
X477034Y301055D01*
X476411Y301678D01*
X475648Y302118D01*
X474796Y302346D01*
D02*
G37*
G36*
X474946Y292918D02*
Y289591D01*
X478273D01*
X478025Y290520D01*
X477506Y291417D01*
X476773Y292150D01*
X475876Y292669D01*
X474946Y292918D01*
D02*
G37*
G36*
X473765Y292918D02*
X472836Y292669D01*
X471939Y292150D01*
X471206Y291417D01*
X470687Y290520D01*
X470438Y289591D01*
X473765D01*
Y292918D01*
D02*
G37*
G36*
Y288409D02*
X470438D01*
X470687Y287480D01*
X471206Y286583D01*
X471939Y285850D01*
X472836Y285331D01*
X473765Y285082D01*
Y288409D01*
D02*
G37*
G36*
X478274D02*
X474946D01*
Y285082D01*
X475876Y285331D01*
X476773Y285850D01*
X477506Y286583D01*
X478025Y287480D01*
X478274Y288409D01*
D02*
G37*
G36*
X309134Y254107D02*
Y251181D01*
X312059D01*
X311851Y251960D01*
X311383Y252770D01*
X310723Y253431D01*
X309913Y253898D01*
X309134Y254107D01*
D02*
G37*
G36*
X307953D02*
X307173Y253898D01*
X306364Y253431D01*
X305703Y252770D01*
X305236Y251960D01*
X305027Y251181D01*
X307953D01*
Y254107D01*
D02*
G37*
G36*
X328933Y253549D02*
X328154D01*
X327401Y253348D01*
X326727Y252958D01*
X326176Y252407D01*
X325786Y251732D01*
X325585Y250980D01*
Y250201D01*
X325786Y249448D01*
X326176Y248774D01*
X326727Y248223D01*
X327401Y247833D01*
X328154Y247632D01*
X328933D01*
X329685Y247833D01*
X330360Y248223D01*
X330911Y248774D01*
X331300Y249448D01*
X331502Y250201D01*
Y250980D01*
X331300Y251732D01*
X330911Y252407D01*
X330360Y252958D01*
X329685Y253348D01*
X328933Y253549D01*
D02*
G37*
G36*
X312059Y250000D02*
X309134D01*
Y247074D01*
X309913Y247283D01*
X310723Y247750D01*
X311383Y248411D01*
X311851Y249221D01*
X312059Y250000D01*
D02*
G37*
G36*
X307953D02*
X305027D01*
X305236Y249221D01*
X305703Y248411D01*
X306364Y247750D01*
X307173Y247283D01*
X307953Y247074D01*
Y250000D01*
D02*
G37*
G36*
X477702Y235657D02*
X471009D01*
Y228964D01*
X477702D01*
Y235657D01*
D02*
G37*
G36*
X516988Y222972D02*
X513268D01*
Y219252D01*
X516988D01*
Y222972D01*
D02*
G37*
G36*
X512087D02*
X508366D01*
Y219252D01*
X512087D01*
Y222972D01*
D02*
G37*
G36*
X464603Y227838D02*
X464055D01*
X463549Y227628D01*
X463161Y227240D01*
X462951Y226734D01*
Y226186D01*
X463161Y225679D01*
X463549Y225292D01*
X464055Y225082D01*
X464603D01*
X465110Y225292D01*
X465475Y225657D01*
X469874D01*
X471491Y224040D01*
X471238Y223602D01*
X471009Y222751D01*
Y221870D01*
X471238Y221019D01*
X471678Y220255D01*
X472301Y219632D01*
X473064Y219192D01*
X473915Y218964D01*
X474796D01*
X475648Y219192D01*
X476411Y219632D01*
X477034Y220255D01*
X477474Y221019D01*
X477702Y221870D01*
Y222751D01*
X477474Y223602D01*
X477034Y224365D01*
X476411Y224988D01*
X475648Y225429D01*
X474796Y225657D01*
X473915D01*
X473064Y225429D01*
X472626Y225176D01*
X470774Y227028D01*
X470513Y227202D01*
X470206Y227263D01*
X465475D01*
X465110Y227628D01*
X464603Y227838D01*
D02*
G37*
G36*
X516988Y218071D02*
X513268D01*
Y214350D01*
X516988D01*
Y218071D01*
D02*
G37*
G36*
X512087D02*
X508366D01*
Y214350D01*
X512087D01*
Y218071D01*
D02*
G37*
G36*
X524348Y216929D02*
X523369D01*
X522422Y216676D01*
X521574Y216186D01*
X520881Y215493D01*
X520391Y214645D01*
X520138Y213699D01*
Y212719D01*
X520391Y211773D01*
X520881Y210924D01*
X521574Y210232D01*
X522422Y209742D01*
X523369Y209488D01*
X524348D01*
X525294Y209742D01*
X526143Y210232D01*
X526835Y210924D01*
X527325Y211773D01*
X527579Y212719D01*
Y213699D01*
X527325Y214645D01*
X526835Y215493D01*
X526143Y216186D01*
X525294Y216676D01*
X524348Y216929D01*
D02*
G37*
G36*
X474796Y215657D02*
X473915D01*
X473064Y215429D01*
X472301Y214988D01*
X471678Y214365D01*
X471238Y213602D01*
X471009Y212751D01*
Y211870D01*
X471238Y211019D01*
X471678Y210256D01*
X472301Y209632D01*
X473064Y209192D01*
X473915Y208964D01*
X474796D01*
X475648Y209192D01*
X476411Y209632D01*
X477034Y210256D01*
X477474Y211019D01*
X477702Y211870D01*
Y212751D01*
X477474Y213602D01*
X477034Y214365D01*
X476411Y214988D01*
X475648Y215429D01*
X474796Y215657D01*
D02*
G37*
G36*
X405786Y225000D02*
X405238D01*
X404731Y224790D01*
X404344Y224403D01*
X404134Y223896D01*
Y223348D01*
X404344Y222842D01*
X404508Y222677D01*
Y215512D01*
X404344Y215348D01*
X404134Y214841D01*
Y214293D01*
X404344Y213786D01*
X404508Y213622D01*
Y207884D01*
X404315Y207418D01*
Y206870D01*
X404525Y206363D01*
X404913Y205976D01*
X405419Y205766D01*
X405967D01*
X406474Y205976D01*
X406861Y206363D01*
X407071Y206870D01*
Y207418D01*
X406861Y207924D01*
X406515Y208271D01*
Y213622D01*
X406680Y213786D01*
X406890Y214293D01*
Y214841D01*
X406680Y215348D01*
X406515Y215512D01*
Y222677D01*
X406680Y222842D01*
X406890Y223348D01*
Y223896D01*
X406680Y224403D01*
X406292Y224790D01*
X405786Y225000D01*
D02*
G37*
G36*
X474796Y205657D02*
X473915D01*
X473064Y205429D01*
X472301Y204988D01*
X471678Y204365D01*
X471238Y203602D01*
X471009Y202751D01*
Y201870D01*
X471238Y201019D01*
X471678Y200255D01*
X472301Y199632D01*
X473064Y199192D01*
X473915Y198964D01*
X474796D01*
X475648Y199192D01*
X476411Y199632D01*
X477034Y200255D01*
X477474Y201019D01*
X477702Y201870D01*
Y202751D01*
X477474Y203602D01*
X477034Y204365D01*
X476411Y204988D01*
X475648Y205429D01*
X474796Y205657D01*
D02*
G37*
G36*
X513167Y211476D02*
X512187D01*
X511241Y211223D01*
X510393Y210733D01*
X509700Y210040D01*
X509210Y209192D01*
X508957Y208246D01*
Y207266D01*
X509210Y206320D01*
X509700Y205471D01*
X510393Y204779D01*
X511241Y204289D01*
X512187Y204035D01*
X513167D01*
X514113Y204289D01*
X514501Y204513D01*
X517894Y201120D01*
Y196877D01*
X517730Y196712D01*
X517520Y196206D01*
Y195658D01*
X517730Y195151D01*
X518117Y194764D01*
X518623Y194554D01*
X519172D01*
X519678Y194764D01*
X520066Y195151D01*
X520276Y195658D01*
Y196206D01*
X520066Y196712D01*
X519901Y196877D01*
Y200765D01*
X520391Y200867D01*
X520881Y200019D01*
X521574Y199326D01*
X522422Y198836D01*
X523369Y198583D01*
X524348D01*
X525294Y198836D01*
X526143Y199326D01*
X526835Y200019D01*
X527325Y200867D01*
X527579Y201813D01*
Y202793D01*
X527325Y203739D01*
X526835Y204588D01*
X526143Y205280D01*
X525294Y205770D01*
X524348Y206024D01*
X523369D01*
X522422Y205770D01*
X521574Y205280D01*
X520881Y204588D01*
X520391Y203739D01*
X520138Y202793D01*
Y202351D01*
X519638Y202199D01*
X519607Y202245D01*
X515920Y205932D01*
X516144Y206320D01*
X516398Y207266D01*
Y208246D01*
X516144Y209192D01*
X515654Y210040D01*
X514962Y210733D01*
X514113Y211223D01*
X513167Y211476D01*
D02*
G37*
G36*
Y200571D02*
X512187D01*
X511241Y200317D01*
X510393Y199828D01*
X509700Y199135D01*
X509210Y198286D01*
X508957Y197340D01*
Y196361D01*
X509210Y195414D01*
X509700Y194566D01*
X510393Y193873D01*
X511241Y193384D01*
X512187Y193130D01*
X513167D01*
X514113Y193384D01*
X514962Y193873D01*
X515654Y194566D01*
X516144Y195414D01*
X516398Y196361D01*
Y197340D01*
X516144Y198286D01*
X515654Y199135D01*
X514962Y199828D01*
X514113Y200317D01*
X513167Y200571D01*
D02*
G37*
G36*
X474796Y195657D02*
X473915D01*
X473064Y195429D01*
X472301Y194988D01*
X471678Y194365D01*
X471238Y193602D01*
X471009Y192751D01*
Y191870D01*
X471238Y191019D01*
X471678Y190255D01*
X472301Y189632D01*
X473064Y189192D01*
X473915Y188964D01*
X474796D01*
X475648Y189192D01*
X476411Y189632D01*
X477034Y190255D01*
X477474Y191019D01*
X477702Y191870D01*
Y192751D01*
X477474Y193602D01*
X477034Y194365D01*
X476411Y194988D01*
X475648Y195429D01*
X474796Y195657D01*
D02*
G37*
G36*
X524348Y195118D02*
X523369D01*
X522422Y194865D01*
X521574Y194375D01*
X520881Y193682D01*
X520391Y192834D01*
X520138Y191887D01*
Y190908D01*
X520391Y189962D01*
X520881Y189113D01*
X521574Y188420D01*
X522422Y187931D01*
X523369Y187677D01*
X524348D01*
X525294Y187931D01*
X526143Y188420D01*
X526835Y189113D01*
X527325Y189962D01*
X527579Y190908D01*
Y191887D01*
X527325Y192834D01*
X526835Y193682D01*
X526143Y194375D01*
X525294Y194865D01*
X524348Y195118D01*
D02*
G37*
G36*
X405304Y195561D02*
X404756D01*
X404249Y195351D01*
X403862Y194963D01*
X403652Y194457D01*
Y193909D01*
X403710Y193768D01*
X403708Y193758D01*
Y187953D01*
X403544Y187788D01*
X403334Y187282D01*
Y186733D01*
X403544Y186227D01*
X403931Y185839D01*
X404438Y185629D01*
X404986D01*
X405492Y185839D01*
X405880Y186227D01*
X406090Y186733D01*
Y187282D01*
X405880Y187788D01*
X405716Y187953D01*
Y192975D01*
X405810Y193015D01*
X406198Y193402D01*
X406408Y193909D01*
Y194457D01*
X406198Y194963D01*
X405810Y195351D01*
X405304Y195561D01*
D02*
G37*
G36*
X513167Y189665D02*
X512187D01*
X511241Y189412D01*
X510393Y188922D01*
X509700Y188229D01*
X509210Y187381D01*
X508957Y186435D01*
Y185455D01*
X509210Y184509D01*
X509700Y183660D01*
X510393Y182968D01*
X511241Y182478D01*
X512187Y182224D01*
X513167D01*
X514113Y182478D01*
X514962Y182968D01*
X515654Y183660D01*
X516144Y184509D01*
X516398Y185455D01*
Y186435D01*
X516144Y187381D01*
X515654Y188229D01*
X514962Y188922D01*
X514113Y189412D01*
X513167Y189665D01*
D02*
G37*
G36*
X474796Y185657D02*
X473915D01*
X473064Y185429D01*
X472301Y184988D01*
X471678Y184365D01*
X471238Y183602D01*
X471009Y182751D01*
Y181870D01*
X471238Y181019D01*
X471678Y180255D01*
X472301Y179632D01*
X473064Y179192D01*
X473915Y178964D01*
X474796D01*
X475648Y179192D01*
X476411Y179632D01*
X477034Y180255D01*
X477474Y181019D01*
X477702Y181870D01*
Y182751D01*
X477474Y183602D01*
X477034Y184365D01*
X476411Y184988D01*
X475648Y185429D01*
X474796Y185657D01*
D02*
G37*
G36*
X524348Y184213D02*
X523369D01*
X522422Y183959D01*
X521574Y183469D01*
X520881Y182776D01*
X520391Y181928D01*
X520138Y180982D01*
Y180002D01*
X520391Y179056D01*
X520881Y178208D01*
X521574Y177515D01*
X522422Y177025D01*
X523369Y176772D01*
X524348D01*
X525294Y177025D01*
X526143Y177515D01*
X526835Y178208D01*
X527325Y179056D01*
X527579Y180002D01*
Y180982D01*
X527325Y181928D01*
X526835Y182776D01*
X526143Y183469D01*
X525294Y183959D01*
X524348Y184213D01*
D02*
G37*
G36*
X351611Y199098D02*
X351063D01*
X350556Y198888D01*
X350169Y198500D01*
X349959Y197994D01*
Y197446D01*
X350169Y196939D01*
X350333Y196774D01*
Y188429D01*
X350169Y188264D01*
X349959Y187758D01*
Y187209D01*
X350169Y186703D01*
X350333Y186538D01*
Y176657D01*
X350275D01*
X349769Y176447D01*
X349381Y176059D01*
X349172Y175553D01*
Y175005D01*
X349381Y174498D01*
X349769Y174111D01*
X350275Y173901D01*
X350824D01*
X351330Y174111D01*
X351718Y174498D01*
X351928Y175005D01*
Y175238D01*
X352047Y175356D01*
X352264Y175682D01*
X352341Y176066D01*
Y186538D01*
X352505Y186703D01*
X352715Y187209D01*
Y187758D01*
X352505Y188264D01*
X352341Y188429D01*
Y196774D01*
X352505Y196939D01*
X352715Y197446D01*
Y197994D01*
X352505Y198500D01*
X352118Y198888D01*
X351611Y199098D01*
D02*
G37*
G36*
X513167Y178760D02*
X512187D01*
X511241Y178506D01*
X510393Y178016D01*
X509700Y177324D01*
X509210Y176475D01*
X508957Y175529D01*
Y174550D01*
X509210Y173603D01*
X509700Y172755D01*
X510393Y172062D01*
X511241Y171572D01*
X512187Y171319D01*
X513167D01*
X514113Y171572D01*
X514962Y172062D01*
X515654Y172755D01*
X516144Y173603D01*
X516398Y174550D01*
Y175529D01*
X516144Y176475D01*
X515654Y177324D01*
X514962Y178016D01*
X514113Y178506D01*
X513167Y178760D01*
D02*
G37*
G36*
X474796Y175657D02*
X473915D01*
X473064Y175429D01*
X472301Y174988D01*
X471678Y174365D01*
X471238Y173602D01*
X471009Y172751D01*
Y171870D01*
X471238Y171019D01*
X471678Y170255D01*
X472301Y169632D01*
X473064Y169192D01*
X473915Y168964D01*
X474796D01*
X475648Y169192D01*
X476411Y169632D01*
X477034Y170255D01*
X477474Y171019D01*
X477702Y171870D01*
Y172751D01*
X477474Y173602D01*
X477034Y174365D01*
X476411Y174988D01*
X475648Y175429D01*
X474796Y175657D01*
D02*
G37*
G36*
X474946Y166228D02*
Y162901D01*
X478274D01*
X478025Y163830D01*
X477506Y164728D01*
X476773Y165461D01*
X475876Y165979D01*
X474946Y166228D01*
D02*
G37*
G36*
X473765Y166228D02*
X472836Y165979D01*
X471939Y165461D01*
X471206Y164728D01*
X470687Y163830D01*
X470438Y162901D01*
X473765D01*
Y166228D01*
D02*
G37*
G36*
Y161720D02*
X470438D01*
X470687Y160791D01*
X471206Y159893D01*
X471939Y159160D01*
X472836Y158642D01*
X473765Y158393D01*
Y161720D01*
D02*
G37*
G36*
X478273D02*
X474946D01*
Y158393D01*
X475876Y158642D01*
X476773Y159160D01*
X477506Y159893D01*
X478025Y160791D01*
X478273Y161720D01*
D02*
G37*
G36*
X309528Y116705D02*
Y113779D01*
X312453D01*
X312244Y114559D01*
X311777Y115368D01*
X311116Y116029D01*
X310307Y116496D01*
X309528Y116705D01*
D02*
G37*
G36*
X308347D02*
X307567Y116496D01*
X306758Y116029D01*
X306097Y115368D01*
X305630Y114559D01*
X305421Y113779D01*
X308347D01*
Y116705D01*
D02*
G37*
G36*
X329327Y116148D02*
X328548D01*
X327795Y115946D01*
X327120Y115557D01*
X326570Y115006D01*
X326180Y114331D01*
X325978Y113578D01*
Y112800D01*
X326180Y112047D01*
X326570Y111372D01*
X327120Y110821D01*
X327795Y110432D01*
X328548Y110230D01*
X329327D01*
X330079Y110432D01*
X330754Y110821D01*
X331305Y111372D01*
X331694Y112047D01*
X331896Y112800D01*
Y113578D01*
X331694Y114331D01*
X331305Y115006D01*
X330754Y115557D01*
X330079Y115946D01*
X329327Y116148D01*
D02*
G37*
G36*
X312453Y112598D02*
X309528D01*
Y109673D01*
X310307Y109882D01*
X311116Y110349D01*
X311777Y111010D01*
X312244Y111819D01*
X312453Y112598D01*
D02*
G37*
G36*
X308347D02*
X305421D01*
X305630Y111819D01*
X306097Y111010D01*
X306758Y110349D01*
X307567Y109882D01*
X308347Y109673D01*
Y112598D01*
D02*
G37*
G36*
X516988Y96595D02*
X513268D01*
Y92874D01*
X516988D01*
Y96595D01*
D02*
G37*
G36*
X512087D02*
X508366D01*
Y92874D01*
X512087D01*
Y96595D01*
D02*
G37*
G36*
X477702Y98649D02*
X471009D01*
Y91956D01*
X477702D01*
Y98649D01*
D02*
G37*
G36*
X516988Y91693D02*
X513268D01*
Y87972D01*
X516988D01*
Y91693D01*
D02*
G37*
G36*
X512087D02*
X508366D01*
Y87972D01*
X512087D01*
Y91693D01*
D02*
G37*
G36*
X524348Y90551D02*
X523369D01*
X522422Y90298D01*
X521574Y89808D01*
X520881Y89115D01*
X520391Y88267D01*
X520138Y87321D01*
Y86341D01*
X520391Y85395D01*
X520881Y84546D01*
X521574Y83854D01*
X522422Y83364D01*
X523369Y83110D01*
X524348D01*
X525294Y83364D01*
X526143Y83854D01*
X526835Y84546D01*
X527325Y85395D01*
X527579Y86341D01*
Y87321D01*
X527325Y88267D01*
X526835Y89115D01*
X526143Y89808D01*
X525294Y90298D01*
X524348Y90551D01*
D02*
G37*
G36*
X463028Y90830D02*
X462480D01*
X461974Y90620D01*
X461586Y90232D01*
X461376Y89726D01*
Y89178D01*
X461586Y88671D01*
X461974Y88284D01*
X462480Y88074D01*
X463028D01*
X463535Y88284D01*
X463900Y88649D01*
X468299D01*
X471051Y85897D01*
X471009Y85743D01*
Y84862D01*
X471238Y84011D01*
X471678Y83248D01*
X472301Y82625D01*
X473064Y82184D01*
X473915Y81956D01*
X474796D01*
X475648Y82184D01*
X476411Y82625D01*
X477034Y83248D01*
X477474Y84011D01*
X477702Y84862D01*
Y85743D01*
X477474Y86594D01*
X477034Y87357D01*
X476411Y87980D01*
X475648Y88421D01*
X474796Y88649D01*
X473915D01*
X473064Y88421D01*
X472301Y87980D01*
X471770Y87449D01*
X469199Y90020D01*
X468939Y90194D01*
X468632Y90255D01*
X463900D01*
X463535Y90620D01*
X463028Y90830D01*
D02*
G37*
G36*
X407092Y88654D02*
X406544D01*
X406038Y88445D01*
X405650Y88057D01*
X405440Y87550D01*
Y87002D01*
X405650Y86496D01*
X405752Y86394D01*
Y78567D01*
X405525Y78340D01*
X405315Y77833D01*
Y77285D01*
X405525Y76779D01*
X405912Y76391D01*
X406419Y76181D01*
X406967D01*
X407474Y76391D01*
X407861Y76779D01*
X408071Y77285D01*
Y77833D01*
X407861Y78340D01*
X407759Y78442D01*
Y86269D01*
X407986Y86496D01*
X408196Y87002D01*
Y87550D01*
X407986Y88057D01*
X407599Y88445D01*
X407092Y88654D01*
D02*
G37*
G36*
X524348Y79646D02*
X523369D01*
X522422Y79392D01*
X521574Y78902D01*
X520881Y78210D01*
X520391Y77361D01*
X520138Y76415D01*
Y75435D01*
X520391Y74489D01*
X520881Y73641D01*
X521574Y72948D01*
X522422Y72458D01*
X523369Y72205D01*
X524348D01*
X525294Y72458D01*
X526143Y72948D01*
X526835Y73641D01*
X527325Y74489D01*
X527579Y75435D01*
Y76415D01*
X527325Y77361D01*
X526835Y78210D01*
X526143Y78902D01*
X525294Y79392D01*
X524348Y79646D01*
D02*
G37*
G36*
X474796Y78649D02*
X473915D01*
X473064Y78421D01*
X472301Y77980D01*
X471678Y77357D01*
X471238Y76594D01*
X471009Y75743D01*
Y74862D01*
X471238Y74011D01*
X471678Y73248D01*
X472301Y72624D01*
X473064Y72184D01*
X473915Y71956D01*
X474796D01*
X475648Y72184D01*
X476411Y72624D01*
X477034Y73248D01*
X477474Y74011D01*
X477702Y74862D01*
Y75743D01*
X477474Y76594D01*
X477034Y77357D01*
X476411Y77980D01*
X475648Y78421D01*
X474796Y78649D01*
D02*
G37*
G36*
X513167Y85098D02*
X512187D01*
X511241Y84845D01*
X510393Y84355D01*
X509700Y83662D01*
X509210Y82814D01*
X508957Y81868D01*
Y80888D01*
X509210Y79942D01*
X509700Y79093D01*
X510393Y78401D01*
X511241Y77911D01*
X512187Y77658D01*
X513167D01*
X514113Y77911D01*
X514267Y78000D01*
X517697Y74570D01*
Y71144D01*
X517533Y70979D01*
X517323Y70472D01*
Y69924D01*
X517533Y69418D01*
X517920Y69030D01*
X518427Y68820D01*
X518975D01*
X519481Y69030D01*
X519869Y69418D01*
X520079Y69924D01*
Y70472D01*
X519869Y70979D01*
X519704Y71144D01*
Y74986D01*
X519628Y75370D01*
X519410Y75696D01*
X515785Y79321D01*
X516144Y79942D01*
X516398Y80888D01*
Y81868D01*
X516144Y82814D01*
X515654Y83662D01*
X514962Y84355D01*
X514113Y84845D01*
X513167Y85098D01*
D02*
G37*
G36*
Y74193D02*
X512187D01*
X511241Y73939D01*
X510393Y73450D01*
X509700Y72757D01*
X509210Y71908D01*
X508957Y70962D01*
Y69983D01*
X509210Y69036D01*
X509700Y68188D01*
X510393Y67495D01*
X511241Y67005D01*
X512187Y66752D01*
X513167D01*
X514113Y67005D01*
X514962Y67495D01*
X515654Y68188D01*
X516144Y69036D01*
X516398Y69983D01*
Y70962D01*
X516144Y71908D01*
X515654Y72757D01*
X514962Y73450D01*
X514113Y73939D01*
X513167Y74193D01*
D02*
G37*
G36*
X474796Y68649D02*
X473915D01*
X473064Y68421D01*
X472301Y67980D01*
X471678Y67357D01*
X471238Y66594D01*
X471009Y65743D01*
Y64862D01*
X471238Y64011D01*
X471678Y63248D01*
X472301Y62625D01*
X473064Y62184D01*
X473915Y61956D01*
X474796D01*
X475648Y62184D01*
X476411Y62625D01*
X477034Y63248D01*
X477474Y64011D01*
X477702Y64862D01*
Y65743D01*
X477474Y66594D01*
X477034Y67357D01*
X476411Y67980D01*
X475648Y68421D01*
X474796Y68649D01*
D02*
G37*
G36*
X524348Y68740D02*
X523369D01*
X522422Y68487D01*
X521574Y67997D01*
X520881Y67304D01*
X520391Y66456D01*
X520138Y65509D01*
Y64530D01*
X520391Y63584D01*
X520881Y62735D01*
X521574Y62043D01*
X522422Y61553D01*
X523369Y61299D01*
X524348D01*
X525294Y61553D01*
X526143Y62043D01*
X526835Y62735D01*
X527325Y63584D01*
X527579Y64530D01*
Y65509D01*
X527325Y66456D01*
X526835Y67304D01*
X526143Y67997D01*
X525294Y68487D01*
X524348Y68740D01*
D02*
G37*
G36*
X407361Y69488D02*
X406812D01*
X406306Y69278D01*
X405918Y68891D01*
X405709Y68384D01*
Y67836D01*
X405918Y67330D01*
X406083Y67165D01*
Y59213D01*
X405918Y59048D01*
X405709Y58542D01*
Y57994D01*
X405918Y57487D01*
X406306Y57099D01*
X406812Y56890D01*
X407361D01*
X407867Y57099D01*
X408255Y57487D01*
X408465Y57994D01*
Y58542D01*
X408255Y59048D01*
X408090Y59213D01*
Y67165D01*
X408255Y67330D01*
X408465Y67836D01*
Y68384D01*
X408255Y68891D01*
X407867Y69278D01*
X407361Y69488D01*
D02*
G37*
G36*
X513167Y63287D02*
X512187D01*
X511241Y63034D01*
X510393Y62544D01*
X509700Y61851D01*
X509210Y61003D01*
X508957Y60057D01*
Y59077D01*
X509210Y58131D01*
X509700Y57283D01*
X510393Y56590D01*
X511241Y56100D01*
X512187Y55847D01*
X513167D01*
X514113Y56100D01*
X514962Y56590D01*
X515654Y57283D01*
X516144Y58131D01*
X516398Y59077D01*
Y60057D01*
X516144Y61003D01*
X515654Y61851D01*
X514962Y62544D01*
X514113Y63034D01*
X513167Y63287D01*
D02*
G37*
G36*
X474796Y58649D02*
X473915D01*
X473064Y58421D01*
X472301Y57980D01*
X471678Y57357D01*
X471238Y56594D01*
X471009Y55743D01*
Y54862D01*
X471238Y54011D01*
X471678Y53248D01*
X472301Y52624D01*
X473064Y52184D01*
X473915Y51956D01*
X474796D01*
X475648Y52184D01*
X476411Y52624D01*
X477034Y53248D01*
X477474Y54011D01*
X477702Y54862D01*
Y55743D01*
X477474Y56594D01*
X477034Y57357D01*
X476411Y57980D01*
X475648Y58421D01*
X474796Y58649D01*
D02*
G37*
G36*
X524348Y57835D02*
X523369D01*
X522422Y57581D01*
X521574Y57091D01*
X520881Y56399D01*
X520391Y55550D01*
X520138Y54604D01*
Y53624D01*
X520391Y52678D01*
X520881Y51830D01*
X521574Y51137D01*
X522422Y50647D01*
X523369Y50394D01*
X524348D01*
X525294Y50647D01*
X526143Y51137D01*
X526835Y51830D01*
X527325Y52678D01*
X527579Y53624D01*
Y54604D01*
X527325Y55550D01*
X526835Y56399D01*
X526143Y57091D01*
X525294Y57581D01*
X524348Y57835D01*
D02*
G37*
G36*
X513167Y52382D02*
X512187D01*
X511241Y52128D01*
X510393Y51639D01*
X509700Y50946D01*
X509210Y50098D01*
X508957Y49151D01*
Y48172D01*
X509210Y47225D01*
X509700Y46377D01*
X510393Y45684D01*
X511241Y45195D01*
X512187Y44941D01*
X513167D01*
X514113Y45195D01*
X514962Y45684D01*
X515654Y46377D01*
X516144Y47225D01*
X516398Y48172D01*
Y49151D01*
X516144Y50098D01*
X515654Y50946D01*
X514962Y51639D01*
X514113Y52128D01*
X513167Y52382D01*
D02*
G37*
G36*
X474796Y48649D02*
X473915D01*
X473064Y48421D01*
X472301Y47980D01*
X471678Y47357D01*
X471238Y46594D01*
X471009Y45743D01*
Y44862D01*
X471238Y44011D01*
X471678Y43248D01*
X472301Y42625D01*
X473064Y42184D01*
X473915Y41956D01*
X474796D01*
X475648Y42184D01*
X476411Y42625D01*
X477034Y43248D01*
X477474Y44011D01*
X477702Y44862D01*
Y45743D01*
X477474Y46594D01*
X477034Y47357D01*
X476411Y47980D01*
X475648Y48421D01*
X474796Y48649D01*
D02*
G37*
G36*
X350036Y62090D02*
X349488D01*
X348982Y61880D01*
X348594Y61492D01*
X348384Y60986D01*
Y60438D01*
X348594Y59931D01*
X348759Y59767D01*
Y51421D01*
X348594Y51256D01*
X348384Y50750D01*
Y50201D01*
X348594Y49695D01*
X348759Y49530D01*
Y39649D01*
X348701D01*
X348194Y39439D01*
X347807Y39051D01*
X347597Y38545D01*
Y37997D01*
X347807Y37490D01*
X348194Y37103D01*
X348701Y36893D01*
X349249D01*
X349755Y37103D01*
X350143Y37490D01*
X350353Y37997D01*
Y38230D01*
X350472Y38349D01*
X350689Y38674D01*
X350766Y39058D01*
Y49530D01*
X350930Y49695D01*
X351140Y50201D01*
Y50750D01*
X350930Y51256D01*
X350766Y51421D01*
Y59767D01*
X350930Y59931D01*
X351140Y60438D01*
Y60986D01*
X350930Y61492D01*
X350543Y61880D01*
X350036Y62090D01*
D02*
G37*
G36*
X474796Y38649D02*
X473915D01*
X473064Y38421D01*
X472301Y37980D01*
X471678Y37357D01*
X471238Y36594D01*
X471009Y35743D01*
Y34862D01*
X471238Y34011D01*
X471678Y33248D01*
X472301Y32625D01*
X473064Y32184D01*
X473915Y31956D01*
X474796D01*
X475648Y32184D01*
X476411Y32625D01*
X477034Y33248D01*
X477474Y34011D01*
X477702Y34862D01*
Y35743D01*
X477474Y36594D01*
X477034Y37357D01*
X476411Y37980D01*
X475648Y38421D01*
X474796Y38649D01*
D02*
G37*
G36*
X474946Y29220D02*
Y25893D01*
X478274D01*
X478025Y26822D01*
X477506Y27720D01*
X476773Y28453D01*
X475876Y28971D01*
X474946Y29220D01*
D02*
G37*
G36*
X473765Y29220D02*
X472836Y28971D01*
X471939Y28453D01*
X471206Y27720D01*
X470687Y26822D01*
X470438Y25893D01*
X473765D01*
Y29220D01*
D02*
G37*
G36*
Y24712D02*
X470438D01*
X470687Y23783D01*
X471206Y22885D01*
X471939Y22152D01*
X472836Y21634D01*
X473765Y21385D01*
Y24712D01*
D02*
G37*
G36*
X478273D02*
X474946D01*
Y21385D01*
X475876Y21634D01*
X476773Y22152D01*
X477506Y22885D01*
X478025Y23783D01*
X478273Y24712D01*
D02*
G37*
%LPD*%
D10*
X-42654Y114039D02*
X-39567Y117126D01*
X-39370D01*
X-48287Y114039D02*
X-42654D01*
X46260Y49213D02*
X50197Y53150D01*
Y94776D01*
X34449Y50197D02*
X36895Y47750D01*
X40664D01*
X34449Y50197D02*
Y76379D01*
X29587Y81241D02*
X34449Y76379D01*
X29342Y81241D02*
X29587D01*
X42315Y102658D02*
X50197Y94776D01*
Y43307D02*
X53150Y46260D01*
X26766Y43307D02*
X50197D01*
X53150Y46260D02*
Y80709D01*
X25204Y41745D02*
X26766Y43307D01*
X9627Y76273D02*
Y95491D01*
X-43762Y120435D02*
X-15317D01*
X9627Y95491D01*
X-21092Y129098D02*
X17425Y90581D01*
X20414D01*
X-48976Y129098D02*
X-21092D01*
X-48976Y113350D02*
X-10502D01*
X2362Y100388D02*
Y100486D01*
Y100388D02*
X6299Y96451D01*
Y74395D02*
Y96451D01*
X-10502Y113350D02*
X2362Y100486D01*
X20414Y90581D02*
X23889Y87106D01*
Y86694D02*
Y87106D01*
Y86694D02*
X29342Y81241D01*
X11777Y99195D02*
Y102272D01*
Y99195D02*
X17557Y93416D01*
X22484D01*
X-48976Y135398D02*
X-21348D01*
X11777Y102272D01*
X18315Y102658D02*
X42315D01*
X18084Y102888D02*
X18315Y102658D01*
X-23874Y144846D02*
X18084Y102888D01*
X-21618Y138547D02*
X15748Y101181D01*
X19925D01*
X-48976Y138547D02*
X-21618D01*
X19925Y101181D02*
X24206Y96900D01*
X-48976Y144846D02*
X-23874D01*
X-48976Y166894D02*
X-20437D01*
X9627Y76273D02*
X19000Y66900D01*
X6299Y74395D02*
X19153Y61541D01*
X24359D01*
X29000Y56900D01*
X-48976Y119650D02*
X-44547D01*
X-43762Y120435D01*
X22484Y93416D02*
X29000Y86900D01*
X24206Y96900D02*
X29000D01*
X-27524Y154295D02*
X14567Y112205D01*
X23695D01*
X-48976Y154295D02*
X-27524D01*
X48425Y154724D02*
X48819Y155118D01*
X464173Y353150D02*
X470050D01*
X474200Y349000D01*
X468632Y89452D02*
X472781Y85302D01*
X462754Y89452D02*
X468632D01*
X27165Y184252D02*
X48425D01*
X19060Y188739D02*
X22678D01*
X18800Y189000D02*
X19060Y188739D01*
X22678D02*
X27165Y184252D01*
X23942Y183858D02*
X28800Y179000D01*
X3150Y183858D02*
X23942D01*
X37336Y155118D02*
X48819D01*
X33399Y159055D02*
X37336Y155118D01*
X33399Y159055D02*
Y174401D01*
X28800Y179000D02*
X33399Y174401D01*
X32792Y212992D02*
X67323D01*
X28800Y209000D02*
X32792Y212992D01*
X-48976Y179492D02*
X-10988D01*
X17323Y151181D01*
X-16106Y173193D02*
X14961Y142126D01*
X-48976Y173193D02*
X-16106D01*
X-48976Y160594D02*
X-23586D01*
X14567Y122441D01*
X23459D02*
X29000Y116900D01*
X23617Y132283D02*
X29000Y126900D01*
X23774Y142126D02*
X29000Y136900D01*
X14961Y142126D02*
X23774D01*
X14567Y122441D02*
X23459D01*
X14173Y132283D02*
X23617D01*
X-20437Y166894D02*
X14173Y132283D01*
X23695Y112205D02*
X29000Y106900D01*
X17323Y151181D02*
X24719D01*
X29000Y146900D01*
X24178Y173622D02*
X28800Y169000D01*
X5512Y173622D02*
X24178D01*
X-19256Y198390D02*
X5512Y173622D01*
X-48976Y198390D02*
X-19256D01*
X-48976Y204689D02*
X-17681D01*
X3150Y183858D01*
X24425Y193375D02*
X28800Y189000D01*
X22047Y193307D02*
X22115Y193375D01*
X24425D01*
X3150Y193307D02*
X22047D01*
X-14532Y210988D02*
X3150Y193307D01*
X-48976Y210988D02*
X-14532D01*
X-12957Y217287D02*
X787Y203543D01*
X-48976Y217287D02*
X-12957D01*
X787Y203543D02*
X24257D01*
X28800Y199000D01*
X394Y212598D02*
X25201D01*
X28800Y209000D01*
X-10594Y223587D02*
X394Y212598D01*
X-48976Y223587D02*
X-10594D01*
X-48976Y229886D02*
X-6657D01*
X394Y222835D01*
X24965D01*
X28800Y219000D01*
X23942Y233858D02*
X28800Y229000D01*
X11417Y233858D02*
X23942D01*
X9091Y236185D02*
X11417Y233858D01*
X-48976Y236185D02*
X9091D01*
X25316Y242484D02*
X28800Y239000D01*
X-48976Y242484D02*
X25316D01*
X-10174Y245516D02*
X25316D01*
X28800Y249000D01*
X-48976Y248783D02*
X-13441D01*
X-10174Y245516D01*
X24882Y255083D02*
X28800Y259000D01*
X-48976Y255083D02*
X24882D01*
X464329Y226460D02*
X470206D01*
X474356Y222310D01*
X-48976Y113350D02*
X-48287Y114039D01*
D34*
X-48976Y113350D02*
D03*
Y116500D02*
D03*
Y119650D02*
D03*
Y122799D02*
D03*
Y125949D02*
D03*
Y129098D02*
D03*
Y132248D02*
D03*
Y135398D02*
D03*
Y138547D02*
D03*
Y141697D02*
D03*
Y144846D02*
D03*
Y147996D02*
D03*
Y151146D02*
D03*
Y154295D02*
D03*
Y157445D02*
D03*
Y160594D02*
D03*
Y163744D02*
D03*
Y166894D02*
D03*
Y170043D02*
D03*
Y173193D02*
D03*
Y176343D02*
D03*
Y179492D02*
D03*
Y182642D02*
D03*
Y198390D02*
D03*
Y201539D02*
D03*
Y204689D02*
D03*
Y207839D02*
D03*
Y210988D02*
D03*
Y214138D02*
D03*
Y217287D02*
D03*
Y220437D02*
D03*
Y223587D02*
D03*
Y226736D02*
D03*
Y229886D02*
D03*
Y233035D02*
D03*
Y236185D02*
D03*
Y239335D02*
D03*
Y242484D02*
D03*
Y245634D02*
D03*
Y248783D02*
D03*
Y251933D02*
D03*
Y255083D02*
D03*
Y258232D02*
D03*
Y261382D02*
D03*
Y264531D02*
D03*
Y267681D02*
D03*
Y270831D02*
D03*
Y273980D02*
D03*
Y277130D02*
D03*
Y280280D02*
D03*
D60*
X20771Y39370D02*
X21755Y38386D01*
X74803D01*
X76772Y36417D01*
X20669Y39370D02*
X20771D01*
X407179Y321878D02*
X407283Y321773D01*
X407179Y321878D02*
Y331384D01*
X407074Y331489D02*
X407179Y331384D01*
X406890Y341613D02*
Y351062D01*
X512493Y81194D02*
X518701Y74986D01*
X406693Y77559D02*
X406755Y77622D01*
Y87214D02*
X406818Y87276D01*
X406755Y77622D02*
Y87214D01*
X407087Y58268D02*
Y68110D01*
X512677Y333757D02*
X518555Y327879D01*
Y323536D02*
Y327879D01*
X518898Y195932D02*
Y201535D01*
X511488Y208945D02*
X518898Y201535D01*
X518701Y70198D02*
Y74986D01*
X512677Y333757D02*
Y334134D01*
X350394Y301969D02*
X351181Y302756D01*
Y314173D02*
Y324410D01*
Y302756D02*
Y314173D01*
X348975Y38271D02*
X349762Y39058D01*
Y50476D02*
Y60712D01*
Y39058D02*
Y50476D01*
X404712Y193758D02*
X405030Y194076D01*
Y194183D01*
X404712Y187007D02*
Y193758D01*
X405512Y207325D02*
X405693Y207144D01*
X405512Y207325D02*
Y214567D01*
Y223622D01*
X351337Y176066D02*
Y187484D01*
X350550Y175279D02*
X351337Y176066D01*
Y187484D02*
Y197720D01*
D61*
X6890Y289217D02*
Y356299D01*
X2121Y284449D02*
X6890Y289217D01*
X-17761Y284449D02*
X2121D01*
X-28229Y273980D02*
X-17761Y284449D01*
X-38294Y273980D02*
X-28229D01*
X278870Y251002D02*
Y376202D01*
X278051Y113104D02*
X279751Y114804D01*
X279626Y250112D02*
X280225Y250712D01*
X278870Y376202D02*
X279469Y376802D01*
X278270Y115003D02*
Y250402D01*
X-38017Y261399D02*
X-37922D01*
X-38034Y261382D02*
X-38017Y261399D01*
X-48976Y261382D02*
X-38034D01*
X-48976Y267681D02*
X-38183D01*
Y267654D02*
Y267681D01*
X-48976Y273980D02*
X-38294D01*
D62*
X39000Y56900D02*
D03*
X29000D02*
D03*
X19000D02*
D03*
X39000Y66900D02*
D03*
X29000D02*
D03*
X19000D02*
D03*
X39000Y76900D02*
D03*
X29000D02*
D03*
X19000D02*
D03*
X39000Y86900D02*
D03*
X29000D02*
D03*
X19000D02*
D03*
X39000Y96900D02*
D03*
X29000D02*
D03*
X19000D02*
D03*
X39000Y106900D02*
D03*
X29000D02*
D03*
X19000D02*
D03*
X39000Y116900D02*
D03*
X29000D02*
D03*
X19000D02*
D03*
X39000Y126900D02*
D03*
X29000D02*
D03*
X19000D02*
D03*
X39000Y136900D02*
D03*
X29000D02*
D03*
X19000D02*
D03*
X39000Y146900D02*
D03*
X29000D02*
D03*
X29600Y336200D02*
D03*
X19600Y326200D02*
D03*
X29600D02*
D03*
X19600Y316200D02*
D03*
X29600D02*
D03*
X19600Y306200D02*
D03*
X29600D02*
D03*
X19600Y296200D02*
D03*
X29600D02*
D03*
X19600Y286200D02*
D03*
X29600D02*
D03*
X28800Y259000D02*
D03*
X38800D02*
D03*
X18800Y249000D02*
D03*
X28800D02*
D03*
X38800D02*
D03*
X18800Y239000D02*
D03*
X28800D02*
D03*
X38800D02*
D03*
X18800Y229000D02*
D03*
X28800D02*
D03*
X38800D02*
D03*
X18800Y219000D02*
D03*
X28800D02*
D03*
X38800D02*
D03*
X18800Y209000D02*
D03*
X28800D02*
D03*
X38800D02*
D03*
X18800Y199000D02*
D03*
X28800D02*
D03*
X38800D02*
D03*
X18800Y189000D02*
D03*
X28800D02*
D03*
X38800D02*
D03*
X18800Y179000D02*
D03*
X28800D02*
D03*
X38800D02*
D03*
X18800Y169000D02*
D03*
X28800D02*
D03*
X38800D02*
D03*
D63*
X19000Y146900D02*
D03*
X19600Y336200D02*
D03*
X18800Y259000D02*
D03*
D64*
X328937Y113189D02*
D03*
X308937D02*
D03*
X288937D02*
D03*
X278937D02*
D03*
X328543Y250590D02*
D03*
X308543D02*
D03*
X288543D02*
D03*
X278543D02*
D03*
X328386Y375590D02*
D03*
X308386D02*
D03*
X288386D02*
D03*
X278386D02*
D03*
D65*
X518268Y274035D02*
D03*
Y372421D02*
D03*
Y119665D02*
D03*
Y21280D02*
D03*
Y246043D02*
D03*
Y147658D02*
D03*
D66*
X512677Y345039D02*
D03*
Y92283D02*
D03*
Y218661D02*
D03*
D67*
X523858Y339587D02*
D03*
X512677Y334134D02*
D03*
X523858Y328681D02*
D03*
X512677Y323228D02*
D03*
X523858Y317776D02*
D03*
X512677Y312323D02*
D03*
X523858Y306870D02*
D03*
X512677Y301417D02*
D03*
Y48661D02*
D03*
X523858Y54114D02*
D03*
X512677Y59567D02*
D03*
X523858Y65020D02*
D03*
X512677Y70473D02*
D03*
X523858Y75925D02*
D03*
X512677Y81378D02*
D03*
X523858Y86831D02*
D03*
X512677Y175039D02*
D03*
X523858Y180492D02*
D03*
X512677Y185945D02*
D03*
X523858Y191398D02*
D03*
X512677Y196850D02*
D03*
X523858Y202303D02*
D03*
X512677Y207756D02*
D03*
X523858Y213209D02*
D03*
D68*
X474356Y25302D02*
D03*
Y35302D02*
D03*
Y45302D02*
D03*
Y55302D02*
D03*
Y65302D02*
D03*
Y75302D02*
D03*
Y85302D02*
D03*
Y349000D02*
D03*
Y339000D02*
D03*
Y329000D02*
D03*
Y319000D02*
D03*
Y309000D02*
D03*
Y299000D02*
D03*
Y289000D02*
D03*
Y222310D02*
D03*
Y212310D02*
D03*
Y202310D02*
D03*
Y192310D02*
D03*
Y182310D02*
D03*
Y172310D02*
D03*
Y162310D02*
D03*
D69*
Y95302D02*
D03*
Y359000D02*
D03*
Y232310D02*
D03*
D70*
X-39370Y117126D02*
D03*
X142831Y14359D02*
D03*
X172359D02*
D03*
X201886D02*
D03*
X231414D02*
D03*
X46260Y49213D02*
D03*
X40664Y47750D02*
D03*
X53150Y80709D02*
D03*
X54921Y73414D02*
D03*
X25204Y41745D02*
D03*
X20669Y39370D02*
D03*
X76772Y36417D02*
D03*
X201886Y368690D02*
D03*
X9957Y339162D02*
D03*
X260942Y309635D02*
D03*
X275705Y280107D02*
D03*
Y221052D02*
D03*
Y161997D02*
D03*
Y102942D02*
D03*
X260942Y73414D02*
D03*
Y14359D02*
D03*
X231414Y368690D02*
D03*
X246178Y339162D02*
D03*
X231414Y309635D02*
D03*
X246178Y280107D02*
D03*
X231414Y250580D02*
D03*
X246178Y161997D02*
D03*
X231414Y132469D02*
D03*
X246178Y102942D02*
D03*
X231414Y73414D02*
D03*
X246178Y43887D02*
D03*
X201886Y309635D02*
D03*
X216650Y280107D02*
D03*
X201886Y250580D02*
D03*
X216650Y221052D02*
D03*
Y161997D02*
D03*
X201886Y132469D02*
D03*
X216650Y102942D02*
D03*
X201886Y73414D02*
D03*
X216650Y43887D02*
D03*
X172359Y368690D02*
D03*
Y309635D02*
D03*
X187123Y280107D02*
D03*
X172359Y250580D02*
D03*
X187123Y221052D02*
D03*
Y161997D02*
D03*
X172359Y132469D02*
D03*
X187123Y102942D02*
D03*
X172359Y73414D02*
D03*
X187123Y43887D02*
D03*
X142831Y368690D02*
D03*
Y309635D02*
D03*
X157595Y280107D02*
D03*
X142831Y250580D02*
D03*
X157595Y221052D02*
D03*
Y161997D02*
D03*
X142831Y132469D02*
D03*
X157595Y102942D02*
D03*
X142831Y73414D02*
D03*
X157595Y43887D02*
D03*
X113304Y368690D02*
D03*
X128068Y339162D02*
D03*
X113304Y309635D02*
D03*
Y250580D02*
D03*
X128068Y221052D02*
D03*
Y161997D02*
D03*
X113304Y132469D02*
D03*
Y73414D02*
D03*
X128068Y43887D02*
D03*
X113304Y14359D02*
D03*
X98540Y339162D02*
D03*
X83776Y309635D02*
D03*
X98540Y280107D02*
D03*
X83776Y250580D02*
D03*
X98540Y221052D02*
D03*
Y161997D02*
D03*
X83776Y132469D02*
D03*
X98540Y102942D02*
D03*
X83776Y73414D02*
D03*
X98540Y43887D02*
D03*
X83776Y14359D02*
D03*
X54249Y368690D02*
D03*
Y309635D02*
D03*
X69012Y280107D02*
D03*
X54249Y250580D02*
D03*
Y132469D02*
D03*
X69012Y102942D02*
D03*
X54249Y14359D02*
D03*
X24721Y368690D02*
D03*
X39485Y339162D02*
D03*
X24721Y309635D02*
D03*
X39485Y280107D02*
D03*
Y161997D02*
D03*
X24721Y73414D02*
D03*
Y14359D02*
D03*
X9957Y280107D02*
D03*
Y161997D02*
D03*
Y43887D02*
D03*
X-34334Y250580D02*
D03*
X-19570Y221052D02*
D03*
Y161997D02*
D03*
X-34334Y132469D02*
D03*
X407283Y321773D02*
D03*
X407074Y331489D02*
D03*
X406890Y341613D02*
D03*
Y351062D02*
D03*
X406693Y77559D02*
D03*
X407087Y68110D02*
D03*
Y58268D02*
D03*
X406818Y87276D02*
D03*
X518555Y323536D02*
D03*
X518701Y70198D02*
D03*
X48425Y184252D02*
D03*
Y154724D02*
D03*
X67323Y212992D02*
D03*
X350394Y301969D02*
D03*
X351181Y314173D02*
D03*
Y324410D02*
D03*
X464173Y353150D02*
D03*
X462754Y89452D02*
D03*
X348975Y38271D02*
D03*
X349762Y50476D02*
D03*
Y60712D02*
D03*
X363189Y78740D02*
D03*
X405030Y194183D02*
D03*
X404712Y187007D02*
D03*
X405693Y207144D02*
D03*
X405512Y214567D02*
D03*
Y223622D02*
D03*
X274803Y368504D02*
D03*
X251969Y102941D02*
D03*
X265748Y250579D02*
D03*
X248031Y221051D02*
D03*
X518898Y195932D02*
D03*
X350550Y175279D02*
D03*
X351337Y187484D02*
D03*
Y197720D02*
D03*
X464329Y226460D02*
D03*
X362205Y215551D02*
D03*
X-37922Y261399D02*
D03*
X-38183Y267654D02*
D03*
X-38294Y273980D02*
D03*
D71*
X331693Y333661D02*
D03*
X330709Y70866D02*
D03*
Y208661D02*
D03*
X410433Y247047D02*
D03*
Y110236D02*
D03*
X339567Y78740D02*
D03*
Y215551D02*
D03*
X318898Y295276D02*
D03*
X6890Y356299D02*
D03*
X-9843Y280441D02*
D03*
X-33071Y149213D02*
D03*
X-9449Y264961D02*
D03*
X-9843Y250787D02*
D03*
X-29134Y183465D02*
D03*
X336614Y30315D02*
D03*
X322047D02*
D03*
X324016Y44094D02*
D03*
X356299Y94488D02*
D03*
X368898Y92126D02*
D03*
X337008Y167717D02*
D03*
X323622Y181496D02*
D03*
X322441Y168110D02*
D03*
X355315Y231299D02*
D03*
X374410Y240551D02*
D03*
X335925Y295472D02*
D03*
X324803Y308366D02*
D03*
X316142Y341732D02*
D03*
X340158Y341339D02*
D03*
X362598Y341732D02*
D03*
X408661Y373622D02*
D03*
X356299Y359055D02*
D03*
X376378Y366142D02*
D03*
M02*
