M48
;Layer_Color=9474304
;FILE_FORMAT=2:5
INCH,TZ
;TYPE=PLATED
T01F00S00C0.01181
T02F00S00C0.02992
T03F00S00C0.03543
T04F00S00C0.04016
T05F00S00C0.04291
T06F00S00C0.12835
%
T01
X24721Y14359
X54249
X83776
X113304
X128068Y43887
X98540
X65551Y41535
X41732Y46063
X36191Y49198
X25984Y42913
X20734Y43103
X9957Y43887
X157595
X187123
X216650
X231414Y14359
X201886
X172359
X142831
X322047Y30315
X336614
X348975Y38271
X349762Y50476
X324016Y44094
X462754Y89452
X518701Y70198
X518898Y195932
X405030Y194183
X404712Y187007
X405693Y207144
X351337Y197720
Y187484
X350550Y175279
X337008Y167717
X322441Y168110
X323622Y181496
X355906Y94095
X368898Y92126
X359211Y77247
X349762Y60712
X404724Y58268
Y67323
Y78347
Y87795
X251969Y102941
X216650Y102942
X187123
X157595
X172359Y132469
X201886
X231414
X216650Y161997
X187123
X157595
X142831Y132469
Y73414
X172359
X201886
X231414
X113304
X83776
X54249
X47638Y80709
X24721Y73414
X69012Y102942
X98540
X113304Y132469
X83776
X54249
X48425Y154724
X39485Y161997
X9957
X-19570
X48425Y184252
X98540Y161997
X128068
X-33071Y149213
X-34334Y132469
X-40908Y118467
X-29134Y183465
X-34334Y250580
X-37922Y261399
X-38183Y267654
X-38294Y273980
X-9843Y280709
X-9449Y264961
X-9843Y250787
X-19570Y221052
X67323Y212992
X98540Y221052
X128068
X113304Y250580
X83776
X54249
X69012Y280107
X98540
X113304Y309635
X83776
X54249
X24721
X39485Y280107
X69012Y339162
X98540
X128068
X9957
X157595
X187123
X216650
X248721Y339161
X231414Y309635
X201886
X172359
X142831
X157595Y280107
X187123
X216650
X231414Y250580
X201886
X172359
X142831
X157595Y221052
X187123
X216650
X248031Y221051
X265748Y250579
X354331Y231890
X360786Y214255
X374410Y240551
X405512Y223622
Y214567
X405905Y322047
Y330709
X405512Y341339
Y350787
X362598Y341732
X340158Y341339
X316142Y341732
X324803Y308366
X335925Y295472
X350394Y301969
X351181Y314173
Y324410
X356299Y359055
X464173Y353150
X518555Y323536
X464329Y226460
X408661Y373622
X370472Y366846
X274803Y368504
X231414Y368690
X201886
X172359
X142831
X113304
X83776
X54249
X24721
T02
X288937Y113189
X308937
X328937
X278937
X278543Y250590
X288543
X308543
X328543
X328386Y375590
X308386
X288386
X278386
T03
X474356Y25302
Y35302
Y45302
Y55302
Y65302
Y75302
Y85302
Y95302
Y162310
Y172310
Y182310
Y192310
Y202310
Y212310
Y222310
Y232310
Y289000
Y299000
Y309000
Y319000
Y329000
Y339000
Y349000
Y359000
T04
X19000Y56900
Y66900
Y76900
Y86900
Y96900
Y106900
Y116900
Y126900
Y136900
Y146900
X29000
X39000
Y136900
X29000
Y126900
X39000
Y116900
X29000
Y106900
X39000
Y96900
X29000
Y86900
X39000
Y76900
X29000
Y66900
X39000
Y56900
X29000
X28800Y169000
Y179000
Y189000
Y199000
X18800
Y189000
Y179000
Y169000
X38800
Y179000
Y189000
Y199000
Y209000
Y219000
Y229000
Y239000
Y249000
Y259000
X28800
X18800
Y249000
X28800
Y239000
X18800
Y229000
X28800
Y219000
X18800
Y209000
X28800
X29600Y286200
Y296200
Y306200
Y316200
Y326200
Y336200
X19600
Y326200
Y316200
Y306200
Y296200
Y286200
T05
X512677Y48661
Y59567
Y70473
Y81378
Y92283
X523858Y86831
Y75925
Y65020
Y54114
Y180492
Y191398
Y202303
X512677Y207756
Y196850
Y185945
Y175039
Y218661
X523858Y213209
Y306870
Y317776
Y328681
Y339587
X512677Y345039
Y334134
Y323228
Y312323
Y301417
T06
X518268Y21280
Y119665
Y147658
Y246043
Y274035
Y372421
M30
