G04*
G04 #@! TF.GenerationSoftware,Altium Limited,Altium Designer,22.2.1 (43)*
G04*
G04 Layer_Color=16711935*
%FSLAX25Y25*%
%MOIN*%
G70*
G04*
G04 #@! TF.SameCoordinates,93E95647-66E4-4FC5-8CF4-0AE347A0EBAC*
G04*
G04*
G04 #@! TF.FilePolarity,Positive*
G04*
G01*
G75*
%ADD56C,0.00394*%
D56*
X-0Y11811D02*
X40Y10836D01*
X161Y9867D01*
X361Y8912D01*
X640Y7976D01*
X995Y7067D01*
X1423Y6190D01*
X1923Y5351D01*
X2490Y4557D01*
X3121Y3812D01*
X3811Y3121D01*
X4556Y2490D01*
X5351Y1923D01*
X6190Y1424D01*
X7067Y995D01*
X7976Y640D01*
X8912Y361D01*
X9867Y161D01*
X10836Y40D01*
X11811Y0D01*
X555673Y381928D02*
X555633Y382904D01*
X555512Y383872D01*
X555312Y384828D01*
X555033Y385763D01*
X554678Y386673D01*
X554250Y387550D01*
X553750Y388388D01*
X553183Y389183D01*
X552552Y389928D01*
X551862Y390618D01*
X551117Y391249D01*
X550322Y391816D01*
X549484Y392316D01*
X548607Y392744D01*
X547697Y393099D01*
X546762Y393378D01*
X545806Y393578D01*
X544838Y393699D01*
X543862Y393739D01*
X545343Y-198D02*
X546319Y-158D01*
X547287Y-37D01*
X548243Y163D01*
X549178Y441D01*
X550088Y796D01*
X550965Y1225D01*
X551803Y1725D01*
X552598Y2292D01*
X553343Y2923D01*
X554033Y3613D01*
X554664Y4358D01*
X555231Y5153D01*
X555731Y5991D01*
X556160Y6868D01*
X556514Y7778D01*
X556793Y8713D01*
X556993Y9669D01*
X557114Y10637D01*
X557154Y11613D01*
X-38004Y185827D02*
X-37022Y185930D01*
X-36082Y186235D01*
X-35227Y186729D01*
X-34493Y187390D01*
X-33912Y188189D01*
X-33511Y189091D01*
X-33305Y190057D01*
Y191045D01*
X-33511Y192011D01*
X-33912Y192913D01*
X-34493Y193712D01*
X-35227Y194373D01*
X-36082Y194867D01*
X-37022Y195172D01*
X-38004Y195276D01*
X-38791Y284350D02*
X-37772Y284485D01*
X-36822Y284878D01*
X-36007Y285503D01*
X-35381Y286319D01*
X-34988Y287268D01*
X-34854Y288287D01*
X-27847Y300492D02*
X-28308Y301606D01*
X-29421Y302067D01*
X-27847Y298130D02*
X-27712Y297111D01*
X-27319Y296161D01*
X-26693Y295346D01*
X-25878Y294720D01*
X-24928Y294327D01*
X-23910Y294193D01*
X11811Y393701D02*
X10836Y393660D01*
X9867Y393540D01*
X8912Y393339D01*
X7976Y393061D01*
X7067Y392706D01*
X6190Y392277D01*
X5351Y391778D01*
X4557Y391210D01*
X3812Y390579D01*
X3121Y389889D01*
X2490Y389144D01*
X1923Y388350D01*
X1424Y387511D01*
X995Y386634D01*
X640Y385725D01*
X361Y384789D01*
X161Y383834D01*
X40Y382865D01*
X0Y381890D01*
X-23910Y99508D02*
X-24928Y99374D01*
X-25878Y98980D01*
X-26693Y98355D01*
X-27319Y97539D01*
X-27712Y96590D01*
X-27847Y95571D01*
X-29421Y91634D02*
X-28308Y92095D01*
X-27847Y93208D01*
X-34854Y105413D02*
X-34988Y106432D01*
X-35381Y107382D01*
X-36007Y108197D01*
X-36822Y108823D01*
X-37772Y109216D01*
X-38791Y109350D01*
X11811Y393701D02*
X543862Y393739D01*
X11811Y0D02*
X543862D01*
X-58477Y109350D02*
Y185827D01*
Y195276D02*
Y284350D01*
X-38791D01*
X-58477Y109350D02*
X-38791D01*
X-58477Y185827D02*
X-38004D01*
X-58477Y195276D02*
X-38004D01*
X-34854Y288287D02*
Y302067D01*
Y91634D02*
Y105413D01*
Y302067D02*
X-29421D01*
X-34854Y91634D02*
X-29421D01*
X-27847Y298130D02*
Y300492D01*
Y93209D02*
Y95571D01*
X-23910Y294193D02*
X-0D01*
X-23910Y99508D02*
X-0D01*
Y294193D02*
Y381890D01*
Y11811D02*
Y99508D01*
M02*
