G04*
G04 #@! TF.GenerationSoftware,Altium Limited,Altium Designer,21.1.1 (26)*
G04*
G04 Layer_Physical_Order=1*
G04 Layer_Color=255*
%FSLAX25Y25*%
%MOIN*%
G70*
G04*
G04 #@! TF.SameCoordinates,6B7AC59C-B607-4886-845B-4D5108AB40E6*
G04*
G04*
G04 #@! TF.FilePolarity,Positive*
G04*
G01*
G75*
%ADD10C,0.00787*%
%ADD16R,0.03740X0.03347*%
%ADD17O,0.08661X0.02362*%
%ADD18O,0.07874X0.02362*%
%ADD19O,0.09843X0.02756*%
%ADD20R,0.06102X0.05315*%
%ADD21R,0.06614X0.12362*%
%ADD22R,0.11024X0.02165*%
%ADD41C,0.01968*%
%ADD42C,0.01181*%
%ADD43R,0.06653X0.06653*%
%ADD44C,0.06653*%
%ADD45C,0.18740*%
%ADD46C,0.04724*%
%ADD47R,0.04724X0.04724*%
%ADD48R,0.05906X0.05906*%
%ADD49C,0.05906*%
%ADD50C,0.05315*%
%ADD51R,0.05315X0.05315*%
%ADD52C,0.05394*%
%ADD53R,0.05394X0.05394*%
%ADD54C,0.01968*%
%ADD55C,0.01575*%
G36*
X283858Y391360D02*
Y384660D01*
X292135D01*
Y379668D01*
X291973Y379601D01*
X291635Y379506D01*
X290917Y379921D01*
X290216Y380108D01*
Y376802D01*
Y373496D01*
X290917Y373684D01*
X291635Y374098D01*
X291973Y374003D01*
X292135Y373936D01*
Y370881D01*
X283858D01*
Y338907D01*
X283358Y338781D01*
X282694Y339225D01*
X281849Y339393D01*
X279683D01*
Y337185D01*
Y334977D01*
X281849D01*
X282694Y335145D01*
X283358Y335590D01*
X283858Y335464D01*
Y333024D01*
X283396Y332832D01*
X283137Y333092D01*
X282984Y333320D01*
X282463Y333668D01*
X281849Y333791D01*
X276337D01*
X275722Y333668D01*
X275201Y333320D01*
X274944Y332935D01*
X272208Y330199D01*
X271746Y330390D01*
Y331004D01*
X264856D01*
Y329358D01*
X61353D01*
X60815Y329251D01*
X60360Y328946D01*
X30556Y299143D01*
X30007Y299290D01*
X29193D01*
X28407Y299080D01*
X27702Y298673D01*
X27127Y298098D01*
X26842Y297605D01*
X22358D01*
X22073Y298098D01*
X21498Y298673D01*
X20793Y299080D01*
X20007Y299290D01*
X19193D01*
X18407Y299080D01*
X17702Y298673D01*
X17127Y298098D01*
X16720Y297393D01*
X16510Y296607D01*
Y295793D01*
X16720Y295007D01*
X17127Y294302D01*
X17702Y293727D01*
X18407Y293320D01*
X19193Y293109D01*
X20007D01*
X20793Y293320D01*
X21498Y293727D01*
X22073Y294302D01*
X22358Y294795D01*
X25555D01*
X25746Y294333D01*
X22681Y291268D01*
X22377Y290812D01*
X22270Y290275D01*
Y289371D01*
X21770Y289198D01*
X21021Y289630D01*
X20191Y289853D01*
Y286200D01*
Y282547D01*
X21021Y282770D01*
X21770Y283202D01*
X22270Y283029D01*
Y276121D01*
X1223Y255075D01*
X-4191D01*
Y241925D01*
X3210D01*
Y253088D01*
X24668Y274546D01*
X24973Y275002D01*
X25080Y275539D01*
Y289693D01*
X28644Y293257D01*
X29193Y293109D01*
X30007D01*
X30793Y293320D01*
X31498Y293727D01*
X32073Y294302D01*
X32480Y295007D01*
X32691Y295793D01*
Y296607D01*
X32543Y297156D01*
X61935Y326548D01*
X264856D01*
Y324902D01*
X269660D01*
X270196Y324795D01*
X270732Y324902D01*
X271746D01*
Y325763D01*
X276562Y330579D01*
X281675D01*
X283628Y328627D01*
X283587Y328318D01*
X283067Y328197D01*
X282984Y328320D01*
X282463Y328668D01*
X281849Y328791D01*
X276337D01*
X275722Y328668D01*
X275201Y328320D01*
X274853Y327800D01*
X274731Y327185D01*
X274853Y326571D01*
X275201Y326050D01*
X275722Y325702D01*
X276337Y325579D01*
X281849D01*
X282463Y325702D01*
X282984Y326050D01*
X283195Y326366D01*
X283695Y326214D01*
Y323156D01*
X283195Y323005D01*
X282984Y323320D01*
X282463Y323669D01*
X281849Y323791D01*
X276337D01*
X275722Y323669D01*
X275201Y323320D01*
X274979Y322988D01*
X147058D01*
X147057Y322988D01*
X146750Y322927D01*
X146490Y322753D01*
X146490Y322753D01*
X42943Y219206D01*
X42481Y219397D01*
Y219485D01*
X42230Y220421D01*
X41745Y221260D01*
X41060Y221946D01*
X40221Y222430D01*
X39391Y222653D01*
Y219000D01*
X38800D01*
Y218409D01*
X35147D01*
X35370Y217579D01*
X35854Y216740D01*
X36540Y216054D01*
X37379Y215570D01*
X38315Y215319D01*
X38403D01*
X38594Y214857D01*
X33540Y209803D01*
X31784D01*
X31680Y210193D01*
X31273Y210898D01*
X30698Y211473D01*
X29993Y211880D01*
X29207Y212091D01*
X28393D01*
X27607Y211880D01*
X27257Y211678D01*
X24588Y214347D01*
X24328Y214521D01*
X24020Y214582D01*
X17262D01*
X13953Y217891D01*
X13693Y218065D01*
X13386Y218126D01*
X11811D01*
X11811Y218126D01*
X11633Y218090D01*
X-42096D01*
X-42480Y218370D01*
Y219847D01*
X-48976D01*
X-55472D01*
Y218370D01*
X-54882D01*
Y216205D01*
X-55472D01*
Y214728D01*
X-48976D01*
X-42480D01*
Y216205D01*
X-42096Y216485D01*
X11776D01*
X11954Y216520D01*
X13053D01*
X16361Y213212D01*
X16361Y213212D01*
X16622Y213038D01*
X16929Y212977D01*
X23688D01*
X26122Y210543D01*
X25920Y210193D01*
X25709Y209407D01*
Y208593D01*
X25920Y207807D01*
X26327Y207102D01*
X26902Y206527D01*
X27607Y206120D01*
X28393Y205909D01*
X29207D01*
X29993Y206120D01*
X30698Y206527D01*
X31273Y207102D01*
X31680Y207807D01*
X31784Y208197D01*
X33873D01*
X34180Y208258D01*
X34440Y208432D01*
X34673Y208665D01*
X35142Y208428D01*
X35370Y207579D01*
X35854Y206740D01*
X36540Y206054D01*
X37379Y205570D01*
X38315Y205319D01*
X38403D01*
X38594Y204857D01*
X33540Y199803D01*
X31784D01*
X31680Y200193D01*
X31273Y200898D01*
X30698Y201473D01*
X29993Y201880D01*
X29207Y202091D01*
X28393D01*
X27607Y201880D01*
X27257Y201678D01*
X24431Y204505D01*
X24170Y204679D01*
X23863Y204740D01*
X16868D01*
X10052Y211556D01*
X9792Y211730D01*
X9484Y211791D01*
X-42096D01*
X-42480Y212071D01*
Y213547D01*
X-48976D01*
X-55472D01*
Y212071D01*
X-54882D01*
Y209906D01*
X-55472D01*
Y208429D01*
X-48976D01*
X-42480D01*
Y209906D01*
X-42096Y210185D01*
X9152D01*
X15968Y203369D01*
X15968Y203369D01*
X16228Y203195D01*
X16535Y203134D01*
X16535Y203134D01*
X23530D01*
X26122Y200543D01*
X25920Y200193D01*
X25709Y199407D01*
Y198593D01*
X25920Y197807D01*
X26327Y197102D01*
X26902Y196527D01*
X27607Y196120D01*
X28393Y195910D01*
X29207D01*
X29993Y196120D01*
X30698Y196527D01*
X31273Y197102D01*
X31680Y197807D01*
X31784Y198197D01*
X33873D01*
X34180Y198258D01*
X34440Y198432D01*
X34673Y198665D01*
X35142Y198427D01*
X35370Y197579D01*
X35720Y196972D01*
X35469Y196472D01*
X35162Y196411D01*
X34901Y196237D01*
X30343Y191678D01*
X29993Y191880D01*
X29207Y192091D01*
X28393D01*
X27607Y191880D01*
X27257Y191678D01*
X24667Y194269D01*
X24406Y194442D01*
X24099Y194504D01*
X16474D01*
X5721Y205257D01*
X5461Y205431D01*
X5153Y205492D01*
X-42096D01*
X-42480Y205772D01*
Y207248D01*
X-48976D01*
X-55472D01*
Y205772D01*
X-54882D01*
Y203606D01*
X-55472D01*
Y202130D01*
X-48976D01*
X-42480D01*
Y203606D01*
X-42096Y203886D01*
X4821D01*
X15574Y193133D01*
X15574Y193133D01*
X15834Y192959D01*
X16142Y192898D01*
X23767D01*
X26122Y190543D01*
X25920Y190193D01*
X25709Y189407D01*
Y188593D01*
X25920Y187807D01*
X26327Y187102D01*
X26902Y186527D01*
X27607Y186120D01*
X28393Y185909D01*
X29207D01*
X29993Y186120D01*
X30698Y186527D01*
X31273Y187102D01*
X31680Y187807D01*
X31890Y188593D01*
Y189407D01*
X31680Y190193D01*
X31478Y190543D01*
X35802Y194867D01*
X37617D01*
X37685Y194838D01*
X38800Y194692D01*
X39915Y194838D01*
X39983Y194867D01*
X248675D01*
X248882Y194367D01*
X248232Y193716D01*
X47786D01*
X47479Y193655D01*
X47218Y193481D01*
X42943Y189206D01*
X42481Y189397D01*
Y189485D01*
X42230Y190421D01*
X41745Y191260D01*
X41060Y191946D01*
X40221Y192430D01*
X39391Y192653D01*
Y189000D01*
X38800D01*
Y188409D01*
X35147D01*
X35370Y187579D01*
X35854Y186740D01*
X36540Y186054D01*
X37379Y185570D01*
X38315Y185319D01*
X38403D01*
X38594Y184857D01*
X32390Y178653D01*
X31890Y178860D01*
Y179407D01*
X31680Y180193D01*
X31273Y180898D01*
X30698Y181473D01*
X29993Y181880D01*
X29207Y182091D01*
X28393D01*
X27607Y181880D01*
X27257Y181678D01*
X24509Y184426D01*
X24249Y184600D01*
X23942Y184661D01*
X17262D01*
X2965Y198958D01*
X2705Y199132D01*
X2398Y199193D01*
X-42096D01*
X-42480Y199472D01*
Y200949D01*
X-48976D01*
X-55472D01*
Y199472D01*
X-54882D01*
Y197283D01*
X-56469D01*
Y282343D01*
X-55472D01*
Y280870D01*
X-48976D01*
X-42480D01*
Y282343D01*
X-38791D01*
X-38742Y282353D01*
X-38693Y282346D01*
X-38307Y282365D01*
X-38162Y282401D01*
X-38013Y282401D01*
X-37257Y282551D01*
X-37074Y282627D01*
X-36880Y282665D01*
X-36167Y282961D01*
X-36002Y283071D01*
X-35820Y283146D01*
X-35178Y283575D01*
X-35038Y283715D01*
X-34874Y283825D01*
X-34328Y284370D01*
X-34218Y284535D01*
X-34078Y284675D01*
X-33650Y285316D01*
X-33574Y285499D01*
X-33464Y285664D01*
X-33169Y286377D01*
X-33130Y286570D01*
X-33055Y286753D01*
X-32904Y287510D01*
X-32904Y287659D01*
X-32868Y287803D01*
X-32849Y288189D01*
X-32857Y288238D01*
X-32847Y288287D01*
Y300060D01*
X-29853D01*
Y298130D01*
X-29844Y298081D01*
X-29851Y298031D01*
X-29832Y297646D01*
X-29796Y297501D01*
X-29796Y297353D01*
X-29645Y296596D01*
X-29570Y296413D01*
X-29531Y296219D01*
X-29236Y295506D01*
X-29126Y295342D01*
X-29050Y295159D01*
X-28622Y294517D01*
X-28482Y294377D01*
X-28372Y294213D01*
X-27826Y293667D01*
X-27662Y293558D01*
X-27522Y293418D01*
X-26880Y292989D01*
X-26698Y292913D01*
X-26533Y292804D01*
X-25820Y292508D01*
X-25626Y292470D01*
X-25444Y292394D01*
X-24687Y292243D01*
X-24538Y292243D01*
X-24394Y292207D01*
X-24008Y292188D01*
X-23958Y292196D01*
X-23910Y292186D01*
X-0D01*
X768Y292339D01*
X1419Y292774D01*
X1854Y293425D01*
X2007Y294193D01*
Y381890D01*
X2007Y382532D01*
X2175Y383806D01*
X2507Y385048D01*
X2999Y386235D01*
X3642Y387348D01*
X4424Y388368D01*
X5333Y389277D01*
X6352Y390059D01*
X7466Y390702D01*
X8653Y391193D01*
X9894Y391526D01*
X11168Y391694D01*
X11811Y391694D01*
X11811Y391694D01*
X11811Y391694D01*
X283505Y391714D01*
X283858Y391360D01*
D02*
G37*
G36*
X275201Y311050D02*
X275722Y310702D01*
X276337Y310579D01*
X281849D01*
X282463Y310702D01*
X282984Y311050D01*
X283195Y311366D01*
X283695Y311214D01*
Y309151D01*
X283195Y308890D01*
X282694Y309225D01*
X281849Y309393D01*
X279683D01*
Y307185D01*
Y304977D01*
X281849D01*
X282193Y305046D01*
X282440Y304585D01*
X281645Y303791D01*
X276337D01*
X275722Y303668D01*
X275201Y303320D01*
X274853Y302800D01*
X274826Y302661D01*
X256881Y284716D01*
X256576Y284260D01*
X256469Y283722D01*
Y213683D01*
X256576Y213145D01*
X256881Y212689D01*
X262269Y207301D01*
Y203185D01*
X269159D01*
Y204166D01*
X275492D01*
X275723Y204012D01*
X276337Y203890D01*
X281831D01*
X283858Y201863D01*
Y201028D01*
X283358Y200979D01*
X283332Y201110D01*
X282984Y201631D01*
X282463Y201979D01*
X281849Y202101D01*
X276337D01*
X275723Y201979D01*
X275202Y201631D01*
X274853Y201110D01*
X274731Y200495D01*
X274853Y199881D01*
X275202Y199360D01*
X275723Y199012D01*
X276337Y198890D01*
X281849D01*
X282463Y199012D01*
X282984Y199360D01*
X283332Y199881D01*
X283358Y200012D01*
X283858Y199963D01*
Y198673D01*
X283419Y198267D01*
X250717D01*
X250410Y198205D01*
X250149Y198031D01*
X250149Y198031D01*
X248590Y196472D01*
X42156D01*
X41880Y196972D01*
X42230Y197579D01*
X42453Y198409D01*
X38800D01*
Y199591D01*
X42453D01*
X42230Y200421D01*
X41745Y201260D01*
X41060Y201946D01*
X40221Y202430D01*
X39373Y202658D01*
X39135Y203127D01*
X147390Y311382D01*
X274979D01*
X275201Y311050D01*
D02*
G37*
G36*
X549840Y381895D02*
X549840Y281496D01*
X524499D01*
X522915Y281811D01*
X520992D01*
X519409Y281496D01*
X305118Y281496D01*
X305118Y381784D01*
X305472Y382137D01*
X549840Y381895D01*
D02*
G37*
G36*
X283858Y301376D02*
Y258001D01*
X292135D01*
Y252978D01*
X291972Y252911D01*
X291635Y252816D01*
X290917Y253231D01*
X290216Y253419D01*
Y250112D01*
Y246806D01*
X290917Y246994D01*
X291635Y247408D01*
X291972Y247314D01*
X292135Y247246D01*
Y244221D01*
X283858D01*
Y212217D01*
X283358Y212091D01*
X282694Y212535D01*
X281849Y212703D01*
X279683D01*
Y210495D01*
Y208288D01*
X281849D01*
X282694Y208455D01*
X283358Y208900D01*
X283858Y208774D01*
Y206490D01*
X283396Y206298D01*
X283191Y206504D01*
X282735Y206808D01*
X282711Y206813D01*
X282463Y206979D01*
X281849Y207101D01*
X276337D01*
X275723Y206979D01*
X275718Y206976D01*
X269159D01*
Y209288D01*
X264256D01*
X263537Y210007D01*
X263728Y210469D01*
X265124D01*
Y213520D01*
X261679D01*
Y212518D01*
X261217Y212327D01*
X259279Y214265D01*
Y283140D01*
X276718Y300579D01*
X281849D01*
X282463Y300702D01*
X282984Y301050D01*
X283197Y301368D01*
X283396Y301568D01*
X283858Y301376D01*
D02*
G37*
G36*
X275202Y194360D02*
X275723Y194012D01*
X276337Y193890D01*
X281849D01*
X282463Y194012D01*
X282927Y194322D01*
X283177Y194256D01*
X283427Y194123D01*
Y193209D01*
X282241Y192023D01*
X281849Y192101D01*
X276337D01*
X275723Y191979D01*
X275202Y191631D01*
X274853Y191110D01*
X274731Y190495D01*
X274853Y189881D01*
X275202Y189360D01*
X275723Y189012D01*
X276337Y188890D01*
X281849D01*
X282463Y189012D01*
X282984Y189360D01*
X283332Y189881D01*
X283358Y190012D01*
X283858Y189963D01*
Y186028D01*
X283358Y185979D01*
X283332Y186110D01*
X282984Y186631D01*
X282463Y186979D01*
X281849Y187101D01*
X276337D01*
X275723Y186979D01*
X275202Y186631D01*
X275173Y186588D01*
X58226D01*
X57919Y186527D01*
X57658Y186353D01*
X46124Y174819D01*
X31534D01*
X31326Y175319D01*
X34673Y178665D01*
X35142Y178428D01*
X35370Y177579D01*
X35854Y176740D01*
X36540Y176054D01*
X37379Y175570D01*
X38209Y175347D01*
Y179000D01*
X38800D01*
Y179591D01*
X42453D01*
X42230Y180421D01*
X41745Y181260D01*
X41060Y181946D01*
X40221Y182430D01*
X39373Y182658D01*
X39135Y183127D01*
X48118Y192111D01*
X248565D01*
X248872Y192172D01*
X249132Y192346D01*
X251479Y194692D01*
X274979D01*
X275202Y194360D01*
D02*
G37*
G36*
X16361Y183291D02*
X16361Y183291D01*
X16622Y183117D01*
X16929Y183055D01*
X16929Y183055D01*
X23609D01*
X26122Y180543D01*
X25920Y180193D01*
X25709Y179407D01*
Y178593D01*
X25730Y178515D01*
X25282Y178256D01*
X23970Y179568D01*
X23710Y179742D01*
X23403Y179803D01*
X21784D01*
X21680Y180193D01*
X21273Y180898D01*
X20698Y181473D01*
X19993Y181880D01*
X19207Y182091D01*
X18393D01*
X17607Y181880D01*
X16902Y181473D01*
X16327Y180898D01*
X15920Y180193D01*
X15709Y179407D01*
Y178593D01*
X15920Y177807D01*
X16327Y177102D01*
X16902Y176527D01*
X17607Y176120D01*
X18393Y175909D01*
X19207D01*
X19993Y176120D01*
X20698Y176527D01*
X21273Y177102D01*
X21680Y177807D01*
X21784Y178197D01*
X23070D01*
X25949Y175319D01*
X25742Y174819D01*
X23816D01*
X23508Y174758D01*
X23248Y174583D01*
X23248Y174583D01*
X20343Y171678D01*
X19993Y171880D01*
X19207Y172091D01*
X18393D01*
X17607Y171880D01*
X16902Y171473D01*
X16327Y170898D01*
X15920Y170193D01*
X15709Y169407D01*
Y168593D01*
X15920Y167807D01*
X16327Y167102D01*
X16902Y166527D01*
X17607Y166120D01*
X18393Y165910D01*
X19207D01*
X19993Y166120D01*
X20698Y166527D01*
X21273Y167102D01*
X21680Y167807D01*
X21891Y168593D01*
Y169407D01*
X21680Y170193D01*
X21478Y170543D01*
X24148Y173213D01*
X46457D01*
X46764Y173274D01*
X47024Y173448D01*
X58558Y184982D01*
X274833D01*
X274853Y184881D01*
X275202Y184360D01*
X275723Y184012D01*
X276337Y183890D01*
X281849D01*
X282463Y184012D01*
X282984Y184360D01*
X283332Y184881D01*
X283358Y185012D01*
X283858Y184963D01*
Y182217D01*
X283358Y182091D01*
X282694Y182535D01*
X281849Y182703D01*
X279683D01*
Y180495D01*
Y178287D01*
X281849D01*
X282388Y178395D01*
X282634Y177934D01*
X281801Y177101D01*
X276337D01*
X275723Y176979D01*
X275202Y176631D01*
X274853Y176110D01*
X274826Y175971D01*
X262570Y163716D01*
X262266Y163260D01*
X262159Y162722D01*
Y73546D01*
X262266Y73008D01*
X262570Y72552D01*
X264572Y70551D01*
Y66435D01*
X271461D01*
Y67158D01*
X275492D01*
X275723Y67004D01*
X276337Y66882D01*
X280257D01*
X281545Y65593D01*
X281338Y65093D01*
X276337D01*
X275723Y64971D01*
X275202Y64623D01*
X274853Y64102D01*
X274731Y63487D01*
X274853Y62873D01*
X275202Y62352D01*
X275723Y62004D01*
X276337Y61882D01*
X281849D01*
X282463Y62004D01*
X282984Y62352D01*
X283332Y62873D01*
X283358Y63004D01*
X283858Y62955D01*
Y59020D01*
X283358Y58971D01*
X283332Y59102D01*
X282984Y59623D01*
X282463Y59971D01*
X281849Y60093D01*
X276337D01*
X275723Y59971D01*
X275202Y59623D01*
X275112Y59489D01*
X173537D01*
X59646Y173380D01*
Y173896D01*
X59436Y174403D01*
X59048Y174790D01*
X58542Y175000D01*
X57994D01*
X57487Y174790D01*
X57099Y174403D01*
X56890Y173896D01*
Y173348D01*
X57099Y172842D01*
X57487Y172454D01*
X57994Y172244D01*
X58510D01*
X172636Y58118D01*
X172897Y57944D01*
X173204Y57883D01*
X173204Y57883D01*
X274851D01*
X274853Y57873D01*
X275202Y57352D01*
X275723Y57004D01*
X276337Y56882D01*
X281849D01*
X282463Y57004D01*
X282984Y57352D01*
X283332Y57873D01*
X283358Y58004D01*
X283858Y57955D01*
Y54020D01*
X283358Y53971D01*
X283332Y54102D01*
X282984Y54623D01*
X282463Y54971D01*
X281849Y55093D01*
X276337D01*
X275723Y54971D01*
X275202Y54623D01*
X275112Y54489D01*
X144447D01*
X31478Y167457D01*
X31680Y167807D01*
X31890Y168593D01*
Y169407D01*
X31680Y170193D01*
X31273Y170898D01*
X30698Y171473D01*
X29993Y171880D01*
X29207Y172091D01*
X28393D01*
X27607Y171880D01*
X26902Y171473D01*
X26327Y170898D01*
X25920Y170193D01*
X25709Y169407D01*
Y168593D01*
X25920Y167807D01*
X26327Y167102D01*
X26902Y166527D01*
X27607Y166120D01*
X28393Y165910D01*
X29207D01*
X29993Y166120D01*
X30343Y166322D01*
X143546Y53118D01*
X143807Y52944D01*
X144114Y52883D01*
X144114Y52883D01*
X274851D01*
X274853Y52873D01*
X275202Y52352D01*
X275723Y52004D01*
X276337Y51882D01*
X281849D01*
X282463Y52004D01*
X282984Y52352D01*
X283332Y52873D01*
X283358Y53004D01*
X283858Y52955D01*
Y49020D01*
X283358Y48971D01*
X283332Y49102D01*
X282984Y49623D01*
X282463Y49971D01*
X281849Y50093D01*
X276337D01*
X275723Y49971D01*
X275202Y49623D01*
X275112Y49489D01*
X122619D01*
X39335Y132773D01*
X39573Y133242D01*
X40421Y133470D01*
X41260Y133954D01*
X41945Y134640D01*
X42430Y135479D01*
X42653Y136310D01*
X39000D01*
Y136900D01*
X38409D01*
Y140553D01*
X37579Y140330D01*
X36740Y139846D01*
X36054Y139160D01*
X35570Y138321D01*
X35342Y137473D01*
X34873Y137235D01*
X33874Y138234D01*
Y142829D01*
X33813Y143136D01*
X33639Y143397D01*
X33639Y143397D01*
X31678Y145357D01*
X31880Y145707D01*
X32090Y146493D01*
Y147307D01*
X31880Y148093D01*
X31473Y148798D01*
X30898Y149373D01*
X30193Y149780D01*
X29407Y149991D01*
X28593D01*
X27807Y149780D01*
X27457Y149578D01*
X25286Y151749D01*
X25026Y151923D01*
X24719Y151984D01*
X17655D01*
X-10421Y180060D01*
X-10681Y180234D01*
X-10988Y180295D01*
X-42096D01*
X-42480Y180575D01*
Y182051D01*
X-48976D01*
X-55472D01*
Y180575D01*
X-54882D01*
Y178410D01*
X-55472D01*
Y176933D01*
X-48976D01*
X-42480D01*
Y178410D01*
X-42096Y178689D01*
X-11321D01*
X16755Y150613D01*
X16939Y150491D01*
X16916Y150159D01*
X16856Y149991D01*
X15909D01*
Y143809D01*
X22091D01*
Y149878D01*
X22091Y149991D01*
X22362Y150378D01*
X24386D01*
X26322Y148443D01*
X26120Y148093D01*
X25909Y147307D01*
Y146493D01*
X26120Y145707D01*
X26527Y145002D01*
X27102Y144427D01*
X27807Y144020D01*
X28593Y143809D01*
X29407D01*
X30193Y144020D01*
X30543Y144222D01*
X32268Y142497D01*
Y138421D01*
X31768Y138287D01*
X31473Y138798D01*
X30898Y139373D01*
X30193Y139780D01*
X29407Y139991D01*
X28593D01*
X27807Y139780D01*
X27457Y139578D01*
X24342Y142694D01*
X24081Y142868D01*
X23774Y142929D01*
X15293D01*
X-15539Y173760D01*
X-15799Y173934D01*
X-16106Y173996D01*
X-42096D01*
X-42480Y174276D01*
Y175752D01*
X-48976D01*
X-55472D01*
Y174276D01*
X-54882D01*
Y172110D01*
X-55472D01*
Y170634D01*
X-48976D01*
X-42480D01*
Y172110D01*
X-42096Y172390D01*
X-16439D01*
X14393Y141558D01*
X14393Y141558D01*
X14653Y141384D01*
X14961Y141323D01*
X14961Y141323D01*
X23441D01*
X26322Y138443D01*
X26120Y138093D01*
X25909Y137307D01*
Y136493D01*
X26120Y135707D01*
X26527Y135002D01*
X27102Y134427D01*
X27807Y134020D01*
X28593Y133809D01*
X29407D01*
X30193Y134020D01*
X30898Y134427D01*
X31473Y135002D01*
X31880Y135707D01*
X32090Y136493D01*
Y137054D01*
X32251Y137163D01*
X32590Y137247D01*
X39347Y130491D01*
X39139Y129991D01*
X38593D01*
X37807Y129780D01*
X37102Y129373D01*
X36527Y128798D01*
X36120Y128093D01*
X35909Y127307D01*
Y126493D01*
X36120Y125707D01*
X36527Y125002D01*
X37102Y124427D01*
X37807Y124020D01*
X38593Y123810D01*
X39407D01*
X40193Y124020D01*
X40898Y124427D01*
X41473Y125002D01*
X41880Y125707D01*
X42090Y126493D01*
Y127040D01*
X42590Y127247D01*
X121719Y48118D01*
X121979Y47944D01*
X122287Y47883D01*
X122287Y47883D01*
X274851D01*
X274853Y47873D01*
X275202Y47352D01*
X275723Y47004D01*
X276337Y46882D01*
X281849D01*
X282463Y47004D01*
X282984Y47352D01*
X283332Y47873D01*
X283358Y48004D01*
X283858Y47955D01*
Y45209D01*
X283358Y45083D01*
X282694Y45527D01*
X281849Y45695D01*
X279683D01*
Y43487D01*
Y41280D01*
X280760D01*
X280951Y40818D01*
X280226Y40093D01*
X276337D01*
X275723Y39971D01*
X275202Y39623D01*
X274853Y39102D01*
X274731Y38487D01*
X274853Y37873D01*
X275202Y37352D01*
X275723Y37004D01*
X276337Y36882D01*
X281849D01*
X282463Y37004D01*
X282984Y37352D01*
X283332Y37873D01*
X283358Y38004D01*
X283858Y37955D01*
Y2007D01*
X11811Y2007D01*
X11168D01*
X9894Y2175D01*
X8653Y2507D01*
X7465Y2999D01*
X6352Y3642D01*
X5333Y4424D01*
X4424Y5333D01*
X3642Y6353D01*
X2999Y7465D01*
X2507Y8653D01*
X2175Y9894D01*
X2007Y11168D01*
X2007Y11811D01*
X2007Y99508D01*
X1854Y100276D01*
X1419Y100927D01*
X768Y101362D01*
X-0Y101515D01*
X-23910D01*
X-23959Y101505D01*
X-24008Y101513D01*
X-24394Y101494D01*
X-24538Y101457D01*
X-24687D01*
X-25444Y101307D01*
X-25627Y101231D01*
X-25820Y101193D01*
X-26533Y100897D01*
X-26698Y100787D01*
X-26880Y100712D01*
X-27522Y100283D01*
X-27662Y100143D01*
X-27826Y100033D01*
X-28372Y99488D01*
X-28482Y99323D01*
X-28622Y99183D01*
X-29050Y98542D01*
X-29126Y98359D01*
X-29236Y98195D01*
X-29531Y97482D01*
X-29570Y97288D01*
X-29645Y97105D01*
X-29796Y96348D01*
Y96200D01*
X-29832Y96055D01*
X-29851Y95669D01*
X-29844Y95620D01*
X-29853Y95571D01*
Y93641D01*
X-32847D01*
Y105413D01*
X-32857Y105463D01*
X-32849Y105513D01*
X-32868Y105899D01*
X-32904Y106042D01*
X-32904Y106191D01*
X-33055Y106948D01*
X-33131Y107130D01*
X-33169Y107324D01*
X-33464Y108037D01*
X-33574Y108201D01*
X-33650Y108384D01*
X-34079Y109026D01*
X-34218Y109166D01*
X-34328Y109330D01*
X-34874Y109876D01*
X-35038Y109986D01*
X-35178Y110125D01*
X-35820Y110554D01*
X-36002Y110630D01*
X-36167Y110740D01*
X-36880Y111035D01*
X-36768Y111516D01*
X-33563D01*
Y112780D01*
X-30610D01*
Y111516D01*
X-26083D01*
Y115543D01*
X-26083Y115650D01*
X-25826Y116043D01*
X-25492D01*
Y118110D01*
X-31201D01*
Y116043D01*
X-30867D01*
X-30610Y115650D01*
X-30610Y115543D01*
Y114386D01*
X-33563D01*
Y115650D01*
X-38091D01*
Y114153D01*
X-42096D01*
X-42480Y114433D01*
Y115910D01*
X-48976D01*
X-55472D01*
Y114433D01*
X-54882D01*
Y111874D01*
X-43071D01*
Y112548D01*
X-38091D01*
Y111800D01*
X-38091Y111796D01*
X-38134Y111705D01*
X-38521Y111347D01*
X-38692Y111355D01*
X-38742Y111348D01*
X-38791Y111357D01*
X-56469D01*
Y183820D01*
X-55472D01*
Y183232D01*
X-48976D01*
X-42480D01*
Y183820D01*
X-38004D01*
X-37939Y183833D01*
X-37873Y183824D01*
X-37256Y183864D01*
X-37065Y183916D01*
X-36868Y183929D01*
X-35677Y184248D01*
X-35441Y184364D01*
X-35192Y184448D01*
X-34124Y185065D01*
X-33927Y185238D01*
X-33709Y185384D01*
X-32837Y186256D01*
X-32691Y186474D01*
X-32518Y186672D01*
X-31901Y187740D01*
X-31817Y187988D01*
X-31701Y188224D01*
X-31381Y189415D01*
X-31364Y189677D01*
X-31313Y189935D01*
Y191168D01*
X-31364Y191425D01*
X-31381Y191687D01*
X-31701Y192879D01*
X-31817Y193114D01*
X-31901Y193363D01*
X-32518Y194431D01*
X-32691Y194628D01*
X-32837Y194846D01*
X-33709Y195719D01*
X-33927Y195864D01*
X-34124Y196037D01*
X-35192Y196654D01*
X-35441Y196739D01*
X-35677Y196855D01*
X-36544Y197087D01*
X-36478Y197587D01*
X2065D01*
X16361Y183291D01*
D02*
G37*
G36*
X549840Y155512D02*
X305118Y155512D01*
X305118Y255906D01*
X549840D01*
X549840Y155512D01*
D02*
G37*
G36*
X283858Y174531D02*
Y120093D01*
X292135D01*
Y115971D01*
X291972Y115903D01*
X291635Y115809D01*
X290917Y116223D01*
X290216Y116411D01*
Y113104D01*
Y109798D01*
X290917Y109986D01*
X291635Y110400D01*
X291972Y110306D01*
X292135Y110238D01*
Y106314D01*
X283858D01*
Y75209D01*
X283358Y75083D01*
X282694Y75527D01*
X281849Y75695D01*
X279683D01*
Y73487D01*
Y71280D01*
X281849D01*
X282694Y71448D01*
X283358Y71892D01*
X283858Y71766D01*
Y69020D01*
X283358Y68971D01*
X283332Y69102D01*
X282984Y69623D01*
X282463Y69971D01*
X281849Y70093D01*
X276337D01*
X275723Y69971D01*
X275718Y69968D01*
X271461D01*
Y72538D01*
X266559D01*
X265839Y73257D01*
X266031Y73719D01*
X267426D01*
Y77361D01*
Y81002D01*
X264969D01*
Y162140D01*
X276718Y173890D01*
X281849D01*
X282463Y174012D01*
X282984Y174360D01*
X283007Y174394D01*
X283191Y174517D01*
X283396Y174722D01*
X283858Y174531D01*
D02*
G37*
G36*
X549840Y17717D02*
X531865D01*
X531547Y18103D01*
X531717Y18958D01*
Y20881D01*
X531342Y22768D01*
X530606Y24545D01*
X529538Y26144D01*
X528178Y27504D01*
X526578Y28572D01*
X524801Y29308D01*
X522915Y29684D01*
X520992D01*
X519106Y29308D01*
X517329Y28572D01*
X515730Y27504D01*
X514369Y26144D01*
X513301Y24545D01*
X512565Y22768D01*
X512190Y20881D01*
Y18958D01*
X512360Y18103D01*
X512043Y17717D01*
X305118D01*
Y118110D01*
X512190D01*
Y117344D01*
X512565Y115457D01*
X513301Y113681D01*
X514369Y112082D01*
X515730Y110722D01*
X517329Y109653D01*
X519106Y108917D01*
X520992Y108542D01*
X522915D01*
X524801Y108917D01*
X526578Y109653D01*
X528178Y110722D01*
X529538Y112082D01*
X530606Y113681D01*
X531342Y115457D01*
X531717Y117344D01*
Y118110D01*
X549840D01*
Y17717D01*
D02*
G37*
%LPC*%
G36*
X289035Y380108D02*
X288334Y379921D01*
X287571Y379480D01*
X286948Y378857D01*
X286507Y378094D01*
X286319Y377393D01*
X289035D01*
Y380108D01*
D02*
G37*
G36*
X282382Y379558D02*
X276870D01*
Y378207D01*
X51145D01*
X50607Y378100D01*
X50151Y377796D01*
X40345Y367990D01*
X40041Y367534D01*
X39934Y366996D01*
Y328520D01*
X30556Y319143D01*
X30007Y319290D01*
X29193D01*
X28407Y319080D01*
X27702Y318673D01*
X27127Y318098D01*
X26842Y317605D01*
X22358D01*
X22073Y318098D01*
X21498Y318673D01*
X20793Y319080D01*
X20007Y319290D01*
X19193D01*
X18407Y319080D01*
X17702Y318673D01*
X17127Y318098D01*
X16720Y317393D01*
X16510Y316607D01*
Y315793D01*
X16657Y315244D01*
X12786Y311373D01*
X12482Y310917D01*
X12375Y310379D01*
Y281449D01*
X7085Y276160D01*
X7014Y276146D01*
X6558Y275841D01*
X2892Y272175D01*
X-4491D01*
Y259025D01*
X2910D01*
Y268219D01*
X8226Y273535D01*
X8298Y273550D01*
X8754Y273854D01*
X14773Y279874D01*
X15078Y280329D01*
X15184Y280867D01*
Y309798D01*
X18644Y313257D01*
X19193Y313109D01*
X20007D01*
X20793Y313320D01*
X21498Y313727D01*
X22073Y314302D01*
X22358Y314795D01*
X26842D01*
X27127Y314302D01*
X27702Y313727D01*
X28407Y313320D01*
X29193Y313109D01*
X30007D01*
X30793Y313320D01*
X31498Y313727D01*
X32073Y314302D01*
X32480Y315007D01*
X32691Y315793D01*
Y316607D01*
X32543Y317156D01*
X42332Y326945D01*
X42637Y327401D01*
X42744Y327939D01*
Y366414D01*
X51727Y375397D01*
X276870D01*
Y374046D01*
X282382D01*
Y379558D01*
D02*
G37*
G36*
X289035Y376212D02*
X286319D01*
X286507Y375511D01*
X286948Y374747D01*
X287571Y374124D01*
X288334Y373684D01*
X289035Y373496D01*
Y376212D01*
D02*
G37*
G36*
X278502Y339393D02*
X276337D01*
X275492Y339225D01*
X274776Y338746D01*
X274297Y338030D01*
X274247Y337776D01*
X278502D01*
Y339393D01*
D02*
G37*
G36*
X30007Y339290D02*
X29193D01*
X28407Y339080D01*
X27702Y338673D01*
X27127Y338098D01*
X26842Y337605D01*
X22691D01*
Y339290D01*
X16510D01*
Y335096D01*
X6881Y325467D01*
X6576Y325012D01*
X6469Y324474D01*
Y290783D01*
X3772Y288087D01*
X3310Y288278D01*
Y289575D01*
X-4091D01*
Y276425D01*
X3310D01*
Y283651D01*
X8867Y289208D01*
X9172Y289664D01*
X9279Y290201D01*
Y323892D01*
X18496Y333109D01*
X22691D01*
Y334795D01*
X26842D01*
X27127Y334302D01*
X27702Y333727D01*
X28407Y333320D01*
X29193Y333109D01*
X30007D01*
X30793Y333320D01*
X31498Y333727D01*
X32073Y334302D01*
X32480Y335007D01*
X32691Y335793D01*
Y336607D01*
X32480Y337393D01*
X32073Y338098D01*
X31498Y338673D01*
X30793Y339080D01*
X30007Y339290D01*
D02*
G37*
G36*
X272336Y339469D02*
X268891D01*
Y336417D01*
X272336D01*
Y339469D01*
D02*
G37*
G36*
X267710D02*
X264265D01*
Y336417D01*
X267710D01*
Y339469D01*
D02*
G37*
G36*
X278502Y336595D02*
X274247D01*
X274297Y336340D01*
X274776Y335624D01*
X275492Y335145D01*
X276337Y334977D01*
X278502D01*
Y336595D01*
D02*
G37*
G36*
X272336Y335236D02*
X268891D01*
Y332185D01*
X272336D01*
Y335236D01*
D02*
G37*
G36*
X267710D02*
X264265D01*
Y332185D01*
X267710D01*
Y335236D01*
D02*
G37*
G36*
X30191Y329853D02*
Y326790D01*
X33253D01*
X33030Y327621D01*
X32546Y328460D01*
X31860Y329146D01*
X31021Y329630D01*
X30191Y329853D01*
D02*
G37*
G36*
X20191D02*
Y326790D01*
X23253D01*
X23030Y327621D01*
X22546Y328460D01*
X21860Y329146D01*
X21021Y329630D01*
X20191Y329853D01*
D02*
G37*
G36*
X29010D02*
X28179Y329630D01*
X27340Y329146D01*
X26654Y328460D01*
X26170Y327621D01*
X25947Y326790D01*
X29010D01*
Y329853D01*
D02*
G37*
G36*
X19010D02*
X18179Y329630D01*
X17340Y329146D01*
X16654Y328460D01*
X16170Y327621D01*
X15947Y326790D01*
X19010D01*
Y329853D01*
D02*
G37*
G36*
X33253Y325609D02*
X30191D01*
Y322547D01*
X31021Y322770D01*
X31860Y323254D01*
X32546Y323940D01*
X33030Y324779D01*
X33253Y325609D01*
D02*
G37*
G36*
X23253D02*
X20191D01*
Y322547D01*
X21021Y322770D01*
X21860Y323254D01*
X22546Y323940D01*
X23030Y324779D01*
X23253Y325609D01*
D02*
G37*
G36*
X29010D02*
X25947D01*
X26170Y324779D01*
X26654Y323940D01*
X27340Y323254D01*
X28179Y322770D01*
X29010Y322547D01*
Y325609D01*
D02*
G37*
G36*
X19010D02*
X15947D01*
X16170Y324779D01*
X16654Y323940D01*
X17340Y323254D01*
X18179Y322770D01*
X19010Y322547D01*
Y325609D01*
D02*
G37*
G36*
X30191Y309853D02*
Y306790D01*
X33253D01*
X33030Y307621D01*
X32546Y308460D01*
X31860Y309146D01*
X31021Y309630D01*
X30191Y309853D01*
D02*
G37*
G36*
X20191D02*
Y306790D01*
X23253D01*
X23030Y307621D01*
X22546Y308460D01*
X21860Y309146D01*
X21021Y309630D01*
X20191Y309853D01*
D02*
G37*
G36*
X29010D02*
X28179Y309630D01*
X27340Y309146D01*
X26654Y308460D01*
X26170Y307621D01*
X25947Y306790D01*
X29010D01*
Y309853D01*
D02*
G37*
G36*
X19010D02*
X18179Y309630D01*
X17340Y309146D01*
X16654Y308460D01*
X16170Y307621D01*
X15947Y306790D01*
X19010D01*
Y309853D01*
D02*
G37*
G36*
X33253Y305609D02*
X30191D01*
Y302547D01*
X31021Y302770D01*
X31860Y303254D01*
X32546Y303940D01*
X33030Y304779D01*
X33253Y305609D01*
D02*
G37*
G36*
X23253D02*
X20191D01*
Y302547D01*
X21021Y302770D01*
X21860Y303254D01*
X22546Y303940D01*
X23030Y304779D01*
X23253Y305609D01*
D02*
G37*
G36*
X29010D02*
X25947D01*
X26170Y304779D01*
X26654Y303940D01*
X27340Y303254D01*
X28179Y302770D01*
X29010Y302547D01*
Y305609D01*
D02*
G37*
G36*
X19010D02*
X15947D01*
X16170Y304779D01*
X16654Y303940D01*
X17340Y303254D01*
X18179Y302770D01*
X19010Y302547D01*
Y305609D01*
D02*
G37*
G36*
X30191Y289853D02*
Y286790D01*
X33253D01*
X33030Y287621D01*
X32546Y288460D01*
X31860Y289146D01*
X31021Y289630D01*
X30191Y289853D01*
D02*
G37*
G36*
X29010D02*
X28179Y289630D01*
X27340Y289146D01*
X26654Y288460D01*
X26170Y287621D01*
X25947Y286790D01*
X29010D01*
Y289853D01*
D02*
G37*
G36*
X19010D02*
X18179Y289630D01*
X17340Y289146D01*
X16654Y288460D01*
X16170Y287621D01*
X15947Y286790D01*
X19010D01*
Y289853D01*
D02*
G37*
G36*
X33253Y285609D02*
X30191D01*
Y282547D01*
X31021Y282770D01*
X31860Y283254D01*
X32546Y283940D01*
X33030Y284779D01*
X33253Y285609D01*
D02*
G37*
G36*
X29010D02*
X25947D01*
X26170Y284779D01*
X26654Y283940D01*
X27340Y283254D01*
X28179Y282770D01*
X29010Y282547D01*
Y285609D01*
D02*
G37*
G36*
X19010D02*
X15947D01*
X16170Y284779D01*
X16654Y283940D01*
X17340Y283254D01*
X18179Y282770D01*
X19010Y282547D01*
Y285609D01*
D02*
G37*
G36*
X-42480Y279689D02*
X-48976D01*
X-55472D01*
Y278213D01*
Y277721D01*
X-48976D01*
X-42480D01*
Y278213D01*
Y279689D01*
D02*
G37*
G36*
X-15509Y289575D02*
X-22910D01*
Y278412D01*
X-25937Y275385D01*
X-42480D01*
Y276539D01*
X-48976D01*
X-55472D01*
Y275063D01*
X-54882D01*
Y272898D01*
X-55472D01*
Y271421D01*
X-48976D01*
X-42480D01*
Y272575D01*
X-25355D01*
X-24818Y272682D01*
X-24362Y272987D01*
X-20923Y276425D01*
X-15509D01*
Y289575D01*
D02*
G37*
G36*
X-15909Y272175D02*
X-23310D01*
Y269086D01*
X-42480D01*
Y270240D01*
X-48976D01*
X-55472D01*
Y268764D01*
X-54882D01*
Y266598D01*
X-55472D01*
Y265122D01*
X-48976D01*
X-42480D01*
Y266276D01*
X-23310D01*
Y259025D01*
X-15909D01*
Y272175D01*
D02*
G37*
G36*
X39391Y262653D02*
Y259591D01*
X42453D01*
X42230Y260421D01*
X41745Y261260D01*
X41060Y261946D01*
X40221Y262430D01*
X39391Y262653D01*
D02*
G37*
G36*
X38209D02*
X37379Y262430D01*
X36540Y261946D01*
X35854Y261260D01*
X35370Y260421D01*
X35147Y259591D01*
X38209D01*
Y262653D01*
D02*
G37*
G36*
X42453Y258410D02*
X39391D01*
Y255347D01*
X40221Y255570D01*
X41060Y256054D01*
X41745Y256740D01*
X42230Y257579D01*
X42453Y258410D01*
D02*
G37*
G36*
X38209D02*
X35147D01*
X35370Y257579D01*
X35854Y256740D01*
X36540Y256054D01*
X37379Y255570D01*
X38209Y255347D01*
Y258410D01*
D02*
G37*
G36*
X39391Y252653D02*
Y249591D01*
X42453D01*
X42230Y250421D01*
X41745Y251260D01*
X41060Y251946D01*
X40221Y252430D01*
X39391Y252653D01*
D02*
G37*
G36*
X38209D02*
X37379Y252430D01*
X36540Y251946D01*
X35854Y251260D01*
X35370Y250421D01*
X35147Y249591D01*
X38209D01*
Y252653D01*
D02*
G37*
G36*
X29207Y262091D02*
X28393D01*
X27607Y261880D01*
X26902Y261473D01*
X26327Y260898D01*
X25920Y260193D01*
X25709Y259407D01*
Y258593D01*
X25920Y257807D01*
X26122Y257457D01*
X24236Y255571D01*
X24061Y255311D01*
X24000Y255003D01*
Y249151D01*
X21712Y246864D01*
X21312Y247171D01*
X21680Y247807D01*
X21891Y248593D01*
Y249407D01*
X21680Y250193D01*
X21273Y250898D01*
X20698Y251473D01*
X19993Y251880D01*
X19207Y252091D01*
X18393D01*
X17607Y251880D01*
X16902Y251473D01*
X16327Y250898D01*
X15920Y250193D01*
X15709Y249407D01*
Y248593D01*
X15920Y247807D01*
X16327Y247102D01*
X16902Y246527D01*
X17495Y246185D01*
X17375Y245685D01*
X14567D01*
X14567Y245685D01*
X14260Y245624D01*
X13999Y245450D01*
X8229Y239679D01*
X8124Y239700D01*
X7959Y240243D01*
X14368Y246651D01*
X14368Y246651D01*
X14542Y246912D01*
X14603Y247219D01*
X14603Y247219D01*
Y253667D01*
X16845Y255909D01*
X21891D01*
Y262091D01*
X15709D01*
Y257045D01*
X13232Y254568D01*
X13058Y254307D01*
X12997Y254000D01*
Y247551D01*
X6406Y240960D01*
X-26045D01*
X-40735Y255650D01*
X-40996Y255824D01*
X-41303Y255885D01*
X-42096D01*
X-42480Y256165D01*
Y257642D01*
X-48976D01*
X-55472D01*
Y256165D01*
X-54882D01*
Y254000D01*
X-55472D01*
Y252524D01*
X-48976D01*
X-42480D01*
Y254000D01*
X-42096Y254280D01*
X-41636D01*
X-27241Y239885D01*
X-27448Y239386D01*
X-28873D01*
X-38838Y249351D01*
X-39099Y249525D01*
X-39406Y249586D01*
X-42096D01*
X-42480Y249866D01*
Y251343D01*
X-48976D01*
X-55472D01*
Y249866D01*
X-54882D01*
Y247701D01*
X-55472D01*
Y246224D01*
X-48976D01*
X-42480D01*
Y247701D01*
X-42096Y247981D01*
X-39739D01*
X-29773Y238015D01*
X-29773Y238015D01*
X-29626Y237917D01*
X-29749Y237417D01*
X-33526D01*
X-39161Y243052D01*
X-39421Y243226D01*
X-39728Y243287D01*
X-42096D01*
X-42480Y243567D01*
Y245043D01*
X-48976D01*
X-55472D01*
Y243567D01*
X-54882D01*
Y241402D01*
X-55472D01*
Y239925D01*
X-48976D01*
X-42480D01*
Y241402D01*
X-42096Y241681D01*
X-40061D01*
X-34426Y236047D01*
X-34426Y236047D01*
X-34165Y235872D01*
X-33858Y235811D01*
X10236D01*
X10543Y235872D01*
X10804Y236047D01*
X15879Y241121D01*
X16279Y240814D01*
X15920Y240193D01*
X15709Y239407D01*
Y238593D01*
X15920Y237807D01*
X16327Y237102D01*
X16902Y236527D01*
X17607Y236120D01*
X18393Y235910D01*
X19207D01*
X19993Y236120D01*
X20698Y236527D01*
X21273Y237102D01*
X21680Y237807D01*
X21891Y238593D01*
Y239407D01*
X21680Y240193D01*
X21273Y240898D01*
X20698Y241473D01*
X20459Y241611D01*
X20593Y242111D01*
X22713D01*
X23020Y242172D01*
X23281Y242346D01*
X27257Y246322D01*
X27607Y246120D01*
X28393Y245910D01*
X29207D01*
X29993Y246120D01*
X30698Y246527D01*
X31273Y247102D01*
X31680Y247807D01*
X31890Y248593D01*
Y249407D01*
X31680Y250193D01*
X31273Y250898D01*
X30698Y251473D01*
X29993Y251880D01*
X29207Y252091D01*
X28393D01*
X27607Y251880D01*
X26902Y251473D01*
X26327Y250898D01*
X26106Y250515D01*
X25606Y250649D01*
Y254671D01*
X27257Y256322D01*
X27607Y256120D01*
X28393Y255909D01*
X29207D01*
X29993Y256120D01*
X30698Y256527D01*
X31273Y257102D01*
X31680Y257807D01*
X31890Y258593D01*
Y259407D01*
X31680Y260193D01*
X31273Y260898D01*
X30698Y261473D01*
X29993Y261880D01*
X29207Y262091D01*
D02*
G37*
G36*
X42453Y248410D02*
X39391D01*
Y245347D01*
X40221Y245570D01*
X41060Y246054D01*
X41745Y246740D01*
X42230Y247579D01*
X42453Y248410D01*
D02*
G37*
G36*
X38209D02*
X35147D01*
X35370Y247579D01*
X35854Y246740D01*
X36540Y246054D01*
X37379Y245570D01*
X38209Y245347D01*
Y248410D01*
D02*
G37*
G36*
X-42480Y263941D02*
X-48976D01*
X-55472D01*
Y262464D01*
X-54882D01*
Y260299D01*
X-55472D01*
Y258823D01*
X-48976D01*
X-42480D01*
Y259977D01*
X-32773D01*
X-25166Y252370D01*
X-24711Y252065D01*
X-24173Y251959D01*
X-23010D01*
Y241925D01*
X-15609D01*
Y255075D01*
X-23010D01*
Y254768D01*
X-23591D01*
X-31198Y262375D01*
X-31654Y262680D01*
X-32191Y262787D01*
X-42480D01*
Y263941D01*
D02*
G37*
G36*
X39391Y242653D02*
Y239591D01*
X42453D01*
X42230Y240421D01*
X41745Y241260D01*
X41060Y241946D01*
X40221Y242430D01*
X39391Y242653D01*
D02*
G37*
G36*
X38209D02*
X37379Y242430D01*
X36540Y241946D01*
X35854Y241260D01*
X35370Y240421D01*
X35147Y239591D01*
X38209D01*
Y242653D01*
D02*
G37*
G36*
X42453Y238409D02*
X39391D01*
Y235347D01*
X40221Y235570D01*
X41060Y236054D01*
X41745Y236740D01*
X42230Y237579D01*
X42453Y238409D01*
D02*
G37*
G36*
X38209D02*
X35147D01*
X35370Y237579D01*
X35854Y236740D01*
X36540Y236054D01*
X37379Y235570D01*
X38209Y235347D01*
Y238409D01*
D02*
G37*
G36*
X29207Y242091D02*
X28393D01*
X27607Y241880D01*
X26902Y241473D01*
X26327Y240898D01*
X25920Y240193D01*
X25709Y239407D01*
Y238593D01*
X25920Y237807D01*
X26122Y237457D01*
X23719Y235055D01*
X-37069D01*
X-38767Y236753D01*
X-39027Y236927D01*
X-39335Y236988D01*
X-42096D01*
X-42480Y237268D01*
Y238744D01*
X-48976D01*
X-55472D01*
Y237268D01*
X-54882D01*
Y235102D01*
X-55472D01*
Y233626D01*
X-48976D01*
X-42480D01*
Y235102D01*
X-42096Y235382D01*
X-39667D01*
X-37969Y233684D01*
X-37969Y233684D01*
X-37709Y233510D01*
X-37402Y233449D01*
X-37402Y233449D01*
X14697D01*
X14767Y233354D01*
X14885Y232949D01*
X12624Y230689D01*
X-42096D01*
X-42480Y230968D01*
Y232445D01*
X-48976D01*
X-55472D01*
Y230968D01*
X-54882D01*
Y228803D01*
X-55472D01*
Y227327D01*
X-48976D01*
X-42480D01*
Y228803D01*
X-42096Y229083D01*
X12957D01*
X13264Y229144D01*
X13524Y229318D01*
X15888Y231681D01*
X16404D01*
X16611Y231181D01*
X16327Y230898D01*
X15920Y230193D01*
X15709Y229407D01*
Y228593D01*
X15920Y227807D01*
X16327Y227102D01*
X16902Y226527D01*
X17607Y226120D01*
X18393Y225909D01*
X19207D01*
X19993Y226120D01*
X20698Y226527D01*
X21273Y227102D01*
X21680Y227807D01*
X21891Y228593D01*
Y229407D01*
X21680Y230193D01*
X21273Y230898D01*
X20989Y231181D01*
X21196Y231681D01*
X24983D01*
X26122Y230543D01*
X25920Y230193D01*
X25709Y229407D01*
Y228593D01*
X25920Y227807D01*
X26327Y227102D01*
X26902Y226527D01*
X27607Y226120D01*
X28393Y225909D01*
X29207D01*
X29993Y226120D01*
X30698Y226527D01*
X31273Y227102D01*
X31680Y227807D01*
X31890Y228593D01*
Y229407D01*
X31680Y230193D01*
X31273Y230898D01*
X30698Y231473D01*
X29993Y231880D01*
X29207Y232091D01*
X28393D01*
X27607Y231880D01*
X27257Y231678D01*
X25883Y233052D01*
X25623Y233226D01*
X25316Y233287D01*
X24910D01*
X24840Y233383D01*
X24722Y233787D01*
X27257Y236322D01*
X27607Y236120D01*
X28393Y235910D01*
X29207D01*
X29993Y236120D01*
X30698Y236527D01*
X31273Y237102D01*
X31680Y237807D01*
X31890Y238593D01*
Y239407D01*
X31680Y240193D01*
X31273Y240898D01*
X30698Y241473D01*
X29993Y241880D01*
X29207Y242091D01*
D02*
G37*
G36*
X39391Y232653D02*
Y229591D01*
X42453D01*
X42230Y230421D01*
X41745Y231260D01*
X41060Y231946D01*
X40221Y232430D01*
X39391Y232653D01*
D02*
G37*
G36*
X38209D02*
X37379Y232430D01*
X36540Y231946D01*
X35854Y231260D01*
X35370Y230421D01*
X35147Y229591D01*
X38209D01*
Y232653D01*
D02*
G37*
G36*
X42453Y228410D02*
X39391D01*
Y225347D01*
X40221Y225570D01*
X41060Y226054D01*
X41745Y226740D01*
X42230Y227579D01*
X42453Y228410D01*
D02*
G37*
G36*
X38209D02*
X35147D01*
X35370Y227579D01*
X35854Y226740D01*
X36540Y226054D01*
X37379Y225570D01*
X38209Y225347D01*
Y228410D01*
D02*
G37*
G36*
Y222653D02*
X37379Y222430D01*
X36540Y221946D01*
X35854Y221260D01*
X35370Y220421D01*
X35147Y219591D01*
X38209D01*
Y222653D01*
D02*
G37*
G36*
X-42480Y226146D02*
X-48976D01*
X-55472D01*
Y224669D01*
X-54882D01*
Y222504D01*
X-55472D01*
Y221028D01*
X-48976D01*
X-42480D01*
Y222504D01*
X-42096Y222784D01*
X23881D01*
X26122Y220543D01*
X25920Y220193D01*
X25709Y219407D01*
Y218593D01*
X25920Y217807D01*
X26327Y217102D01*
X26902Y216527D01*
X27607Y216120D01*
X28393Y215910D01*
X29207D01*
X29993Y216120D01*
X30698Y216527D01*
X31273Y217102D01*
X31680Y217807D01*
X31890Y218593D01*
Y219407D01*
X31680Y220193D01*
X31273Y220898D01*
X30698Y221473D01*
X29993Y221880D01*
X29207Y222091D01*
X28393D01*
X27607Y221880D01*
X27257Y221678D01*
X24781Y224154D01*
X24521Y224328D01*
X24213Y224389D01*
X-42096D01*
X-42480Y224669D01*
Y226146D01*
D02*
G37*
G36*
X19207Y222091D02*
X18393D01*
X17607Y221880D01*
X16902Y221473D01*
X16327Y220898D01*
X15920Y220193D01*
X15709Y219407D01*
Y218593D01*
X15920Y217807D01*
X16327Y217102D01*
X16902Y216527D01*
X17607Y216120D01*
X18393Y215910D01*
X19207D01*
X19993Y216120D01*
X20698Y216527D01*
X21273Y217102D01*
X21680Y217807D01*
X21891Y218593D01*
Y219407D01*
X21680Y220193D01*
X21273Y220898D01*
X20698Y221473D01*
X19993Y221880D01*
X19207Y222091D01*
D02*
G37*
G36*
Y212091D02*
X18393D01*
X17607Y211880D01*
X16902Y211473D01*
X16327Y210898D01*
X15920Y210193D01*
X15709Y209407D01*
Y208593D01*
X15920Y207807D01*
X16327Y207102D01*
X16902Y206527D01*
X17607Y206120D01*
X18393Y205909D01*
X19207D01*
X19993Y206120D01*
X20698Y206527D01*
X21273Y207102D01*
X21680Y207807D01*
X21891Y208593D01*
Y209407D01*
X21680Y210193D01*
X21273Y210898D01*
X20698Y211473D01*
X19993Y211880D01*
X19207Y212091D01*
D02*
G37*
G36*
Y202091D02*
X18393D01*
X17607Y201880D01*
X16902Y201473D01*
X16327Y200898D01*
X15920Y200193D01*
X15709Y199407D01*
Y198593D01*
X15920Y197807D01*
X16327Y197102D01*
X16902Y196527D01*
X17607Y196120D01*
X18393Y195910D01*
X19207D01*
X19993Y196120D01*
X20698Y196527D01*
X21273Y197102D01*
X21680Y197807D01*
X21891Y198593D01*
Y199407D01*
X21680Y200193D01*
X21273Y200898D01*
X20698Y201473D01*
X19993Y201880D01*
X19207Y202091D01*
D02*
G37*
G36*
X38209Y192653D02*
X37379Y192430D01*
X36540Y191946D01*
X35854Y191260D01*
X35370Y190421D01*
X35147Y189591D01*
X38209D01*
Y192653D01*
D02*
G37*
G36*
X19207Y192091D02*
X18393D01*
X17607Y191880D01*
X16902Y191473D01*
X16327Y190898D01*
X15920Y190193D01*
X15709Y189407D01*
Y188593D01*
X15920Y187807D01*
X16327Y187102D01*
X16902Y186527D01*
X17607Y186120D01*
X18393Y185909D01*
X19207D01*
X19993Y186120D01*
X20698Y186527D01*
X21273Y187102D01*
X21680Y187807D01*
X21891Y188593D01*
Y189407D01*
X21680Y190193D01*
X21273Y190898D01*
X20698Y191473D01*
X19993Y191880D01*
X19207Y192091D01*
D02*
G37*
G36*
X278502Y309393D02*
X276337D01*
X275492Y309225D01*
X274776Y308746D01*
X274297Y308030D01*
X274247Y307776D01*
X278502D01*
Y309393D01*
D02*
G37*
G36*
Y306594D02*
X274247D01*
X274297Y306340D01*
X274776Y305624D01*
X275492Y305145D01*
X276337Y304977D01*
X278502D01*
Y306594D01*
D02*
G37*
G36*
X310216Y380108D02*
Y377393D01*
X312932D01*
X312744Y378094D01*
X312303Y378857D01*
X311680Y379480D01*
X310917Y379921D01*
X310216Y380108D01*
D02*
G37*
G36*
X309035D02*
X308334Y379921D01*
X307571Y379480D01*
X306948Y378857D01*
X306507Y378094D01*
X306319Y377393D01*
X309035D01*
Y380108D01*
D02*
G37*
G36*
X339988Y379558D02*
X339263D01*
X338562Y379370D01*
X337933Y379007D01*
X337420Y378494D01*
X337057Y377866D01*
X336870Y377165D01*
Y376439D01*
X337057Y375738D01*
X337420Y375110D01*
X337884Y374646D01*
X337855Y374435D01*
X337714Y374146D01*
X333545D01*
X332105Y375585D01*
X332194Y375738D01*
X332382Y376439D01*
Y377165D01*
X332194Y377866D01*
X331831Y378494D01*
X331318Y379007D01*
X330689Y379370D01*
X329988Y379558D01*
X329263D01*
X328562Y379370D01*
X327933Y379007D01*
X327420Y378494D01*
X327058Y377866D01*
X326870Y377165D01*
Y376439D01*
X327058Y375738D01*
X327420Y375110D01*
X327933Y374597D01*
X328562Y374234D01*
X329263Y374046D01*
X329988D01*
X330633Y374219D01*
X332419Y372433D01*
X332745Y372216D01*
X333129Y372139D01*
X353248D01*
Y370177D01*
X360138D01*
Y372139D01*
X367749D01*
Y370091D01*
X369796D01*
Y360586D01*
X350471Y341261D01*
X350254Y340935D01*
X350178Y340551D01*
Y325355D01*
X350013Y325190D01*
X349803Y324683D01*
Y324135D01*
X350013Y323629D01*
X350401Y323241D01*
X350414Y323236D01*
X350482Y323076D01*
X350503Y322657D01*
X348425Y320579D01*
X347377D01*
X347142Y321020D01*
X347304Y321263D01*
X347370Y321595D01*
X341535D01*
X335701D01*
X335767Y321263D01*
X335929Y321020D01*
X335694Y320579D01*
X330058D01*
X327869Y322768D01*
X327609Y322942D01*
X327302Y323003D01*
X319810D01*
X319598Y323320D01*
X319077Y323669D01*
X318463Y323791D01*
X312951D01*
X312336Y323669D01*
X311816Y323320D01*
X311468Y322799D01*
X311345Y322185D01*
X311468Y321571D01*
X311816Y321050D01*
X312336Y320702D01*
X312951Y320579D01*
X318463D01*
X319077Y320702D01*
X319598Y321050D01*
X319830Y321397D01*
X326969D01*
X329157Y319209D01*
X329418Y319035D01*
X329725Y318974D01*
X336580D01*
X336732Y318474D01*
X336715Y318462D01*
X336408Y318003D01*
X319810D01*
X319598Y318320D01*
X319077Y318669D01*
X318463Y318791D01*
X312951D01*
X312336Y318669D01*
X311816Y318320D01*
X311468Y317799D01*
X311345Y317185D01*
X311468Y316571D01*
X311816Y316050D01*
X312336Y315702D01*
X312951Y315579D01*
X318463D01*
X319077Y315702D01*
X319598Y316050D01*
X319830Y316397D01*
X336388D01*
X336715Y315908D01*
X337301Y315516D01*
X337992Y315379D01*
X345079D01*
X345770Y315516D01*
X346356Y315908D01*
X346747Y316494D01*
X346885Y317185D01*
X346747Y317876D01*
X346356Y318462D01*
X346339Y318474D01*
X346491Y318974D01*
X348758D01*
X349065Y319035D01*
X349325Y319209D01*
X351514Y321397D01*
X355679D01*
X356006Y320908D01*
X356070Y320865D01*
X355918Y320365D01*
X352499D01*
X352499Y320365D01*
X352192Y320304D01*
X351931Y320130D01*
X351931Y320130D01*
X345674Y313873D01*
X345079Y313991D01*
X337992D01*
X337301Y313854D01*
X336715Y313462D01*
X336323Y312876D01*
X336186Y312185D01*
X336230Y311963D01*
X335769Y311716D01*
X334718Y312768D01*
X334457Y312942D01*
X334150Y313003D01*
X319810D01*
X319598Y313320D01*
X319077Y313668D01*
X318463Y313791D01*
X312951D01*
X312336Y313668D01*
X311816Y313320D01*
X311468Y312800D01*
X311345Y312185D01*
X311468Y311571D01*
X311816Y311050D01*
X312336Y310702D01*
X312951Y310579D01*
X318463D01*
X319077Y310702D01*
X319598Y311050D01*
X319830Y311397D01*
X333817D01*
X335882Y309332D01*
X335882Y309332D01*
X336143Y309158D01*
X336450Y309097D01*
X336765D01*
X336917Y308597D01*
X336715Y308462D01*
X336323Y307876D01*
X336186Y307185D01*
X336323Y306494D01*
X336715Y305908D01*
X337301Y305516D01*
X337992Y305379D01*
X345079D01*
X345770Y305516D01*
X346356Y305908D01*
X346683Y306397D01*
X354001D01*
X354308Y306458D01*
X354569Y306632D01*
X354993Y307057D01*
X355535Y306892D01*
X355615Y306494D01*
X356006Y305908D01*
X356592Y305516D01*
X357283Y305379D01*
X364370D01*
X365061Y305516D01*
X365647Y305908D01*
X365974Y306397D01*
X367436D01*
X367743Y306458D01*
X368004Y306632D01*
X376749Y315378D01*
X376935Y315382D01*
X377307Y315314D01*
X377605Y314868D01*
X378126Y314521D01*
X378740Y314398D01*
X385039D01*
X385432Y314476D01*
X387090Y312818D01*
X387350Y312644D01*
X387657Y312583D01*
X396267D01*
X396400Y312331D01*
X396465Y312083D01*
X396154Y311618D01*
X396032Y311004D01*
X396154Y310389D01*
X396502Y309869D01*
X396948Y309571D01*
X396929Y309251D01*
X396865Y309071D01*
X389703D01*
X387287Y311486D01*
X387027Y311660D01*
X386719Y311721D01*
X386454D01*
X386175Y312139D01*
X385654Y312487D01*
X385039Y312610D01*
X378740D01*
X378126Y312487D01*
X377605Y312139D01*
X377257Y311618D01*
X377134Y311004D01*
X377185Y310751D01*
X369437Y303003D01*
X365954D01*
X365647Y303462D01*
X365061Y303854D01*
X364370Y303991D01*
X357283D01*
X356592Y303854D01*
X356006Y303462D01*
X355615Y302876D01*
X355477Y302185D01*
X355615Y301494D01*
X356006Y300908D01*
X356592Y300516D01*
X357283Y300379D01*
X364370D01*
X365061Y300516D01*
X365647Y300908D01*
X365974Y301397D01*
X369769D01*
X370076Y301458D01*
X370337Y301632D01*
X378209Y309504D01*
X378740Y309398D01*
X385039D01*
X385654Y309521D01*
X386175Y309869D01*
X386719Y309783D01*
X388802Y307700D01*
X388802Y307700D01*
X389063Y307526D01*
X389370Y307465D01*
X389370Y307465D01*
X396158D01*
X396386Y306965D01*
X396154Y306618D01*
X396032Y306004D01*
X396154Y305389D01*
X396502Y304869D01*
X397023Y304521D01*
X397638Y304398D01*
X399784D01*
Y302609D01*
X397638D01*
X397023Y302487D01*
X396502Y302139D01*
X396154Y301618D01*
X396032Y301004D01*
X396154Y300389D01*
X396502Y299868D01*
X397023Y299520D01*
X397638Y299398D01*
X403937D01*
X404552Y299520D01*
X405072Y299868D01*
X405420Y300389D01*
X405543Y301004D01*
X405420Y301618D01*
X405072Y302139D01*
X404552Y302487D01*
X403937Y302609D01*
X401791D01*
Y304398D01*
X403937D01*
X404552Y304521D01*
X405072Y304869D01*
X405128Y304951D01*
X405698D01*
X405912Y304737D01*
X406419Y304528D01*
X406652D01*
X412889Y298290D01*
X413214Y298073D01*
X413598Y297996D01*
X471004D01*
X471082Y297708D01*
X471522Y296945D01*
X472145Y296322D01*
X472908Y295882D01*
X473759Y295654D01*
X474641D01*
X475492Y295882D01*
X476255Y296322D01*
X476878Y296945D01*
X477318Y297708D01*
X477396Y297996D01*
X492307D01*
X492691Y298073D01*
X493017Y298290D01*
X498447Y303721D01*
X517717D01*
X518101Y303797D01*
X518426Y304015D01*
X523537Y309126D01*
X523755Y309452D01*
X523831Y309836D01*
Y313777D01*
X524331Y313911D01*
X524567Y313503D01*
X525260Y312810D01*
X526108Y312320D01*
X527054Y312067D01*
X528034D01*
X528980Y312320D01*
X529829Y312810D01*
X530521Y313503D01*
X531011Y314351D01*
X531264Y315298D01*
Y316277D01*
X531011Y317224D01*
X530703Y317757D01*
X532851Y319905D01*
X533025Y320165D01*
X533086Y320472D01*
X533086Y320473D01*
Y329527D01*
X533086Y329528D01*
X533025Y329835D01*
X532851Y330095D01*
X532851Y330095D01*
X530489Y332457D01*
X530229Y332631D01*
X529921Y332693D01*
X524348D01*
X518801Y338240D01*
X519008Y338740D01*
X520674D01*
Y342461D01*
X512052D01*
Y338824D01*
X477547D01*
Y339441D01*
X477318Y340292D01*
X476878Y341055D01*
X476255Y341678D01*
X475492Y342118D01*
X474641Y342347D01*
X473759D01*
X472908Y342118D01*
X472145Y341678D01*
X471522Y341055D01*
X471082Y340292D01*
X470854Y339441D01*
Y338559D01*
X470935Y338255D01*
X470390Y337710D01*
X433628D01*
X433628Y337710D01*
X433320Y337649D01*
X433060Y337475D01*
X430728Y335143D01*
X427336D01*
Y332145D01*
X424895Y329703D01*
X407630D01*
X407423Y330203D01*
X407643Y330423D01*
X407852Y330929D01*
Y331478D01*
X407643Y331984D01*
X407255Y332372D01*
X406749Y332581D01*
X406200D01*
X405694Y332372D01*
X405589Y332266D01*
X405073Y332139D01*
X404914Y332245D01*
X404552Y332487D01*
X403937Y332610D01*
X401791D01*
Y334398D01*
X403937D01*
X404552Y334521D01*
X405072Y334869D01*
X405420Y335389D01*
X405543Y336004D01*
X405420Y336618D01*
X405072Y337139D01*
X404552Y337487D01*
X403937Y337610D01*
X397638D01*
X397023Y337487D01*
X396502Y337139D01*
X396154Y336618D01*
X396032Y336004D01*
X396154Y335389D01*
X396502Y334869D01*
X397023Y334521D01*
X397638Y334398D01*
X399784D01*
Y332610D01*
X397638D01*
X397023Y332487D01*
X396502Y332139D01*
X396154Y331618D01*
X396032Y331004D01*
X396154Y330389D01*
X396279Y330203D01*
X396012Y329703D01*
X393467D01*
X393160Y329642D01*
X392900Y329468D01*
X390238Y326807D01*
X386397D01*
X386175Y327139D01*
X385654Y327487D01*
X385039Y327609D01*
X378740D01*
X378126Y327487D01*
X377605Y327139D01*
X377584Y327108D01*
X377491Y327127D01*
X375930D01*
X375623Y327066D01*
X375363Y326892D01*
X375363Y326892D01*
X368836Y320365D01*
X365735D01*
X365583Y320865D01*
X365647Y320908D01*
X366039Y321494D01*
X366176Y322185D01*
X366039Y322876D01*
X365647Y323462D01*
X365061Y323854D01*
X364370Y323991D01*
X357283D01*
X356592Y323854D01*
X356006Y323462D01*
X355699Y323003D01*
X352430D01*
X352223Y323503D01*
X352349Y323629D01*
X352559Y324135D01*
Y324683D01*
X352349Y325190D01*
X352185Y325355D01*
Y340136D01*
X366880Y354831D01*
X367329Y354572D01*
X367188Y354048D01*
X370800D01*
X374412D01*
X374271Y354572D01*
X374720Y354831D01*
X386417Y343133D01*
Y342639D01*
X386627Y342133D01*
X387015Y341745D01*
X387521Y341535D01*
X388069D01*
X388576Y341745D01*
X388964Y342133D01*
X389173Y342639D01*
Y343187D01*
X388964Y343694D01*
X388576Y344082D01*
X388118Y344271D01*
X371803Y360586D01*
Y370091D01*
X373851D01*
Y376194D01*
X367749D01*
Y374146D01*
X360138D01*
Y376279D01*
X353248D01*
Y374146D01*
X341537D01*
X341396Y374435D01*
X341367Y374646D01*
X341831Y375110D01*
X342194Y375738D01*
X342382Y376439D01*
Y377165D01*
X342194Y377866D01*
X341831Y378494D01*
X341318Y379007D01*
X340689Y379370D01*
X339988Y379558D01*
D02*
G37*
G36*
X319988D02*
X319263D01*
X318562Y379370D01*
X317933Y379007D01*
X317420Y378494D01*
X317057Y377866D01*
X316870Y377165D01*
Y376439D01*
X317057Y375738D01*
X317420Y375110D01*
X317933Y374597D01*
X318562Y374234D01*
X319263Y374046D01*
X319988D01*
X320689Y374234D01*
X321318Y374597D01*
X321831Y375110D01*
X322194Y375738D01*
X322381Y376439D01*
Y377165D01*
X322194Y377866D01*
X321831Y378494D01*
X321318Y379007D01*
X320689Y379370D01*
X319988Y379558D01*
D02*
G37*
G36*
X312932Y376212D02*
X310216D01*
Y373496D01*
X310917Y373684D01*
X311680Y374124D01*
X312303Y374747D01*
X312744Y375511D01*
X312932Y376212D01*
D02*
G37*
G36*
X309035D02*
X306319D01*
X306507Y375511D01*
X306948Y374747D01*
X307571Y374124D01*
X308334Y373684D01*
X309035Y373496D01*
Y376212D01*
D02*
G37*
G36*
X360728Y368996D02*
X357283D01*
Y365945D01*
X360728D01*
Y368996D01*
D02*
G37*
G36*
X356102D02*
X352658D01*
Y365945D01*
X356102D01*
Y368996D01*
D02*
G37*
G36*
X360728Y364764D02*
X357283D01*
Y361713D01*
X360728D01*
Y364764D01*
D02*
G37*
G36*
X356102D02*
X352658D01*
Y361713D01*
X356102D01*
Y364764D01*
D02*
G37*
G36*
X522915Y380197D02*
X520992D01*
X519105Y379822D01*
X517329Y379086D01*
X515730Y378017D01*
X514369Y376657D01*
X513301Y375058D01*
X512565Y373281D01*
X512190Y371395D01*
Y369471D01*
X512565Y367585D01*
X513301Y365808D01*
X514369Y364209D01*
X515730Y362849D01*
X517329Y361781D01*
X519105Y361045D01*
X520992Y360669D01*
X522915D01*
X524801Y361045D01*
X526578Y361781D01*
X528178Y362849D01*
X529538Y364209D01*
X530606Y365808D01*
X531342Y367585D01*
X531717Y369471D01*
Y371395D01*
X531342Y373281D01*
X530606Y375058D01*
X529538Y376657D01*
X528178Y378017D01*
X526578Y379086D01*
X524801Y379822D01*
X522915Y380197D01*
D02*
G37*
G36*
X374412Y352867D02*
X371391D01*
Y349846D01*
X372206Y350064D01*
X373036Y350543D01*
X373714Y351221D01*
X374194Y352052D01*
X374412Y352867D01*
D02*
G37*
G36*
X370209D02*
X367188D01*
X367406Y352052D01*
X367886Y351221D01*
X368564Y350543D01*
X369394Y350064D01*
X370209Y349846D01*
Y352867D01*
D02*
G37*
G36*
X520674Y347362D02*
X516954D01*
Y343642D01*
X520674D01*
Y347362D01*
D02*
G37*
G36*
X515772D02*
X512052D01*
Y343642D01*
X515772D01*
Y347362D01*
D02*
G37*
G36*
X318463Y339393D02*
X316298D01*
Y337776D01*
X320553D01*
X320502Y338030D01*
X320024Y338746D01*
X319308Y339225D01*
X318463Y339393D01*
D02*
G37*
G36*
X315116D02*
X312951D01*
X312106Y339225D01*
X311390Y338746D01*
X310911Y338030D01*
X310861Y337776D01*
X315116D01*
Y339393D01*
D02*
G37*
G36*
X364370Y339594D02*
X361417D01*
Y337776D01*
X366661D01*
X366595Y338107D01*
X366073Y338888D01*
X365292Y339410D01*
X364370Y339594D01*
D02*
G37*
G36*
X345079D02*
X342126D01*
Y337776D01*
X347370D01*
X347304Y338107D01*
X346782Y338888D01*
X346000Y339410D01*
X345079Y339594D01*
D02*
G37*
G36*
X360236D02*
X357283D01*
X356362Y339410D01*
X355580Y338888D01*
X355058Y338107D01*
X354993Y337776D01*
X360236D01*
Y339594D01*
D02*
G37*
G36*
X340945D02*
X337992D01*
X337070Y339410D01*
X336289Y338888D01*
X335767Y338107D01*
X335701Y337776D01*
X340945D01*
Y339594D01*
D02*
G37*
G36*
X320553Y336595D02*
X316298D01*
Y334977D01*
X318463D01*
X319308Y335145D01*
X320024Y335624D01*
X320502Y336340D01*
X320553Y336595D01*
D02*
G37*
G36*
X315116D02*
X310861D01*
X310911Y336340D01*
X311390Y335624D01*
X312106Y335145D01*
X312951Y334977D01*
X315116D01*
Y336595D01*
D02*
G37*
G36*
X366661Y336595D02*
X361417D01*
Y334777D01*
X364370D01*
X365292Y334960D01*
X366073Y335482D01*
X366595Y336263D01*
X366661Y336595D01*
D02*
G37*
G36*
X360236D02*
X354992D01*
X355058Y336263D01*
X355580Y335482D01*
X356362Y334960D01*
X357283Y334777D01*
X360236D01*
Y336595D01*
D02*
G37*
G36*
X528034Y341319D02*
X527054D01*
X526108Y341065D01*
X525260Y340576D01*
X524567Y339883D01*
X524077Y339035D01*
X523824Y338088D01*
Y337109D01*
X524077Y336162D01*
X524567Y335314D01*
X525260Y334621D01*
X526108Y334132D01*
X527054Y333878D01*
X528034D01*
X528980Y334132D01*
X529829Y334621D01*
X530521Y335314D01*
X531011Y336162D01*
X531264Y337109D01*
Y338088D01*
X531011Y339035D01*
X530521Y339883D01*
X529829Y340576D01*
X528980Y341065D01*
X528034Y341319D01*
D02*
G37*
G36*
X347370Y336595D02*
X341535D01*
X335701D01*
X335767Y336263D01*
X336289Y335482D01*
X337070Y334960D01*
X337171Y334940D01*
Y334430D01*
X337070Y334410D01*
X336289Y333888D01*
X335767Y333107D01*
X335701Y332776D01*
X341535D01*
X347370D01*
X347304Y333107D01*
X346782Y333888D01*
X346000Y334410D01*
X345900Y334430D01*
Y334940D01*
X346000Y334960D01*
X346782Y335482D01*
X347304Y336263D01*
X347370Y336595D01*
D02*
G37*
G36*
X318463Y333791D02*
X312951D01*
X312336Y333668D01*
X311816Y333320D01*
X311468Y332800D01*
X311345Y332185D01*
X311468Y331571D01*
X311816Y331050D01*
X312336Y330702D01*
X312951Y330579D01*
X318463D01*
X319077Y330702D01*
X319598Y331050D01*
X319946Y331571D01*
X320069Y332185D01*
X319946Y332800D01*
X319598Y333320D01*
X319077Y333668D01*
X318463Y333791D01*
D02*
G37*
G36*
X347370Y331594D02*
X342126D01*
Y329777D01*
X345079D01*
X346000Y329960D01*
X346782Y330482D01*
X347304Y331263D01*
X347370Y331594D01*
D02*
G37*
G36*
X340945D02*
X335701D01*
X335767Y331263D01*
X336289Y330482D01*
X337070Y329960D01*
X337992Y329777D01*
X340945D01*
Y331594D01*
D02*
G37*
G36*
X318463Y328791D02*
X312951D01*
X312336Y328668D01*
X311816Y328320D01*
X311468Y327800D01*
X311345Y327185D01*
X311468Y326571D01*
X311816Y326050D01*
X312336Y325702D01*
X312951Y325579D01*
X318463D01*
X319077Y325702D01*
X319598Y326050D01*
X319946Y326571D01*
X320069Y327185D01*
X319946Y327800D01*
X319598Y328320D01*
X319077Y328668D01*
X318463Y328791D01*
D02*
G37*
G36*
X345079Y328991D02*
X337992D01*
X337301Y328854D01*
X336715Y328462D01*
X336323Y327876D01*
X336186Y327185D01*
X336323Y326494D01*
X336715Y325908D01*
X337301Y325516D01*
X337992Y325379D01*
X345079D01*
X345770Y325516D01*
X346356Y325908D01*
X346747Y326494D01*
X346885Y327185D01*
X346747Y327876D01*
X346356Y328462D01*
X345770Y328854D01*
X345079Y328991D01*
D02*
G37*
G36*
Y324593D02*
X342126D01*
Y322776D01*
X347370D01*
X347304Y323107D01*
X346782Y323888D01*
X346000Y324410D01*
X345079Y324593D01*
D02*
G37*
G36*
X340945D02*
X337992D01*
X337070Y324410D01*
X336289Y323888D01*
X335767Y323107D01*
X335701Y322776D01*
X340945D01*
Y324593D01*
D02*
G37*
G36*
X474641Y352346D02*
X473759D01*
X472908Y352118D01*
X472145Y351678D01*
X471522Y351055D01*
X471082Y350292D01*
X470854Y349441D01*
Y348559D01*
X471082Y347708D01*
X471522Y346945D01*
X472145Y346322D01*
X472908Y345882D01*
X473759Y345654D01*
X474641D01*
X475492Y345882D01*
X476255Y346322D01*
X476878Y346945D01*
X477318Y347708D01*
X477449Y348197D01*
X525471D01*
X534630Y339037D01*
Y313010D01*
X529607Y307987D01*
X528980Y308349D01*
X528034Y308602D01*
X527054D01*
X526108Y308349D01*
X525260Y307859D01*
X524567Y307166D01*
X524077Y306318D01*
X523824Y305372D01*
Y304392D01*
X524077Y303446D01*
X524567Y302597D01*
X525260Y301905D01*
X526108Y301415D01*
X527054Y301161D01*
X528034D01*
X528980Y301415D01*
X529829Y301905D01*
X530521Y302597D01*
X531011Y303446D01*
X531264Y304392D01*
Y305372D01*
X531011Y306318D01*
X530718Y306826D01*
X536001Y312109D01*
X536001Y312109D01*
X536175Y312370D01*
X536236Y312677D01*
X536236Y312677D01*
Y339370D01*
X536236Y339370D01*
X536175Y339677D01*
X536001Y339938D01*
X536001Y339938D01*
X526371Y349568D01*
X526110Y349742D01*
X525803Y349803D01*
X477449D01*
X477318Y350292D01*
X476878Y351055D01*
X476255Y351678D01*
X475492Y352118D01*
X474641Y352346D01*
D02*
G37*
G36*
X318463Y309393D02*
X316298D01*
Y307776D01*
X320553D01*
X320502Y308030D01*
X320024Y308746D01*
X319308Y309225D01*
X318463Y309393D01*
D02*
G37*
G36*
X315116D02*
X312951D01*
X312106Y309225D01*
X311390Y308746D01*
X310911Y308030D01*
X310861Y307776D01*
X315116D01*
Y309393D01*
D02*
G37*
G36*
X320553Y306594D02*
X316298D01*
Y304977D01*
X318463D01*
X319308Y305145D01*
X320024Y305624D01*
X320502Y306340D01*
X320553Y306594D01*
D02*
G37*
G36*
X315116D02*
X310861D01*
X310911Y306340D01*
X311390Y305624D01*
X312106Y305145D01*
X312951Y304977D01*
X315116D01*
Y306594D01*
D02*
G37*
G36*
X385039Y307610D02*
X378740D01*
X378126Y307487D01*
X377605Y307139D01*
X377257Y306618D01*
X377134Y306004D01*
X377257Y305389D01*
X377605Y304869D01*
X378126Y304521D01*
X378740Y304398D01*
X385039D01*
X385654Y304521D01*
X386175Y304869D01*
X386523Y305389D01*
X386645Y306004D01*
X386523Y306618D01*
X386175Y307139D01*
X385654Y307487D01*
X385039Y307610D01*
D02*
G37*
G36*
X331791Y305020D02*
X324902D01*
Y303189D01*
X319686D01*
X319598Y303320D01*
X319077Y303668D01*
X318463Y303791D01*
X312951D01*
X312336Y303668D01*
X311816Y303320D01*
X311468Y302800D01*
X311345Y302185D01*
X311468Y301571D01*
X311816Y301050D01*
X312336Y300702D01*
X312951Y300579D01*
X318463D01*
X319077Y300702D01*
X319598Y301050D01*
X319686Y301182D01*
X324902D01*
Y298917D01*
X331791D01*
Y301182D01*
X336532D01*
X336715Y300908D01*
X337301Y300516D01*
X337992Y300379D01*
X345079D01*
X345770Y300516D01*
X346356Y300908D01*
X346445Y301040D01*
X349373D01*
X349613Y300800D01*
X350120Y300590D01*
X350668D01*
X351174Y300800D01*
X351562Y301188D01*
X351772Y301694D01*
Y302243D01*
X351562Y302749D01*
X351174Y303137D01*
X350668Y303346D01*
X350120D01*
X349613Y303137D01*
X349524Y303047D01*
X346633D01*
X346356Y303462D01*
X345770Y303854D01*
X345079Y303991D01*
X337992D01*
X337301Y303854D01*
X336715Y303462D01*
X336532Y303189D01*
X331791D01*
Y305020D01*
D02*
G37*
G36*
X477547Y362347D02*
X470854D01*
Y356789D01*
X464474Y350409D01*
X442211D01*
X441745Y350492D01*
X441745Y350909D01*
Y352347D01*
X463027D01*
X463393Y351981D01*
X463899Y351772D01*
X464447D01*
X464954Y351981D01*
X465341Y352369D01*
X465551Y352875D01*
Y353424D01*
X465341Y353930D01*
X464954Y354318D01*
X464447Y354528D01*
X463899D01*
X463393Y354318D01*
X463027Y353952D01*
X441745D01*
Y356594D01*
X434855D01*
Y354346D01*
X402579D01*
X402579Y354346D01*
X402271Y354285D01*
X402011Y354111D01*
X402011Y354111D01*
X385432Y337531D01*
X385039Y337610D01*
X378740D01*
X378126Y337487D01*
X377605Y337139D01*
X377596Y337127D01*
X373726D01*
X373418Y337066D01*
X373158Y336892D01*
X373158Y336892D01*
X369269Y333003D01*
X365954D01*
X365647Y333462D01*
X365061Y333854D01*
X364370Y333991D01*
X357283D01*
X356592Y333854D01*
X356006Y333462D01*
X355615Y332876D01*
X355477Y332185D01*
X355615Y331494D01*
X356006Y330908D01*
X356592Y330516D01*
X357283Y330379D01*
X364370D01*
X365061Y330516D01*
X365647Y330908D01*
X365974Y331397D01*
X369602D01*
X369909Y331458D01*
X370169Y331632D01*
X374058Y335521D01*
X377230D01*
X377257Y335389D01*
X377605Y334869D01*
X378126Y334521D01*
X378740Y334398D01*
X385039D01*
X385654Y334521D01*
X386175Y334869D01*
X386523Y335389D01*
X386645Y336004D01*
X386567Y336396D01*
X402911Y352741D01*
X434855D01*
X434855Y350492D01*
X434390Y350409D01*
X432750D01*
X432750Y350409D01*
X432442Y350348D01*
X432182Y350174D01*
X430728Y348721D01*
X427336D01*
Y346177D01*
X399705D01*
X399705Y346177D01*
X399397Y346116D01*
X399137Y345942D01*
X385671Y332476D01*
X385654Y332487D01*
X385039Y332610D01*
X378740D01*
X378126Y332487D01*
X377605Y332139D01*
X377584Y332108D01*
X374219D01*
X373911Y332047D01*
X373651Y331873D01*
X373651Y331873D01*
X369781Y328003D01*
X365954D01*
X365647Y328462D01*
X365061Y328854D01*
X364370Y328991D01*
X357283D01*
X356592Y328854D01*
X356006Y328462D01*
X355615Y327876D01*
X355477Y327185D01*
X355615Y326494D01*
X356006Y325908D01*
X356592Y325516D01*
X357283Y325379D01*
X364370D01*
X365061Y325516D01*
X365647Y325908D01*
X365974Y326397D01*
X370113D01*
X370421Y326458D01*
X370681Y326632D01*
X374551Y330502D01*
X377234D01*
X377257Y330389D01*
X377605Y329869D01*
X378126Y329521D01*
X378740Y329398D01*
X385039D01*
X385654Y329521D01*
X386175Y329869D01*
X386523Y330389D01*
X386645Y331004D01*
X386616Y331150D01*
X400037Y344571D01*
X428320D01*
X428398Y344587D01*
X431864D01*
Y347585D01*
X433082Y348803D01*
X434390D01*
X434855Y348720D01*
X434855Y348304D01*
Y343754D01*
X433440Y342338D01*
X431864D01*
Y343602D01*
X427336D01*
Y339469D01*
X431864D01*
Y340733D01*
X433773D01*
X434080Y340794D01*
X434340Y340968D01*
X435991Y342618D01*
X441745D01*
X441745Y348720D01*
X442211Y348803D01*
X464806D01*
X465113Y348865D01*
X465374Y349039D01*
X471989Y355654D01*
X477547D01*
Y358197D01*
X519408D01*
X536923Y340682D01*
Y308022D01*
X528404Y299503D01*
X520083D01*
Y299919D01*
X519830Y300865D01*
X519340Y301714D01*
X518647Y302406D01*
X517799Y302896D01*
X516853Y303150D01*
X515873D01*
X514927Y302896D01*
X514079Y302406D01*
X513386Y301714D01*
X512896Y300865D01*
X512642Y299919D01*
Y298939D01*
X512896Y297993D01*
X513386Y297145D01*
X514079Y296452D01*
X514927Y295962D01*
X515873Y295709D01*
X516853D01*
X517799Y295962D01*
X518647Y296452D01*
X519340Y297145D01*
X519774Y297897D01*
X528737D01*
X529044Y297958D01*
X529305Y298132D01*
X538294Y307121D01*
X538294Y307121D01*
X538468Y307382D01*
X538529Y307689D01*
X538529Y307689D01*
Y341014D01*
X538468Y341321D01*
X538294Y341582D01*
X538294Y341582D01*
X520308Y359568D01*
X520047Y359742D01*
X519740Y359803D01*
X477547D01*
Y362347D01*
D02*
G37*
G36*
X385039Y302609D02*
X378740D01*
X378126Y302487D01*
X377605Y302139D01*
X377257Y301618D01*
X377134Y301004D01*
X377257Y300389D01*
X377605Y299868D01*
X378126Y299520D01*
X378740Y299398D01*
X385039D01*
X385654Y299520D01*
X386175Y299868D01*
X386523Y300389D01*
X386645Y301004D01*
X386523Y301618D01*
X386175Y302139D01*
X385654Y302487D01*
X385039Y302609D01*
D02*
G37*
G36*
X332382Y297736D02*
X328937D01*
Y294685D01*
X332382D01*
Y297736D01*
D02*
G37*
G36*
X327756D02*
X324311D01*
Y294685D01*
X327756D01*
Y297736D01*
D02*
G37*
G36*
X332382Y293504D02*
X328937D01*
Y290453D01*
X332382D01*
Y293504D01*
D02*
G37*
G36*
X327756D02*
X324311D01*
Y290453D01*
X327756D01*
Y293504D01*
D02*
G37*
G36*
X474790Y292918D02*
Y289591D01*
X478118D01*
X477869Y290520D01*
X477350Y291417D01*
X476617Y292150D01*
X475720Y292669D01*
X474790Y292918D01*
D02*
G37*
G36*
X473609Y292918D02*
X472680Y292669D01*
X471783Y292150D01*
X471050Y291417D01*
X470531Y290520D01*
X470282Y289591D01*
X473609D01*
Y292918D01*
D02*
G37*
G36*
Y288409D02*
X470282D01*
X470531Y287480D01*
X471050Y286583D01*
X471783Y285850D01*
X472680Y285331D01*
X473609Y285082D01*
Y288409D01*
D02*
G37*
G36*
X478118D02*
X474790D01*
Y285082D01*
X475720Y285331D01*
X476617Y285850D01*
X477350Y286583D01*
X477869Y287480D01*
X478118Y288409D01*
D02*
G37*
G36*
X289035Y253419D02*
X288334Y253231D01*
X287571Y252790D01*
X286948Y252167D01*
X286507Y251404D01*
X286319Y250703D01*
X289035D01*
Y253419D01*
D02*
G37*
G36*
X282381Y252868D02*
X276870D01*
Y247356D01*
X282381D01*
Y252868D01*
D02*
G37*
G36*
X289035Y249522D02*
X286319D01*
X286507Y248821D01*
X286948Y248058D01*
X287571Y247434D01*
X288334Y246994D01*
X289035Y246806D01*
Y249522D01*
D02*
G37*
G36*
X269750Y217752D02*
X266305D01*
Y214701D01*
X269750D01*
Y217752D01*
D02*
G37*
G36*
X265124D02*
X261679D01*
Y214701D01*
X265124D01*
Y217752D01*
D02*
G37*
G36*
X278502Y212703D02*
X276337D01*
X275492Y212535D01*
X274776Y212056D01*
X274297Y211340D01*
X274247Y211086D01*
X278502D01*
Y212703D01*
D02*
G37*
G36*
X269750Y213520D02*
X266305D01*
Y210469D01*
X269750D01*
Y213520D01*
D02*
G37*
G36*
X278502Y209905D02*
X274247D01*
X274297Y209650D01*
X274776Y208934D01*
X275492Y208455D01*
X276337Y208288D01*
X278502D01*
Y209905D01*
D02*
G37*
G36*
X42453Y178410D02*
X39391D01*
Y175347D01*
X40221Y175570D01*
X41060Y176054D01*
X41745Y176740D01*
X42230Y177579D01*
X42453Y178410D01*
D02*
G37*
G36*
X278502Y182703D02*
X276337D01*
X275492Y182535D01*
X274776Y182056D01*
X274297Y181340D01*
X274247Y181086D01*
X278502D01*
Y182703D01*
D02*
G37*
G36*
Y179905D02*
X274247D01*
X274297Y179650D01*
X274776Y178934D01*
X275492Y178455D01*
X276337Y178287D01*
X278502D01*
Y179905D01*
D02*
G37*
G36*
X39391Y172653D02*
Y169591D01*
X42453D01*
X42230Y170421D01*
X41745Y171260D01*
X41060Y171946D01*
X40221Y172430D01*
X39391Y172653D01*
D02*
G37*
G36*
X38209D02*
X37379Y172430D01*
X36540Y171946D01*
X35854Y171260D01*
X35370Y170421D01*
X35147Y169591D01*
X38209D01*
Y172653D01*
D02*
G37*
G36*
X42453Y168410D02*
X39391D01*
Y165347D01*
X40221Y165570D01*
X41060Y166054D01*
X41745Y166740D01*
X42230Y167579D01*
X42453Y168410D01*
D02*
G37*
G36*
X38209D02*
X35147D01*
X35370Y167579D01*
X35854Y166740D01*
X36540Y166054D01*
X37379Y165570D01*
X38209Y165347D01*
Y168410D01*
D02*
G37*
G36*
X39590Y150553D02*
Y147491D01*
X42653D01*
X42430Y148321D01*
X41945Y149160D01*
X41260Y149846D01*
X40421Y150330D01*
X39590Y150553D01*
D02*
G37*
G36*
X38409D02*
X37579Y150330D01*
X36740Y149846D01*
X36054Y149160D01*
X35570Y148321D01*
X35347Y147491D01*
X38409D01*
Y150553D01*
D02*
G37*
G36*
X42653Y146309D02*
X39590D01*
Y143247D01*
X40421Y143470D01*
X41260Y143954D01*
X41945Y144640D01*
X42430Y145479D01*
X42653Y146309D01*
D02*
G37*
G36*
X38409D02*
X35347D01*
X35570Y145479D01*
X36054Y144640D01*
X36740Y143954D01*
X37579Y143470D01*
X38409Y143247D01*
Y146309D01*
D02*
G37*
G36*
X-42480Y150555D02*
X-48976D01*
X-55472D01*
Y149079D01*
X-54882D01*
Y146823D01*
X-54882Y146520D01*
X-54882Y146020D01*
Y143764D01*
X-55472D01*
Y142287D01*
X-48976D01*
X-42480D01*
Y143764D01*
X-43071D01*
Y146020D01*
X-43071Y146323D01*
X-43071Y146823D01*
Y149079D01*
X-42480D01*
Y150555D01*
D02*
G37*
G36*
X39590Y140553D02*
Y137491D01*
X42653D01*
X42430Y138321D01*
X41945Y139160D01*
X41260Y139846D01*
X40421Y140330D01*
X39590Y140553D01*
D02*
G37*
G36*
X19407Y139991D02*
X18593D01*
X17807Y139780D01*
X17102Y139373D01*
X16527Y138798D01*
X16120Y138093D01*
X15909Y137307D01*
Y136493D01*
X16120Y135707D01*
X16527Y135002D01*
X17102Y134427D01*
X17807Y134020D01*
X18593Y133809D01*
X19407D01*
X20193Y134020D01*
X20898Y134427D01*
X21473Y135002D01*
X21880Y135707D01*
X22091Y136493D01*
Y137307D01*
X21880Y138093D01*
X21473Y138798D01*
X20898Y139373D01*
X20193Y139780D01*
X19407Y139991D01*
D02*
G37*
G36*
X-42480Y141106D02*
X-48976D01*
X-55472D01*
Y139630D01*
X-54882D01*
Y137374D01*
X-54882Y137071D01*
X-54882Y136571D01*
Y134315D01*
X-55472D01*
Y132839D01*
X-48976D01*
X-42480D01*
Y134315D01*
X-43071D01*
Y136571D01*
X-43071Y136874D01*
X-43071Y137374D01*
Y139630D01*
X-42480D01*
Y141106D01*
D02*
G37*
G36*
Y169453D02*
X-48976D01*
X-55472D01*
Y167976D01*
X-54882D01*
Y165811D01*
X-55472D01*
Y164335D01*
X-48976D01*
X-42480D01*
Y165811D01*
X-42096Y166091D01*
X-20770D01*
X13605Y131716D01*
X13605Y131716D01*
X13866Y131542D01*
X14173Y131481D01*
X14173Y131481D01*
X23284D01*
X26322Y128443D01*
X26120Y128093D01*
X25909Y127307D01*
Y126493D01*
X26120Y125707D01*
X26527Y125002D01*
X27102Y124427D01*
X27807Y124020D01*
X28593Y123810D01*
X29407D01*
X30193Y124020D01*
X30898Y124427D01*
X31473Y125002D01*
X31880Y125707D01*
X32090Y126493D01*
Y127307D01*
X31880Y128093D01*
X31473Y128798D01*
X30898Y129373D01*
X30193Y129780D01*
X29407Y129991D01*
X28593D01*
X27807Y129780D01*
X27457Y129578D01*
X24184Y132851D01*
X23924Y133025D01*
X23617Y133086D01*
X14506D01*
X-19869Y167461D01*
X-20130Y167635D01*
X-20437Y167696D01*
X-42096D01*
X-42480Y167976D01*
Y169453D01*
D02*
G37*
G36*
X19407Y129991D02*
X18593D01*
X17807Y129780D01*
X17102Y129373D01*
X16527Y128798D01*
X16120Y128093D01*
X15909Y127307D01*
Y126493D01*
X16120Y125707D01*
X16527Y125002D01*
X17102Y124427D01*
X17807Y124020D01*
X18593Y123810D01*
X19407D01*
X20193Y124020D01*
X20898Y124427D01*
X21473Y125002D01*
X21880Y125707D01*
X22091Y126493D01*
Y127307D01*
X21880Y128093D01*
X21473Y128798D01*
X20898Y129373D01*
X20193Y129780D01*
X19407Y129991D01*
D02*
G37*
G36*
X-25492Y121358D02*
X-27756D01*
Y119291D01*
X-25492D01*
Y121358D01*
D02*
G37*
G36*
X-28937D02*
X-31201D01*
Y119291D01*
X-28937D01*
Y121358D01*
D02*
G37*
G36*
X-42480Y131658D02*
X-48976D01*
X-55472D01*
Y130181D01*
X-54882D01*
Y127925D01*
X-54882Y127622D01*
X-54882Y127122D01*
Y124776D01*
X-54882Y124472D01*
X-54882Y123972D01*
Y121626D01*
X-54882Y121323D01*
X-54882Y120823D01*
Y118567D01*
X-55472D01*
Y117091D01*
X-48976D01*
X-42480D01*
Y117437D01*
X-42427Y117470D01*
X-41980Y117591D01*
X-41688Y117298D01*
X-41182Y117089D01*
X-40633D01*
X-40127Y117298D01*
X-39762Y117664D01*
X-38091D01*
Y116634D01*
X-33563D01*
Y120768D01*
X-38091D01*
Y119270D01*
X-39762D01*
X-40127Y119635D01*
X-40633Y119845D01*
X-41182D01*
X-41688Y119635D01*
X-42076Y119247D01*
X-42199Y118950D01*
X-42378Y118706D01*
X-42571Y118633D01*
X-43071Y118897D01*
Y120823D01*
X-43071Y121126D01*
X-43071Y121626D01*
Y123972D01*
X-43071Y124276D01*
X-43071Y124776D01*
Y127122D01*
X-43071Y127425D01*
X-43071Y127925D01*
Y130181D01*
X-42480D01*
Y131658D01*
D02*
G37*
G36*
X39407Y119991D02*
X38593D01*
X37807Y119780D01*
X37102Y119373D01*
X36527Y118798D01*
X36120Y118093D01*
X35909Y117307D01*
Y116493D01*
X36120Y115707D01*
X36527Y115002D01*
X37102Y114427D01*
X37807Y114020D01*
X38593Y113810D01*
X39407D01*
X40193Y114020D01*
X40898Y114427D01*
X41473Y115002D01*
X41880Y115707D01*
X42090Y116493D01*
Y117307D01*
X41880Y118093D01*
X41473Y118798D01*
X40898Y119373D01*
X40193Y119780D01*
X39407Y119991D01*
D02*
G37*
G36*
X-42480Y163154D02*
X-48976D01*
X-55472D01*
Y161677D01*
X-54882D01*
Y159512D01*
X-55472D01*
Y158035D01*
X-48976D01*
X-42480D01*
Y159512D01*
X-42096Y159792D01*
X-23919D01*
X13999Y121873D01*
X14260Y121699D01*
X14567Y121638D01*
X14567Y121638D01*
X23126D01*
X26322Y118443D01*
X26120Y118093D01*
X25909Y117307D01*
Y116493D01*
X26120Y115707D01*
X26527Y115002D01*
X27102Y114427D01*
X27807Y114020D01*
X28593Y113810D01*
X29407D01*
X30193Y114020D01*
X30898Y114427D01*
X31473Y115002D01*
X31880Y115707D01*
X32090Y116493D01*
Y117307D01*
X31880Y118093D01*
X31473Y118798D01*
X30898Y119373D01*
X30193Y119780D01*
X29407Y119991D01*
X28593D01*
X27807Y119780D01*
X27457Y119578D01*
X24027Y123009D01*
X23766Y123183D01*
X23459Y123244D01*
X14899D01*
X-23019Y161162D01*
X-23279Y161336D01*
X-23586Y161397D01*
X-42096D01*
X-42480Y161677D01*
Y163154D01*
D02*
G37*
G36*
X19407Y119991D02*
X18593D01*
X17807Y119780D01*
X17102Y119373D01*
X16527Y118798D01*
X16120Y118093D01*
X15909Y117307D01*
Y116493D01*
X16120Y115707D01*
X16527Y115002D01*
X17102Y114427D01*
X17807Y114020D01*
X18593Y113810D01*
X19407D01*
X20193Y114020D01*
X20898Y114427D01*
X21473Y115002D01*
X21880Y115707D01*
X22091Y116493D01*
Y117307D01*
X21880Y118093D01*
X21473Y118798D01*
X20898Y119373D01*
X20193Y119780D01*
X19407Y119991D01*
D02*
G37*
G36*
X39407Y109991D02*
X38593D01*
X37807Y109780D01*
X37102Y109373D01*
X36527Y108798D01*
X36120Y108093D01*
X35909Y107307D01*
Y106493D01*
X36120Y105707D01*
X36527Y105002D01*
X37102Y104427D01*
X37807Y104020D01*
X38593Y103809D01*
X39407D01*
X40193Y104020D01*
X40898Y104427D01*
X41473Y105002D01*
X41880Y105707D01*
X42090Y106493D01*
Y107307D01*
X41880Y108093D01*
X41473Y108798D01*
X40898Y109373D01*
X40193Y109780D01*
X39407Y109991D01*
D02*
G37*
G36*
X-42480Y156854D02*
X-48976D01*
X-55472D01*
Y155378D01*
X-54882D01*
Y153212D01*
X-55472D01*
Y151736D01*
X-48976D01*
X-42480D01*
Y153212D01*
X-42096Y153492D01*
X-27856D01*
X13999Y111637D01*
X13999Y111637D01*
X14260Y111463D01*
X14567Y111402D01*
X14567Y111402D01*
X23363D01*
X26322Y108443D01*
X26120Y108093D01*
X25909Y107307D01*
Y106493D01*
X26120Y105707D01*
X26527Y105002D01*
X27102Y104427D01*
X27807Y104020D01*
X28593Y103809D01*
X29407D01*
X30193Y104020D01*
X30898Y104427D01*
X31473Y105002D01*
X31880Y105707D01*
X32090Y106493D01*
Y107307D01*
X31880Y108093D01*
X31473Y108798D01*
X30898Y109373D01*
X30193Y109780D01*
X29407Y109991D01*
X28593D01*
X27807Y109780D01*
X27457Y109578D01*
X24263Y112772D01*
X24002Y112946D01*
X23695Y113007D01*
X14899D01*
X-26956Y154863D01*
X-27216Y155037D01*
X-27524Y155098D01*
X-42096D01*
X-42480Y155378D01*
Y156854D01*
D02*
G37*
G36*
X19407Y109991D02*
X18593D01*
X17807Y109780D01*
X17102Y109373D01*
X16527Y108798D01*
X16120Y108093D01*
X15909Y107307D01*
Y106493D01*
X16120Y105707D01*
X16527Y105002D01*
X17102Y104427D01*
X17807Y104020D01*
X18593Y103809D01*
X19407D01*
X20193Y104020D01*
X20898Y104427D01*
X21473Y105002D01*
X21880Y105707D01*
X22091Y106493D01*
Y107307D01*
X21880Y108093D01*
X21473Y108798D01*
X20898Y109373D01*
X20193Y109780D01*
X19407Y109991D01*
D02*
G37*
G36*
X39407Y99991D02*
X38593D01*
X37807Y99780D01*
X37102Y99373D01*
X36527Y98798D01*
X36120Y98093D01*
X35909Y97307D01*
Y96493D01*
X36120Y95707D01*
X36527Y95002D01*
X37102Y94427D01*
X37807Y94020D01*
X38593Y93809D01*
X39407D01*
X40193Y94020D01*
X40898Y94427D01*
X41473Y95002D01*
X41880Y95707D01*
X42090Y96493D01*
Y97307D01*
X41880Y98093D01*
X41473Y98798D01*
X40898Y99373D01*
X40193Y99780D01*
X39407Y99991D01*
D02*
G37*
G36*
X29407D02*
X28593D01*
X27807Y99780D01*
X27102Y99373D01*
X26527Y98798D01*
X26120Y98093D01*
X25909Y97307D01*
Y96493D01*
X26120Y95707D01*
X26527Y95002D01*
X27102Y94427D01*
X27807Y94020D01*
X28593Y93809D01*
X29407D01*
X30193Y94020D01*
X30898Y94427D01*
X31473Y95002D01*
X31880Y95707D01*
X32090Y96493D01*
Y97307D01*
X31880Y98093D01*
X31473Y98798D01*
X30898Y99373D01*
X30193Y99780D01*
X29407Y99991D01*
D02*
G37*
G36*
X19407D02*
X18593D01*
X17807Y99780D01*
X17102Y99373D01*
X16527Y98798D01*
X16120Y98093D01*
X15909Y97307D01*
Y96493D01*
X16120Y95707D01*
X16527Y95002D01*
X17102Y94427D01*
X17807Y94020D01*
X18593Y93809D01*
X19407D01*
X20193Y94020D01*
X20898Y94427D01*
X21473Y95002D01*
X21880Y95707D01*
X22091Y96493D01*
Y97307D01*
X21880Y98093D01*
X21473Y98798D01*
X20898Y99373D01*
X20193Y99780D01*
X19407Y99991D01*
D02*
G37*
G36*
X39407Y89991D02*
X38593D01*
X37807Y89780D01*
X37102Y89373D01*
X36527Y88798D01*
X36120Y88093D01*
X35909Y87307D01*
Y86493D01*
X36120Y85707D01*
X36527Y85002D01*
X37102Y84427D01*
X37807Y84020D01*
X38593Y83810D01*
X39407D01*
X40193Y84020D01*
X40898Y84427D01*
X41473Y85002D01*
X41880Y85707D01*
X42090Y86493D01*
Y87307D01*
X41880Y88093D01*
X41473Y88798D01*
X40898Y89373D01*
X40193Y89780D01*
X39407Y89991D01*
D02*
G37*
G36*
X29407D02*
X28593D01*
X27807Y89780D01*
X27102Y89373D01*
X26527Y88798D01*
X26120Y88093D01*
X25909Y87307D01*
Y86493D01*
X26120Y85707D01*
X26527Y85002D01*
X27102Y84427D01*
X27807Y84020D01*
X28593Y83810D01*
X29407D01*
X30193Y84020D01*
X30898Y84427D01*
X31473Y85002D01*
X31880Y85707D01*
X32090Y86493D01*
Y87307D01*
X31880Y88093D01*
X31473Y88798D01*
X30898Y89373D01*
X30193Y89780D01*
X29407Y89991D01*
D02*
G37*
G36*
X19407D02*
X18593D01*
X17807Y89780D01*
X17102Y89373D01*
X16527Y88798D01*
X16120Y88093D01*
X15909Y87307D01*
Y86493D01*
X16120Y85707D01*
X16527Y85002D01*
X17102Y84427D01*
X17807Y84020D01*
X18593Y83810D01*
X19407D01*
X20193Y84020D01*
X20898Y84427D01*
X21473Y85002D01*
X21880Y85707D01*
X22091Y86493D01*
Y87307D01*
X21880Y88093D01*
X21473Y88798D01*
X20898Y89373D01*
X20193Y89780D01*
X19407Y89991D01*
D02*
G37*
G36*
X39407Y79991D02*
X38593D01*
X37807Y79780D01*
X37102Y79373D01*
X36527Y78798D01*
X36120Y78093D01*
X35909Y77307D01*
Y76493D01*
X36120Y75707D01*
X36527Y75002D01*
X37102Y74427D01*
X37807Y74020D01*
X38593Y73809D01*
X39407D01*
X40193Y74020D01*
X40898Y74427D01*
X41473Y75002D01*
X41880Y75707D01*
X42090Y76493D01*
Y77307D01*
X41880Y78093D01*
X41473Y78798D01*
X40898Y79373D01*
X40193Y79780D01*
X39407Y79991D01*
D02*
G37*
G36*
X29407D02*
X28593D01*
X27807Y79780D01*
X27102Y79373D01*
X26527Y78798D01*
X26120Y78093D01*
X25909Y77307D01*
Y76493D01*
X26120Y75707D01*
X26527Y75002D01*
X27102Y74427D01*
X27807Y74020D01*
X28593Y73809D01*
X29407D01*
X30193Y74020D01*
X30898Y74427D01*
X31473Y75002D01*
X31880Y75707D01*
X32090Y76493D01*
Y77307D01*
X31880Y78093D01*
X31473Y78798D01*
X30898Y79373D01*
X30193Y79780D01*
X29407Y79991D01*
D02*
G37*
G36*
X19407D02*
X18593D01*
X17807Y79780D01*
X17102Y79373D01*
X16527Y78798D01*
X16120Y78093D01*
X15909Y77307D01*
Y76493D01*
X16120Y75707D01*
X16527Y75002D01*
X17102Y74427D01*
X17807Y74020D01*
X18593Y73809D01*
X19407D01*
X20193Y74020D01*
X20898Y74427D01*
X21473Y75002D01*
X21880Y75707D01*
X22091Y76493D01*
Y77307D01*
X21880Y78093D01*
X21473Y78798D01*
X20898Y79373D01*
X20193Y79780D01*
X19407Y79991D01*
D02*
G37*
G36*
X39407Y69991D02*
X38593D01*
X37807Y69780D01*
X37102Y69373D01*
X36527Y68798D01*
X36120Y68093D01*
X35909Y67307D01*
Y66493D01*
X36120Y65707D01*
X36527Y65002D01*
X37102Y64427D01*
X37807Y64020D01*
X38593Y63810D01*
X39407D01*
X40193Y64020D01*
X40898Y64427D01*
X41473Y65002D01*
X41880Y65707D01*
X42090Y66493D01*
Y67307D01*
X41880Y68093D01*
X41473Y68798D01*
X40898Y69373D01*
X40193Y69780D01*
X39407Y69991D01*
D02*
G37*
G36*
X29407D02*
X28593D01*
X27807Y69780D01*
X27102Y69373D01*
X26527Y68798D01*
X26120Y68093D01*
X25909Y67307D01*
Y66493D01*
X26120Y65707D01*
X26527Y65002D01*
X27102Y64427D01*
X27807Y64020D01*
X28593Y63810D01*
X29407D01*
X30193Y64020D01*
X30898Y64427D01*
X31473Y65002D01*
X31880Y65707D01*
X32090Y66493D01*
Y67307D01*
X31880Y68093D01*
X31473Y68798D01*
X30898Y69373D01*
X30193Y69780D01*
X29407Y69991D01*
D02*
G37*
G36*
X19407D02*
X18593D01*
X17807Y69780D01*
X17102Y69373D01*
X16527Y68798D01*
X16120Y68093D01*
X15909Y67307D01*
Y66493D01*
X16120Y65707D01*
X16527Y65002D01*
X17102Y64427D01*
X17807Y64020D01*
X18593Y63810D01*
X19407D01*
X20193Y64020D01*
X20898Y64427D01*
X21473Y65002D01*
X21880Y65707D01*
X22091Y66493D01*
Y67307D01*
X21880Y68093D01*
X21473Y68798D01*
X20898Y69373D01*
X20193Y69780D01*
X19407Y69991D01*
D02*
G37*
G36*
X39407Y59991D02*
X38593D01*
X37807Y59780D01*
X37102Y59373D01*
X36527Y58798D01*
X36120Y58093D01*
X35909Y57307D01*
Y56493D01*
X36120Y55707D01*
X36527Y55002D01*
X37102Y54427D01*
X37807Y54020D01*
X38593Y53809D01*
X39407D01*
X40193Y54020D01*
X40898Y54427D01*
X41473Y55002D01*
X41880Y55707D01*
X42090Y56493D01*
Y57307D01*
X41880Y58093D01*
X41473Y58798D01*
X40898Y59373D01*
X40193Y59780D01*
X39407Y59991D01*
D02*
G37*
G36*
X29407D02*
X28593D01*
X27807Y59780D01*
X27102Y59373D01*
X26527Y58798D01*
X26120Y58093D01*
X25909Y57307D01*
Y56493D01*
X26120Y55707D01*
X26527Y55002D01*
X27102Y54427D01*
X27807Y54020D01*
X28593Y53809D01*
X29407D01*
X30193Y54020D01*
X30898Y54427D01*
X31473Y55002D01*
X31880Y55707D01*
X32090Y56493D01*
Y57307D01*
X31880Y58093D01*
X31473Y58798D01*
X30898Y59373D01*
X30193Y59780D01*
X29407Y59991D01*
D02*
G37*
G36*
X19407D02*
X18593D01*
X17807Y59780D01*
X17102Y59373D01*
X16527Y58798D01*
X16120Y58093D01*
X15909Y57307D01*
Y56493D01*
X16120Y55707D01*
X16527Y55002D01*
X17102Y54427D01*
X17807Y54020D01*
X18593Y53809D01*
X19407D01*
X20193Y54020D01*
X20898Y54427D01*
X21473Y55002D01*
X21880Y55707D01*
X22091Y56493D01*
Y57307D01*
X21880Y58093D01*
X21473Y58798D01*
X20898Y59373D01*
X20193Y59780D01*
X19407Y59991D01*
D02*
G37*
G36*
X278502Y45695D02*
X276337D01*
X275492Y45527D01*
X274776Y45048D01*
X274297Y44332D01*
X274247Y44078D01*
X278502D01*
Y45695D01*
D02*
G37*
G36*
Y42897D02*
X274247D01*
X274297Y42643D01*
X274776Y41926D01*
X275492Y41448D01*
X276337Y41280D01*
X278502D01*
Y42897D01*
D02*
G37*
G36*
X310216Y253419D02*
Y250703D01*
X312932D01*
X312744Y251404D01*
X312303Y252167D01*
X311680Y252790D01*
X310917Y253231D01*
X310216Y253419D01*
D02*
G37*
G36*
X309035D02*
X308334Y253231D01*
X307571Y252790D01*
X306948Y252167D01*
X306507Y251404D01*
X306319Y250703D01*
X309035D01*
Y253419D01*
D02*
G37*
G36*
X339988Y252868D02*
X339263D01*
X338562Y252680D01*
X337933Y252318D01*
X337420Y251804D01*
X337057Y251176D01*
X336870Y250475D01*
Y249749D01*
X337057Y249049D01*
X337420Y248420D01*
X337884Y247956D01*
X337855Y247745D01*
X337714Y247456D01*
X333701D01*
X332162Y248995D01*
X332194Y249049D01*
X332381Y249749D01*
Y250475D01*
X332194Y251176D01*
X331831Y251804D01*
X331318Y252318D01*
X330689Y252680D01*
X329988Y252868D01*
X329263D01*
X328562Y252680D01*
X327933Y252318D01*
X327420Y251804D01*
X327057Y251176D01*
X326870Y250475D01*
Y249749D01*
X327057Y249049D01*
X327420Y248420D01*
X327933Y247907D01*
X328562Y247544D01*
X329263Y247356D01*
X329988D01*
X330689Y247544D01*
X330743Y247575D01*
X332575Y245743D01*
X332901Y245526D01*
X333285Y245449D01*
X352635D01*
Y243510D01*
X359525D01*
Y245449D01*
X367905D01*
Y243402D01*
X369952D01*
Y233896D01*
X350627Y214571D01*
X350410Y214246D01*
X350333Y213861D01*
Y198665D01*
X350169Y198500D01*
X349959Y197994D01*
Y197446D01*
X350169Y196939D01*
X350556Y196552D01*
X350570Y196546D01*
X350638Y196386D01*
X350659Y195968D01*
X348581Y193890D01*
X347533D01*
X347298Y194331D01*
X347460Y194573D01*
X347526Y194905D01*
X341691D01*
X335857D01*
X335923Y194573D01*
X336085Y194331D01*
X335850Y193890D01*
X330213D01*
X328025Y196078D01*
X327765Y196252D01*
X327457Y196313D01*
X319811D01*
X319598Y196631D01*
X319077Y196979D01*
X318463Y197101D01*
X312951D01*
X312337Y196979D01*
X311816Y196631D01*
X311468Y196110D01*
X311346Y195495D01*
X311468Y194881D01*
X311816Y194360D01*
X312337Y194012D01*
X312951Y193890D01*
X318463D01*
X319077Y194012D01*
X319598Y194360D01*
X319830Y194707D01*
X327125D01*
X329313Y192519D01*
X329574Y192345D01*
X329881Y192284D01*
X336736D01*
X336888Y191784D01*
X336871Y191772D01*
X336564Y191313D01*
X319811D01*
X319598Y191631D01*
X319077Y191979D01*
X318463Y192101D01*
X312951D01*
X312337Y191979D01*
X311816Y191631D01*
X311468Y191110D01*
X311346Y190495D01*
X311468Y189881D01*
X311816Y189360D01*
X312337Y189012D01*
X312951Y188890D01*
X318463D01*
X319077Y189012D01*
X319598Y189360D01*
X319830Y189707D01*
X336544D01*
X336871Y189218D01*
X337457Y188826D01*
X338148Y188689D01*
X345235D01*
X345926Y188826D01*
X346512Y189218D01*
X346904Y189804D01*
X347041Y190495D01*
X346904Y191186D01*
X346512Y191772D01*
X346495Y191784D01*
X346647Y192284D01*
X348914D01*
X349221Y192345D01*
X349481Y192519D01*
X351670Y194707D01*
X355835D01*
X356162Y194218D01*
X356226Y194175D01*
X356074Y193675D01*
X352655D01*
X352655Y193675D01*
X352348Y193614D01*
X352087Y193440D01*
X352087Y193440D01*
X345830Y187183D01*
X345235Y187302D01*
X338148D01*
X337457Y187164D01*
X336871Y186773D01*
X336479Y186187D01*
X336342Y185495D01*
X336386Y185273D01*
X335925Y185026D01*
X334874Y186078D01*
X334613Y186252D01*
X334306Y186313D01*
X319811D01*
X319598Y186631D01*
X319077Y186979D01*
X318463Y187101D01*
X312951D01*
X312337Y186979D01*
X311816Y186631D01*
X311468Y186110D01*
X311346Y185495D01*
X311468Y184881D01*
X311816Y184360D01*
X312337Y184012D01*
X312951Y183890D01*
X318463D01*
X319077Y184012D01*
X319598Y184360D01*
X319830Y184707D01*
X333973D01*
X336038Y182643D01*
X336038Y182642D01*
X336299Y182468D01*
X336606Y182407D01*
X336921D01*
X337073Y181907D01*
X336871Y181772D01*
X336479Y181186D01*
X336342Y180495D01*
X336479Y179804D01*
X336871Y179218D01*
X337457Y178826D01*
X338148Y178689D01*
X345235D01*
X345926Y178826D01*
X346512Y179218D01*
X346839Y179707D01*
X354157D01*
X354464Y179769D01*
X354725Y179943D01*
X355149Y180367D01*
X355691Y180202D01*
X355771Y179804D01*
X356162Y179218D01*
X356748Y178826D01*
X357439Y178689D01*
X364526D01*
X365217Y178826D01*
X365803Y179218D01*
X366130Y179707D01*
X367592D01*
X367899Y179769D01*
X368160Y179943D01*
X376905Y188688D01*
X377091Y188692D01*
X377463Y188624D01*
X377761Y188179D01*
X378281Y187831D01*
X378896Y187708D01*
X385195D01*
X385587Y187786D01*
X387245Y186128D01*
X387506Y185954D01*
X387813Y185893D01*
X396422D01*
X396556Y185642D01*
X396621Y185393D01*
X396310Y184929D01*
X396188Y184314D01*
X396310Y183700D01*
X396658Y183179D01*
X397104Y182881D01*
X397084Y182562D01*
X397021Y182381D01*
X389859D01*
X387443Y184796D01*
X387183Y184970D01*
X386875Y185031D01*
X386610D01*
X386331Y185450D01*
X385810Y185798D01*
X385195Y185920D01*
X378896D01*
X378281Y185798D01*
X377761Y185450D01*
X377413Y184929D01*
X377290Y184314D01*
X377341Y184061D01*
X369593Y176313D01*
X366110D01*
X365803Y176772D01*
X365217Y177164D01*
X364526Y177302D01*
X357439D01*
X356748Y177164D01*
X356162Y176772D01*
X355771Y176187D01*
X355633Y175495D01*
X355771Y174804D01*
X356162Y174218D01*
X356748Y173826D01*
X357439Y173689D01*
X364526D01*
X365217Y173826D01*
X365803Y174218D01*
X366130Y174707D01*
X369925D01*
X370232Y174768D01*
X370493Y174943D01*
X378365Y182814D01*
X378896Y182709D01*
X385195D01*
X385810Y182831D01*
X386331Y183179D01*
X386875Y183094D01*
X388958Y181010D01*
X388958Y181010D01*
X389219Y180836D01*
X389526Y180775D01*
X389526Y180775D01*
X396314D01*
X396542Y180275D01*
X396310Y179929D01*
X396188Y179314D01*
X396310Y178700D01*
X396658Y178179D01*
X397179Y177831D01*
X397794Y177708D01*
X399940D01*
Y175920D01*
X397794D01*
X397179Y175798D01*
X396658Y175450D01*
X396310Y174929D01*
X396188Y174314D01*
X396310Y173700D01*
X396658Y173179D01*
X397179Y172831D01*
X397794Y172708D01*
X404093D01*
X404707Y172831D01*
X405228Y173179D01*
X405576Y173700D01*
X405698Y174314D01*
X405576Y174929D01*
X405228Y175450D01*
X404707Y175798D01*
X404093Y175920D01*
X401947D01*
Y177708D01*
X404093D01*
X404707Y177831D01*
X405228Y178179D01*
X405283Y178261D01*
X405854D01*
X406068Y178048D01*
X406575Y177838D01*
X406808D01*
X413045Y171601D01*
X413370Y171383D01*
X413754Y171307D01*
X471160D01*
X471238Y171019D01*
X471678Y170255D01*
X472301Y169632D01*
X473064Y169192D01*
X473915Y168964D01*
X474796D01*
X475648Y169192D01*
X476411Y169632D01*
X477034Y170255D01*
X477474Y171019D01*
X477552Y171307D01*
X492463D01*
X492847Y171383D01*
X493173Y171601D01*
X498603Y177031D01*
X517872D01*
X518257Y177108D01*
X518582Y177325D01*
X523693Y182436D01*
X523911Y182762D01*
X523987Y183146D01*
Y186817D01*
X524487Y186951D01*
X524567Y186813D01*
X525260Y186120D01*
X526108Y185631D01*
X527054Y185377D01*
X528034D01*
X528980Y185631D01*
X529829Y186120D01*
X530521Y186813D01*
X531011Y187662D01*
X531265Y188608D01*
Y189587D01*
X531011Y190534D01*
X530760Y190968D01*
X533007Y193215D01*
X533181Y193475D01*
X533242Y193783D01*
X533242Y193783D01*
Y202838D01*
X533242Y202838D01*
X533181Y203145D01*
X533007Y203405D01*
X533007Y203405D01*
X530645Y205768D01*
X530384Y205942D01*
X530077Y206003D01*
X524504D01*
X518957Y211550D01*
X519125Y212035D01*
X519137Y212050D01*
X520674D01*
Y215771D01*
X512052D01*
Y212408D01*
X512052Y212050D01*
X511611Y211908D01*
X477704D01*
X477702Y211909D01*
Y212751D01*
X477474Y213602D01*
X477034Y214365D01*
X476411Y214988D01*
X475648Y215429D01*
X474796Y215657D01*
X473915D01*
X473064Y215429D01*
X472301Y214988D01*
X471678Y214365D01*
X471238Y213602D01*
X471009Y212751D01*
Y211870D01*
X471091Y211566D01*
X470545Y211020D01*
X433783D01*
X433783Y211020D01*
X433476Y210959D01*
X433216Y210785D01*
X430884Y208454D01*
X427492D01*
Y205455D01*
X425050Y203013D01*
X407786D01*
X407579Y203513D01*
X407799Y203733D01*
X408008Y204240D01*
Y204788D01*
X407799Y205294D01*
X407411Y205682D01*
X406905Y205892D01*
X406356D01*
X405850Y205682D01*
X405745Y205577D01*
X405229Y205450D01*
X405070Y205555D01*
X404707Y205798D01*
X404093Y205920D01*
X401947D01*
Y207709D01*
X404093D01*
X404707Y207831D01*
X405228Y208179D01*
X405576Y208700D01*
X405698Y209314D01*
X405576Y209929D01*
X405228Y210450D01*
X404707Y210798D01*
X404093Y210920D01*
X397794D01*
X397179Y210798D01*
X396658Y210450D01*
X396310Y209929D01*
X396188Y209314D01*
X396310Y208700D01*
X396658Y208179D01*
X397179Y207831D01*
X397794Y207709D01*
X399940D01*
Y205920D01*
X397794D01*
X397179Y205798D01*
X396658Y205450D01*
X396310Y204929D01*
X396188Y204314D01*
X396310Y203700D01*
X396435Y203513D01*
X396167Y203013D01*
X393623D01*
X393316Y202952D01*
X393056Y202778D01*
X390394Y200117D01*
X386553D01*
X386331Y200449D01*
X385810Y200798D01*
X385195Y200920D01*
X378896D01*
X378281Y200798D01*
X377761Y200449D01*
X377740Y200419D01*
X377647Y200437D01*
X376086D01*
X375779Y200376D01*
X375518Y200202D01*
X375518Y200202D01*
X368992Y193675D01*
X365891D01*
X365740Y194175D01*
X365803Y194218D01*
X366195Y194804D01*
X366333Y195495D01*
X366195Y196186D01*
X365803Y196773D01*
X365217Y197164D01*
X364526Y197302D01*
X357439D01*
X356748Y197164D01*
X356162Y196773D01*
X355855Y196313D01*
X352586D01*
X352379Y196813D01*
X352505Y196939D01*
X352715Y197446D01*
Y197994D01*
X352505Y198500D01*
X352341Y198665D01*
Y213446D01*
X367036Y228141D01*
X367484Y227883D01*
X367344Y227358D01*
X370956D01*
Y226768D01*
D01*
Y227358D01*
X374568D01*
X374427Y227882D01*
X374876Y228141D01*
X386573Y216444D01*
Y215950D01*
X386783Y215443D01*
X387171Y215055D01*
X387677Y214846D01*
X388225D01*
X388732Y215055D01*
X389119Y215443D01*
X389329Y215950D01*
Y216498D01*
X389119Y217004D01*
X388732Y217392D01*
X388274Y217582D01*
X371959Y233896D01*
Y243402D01*
X374007D01*
Y249504D01*
X367905D01*
Y247456D01*
X359525D01*
Y249612D01*
X352635D01*
Y247456D01*
X341537D01*
X341396Y247745D01*
X341367Y247956D01*
X341831Y248420D01*
X342194Y249049D01*
X342381Y249749D01*
Y250475D01*
X342194Y251176D01*
X341831Y251804D01*
X341318Y252318D01*
X340689Y252680D01*
X339988Y252868D01*
D02*
G37*
G36*
X319988D02*
X319263D01*
X318562Y252680D01*
X317933Y252318D01*
X317420Y251804D01*
X317057Y251176D01*
X316870Y250475D01*
Y249749D01*
X317057Y249049D01*
X317420Y248420D01*
X317933Y247907D01*
X318562Y247544D01*
X319263Y247356D01*
X319988D01*
X320689Y247544D01*
X321318Y247907D01*
X321831Y248420D01*
X322194Y249049D01*
X322381Y249749D01*
Y250475D01*
X322194Y251176D01*
X321831Y251804D01*
X321318Y252318D01*
X320689Y252680D01*
X319988Y252868D01*
D02*
G37*
G36*
X312932Y249522D02*
X310216D01*
Y246806D01*
X310917Y246994D01*
X311680Y247434D01*
X312303Y248058D01*
X312744Y248821D01*
X312932Y249522D01*
D02*
G37*
G36*
X309035D02*
X306319D01*
X306507Y248821D01*
X306948Y248058D01*
X307571Y247434D01*
X308334Y246994D01*
X309035Y246806D01*
Y249522D01*
D02*
G37*
G36*
X360116Y242328D02*
X356671D01*
Y239277D01*
X360116D01*
Y242328D01*
D02*
G37*
G36*
X355490D02*
X352045D01*
Y239277D01*
X355490D01*
Y242328D01*
D02*
G37*
G36*
X360116Y238096D02*
X356671D01*
Y235045D01*
X360116D01*
Y238096D01*
D02*
G37*
G36*
X355490D02*
X352045D01*
Y235045D01*
X355490D01*
Y238096D01*
D02*
G37*
G36*
X522915Y253507D02*
X520992D01*
X519106Y253132D01*
X517329Y252396D01*
X515730Y251327D01*
X514369Y249967D01*
X513301Y248368D01*
X512565Y246591D01*
X512190Y244705D01*
Y242782D01*
X512565Y240895D01*
X513301Y239118D01*
X514369Y237519D01*
X515730Y236159D01*
X517329Y235091D01*
X519106Y234355D01*
X520992Y233980D01*
X522915D01*
X524801Y234355D01*
X526578Y235091D01*
X528178Y236159D01*
X529538Y237519D01*
X530606Y239118D01*
X531342Y240895D01*
X531717Y242782D01*
Y244705D01*
X531342Y246591D01*
X530606Y248368D01*
X529538Y249967D01*
X528178Y251327D01*
X526578Y252396D01*
X524801Y253132D01*
X522915Y253507D01*
D02*
G37*
G36*
X374568Y226177D02*
X371547D01*
Y223156D01*
X372361Y223374D01*
X373192Y223853D01*
X373870Y224532D01*
X374349Y225362D01*
X374568Y226177D01*
D02*
G37*
G36*
X370365D02*
X367344D01*
X367562Y225362D01*
X368042Y224532D01*
X368720Y223853D01*
X369550Y223374D01*
X370365Y223156D01*
Y226177D01*
D02*
G37*
G36*
X520674Y220672D02*
X516954D01*
Y216952D01*
X520674D01*
Y220672D01*
D02*
G37*
G36*
X515772D02*
X512052D01*
Y216952D01*
X515772D01*
Y220672D01*
D02*
G37*
G36*
X318463Y212703D02*
X316298D01*
Y211086D01*
X320553D01*
X320503Y211340D01*
X320024Y212056D01*
X319308Y212535D01*
X318463Y212703D01*
D02*
G37*
G36*
X315117D02*
X312951D01*
X312106Y212535D01*
X311390Y212056D01*
X310911Y211340D01*
X310861Y211086D01*
X315117D01*
Y212703D01*
D02*
G37*
G36*
X364526Y212904D02*
X361573D01*
Y211086D01*
X366817D01*
X366751Y211417D01*
X366229Y212198D01*
X365448Y212720D01*
X364526Y212904D01*
D02*
G37*
G36*
X360392D02*
X357439D01*
X356518Y212720D01*
X355736Y212198D01*
X355214Y211417D01*
X355149Y211086D01*
X360392D01*
Y212904D01*
D02*
G37*
G36*
X345235D02*
X342282D01*
Y211086D01*
X347526D01*
X347460Y211417D01*
X346938Y212198D01*
X346156Y212720D01*
X345235Y212904D01*
D02*
G37*
G36*
X341101D02*
X338148D01*
X337226Y212720D01*
X336445Y212198D01*
X335923Y211417D01*
X335857Y211086D01*
X341101D01*
Y212904D01*
D02*
G37*
G36*
X320553Y209905D02*
X316298D01*
Y208288D01*
X318463D01*
X319308Y208455D01*
X320024Y208934D01*
X320503Y209650D01*
X320553Y209905D01*
D02*
G37*
G36*
X315117D02*
X310861D01*
X310911Y209650D01*
X311390Y208934D01*
X312106Y208455D01*
X312951Y208288D01*
X315117D01*
Y209905D01*
D02*
G37*
G36*
X366817Y209905D02*
X361573D01*
Y208087D01*
X364526D01*
X365448Y208270D01*
X366229Y208792D01*
X366751Y209574D01*
X366817Y209905D01*
D02*
G37*
G36*
X360392D02*
X355149D01*
X355214Y209574D01*
X355736Y208792D01*
X356518Y208270D01*
X357439Y208087D01*
X360392D01*
Y209905D01*
D02*
G37*
G36*
X528034Y214629D02*
X527054D01*
X526108Y214376D01*
X525260Y213886D01*
X524567Y213193D01*
X524077Y212345D01*
X523824Y211399D01*
Y210419D01*
X524077Y209473D01*
X524567Y208624D01*
X525260Y207931D01*
X526108Y207442D01*
X527054Y207188D01*
X528034D01*
X528980Y207442D01*
X529829Y207931D01*
X530521Y208624D01*
X531011Y209473D01*
X531265Y210419D01*
Y211399D01*
X531011Y212345D01*
X530521Y213193D01*
X529829Y213886D01*
X528980Y214376D01*
X528034Y214629D01*
D02*
G37*
G36*
X347526Y209905D02*
X341691D01*
X335857D01*
X335923Y209574D01*
X336445Y208792D01*
X337226Y208270D01*
X337327Y208250D01*
Y207740D01*
X337226Y207720D01*
X336445Y207198D01*
X335923Y206417D01*
X335857Y206086D01*
X341691D01*
X347526D01*
X347460Y206417D01*
X346938Y207198D01*
X346156Y207720D01*
X346056Y207740D01*
Y208250D01*
X346156Y208270D01*
X346938Y208792D01*
X347460Y209574D01*
X347526Y209905D01*
D02*
G37*
G36*
X318463Y207101D02*
X312951D01*
X312337Y206979D01*
X311816Y206631D01*
X311468Y206110D01*
X311346Y205495D01*
X311468Y204881D01*
X311816Y204360D01*
X312337Y204012D01*
X312951Y203890D01*
X318463D01*
X319077Y204012D01*
X319598Y204360D01*
X319946Y204881D01*
X320069Y205495D01*
X319946Y206110D01*
X319598Y206631D01*
X319077Y206979D01*
X318463Y207101D01*
D02*
G37*
G36*
X347526Y204905D02*
X342282D01*
Y203087D01*
X345235D01*
X346156Y203270D01*
X346938Y203792D01*
X347460Y204573D01*
X347526Y204905D01*
D02*
G37*
G36*
X341101D02*
X335857D01*
X335923Y204573D01*
X336445Y203792D01*
X337226Y203270D01*
X338148Y203087D01*
X341101D01*
Y204905D01*
D02*
G37*
G36*
X318463Y202101D02*
X312951D01*
X312337Y201979D01*
X311816Y201631D01*
X311468Y201110D01*
X311346Y200495D01*
X311468Y199881D01*
X311816Y199360D01*
X312337Y199012D01*
X312951Y198890D01*
X318463D01*
X319077Y199012D01*
X319598Y199360D01*
X319946Y199881D01*
X320069Y200495D01*
X319946Y201110D01*
X319598Y201631D01*
X319077Y201979D01*
X318463Y202101D01*
D02*
G37*
G36*
X345235Y202302D02*
X338148D01*
X337457Y202164D01*
X336871Y201772D01*
X336479Y201186D01*
X336342Y200495D01*
X336479Y199804D01*
X336871Y199218D01*
X337457Y198826D01*
X338148Y198689D01*
X345235D01*
X345926Y198826D01*
X346512Y199218D01*
X346904Y199804D01*
X347041Y200495D01*
X346904Y201186D01*
X346512Y201772D01*
X345926Y202164D01*
X345235Y202302D01*
D02*
G37*
G36*
Y197904D02*
X342282D01*
Y196086D01*
X347526D01*
X347460Y196417D01*
X346938Y197198D01*
X346156Y197720D01*
X345235Y197904D01*
D02*
G37*
G36*
X341101D02*
X338148D01*
X337226Y197720D01*
X336445Y197198D01*
X335923Y196417D01*
X335857Y196086D01*
X341101D01*
Y197904D01*
D02*
G37*
G36*
X474796Y225657D02*
X473915D01*
X473064Y225429D01*
X472301Y224988D01*
X471678Y224365D01*
X471238Y223602D01*
X471009Y222751D01*
Y221870D01*
X471238Y221019D01*
X471678Y220255D01*
X472301Y219632D01*
X473064Y219192D01*
X473915Y218964D01*
X474796D01*
X475648Y219192D01*
X476411Y219632D01*
X477034Y220255D01*
X477474Y221019D01*
X477605Y221507D01*
X525627D01*
X534786Y212348D01*
Y186320D01*
X529706Y181240D01*
X528980Y181659D01*
X528034Y181913D01*
X527054D01*
X526108Y181659D01*
X525260Y181169D01*
X524567Y180476D01*
X524077Y179628D01*
X523824Y178682D01*
Y177702D01*
X524077Y176756D01*
X524567Y175908D01*
X525260Y175215D01*
X526108Y174725D01*
X527054Y174472D01*
X528034D01*
X528980Y174725D01*
X529829Y175215D01*
X530521Y175908D01*
X531011Y176756D01*
X531265Y177702D01*
Y178682D01*
X531011Y179628D01*
X530775Y180038D01*
X536157Y185420D01*
X536157Y185420D01*
X536331Y185680D01*
X536392Y185987D01*
X536392Y185987D01*
Y212680D01*
X536392Y212680D01*
X536331Y212987D01*
X536157Y213248D01*
X536157Y213248D01*
X526527Y222878D01*
X526266Y223052D01*
X525959Y223113D01*
X477605D01*
X477474Y223602D01*
X477034Y224365D01*
X476411Y224988D01*
X475648Y225429D01*
X474796Y225657D01*
D02*
G37*
G36*
X318463Y182703D02*
X316298D01*
Y181086D01*
X320553D01*
X320503Y181340D01*
X320024Y182056D01*
X319308Y182535D01*
X318463Y182703D01*
D02*
G37*
G36*
X315117D02*
X312951D01*
X312106Y182535D01*
X311390Y182056D01*
X310911Y181340D01*
X310861Y181086D01*
X315117D01*
Y182703D01*
D02*
G37*
G36*
X320553Y179905D02*
X316298D01*
Y178287D01*
X318463D01*
X319308Y178455D01*
X320024Y178934D01*
X320503Y179650D01*
X320553Y179905D01*
D02*
G37*
G36*
X315117D02*
X310861D01*
X310911Y179650D01*
X311390Y178934D01*
X312106Y178455D01*
X312951Y178287D01*
X315117D01*
Y179905D01*
D02*
G37*
G36*
X385195Y180920D02*
X378896D01*
X378281Y180798D01*
X377761Y180449D01*
X377413Y179929D01*
X377290Y179314D01*
X377413Y178700D01*
X377761Y178179D01*
X378281Y177831D01*
X378896Y177708D01*
X385195D01*
X385810Y177831D01*
X386331Y178179D01*
X386679Y178700D01*
X386801Y179314D01*
X386679Y179929D01*
X386331Y180449D01*
X385810Y180798D01*
X385195Y180920D01*
D02*
G37*
G36*
X332753Y178746D02*
X325864D01*
Y176499D01*
X319686D01*
X319598Y176631D01*
X319077Y176979D01*
X318463Y177101D01*
X312951D01*
X312337Y176979D01*
X311816Y176631D01*
X311468Y176110D01*
X311346Y175495D01*
X311468Y174881D01*
X311816Y174360D01*
X312337Y174012D01*
X312951Y173890D01*
X318463D01*
X319077Y174012D01*
X319598Y174360D01*
X319686Y174492D01*
X325864D01*
Y172643D01*
X332753D01*
Y174492D01*
X336688D01*
X336871Y174218D01*
X337457Y173826D01*
X338148Y173689D01*
X345235D01*
X345926Y173826D01*
X346512Y174218D01*
X346601Y174351D01*
X349529D01*
X349769Y174111D01*
X350275Y173901D01*
X350824D01*
X351330Y174111D01*
X351718Y174498D01*
X351928Y175005D01*
Y175553D01*
X351718Y176059D01*
X351330Y176447D01*
X350824Y176657D01*
X350275D01*
X349769Y176447D01*
X349680Y176358D01*
X346789D01*
X346512Y176772D01*
X345926Y177164D01*
X345235Y177302D01*
X338148D01*
X337457Y177164D01*
X336871Y176772D01*
X336688Y176499D01*
X332753D01*
Y178746D01*
D02*
G37*
G36*
X477702Y235657D02*
X471009D01*
Y230099D01*
X464652Y223741D01*
X443849D01*
X443384Y223824D01*
X443384Y224241D01*
Y225657D01*
X463183D01*
X463549Y225292D01*
X464055Y225082D01*
X464603D01*
X465110Y225292D01*
X465497Y225679D01*
X465707Y226186D01*
Y226734D01*
X465497Y227240D01*
X465110Y227628D01*
X464603Y227838D01*
X464055D01*
X463549Y227628D01*
X463183Y227263D01*
X443384D01*
Y229927D01*
X436494D01*
Y227656D01*
X402735D01*
X402735Y227656D01*
X402427Y227595D01*
X402167Y227421D01*
X402167Y227421D01*
X385587Y210842D01*
X385195Y210920D01*
X378896D01*
X378281Y210798D01*
X377761Y210450D01*
X377752Y210437D01*
X373882D01*
X373574Y210376D01*
X373314Y210202D01*
X373314Y210202D01*
X369425Y206313D01*
X366110D01*
X365803Y206772D01*
X365217Y207164D01*
X364526Y207302D01*
X357439D01*
X356748Y207164D01*
X356162Y206772D01*
X355771Y206187D01*
X355633Y205495D01*
X355771Y204804D01*
X356162Y204218D01*
X356748Y203826D01*
X357439Y203689D01*
X364526D01*
X365217Y203826D01*
X365803Y204218D01*
X366130Y204707D01*
X369758D01*
X370065Y204768D01*
X370325Y204943D01*
X374214Y208831D01*
X377386D01*
X377413Y208700D01*
X377761Y208179D01*
X378281Y207831D01*
X378896Y207709D01*
X385195D01*
X385810Y207831D01*
X386331Y208179D01*
X386679Y208700D01*
X386801Y209314D01*
X386723Y209706D01*
X403067Y226051D01*
X436494D01*
X436494Y223824D01*
X436028Y223741D01*
X432928D01*
X432620Y223680D01*
X432360Y223506D01*
X432360Y223506D01*
X430884Y222031D01*
X427492D01*
Y219487D01*
X399861D01*
X399861Y219487D01*
X399553Y219426D01*
X399293Y219252D01*
X385827Y205786D01*
X385810Y205798D01*
X385195Y205920D01*
X378896D01*
X378281Y205798D01*
X377761Y205450D01*
X377740Y205418D01*
X374375D01*
X374067Y205357D01*
X373807Y205183D01*
X373807Y205183D01*
X369937Y201313D01*
X366110D01*
X365803Y201772D01*
X365217Y202164D01*
X364526Y202302D01*
X357439D01*
X356748Y202164D01*
X356162Y201772D01*
X355771Y201186D01*
X355633Y200495D01*
X355771Y199804D01*
X356162Y199218D01*
X356748Y198826D01*
X357439Y198689D01*
X364526D01*
X365217Y198826D01*
X365803Y199218D01*
X366130Y199707D01*
X370269D01*
X370577Y199768D01*
X370837Y199943D01*
X374707Y203813D01*
X377390D01*
X377413Y203700D01*
X377761Y203179D01*
X378281Y202831D01*
X378896Y202709D01*
X385195D01*
X385810Y202831D01*
X386331Y203179D01*
X386679Y203700D01*
X386801Y204314D01*
X386772Y204460D01*
X400193Y217881D01*
X428476D01*
X428554Y217897D01*
X432020D01*
Y220895D01*
X433260Y222136D01*
X436028D01*
X436494Y222053D01*
X436494Y221636D01*
Y217086D01*
X435056Y215649D01*
X432020D01*
Y216913D01*
X427492D01*
Y212779D01*
X432020D01*
Y214043D01*
X435389D01*
X435696Y214104D01*
X435957Y214278D01*
X437629Y215950D01*
X443384D01*
X443384Y222053D01*
X443849Y222136D01*
X464984D01*
X465292Y222197D01*
X465552Y222371D01*
X472145Y228964D01*
X477702D01*
Y231507D01*
X519563D01*
X537079Y213992D01*
Y181332D01*
X528560Y172813D01*
X520083D01*
Y173229D01*
X519830Y174175D01*
X519340Y175024D01*
X518647Y175716D01*
X517799Y176206D01*
X516853Y176460D01*
X515873D01*
X514927Y176206D01*
X514079Y175716D01*
X513386Y175024D01*
X512896Y174175D01*
X512642Y173229D01*
Y172249D01*
X512896Y171303D01*
X513386Y170455D01*
X514079Y169762D01*
X514927Y169272D01*
X515873Y169019D01*
X516853D01*
X517799Y169272D01*
X518647Y169762D01*
X519340Y170455D01*
X519774Y171207D01*
X528893D01*
X529200Y171268D01*
X529460Y171443D01*
X538449Y180432D01*
X538450Y180432D01*
X538624Y180692D01*
X538685Y180999D01*
X538685Y180999D01*
Y214324D01*
X538624Y214632D01*
X538450Y214892D01*
X538449Y214892D01*
X520464Y232878D01*
X520203Y233052D01*
X519896Y233113D01*
X477702D01*
Y235657D01*
D02*
G37*
G36*
X385195Y175920D02*
X378896D01*
X378281Y175798D01*
X377761Y175450D01*
X377413Y174929D01*
X377290Y174314D01*
X377413Y173700D01*
X377761Y173179D01*
X378281Y172831D01*
X378896Y172708D01*
X385195D01*
X385810Y172831D01*
X386331Y173179D01*
X386679Y173700D01*
X386801Y174314D01*
X386679Y174929D01*
X386331Y175450D01*
X385810Y175798D01*
X385195Y175920D01*
D02*
G37*
G36*
X333344Y171462D02*
X329899D01*
Y168411D01*
X333344D01*
Y171462D01*
D02*
G37*
G36*
X328718D02*
X325273D01*
Y168411D01*
X328718D01*
Y171462D01*
D02*
G37*
G36*
X333344Y167230D02*
X329899D01*
Y164179D01*
X333344D01*
Y167230D01*
D02*
G37*
G36*
X328718D02*
X325273D01*
Y164179D01*
X328718D01*
Y167230D01*
D02*
G37*
G36*
X474946Y166228D02*
Y162901D01*
X478274D01*
X478025Y163830D01*
X477506Y164728D01*
X476773Y165461D01*
X475876Y165979D01*
X474946Y166228D01*
D02*
G37*
G36*
X473765Y166228D02*
X472836Y165979D01*
X471939Y165461D01*
X471206Y164728D01*
X470687Y163830D01*
X470438Y162901D01*
X473765D01*
Y166228D01*
D02*
G37*
G36*
Y161720D02*
X470438D01*
X470687Y160791D01*
X471206Y159893D01*
X471939Y159160D01*
X472836Y158642D01*
X473765Y158393D01*
Y161720D01*
D02*
G37*
G36*
X478273D02*
X474946D01*
Y158393D01*
X475876Y158642D01*
X476773Y159160D01*
X477506Y159893D01*
X478025Y160791D01*
X478273Y161720D01*
D02*
G37*
G36*
X289035Y116411D02*
X288334Y116223D01*
X287571Y115782D01*
X286948Y115159D01*
X286507Y114396D01*
X286319Y113695D01*
X289035D01*
Y116411D01*
D02*
G37*
G36*
X282381Y115860D02*
X276870D01*
Y110349D01*
X282381D01*
Y115860D01*
D02*
G37*
G36*
X289035Y112514D02*
X286319D01*
X286507Y111813D01*
X286948Y111050D01*
X287571Y110427D01*
X288334Y109986D01*
X289035Y109798D01*
Y112514D01*
D02*
G37*
G36*
X272052Y81002D02*
X268607D01*
Y77951D01*
X272052D01*
Y81002D01*
D02*
G37*
G36*
X278502Y75695D02*
X276337D01*
X275492Y75527D01*
X274776Y75049D01*
X274297Y74332D01*
X274247Y74078D01*
X278502D01*
Y75695D01*
D02*
G37*
G36*
X272052Y76770D02*
X268607D01*
Y73719D01*
X272052D01*
Y76770D01*
D02*
G37*
G36*
X278502Y72897D02*
X274247D01*
X274297Y72642D01*
X274776Y71926D01*
X275492Y71448D01*
X276337Y71280D01*
X278502D01*
Y72897D01*
D02*
G37*
G36*
X310216Y116411D02*
Y113695D01*
X312932D01*
X312744Y114396D01*
X312303Y115159D01*
X311680Y115782D01*
X310917Y116223D01*
X310216Y116411D01*
D02*
G37*
G36*
X309035D02*
X308334Y116223D01*
X307571Y115782D01*
X306948Y115159D01*
X306507Y114396D01*
X306319Y113695D01*
X309035D01*
Y116411D01*
D02*
G37*
G36*
X339988Y115860D02*
X339263D01*
X338562Y115673D01*
X337933Y115310D01*
X337420Y114797D01*
X337057Y114168D01*
X336870Y113467D01*
Y112742D01*
X337057Y112041D01*
X337420Y111412D01*
X337884Y110949D01*
X337855Y110737D01*
X337714Y110449D01*
X332126D01*
X331496Y111078D01*
X331831Y111412D01*
X332194Y112041D01*
X332381Y112742D01*
Y113467D01*
X332194Y114168D01*
X331831Y114797D01*
X331318Y115310D01*
X330689Y115673D01*
X329988Y115860D01*
X329263D01*
X328562Y115673D01*
X327933Y115310D01*
X327420Y114797D01*
X327057Y114168D01*
X326870Y113467D01*
Y112742D01*
X327057Y112041D01*
X327420Y111412D01*
X327933Y110899D01*
X328562Y110536D01*
X329263Y110349D01*
X329387D01*
X331000Y108735D01*
X331326Y108518D01*
X331710Y108441D01*
X351186D01*
Y106199D01*
X358076D01*
Y108441D01*
X366330D01*
Y106394D01*
X368377D01*
Y96888D01*
X349053Y77563D01*
X348835Y77238D01*
X348759Y76854D01*
Y61657D01*
X348594Y61492D01*
X348384Y60986D01*
Y60438D01*
X348594Y59931D01*
X348982Y59544D01*
X348995Y59538D01*
X349063Y59379D01*
X349084Y58960D01*
X347006Y56882D01*
X345958D01*
X345723Y57323D01*
X345885Y57566D01*
X345951Y57897D01*
X340117D01*
X334282D01*
X334348Y57566D01*
X334510Y57323D01*
X334275Y56882D01*
X328639D01*
X326450Y59070D01*
X326190Y59244D01*
X325883Y59305D01*
X319811D01*
X319598Y59623D01*
X319077Y59971D01*
X318463Y60093D01*
X312951D01*
X312337Y59971D01*
X311816Y59623D01*
X311468Y59102D01*
X311346Y58487D01*
X311468Y57873D01*
X311816Y57352D01*
X312337Y57004D01*
X312951Y56882D01*
X318463D01*
X319077Y57004D01*
X319598Y57352D01*
X319830Y57700D01*
X325550D01*
X327738Y55511D01*
X327999Y55337D01*
X328306Y55276D01*
X335161D01*
X335313Y54776D01*
X335296Y54765D01*
X334989Y54305D01*
X319811D01*
X319598Y54623D01*
X319077Y54971D01*
X318463Y55093D01*
X312951D01*
X312337Y54971D01*
X311816Y54623D01*
X311468Y54102D01*
X311346Y53487D01*
X311468Y52873D01*
X311816Y52352D01*
X312337Y52004D01*
X312951Y51882D01*
X318463D01*
X319077Y52004D01*
X319598Y52352D01*
X319830Y52700D01*
X334969D01*
X335296Y52210D01*
X335882Y51819D01*
X336573Y51681D01*
X343660D01*
X344351Y51819D01*
X344937Y52210D01*
X345329Y52796D01*
X345466Y53487D01*
X345329Y54179D01*
X344937Y54765D01*
X344920Y54776D01*
X345072Y55276D01*
X347339D01*
X347646Y55337D01*
X347906Y55511D01*
X350095Y57700D01*
X354260D01*
X354587Y57210D01*
X354651Y57167D01*
X354500Y56667D01*
X351080D01*
X351080Y56667D01*
X350773Y56606D01*
X350512Y56432D01*
X350512Y56432D01*
X344255Y50175D01*
X343660Y50294D01*
X336573D01*
X335882Y50156D01*
X335296Y49765D01*
X334905Y49179D01*
X334767Y48487D01*
X334811Y48265D01*
X334350Y48018D01*
X333299Y49070D01*
X333038Y49244D01*
X332731Y49305D01*
X319811D01*
X319598Y49623D01*
X319077Y49971D01*
X318463Y50093D01*
X312951D01*
X312337Y49971D01*
X311816Y49623D01*
X311468Y49102D01*
X311346Y48487D01*
X311468Y47873D01*
X311816Y47352D01*
X312337Y47004D01*
X312951Y46882D01*
X318463D01*
X319077Y47004D01*
X319598Y47352D01*
X319830Y47699D01*
X332399D01*
X334463Y45635D01*
X334463Y45635D01*
X334724Y45461D01*
X335031Y45399D01*
X335346D01*
X335498Y44899D01*
X335296Y44765D01*
X334905Y44179D01*
X334767Y43487D01*
X334905Y42796D01*
X335296Y42210D01*
X335882Y41818D01*
X336573Y41681D01*
X343660D01*
X344351Y41818D01*
X344937Y42210D01*
X345264Y42700D01*
X352582D01*
X352889Y42761D01*
X353150Y42935D01*
X353574Y43359D01*
X354117Y43194D01*
X354196Y42796D01*
X354587Y42210D01*
X355173Y41818D01*
X355865Y41681D01*
X362951D01*
X363643Y41818D01*
X364229Y42210D01*
X364556Y42700D01*
X366017D01*
X366325Y42761D01*
X366585Y42935D01*
X375330Y51680D01*
X375516Y51684D01*
X375888Y51616D01*
X376186Y51171D01*
X376707Y50823D01*
X377321Y50701D01*
X383620D01*
X384013Y50779D01*
X385671Y49121D01*
X385931Y48946D01*
X386238Y48885D01*
X394847D01*
X394981Y48634D01*
X395046Y48385D01*
X394735Y47921D01*
X394613Y47306D01*
X394735Y46692D01*
X395083Y46171D01*
X395529Y45873D01*
X395510Y45554D01*
X395446Y45373D01*
X388284D01*
X385868Y47788D01*
X385608Y47962D01*
X385301Y48024D01*
X385035D01*
X384756Y48442D01*
X384235Y48790D01*
X383620Y48912D01*
X377321D01*
X376707Y48790D01*
X376186Y48442D01*
X375838Y47921D01*
X375715Y47306D01*
X375766Y47053D01*
X368018Y39305D01*
X364536D01*
X364229Y39765D01*
X363643Y40156D01*
X362951Y40294D01*
X355865D01*
X355173Y40156D01*
X354587Y39765D01*
X354196Y39179D01*
X354058Y38487D01*
X354196Y37796D01*
X354587Y37210D01*
X355173Y36819D01*
X355865Y36681D01*
X362951D01*
X363643Y36819D01*
X364229Y37210D01*
X364556Y37699D01*
X368350D01*
X368658Y37761D01*
X368918Y37935D01*
X376790Y45806D01*
X377321Y45701D01*
X383620D01*
X384235Y45823D01*
X384756Y46171D01*
X385300Y46086D01*
X387384Y44002D01*
X387384Y44002D01*
X387644Y43828D01*
X387951Y43767D01*
X387951Y43767D01*
X394739D01*
X394967Y43267D01*
X394735Y42921D01*
X394613Y42306D01*
X394735Y41692D01*
X395083Y41171D01*
X395604Y40823D01*
X396219Y40701D01*
X398365D01*
Y38912D01*
X396219D01*
X395604Y38790D01*
X395083Y38442D01*
X394735Y37921D01*
X394613Y37306D01*
X394735Y36692D01*
X395083Y36171D01*
X395604Y35823D01*
X396219Y35701D01*
X402518D01*
X403132Y35823D01*
X403653Y36171D01*
X404001Y36692D01*
X404124Y37306D01*
X404001Y37921D01*
X403653Y38442D01*
X403132Y38790D01*
X402518Y38912D01*
X400372D01*
Y40701D01*
X402518D01*
X403132Y40823D01*
X403653Y41171D01*
X403709Y41254D01*
X404280D01*
X404494Y41040D01*
X405000Y40830D01*
X405233D01*
X411470Y34593D01*
X411796Y34375D01*
X412180Y34299D01*
X469586D01*
X469663Y34011D01*
X470103Y33248D01*
X470726Y32625D01*
X471489Y32184D01*
X472340Y31956D01*
X473222D01*
X474073Y32184D01*
X474836Y32625D01*
X475459Y33248D01*
X475900Y34011D01*
X475977Y34299D01*
X496824D01*
X497208Y34375D01*
X497534Y34593D01*
X514692Y51751D01*
X517298D01*
X517682Y51827D01*
X518008Y52045D01*
X523496Y57533D01*
X523714Y57859D01*
X523790Y58243D01*
Y61721D01*
X524290Y61854D01*
X524567Y61375D01*
X525260Y60683D01*
X526108Y60193D01*
X527054Y59939D01*
X528034D01*
X528980Y60193D01*
X529829Y60683D01*
X530521Y61375D01*
X531011Y62224D01*
X531265Y63170D01*
Y64150D01*
X531011Y65096D01*
X530683Y65664D01*
X532757Y67738D01*
X532855Y67884D01*
X533355Y67762D01*
Y59701D01*
X529548Y55893D01*
X528980Y56221D01*
X528034Y56475D01*
X527054D01*
X526108Y56221D01*
X525260Y55731D01*
X524567Y55039D01*
X524077Y54190D01*
X523824Y53244D01*
Y52264D01*
X524077Y51318D01*
X524567Y50470D01*
X525260Y49777D01*
X526108Y49287D01*
X527054Y49034D01*
X528034D01*
X528532Y49167D01*
X528791Y48719D01*
X527527Y47455D01*
X520083D01*
Y47791D01*
X519830Y48738D01*
X519340Y49586D01*
X518647Y50279D01*
X517799Y50769D01*
X516853Y51022D01*
X515873D01*
X514927Y50769D01*
X514079Y50279D01*
X513386Y49586D01*
X512896Y48738D01*
X512642Y47791D01*
Y46812D01*
X512896Y45865D01*
X513386Y45017D01*
X514079Y44324D01*
X514927Y43835D01*
X515873Y43581D01*
X516853D01*
X517799Y43835D01*
X518647Y44324D01*
X519340Y45017D01*
X519820Y45849D01*
X527859D01*
X528166Y45910D01*
X528427Y46084D01*
X536875Y54532D01*
X537049Y54793D01*
X537110Y55100D01*
X537110Y55100D01*
Y91747D01*
X537110Y91747D01*
X537049Y92054D01*
X536875Y92315D01*
X536875Y92315D01*
X529298Y99891D01*
X529038Y100065D01*
X528731Y100126D01*
X476802D01*
X476495Y100065D01*
X476235Y99891D01*
X474992Y98649D01*
X469435D01*
Y93091D01*
X463055Y86712D01*
X443014D01*
X442994Y87203D01*
X442994Y87212D01*
Y88649D01*
X461608D01*
X461974Y88284D01*
X462480Y88074D01*
X463028D01*
X463535Y88284D01*
X463923Y88671D01*
X464132Y89178D01*
Y89726D01*
X463923Y90232D01*
X463535Y90620D01*
X463028Y90830D01*
X462480D01*
X461974Y90620D01*
X461608Y90255D01*
X442994D01*
Y93305D01*
X436104D01*
Y90649D01*
X401160D01*
X401160Y90649D01*
X400852Y90587D01*
X400592Y90413D01*
X400592Y90413D01*
X384013Y73834D01*
X383620Y73912D01*
X377321D01*
X376707Y73790D01*
X376186Y73442D01*
X376177Y73429D01*
X372307D01*
X371999Y73368D01*
X371739Y73194D01*
X371739Y73194D01*
X367850Y69305D01*
X364536D01*
X364229Y69765D01*
X363643Y70156D01*
X362951Y70294D01*
X355865D01*
X355173Y70156D01*
X354587Y69765D01*
X354196Y69179D01*
X354058Y68487D01*
X354196Y67796D01*
X354587Y67210D01*
X355173Y66818D01*
X355865Y66681D01*
X362951D01*
X363643Y66818D01*
X364229Y67210D01*
X364556Y67699D01*
X368183D01*
X368490Y67761D01*
X368750Y67935D01*
X372639Y71824D01*
X375812D01*
X375838Y71692D01*
X376186Y71171D01*
X376707Y70823D01*
X377321Y70701D01*
X383620D01*
X384235Y70823D01*
X384756Y71171D01*
X385104Y71692D01*
X385226Y72306D01*
X385148Y72698D01*
X401492Y89043D01*
X436104D01*
Y87212D01*
X436104Y87203D01*
X436084Y86712D01*
X431331D01*
X431331Y86712D01*
X431023Y86650D01*
X430763Y86476D01*
X429309Y85023D01*
X425917D01*
Y82479D01*
X398286D01*
X398286Y82479D01*
X397979Y82418D01*
X397718Y82244D01*
X384252Y68778D01*
X384235Y68790D01*
X383620Y68912D01*
X377321D01*
X376707Y68790D01*
X376186Y68442D01*
X376165Y68410D01*
X372800D01*
X372493Y68349D01*
X372232Y68175D01*
X372232Y68175D01*
X368362Y64305D01*
X364536D01*
X364229Y64765D01*
X363643Y65156D01*
X362951Y65294D01*
X355865D01*
X355173Y65156D01*
X354587Y64765D01*
X354196Y64179D01*
X354058Y63487D01*
X354196Y62796D01*
X354587Y62210D01*
X355173Y61818D01*
X355865Y61681D01*
X362951D01*
X363643Y61818D01*
X364229Y62210D01*
X364556Y62700D01*
X368694D01*
X369002Y62761D01*
X369262Y62935D01*
X373132Y66805D01*
X375815D01*
X375838Y66692D01*
X376186Y66171D01*
X376707Y65823D01*
X377321Y65701D01*
X383620D01*
X384235Y65823D01*
X384756Y66171D01*
X385104Y66692D01*
X385226Y67306D01*
X385197Y67452D01*
X398618Y80874D01*
X426901D01*
X426979Y80889D01*
X430445D01*
Y83887D01*
X431663Y85106D01*
X436104D01*
Y80465D01*
X434280Y78641D01*
X430445D01*
Y79905D01*
X425917D01*
Y75771D01*
X430445D01*
Y77035D01*
X434613D01*
X434920Y77096D01*
X435181Y77270D01*
X437240Y79329D01*
X442994D01*
Y85106D01*
X463387D01*
X463695Y85167D01*
X463955Y85341D01*
X470570Y91956D01*
X476127D01*
Y97513D01*
X477135Y98521D01*
X528398D01*
X529424Y97494D01*
X529178Y97034D01*
X529040Y97061D01*
X483737D01*
X483737Y97061D01*
X483430Y97000D01*
X483169Y96826D01*
X483169Y96826D01*
X474511Y88168D01*
X474073Y88421D01*
X473222Y88649D01*
X472340D01*
X471489Y88421D01*
X470726Y87980D01*
X470103Y87357D01*
X469663Y86594D01*
X469435Y85743D01*
Y84862D01*
X469663Y84011D01*
X470103Y83248D01*
X470726Y82625D01*
X471489Y82184D01*
X472340Y81956D01*
X473222D01*
X474073Y82184D01*
X474836Y82625D01*
X475459Y83248D01*
X475900Y84011D01*
X476127Y84862D01*
Y85743D01*
X475900Y86594D01*
X475646Y87032D01*
X484069Y95455D01*
X511643D01*
X512052Y95235D01*
X512052Y94955D01*
Y91514D01*
X520674D01*
Y94955D01*
X520674Y95235D01*
X521082Y95455D01*
X528708D01*
X533355Y90808D01*
Y77083D01*
X532855Y76960D01*
X532757Y77107D01*
X528787Y81078D01*
X528526Y81252D01*
X528219Y81313D01*
X528238Y81805D01*
X528980Y82004D01*
X529829Y82494D01*
X530521Y83187D01*
X531011Y84035D01*
X531265Y84981D01*
Y85961D01*
X531011Y86907D01*
X530521Y87755D01*
X529829Y88448D01*
X528980Y88938D01*
X528034Y89191D01*
X527054D01*
X526108Y88938D01*
X525260Y88448D01*
X524567Y87755D01*
X524077Y86907D01*
X523824Y85961D01*
Y84981D01*
X524077Y84035D01*
X524567Y83187D01*
X525260Y82494D01*
X526108Y82004D01*
X526821Y81813D01*
X526755Y81313D01*
X525042D01*
X521655Y84700D01*
X521395Y84874D01*
X521087Y84935D01*
X507465D01*
X507465Y84935D01*
X507158Y84874D01*
X506898Y84700D01*
X506898Y84700D01*
X498303Y76105D01*
X476030D01*
X475900Y76594D01*
X475459Y77357D01*
X474836Y77980D01*
X474073Y78421D01*
X473222Y78649D01*
X472340D01*
X471489Y78421D01*
X470726Y77980D01*
X470103Y77357D01*
X469663Y76594D01*
X469435Y75743D01*
Y74862D01*
X469516Y74558D01*
X468971Y74012D01*
X432209D01*
X432209Y74012D01*
X431901Y73951D01*
X431641Y73777D01*
X429309Y71446D01*
X425917D01*
Y68447D01*
X423476Y66006D01*
X406211D01*
X406004Y66506D01*
X406224Y66725D01*
X406433Y67232D01*
Y67780D01*
X406224Y68286D01*
X405836Y68674D01*
X405330Y68884D01*
X404781D01*
X404275Y68674D01*
X404170Y68569D01*
X403654Y68442D01*
X403495Y68547D01*
X403132Y68790D01*
X402518Y68912D01*
X400372D01*
Y70701D01*
X402518D01*
X403132Y70823D01*
X403653Y71171D01*
X404001Y71692D01*
X404124Y72306D01*
X404001Y72921D01*
X403653Y73442D01*
X403132Y73790D01*
X402518Y73912D01*
X396219D01*
X395604Y73790D01*
X395083Y73442D01*
X394735Y72921D01*
X394613Y72306D01*
X394735Y71692D01*
X395083Y71171D01*
X395604Y70823D01*
X396219Y70701D01*
X398365D01*
Y68912D01*
X396219D01*
X395604Y68790D01*
X395083Y68442D01*
X394735Y67921D01*
X394613Y67306D01*
X394735Y66692D01*
X394860Y66506D01*
X394592Y66006D01*
X392048D01*
X391741Y65944D01*
X391481Y65770D01*
X388819Y63109D01*
X384978D01*
X384756Y63442D01*
X384235Y63790D01*
X383620Y63912D01*
X377321D01*
X376707Y63790D01*
X376186Y63442D01*
X376165Y63411D01*
X376073Y63429D01*
X374511D01*
X374204Y63368D01*
X373944Y63194D01*
X373944Y63194D01*
X367417Y56667D01*
X364316D01*
X364165Y57167D01*
X364229Y57210D01*
X364620Y57796D01*
X364758Y58487D01*
X364620Y59179D01*
X364229Y59765D01*
X363643Y60156D01*
X362951Y60294D01*
X355865D01*
X355173Y60156D01*
X354587Y59765D01*
X354280Y59305D01*
X351011D01*
X350804Y59805D01*
X350930Y59931D01*
X351140Y60438D01*
Y60986D01*
X350930Y61492D01*
X350766Y61657D01*
Y76438D01*
X365461Y91133D01*
X365910Y90875D01*
X365769Y90350D01*
X369381D01*
X372993D01*
X372853Y90874D01*
X373301Y91133D01*
X384998Y79436D01*
Y78942D01*
X385208Y78435D01*
X385596Y78048D01*
X386102Y77838D01*
X386650D01*
X387157Y78048D01*
X387544Y78435D01*
X387754Y78942D01*
Y79490D01*
X387544Y79996D01*
X387157Y80384D01*
X386699Y80574D01*
X370385Y96888D01*
Y106394D01*
X372432D01*
Y112496D01*
X366330D01*
Y110449D01*
X358076D01*
Y112302D01*
X351186D01*
Y110449D01*
X341537D01*
X341396Y110737D01*
X341367Y110949D01*
X341831Y111412D01*
X342194Y112041D01*
X342381Y112742D01*
Y113467D01*
X342194Y114168D01*
X341831Y114797D01*
X341318Y115310D01*
X340689Y115673D01*
X339988Y115860D01*
D02*
G37*
G36*
X319988D02*
X319263D01*
X318562Y115673D01*
X317933Y115310D01*
X317420Y114797D01*
X317057Y114168D01*
X316870Y113467D01*
Y112742D01*
X317057Y112041D01*
X317420Y111412D01*
X317933Y110899D01*
X318562Y110536D01*
X319263Y110349D01*
X319988D01*
X320689Y110536D01*
X321318Y110899D01*
X321831Y111412D01*
X322194Y112041D01*
X322381Y112742D01*
Y113467D01*
X322194Y114168D01*
X321831Y114797D01*
X321318Y115310D01*
X320689Y115673D01*
X319988Y115860D01*
D02*
G37*
G36*
X312932Y112514D02*
X310216D01*
Y109798D01*
X310917Y109986D01*
X311680Y110427D01*
X312303Y111050D01*
X312744Y111813D01*
X312932Y112514D01*
D02*
G37*
G36*
X309035D02*
X306319D01*
X306507Y111813D01*
X306948Y111050D01*
X307571Y110427D01*
X308334Y109986D01*
X309035Y109798D01*
Y112514D01*
D02*
G37*
G36*
X358666Y105018D02*
X355221D01*
Y101967D01*
X358666D01*
Y105018D01*
D02*
G37*
G36*
X354040D02*
X350595D01*
Y101967D01*
X354040D01*
Y105018D01*
D02*
G37*
G36*
X358666Y100786D02*
X355221D01*
Y97735D01*
X358666D01*
Y100786D01*
D02*
G37*
G36*
X354040D02*
X350595D01*
Y97735D01*
X354040D01*
Y100786D01*
D02*
G37*
G36*
X520674Y90333D02*
X516954D01*
Y86613D01*
X520674D01*
Y90333D01*
D02*
G37*
G36*
X515772D02*
X512052D01*
Y86613D01*
X515772D01*
Y90333D01*
D02*
G37*
G36*
X372993Y89169D02*
X369972D01*
Y86148D01*
X370787Y86366D01*
X371617Y86846D01*
X372295Y87524D01*
X372775Y88354D01*
X372993Y89169D01*
D02*
G37*
G36*
X368791D02*
X365769D01*
X365987Y88354D01*
X366467Y87524D01*
X367145Y86846D01*
X367975Y86366D01*
X368791Y86148D01*
Y89169D01*
D02*
G37*
G36*
X318463Y75695D02*
X316298D01*
Y74078D01*
X320553D01*
X320503Y74332D01*
X320024Y75049D01*
X319308Y75527D01*
X318463Y75695D01*
D02*
G37*
G36*
X315117D02*
X312951D01*
X312106Y75527D01*
X311390Y75049D01*
X310911Y74332D01*
X310861Y74078D01*
X315117D01*
Y75695D01*
D02*
G37*
G36*
X362951Y75896D02*
X359998D01*
Y74078D01*
X365242D01*
X365176Y74409D01*
X364654Y75190D01*
X363873Y75713D01*
X362951Y75896D01*
D02*
G37*
G36*
X358817D02*
X355865D01*
X354943Y75713D01*
X354162Y75190D01*
X353640Y74409D01*
X353574Y74078D01*
X358817D01*
Y75896D01*
D02*
G37*
G36*
X343660D02*
X340707D01*
Y74078D01*
X345951D01*
X345885Y74409D01*
X345363Y75190D01*
X344582Y75713D01*
X343660Y75896D01*
D02*
G37*
G36*
X339526D02*
X336573D01*
X335652Y75713D01*
X334870Y75190D01*
X334348Y74409D01*
X334282Y74078D01*
X339526D01*
Y75896D01*
D02*
G37*
G36*
X320553Y72897D02*
X316298D01*
Y71280D01*
X318463D01*
X319308Y71448D01*
X320024Y71926D01*
X320503Y72642D01*
X320553Y72897D01*
D02*
G37*
G36*
X315117D02*
X310861D01*
X310911Y72642D01*
X311390Y71926D01*
X312106Y71448D01*
X312951Y71280D01*
X315117D01*
Y72897D01*
D02*
G37*
G36*
X365242Y72897D02*
X359998D01*
Y71079D01*
X362951D01*
X363873Y71262D01*
X364654Y71784D01*
X365176Y72566D01*
X365242Y72897D01*
D02*
G37*
G36*
X358817D02*
X353574D01*
X353640Y72566D01*
X354162Y71784D01*
X354943Y71262D01*
X355865Y71079D01*
X358817D01*
Y72897D01*
D02*
G37*
G36*
X345951Y72897D02*
X340117D01*
X334282D01*
X334348Y72566D01*
X334870Y71784D01*
X335652Y71262D01*
X335752Y71242D01*
Y70732D01*
X335652Y70713D01*
X334870Y70190D01*
X334348Y69409D01*
X334282Y69078D01*
X340117D01*
X345951D01*
X345885Y69409D01*
X345363Y70190D01*
X344582Y70713D01*
X344481Y70732D01*
Y71242D01*
X344582Y71262D01*
X345363Y71784D01*
X345885Y72566D01*
X345951Y72897D01*
D02*
G37*
G36*
X318463Y70093D02*
X312951D01*
X312337Y69971D01*
X311816Y69623D01*
X311468Y69102D01*
X311346Y68487D01*
X311468Y67873D01*
X311816Y67352D01*
X312337Y67004D01*
X312951Y66882D01*
X318463D01*
X319077Y67004D01*
X319598Y67352D01*
X319946Y67873D01*
X320069Y68487D01*
X319946Y69102D01*
X319598Y69623D01*
X319077Y69971D01*
X318463Y70093D01*
D02*
G37*
G36*
X345951Y67897D02*
X340707D01*
Y66079D01*
X343660D01*
X344582Y66262D01*
X345363Y66784D01*
X345885Y67566D01*
X345951Y67897D01*
D02*
G37*
G36*
X339526D02*
X334282D01*
X334348Y67566D01*
X334870Y66784D01*
X335652Y66262D01*
X336573Y66079D01*
X339526D01*
Y67897D01*
D02*
G37*
G36*
X318463Y65093D02*
X312951D01*
X312337Y64971D01*
X311816Y64623D01*
X311468Y64102D01*
X311346Y63487D01*
X311468Y62873D01*
X311816Y62352D01*
X312337Y62004D01*
X312951Y61882D01*
X318463D01*
X319077Y62004D01*
X319598Y62352D01*
X319946Y62873D01*
X320069Y63487D01*
X319946Y64102D01*
X319598Y64623D01*
X319077Y64971D01*
X318463Y65093D01*
D02*
G37*
G36*
X343660Y65294D02*
X336573D01*
X335882Y65156D01*
X335296Y64765D01*
X334905Y64179D01*
X334767Y63487D01*
X334905Y62796D01*
X335296Y62210D01*
X335882Y61818D01*
X336573Y61681D01*
X343660D01*
X344351Y61818D01*
X344937Y62210D01*
X345329Y62796D01*
X345466Y63487D01*
X345329Y64179D01*
X344937Y64765D01*
X344351Y65156D01*
X343660Y65294D01*
D02*
G37*
G36*
Y60896D02*
X340707D01*
Y59078D01*
X345951D01*
X345885Y59409D01*
X345363Y60190D01*
X344582Y60712D01*
X343660Y60896D01*
D02*
G37*
G36*
X339526D02*
X336573D01*
X335652Y60712D01*
X334870Y60190D01*
X334348Y59409D01*
X334282Y59078D01*
X339526D01*
Y60896D01*
D02*
G37*
G36*
X318463Y45695D02*
X316298D01*
Y44078D01*
X320553D01*
X320503Y44332D01*
X320024Y45048D01*
X319308Y45527D01*
X318463Y45695D01*
D02*
G37*
G36*
X315117D02*
X312951D01*
X312106Y45527D01*
X311390Y45048D01*
X310911Y44332D01*
X310861Y44078D01*
X315117D01*
Y45695D01*
D02*
G37*
G36*
X320553Y42897D02*
X316298D01*
Y41280D01*
X318463D01*
X319308Y41448D01*
X320024Y41926D01*
X320503Y42643D01*
X320553Y42897D01*
D02*
G37*
G36*
X315117D02*
X310861D01*
X310911Y42643D01*
X311390Y41926D01*
X312106Y41448D01*
X312951Y41280D01*
X315117D01*
Y42897D01*
D02*
G37*
G36*
X383620Y43912D02*
X377321D01*
X376707Y43790D01*
X376186Y43442D01*
X375838Y42921D01*
X375715Y42306D01*
X375838Y41692D01*
X376186Y41171D01*
X376707Y40823D01*
X377321Y40701D01*
X383620D01*
X384235Y40823D01*
X384756Y41171D01*
X385104Y41692D01*
X385226Y42306D01*
X385104Y42921D01*
X384756Y43442D01*
X384235Y43790D01*
X383620Y43912D01*
D02*
G37*
G36*
X332138Y43087D02*
X325248D01*
Y39491D01*
X319686D01*
X319598Y39623D01*
X319077Y39971D01*
X318463Y40093D01*
X312951D01*
X312337Y39971D01*
X311816Y39623D01*
X311468Y39102D01*
X311346Y38487D01*
X311468Y37873D01*
X311816Y37352D01*
X312337Y37004D01*
X312951Y36882D01*
X318463D01*
X319077Y37004D01*
X319598Y37352D01*
X319686Y37484D01*
X325248D01*
Y36985D01*
X332138D01*
Y37484D01*
X335113D01*
X335296Y37210D01*
X335882Y36819D01*
X336573Y36681D01*
X343660D01*
X344351Y36819D01*
X344937Y37210D01*
X345026Y37343D01*
X347954D01*
X348194Y37103D01*
X348701Y36893D01*
X349249D01*
X349755Y37103D01*
X350143Y37490D01*
X350353Y37997D01*
Y38545D01*
X350143Y39051D01*
X349755Y39439D01*
X349249Y39649D01*
X348701D01*
X348194Y39439D01*
X348105Y39350D01*
X345215D01*
X344937Y39765D01*
X344351Y40156D01*
X343660Y40294D01*
X336573D01*
X335882Y40156D01*
X335296Y39765D01*
X335113Y39491D01*
X332138D01*
Y43087D01*
D02*
G37*
G36*
X383620Y38912D02*
X377321D01*
X376707Y38790D01*
X376186Y38442D01*
X375838Y37921D01*
X375715Y37306D01*
X375838Y36692D01*
X376186Y36171D01*
X376707Y35823D01*
X377321Y35701D01*
X383620D01*
X384235Y35823D01*
X384756Y36171D01*
X385104Y36692D01*
X385226Y37306D01*
X385104Y37921D01*
X384756Y38442D01*
X384235Y38790D01*
X383620Y38912D01*
D02*
G37*
G36*
X332728Y35804D02*
X329283D01*
Y32753D01*
X332728D01*
Y35804D01*
D02*
G37*
G36*
X328102D02*
X324657D01*
Y32753D01*
X328102D01*
Y35804D01*
D02*
G37*
G36*
X332728Y31572D02*
X329283D01*
Y28521D01*
X332728D01*
Y31572D01*
D02*
G37*
G36*
X328102D02*
X324657D01*
Y28521D01*
X328102D01*
Y31572D01*
D02*
G37*
G36*
X473372Y29220D02*
Y25893D01*
X476699D01*
X476450Y26822D01*
X475932Y27720D01*
X475199Y28453D01*
X474301Y28971D01*
X473372Y29220D01*
D02*
G37*
G36*
X472191D02*
X471262Y28971D01*
X470364Y28453D01*
X469631Y27720D01*
X469112Y26822D01*
X468863Y25893D01*
X472191D01*
Y29220D01*
D02*
G37*
G36*
X476699Y24712D02*
X473372D01*
Y21385D01*
X474301Y21634D01*
X475199Y22152D01*
X475932Y22885D01*
X476450Y23783D01*
X476699Y24712D01*
D02*
G37*
G36*
X472191D02*
X468863D01*
X469112Y23783D01*
X469631Y22885D01*
X470364Y22152D01*
X471262Y21634D01*
X472191Y21385D01*
Y24712D01*
D02*
G37*
%LPD*%
D10*
X37777Y195669D02*
X38800Y195516D01*
X39823Y195669D01*
X428981Y64261D02*
X433657D01*
X428981D02*
X429050Y64329D01*
X430771D01*
X428181Y64261D02*
X428981D01*
X433657D02*
X438489Y69093D01*
X438883D01*
X438965Y61302D02*
X468780D01*
X380471Y57306D02*
X388876D01*
X437588Y59924D02*
X438965Y61302D01*
X388876Y57306D02*
X391494Y59924D01*
X437588D01*
X468780Y61302D02*
X472781Y65302D01*
X439303Y90500D02*
X440351Y89452D01*
X462754D01*
X438637Y90500D02*
X439303D01*
X429953Y185906D02*
X434991Y190945D01*
X451813D02*
X453699Y189058D01*
X434991Y190945D02*
X451813D01*
X472781Y95302D02*
X476802Y99324D01*
X528731D02*
X536307Y91747D01*
X476802Y99324D02*
X528731D01*
X483737Y96258D02*
X529040D01*
X472781Y85302D02*
X483737Y96258D01*
X529040D02*
X534158Y91140D01*
X519896Y232310D02*
X537882Y214324D01*
X474356Y232310D02*
X519896D01*
X525959Y222310D02*
X535589Y212680D01*
X474356Y222310D02*
X525959D01*
X518266Y211105D02*
X524172Y205200D01*
X477376Y211105D02*
X518266D01*
X495610Y200003D02*
X527794D01*
X474356Y202310D02*
X493303D01*
X495610Y200003D01*
X515059Y194478D02*
X515132Y194551D01*
X474356Y192310D02*
X509688D01*
X515059Y194478D02*
X516290D01*
X511855D02*
X515059D01*
X515132Y194551D02*
X516613D01*
X509688Y192310D02*
X511855Y194478D01*
X516290D02*
X516363Y194550D01*
X516488Y183520D02*
X516613Y183645D01*
X475023Y182977D02*
X515696D01*
X516363Y183645D01*
X524709Y80510D02*
X528219D01*
X532190Y76539D01*
Y68305D02*
Y76539D01*
X498635Y75302D02*
X507465Y84132D01*
X472781Y75302D02*
X498635D01*
X472781Y65302D02*
X500053D01*
X508961Y74211D01*
X473186Y55707D02*
X502957D01*
X534158Y59368D02*
Y91140D01*
X472781Y45302D02*
X503458D01*
X516363Y58207D01*
X516410Y310288D02*
X516457Y310335D01*
X474200Y309000D02*
X474867Y309667D01*
X515696D01*
X516363Y310335D01*
X474200Y319000D02*
X512535D01*
X514776Y321240D02*
X516363D01*
Y321240D02*
X516457D01*
X512535Y319000D02*
X514776Y321240D01*
X499623Y326693D02*
X527638D01*
X474200Y329000D02*
X497316D01*
X499623Y326693D01*
X517885Y338021D02*
X524016Y331890D01*
X474200Y349000D02*
X525803D01*
X535433Y339370D01*
X374219Y331305D02*
X382024D01*
X527794Y178192D02*
X527794D01*
X528893Y172010D02*
X537882Y180999D01*
X517342Y172010D02*
X528893D01*
X516613Y172740D02*
X517342Y172010D01*
X517013Y46652D02*
X527859D01*
X516363Y47302D02*
X517013Y46652D01*
X527859D02*
X536307Y55100D01*
X527544Y52754D02*
X534158Y59368D01*
X536307Y55100D02*
Y91747D01*
X508961Y74211D02*
X527190D01*
X527544Y74565D01*
X507465Y84132D02*
X521087D01*
X524709Y80510D01*
X502957Y55707D02*
X516363Y69113D01*
X527544Y63660D02*
X532190Y68305D01*
X517186Y298700D02*
X528737D01*
X527794Y178192D02*
X535589Y185987D01*
X527794Y189098D02*
Y189137D01*
X532439Y193783D01*
X530077Y205200D02*
X532439Y202838D01*
X537882Y180999D02*
Y214324D01*
X524172Y205200D02*
X530077D01*
X532439Y193783D02*
Y202838D01*
X535589Y185987D02*
Y212680D01*
X516457Y299429D02*
X517186Y298700D01*
X528737D02*
X537726Y307689D01*
X527638Y315827D02*
X532283Y320472D01*
X527638Y304882D02*
X527638D01*
X535433Y312677D01*
X527638Y315787D02*
Y315827D01*
X524016Y331890D02*
X529921D01*
X537726Y307689D02*
Y341014D01*
X519740Y359000D02*
X537726Y341014D01*
X529921Y331890D02*
X532283Y329528D01*
Y320472D02*
Y329528D01*
X535433Y312677D02*
Y339370D01*
X248923Y195669D02*
X250717Y197464D01*
X283419D01*
X39823Y195669D02*
X248923D01*
X248565Y192913D02*
X251147Y195495D01*
X279093D01*
X47786Y192913D02*
X248565D01*
X39823Y195669D02*
X39823D01*
X439772Y177829D02*
X440332Y177269D01*
X440892Y177829D01*
X469875D01*
X279093Y190495D02*
X281849D01*
X284230Y192876D02*
Y196653D01*
X283419Y197464D02*
X284230Y196653D01*
X281849Y190495D02*
X284230Y192876D01*
X327457Y195510D02*
X329881Y193087D01*
X316056Y195510D02*
X327457D01*
X316056Y185510D02*
X334306D01*
X316056Y190510D02*
X341749D01*
X377647Y199634D02*
X377666Y199616D01*
X406445Y199304D02*
X406455Y199294D01*
X400953Y199304D02*
X406445D01*
X382046Y199314D02*
X390727D01*
X377666Y199616D02*
X382180D01*
X390727Y199314D02*
X393623Y202211D01*
X401043Y204414D02*
X406531D01*
X365287Y182872D02*
X377049Y194634D01*
X345293Y185510D02*
X352655Y192873D01*
X341749Y190510D02*
X341749Y190510D01*
X352655Y192873D02*
X369324D01*
X329881Y193087D02*
X348914D01*
X351337Y195510D01*
X361041D02*
X361041Y195510D01*
X351337Y195510D02*
X361041D01*
X378169Y189615D02*
X382180D01*
X378150Y189634D02*
X378169Y189615D01*
X382180D02*
X382199Y189634D01*
X376716D02*
X378150D01*
X382046Y194314D02*
X390451D01*
X377049Y194634D02*
X382199D01*
X390451Y194314D02*
X393069Y196932D01*
X369324Y192873D02*
X376086Y199634D01*
X377647D01*
X361041Y200510D02*
X370269D01*
X374375Y204615D01*
X361041Y205510D02*
X369758D01*
X373882Y209634D01*
X438439Y204117D02*
X440332Y206010D01*
X382046Y204314D02*
X385490D01*
X406531Y204414D02*
X406630Y204514D01*
X433601Y204117D02*
X438439D01*
X374375Y204615D02*
X382180D01*
X373882Y209634D02*
X385515D01*
X385490Y204314D02*
X399861Y218684D01*
X385515Y209634D02*
X402735Y226853D01*
X429953Y219964D02*
X432928Y222939D01*
X464984D01*
X440354Y226460D02*
X464329D01*
X439939Y226876D02*
X440354Y226460D01*
X402735Y226853D02*
X439917D01*
X439939Y226876D01*
X464984Y222939D02*
X474356Y232310D01*
X361041Y175510D02*
X369925D01*
X416109Y177829D02*
X439772D01*
X469875D02*
X474356Y182310D01*
X475023Y182977D01*
X471104Y189058D02*
X474356Y192310D01*
X341749Y180510D02*
X354157D01*
X361041D02*
X367592D01*
X354157D02*
X356519Y182872D01*
X365287D01*
X336606Y183210D02*
X354908D01*
X357208Y185510D01*
X334306Y185510D02*
X336606Y183210D01*
X367592Y180510D02*
X376716Y189634D01*
X341749Y185510D02*
X345293D01*
X357208D02*
X361041D01*
X369925Y175510D02*
X379049Y184634D01*
X389526Y181578D02*
X412361D01*
X386875Y184229D02*
X389526Y181578D01*
X382131Y184229D02*
X386875D01*
X382046Y184314D02*
X382131Y184229D01*
X406839Y184324D02*
X406849Y184334D01*
X379049Y184634D02*
X382199D01*
X385195Y189314D02*
X387813Y186696D01*
X382046Y189314D02*
X385195D01*
X412361Y181578D02*
X416109Y177829D01*
X429756Y180788D02*
X435583D01*
X439939Y185143D01*
X440332D01*
X429756Y185906D02*
X429953D01*
X428966Y186696D02*
X429756Y185906D01*
X387813Y186696D02*
X428966D01*
X453699Y189058D02*
X471104D01*
X393069Y196932D02*
X439129D01*
X425383Y202211D02*
X429559Y206387D01*
X430753Y201269D02*
X433601Y204117D01*
X439129Y196932D02*
X440506Y198310D01*
X470355D01*
X393623Y202211D02*
X425383D01*
X430556Y201269D02*
X430753D01*
X429756Y206387D02*
X429953D01*
X429559D02*
X429756D01*
X429953D02*
X433783Y210217D01*
X470878D01*
X429756Y214846D02*
X435389D01*
X439545Y219002D01*
X399861Y218684D02*
X428476D01*
X439545Y219002D02*
X439939D01*
X428476Y218684D02*
X429756Y219964D01*
X429953D01*
X477151Y211331D02*
X477376Y211105D01*
X470878Y210217D02*
X472971Y212310D01*
X475335Y211331D02*
X477151D01*
X474356Y212310D02*
X475335Y211331D01*
X472971Y212310D02*
X474356D01*
X470355Y198310D02*
X474356Y202310D01*
X13800Y247219D02*
Y254000D01*
X16497Y256697D02*
X18800Y259000D01*
X13800Y254000D02*
X16497Y256697D01*
X16497D01*
X-26378Y240158D02*
X6739D01*
X-41303Y255083D02*
X-26378Y240158D01*
X-48976Y255083D02*
X-41303D01*
X-29205Y238583D02*
X8268D01*
X-39406Y248783D02*
X-29205Y238583D01*
X-48976Y248783D02*
X-39406D01*
X-33858Y236614D02*
X10236D01*
X-39728Y242484D02*
X-33858Y236614D01*
X-48976Y242484D02*
X-39728D01*
X24803Y248819D02*
Y255003D01*
X14567Y244882D02*
X20866D01*
X24803Y248819D01*
Y255003D02*
X28800Y259000D01*
X22713Y242913D02*
X28800Y249000D01*
X16535Y242913D02*
X22713D01*
X10236Y236614D02*
X16535Y242913D01*
X8268Y238583D02*
X14567Y244882D01*
X6739Y240158D02*
X13800Y247219D01*
X33873Y199000D02*
X147057Y312185D01*
X23863Y203937D02*
X28800Y199000D01*
X16535Y203937D02*
X23863D01*
X-39335Y236185D02*
X-37402Y234252D01*
X24052D01*
X46457Y174016D02*
X58226Y185785D01*
X23816Y174016D02*
X46457D01*
X18800Y169000D02*
X23816Y174016D01*
X-48976Y236185D02*
X-39335D01*
X33071Y137902D02*
Y142829D01*
X29000Y146900D02*
X33071Y142829D01*
Y137902D02*
X122287Y48686D01*
X276037D01*
X28800Y169000D02*
X144114Y53686D01*
X276037D01*
X58268Y173622D02*
X173204Y58686D01*
X276037D01*
X58226Y185785D02*
X277737D01*
X30388Y175516D02*
X47786Y192913D01*
X26887Y175516D02*
X30388D01*
X23403Y179000D02*
X26887Y175516D01*
X18800Y179000D02*
X23403D01*
X28800Y189000D02*
X35469Y195669D01*
X37777D01*
X265748Y317323D02*
X265886Y317185D01*
X278937D01*
X147057Y312185D02*
X278937D01*
X28800Y199000D02*
X33873D01*
X147057Y322185D02*
X278937D01*
X28800Y209000D02*
X33873D01*
X147057Y322185D01*
X23774Y142126D02*
X29000Y136900D01*
X14961Y142126D02*
X23774D01*
X-16106Y173193D02*
X14961Y142126D01*
X24719Y151181D02*
X29000Y146900D01*
X-10988Y179492D02*
X17323Y151181D01*
X24719D01*
X14567Y112205D02*
X23695D01*
X29000Y106900D01*
X-27524Y154295D02*
X14567Y112205D01*
X-48976Y154295D02*
X-27524D01*
X23459Y122441D02*
X29000Y116900D01*
X14567Y122441D02*
X23459D01*
X-48976Y160594D02*
X-23586D01*
X14567Y122441D01*
X14173Y132283D02*
X23617D01*
X29000Y126900D01*
X-20437Y166894D02*
X14173Y132283D01*
X-48976Y166894D02*
X-20437D01*
X-48976Y173193D02*
X-16106D01*
X-48976Y179492D02*
X-10988D01*
X23942Y183858D02*
X28800Y179000D01*
X16929Y183858D02*
X23942D01*
X2398Y198390D02*
X16929Y183858D01*
X-48976Y198390D02*
X2398D01*
X24099Y193701D02*
X28800Y189000D01*
X16142Y193701D02*
X24099D01*
X-48976Y204689D02*
X5153D01*
X16142Y193701D01*
X9484Y210988D02*
X16535Y203937D01*
X-48976Y210988D02*
X9484D01*
X16929Y213779D02*
X24020D01*
X28800Y209000D01*
X11811Y217323D02*
X13386D01*
X16929Y213779D01*
X-48976Y217287D02*
X11776D01*
X11811Y217323D01*
X-48976Y223587D02*
X24213D01*
X28800Y219000D01*
X12957Y229886D02*
X15555Y232484D01*
X25316D02*
X28800Y229000D01*
X15555Y232484D02*
X25316D01*
X-48976Y229886D02*
X12957D01*
X24052Y234252D02*
X28800Y239000D01*
X-40908Y118467D02*
X-36061D01*
X-35827Y118701D01*
X-28346Y113583D02*
X-28346Y113583D01*
X-35827Y113583D02*
X-28346D01*
X-36059Y113350D02*
X-35827Y113583D01*
X-48976Y113350D02*
X-36059D01*
X472781Y55302D02*
X473186Y55707D01*
X463387Y85909D02*
X472781Y95302D01*
X428378Y48898D02*
X431530Y52050D01*
X469529D01*
X428181Y43780D02*
X434436D01*
X438095Y47439D01*
X438489D01*
X439745Y40821D02*
X468300D01*
X438489Y39565D02*
X439745Y40821D01*
X468300D02*
X472781Y45302D01*
X414535Y40821D02*
X437233D01*
X438489Y39565D01*
X410786Y44570D02*
X414535Y40821D01*
X387951Y44570D02*
X410786D01*
X385301Y47221D02*
X387951Y44570D01*
X380556Y47221D02*
X385301D01*
X428378Y82956D02*
X431331Y85909D01*
X463387D01*
X437982Y89846D02*
X438637Y90500D01*
X401160Y89846D02*
X437982D01*
X383940Y72626D02*
X401160Y89846D01*
X428181Y77838D02*
X434613D01*
X439155Y82380D01*
X439549D01*
X428181Y69379D02*
X428378D01*
X469529Y52050D02*
X472781Y55302D01*
X428181Y48898D02*
X428378D01*
X471396Y75302D02*
X472781D01*
X469303Y73210D02*
X471396Y75302D01*
X432209Y73210D02*
X469303D01*
X428378Y69379D02*
X432209Y73210D01*
X428181Y82956D02*
X428378D01*
X380471Y47306D02*
X380556Y47221D01*
X427391Y49688D02*
X428181Y48898D01*
X380605Y52608D02*
X380624Y52626D01*
X380471Y52306D02*
X383620D01*
X376575Y52626D02*
X376594Y52608D01*
X383620Y52306D02*
X386238Y49688D01*
X427391D01*
X423808Y65203D02*
X427984Y69379D01*
X428181D01*
X392048Y65203D02*
X423808D01*
X389152Y62306D02*
X392048Y65203D01*
X380471Y62306D02*
X389152D01*
X426901Y81676D02*
X428181Y82956D01*
X398286Y81676D02*
X426901D01*
X380471Y67306D02*
X383916D01*
X398286Y81676D01*
X377474Y47626D02*
X380624D01*
X368350Y38502D02*
X377474Y47626D01*
X359466Y38502D02*
X368350D01*
X375141Y52626D02*
X376575D01*
X376594Y52608D02*
X380605D01*
X366017Y43502D02*
X375141Y52626D01*
X359466Y43502D02*
X366017D01*
X355633Y48502D02*
X359466D01*
X353333Y46202D02*
X355633Y48502D01*
X335031Y46202D02*
X353333D01*
X314481Y48502D02*
X332731D01*
X335031Y46202D01*
X359466Y58502D02*
X359466Y58502D01*
X349762Y58502D02*
X359466D01*
X347339Y56079D02*
X349762Y58502D01*
X314481D02*
X325883D01*
X328306Y56079D02*
X347339D01*
X325883Y58502D02*
X328306Y56079D01*
X372800Y67608D02*
X380605D01*
X368694Y63502D02*
X372800Y67608D01*
X359466Y63502D02*
X368694D01*
X372307Y72626D02*
X383940D01*
X368183Y68502D02*
X372307Y72626D01*
X359466Y68502D02*
X368183D01*
X404956Y67406D02*
X405056Y67506D01*
X399468Y67406D02*
X404956D01*
X404871Y62296D02*
X404880Y62287D01*
X399378Y62296D02*
X404871D01*
X405264Y47316D02*
X405274Y47326D01*
X375474Y57626D02*
X380624D01*
X354944Y45865D02*
X363712D01*
X375474Y57626D01*
X352582Y43502D02*
X354944Y45865D01*
X340175Y43502D02*
X352582D01*
X374511Y62626D02*
X376073D01*
X376091Y62608D02*
X380605D01*
X376073Y62626D02*
X376091Y62608D01*
X367750Y55865D02*
X374511Y62626D01*
X351080Y55865D02*
X367750D01*
X343718Y48502D02*
X351080Y55865D01*
X340175Y48502D02*
X343718D01*
X340175Y53502D02*
X340175Y53502D01*
X314481Y53502D02*
X340175D01*
X315900Y322200D02*
X327302D01*
X351181D02*
X360885D01*
X329725Y319777D02*
X348758D01*
X327302Y322200D02*
X329725Y319777D01*
X348758D02*
X351181Y322200D01*
X438300Y353543D02*
X438694Y353150D01*
X464173D01*
X402579Y353543D02*
X438300D01*
X385359Y336324D02*
X402579Y353543D01*
X399705Y345374D02*
X428320D01*
X385335Y331004D02*
X399705Y345374D01*
X381890Y331004D02*
X385335D01*
X432750Y349606D02*
X464806D01*
X429797Y346654D02*
X432750Y349606D01*
X464806D02*
X474200Y359000D01*
X400887Y331104D02*
X406375D01*
X406474Y331204D01*
X437906Y345669D02*
X438300D01*
X429600Y341535D02*
X433773D01*
X437906Y345669D01*
X428320Y345374D02*
X429600Y346654D01*
X373726Y336324D02*
X385359D01*
X429600Y346654D02*
X429797D01*
X376893Y321324D02*
X382043D01*
X377491Y326324D02*
X377510Y326305D01*
X365131Y309562D02*
X376893Y321324D01*
X375930Y326324D02*
X377491D01*
X377510Y326305D02*
X382024D01*
X474200Y339000D02*
X475179Y338021D01*
X517885D01*
X400797Y325994D02*
X406289D01*
X406299Y325984D01*
X406683Y311014D02*
X406693Y311024D01*
X434969Y330806D02*
X437036Y332873D01*
X433445Y330806D02*
X434969D01*
X430597Y327958D02*
X433445Y330806D01*
X430400Y327958D02*
X430597D01*
X425227Y328900D02*
X429403Y333076D01*
X393467Y328900D02*
X425227D01*
X429403Y333076D02*
X429600D01*
X433628Y336907D02*
X470722D01*
X429600Y333076D02*
X429797D01*
X433628Y336907D01*
X381890Y326004D02*
X390571D01*
X393467Y328900D01*
X381890Y321004D02*
X390295D01*
X392913Y323622D02*
X436812D01*
X390295Y321004D02*
X392913Y323622D01*
X438189Y324999D02*
X470199D01*
X436812Y323622D02*
X438189Y324999D01*
X470722Y336907D02*
X472815Y339000D01*
X474200D01*
X470199Y324999D02*
X474200Y329000D01*
X386719Y310918D02*
X389370Y308268D01*
X381890Y311004D02*
X381975Y310918D01*
X386719D01*
X378893Y311324D02*
X382043D01*
X389370Y308268D02*
X412205D01*
X415953Y304519D01*
X438300D01*
X429600Y307478D02*
X432991D01*
X437906Y312393D01*
X378013Y316305D02*
X382024D01*
X381890Y316004D02*
X385039D01*
X387657Y313386D01*
X428810D02*
X429600Y312596D01*
X387657Y313386D02*
X428810D01*
X437906Y312393D02*
X438300D01*
X429797Y312596D02*
X433039Y315838D01*
X453453D01*
X453543Y315748D01*
X429600Y312596D02*
X429797D01*
X470948Y315748D02*
X474200Y319000D01*
X453543Y315748D02*
X470948D01*
X469719Y304519D02*
X474200Y309000D01*
X438300Y304519D02*
X469719D01*
X474200Y359000D02*
X519740D01*
X367436Y307200D02*
X376560Y316324D01*
X377994D01*
X378013Y316305D01*
X382024D02*
X382043Y316324D01*
X360885Y307200D02*
X367436D01*
X360885Y327200D02*
X370113D01*
X374219Y331305D01*
X369602Y332200D02*
X373726Y336324D01*
X360885Y332200D02*
X369602D01*
X369168Y319562D02*
X375930Y326324D01*
X352499Y319562D02*
X369168D01*
X356363Y309562D02*
X365131D01*
X354001Y307200D02*
X356363Y309562D01*
X341593Y307200D02*
X354001D01*
X354752Y309900D02*
X357052Y312200D01*
X336450Y309900D02*
X354752D01*
X357052Y312200D02*
X360885D01*
X345137D02*
X352499Y319562D01*
X341593Y312200D02*
X345137D01*
X334150Y312200D02*
X336450Y309900D01*
X360885Y322200D02*
X360885Y322200D01*
X315900Y312200D02*
X334150D01*
X360885Y302200D02*
X369769D01*
X378893Y311324D01*
X341593Y317200D02*
X341593Y317200D01*
X315900Y317200D02*
X341593D01*
D16*
X429756Y214846D02*
D03*
Y219964D02*
D03*
X428181Y82956D02*
D03*
Y77838D02*
D03*
X429756Y201269D02*
D03*
Y206387D02*
D03*
X428181Y48898D02*
D03*
Y43780D02*
D03*
X429756Y180788D02*
D03*
Y185906D02*
D03*
X-28346Y118701D02*
D03*
Y113583D02*
D03*
X-35827Y118701D02*
D03*
Y113583D02*
D03*
X428181Y69379D02*
D03*
Y64261D02*
D03*
X429600Y341535D02*
D03*
Y346654D02*
D03*
Y327958D02*
D03*
Y333076D02*
D03*
Y307478D02*
D03*
Y312596D02*
D03*
D17*
X400943Y174314D02*
D03*
Y179314D02*
D03*
Y184314D02*
D03*
Y189314D02*
D03*
Y194314D02*
D03*
Y199314D02*
D03*
Y204314D02*
D03*
Y209314D02*
D03*
X382046Y174314D02*
D03*
Y179314D02*
D03*
Y184314D02*
D03*
Y189314D02*
D03*
Y194314D02*
D03*
Y199314D02*
D03*
Y204314D02*
D03*
Y209314D02*
D03*
X380471Y72306D02*
D03*
Y67306D02*
D03*
Y62306D02*
D03*
Y57306D02*
D03*
Y52306D02*
D03*
Y47306D02*
D03*
Y42306D02*
D03*
Y37306D02*
D03*
X399368Y72306D02*
D03*
Y67306D02*
D03*
Y62306D02*
D03*
Y57306D02*
D03*
Y52306D02*
D03*
Y47306D02*
D03*
Y42306D02*
D03*
Y37306D02*
D03*
X400787Y301004D02*
D03*
Y306004D02*
D03*
Y311004D02*
D03*
Y316004D02*
D03*
Y321004D02*
D03*
Y326004D02*
D03*
Y331004D02*
D03*
Y336004D02*
D03*
X381890Y301004D02*
D03*
Y306004D02*
D03*
Y311004D02*
D03*
Y316004D02*
D03*
Y321004D02*
D03*
Y326004D02*
D03*
Y331004D02*
D03*
Y336004D02*
D03*
D18*
X279093Y210495D02*
D03*
Y205495D02*
D03*
Y200495D02*
D03*
Y195495D02*
D03*
Y190495D02*
D03*
Y185495D02*
D03*
Y180495D02*
D03*
Y175495D02*
D03*
X315707Y210495D02*
D03*
Y205495D02*
D03*
Y200495D02*
D03*
Y195495D02*
D03*
Y190495D02*
D03*
Y185495D02*
D03*
Y180495D02*
D03*
Y175495D02*
D03*
Y38487D02*
D03*
Y43487D02*
D03*
Y48487D02*
D03*
Y53487D02*
D03*
Y58487D02*
D03*
Y63487D02*
D03*
Y68487D02*
D03*
Y73487D02*
D03*
X279093Y38487D02*
D03*
Y43487D02*
D03*
Y48487D02*
D03*
Y53487D02*
D03*
Y58487D02*
D03*
Y63487D02*
D03*
Y68487D02*
D03*
Y73487D02*
D03*
X279093Y337185D02*
D03*
Y332185D02*
D03*
Y327185D02*
D03*
Y322185D02*
D03*
Y317185D02*
D03*
Y312185D02*
D03*
Y307185D02*
D03*
Y302185D02*
D03*
X315707Y337185D02*
D03*
Y332185D02*
D03*
Y327185D02*
D03*
Y322185D02*
D03*
Y317185D02*
D03*
Y312185D02*
D03*
Y307185D02*
D03*
Y302185D02*
D03*
D19*
X360983Y175495D02*
D03*
Y180495D02*
D03*
Y185495D02*
D03*
Y190495D02*
D03*
Y195495D02*
D03*
Y200495D02*
D03*
Y205495D02*
D03*
Y210495D02*
D03*
X341691Y175495D02*
D03*
Y180495D02*
D03*
Y185495D02*
D03*
Y190495D02*
D03*
Y195495D02*
D03*
Y200495D02*
D03*
Y205495D02*
D03*
Y210495D02*
D03*
X340117Y73487D02*
D03*
Y68487D02*
D03*
Y63487D02*
D03*
Y58487D02*
D03*
Y53487D02*
D03*
Y48487D02*
D03*
Y43487D02*
D03*
Y38487D02*
D03*
X359408Y73487D02*
D03*
Y68487D02*
D03*
Y63487D02*
D03*
Y58487D02*
D03*
Y53487D02*
D03*
Y48487D02*
D03*
Y43487D02*
D03*
Y38487D02*
D03*
X360827Y302185D02*
D03*
Y307185D02*
D03*
Y312185D02*
D03*
Y317185D02*
D03*
Y322185D02*
D03*
Y327185D02*
D03*
Y332185D02*
D03*
Y337185D02*
D03*
X341535Y302185D02*
D03*
Y307185D02*
D03*
Y312185D02*
D03*
Y317185D02*
D03*
Y322185D02*
D03*
Y327185D02*
D03*
Y332185D02*
D03*
Y337185D02*
D03*
D20*
X356693Y365354D02*
D03*
Y373228D02*
D03*
X356080Y238687D02*
D03*
Y246561D02*
D03*
X354631Y109250D02*
D03*
Y101376D02*
D03*
X438489Y39565D02*
D03*
Y47439D02*
D03*
X438883Y61219D02*
D03*
Y69093D02*
D03*
X440332Y185143D02*
D03*
Y177269D02*
D03*
X268017Y69487D02*
D03*
Y77361D02*
D03*
X439939Y219002D02*
D03*
Y226876D02*
D03*
X265714Y214110D02*
D03*
Y206237D02*
D03*
X439549Y90254D02*
D03*
Y82380D02*
D03*
X440332Y206010D02*
D03*
Y198135D02*
D03*
X329309Y167821D02*
D03*
Y175695D02*
D03*
X328693Y40036D02*
D03*
Y32162D02*
D03*
X438300Y345669D02*
D03*
Y353543D02*
D03*
X438300Y332873D02*
D03*
Y324999D02*
D03*
Y312393D02*
D03*
Y304519D02*
D03*
X268301Y327953D02*
D03*
Y335827D02*
D03*
X328346Y294094D02*
D03*
Y301969D02*
D03*
D21*
X-490Y248500D02*
D03*
X-19309D02*
D03*
X-19610Y265600D02*
D03*
X-790D02*
D03*
X-19209Y283000D02*
D03*
X-390D02*
D03*
D22*
X-48976Y113350D02*
D03*
Y116500D02*
D03*
Y119650D02*
D03*
Y122799D02*
D03*
Y125949D02*
D03*
Y129098D02*
D03*
Y132248D02*
D03*
Y135398D02*
D03*
Y138547D02*
D03*
Y141697D02*
D03*
Y144846D02*
D03*
Y147996D02*
D03*
Y151146D02*
D03*
Y154295D02*
D03*
Y157445D02*
D03*
Y160594D02*
D03*
Y163744D02*
D03*
Y166894D02*
D03*
Y170043D02*
D03*
Y173193D02*
D03*
Y176343D02*
D03*
Y179492D02*
D03*
Y182642D02*
D03*
Y198390D02*
D03*
Y201539D02*
D03*
Y204689D02*
D03*
Y207839D02*
D03*
Y210988D02*
D03*
Y214138D02*
D03*
Y217287D02*
D03*
Y220437D02*
D03*
Y223587D02*
D03*
Y226736D02*
D03*
Y229886D02*
D03*
Y233035D02*
D03*
Y236185D02*
D03*
Y239335D02*
D03*
Y242484D02*
D03*
Y245634D02*
D03*
Y248783D02*
D03*
Y251933D02*
D03*
Y255083D02*
D03*
Y258232D02*
D03*
Y261382D02*
D03*
Y264531D02*
D03*
Y267681D02*
D03*
Y270831D02*
D03*
Y273980D02*
D03*
Y277130D02*
D03*
Y280280D02*
D03*
D41*
X257874Y213683D02*
X265320Y206237D01*
X257874Y283722D02*
X276337Y302185D01*
X257874Y213683D02*
Y283722D01*
X266380Y205571D02*
X279017D01*
X265714Y206237D02*
X266380Y205571D01*
X279078Y205510D02*
X279093Y205495D01*
X279017Y205571D02*
X279078Y205510D01*
X265320Y206237D02*
X265714D01*
X276337Y302185D02*
X278937D01*
X19600Y296200D02*
X29600D01*
X23675Y290275D02*
X29600Y296200D01*
X23675Y275539D02*
Y290275D01*
X61353Y327953D02*
X268301D01*
X29600Y296200D02*
X61353Y327953D01*
X51145Y376802D02*
X279469D01*
X41339Y366996D02*
X51145Y376802D01*
X41339Y327939D02*
Y366996D01*
X29600Y316200D02*
X41339Y327939D01*
X19600Y336200D02*
X29600D01*
X19600Y316200D02*
X29600D01*
X-490Y248500D02*
Y251374D01*
X23675Y275539D01*
X13780Y280867D02*
Y310379D01*
X7760Y274848D02*
X13780Y280867D01*
Y310379D02*
X19600Y316200D01*
X-790Y263632D02*
Y266506D01*
X7552Y274848D01*
X7760D01*
X7874Y290201D02*
Y324474D01*
X-390Y279063D02*
Y281937D01*
X7874Y290201D01*
Y324474D02*
X19600Y336200D01*
X280623Y68502D02*
X285433Y63692D01*
X280623Y38502D02*
X285433Y43313D01*
Y63692D01*
X277867Y68502D02*
X280623D01*
X277867Y38502D02*
X280623D01*
X277443Y38412D02*
X277518Y38487D01*
X263564Y73546D02*
Y162722D01*
Y73546D02*
X267623Y69487D01*
X268017D01*
X263564Y162722D02*
X276208Y175367D01*
X278964D02*
X279093Y175495D01*
X276208Y175367D02*
X278964D01*
X279078Y205510D02*
X282198D01*
X286002Y179314D02*
Y201706D01*
X282198Y175510D02*
X286002Y179314D01*
X282198Y205510D02*
X286002Y201706D01*
X279442Y175510D02*
X282198D01*
X-21632Y253363D02*
X-19309Y251041D01*
X-32191Y261382D02*
X-24173Y253363D01*
X-48976Y261382D02*
X-37922D01*
X-32191D01*
X-19309Y248500D02*
Y251041D01*
X-24173Y253363D02*
X-21632D01*
X268940Y68563D02*
X277443D01*
X277518Y68487D01*
X268017Y69487D02*
X268940Y68563D01*
X-48976Y267681D02*
X-21690D01*
X-38294Y273980D02*
X-25355D01*
X-48976D02*
X-38294D01*
X276181Y332185D02*
X278937D01*
X270196Y326200D02*
X276181Y332185D01*
X-25355Y273980D02*
X-19209Y280126D01*
X-21690Y267681D02*
X-19610Y265600D01*
X-19209Y280126D02*
Y283000D01*
X279286Y302200D02*
X282042D01*
X279286Y332200D02*
X282042D01*
Y302200D02*
X285100Y305258D01*
X282042Y332200D02*
X285100Y329142D01*
Y305258D02*
Y329142D01*
D42*
X492463Y172310D02*
X498187Y178035D01*
X474356Y172310D02*
X492463D01*
X517872Y178035D02*
X522984Y183146D01*
X498187Y178035D02*
X517872D01*
X522984Y183146D02*
Y194977D01*
X496824Y35302D02*
X514276Y52754D01*
X472781Y35302D02*
X496824D01*
X522787Y58243D02*
Y69829D01*
X517298Y52754D02*
X522787Y58243D01*
X333129Y373143D02*
X370800D01*
X329469Y376802D02*
X333129Y373143D01*
X315551Y302185D02*
X341535D01*
X514276Y52754D02*
X517298D01*
X522828Y309836D02*
Y321667D01*
X498032Y304724D02*
X517717D01*
X522828Y309836D01*
X413754Y172310D02*
X474356D01*
X315707Y175495D02*
X329109D01*
X329309Y175695D01*
X329508Y175495D01*
X341691D01*
X341691Y175495D02*
X341691D01*
X341691Y175495D01*
X341691D02*
X341832Y175354D01*
X350474D01*
X350550Y175279D01*
X400943Y199314D02*
X400953Y199304D01*
X354428Y187484D02*
X357439Y190495D01*
X360983D01*
X400943Y189314D02*
Y191814D01*
X401247Y192118D01*
X406455D01*
X400943Y191814D02*
Y194314D01*
X351337Y197720D02*
Y213861D01*
X370956Y233480D01*
X400943Y204314D02*
X401043Y204414D01*
X400943Y204314D02*
Y209314D01*
X387951Y216224D02*
Y216485D01*
X370956Y233480D02*
X387951Y216485D01*
X370956Y233480D02*
Y246453D01*
X333285D02*
X370956D01*
X329625Y250112D02*
X333285Y246453D01*
X400943Y174314D02*
Y179314D01*
X400992Y179265D01*
X406800D01*
X406849Y179216D01*
X413754Y172310D01*
X351337Y187484D02*
X354428D01*
X400943Y184314D02*
X400953Y184324D01*
X406839D01*
X399369Y37306D02*
Y42306D01*
Y67306D02*
Y72306D01*
Y42306D02*
X399418Y42257D01*
X399369Y62306D02*
X399378Y62296D01*
X399369Y67306D02*
X399468Y67406D01*
X399672Y55110D02*
X404880D01*
X399369Y54806D02*
Y57306D01*
Y54806D02*
X399672Y55110D01*
X405274Y42208D02*
X412180Y35302D01*
X472781D01*
X399369Y52306D02*
Y54806D01*
X399378Y47316D02*
X405264D01*
X399418Y42257D02*
X405225D01*
X405274Y42208D01*
X386376Y79216D02*
Y79477D01*
X369381Y96472D02*
X386376Y79477D01*
X369381Y96472D02*
Y109445D01*
X355865Y53487D02*
X359408D01*
X349762Y60712D02*
Y76854D01*
X369381Y96472D01*
X352853Y50476D02*
X355865Y53487D01*
X349762Y50476D02*
X352853D01*
X399369Y47306D02*
X399378Y47316D01*
X314132Y38487D02*
X314132Y38487D01*
X340258Y38346D02*
X348900D01*
X340116Y38487D02*
X340258Y38346D01*
X348900D02*
X348975Y38271D01*
X314132Y38487D02*
X340116D01*
X331710Y109445D02*
X369381D01*
X328051Y113104D02*
X331710Y109445D01*
X400787Y318504D02*
X401091Y318807D01*
X406299D01*
X400787Y318504D02*
Y321004D01*
Y316004D02*
Y318504D01*
X474200Y299000D02*
X492307D01*
X498032Y304724D01*
X400837Y305955D02*
X406644D01*
X406693Y305906D02*
X413598Y299000D01*
X400787Y301004D02*
Y306004D01*
X413598Y299000D02*
X474200D01*
X400787Y306004D02*
X400837Y305955D01*
X406644D02*
X406693Y305906D01*
X387795Y342913D02*
Y343175D01*
X370800Y360170D02*
X387795Y343175D01*
X400787Y331004D02*
X400887Y331104D01*
X400787Y331004D02*
Y336004D01*
X315551Y302185D02*
X315551Y302185D01*
X341535D02*
X341535Y302185D01*
X341677Y302044D02*
X350318D01*
X350394Y301969D01*
X341535Y302185D02*
X341677Y302044D01*
X351181Y314173D02*
X354272D01*
X357283Y317185D02*
X360827D01*
X354272Y314173D02*
X357283Y317185D01*
X351181Y324410D02*
Y340551D01*
X370800Y360170D01*
Y373143D01*
X400787Y326004D02*
X400797Y325994D01*
X400797Y311014D02*
X406683D01*
X400787Y311004D02*
X400797Y311014D01*
D43*
X516363Y343051D02*
D03*
X516363Y216361D02*
D03*
Y90924D02*
D03*
D44*
X516363Y332146D02*
D03*
Y321240D02*
D03*
Y310335D02*
D03*
Y299429D02*
D03*
X527544Y326693D02*
D03*
Y315787D02*
D03*
Y304882D02*
D03*
X516363Y205456D02*
D03*
Y194550D02*
D03*
Y183645D02*
D03*
Y172739D02*
D03*
X527544Y200003D02*
D03*
Y189098D02*
D03*
Y178192D02*
D03*
X516363Y80018D02*
D03*
Y69113D02*
D03*
Y58207D02*
D03*
Y47302D02*
D03*
X527544Y74565D02*
D03*
Y63660D02*
D03*
Y52754D02*
D03*
X527544Y337598D02*
D03*
X527544Y210909D02*
D03*
Y85471D02*
D03*
D45*
X521953Y370433D02*
D03*
Y272047D02*
D03*
X521953Y145358D02*
D03*
Y243743D02*
D03*
Y118306D02*
D03*
Y19920D02*
D03*
D46*
X339626Y250112D02*
D03*
X329626D02*
D03*
X319625D02*
D03*
X309626D02*
D03*
X289626D02*
D03*
Y113104D02*
D03*
X309626D02*
D03*
X319625D02*
D03*
X329626D02*
D03*
X339626D02*
D03*
X339626Y376802D02*
D03*
X329626D02*
D03*
X319626D02*
D03*
X309626D02*
D03*
X289626D02*
D03*
D47*
X279626Y250112D02*
D03*
Y113104D02*
D03*
X279626Y376802D02*
D03*
D48*
X474356Y232310D02*
D03*
X472781Y95302D02*
D03*
X474200Y359000D02*
D03*
D49*
X474356Y222310D02*
D03*
Y212310D02*
D03*
Y202310D02*
D03*
Y192310D02*
D03*
Y182310D02*
D03*
Y172310D02*
D03*
Y162310D02*
D03*
X472781Y85302D02*
D03*
Y75302D02*
D03*
Y65302D02*
D03*
Y55302D02*
D03*
Y45302D02*
D03*
Y35302D02*
D03*
Y25302D02*
D03*
X474200Y289000D02*
D03*
Y299000D02*
D03*
Y309000D02*
D03*
Y319000D02*
D03*
Y329000D02*
D03*
Y339000D02*
D03*
Y349000D02*
D03*
D50*
X369381Y89760D02*
D03*
X370956Y226768D02*
D03*
X370800Y353457D02*
D03*
D51*
X369381Y109445D02*
D03*
X370956Y246453D02*
D03*
X370800Y373143D02*
D03*
D52*
X29600Y286200D02*
D03*
X19600D02*
D03*
X29600Y296200D02*
D03*
X19600D02*
D03*
X29600Y306200D02*
D03*
X19600D02*
D03*
X29600Y316200D02*
D03*
X19600D02*
D03*
X29600Y326200D02*
D03*
X19600D02*
D03*
X29600Y336200D02*
D03*
X39000Y56900D02*
D03*
X29000D02*
D03*
X19000D02*
D03*
X39000Y66900D02*
D03*
X29000D02*
D03*
X19000D02*
D03*
X39000Y76900D02*
D03*
X29000D02*
D03*
X19000D02*
D03*
X39000Y86900D02*
D03*
X29000D02*
D03*
X19000D02*
D03*
X39000Y96900D02*
D03*
X29000D02*
D03*
X19000D02*
D03*
X39000Y106900D02*
D03*
X29000D02*
D03*
X19000D02*
D03*
X39000Y116900D02*
D03*
X29000D02*
D03*
X19000D02*
D03*
X39000Y126900D02*
D03*
X29000D02*
D03*
X19000D02*
D03*
X39000Y136900D02*
D03*
X29000D02*
D03*
X19000D02*
D03*
X39000Y146900D02*
D03*
X29000D02*
D03*
X28800Y259000D02*
D03*
X38800D02*
D03*
X18800Y249000D02*
D03*
X28800D02*
D03*
X38800D02*
D03*
X18800Y239000D02*
D03*
X28800D02*
D03*
X38800D02*
D03*
X18800Y229000D02*
D03*
X28800D02*
D03*
X38800D02*
D03*
X18800Y219000D02*
D03*
X28800D02*
D03*
X38800D02*
D03*
X18800Y209000D02*
D03*
X28800D02*
D03*
X38800D02*
D03*
X18800Y199000D02*
D03*
X28800D02*
D03*
X38800D02*
D03*
X18800Y189000D02*
D03*
X28800D02*
D03*
X38800D02*
D03*
X18800Y179000D02*
D03*
X28800D02*
D03*
X38800D02*
D03*
X18800Y169000D02*
D03*
X28800D02*
D03*
X38800D02*
D03*
D53*
X19600Y336200D02*
D03*
X19000Y146900D02*
D03*
X18800Y259000D02*
D03*
D54*
X522787Y69829D02*
D03*
X273622Y118110D02*
D03*
Y112205D02*
D03*
X274614Y107213D02*
D03*
X281496Y106299D02*
D03*
X275590Y381890D02*
D03*
Y372047D02*
D03*
X273622Y244094D02*
D03*
Y250000D02*
D03*
Y255906D02*
D03*
Y214567D02*
D03*
X271654Y220472D02*
D03*
X522984Y194977D02*
D03*
X350550Y175279D02*
D03*
X406849Y179216D02*
D03*
Y184334D02*
D03*
X351337Y187484D02*
D03*
X406455Y192118D02*
D03*
X351337Y197720D02*
D03*
X406455Y199294D02*
D03*
X406630Y204514D02*
D03*
X464329Y226460D02*
D03*
X360786Y214255D02*
D03*
X387951Y216224D02*
D03*
X-37922Y261399D02*
D03*
X-38183Y267654D02*
D03*
X-38294Y273980D02*
D03*
X58268Y173622D02*
D03*
X265748Y317323D02*
D03*
X-40908Y118467D02*
D03*
X462754Y89452D02*
D03*
X359211Y77247D02*
D03*
X405056Y67506D02*
D03*
X404880Y62287D02*
D03*
Y55110D02*
D03*
X405274Y47326D02*
D03*
Y42208D02*
D03*
X386376Y79216D02*
D03*
X349762Y60712D02*
D03*
Y50476D02*
D03*
X348975Y38271D02*
D03*
X406299Y318807D02*
D03*
X464173Y353150D02*
D03*
X522828Y321667D02*
D03*
X387795Y342913D02*
D03*
X406474Y331204D02*
D03*
X350394Y301969D02*
D03*
X351181Y314173D02*
D03*
Y324410D02*
D03*
X406299Y325984D02*
D03*
X406693Y311024D02*
D03*
Y305906D02*
D03*
D55*
X39173Y339162D02*
D03*
X9957Y280107D02*
D03*
X260942Y73414D02*
D03*
Y368690D02*
D03*
Y309635D02*
D03*
X275705Y280107D02*
D03*
X260942Y250580D02*
D03*
X275705Y221052D02*
D03*
X260942Y191524D02*
D03*
X275705Y161997D02*
D03*
X260942Y132469D02*
D03*
X275705Y102942D02*
D03*
X260942Y14359D02*
D03*
X231414Y368690D02*
D03*
X246178Y339162D02*
D03*
X231414Y309635D02*
D03*
X246178Y280107D02*
D03*
X231414Y250580D02*
D03*
X246178Y221052D02*
D03*
Y161997D02*
D03*
X231414Y132469D02*
D03*
X246178Y102942D02*
D03*
X231414Y73414D02*
D03*
X246178Y43887D02*
D03*
X231414Y14359D02*
D03*
X201886Y368690D02*
D03*
X216650Y339162D02*
D03*
X201886Y309635D02*
D03*
X216650Y280107D02*
D03*
X201886Y250580D02*
D03*
X216650Y221052D02*
D03*
Y161997D02*
D03*
X201886Y132469D02*
D03*
X216650Y102942D02*
D03*
X201886Y73414D02*
D03*
X216650Y43887D02*
D03*
X201886Y14359D02*
D03*
X172359Y368690D02*
D03*
X187123Y339162D02*
D03*
X172359Y309635D02*
D03*
X187123Y280107D02*
D03*
X172359Y250580D02*
D03*
X187123Y221052D02*
D03*
Y161997D02*
D03*
X172359Y132469D02*
D03*
X187123Y102942D02*
D03*
X172359Y73414D02*
D03*
X187123Y43887D02*
D03*
X172359Y14359D02*
D03*
X142831Y368690D02*
D03*
X157595Y339162D02*
D03*
Y280107D02*
D03*
X142831Y250580D02*
D03*
X157595Y221052D02*
D03*
Y161997D02*
D03*
X142831Y132469D02*
D03*
X157595Y102942D02*
D03*
X142831Y73414D02*
D03*
X157595Y43887D02*
D03*
X142831Y14359D02*
D03*
X113304Y368690D02*
D03*
X128068Y339162D02*
D03*
X113304Y309635D02*
D03*
Y250580D02*
D03*
X128068Y221052D02*
D03*
Y161997D02*
D03*
X113304Y132469D02*
D03*
Y73414D02*
D03*
X128068Y43887D02*
D03*
X113304Y14359D02*
D03*
X83776Y368690D02*
D03*
X98540Y339162D02*
D03*
X83776Y309635D02*
D03*
X98540Y280107D02*
D03*
Y221052D02*
D03*
Y161997D02*
D03*
X83776Y132469D02*
D03*
X98540Y102942D02*
D03*
X83776Y73414D02*
D03*
X98540Y43887D02*
D03*
X83776Y14359D02*
D03*
X54249Y368690D02*
D03*
X69012Y339162D02*
D03*
X54249Y309635D02*
D03*
X69012Y280107D02*
D03*
X54249Y250580D02*
D03*
Y132469D02*
D03*
Y73414D02*
D03*
X69012Y43887D02*
D03*
X54249Y14359D02*
D03*
X39485Y280107D02*
D03*
Y161997D02*
D03*
X24721Y73414D02*
D03*
X39485Y43887D02*
D03*
X24721Y14359D02*
D03*
X9957Y339162D02*
D03*
Y221052D02*
D03*
Y161997D02*
D03*
Y102942D02*
D03*
Y43887D02*
D03*
X-34334Y250580D02*
D03*
X-19570Y161997D02*
D03*
X-34334Y132469D02*
D03*
X-19570Y102942D02*
D03*
M02*
