G04*
G04 #@! TF.GenerationSoftware,Altium Limited,Altium Designer,21.1.1 (26)*
G04*
G04 Layer_Color=8421504*
%FSLAX25Y25*%
%MOIN*%
G70*
G04*
G04 #@! TF.SameCoordinates,6B7AC59C-B607-4886-845B-4D5108AB40E6*
G04*
G04*
G04 #@! TF.FilePolarity,Positive*
G04*
G01*
G75*
%ADD16R,0.03740X0.03347*%
%ADD17O,0.08661X0.02362*%
%ADD18O,0.07874X0.02362*%
%ADD19O,0.09843X0.02756*%
%ADD20R,0.06102X0.05315*%
%ADD21R,0.06614X0.12362*%
%ADD22R,0.11024X0.02165*%
D16*
X429756Y214846D02*
D03*
Y219964D02*
D03*
X428181Y82956D02*
D03*
Y77838D02*
D03*
X429756Y201269D02*
D03*
Y206387D02*
D03*
X428181Y48898D02*
D03*
Y43780D02*
D03*
X429756Y180788D02*
D03*
Y185906D02*
D03*
X-28346Y118701D02*
D03*
Y113583D02*
D03*
X-35827Y118701D02*
D03*
Y113583D02*
D03*
X428181Y69379D02*
D03*
Y64261D02*
D03*
X429600Y341535D02*
D03*
Y346654D02*
D03*
Y327958D02*
D03*
Y333076D02*
D03*
Y307478D02*
D03*
Y312596D02*
D03*
D17*
X400943Y174314D02*
D03*
Y179314D02*
D03*
Y184314D02*
D03*
Y189314D02*
D03*
Y194314D02*
D03*
Y199314D02*
D03*
Y204314D02*
D03*
Y209314D02*
D03*
X382046Y174314D02*
D03*
Y179314D02*
D03*
Y184314D02*
D03*
Y189314D02*
D03*
Y194314D02*
D03*
Y199314D02*
D03*
Y204314D02*
D03*
Y209314D02*
D03*
X380471Y72306D02*
D03*
Y67306D02*
D03*
Y62306D02*
D03*
Y57306D02*
D03*
Y52306D02*
D03*
Y47306D02*
D03*
Y42306D02*
D03*
Y37306D02*
D03*
X399368Y72306D02*
D03*
Y67306D02*
D03*
Y62306D02*
D03*
Y57306D02*
D03*
Y52306D02*
D03*
Y47306D02*
D03*
Y42306D02*
D03*
Y37306D02*
D03*
X400787Y301004D02*
D03*
Y306004D02*
D03*
Y311004D02*
D03*
Y316004D02*
D03*
Y321004D02*
D03*
Y326004D02*
D03*
Y331004D02*
D03*
Y336004D02*
D03*
X381890Y301004D02*
D03*
Y306004D02*
D03*
Y311004D02*
D03*
Y316004D02*
D03*
Y321004D02*
D03*
Y326004D02*
D03*
Y331004D02*
D03*
Y336004D02*
D03*
D18*
X279093Y210495D02*
D03*
Y205495D02*
D03*
Y200495D02*
D03*
Y195495D02*
D03*
Y190495D02*
D03*
Y185495D02*
D03*
Y180495D02*
D03*
Y175495D02*
D03*
X315707Y210495D02*
D03*
Y205495D02*
D03*
Y200495D02*
D03*
Y195495D02*
D03*
Y190495D02*
D03*
Y185495D02*
D03*
Y180495D02*
D03*
Y175495D02*
D03*
Y38487D02*
D03*
Y43487D02*
D03*
Y48487D02*
D03*
Y53487D02*
D03*
Y58487D02*
D03*
Y63487D02*
D03*
Y68487D02*
D03*
Y73487D02*
D03*
X279093Y38487D02*
D03*
Y43487D02*
D03*
Y48487D02*
D03*
Y53487D02*
D03*
Y58487D02*
D03*
Y63487D02*
D03*
Y68487D02*
D03*
Y73487D02*
D03*
X279093Y337185D02*
D03*
Y332185D02*
D03*
Y327185D02*
D03*
Y322185D02*
D03*
Y317185D02*
D03*
Y312185D02*
D03*
Y307185D02*
D03*
Y302185D02*
D03*
X315707Y337185D02*
D03*
Y332185D02*
D03*
Y327185D02*
D03*
Y322185D02*
D03*
Y317185D02*
D03*
Y312185D02*
D03*
Y307185D02*
D03*
Y302185D02*
D03*
D19*
X360983Y175495D02*
D03*
Y180495D02*
D03*
Y185495D02*
D03*
Y190495D02*
D03*
Y195495D02*
D03*
Y200495D02*
D03*
Y205495D02*
D03*
Y210495D02*
D03*
X341691Y175495D02*
D03*
Y180495D02*
D03*
Y185495D02*
D03*
Y190495D02*
D03*
Y195495D02*
D03*
Y200495D02*
D03*
Y205495D02*
D03*
Y210495D02*
D03*
X340117Y73487D02*
D03*
Y68487D02*
D03*
Y63487D02*
D03*
Y58487D02*
D03*
Y53487D02*
D03*
Y48487D02*
D03*
Y43487D02*
D03*
Y38487D02*
D03*
X359408Y73487D02*
D03*
Y68487D02*
D03*
Y63487D02*
D03*
Y58487D02*
D03*
Y53487D02*
D03*
Y48487D02*
D03*
Y43487D02*
D03*
Y38487D02*
D03*
X360827Y302185D02*
D03*
Y307185D02*
D03*
Y312185D02*
D03*
Y317185D02*
D03*
Y322185D02*
D03*
Y327185D02*
D03*
Y332185D02*
D03*
Y337185D02*
D03*
X341535Y302185D02*
D03*
Y307185D02*
D03*
Y312185D02*
D03*
Y317185D02*
D03*
Y322185D02*
D03*
Y327185D02*
D03*
Y332185D02*
D03*
Y337185D02*
D03*
D20*
X356693Y365354D02*
D03*
Y373228D02*
D03*
X356080Y238687D02*
D03*
Y246561D02*
D03*
X354631Y109250D02*
D03*
Y101376D02*
D03*
X438489Y39565D02*
D03*
Y47439D02*
D03*
X438883Y61219D02*
D03*
Y69093D02*
D03*
X440332Y185143D02*
D03*
Y177269D02*
D03*
X268017Y69487D02*
D03*
Y77361D02*
D03*
X439939Y219002D02*
D03*
Y226876D02*
D03*
X265714Y214110D02*
D03*
Y206237D02*
D03*
X439549Y90254D02*
D03*
Y82380D02*
D03*
X440332Y206010D02*
D03*
Y198135D02*
D03*
X329309Y167821D02*
D03*
Y175695D02*
D03*
X328693Y40036D02*
D03*
Y32162D02*
D03*
X438300Y345669D02*
D03*
Y353543D02*
D03*
X438300Y332873D02*
D03*
Y324999D02*
D03*
Y312393D02*
D03*
Y304519D02*
D03*
X268301Y327953D02*
D03*
Y335827D02*
D03*
X328346Y294094D02*
D03*
Y301969D02*
D03*
D21*
X-490Y248500D02*
D03*
X-19309D02*
D03*
X-19610Y265600D02*
D03*
X-790D02*
D03*
X-19209Y283000D02*
D03*
X-390D02*
D03*
D22*
X-48976Y113350D02*
D03*
Y116500D02*
D03*
Y119650D02*
D03*
Y122799D02*
D03*
Y125949D02*
D03*
Y129098D02*
D03*
Y132248D02*
D03*
Y135398D02*
D03*
Y138547D02*
D03*
Y141697D02*
D03*
Y144846D02*
D03*
Y147996D02*
D03*
Y151146D02*
D03*
Y154295D02*
D03*
Y157445D02*
D03*
Y160594D02*
D03*
Y163744D02*
D03*
Y166894D02*
D03*
Y170043D02*
D03*
Y173193D02*
D03*
Y176343D02*
D03*
Y179492D02*
D03*
Y182642D02*
D03*
Y198390D02*
D03*
Y201539D02*
D03*
Y204689D02*
D03*
Y207839D02*
D03*
Y210988D02*
D03*
Y214138D02*
D03*
Y217287D02*
D03*
Y220437D02*
D03*
Y223587D02*
D03*
Y226736D02*
D03*
Y229886D02*
D03*
Y233035D02*
D03*
Y236185D02*
D03*
Y239335D02*
D03*
Y242484D02*
D03*
Y245634D02*
D03*
Y248783D02*
D03*
Y251933D02*
D03*
Y255083D02*
D03*
Y258232D02*
D03*
Y261382D02*
D03*
Y264531D02*
D03*
Y267681D02*
D03*
Y270831D02*
D03*
Y273980D02*
D03*
Y277130D02*
D03*
Y280280D02*
D03*
M02*
