G04*
G04 #@! TF.GenerationSoftware,Altium Limited,Altium Designer,22.2.1 (43)*
G04*
G04 Layer_Physical_Order=1*
G04 Layer_Color=255*
%FSLAX25Y25*%
%MOIN*%
G70*
G04*
G04 #@! TF.SameCoordinates,1D30EFE8-0B89-4C0D-816A-97772ECB791C*
G04*
G04*
G04 #@! TF.FilePolarity,Positive*
G04*
G01*
G75*
%ADD10C,0.00787*%
%ADD16R,0.06102X0.05315*%
%ADD17R,0.03740X0.03347*%
%ADD18O,0.09843X0.02756*%
%ADD19O,0.08661X0.02362*%
%ADD20O,0.07874X0.02362*%
%ADD21R,0.06614X0.12362*%
%ADD22R,0.11024X0.02165*%
%ADD43C,0.01968*%
%ADD44C,0.03937*%
%ADD45C,0.01181*%
%ADD46R,0.05315X0.05315*%
%ADD47C,0.05315*%
%ADD48C,0.04724*%
%ADD49R,0.04724X0.04724*%
%ADD50C,0.18740*%
%ADD51R,0.06653X0.06653*%
%ADD52C,0.06653*%
%ADD53R,0.05906X0.05906*%
%ADD54C,0.05906*%
%ADD55R,0.05394X0.05394*%
%ADD56C,0.05394*%
%ADD57C,0.01575*%
%ADD58C,0.01968*%
G36*
X292126Y379532D02*
X291664Y379340D01*
X291524Y379480D01*
X290761Y379921D01*
X290060Y380108D01*
Y376802D01*
Y373496D01*
X290761Y373684D01*
X291524Y374124D01*
X291664Y374264D01*
X292126Y374073D01*
Y500D01*
X9000D01*
X-0Y9500D01*
Y99508D01*
X-25692Y99508D01*
X-27847Y97354D01*
Y93224D01*
X-27795Y93173D01*
X-29370Y91598D01*
X-34389Y91598D01*
X-34854Y92063D01*
Y106962D01*
X-37207Y109315D01*
X-58390D01*
X-58425Y109350D01*
Y185791D01*
X-35809D01*
X-33100Y188500D01*
Y192230D01*
X-36145Y195276D01*
X-46619D01*
X-46655Y195240D01*
X-46690Y195276D01*
X-58425D01*
Y284350D01*
X-58376Y284400D01*
X-38825D01*
X-38775Y284350D01*
X-37050D01*
X-34803Y286597D01*
Y301665D01*
X-34554Y301768D01*
X-28497D01*
Y298780D01*
X-26122Y296405D01*
Y294873D01*
X-19473D01*
X-18793Y294193D01*
X-78D01*
Y386522D01*
X7101Y393701D01*
X11811D01*
X292126Y393701D01*
Y379532D01*
D02*
G37*
G36*
X548359Y4524D02*
X300460D01*
Y129921D01*
X548359D01*
Y4524D01*
D02*
G37*
G36*
X547638Y136906D02*
X534113D01*
X533962Y137406D01*
X534945Y138063D01*
X536305Y139423D01*
X537374Y141022D01*
X538110Y142799D01*
X538485Y144686D01*
Y146609D01*
X538110Y148495D01*
X537374Y150272D01*
X536305Y151871D01*
X534945Y153231D01*
X533346Y154300D01*
X531569Y155036D01*
X529683Y155411D01*
X527760D01*
X525873Y155036D01*
X524096Y154300D01*
X522497Y153231D01*
X521137Y151871D01*
X520069Y150272D01*
X519333Y148495D01*
X518958Y146609D01*
Y144686D01*
X519333Y142799D01*
X520069Y141022D01*
X521137Y139423D01*
X522497Y138063D01*
X523481Y137406D01*
X523329Y136906D01*
X299452D01*
Y258003D01*
X547638D01*
Y136906D01*
D02*
G37*
G36*
X548032Y381348D02*
Y264653D01*
X536989D01*
X536798Y265115D01*
X537505Y265823D01*
X538574Y267422D01*
X539310Y269199D01*
X539685Y271086D01*
Y273009D01*
X539310Y274895D01*
X538574Y276672D01*
X537505Y278271D01*
X536145Y279631D01*
X534546Y280700D01*
X532769Y281436D01*
X530883Y281811D01*
X528960D01*
X527073Y281436D01*
X525296Y280700D01*
X523697Y279631D01*
X522337Y278271D01*
X521269Y276672D01*
X520533Y274895D01*
X520158Y273009D01*
Y271086D01*
X520533Y269199D01*
X521269Y267422D01*
X522337Y265823D01*
X523045Y265115D01*
X522854Y264653D01*
X297638Y264653D01*
Y381242D01*
X297991Y381595D01*
X548032Y381348D01*
D02*
G37*
%LPC*%
G36*
X288879Y380108D02*
X288178Y379921D01*
X287415Y379480D01*
X286792Y378857D01*
X286351Y378094D01*
X286163Y377393D01*
X288879D01*
Y380108D01*
D02*
G37*
G36*
Y376212D02*
X286163D01*
X286351Y375511D01*
X286792Y374747D01*
X287415Y374124D01*
X288178Y373684D01*
X288879Y373496D01*
Y376212D01*
D02*
G37*
G36*
X281693Y339393D02*
X279527D01*
Y337776D01*
X283783D01*
X283733Y338030D01*
X283254Y338746D01*
X282538Y339225D01*
X281693Y339393D01*
D02*
G37*
G36*
X278346D02*
X276181D01*
X275336Y339225D01*
X274620Y338746D01*
X274141Y338030D01*
X274091Y337776D01*
X278346D01*
Y339393D01*
D02*
G37*
G36*
X30191Y339853D02*
Y336791D01*
X33253D01*
X33030Y337621D01*
X32546Y338460D01*
X31860Y339146D01*
X31021Y339630D01*
X30191Y339853D01*
D02*
G37*
G36*
X29009D02*
X28179Y339630D01*
X27340Y339146D01*
X26654Y338460D01*
X26170Y337621D01*
X25947Y336791D01*
X29009D01*
Y339853D01*
D02*
G37*
G36*
X19009D02*
X18179Y339630D01*
X17340Y339146D01*
X16654Y338460D01*
X16170Y337621D01*
X15947Y336791D01*
X19009D01*
Y339853D01*
D02*
G37*
G36*
X283783Y336595D02*
X279527D01*
Y334977D01*
X281693D01*
X282538Y335145D01*
X283254Y335624D01*
X283733Y336340D01*
X283783Y336595D01*
D02*
G37*
G36*
X278346D02*
X274091D01*
X274141Y336340D01*
X274620Y335624D01*
X275336Y335145D01*
X276181Y334977D01*
X278346D01*
Y336595D01*
D02*
G37*
G36*
X33253Y335610D02*
X30191D01*
Y332547D01*
X31021Y332770D01*
X31860Y333254D01*
X32546Y333940D01*
X33030Y334779D01*
X33253Y335610D01*
D02*
G37*
G36*
X29009D02*
X25947D01*
X26170Y334779D01*
X26654Y333940D01*
X27340Y333254D01*
X28179Y332770D01*
X29009Y332547D01*
Y335610D01*
D02*
G37*
G36*
X19009D02*
X15947D01*
X16170Y334779D01*
X16654Y333940D01*
X17340Y333254D01*
X18179Y332770D01*
X19009Y332547D01*
Y335610D01*
D02*
G37*
G36*
X282225Y379558D02*
X276714D01*
Y378207D01*
X29925D01*
X29387Y378100D01*
X28931Y377796D01*
X22996Y371860D01*
X22691Y371404D01*
X22584Y370866D01*
Y339129D01*
X22084Y338922D01*
X21860Y339146D01*
X21021Y339630D01*
X20190Y339853D01*
Y336200D01*
Y332547D01*
X21021Y332770D01*
X21860Y333254D01*
X22084Y333478D01*
X22584Y333271D01*
Y328213D01*
X22084Y328079D01*
X22073Y328098D01*
X21498Y328673D01*
X20793Y329080D01*
X20007Y329291D01*
X19193D01*
X18407Y329080D01*
X17702Y328673D01*
X17127Y328098D01*
X16720Y327393D01*
X16656Y327156D01*
X8251D01*
X7713Y327049D01*
X7257Y326744D01*
X7107Y326593D01*
X7030Y326478D01*
X6932Y326380D01*
X6879Y326253D01*
X6802Y326138D01*
X6775Y326002D01*
X6722Y325874D01*
Y325736D01*
X6695Y325600D01*
X6722Y325464D01*
Y325326D01*
X6775Y325198D01*
X6802Y325062D01*
X6879Y324947D01*
X6932Y324819D01*
X7030Y324722D01*
X7107Y324607D01*
X7222Y324530D01*
X7320Y324432D01*
X7447Y324379D01*
X7562Y324302D01*
X7698Y324275D01*
X7826Y324222D01*
X7964D01*
X8100Y324195D01*
X8236Y324222D01*
X8374D01*
X8502Y324275D01*
X8638Y324302D01*
X8703Y324346D01*
X17102D01*
X17127Y324302D01*
X17702Y323727D01*
X18407Y323320D01*
X19193Y323110D01*
X20007D01*
X20793Y323320D01*
X21498Y323727D01*
X22073Y324302D01*
X22084Y324321D01*
X22584Y324187D01*
Y319129D01*
X22084Y318922D01*
X21860Y319146D01*
X21021Y319630D01*
X20190Y319853D01*
Y316200D01*
Y312547D01*
X21021Y312770D01*
X21860Y313254D01*
X22084Y313478D01*
X22584Y313271D01*
Y311811D01*
X22691Y311273D01*
X22996Y310818D01*
X26657Y307156D01*
X26509Y306607D01*
Y305793D01*
X26720Y305007D01*
X27127Y304302D01*
X27702Y303727D01*
X28407Y303320D01*
X29193Y303110D01*
X30007D01*
X30793Y303320D01*
X31498Y303727D01*
X32073Y304302D01*
X32480Y305007D01*
X32691Y305793D01*
Y306607D01*
X32480Y307393D01*
X32073Y308098D01*
X31498Y308673D01*
X30793Y309080D01*
X30007Y309291D01*
X29193D01*
X28644Y309143D01*
X25394Y312393D01*
Y370284D01*
X30507Y375397D01*
X276714D01*
Y374046D01*
X278064D01*
Y348090D01*
X278171Y347552D01*
X278476Y347096D01*
X286784Y338788D01*
Y330002D01*
X286284Y329850D01*
X286093Y330135D01*
X283035Y333193D01*
X282579Y333498D01*
X282555Y333503D01*
X282307Y333668D01*
X281693Y333791D01*
X276181D01*
X275567Y333668D01*
X275046Y333320D01*
X274697Y332800D01*
X274670Y332661D01*
X269614Y327605D01*
X32357D01*
X32073Y328098D01*
X31498Y328673D01*
X30793Y329080D01*
X30007Y329291D01*
X29193D01*
X28407Y329080D01*
X27702Y328673D01*
X27127Y328098D01*
X26720Y327393D01*
X26509Y326607D01*
Y325793D01*
X26720Y325007D01*
X27127Y324302D01*
X27702Y323727D01*
X28407Y323320D01*
X29193Y323110D01*
X30007D01*
X30793Y323320D01*
X31498Y323727D01*
X32073Y324302D01*
X32357Y324795D01*
X270196D01*
X270733Y324902D01*
X271189Y325207D01*
X276562Y330579D01*
X281675D01*
X283695Y328560D01*
Y327754D01*
X283195Y327705D01*
X283176Y327800D01*
X282828Y328320D01*
X282307Y328668D01*
X281693Y328791D01*
X276181D01*
X275567Y328668D01*
X275046Y328320D01*
X274697Y327800D01*
X274575Y327185D01*
X274697Y326571D01*
X275046Y326050D01*
X275567Y325702D01*
X276181Y325579D01*
X281693D01*
X282307Y325702D01*
X282828Y326050D01*
X283176Y326571D01*
X283195Y326665D01*
X283695Y326616D01*
Y322754D01*
X283195Y322705D01*
X283176Y322799D01*
X282828Y323320D01*
X282307Y323669D01*
X281693Y323791D01*
X276181D01*
X275567Y323669D01*
X275046Y323320D01*
X274823Y322988D01*
X147058D01*
X147057Y322988D01*
X146750Y322927D01*
X146490Y322753D01*
X146490Y322753D01*
X42943Y219206D01*
X42481Y219397D01*
Y219485D01*
X42230Y220421D01*
X41745Y221260D01*
X41060Y221946D01*
X40221Y222430D01*
X39391Y222653D01*
Y219000D01*
X38800D01*
Y218409D01*
X35147D01*
X35370Y217579D01*
X35854Y216740D01*
X36540Y216054D01*
X37379Y215570D01*
X38315Y215319D01*
X38403D01*
X38594Y214857D01*
X33540Y209803D01*
X31784D01*
X31680Y210193D01*
X31273Y210898D01*
X30698Y211473D01*
X29993Y211880D01*
X29207Y212091D01*
X28393D01*
X27607Y211880D01*
X27257Y211678D01*
X24588Y214347D01*
X24328Y214521D01*
X24020Y214582D01*
X17262D01*
X13953Y217891D01*
X13693Y218065D01*
X13386Y218126D01*
X11811D01*
X11811Y218126D01*
X11633Y218090D01*
X-42096D01*
X-42480Y218370D01*
Y219847D01*
X-48976D01*
X-55472D01*
Y218370D01*
X-54882D01*
Y216205D01*
X-55472D01*
Y214728D01*
X-48976D01*
X-42480D01*
Y216205D01*
X-42096Y216485D01*
X11776D01*
X11954Y216520D01*
X13053D01*
X16361Y213212D01*
X16361Y213212D01*
X16622Y213038D01*
X16929Y212977D01*
X23688D01*
X26122Y210543D01*
X25920Y210193D01*
X25709Y209407D01*
Y208593D01*
X25920Y207807D01*
X26327Y207102D01*
X26902Y206527D01*
X27607Y206120D01*
X28393Y205909D01*
X29207D01*
X29993Y206120D01*
X30698Y206527D01*
X31273Y207102D01*
X31680Y207807D01*
X31784Y208197D01*
X33873D01*
X34180Y208258D01*
X34440Y208432D01*
X34673Y208665D01*
X35142Y208428D01*
X35370Y207579D01*
X35854Y206740D01*
X36540Y206054D01*
X37379Y205570D01*
X38315Y205319D01*
X38403D01*
X38594Y204857D01*
X33540Y199803D01*
X31784D01*
X31680Y200193D01*
X31273Y200898D01*
X30698Y201473D01*
X29993Y201880D01*
X29207Y202091D01*
X28393D01*
X27607Y201880D01*
X27257Y201678D01*
X24431Y204505D01*
X24170Y204679D01*
X23863Y204740D01*
X16868D01*
X10052Y211556D01*
X9792Y211730D01*
X9484Y211791D01*
X-42096D01*
X-42480Y212071D01*
Y213547D01*
X-48976D01*
X-55472D01*
Y212071D01*
X-54882D01*
Y209906D01*
X-55472D01*
Y208429D01*
X-48976D01*
X-42480D01*
Y209906D01*
X-42096Y210185D01*
X9152D01*
X15968Y203369D01*
X15968Y203369D01*
X16228Y203195D01*
X16535Y203134D01*
X16535Y203134D01*
X23530D01*
X26122Y200543D01*
X25920Y200193D01*
X25709Y199407D01*
Y198593D01*
X25920Y197807D01*
X26327Y197102D01*
X26902Y196527D01*
X27607Y196120D01*
X28393Y195910D01*
X29207D01*
X29993Y196120D01*
X30698Y196527D01*
X31273Y197102D01*
X31680Y197807D01*
X31784Y198197D01*
X33873D01*
X34180Y198258D01*
X34440Y198432D01*
X34673Y198665D01*
X35142Y198427D01*
X35370Y197579D01*
X35720Y196972D01*
X35469Y196472D01*
X35162Y196411D01*
X34901Y196237D01*
X30343Y191678D01*
X29993Y191880D01*
X29207Y192091D01*
X28393D01*
X27607Y191880D01*
X27257Y191678D01*
X24667Y194269D01*
X24406Y194442D01*
X24099Y194504D01*
X16474D01*
X5721Y205257D01*
X5461Y205431D01*
X5153Y205492D01*
X-42096D01*
X-42480Y205772D01*
Y207248D01*
X-48976D01*
X-55472D01*
Y205772D01*
X-54882D01*
Y203606D01*
X-55472D01*
Y202130D01*
X-48976D01*
X-42480D01*
Y203606D01*
X-42096Y203886D01*
X4821D01*
X15574Y193133D01*
X15574Y193133D01*
X15834Y192959D01*
X16142Y192898D01*
X23767D01*
X26122Y190543D01*
X25920Y190193D01*
X25709Y189407D01*
Y188593D01*
X25920Y187807D01*
X26327Y187102D01*
X26902Y186527D01*
X27607Y186120D01*
X28393Y185909D01*
X29207D01*
X29993Y186120D01*
X30698Y186527D01*
X31273Y187102D01*
X31680Y187807D01*
X31890Y188593D01*
Y189407D01*
X31680Y190193D01*
X31478Y190543D01*
X35802Y194867D01*
X37617D01*
X37685Y194838D01*
X38800Y194692D01*
X39915Y194838D01*
X39983Y194867D01*
X247638D01*
X247945Y194928D01*
X248205Y195102D01*
X249886Y196782D01*
X250042Y196746D01*
X250072Y196706D01*
X250182Y196200D01*
X247699Y193716D01*
X47786D01*
X47479Y193655D01*
X47218Y193481D01*
X42943Y189206D01*
X42481Y189397D01*
Y189485D01*
X42230Y190421D01*
X41745Y191260D01*
X41060Y191946D01*
X40221Y192430D01*
X39391Y192653D01*
Y189000D01*
X38800D01*
Y188409D01*
X35147D01*
X35370Y187579D01*
X35854Y186740D01*
X36540Y186054D01*
X37379Y185570D01*
X38315Y185319D01*
X38403D01*
X38594Y184857D01*
X32390Y178653D01*
X31890Y178860D01*
Y179407D01*
X31680Y180193D01*
X31273Y180898D01*
X30698Y181473D01*
X29993Y181880D01*
X29207Y182091D01*
X28393D01*
X27607Y181880D01*
X27257Y181678D01*
X24509Y184426D01*
X24249Y184600D01*
X23942Y184661D01*
X17262D01*
X2965Y198958D01*
X2705Y199132D01*
X2398Y199193D01*
X-42096D01*
X-42480Y199472D01*
Y200949D01*
X-48976D01*
X-55472D01*
Y199472D01*
X-54882D01*
Y196913D01*
X-43071D01*
Y197587D01*
X2065D01*
X16361Y183291D01*
X16361Y183291D01*
X16622Y183117D01*
X16929Y183055D01*
X16929Y183055D01*
X23609D01*
X26122Y180543D01*
X25920Y180193D01*
X25709Y179407D01*
Y178593D01*
X25730Y178515D01*
X25282Y178256D01*
X23970Y179568D01*
X23710Y179742D01*
X23403Y179803D01*
X21784D01*
X21680Y180193D01*
X21273Y180898D01*
X20698Y181473D01*
X19993Y181880D01*
X19207Y182091D01*
X18393D01*
X17607Y181880D01*
X16902Y181473D01*
X16327Y180898D01*
X15920Y180193D01*
X15709Y179407D01*
Y178593D01*
X15920Y177807D01*
X16327Y177102D01*
X16902Y176527D01*
X17607Y176120D01*
X18393Y175909D01*
X19207D01*
X19993Y176120D01*
X20698Y176527D01*
X21273Y177102D01*
X21680Y177807D01*
X21784Y178197D01*
X23070D01*
X25668Y175599D01*
X25477Y175137D01*
X24135D01*
X23827Y175076D01*
X23567Y174902D01*
X23567Y174902D01*
X20343Y171678D01*
X19993Y171880D01*
X19207Y172091D01*
X18393D01*
X17607Y171880D01*
X16902Y171473D01*
X16327Y170898D01*
X15920Y170193D01*
X15709Y169407D01*
Y168593D01*
X15920Y167807D01*
X16327Y167102D01*
X16902Y166527D01*
X17607Y166120D01*
X18393Y165910D01*
X19207D01*
X19993Y166120D01*
X20698Y166527D01*
X21273Y167102D01*
X21680Y167807D01*
X21891Y168593D01*
Y169407D01*
X21680Y170193D01*
X21478Y170543D01*
X24467Y173532D01*
X46776D01*
X47083Y173593D01*
X47343Y173767D01*
X58558Y184982D01*
X273623D01*
X273846Y184650D01*
X274367Y184302D01*
X274981Y184179D01*
X280493D01*
X281107Y184302D01*
X281628Y184650D01*
X281976Y185171D01*
X282099Y185785D01*
X281976Y186399D01*
X281628Y186920D01*
X281107Y187268D01*
X280493Y187391D01*
X274981D01*
X274367Y187268D01*
X273846Y186920D01*
X273623Y186588D01*
X58226D01*
X57919Y186527D01*
X57658Y186353D01*
X46443Y175137D01*
X40472D01*
X40338Y175637D01*
X41060Y176054D01*
X41745Y176740D01*
X42230Y177579D01*
X42453Y178410D01*
X38800D01*
Y179591D01*
X42453D01*
X42230Y180421D01*
X41745Y181260D01*
X41060Y181946D01*
X40221Y182430D01*
X39373Y182658D01*
X39135Y183127D01*
X48118Y192111D01*
X248031D01*
X248339Y192172D01*
X248599Y192346D01*
X251236Y194982D01*
X273623D01*
X273846Y194650D01*
X274367Y194302D01*
X274981Y194179D01*
X280493D01*
X281107Y194302D01*
X281628Y194650D01*
X281976Y195171D01*
X282099Y195785D01*
X281989Y196335D01*
X282066Y196568D01*
X282209Y196835D01*
X283252D01*
Y194680D01*
X280885Y192313D01*
X280493Y192391D01*
X274981D01*
X274367Y192269D01*
X273846Y191920D01*
X273498Y191400D01*
X273375Y190785D01*
X273498Y190171D01*
X273846Y189650D01*
X274367Y189302D01*
X274981Y189179D01*
X280493D01*
X281107Y189302D01*
X281628Y189650D01*
X281976Y190171D01*
X282099Y190785D01*
X282020Y191177D01*
X283960Y193117D01*
X284422Y192925D01*
Y181367D01*
X283054Y179999D01*
X282689Y180194D01*
X278327D01*
Y178577D01*
X280493D01*
X281032Y178684D01*
X281278Y178224D01*
X280445Y177391D01*
X274981D01*
X274367Y177269D01*
X273846Y176920D01*
X273498Y176400D01*
X273470Y176261D01*
X267858Y170649D01*
X267396Y170840D01*
Y171724D01*
X260506D01*
Y165621D01*
X262143D01*
X262410Y165121D01*
X262266Y164906D01*
X262159Y164368D01*
Y76673D01*
X261516D01*
Y70571D01*
X266498D01*
X266634Y70544D01*
X269436D01*
X271770Y68210D01*
X271798Y68071D01*
X272146Y67550D01*
X272667Y67202D01*
X273281Y67080D01*
X278775D01*
X280795Y65061D01*
Y64255D01*
X280295Y64206D01*
X280276Y64300D01*
X279928Y64821D01*
X279407Y65169D01*
X278793Y65292D01*
X273281D01*
X272667Y65169D01*
X272146Y64821D01*
X271798Y64300D01*
X271675Y63686D01*
X271798Y63071D01*
X272146Y62550D01*
X272667Y62202D01*
X273281Y62080D01*
X278793D01*
X279407Y62202D01*
X279928Y62550D01*
X280276Y63071D01*
X280295Y63166D01*
X280795Y63116D01*
Y59255D01*
X280295Y59206D01*
X280276Y59300D01*
X279928Y59821D01*
X279407Y60169D01*
X278793Y60291D01*
X273281D01*
X272667Y60169D01*
X272146Y59821D01*
X271923Y59489D01*
X173537D01*
X59646Y173380D01*
Y173896D01*
X59436Y174403D01*
X59048Y174790D01*
X58542Y175000D01*
X57994D01*
X57487Y174790D01*
X57099Y174403D01*
X56890Y173896D01*
Y173348D01*
X57099Y172842D01*
X57487Y172454D01*
X57994Y172244D01*
X58510D01*
X172636Y58118D01*
X172897Y57944D01*
X173204Y57883D01*
X173204Y57883D01*
X271923D01*
X272146Y57550D01*
X272667Y57202D01*
X273281Y57080D01*
X278793D01*
X279407Y57202D01*
X279928Y57550D01*
X280276Y58071D01*
X280295Y58166D01*
X280795Y58116D01*
Y54255D01*
X280295Y54206D01*
X280276Y54300D01*
X279928Y54821D01*
X279407Y55169D01*
X278793Y55291D01*
X273281D01*
X272667Y55169D01*
X272146Y54821D01*
X271923Y54489D01*
X144447D01*
X31478Y167457D01*
X31680Y167807D01*
X31890Y168593D01*
Y169407D01*
X31680Y170193D01*
X31273Y170898D01*
X30698Y171473D01*
X29993Y171880D01*
X29207Y172091D01*
X28393D01*
X27607Y171880D01*
X26902Y171473D01*
X26327Y170898D01*
X25920Y170193D01*
X25709Y169407D01*
Y168593D01*
X25920Y167807D01*
X26327Y167102D01*
X26902Y166527D01*
X27607Y166120D01*
X28393Y165910D01*
X29207D01*
X29993Y166120D01*
X30343Y166322D01*
X143546Y53118D01*
X143807Y52944D01*
X144114Y52883D01*
X144114Y52883D01*
X271923D01*
X272146Y52550D01*
X272667Y52202D01*
X273281Y52080D01*
X278793D01*
X279407Y52202D01*
X279928Y52550D01*
X280276Y53071D01*
X280295Y53166D01*
X280795Y53116D01*
Y49255D01*
X280295Y49206D01*
X280276Y49300D01*
X279928Y49821D01*
X279407Y50169D01*
X278793Y50292D01*
X273281D01*
X272667Y50169D01*
X272146Y49821D01*
X271923Y49489D01*
X122619D01*
X39335Y132773D01*
X39573Y133242D01*
X40421Y133470D01*
X41260Y133954D01*
X41945Y134640D01*
X42430Y135479D01*
X42653Y136310D01*
X39000D01*
Y136900D01*
X38409D01*
Y140553D01*
X37579Y140330D01*
X36740Y139846D01*
X36054Y139160D01*
X35570Y138321D01*
X35342Y137473D01*
X34873Y137235D01*
X33874Y138234D01*
Y142829D01*
X33813Y143136D01*
X33639Y143397D01*
X33639Y143397D01*
X31678Y145357D01*
X31880Y145707D01*
X32090Y146493D01*
Y147307D01*
X31880Y148093D01*
X31473Y148798D01*
X30898Y149373D01*
X30193Y149780D01*
X29407Y149991D01*
X28593D01*
X27807Y149780D01*
X27457Y149578D01*
X25286Y151749D01*
X25026Y151923D01*
X24719Y151984D01*
X17655D01*
X-10421Y180060D01*
X-10681Y180234D01*
X-10988Y180295D01*
X-42096D01*
X-42480Y180575D01*
Y182051D01*
X-48976D01*
X-55472D01*
Y180575D01*
X-54882D01*
Y178410D01*
X-55472D01*
Y176933D01*
X-48976D01*
X-42480D01*
Y178410D01*
X-42096Y178689D01*
X-11321D01*
X16755Y150613D01*
X16939Y150491D01*
X16916Y150159D01*
X16856Y149991D01*
X15909D01*
Y143809D01*
X22091D01*
Y149878D01*
X22091Y149991D01*
X22362Y150378D01*
X24386D01*
X26322Y148443D01*
X26120Y148093D01*
X25909Y147307D01*
Y146493D01*
X26120Y145707D01*
X26527Y145002D01*
X27102Y144427D01*
X27807Y144020D01*
X28593Y143809D01*
X29407D01*
X30193Y144020D01*
X30543Y144222D01*
X32268Y142497D01*
Y138421D01*
X31768Y138287D01*
X31473Y138798D01*
X30898Y139373D01*
X30193Y139780D01*
X29407Y139991D01*
X28593D01*
X27807Y139780D01*
X27457Y139578D01*
X24342Y142694D01*
X24081Y142868D01*
X23774Y142929D01*
X15293D01*
X-15539Y173760D01*
X-15799Y173934D01*
X-16106Y173996D01*
X-42096D01*
X-42480Y174276D01*
Y175752D01*
X-48976D01*
X-55472D01*
Y174276D01*
X-54882D01*
Y172110D01*
X-55472D01*
Y170634D01*
X-48976D01*
X-42480D01*
Y172110D01*
X-42096Y172390D01*
X-16439D01*
X14393Y141558D01*
X14393Y141558D01*
X14653Y141384D01*
X14961Y141323D01*
X14961Y141323D01*
X23441D01*
X26322Y138443D01*
X26120Y138093D01*
X25909Y137307D01*
Y136493D01*
X26120Y135707D01*
X26527Y135002D01*
X27102Y134427D01*
X27807Y134020D01*
X28593Y133809D01*
X29407D01*
X30193Y134020D01*
X30898Y134427D01*
X31473Y135002D01*
X31880Y135707D01*
X32090Y136493D01*
Y137054D01*
X32251Y137163D01*
X32590Y137247D01*
X39347Y130491D01*
X39139Y129991D01*
X38593D01*
X37807Y129780D01*
X37102Y129373D01*
X36527Y128798D01*
X36120Y128093D01*
X35909Y127307D01*
Y126493D01*
X36120Y125707D01*
X36527Y125002D01*
X37102Y124427D01*
X37807Y124020D01*
X38593Y123810D01*
X39407D01*
X40193Y124020D01*
X40898Y124427D01*
X41473Y125002D01*
X41880Y125707D01*
X42090Y126493D01*
Y127040D01*
X42590Y127247D01*
X121719Y48118D01*
X121979Y47944D01*
X122287Y47883D01*
X122287Y47883D01*
X271923D01*
X272146Y47550D01*
X272667Y47202D01*
X273281Y47080D01*
X278793D01*
X279407Y47202D01*
X279928Y47550D01*
X280276Y48071D01*
X280295Y48166D01*
X280795Y48116D01*
Y45418D01*
X280295Y45286D01*
X279638Y45726D01*
X278793Y45894D01*
X276627D01*
Y43686D01*
Y41478D01*
X278793D01*
X279332Y41585D01*
X279578Y41124D01*
X278745Y40292D01*
X273281D01*
X272667Y40169D01*
X272146Y39821D01*
X271798Y39300D01*
X271675Y38686D01*
X271798Y38071D01*
X272146Y37550D01*
X272667Y37202D01*
X273281Y37080D01*
X278793D01*
X279407Y37202D01*
X279928Y37550D01*
X279951Y37584D01*
X280135Y37707D01*
X283193Y40766D01*
X283498Y41221D01*
X283605Y41759D01*
Y65642D01*
X283498Y66180D01*
X283193Y66636D01*
X280135Y69694D01*
X279679Y69999D01*
X279655Y70004D01*
X279407Y70169D01*
X278793Y70292D01*
X273662D01*
X272912Y71042D01*
X273158Y71502D01*
X273281Y71478D01*
X275446D01*
Y73686D01*
Y75894D01*
X273281D01*
X272436Y75726D01*
X271720Y75247D01*
X271241Y74531D01*
X271073Y73686D01*
X271115Y73474D01*
X270665Y73173D01*
X270556Y73247D01*
X270018Y73354D01*
X268406D01*
Y76673D01*
X264969D01*
Y163786D01*
X266804Y165621D01*
X267396D01*
Y166213D01*
X275362Y174179D01*
X280493D01*
X281107Y174302D01*
X281628Y174650D01*
X281651Y174683D01*
X281835Y174807D01*
X286678Y179649D01*
X287178Y179448D01*
Y125898D01*
X277339Y116059D01*
X273814D01*
Y110547D01*
X279326D01*
Y114072D01*
X289576Y124322D01*
X289881Y124778D01*
X289988Y125316D01*
Y211024D01*
X289881Y211561D01*
X289576Y212017D01*
X279675Y221919D01*
Y247646D01*
X281026D01*
Y251171D01*
X289182Y259328D01*
X289487Y259784D01*
X289594Y260321D01*
Y339370D01*
X289487Y339908D01*
X289182Y340364D01*
X280874Y348672D01*
Y374046D01*
X282225D01*
Y379558D01*
D02*
G37*
G36*
X30191Y319853D02*
Y316791D01*
X33253D01*
X33030Y317621D01*
X32546Y318460D01*
X31860Y319146D01*
X31021Y319630D01*
X30191Y319853D01*
D02*
G37*
G36*
X29009D02*
X28179Y319630D01*
X27340Y319146D01*
X26654Y318460D01*
X26170Y317621D01*
X25947Y316791D01*
X29009D01*
Y319853D01*
D02*
G37*
G36*
X19009D02*
X18179Y319630D01*
X17340Y319146D01*
X16654Y318460D01*
X16170Y317621D01*
X15947Y316791D01*
X19009D01*
Y319853D01*
D02*
G37*
G36*
X33253Y315610D02*
X30191D01*
Y312547D01*
X31021Y312770D01*
X31860Y313254D01*
X32546Y313940D01*
X33030Y314779D01*
X33253Y315610D01*
D02*
G37*
G36*
X29009D02*
X25947D01*
X26170Y314779D01*
X26654Y313940D01*
X27340Y313254D01*
X28179Y312770D01*
X29009Y312547D01*
Y315610D01*
D02*
G37*
G36*
X19009D02*
X15947D01*
X16170Y314779D01*
X16654Y313940D01*
X17340Y313254D01*
X18179Y312770D01*
X19009Y312547D01*
Y315610D01*
D02*
G37*
G36*
X20007Y309291D02*
X19193D01*
X18407Y309080D01*
X17702Y308673D01*
X17127Y308098D01*
X16720Y307393D01*
X16509Y306607D01*
Y306083D01*
X16438Y306069D01*
X15982Y305765D01*
X3423Y293205D01*
X-8247D01*
X-8784Y293098D01*
X-9240Y292793D01*
X-10393Y291640D01*
X-10698Y291184D01*
X-10805Y290647D01*
Y269263D01*
X-10698Y268726D01*
X-10393Y268270D01*
X-9240Y267117D01*
X-8784Y266812D01*
X-8247Y266705D01*
X-4491D01*
Y259025D01*
X2910D01*
Y272175D01*
X-4491D01*
Y269515D01*
X-7665D01*
X-7995Y269845D01*
Y290065D01*
X-7665Y290395D01*
X4005D01*
X4542Y290502D01*
X4998Y290807D01*
X17636Y303444D01*
X17782Y303473D01*
X17949Y303585D01*
X18407Y303320D01*
X19193Y303110D01*
X20007D01*
X20793Y303320D01*
X21498Y303727D01*
X22073Y304302D01*
X22480Y305007D01*
X22691Y305793D01*
Y306607D01*
X22480Y307393D01*
X22073Y308098D01*
X21498Y308673D01*
X20793Y309080D01*
X20007Y309291D01*
D02*
G37*
G36*
X30191Y299853D02*
Y296791D01*
X33253D01*
X33030Y297621D01*
X32546Y298460D01*
X31860Y299146D01*
X31021Y299630D01*
X30191Y299853D01*
D02*
G37*
G36*
X20190D02*
Y296791D01*
X23253D01*
X23030Y297621D01*
X22546Y298460D01*
X21860Y299146D01*
X21021Y299630D01*
X20190Y299853D01*
D02*
G37*
G36*
X29009D02*
X28179Y299630D01*
X27340Y299146D01*
X26654Y298460D01*
X26170Y297621D01*
X25947Y296791D01*
X29009D01*
Y299853D01*
D02*
G37*
G36*
X19009D02*
X18179Y299630D01*
X17340Y299146D01*
X16654Y298460D01*
X16170Y297621D01*
X15947Y296791D01*
X19009D01*
Y299853D01*
D02*
G37*
G36*
X33253Y295609D02*
X30191D01*
Y292547D01*
X31021Y292770D01*
X31860Y293254D01*
X32546Y293940D01*
X33030Y294779D01*
X33253Y295609D01*
D02*
G37*
G36*
X23253D02*
X20190D01*
Y292547D01*
X21021Y292770D01*
X21860Y293254D01*
X22546Y293940D01*
X23030Y294779D01*
X23253Y295609D01*
D02*
G37*
G36*
X29009D02*
X25947D01*
X26170Y294779D01*
X26654Y293940D01*
X27340Y293254D01*
X28179Y292770D01*
X29009Y292547D01*
Y295609D01*
D02*
G37*
G36*
X19009D02*
X15947D01*
X16170Y294779D01*
X16654Y293940D01*
X17340Y293254D01*
X18179Y292770D01*
X19009Y292547D01*
Y295609D01*
D02*
G37*
G36*
X3310Y289575D02*
X-4091D01*
Y276425D01*
X3310D01*
Y280592D01*
X16400D01*
X17322Y280775D01*
X18103Y281297D01*
X19916Y283109D01*
X20007D01*
X20793Y283320D01*
X21498Y283727D01*
X21562Y283791D01*
X26509D01*
Y283109D01*
X32691D01*
Y289291D01*
X26509D01*
Y288609D01*
X21562D01*
X21498Y288673D01*
X20793Y289080D01*
X20007Y289291D01*
X19193D01*
X18407Y289080D01*
X17702Y288673D01*
X17127Y288098D01*
X16720Y287393D01*
X16509Y286607D01*
Y286516D01*
X15402Y285408D01*
X3310D01*
Y289575D01*
D02*
G37*
G36*
X-42480Y282347D02*
X-48386D01*
Y280870D01*
X-42480D01*
Y282347D01*
D02*
G37*
G36*
X-49567D02*
X-55472D01*
Y280870D01*
X-49567D01*
Y282347D01*
D02*
G37*
G36*
X-42480Y279689D02*
X-48976D01*
X-55472D01*
Y278213D01*
Y277721D01*
X-48976D01*
X-42480D01*
Y278213D01*
Y279689D01*
D02*
G37*
G36*
X-15509Y289575D02*
X-22910D01*
Y278412D01*
X-25937Y275385D01*
X-42480D01*
Y276539D01*
X-48976D01*
X-55472D01*
Y275063D01*
X-54882D01*
Y272898D01*
X-55472D01*
Y271421D01*
X-48976D01*
X-42480D01*
Y272575D01*
X-25355D01*
X-24818Y272682D01*
X-24362Y272987D01*
X-20923Y276425D01*
X-15509D01*
Y289575D01*
D02*
G37*
G36*
X-15909Y272175D02*
X-23310D01*
Y269086D01*
X-42480D01*
Y270240D01*
X-48976D01*
X-55472D01*
Y268764D01*
X-54882D01*
Y266598D01*
X-55472D01*
Y265122D01*
X-48976D01*
X-42480D01*
Y266276D01*
X-23310D01*
Y259025D01*
X-15909D01*
Y272175D01*
D02*
G37*
G36*
X39391Y262653D02*
Y259591D01*
X42453D01*
X42230Y260421D01*
X41745Y261260D01*
X41060Y261946D01*
X40221Y262430D01*
X39391Y262653D01*
D02*
G37*
G36*
X38209D02*
X37379Y262430D01*
X36540Y261946D01*
X35854Y261260D01*
X35370Y260421D01*
X35147Y259591D01*
X38209D01*
Y262653D01*
D02*
G37*
G36*
X42453Y258410D02*
X39391D01*
Y255347D01*
X40221Y255570D01*
X41060Y256054D01*
X41745Y256740D01*
X42230Y257579D01*
X42453Y258410D01*
D02*
G37*
G36*
X38209D02*
X35147D01*
X35370Y257579D01*
X35854Y256740D01*
X36540Y256054D01*
X37379Y255570D01*
X38209Y255347D01*
Y258410D01*
D02*
G37*
G36*
X288860Y253708D02*
Y250993D01*
X291576D01*
X291388Y251694D01*
X290947Y252457D01*
X290324Y253080D01*
X289561Y253520D01*
X288860Y253708D01*
D02*
G37*
G36*
X287679D02*
X286978Y253520D01*
X286215Y253080D01*
X285592Y252457D01*
X285151Y251694D01*
X284963Y250993D01*
X287679D01*
Y253708D01*
D02*
G37*
G36*
X39391Y252653D02*
Y249591D01*
X42453D01*
X42230Y250421D01*
X41745Y251260D01*
X41060Y251946D01*
X40221Y252430D01*
X39391Y252653D01*
D02*
G37*
G36*
X38209D02*
X37379Y252430D01*
X36540Y251946D01*
X35854Y251260D01*
X35370Y250421D01*
X35147Y249591D01*
X38209D01*
Y252653D01*
D02*
G37*
G36*
X291576Y249812D02*
X288860D01*
Y247096D01*
X289561Y247284D01*
X290324Y247724D01*
X290947Y248347D01*
X291388Y249110D01*
X291576Y249812D01*
D02*
G37*
G36*
X287679D02*
X284963D01*
X285151Y249110D01*
X285592Y248347D01*
X286215Y247724D01*
X286978Y247284D01*
X287679Y247096D01*
Y249812D01*
D02*
G37*
G36*
X19207Y252091D02*
X18393D01*
X17607Y251880D01*
X16902Y251473D01*
X16327Y250898D01*
X15920Y250193D01*
X15709Y249407D01*
Y248593D01*
X15920Y247807D01*
X16327Y247102D01*
X16902Y246527D01*
X17607Y246120D01*
X18393Y245910D01*
X19207D01*
X19993Y246120D01*
X20698Y246527D01*
X21273Y247102D01*
X21680Y247807D01*
X21891Y248593D01*
Y249407D01*
X21680Y250193D01*
X21273Y250898D01*
X20698Y251473D01*
X19993Y251880D01*
X19207Y252091D01*
D02*
G37*
G36*
X42453Y248410D02*
X39391D01*
Y245347D01*
X40221Y245570D01*
X41060Y246054D01*
X41745Y246740D01*
X42230Y247579D01*
X42453Y248410D01*
D02*
G37*
G36*
X38209D02*
X35147D01*
X35370Y247579D01*
X35854Y246740D01*
X36540Y246054D01*
X37379Y245570D01*
X38209Y245347D01*
Y248410D01*
D02*
G37*
G36*
X-42480Y263941D02*
X-48976D01*
X-55472D01*
Y262464D01*
X-54882D01*
Y260299D01*
X-55472D01*
Y258823D01*
X-48976D01*
X-42480D01*
Y259977D01*
X-29899D01*
X-23010Y253088D01*
Y241925D01*
X-15609D01*
Y255075D01*
X-21023D01*
X-28324Y262375D01*
X-28780Y262680D01*
X-29317Y262787D01*
X-42480D01*
Y263941D01*
D02*
G37*
G36*
X7900Y277405D02*
X7764Y277378D01*
X7626D01*
X7498Y277325D01*
X7362Y277298D01*
X7247Y277221D01*
X7119Y277168D01*
X7022Y277070D01*
X6907Y276993D01*
X6807Y276893D01*
X6502Y276438D01*
X6395Y275900D01*
Y260246D01*
X1223Y255075D01*
X-4191D01*
Y241925D01*
X3028D01*
X3210Y241925D01*
X3528Y241557D01*
Y241345D01*
X3143Y240960D01*
X-23290D01*
X-37980Y255650D01*
X-38240Y255824D01*
X-38547Y255885D01*
X-42096D01*
X-42480Y256165D01*
Y257642D01*
X-48976D01*
X-55472D01*
Y256165D01*
X-54882D01*
Y254000D01*
X-55472D01*
Y252524D01*
X-48976D01*
X-42480D01*
Y254000D01*
X-42096Y254280D01*
X-38880D01*
X-34686Y250086D01*
X-34893Y249586D01*
X-42096D01*
X-42480Y249866D01*
Y251343D01*
X-48976D01*
X-55472D01*
Y249866D01*
X-54882D01*
Y247701D01*
X-55472D01*
Y246224D01*
X-48976D01*
X-42480D01*
Y247701D01*
X-42096Y247981D01*
X-34549D01*
X-30356Y243787D01*
X-30563Y243287D01*
X-42096D01*
X-42480Y243567D01*
Y245043D01*
X-48976D01*
X-55472D01*
Y243567D01*
X-54882D01*
Y241402D01*
X-55472D01*
Y239925D01*
X-48976D01*
X-42480D01*
Y241402D01*
X-42096Y241681D01*
X-30218D01*
X-26025Y237488D01*
X-26232Y236988D01*
X-42096D01*
X-42480Y237268D01*
Y238744D01*
X-48976D01*
X-55472D01*
Y237268D01*
X-54882D01*
Y235102D01*
X-55472D01*
Y233626D01*
X-48976D01*
X-42480D01*
Y235102D01*
X-42096Y235382D01*
X7445D01*
X7623Y235418D01*
X15416D01*
X17046Y233787D01*
X16928Y233383D01*
X16859Y233287D01*
X15555D01*
X15248Y233226D01*
X14988Y233052D01*
X14987Y233052D01*
X12624Y230689D01*
X-42096D01*
X-42480Y230968D01*
Y232445D01*
X-48976D01*
X-55472D01*
Y230968D01*
X-54882D01*
Y228803D01*
X-55472D01*
Y227327D01*
X-48976D01*
X-42480D01*
Y228803D01*
X-42096Y229083D01*
X12957D01*
X13264Y229144D01*
X13524Y229318D01*
X15888Y231681D01*
X16404D01*
X16611Y231181D01*
X16327Y230898D01*
X15920Y230193D01*
X15709Y229407D01*
Y228593D01*
X15920Y227807D01*
X16327Y227102D01*
X16902Y226527D01*
X17607Y226120D01*
X18393Y225909D01*
X19207D01*
X19993Y226120D01*
X20698Y226527D01*
X21273Y227102D01*
X21680Y227807D01*
X21891Y228593D01*
Y229407D01*
X21680Y230193D01*
X21273Y230898D01*
X20989Y231181D01*
X21196Y231681D01*
X24983D01*
X26122Y230543D01*
X25920Y230193D01*
X25709Y229407D01*
Y228593D01*
X25920Y227807D01*
X26327Y227102D01*
X26902Y226527D01*
X27607Y226120D01*
X28393Y225909D01*
X29207D01*
X29993Y226120D01*
X30698Y226527D01*
X31273Y227102D01*
X31680Y227807D01*
X31890Y228593D01*
Y229407D01*
X31680Y230193D01*
X31273Y230898D01*
X30698Y231473D01*
X29993Y231880D01*
X29207Y232091D01*
X28393D01*
X27607Y231880D01*
X27257Y231678D01*
X25883Y233052D01*
X25623Y233226D01*
X25316Y233287D01*
X24910D01*
X24840Y233383D01*
X24722Y233787D01*
X27257Y236322D01*
X27607Y236120D01*
X28393Y235910D01*
X29207D01*
X29993Y236120D01*
X30698Y236527D01*
X31273Y237102D01*
X31680Y237807D01*
X31890Y238593D01*
Y239407D01*
X31680Y240193D01*
X31273Y240898D01*
X30698Y241473D01*
X29993Y241880D01*
X29207Y242091D01*
X28393D01*
X27607Y241880D01*
X26902Y241473D01*
X26327Y240898D01*
X25920Y240193D01*
X25709Y239407D01*
Y238593D01*
X25920Y237807D01*
X26122Y237457D01*
X23719Y235055D01*
X18049D01*
X17431Y235673D01*
X17722Y236089D01*
X18393Y235910D01*
X19207D01*
X19993Y236120D01*
X20698Y236527D01*
X21273Y237102D01*
X21680Y237807D01*
X21891Y238593D01*
Y239407D01*
X21680Y240193D01*
X21273Y240898D01*
X20698Y241473D01*
X19993Y241880D01*
X19207Y242091D01*
X18393D01*
X17607Y241880D01*
X16902Y241473D01*
X16327Y240898D01*
X15920Y240193D01*
X15709Y239407D01*
Y238593D01*
X15920Y237807D01*
X16121Y237459D01*
X15801Y237013D01*
X15748Y237023D01*
X7480D01*
X7302Y236988D01*
X6547D01*
X6340Y237488D01*
X12537Y243685D01*
X24288D01*
X24595Y243746D01*
X24856Y243920D01*
X27257Y246322D01*
X27607Y246120D01*
X28393Y245910D01*
X29207D01*
X29993Y246120D01*
X30698Y246527D01*
X31273Y247102D01*
X31680Y247807D01*
X31890Y248593D01*
Y249407D01*
X31680Y250193D01*
X31273Y250898D01*
X30698Y251473D01*
X29993Y251880D01*
X29207Y252091D01*
X28393D01*
X27607Y251880D01*
X26902Y251473D01*
X26327Y250898D01*
X25920Y250193D01*
X25709Y249407D01*
Y248593D01*
X25920Y247807D01*
X26122Y247457D01*
X23956Y245291D01*
X12205D01*
X11897Y245230D01*
X11637Y245056D01*
X11637Y245056D01*
X6755Y240174D01*
X6294Y240420D01*
X6315Y240523D01*
X6315Y240523D01*
Y247603D01*
X11954Y253243D01*
X22550D01*
X22857Y253304D01*
X23118Y253478D01*
X26534Y256895D01*
X26902Y256527D01*
X27607Y256120D01*
X28393Y255909D01*
X29207D01*
X29993Y256120D01*
X30698Y256527D01*
X31273Y257102D01*
X31680Y257807D01*
X31890Y258593D01*
Y259407D01*
X31680Y260193D01*
X31273Y260898D01*
X30698Y261473D01*
X29993Y261880D01*
X29207Y262091D01*
X28393D01*
X27607Y261880D01*
X26902Y261473D01*
X26327Y260898D01*
X25920Y260193D01*
X25709Y259407D01*
Y258593D01*
X25773Y258357D01*
X25629Y258261D01*
X22218Y254849D01*
X12543D01*
X12352Y255311D01*
X15209Y258169D01*
X15709Y258128D01*
Y255909D01*
X21891D01*
Y262091D01*
X15709D01*
Y259803D01*
X14906D01*
X14598Y259742D01*
X14338Y259568D01*
X14338Y259568D01*
X3763Y248993D01*
X3710Y248914D01*
X3210Y249066D01*
Y253088D01*
X8793Y258671D01*
X9098Y259127D01*
X9205Y259665D01*
Y275497D01*
X9225Y275598D01*
X9278Y275726D01*
Y275864D01*
X9305Y276000D01*
X9278Y276136D01*
Y276274D01*
X9225Y276402D01*
X9198Y276538D01*
X9121Y276653D01*
X9068Y276781D01*
X8970Y276878D01*
X8893Y276993D01*
X8778Y277070D01*
X8681Y277168D01*
X8553Y277221D01*
X8438Y277298D01*
X8302Y277325D01*
X8174Y277378D01*
X8036D01*
X7900Y277405D01*
D02*
G37*
G36*
X39391Y242653D02*
Y239591D01*
X42453D01*
X42230Y240421D01*
X41745Y241260D01*
X41060Y241946D01*
X40221Y242430D01*
X39391Y242653D01*
D02*
G37*
G36*
X38209D02*
X37379Y242430D01*
X36540Y241946D01*
X35854Y241260D01*
X35370Y240421D01*
X35147Y239591D01*
X38209D01*
Y242653D01*
D02*
G37*
G36*
X42453Y238409D02*
X39391D01*
Y235347D01*
X40221Y235570D01*
X41060Y236054D01*
X41745Y236740D01*
X42230Y237579D01*
X42453Y238409D01*
D02*
G37*
G36*
X38209D02*
X35147D01*
X35370Y237579D01*
X35854Y236740D01*
X36540Y236054D01*
X37379Y235570D01*
X38209Y235347D01*
Y238409D01*
D02*
G37*
G36*
X39391Y232653D02*
Y229591D01*
X42453D01*
X42230Y230421D01*
X41745Y231260D01*
X41060Y231946D01*
X40221Y232430D01*
X39391Y232653D01*
D02*
G37*
G36*
X38209D02*
X37379Y232430D01*
X36540Y231946D01*
X35854Y231260D01*
X35370Y230421D01*
X35147Y229591D01*
X38209D01*
Y232653D01*
D02*
G37*
G36*
X42453Y228410D02*
X39391D01*
Y225347D01*
X40221Y225570D01*
X41060Y226054D01*
X41745Y226740D01*
X42230Y227579D01*
X42453Y228410D01*
D02*
G37*
G36*
X38209D02*
X35147D01*
X35370Y227579D01*
X35854Y226740D01*
X36540Y226054D01*
X37379Y225570D01*
X38209Y225347D01*
Y228410D01*
D02*
G37*
G36*
Y222653D02*
X37379Y222430D01*
X36540Y221946D01*
X35854Y221260D01*
X35370Y220421D01*
X35147Y219591D01*
X38209D01*
Y222653D01*
D02*
G37*
G36*
X-42480Y226146D02*
X-48976D01*
X-55472D01*
Y224669D01*
X-54882D01*
Y222504D01*
X-55472D01*
Y221028D01*
X-48976D01*
X-42480D01*
Y222504D01*
X-42096Y222784D01*
X23881D01*
X26122Y220543D01*
X25920Y220193D01*
X25709Y219407D01*
Y218593D01*
X25920Y217807D01*
X26327Y217102D01*
X26902Y216527D01*
X27607Y216120D01*
X28393Y215910D01*
X29207D01*
X29993Y216120D01*
X30698Y216527D01*
X31273Y217102D01*
X31680Y217807D01*
X31890Y218593D01*
Y219407D01*
X31680Y220193D01*
X31273Y220898D01*
X30698Y221473D01*
X29993Y221880D01*
X29207Y222091D01*
X28393D01*
X27607Y221880D01*
X27257Y221678D01*
X24781Y224154D01*
X24521Y224328D01*
X24213Y224389D01*
X-42096D01*
X-42480Y224669D01*
Y226146D01*
D02*
G37*
G36*
X19207Y222091D02*
X18393D01*
X17607Y221880D01*
X16902Y221473D01*
X16327Y220898D01*
X15920Y220193D01*
X15709Y219407D01*
Y218593D01*
X15920Y217807D01*
X16327Y217102D01*
X16902Y216527D01*
X17607Y216120D01*
X18393Y215910D01*
X19207D01*
X19993Y216120D01*
X20698Y216527D01*
X21273Y217102D01*
X21680Y217807D01*
X21891Y218593D01*
Y219407D01*
X21680Y220193D01*
X21273Y220898D01*
X20698Y221473D01*
X19993Y221880D01*
X19207Y222091D01*
D02*
G37*
G36*
Y212091D02*
X18393D01*
X17607Y211880D01*
X16902Y211473D01*
X16327Y210898D01*
X15920Y210193D01*
X15709Y209407D01*
Y208593D01*
X15920Y207807D01*
X16327Y207102D01*
X16902Y206527D01*
X17607Y206120D01*
X18393Y205909D01*
X19207D01*
X19993Y206120D01*
X20698Y206527D01*
X21273Y207102D01*
X21680Y207807D01*
X21891Y208593D01*
Y209407D01*
X21680Y210193D01*
X21273Y210898D01*
X20698Y211473D01*
X19993Y211880D01*
X19207Y212091D01*
D02*
G37*
G36*
Y202091D02*
X18393D01*
X17607Y201880D01*
X16902Y201473D01*
X16327Y200898D01*
X15920Y200193D01*
X15709Y199407D01*
Y198593D01*
X15920Y197807D01*
X16327Y197102D01*
X16902Y196527D01*
X17607Y196120D01*
X18393Y195910D01*
X19207D01*
X19993Y196120D01*
X20698Y196527D01*
X21273Y197102D01*
X21680Y197807D01*
X21891Y198593D01*
Y199407D01*
X21680Y200193D01*
X21273Y200898D01*
X20698Y201473D01*
X19993Y201880D01*
X19207Y202091D01*
D02*
G37*
G36*
X38209Y192653D02*
X37379Y192430D01*
X36540Y191946D01*
X35854Y191260D01*
X35370Y190421D01*
X35147Y189591D01*
X38209D01*
Y192653D01*
D02*
G37*
G36*
X19207Y192091D02*
X18393D01*
X17607Y191880D01*
X16902Y191473D01*
X16327Y190898D01*
X15920Y190193D01*
X15709Y189407D01*
Y188593D01*
X15920Y187807D01*
X16327Y187102D01*
X16902Y186527D01*
X17607Y186120D01*
X18393Y185909D01*
X19207D01*
X19993Y186120D01*
X20698Y186527D01*
X21273Y187102D01*
X21680Y187807D01*
X21891Y188593D01*
Y189407D01*
X21680Y190193D01*
X21273Y190898D01*
X20698Y191473D01*
X19993Y191880D01*
X19207Y192091D01*
D02*
G37*
G36*
X-42480Y184709D02*
X-48386D01*
Y183232D01*
X-42480D01*
Y184709D01*
D02*
G37*
G36*
X-49567D02*
X-55472D01*
Y183232D01*
X-49567D01*
Y184709D01*
D02*
G37*
G36*
X280493Y182993D02*
X278327D01*
Y181376D01*
X282583D01*
X282533Y181630D01*
X282054Y182346D01*
X281338Y182825D01*
X280493Y182993D01*
D02*
G37*
G36*
X277146D02*
X274981D01*
X274136Y182825D01*
X273420Y182346D01*
X272941Y181630D01*
X272891Y181376D01*
X277146D01*
Y182993D01*
D02*
G37*
G36*
Y180194D02*
X272891D01*
X272941Y179940D01*
X273420Y179224D01*
X274136Y178745D01*
X274981Y178577D01*
X277146D01*
Y180194D01*
D02*
G37*
G36*
X267987Y180188D02*
X264542D01*
Y177137D01*
X267987D01*
Y180188D01*
D02*
G37*
G36*
X263361D02*
X259916D01*
Y177137D01*
X263361D01*
Y180188D01*
D02*
G37*
G36*
X267987Y175956D02*
X264542D01*
Y172905D01*
X267987D01*
Y175956D01*
D02*
G37*
G36*
X263361D02*
X259916D01*
Y172905D01*
X263361D01*
Y175956D01*
D02*
G37*
G36*
X39391Y172653D02*
Y169591D01*
X42453D01*
X42230Y170421D01*
X41745Y171260D01*
X41060Y171946D01*
X40221Y172430D01*
X39391Y172653D01*
D02*
G37*
G36*
X38209D02*
X37379Y172430D01*
X36540Y171946D01*
X35854Y171260D01*
X35370Y170421D01*
X35147Y169591D01*
X38209D01*
Y172653D01*
D02*
G37*
G36*
X42453Y168410D02*
X39391D01*
Y165347D01*
X40221Y165570D01*
X41060Y166054D01*
X41745Y166740D01*
X42230Y167579D01*
X42453Y168410D01*
D02*
G37*
G36*
X38209D02*
X35147D01*
X35370Y167579D01*
X35854Y166740D01*
X36540Y166054D01*
X37379Y165570D01*
X38209Y165347D01*
Y168410D01*
D02*
G37*
G36*
X39590Y150553D02*
Y147491D01*
X42653D01*
X42430Y148321D01*
X41945Y149160D01*
X41260Y149846D01*
X40421Y150330D01*
X39590Y150553D01*
D02*
G37*
G36*
X38409D02*
X37579Y150330D01*
X36740Y149846D01*
X36054Y149160D01*
X35570Y148321D01*
X35347Y147491D01*
X38409D01*
Y150553D01*
D02*
G37*
G36*
X42653Y146309D02*
X39590D01*
Y143247D01*
X40421Y143470D01*
X41260Y143954D01*
X41945Y144640D01*
X42430Y145479D01*
X42653Y146309D01*
D02*
G37*
G36*
X38409D02*
X35347D01*
X35570Y145479D01*
X36054Y144640D01*
X36740Y143954D01*
X37579Y143470D01*
X38409Y143247D01*
Y146309D01*
D02*
G37*
G36*
X-42480Y150555D02*
X-48976D01*
X-55472D01*
Y149079D01*
X-54882D01*
Y146823D01*
X-54882Y146520D01*
X-54882Y146020D01*
Y143764D01*
X-55472D01*
Y142287D01*
X-48976D01*
X-42480D01*
Y143764D01*
X-43071D01*
Y146020D01*
X-43071Y146323D01*
X-43071Y146823D01*
Y149079D01*
X-42480D01*
Y150555D01*
D02*
G37*
G36*
X39590Y140553D02*
Y137491D01*
X42653D01*
X42430Y138321D01*
X41945Y139160D01*
X41260Y139846D01*
X40421Y140330D01*
X39590Y140553D01*
D02*
G37*
G36*
X19407Y139991D02*
X18593D01*
X17807Y139780D01*
X17102Y139373D01*
X16527Y138798D01*
X16120Y138093D01*
X15909Y137307D01*
Y136493D01*
X16120Y135707D01*
X16527Y135002D01*
X17102Y134427D01*
X17807Y134020D01*
X18593Y133809D01*
X19407D01*
X20193Y134020D01*
X20898Y134427D01*
X21473Y135002D01*
X21880Y135707D01*
X22091Y136493D01*
Y137307D01*
X21880Y138093D01*
X21473Y138798D01*
X20898Y139373D01*
X20193Y139780D01*
X19407Y139991D01*
D02*
G37*
G36*
X-42480Y141106D02*
X-48976D01*
X-55472D01*
Y139630D01*
X-54882D01*
Y137374D01*
X-54882Y137071D01*
X-54882Y136571D01*
Y134315D01*
X-55472D01*
Y132839D01*
X-48976D01*
X-42480D01*
Y134315D01*
X-43071D01*
Y136571D01*
X-43071Y136874D01*
X-43071Y137374D01*
Y139630D01*
X-42480D01*
Y141106D01*
D02*
G37*
G36*
Y169453D02*
X-48976D01*
X-55472D01*
Y167976D01*
X-54882D01*
Y165811D01*
X-55472D01*
Y164335D01*
X-48976D01*
X-42480D01*
Y165811D01*
X-42096Y166091D01*
X-20770D01*
X13605Y131716D01*
X13605Y131716D01*
X13866Y131542D01*
X14173Y131481D01*
X14173Y131481D01*
X23284D01*
X26322Y128443D01*
X26120Y128093D01*
X25909Y127307D01*
Y126493D01*
X26120Y125707D01*
X26527Y125002D01*
X27102Y124427D01*
X27807Y124020D01*
X28593Y123810D01*
X29407D01*
X30193Y124020D01*
X30898Y124427D01*
X31473Y125002D01*
X31880Y125707D01*
X32090Y126493D01*
Y127307D01*
X31880Y128093D01*
X31473Y128798D01*
X30898Y129373D01*
X30193Y129780D01*
X29407Y129991D01*
X28593D01*
X27807Y129780D01*
X27457Y129578D01*
X24184Y132851D01*
X23924Y133025D01*
X23617Y133086D01*
X14506D01*
X-19869Y167461D01*
X-20130Y167635D01*
X-20437Y167696D01*
X-42096D01*
X-42480Y167976D01*
Y169453D01*
D02*
G37*
G36*
X19407Y129991D02*
X18593D01*
X17807Y129780D01*
X17102Y129373D01*
X16527Y128798D01*
X16120Y128093D01*
X15909Y127307D01*
Y126493D01*
X16120Y125707D01*
X16527Y125002D01*
X17102Y124427D01*
X17807Y124020D01*
X18593Y123810D01*
X19407D01*
X20193Y124020D01*
X20898Y124427D01*
X21473Y125002D01*
X21880Y125707D01*
X22091Y126493D01*
Y127307D01*
X21880Y128093D01*
X21473Y128798D01*
X20898Y129373D01*
X20193Y129780D01*
X19407Y129991D01*
D02*
G37*
G36*
X-25492Y121358D02*
X-27756D01*
Y119291D01*
X-25492D01*
Y121358D01*
D02*
G37*
G36*
X-28937D02*
X-31201D01*
Y119291D01*
X-28937D01*
Y121358D01*
D02*
G37*
G36*
X-42480Y131658D02*
X-48976D01*
X-55472D01*
Y130181D01*
X-54882D01*
Y127925D01*
X-54882Y127622D01*
X-54882Y127122D01*
Y124776D01*
X-54882Y124472D01*
X-54882Y123972D01*
Y121626D01*
X-54882Y121323D01*
X-54882Y120823D01*
Y118567D01*
X-55472D01*
Y117091D01*
X-48976D01*
X-42480D01*
Y117437D01*
X-42427Y117470D01*
X-41980Y117591D01*
X-41688Y117298D01*
X-41182Y117089D01*
X-40633D01*
X-40127Y117298D01*
X-39762Y117664D01*
X-38091D01*
Y116634D01*
X-33563D01*
Y120768D01*
X-38091D01*
Y119270D01*
X-39762D01*
X-40127Y119635D01*
X-40633Y119845D01*
X-41182D01*
X-41688Y119635D01*
X-42076Y119247D01*
X-42199Y118950D01*
X-42378Y118706D01*
X-42571Y118633D01*
X-43071Y118897D01*
Y120823D01*
X-43071Y121126D01*
X-43071Y121626D01*
Y123972D01*
X-43071Y124276D01*
X-43071Y124776D01*
Y127122D01*
X-43071Y127425D01*
X-43071Y127925D01*
Y130181D01*
X-42480D01*
Y131658D01*
D02*
G37*
G36*
X-25492Y118110D02*
X-31201D01*
Y116043D01*
X-30867D01*
X-30610Y115650D01*
X-30610Y115543D01*
Y114386D01*
X-33563D01*
Y115650D01*
X-38091D01*
Y114153D01*
X-42096D01*
X-42480Y114433D01*
Y115910D01*
X-48976D01*
X-55472D01*
Y114433D01*
X-54882D01*
Y111874D01*
X-43071D01*
Y112548D01*
X-38091D01*
Y111516D01*
X-33563D01*
Y112780D01*
X-30610D01*
Y111516D01*
X-26083D01*
Y115543D01*
X-26083Y115650D01*
X-25826Y116043D01*
X-25492D01*
Y118110D01*
D02*
G37*
G36*
X287160Y116609D02*
Y113893D01*
X289876D01*
X289688Y114595D01*
X289247Y115358D01*
X288624Y115981D01*
X287861Y116421D01*
X287160Y116609D01*
D02*
G37*
G36*
X285979D02*
X285278Y116421D01*
X284515Y115981D01*
X283892Y115358D01*
X283451Y114595D01*
X283263Y113893D01*
X285979D01*
Y116609D01*
D02*
G37*
G36*
X39407Y119991D02*
X38593D01*
X37807Y119780D01*
X37102Y119373D01*
X36527Y118798D01*
X36120Y118093D01*
X35909Y117307D01*
Y116493D01*
X36120Y115707D01*
X36527Y115002D01*
X37102Y114427D01*
X37807Y114020D01*
X38593Y113810D01*
X39407D01*
X40193Y114020D01*
X40898Y114427D01*
X41473Y115002D01*
X41880Y115707D01*
X42090Y116493D01*
Y117307D01*
X41880Y118093D01*
X41473Y118798D01*
X40898Y119373D01*
X40193Y119780D01*
X39407Y119991D01*
D02*
G37*
G36*
X-42480Y163154D02*
X-48976D01*
X-55472D01*
Y161677D01*
X-54882D01*
Y159512D01*
X-55472D01*
Y158035D01*
X-48976D01*
X-42480D01*
Y159512D01*
X-42096Y159792D01*
X-23919D01*
X13999Y121873D01*
X14260Y121699D01*
X14567Y121638D01*
X14567Y121638D01*
X23126D01*
X26322Y118443D01*
X26120Y118093D01*
X25909Y117307D01*
Y116493D01*
X26120Y115707D01*
X26527Y115002D01*
X27102Y114427D01*
X27807Y114020D01*
X28593Y113810D01*
X29407D01*
X30193Y114020D01*
X30898Y114427D01*
X31473Y115002D01*
X31880Y115707D01*
X32090Y116493D01*
Y117307D01*
X31880Y118093D01*
X31473Y118798D01*
X30898Y119373D01*
X30193Y119780D01*
X29407Y119991D01*
X28593D01*
X27807Y119780D01*
X27457Y119578D01*
X24027Y123009D01*
X23766Y123183D01*
X23459Y123244D01*
X14899D01*
X-23019Y161162D01*
X-23279Y161336D01*
X-23586Y161397D01*
X-42096D01*
X-42480Y161677D01*
Y163154D01*
D02*
G37*
G36*
X19407Y119991D02*
X18593D01*
X17807Y119780D01*
X17102Y119373D01*
X16527Y118798D01*
X16120Y118093D01*
X15909Y117307D01*
Y116493D01*
X16120Y115707D01*
X16527Y115002D01*
X17102Y114427D01*
X17807Y114020D01*
X18593Y113810D01*
X19407D01*
X20193Y114020D01*
X20898Y114427D01*
X21473Y115002D01*
X21880Y115707D01*
X22091Y116493D01*
Y117307D01*
X21880Y118093D01*
X21473Y118798D01*
X20898Y119373D01*
X20193Y119780D01*
X19407Y119991D01*
D02*
G37*
G36*
X289876Y112712D02*
X287160D01*
Y109997D01*
X287861Y110185D01*
X288624Y110625D01*
X289247Y111248D01*
X289688Y112011D01*
X289876Y112712D01*
D02*
G37*
G36*
X285979D02*
X283263D01*
X283451Y112011D01*
X283892Y111248D01*
X284515Y110625D01*
X285278Y110185D01*
X285979Y109997D01*
Y112712D01*
D02*
G37*
G36*
X39407Y109991D02*
X38593D01*
X37807Y109780D01*
X37102Y109373D01*
X36527Y108798D01*
X36120Y108093D01*
X35909Y107307D01*
Y106493D01*
X36120Y105707D01*
X36527Y105002D01*
X37102Y104427D01*
X37807Y104020D01*
X38593Y103809D01*
X39407D01*
X40193Y104020D01*
X40898Y104427D01*
X41473Y105002D01*
X41880Y105707D01*
X42090Y106493D01*
Y107307D01*
X41880Y108093D01*
X41473Y108798D01*
X40898Y109373D01*
X40193Y109780D01*
X39407Y109991D01*
D02*
G37*
G36*
X-42480Y156854D02*
X-48976D01*
X-55472D01*
Y155378D01*
X-54882D01*
Y153212D01*
X-55472D01*
Y151736D01*
X-48976D01*
X-42480D01*
Y153212D01*
X-42096Y153492D01*
X-27856D01*
X13999Y111637D01*
X13999Y111637D01*
X14260Y111463D01*
X14567Y111402D01*
X14567Y111402D01*
X23363D01*
X26322Y108443D01*
X26120Y108093D01*
X25909Y107307D01*
Y106493D01*
X26120Y105707D01*
X26527Y105002D01*
X27102Y104427D01*
X27807Y104020D01*
X28593Y103809D01*
X29407D01*
X30193Y104020D01*
X30898Y104427D01*
X31473Y105002D01*
X31880Y105707D01*
X32090Y106493D01*
Y107307D01*
X31880Y108093D01*
X31473Y108798D01*
X30898Y109373D01*
X30193Y109780D01*
X29407Y109991D01*
X28593D01*
X27807Y109780D01*
X27457Y109578D01*
X24263Y112772D01*
X24002Y112946D01*
X23695Y113007D01*
X14899D01*
X-26956Y154863D01*
X-27216Y155037D01*
X-27524Y155098D01*
X-42096D01*
X-42480Y155378D01*
Y156854D01*
D02*
G37*
G36*
X19407Y109991D02*
X18593D01*
X17807Y109780D01*
X17102Y109373D01*
X16527Y108798D01*
X16120Y108093D01*
X15909Y107307D01*
Y106493D01*
X16120Y105707D01*
X16527Y105002D01*
X17102Y104427D01*
X17807Y104020D01*
X18593Y103809D01*
X19407D01*
X20193Y104020D01*
X20898Y104427D01*
X21473Y105002D01*
X21880Y105707D01*
X22091Y106493D01*
Y107307D01*
X21880Y108093D01*
X21473Y108798D01*
X20898Y109373D01*
X20193Y109780D01*
X19407Y109991D01*
D02*
G37*
G36*
X39407Y99991D02*
X38593D01*
X37807Y99780D01*
X37102Y99373D01*
X36527Y98798D01*
X36120Y98093D01*
X35909Y97307D01*
Y96493D01*
X36120Y95707D01*
X36527Y95002D01*
X37102Y94427D01*
X37807Y94020D01*
X38593Y93809D01*
X39407D01*
X40193Y94020D01*
X40898Y94427D01*
X41473Y95002D01*
X41880Y95707D01*
X42090Y96493D01*
Y97307D01*
X41880Y98093D01*
X41473Y98798D01*
X40898Y99373D01*
X40193Y99780D01*
X39407Y99991D01*
D02*
G37*
G36*
X29407D02*
X28593D01*
X27807Y99780D01*
X27102Y99373D01*
X26527Y98798D01*
X26120Y98093D01*
X25909Y97307D01*
Y96493D01*
X26120Y95707D01*
X26527Y95002D01*
X27102Y94427D01*
X27807Y94020D01*
X28593Y93809D01*
X29407D01*
X30193Y94020D01*
X30898Y94427D01*
X31473Y95002D01*
X31880Y95707D01*
X32090Y96493D01*
Y97307D01*
X31880Y98093D01*
X31473Y98798D01*
X30898Y99373D01*
X30193Y99780D01*
X29407Y99991D01*
D02*
G37*
G36*
X19407D02*
X18593D01*
X17807Y99780D01*
X17102Y99373D01*
X16527Y98798D01*
X16120Y98093D01*
X15909Y97307D01*
Y96493D01*
X16120Y95707D01*
X16527Y95002D01*
X17102Y94427D01*
X17807Y94020D01*
X18593Y93809D01*
X19407D01*
X20193Y94020D01*
X20898Y94427D01*
X21473Y95002D01*
X21880Y95707D01*
X22091Y96493D01*
Y97307D01*
X21880Y98093D01*
X21473Y98798D01*
X20898Y99373D01*
X20193Y99780D01*
X19407Y99991D01*
D02*
G37*
G36*
X39407Y89991D02*
X38593D01*
X37807Y89780D01*
X37102Y89373D01*
X36527Y88798D01*
X36120Y88093D01*
X35909Y87307D01*
Y86493D01*
X36120Y85707D01*
X36527Y85002D01*
X37102Y84427D01*
X37807Y84020D01*
X38593Y83810D01*
X39407D01*
X40193Y84020D01*
X40898Y84427D01*
X41473Y85002D01*
X41880Y85707D01*
X42090Y86493D01*
Y87307D01*
X41880Y88093D01*
X41473Y88798D01*
X40898Y89373D01*
X40193Y89780D01*
X39407Y89991D01*
D02*
G37*
G36*
X29407D02*
X28593D01*
X27807Y89780D01*
X27102Y89373D01*
X26527Y88798D01*
X26120Y88093D01*
X25909Y87307D01*
Y86493D01*
X26120Y85707D01*
X26527Y85002D01*
X27102Y84427D01*
X27807Y84020D01*
X28593Y83810D01*
X29407D01*
X30193Y84020D01*
X30898Y84427D01*
X31473Y85002D01*
X31880Y85707D01*
X32090Y86493D01*
Y87307D01*
X31880Y88093D01*
X31473Y88798D01*
X30898Y89373D01*
X30193Y89780D01*
X29407Y89991D01*
D02*
G37*
G36*
X19407D02*
X18593D01*
X17807Y89780D01*
X17102Y89373D01*
X16527Y88798D01*
X16120Y88093D01*
X15909Y87307D01*
Y86493D01*
X16120Y85707D01*
X16527Y85002D01*
X17102Y84427D01*
X17807Y84020D01*
X18593Y83810D01*
X19407D01*
X20193Y84020D01*
X20898Y84427D01*
X21473Y85002D01*
X21880Y85707D01*
X22091Y86493D01*
Y87307D01*
X21880Y88093D01*
X21473Y88798D01*
X20898Y89373D01*
X20193Y89780D01*
X19407Y89991D01*
D02*
G37*
G36*
X278793Y75894D02*
X276627D01*
Y74276D01*
X280883D01*
X280833Y74531D01*
X280354Y75247D01*
X279638Y75726D01*
X278793Y75894D01*
D02*
G37*
G36*
X39407Y79991D02*
X38593D01*
X37807Y79780D01*
X37102Y79373D01*
X36527Y78798D01*
X36120Y78093D01*
X35909Y77307D01*
Y76493D01*
X36120Y75707D01*
X36527Y75002D01*
X37102Y74427D01*
X37807Y74020D01*
X38593Y73809D01*
X39407D01*
X40193Y74020D01*
X40898Y74427D01*
X41473Y75002D01*
X41880Y75707D01*
X42090Y76493D01*
Y77307D01*
X41880Y78093D01*
X41473Y78798D01*
X40898Y79373D01*
X40193Y79780D01*
X39407Y79991D01*
D02*
G37*
G36*
X29407D02*
X28593D01*
X27807Y79780D01*
X27102Y79373D01*
X26527Y78798D01*
X26120Y78093D01*
X25909Y77307D01*
Y76493D01*
X26120Y75707D01*
X26527Y75002D01*
X27102Y74427D01*
X27807Y74020D01*
X28593Y73809D01*
X29407D01*
X30193Y74020D01*
X30898Y74427D01*
X31473Y75002D01*
X31880Y75707D01*
X32090Y76493D01*
Y77307D01*
X31880Y78093D01*
X31473Y78798D01*
X30898Y79373D01*
X30193Y79780D01*
X29407Y79991D01*
D02*
G37*
G36*
X19407D02*
X18593D01*
X17807Y79780D01*
X17102Y79373D01*
X16527Y78798D01*
X16120Y78093D01*
X15909Y77307D01*
Y76493D01*
X16120Y75707D01*
X16527Y75002D01*
X17102Y74427D01*
X17807Y74020D01*
X18593Y73809D01*
X19407D01*
X20193Y74020D01*
X20898Y74427D01*
X21473Y75002D01*
X21880Y75707D01*
X22091Y76493D01*
Y77307D01*
X21880Y78093D01*
X21473Y78798D01*
X20898Y79373D01*
X20193Y79780D01*
X19407Y79991D01*
D02*
G37*
G36*
X280883Y73095D02*
X276627D01*
Y71478D01*
X278793D01*
X279638Y71646D01*
X280354Y72125D01*
X280833Y72841D01*
X280883Y73095D01*
D02*
G37*
G36*
X268996Y69390D02*
X265551D01*
Y66339D01*
X268996D01*
Y69390D01*
D02*
G37*
G36*
X264370D02*
X260925D01*
Y66339D01*
X264370D01*
Y69390D01*
D02*
G37*
G36*
X39407Y69991D02*
X38593D01*
X37807Y69780D01*
X37102Y69373D01*
X36527Y68798D01*
X36120Y68093D01*
X35909Y67307D01*
Y66493D01*
X36120Y65707D01*
X36527Y65002D01*
X37102Y64427D01*
X37807Y64020D01*
X38593Y63810D01*
X39407D01*
X40193Y64020D01*
X40898Y64427D01*
X41473Y65002D01*
X41880Y65707D01*
X42090Y66493D01*
Y67307D01*
X41880Y68093D01*
X41473Y68798D01*
X40898Y69373D01*
X40193Y69780D01*
X39407Y69991D01*
D02*
G37*
G36*
X29407D02*
X28593D01*
X27807Y69780D01*
X27102Y69373D01*
X26527Y68798D01*
X26120Y68093D01*
X25909Y67307D01*
Y66493D01*
X26120Y65707D01*
X26527Y65002D01*
X27102Y64427D01*
X27807Y64020D01*
X28593Y63810D01*
X29407D01*
X30193Y64020D01*
X30898Y64427D01*
X31473Y65002D01*
X31880Y65707D01*
X32090Y66493D01*
Y67307D01*
X31880Y68093D01*
X31473Y68798D01*
X30898Y69373D01*
X30193Y69780D01*
X29407Y69991D01*
D02*
G37*
G36*
X19407D02*
X18593D01*
X17807Y69780D01*
X17102Y69373D01*
X16527Y68798D01*
X16120Y68093D01*
X15909Y67307D01*
Y66493D01*
X16120Y65707D01*
X16527Y65002D01*
X17102Y64427D01*
X17807Y64020D01*
X18593Y63810D01*
X19407D01*
X20193Y64020D01*
X20898Y64427D01*
X21473Y65002D01*
X21880Y65707D01*
X22091Y66493D01*
Y67307D01*
X21880Y68093D01*
X21473Y68798D01*
X20898Y69373D01*
X20193Y69780D01*
X19407Y69991D01*
D02*
G37*
G36*
X268996Y65158D02*
X265551D01*
Y62106D01*
X268996D01*
Y65158D01*
D02*
G37*
G36*
X264370D02*
X260925D01*
Y62106D01*
X264370D01*
Y65158D01*
D02*
G37*
G36*
X39407Y59991D02*
X38593D01*
X37807Y59780D01*
X37102Y59373D01*
X36527Y58798D01*
X36120Y58093D01*
X35909Y57307D01*
Y56493D01*
X36120Y55707D01*
X36527Y55002D01*
X37102Y54427D01*
X37807Y54020D01*
X38593Y53809D01*
X39407D01*
X40193Y54020D01*
X40898Y54427D01*
X41473Y55002D01*
X41880Y55707D01*
X42090Y56493D01*
Y57307D01*
X41880Y58093D01*
X41473Y58798D01*
X40898Y59373D01*
X40193Y59780D01*
X39407Y59991D01*
D02*
G37*
G36*
X29407D02*
X28593D01*
X27807Y59780D01*
X27102Y59373D01*
X26527Y58798D01*
X26120Y58093D01*
X25909Y57307D01*
Y56493D01*
X26120Y55707D01*
X26527Y55002D01*
X27102Y54427D01*
X27807Y54020D01*
X28593Y53809D01*
X29407D01*
X30193Y54020D01*
X30898Y54427D01*
X31473Y55002D01*
X31880Y55707D01*
X32090Y56493D01*
Y57307D01*
X31880Y58093D01*
X31473Y58798D01*
X30898Y59373D01*
X30193Y59780D01*
X29407Y59991D01*
D02*
G37*
G36*
X19407D02*
X18593D01*
X17807Y59780D01*
X17102Y59373D01*
X16527Y58798D01*
X16120Y58093D01*
X15909Y57307D01*
Y56493D01*
X16120Y55707D01*
X16527Y55002D01*
X17102Y54427D01*
X17807Y54020D01*
X18593Y53809D01*
X19407D01*
X20193Y54020D01*
X20898Y54427D01*
X21473Y55002D01*
X21880Y55707D01*
X22091Y56493D01*
Y57307D01*
X21880Y58093D01*
X21473Y58798D01*
X20898Y59373D01*
X20193Y59780D01*
X19407Y59991D01*
D02*
G37*
G36*
X275446Y45894D02*
X273281D01*
X272436Y45726D01*
X271720Y45247D01*
X271241Y44531D01*
X271191Y44276D01*
X275446D01*
Y45894D01*
D02*
G37*
G36*
Y43095D02*
X271191D01*
X271241Y42841D01*
X271720Y42125D01*
X272436Y41646D01*
X273281Y41478D01*
X275446D01*
Y43095D01*
D02*
G37*
%LPD*%
G36*
X283695Y311616D02*
Y308917D01*
X283195Y308786D01*
X282538Y309225D01*
X281693Y309393D01*
X279527D01*
Y307185D01*
Y304977D01*
X281693D01*
X282232Y305085D01*
X282478Y304624D01*
X281645Y303791D01*
X276181D01*
X275567Y303668D01*
X275046Y303320D01*
X274697Y302800D01*
X274670Y302661D01*
X267293Y295284D01*
X266831Y295475D01*
Y296358D01*
X259941D01*
Y290256D01*
X263359D01*
Y216002D01*
X263466Y215465D01*
X263770Y215009D01*
X273470Y205309D01*
X273498Y205171D01*
X273846Y204650D01*
X274367Y204302D01*
X274981Y204179D01*
X280475D01*
X284422Y200233D01*
Y198633D01*
X283922Y198366D01*
X283901Y198380D01*
X283594Y198441D01*
X281697D01*
X281615Y198495D01*
X281308Y198556D01*
X249722D01*
X249722Y198556D01*
X249415Y198495D01*
X249154Y198321D01*
X249154Y198321D01*
X247305Y196472D01*
X42156D01*
X41880Y196972D01*
X42230Y197579D01*
X42453Y198409D01*
X38800D01*
Y199591D01*
X42453D01*
X42230Y200421D01*
X41745Y201260D01*
X41060Y201946D01*
X40221Y202430D01*
X39373Y202658D01*
X39135Y203127D01*
X147390Y311382D01*
X274823D01*
X275046Y311050D01*
X275567Y310702D01*
X276181Y310579D01*
X281693D01*
X282307Y310702D01*
X282828Y311050D01*
X283176Y311571D01*
X283195Y311665D01*
X283695Y311616D01*
D02*
G37*
G36*
X286784Y304398D02*
Y260903D01*
X279039Y253158D01*
X275514D01*
Y247646D01*
X276865D01*
Y221337D01*
X276972Y220799D01*
X277276Y220343D01*
X287178Y210442D01*
Y202152D01*
X286678Y201951D01*
X281835Y206793D01*
X281379Y207098D01*
X281355Y207103D01*
X281107Y207268D01*
X280493Y207391D01*
X275362D01*
X274612Y208141D01*
X274858Y208602D01*
X274981Y208577D01*
X277146D01*
Y210785D01*
Y212993D01*
X274981D01*
X274136Y212825D01*
X273420Y212346D01*
X272941Y211630D01*
X272773Y210785D01*
X272798Y210662D01*
X272337Y210416D01*
X266169Y216584D01*
Y290186D01*
X266239Y290256D01*
X266831D01*
Y290848D01*
X276562Y300579D01*
X281693D01*
X282307Y300702D01*
X282828Y301050D01*
X282851Y301083D01*
X283035Y301207D01*
X286093Y304265D01*
X286284Y304550D01*
X286784Y304398D01*
D02*
G37*
%LPC*%
G36*
X278346Y309393D02*
X276181D01*
X275336Y309225D01*
X274620Y308746D01*
X274141Y308030D01*
X274091Y307776D01*
X278346D01*
Y309393D01*
D02*
G37*
G36*
Y306594D02*
X274091D01*
X274141Y306340D01*
X274620Y305624D01*
X275336Y305145D01*
X276181Y304977D01*
X278346D01*
Y306594D01*
D02*
G37*
G36*
X267421Y304823D02*
X263976D01*
Y301772D01*
X267421D01*
Y304823D01*
D02*
G37*
G36*
X262795D02*
X259350D01*
Y301772D01*
X262795D01*
Y304823D01*
D02*
G37*
G36*
X267421Y300590D02*
X263976D01*
Y297539D01*
X267421D01*
Y300590D01*
D02*
G37*
G36*
X262795D02*
X259350D01*
Y297539D01*
X262795D01*
Y300590D01*
D02*
G37*
G36*
X280493Y202391D02*
X274981D01*
X274367Y202269D01*
X273846Y201920D01*
X273498Y201399D01*
X273375Y200785D01*
X273498Y200171D01*
X273846Y199650D01*
X274367Y199302D01*
X274981Y199179D01*
X280493D01*
X281107Y199302D01*
X281628Y199650D01*
X281976Y200171D01*
X282099Y200785D01*
X281976Y201399D01*
X281628Y201920D01*
X281107Y202269D01*
X280493Y202391D01*
D02*
G37*
G36*
Y212993D02*
X278327D01*
Y211376D01*
X282583D01*
X282533Y211630D01*
X282054Y212346D01*
X281338Y212825D01*
X280493Y212993D01*
D02*
G37*
G36*
X282583Y210194D02*
X278327D01*
Y208577D01*
X280493D01*
X281338Y208745D01*
X282054Y209224D01*
X282533Y209940D01*
X282583Y210194D01*
D02*
G37*
G36*
X307160Y116609D02*
Y113893D01*
X309876D01*
X309688Y114595D01*
X309247Y115358D01*
X308624Y115981D01*
X307861Y116421D01*
X307160Y116609D01*
D02*
G37*
G36*
X305979D02*
X305278Y116421D01*
X304515Y115981D01*
X303892Y115358D01*
X303451Y114595D01*
X303263Y113893D01*
X305979D01*
Y116609D01*
D02*
G37*
G36*
X336932Y116059D02*
X336207D01*
X335506Y115871D01*
X334877Y115508D01*
X334364Y114995D01*
X334001Y114367D01*
X333814Y113666D01*
Y112940D01*
X334001Y112239D01*
X334364Y111611D01*
X334828Y111147D01*
X334799Y110936D01*
X334658Y110647D01*
X330645D01*
X329106Y112185D01*
X329138Y112239D01*
X329326Y112940D01*
Y113666D01*
X329138Y114367D01*
X328775Y114995D01*
X328262Y115508D01*
X327633Y115871D01*
X326932Y116059D01*
X326207D01*
X325506Y115871D01*
X324877Y115508D01*
X324364Y114995D01*
X324002Y114367D01*
X323814Y113666D01*
Y112940D01*
X324002Y112239D01*
X324364Y111611D01*
X324877Y111098D01*
X325506Y110735D01*
X326207Y110547D01*
X326932D01*
X327633Y110735D01*
X327687Y110766D01*
X329519Y108934D01*
X329845Y108716D01*
X330229Y108640D01*
X349705D01*
Y106398D01*
X356594D01*
Y108640D01*
X364849D01*
Y106592D01*
X366896D01*
Y97087D01*
X347571Y77762D01*
X347354Y77436D01*
X347278Y77052D01*
Y61855D01*
X347113Y61691D01*
X346903Y61184D01*
Y60636D01*
X347113Y60130D01*
X347501Y59742D01*
X347514Y59737D01*
X347582Y59577D01*
X347603Y59158D01*
X345525Y57080D01*
X344477D01*
X344242Y57521D01*
X344404Y57764D01*
X344470Y58095D01*
X338635D01*
X332801D01*
X332867Y57764D01*
X333029Y57521D01*
X332794Y57080D01*
X327157D01*
X324969Y59268D01*
X324709Y59443D01*
X324401Y59504D01*
X316755D01*
X316542Y59821D01*
X316021Y60169D01*
X315407Y60291D01*
X309895D01*
X309281Y60169D01*
X308760Y59821D01*
X308412Y59300D01*
X308290Y58686D01*
X308412Y58071D01*
X308760Y57550D01*
X309281Y57202D01*
X309895Y57080D01*
X315407D01*
X316021Y57202D01*
X316542Y57550D01*
X316775Y57898D01*
X324069D01*
X326257Y55710D01*
X326518Y55536D01*
X326825Y55475D01*
X333680D01*
X333832Y54975D01*
X333815Y54963D01*
X333508Y54504D01*
X316755D01*
X316542Y54821D01*
X316021Y55169D01*
X315407Y55291D01*
X309895D01*
X309281Y55169D01*
X308760Y54821D01*
X308412Y54300D01*
X308290Y53686D01*
X308412Y53071D01*
X308760Y52550D01*
X309281Y52202D01*
X309895Y52080D01*
X315407D01*
X316021Y52202D01*
X316542Y52550D01*
X316775Y52898D01*
X333488D01*
X333815Y52408D01*
X334401Y52017D01*
X335092Y51879D01*
X342179D01*
X342870Y52017D01*
X343456Y52408D01*
X343848Y52995D01*
X343985Y53686D01*
X343848Y54377D01*
X343456Y54963D01*
X343439Y54975D01*
X343591Y55475D01*
X345858D01*
X346165Y55536D01*
X346425Y55710D01*
X348614Y57898D01*
X352779D01*
X353106Y57408D01*
X353170Y57366D01*
X353018Y56866D01*
X349599D01*
X349599Y56866D01*
X349292Y56805D01*
X349031Y56631D01*
X349031Y56631D01*
X342774Y50374D01*
X342179Y50492D01*
X335092D01*
X334401Y50355D01*
X333815Y49963D01*
X333423Y49377D01*
X333286Y48686D01*
X333330Y48463D01*
X332869Y48217D01*
X331818Y49268D01*
X331557Y49442D01*
X331250Y49504D01*
X316755D01*
X316542Y49821D01*
X316021Y50169D01*
X315407Y50292D01*
X309895D01*
X309281Y50169D01*
X308760Y49821D01*
X308412Y49300D01*
X308290Y48686D01*
X308412Y48071D01*
X308760Y47550D01*
X309281Y47202D01*
X309895Y47080D01*
X315407D01*
X316021Y47202D01*
X316542Y47550D01*
X316775Y47898D01*
X330917D01*
X332982Y45833D01*
X332982Y45833D01*
X333243Y45659D01*
X333550Y45598D01*
X333865D01*
X334017Y45098D01*
X333815Y44963D01*
X333423Y44377D01*
X333286Y43686D01*
X333423Y42994D01*
X333815Y42408D01*
X334401Y42017D01*
X335092Y41879D01*
X342179D01*
X342870Y42017D01*
X343456Y42408D01*
X343783Y42898D01*
X351101D01*
X351408Y42959D01*
X351669Y43133D01*
X352093Y43558D01*
X352636Y43393D01*
X352715Y42994D01*
X353106Y42408D01*
X353692Y42017D01*
X354384Y41879D01*
X361470D01*
X362161Y42017D01*
X362748Y42408D01*
X363074Y42898D01*
X364536D01*
X364844Y42959D01*
X365104Y43133D01*
X373849Y51878D01*
X374035Y51883D01*
X374407Y51815D01*
X374705Y51369D01*
X375226Y51021D01*
X375840Y50899D01*
X382139D01*
X382531Y50977D01*
X384190Y49319D01*
X384450Y49145D01*
X384757Y49084D01*
X393366D01*
X393500Y48832D01*
X393565Y48584D01*
X393254Y48119D01*
X393132Y47505D01*
X393254Y46890D01*
X393602Y46369D01*
X394048Y46071D01*
X394029Y45752D01*
X393965Y45571D01*
X386803D01*
X384387Y47987D01*
X384127Y48161D01*
X383820Y48222D01*
X383554D01*
X383275Y48640D01*
X382754Y48988D01*
X382139Y49110D01*
X375840D01*
X375226Y48988D01*
X374705Y48640D01*
X374357Y48119D01*
X374234Y47505D01*
X374285Y47252D01*
X366537Y39504D01*
X363054D01*
X362748Y39963D01*
X362161Y40355D01*
X361470Y40492D01*
X354384D01*
X353692Y40355D01*
X353106Y39963D01*
X352715Y39377D01*
X352577Y38686D01*
X352715Y37995D01*
X353106Y37409D01*
X353692Y37017D01*
X354384Y36879D01*
X361470D01*
X362161Y37017D01*
X362748Y37409D01*
X363074Y37898D01*
X366869D01*
X367177Y37959D01*
X367437Y38133D01*
X375309Y46005D01*
X375840Y45899D01*
X382139D01*
X382754Y46021D01*
X383275Y46369D01*
X383819Y46284D01*
X385902Y44201D01*
X385902Y44201D01*
X386163Y44027D01*
X386470Y43966D01*
X386470Y43966D01*
X393258D01*
X393486Y43466D01*
X393254Y43119D01*
X393132Y42505D01*
X393254Y41890D01*
X393602Y41369D01*
X394123Y41021D01*
X394738Y40899D01*
X396884D01*
Y39110D01*
X394738D01*
X394123Y38988D01*
X393602Y38640D01*
X393254Y38119D01*
X393132Y37505D01*
X393254Y36890D01*
X393602Y36369D01*
X394123Y36021D01*
X394738Y35899D01*
X401037D01*
X401651Y36021D01*
X402172Y36369D01*
X402520Y36890D01*
X402642Y37505D01*
X402520Y38119D01*
X402172Y38640D01*
X401651Y38988D01*
X401037Y39110D01*
X398891D01*
Y40899D01*
X401037D01*
X401651Y41021D01*
X402172Y41369D01*
X402227Y41452D01*
X402799D01*
X403012Y41238D01*
X403519Y41028D01*
X403752D01*
X409989Y34791D01*
X410314Y34574D01*
X410698Y34497D01*
X468104D01*
X468182Y34209D01*
X468622Y33446D01*
X469245Y32823D01*
X470008Y32382D01*
X470859Y32154D01*
X471741D01*
X472592Y32382D01*
X473355Y32823D01*
X473978Y33446D01*
X474418Y34209D01*
X474496Y34497D01*
X503217D01*
X503601Y34574D01*
X503927Y34791D01*
X521085Y51949D01*
X523691D01*
X524075Y52026D01*
X524401Y52243D01*
X529221Y57063D01*
X529454D01*
X529960Y57273D01*
X530348Y57661D01*
X530558Y58167D01*
Y58715D01*
X530348Y59222D01*
X529960Y59610D01*
X529454Y59819D01*
X528906D01*
X528399Y59610D01*
X528012Y59222D01*
X527802Y58715D01*
Y58483D01*
X526906Y57587D01*
X526458Y57845D01*
X526476Y57916D01*
Y58895D01*
X526223Y59842D01*
X525733Y60690D01*
X525040Y61383D01*
X524192Y61873D01*
X523246Y62126D01*
X522266D01*
X521320Y61873D01*
X520471Y61383D01*
X519779Y60690D01*
X519289Y59842D01*
X519035Y58895D01*
Y57916D01*
X519289Y56969D01*
X519617Y56402D01*
X509519Y46304D01*
X474549D01*
X474418Y46793D01*
X473978Y47556D01*
X473355Y48179D01*
X472592Y48619D01*
X471741Y48847D01*
X470859D01*
X470008Y48619D01*
X469245Y48179D01*
X468622Y47556D01*
X468182Y46793D01*
X467953Y45941D01*
Y45060D01*
X468182Y44209D01*
X468435Y43771D01*
X466486Y41823D01*
X440453D01*
Y42815D01*
X433563D01*
Y41823D01*
X429427D01*
X428964Y41912D01*
X428964Y42323D01*
Y43176D01*
X432955D01*
X433262Y43237D01*
X433523Y43411D01*
X434698Y44587D01*
X440453D01*
Y50689D01*
X433563D01*
Y45722D01*
X432623Y44782D01*
X428964D01*
Y46046D01*
X424436D01*
X424436Y41912D01*
X423973Y41823D01*
X413386D01*
X409872Y45336D01*
X409612Y45510D01*
X409305Y45571D01*
X401809D01*
X401746Y45752D01*
X401726Y46071D01*
X402172Y46369D01*
X402267Y46511D01*
X402858D01*
X403012Y46356D01*
X403519Y46147D01*
X404067D01*
X404573Y46356D01*
X404961Y46744D01*
X405171Y47250D01*
Y47798D01*
X404961Y48305D01*
X404682Y48584D01*
X404836Y49084D01*
X424436D01*
Y47030D01*
X428964D01*
Y50028D01*
X430381Y51446D01*
X468048D01*
X468355Y51507D01*
X468616Y51681D01*
X469570Y52635D01*
X470008Y52382D01*
X470859Y52154D01*
X471741D01*
X472592Y52382D01*
X473355Y52823D01*
X473978Y53446D01*
X474418Y54209D01*
X474647Y55060D01*
Y55103D01*
X509350D01*
X509658Y55164D01*
X509918Y55338D01*
X520752Y66172D01*
X521320Y65844D01*
X522266Y65591D01*
X523246D01*
X524192Y65844D01*
X525040Y66334D01*
X525733Y67027D01*
X526223Y67875D01*
X526476Y68821D01*
Y69801D01*
X526223Y70747D01*
X525733Y71596D01*
X525040Y72288D01*
X524192Y72778D01*
X523246Y73032D01*
X522266D01*
X521320Y72778D01*
X520471Y72288D01*
X519779Y71596D01*
X519289Y70747D01*
X519035Y69801D01*
Y68821D01*
X519289Y67875D01*
X519617Y67307D01*
X509018Y56708D01*
X474441D01*
X474418Y56792D01*
X473978Y57556D01*
X473355Y58179D01*
X472592Y58619D01*
X471741Y58847D01*
X470859D01*
X470008Y58619D01*
X469245Y58179D01*
X468622Y57556D01*
X468182Y56792D01*
X467953Y55941D01*
Y55060D01*
X468182Y54209D01*
X468435Y53771D01*
X467716Y53052D01*
X430049D01*
X429741Y52991D01*
X429481Y52816D01*
X427828Y51164D01*
X424436D01*
Y50689D01*
X402055D01*
X401903Y51189D01*
X402172Y51369D01*
X402520Y51890D01*
X402642Y52505D01*
X402520Y53119D01*
X402172Y53640D01*
X402163Y53647D01*
X402281Y54169D01*
X402552Y54207D01*
X402619Y54140D01*
X403125Y53930D01*
X403673D01*
X404180Y54140D01*
X404567Y54528D01*
X404777Y55034D01*
Y55582D01*
X404567Y56089D01*
X404180Y56476D01*
X403673Y56686D01*
X403125D01*
X402932Y56606D01*
X402738Y56740D01*
X402539Y56985D01*
X402642Y57505D01*
X402520Y58119D01*
X402172Y58640D01*
X401903Y58820D01*
X402055Y59320D01*
X433957D01*
Y58366D01*
X440846D01*
Y60697D01*
X467299D01*
X467606Y60758D01*
X467867Y60932D01*
X469570Y62635D01*
X470008Y62382D01*
X470859Y62154D01*
X471741D01*
X472592Y62382D01*
X473355Y62823D01*
X473978Y63446D01*
X474418Y64209D01*
X474549Y64698D01*
X506446D01*
X506753Y64759D01*
X507013Y64933D01*
X515687Y73607D01*
X530395D01*
X530470Y73328D01*
X530960Y72479D01*
X531653Y71787D01*
X532501Y71297D01*
X533447Y71043D01*
X534427D01*
X535373Y71297D01*
X536221Y71787D01*
X536914Y72479D01*
X537280Y73113D01*
X537780Y72979D01*
Y68836D01*
X535941Y66997D01*
X535373Y67325D01*
X534427Y67579D01*
X533447D01*
X532501Y67325D01*
X531653Y66835D01*
X530960Y66143D01*
X530470Y65294D01*
X530217Y64348D01*
Y63368D01*
X530470Y62422D01*
X530960Y61574D01*
X531653Y60881D01*
X532501Y60391D01*
X533447Y60138D01*
X534427D01*
X535373Y60391D01*
X536221Y60881D01*
X536914Y61574D01*
X537404Y62422D01*
X537657Y63368D01*
Y64348D01*
X537404Y65294D01*
X537076Y65862D01*
X539150Y67936D01*
X539248Y68083D01*
X539748Y67960D01*
Y59899D01*
X535941Y56092D01*
X535373Y56420D01*
X534427Y56673D01*
X533447D01*
X532501Y56420D01*
X531653Y55930D01*
X530960Y55237D01*
X530470Y54389D01*
X530217Y53443D01*
Y52463D01*
X530470Y51517D01*
X530960Y50668D01*
X531653Y49976D01*
X532501Y49486D01*
X533447Y49232D01*
X534427D01*
X534925Y49366D01*
X535184Y48917D01*
X533919Y47653D01*
X526476D01*
Y47990D01*
X526223Y48936D01*
X525733Y49784D01*
X525040Y50477D01*
X524192Y50967D01*
X523246Y51221D01*
X522266D01*
X521320Y50967D01*
X520471Y50477D01*
X519779Y49784D01*
X519289Y48936D01*
X519035Y47990D01*
Y47010D01*
X519289Y46064D01*
X519779Y45216D01*
X520471Y44523D01*
X521320Y44033D01*
X522266Y43780D01*
X523246D01*
X524192Y44033D01*
X525040Y44523D01*
X525733Y45216D01*
X526213Y46048D01*
X534252D01*
X534559Y46109D01*
X534820Y46283D01*
X543268Y54731D01*
X543442Y54991D01*
X543503Y55298D01*
X543503Y55299D01*
Y91946D01*
X543503Y91946D01*
X543442Y92253D01*
X543268Y92513D01*
X543268Y92513D01*
X531670Y104111D01*
X531410Y104285D01*
X531102Y104346D01*
X479343D01*
X479035Y104285D01*
X478775Y104111D01*
X473511Y98847D01*
X467953D01*
Y93290D01*
X461574Y86910D01*
X441533D01*
X441513Y87402D01*
X441513Y87410D01*
Y88848D01*
X460127D01*
X460493Y88482D01*
X460999Y88273D01*
X461547D01*
X462054Y88482D01*
X462441Y88870D01*
X462651Y89376D01*
Y89925D01*
X462441Y90431D01*
X462054Y90819D01*
X461547Y91028D01*
X460999D01*
X460493Y90819D01*
X460127Y90453D01*
X441513D01*
Y93504D01*
X434623D01*
Y90847D01*
X399679D01*
X399679Y90847D01*
X399371Y90786D01*
X399111Y90612D01*
X399111Y90612D01*
X382531Y74032D01*
X382139Y74110D01*
X375840D01*
X375226Y73988D01*
X374705Y73640D01*
X374696Y73628D01*
X370826D01*
X370518Y73567D01*
X370258Y73392D01*
X370258Y73392D01*
X366369Y69504D01*
X363054D01*
X362748Y69963D01*
X362161Y70355D01*
X361470Y70492D01*
X354384D01*
X353692Y70355D01*
X353106Y69963D01*
X352715Y69377D01*
X352577Y68686D01*
X352715Y67994D01*
X353106Y67409D01*
X353692Y67017D01*
X354384Y66879D01*
X361470D01*
X362161Y67017D01*
X362748Y67409D01*
X363074Y67898D01*
X366702D01*
X367009Y67959D01*
X367269Y68133D01*
X371158Y72022D01*
X374330D01*
X374357Y71890D01*
X374705Y71369D01*
X375226Y71021D01*
X375840Y70899D01*
X382139D01*
X382754Y71021D01*
X383275Y71369D01*
X383623Y71890D01*
X383745Y72505D01*
X383667Y72897D01*
X400011Y89241D01*
X434623D01*
Y87410D01*
X434623Y87402D01*
X434603Y86910D01*
X429850D01*
X429849Y86910D01*
X429542Y86849D01*
X429282Y86675D01*
X427828Y85221D01*
X424436D01*
Y82678D01*
X396805D01*
X396805Y82678D01*
X396498Y82617D01*
X396237Y82442D01*
X382771Y68976D01*
X382754Y68988D01*
X382139Y69110D01*
X375840D01*
X375226Y68988D01*
X374705Y68640D01*
X374684Y68609D01*
X371319D01*
X371011Y68548D01*
X370751Y68374D01*
X370751Y68374D01*
X366881Y64504D01*
X363054D01*
X362748Y64963D01*
X362161Y65355D01*
X361470Y65492D01*
X354384D01*
X353692Y65355D01*
X353106Y64963D01*
X352715Y64377D01*
X352577Y63686D01*
X352715Y62994D01*
X353106Y62409D01*
X353692Y62017D01*
X354384Y61879D01*
X361470D01*
X362161Y62017D01*
X362748Y62409D01*
X363074Y62898D01*
X367213D01*
X367521Y62959D01*
X367781Y63133D01*
X371651Y67003D01*
X374334D01*
X374357Y66890D01*
X374705Y66369D01*
X375226Y66021D01*
X375840Y65899D01*
X382139D01*
X382754Y66021D01*
X383275Y66369D01*
X383623Y66890D01*
X383745Y67505D01*
X383716Y67651D01*
X397137Y81072D01*
X425420D01*
X425498Y81087D01*
X428964D01*
Y84086D01*
X430182Y85304D01*
X434623D01*
Y80663D01*
X432799Y78839D01*
X428964D01*
Y80103D01*
X424436D01*
Y75969D01*
X428964D01*
Y77233D01*
X433132D01*
X433439Y77294D01*
X433700Y77469D01*
X435759Y79527D01*
X441513D01*
Y85304D01*
X461906D01*
X462214Y85365D01*
X462474Y85539D01*
X469089Y92154D01*
X474647D01*
Y97712D01*
X479675Y102741D01*
X486858D01*
X486980Y102241D01*
X486834Y102143D01*
X486102Y101411D01*
X486019Y101355D01*
X473030Y88366D01*
X472592Y88619D01*
X471741Y88847D01*
X470859D01*
X470008Y88619D01*
X469245Y88179D01*
X468622Y87556D01*
X468182Y86792D01*
X467953Y85941D01*
Y85060D01*
X468182Y84209D01*
X468622Y83446D01*
X469245Y82823D01*
X470008Y82382D01*
X470859Y82154D01*
X471741D01*
X472592Y82382D01*
X473355Y82823D01*
X473978Y83446D01*
X474418Y84209D01*
X474647Y85060D01*
Y85941D01*
X474418Y86792D01*
X474165Y87231D01*
X487099Y100164D01*
X487182Y100220D01*
X487734Y100772D01*
X529982D01*
X539748Y91006D01*
Y80791D01*
X539248Y80668D01*
X539150Y80815D01*
X539150Y80815D01*
X538689Y81276D01*
X538429Y81450D01*
X538121Y81511D01*
X534726D01*
X534661Y82011D01*
X535373Y82202D01*
X536221Y82692D01*
X536914Y83385D01*
X537404Y84233D01*
X537657Y85180D01*
Y86159D01*
X537404Y87105D01*
X536914Y87954D01*
X536221Y88646D01*
X535373Y89136D01*
X534427Y89390D01*
X533447D01*
X532501Y89136D01*
X531653Y88646D01*
X530960Y87954D01*
X530470Y87105D01*
X530217Y86159D01*
Y85180D01*
X530470Y84233D01*
X530960Y83385D01*
X531653Y82692D01*
X532501Y82202D01*
X533213Y82011D01*
X533148Y81511D01*
X531435D01*
X528048Y84898D01*
X527787Y85072D01*
X527480Y85134D01*
X513858D01*
X513858Y85134D01*
X513551Y85072D01*
X513291Y84898D01*
X513291Y84898D01*
X504696Y76304D01*
X474549D01*
X474418Y76793D01*
X473978Y77556D01*
X473355Y78179D01*
X472592Y78619D01*
X471741Y78847D01*
X470859D01*
X470008Y78619D01*
X469245Y78179D01*
X468622Y77556D01*
X468182Y76793D01*
X467953Y75941D01*
Y75060D01*
X468035Y74756D01*
X467490Y74211D01*
X430728D01*
X430727Y74211D01*
X430420Y74150D01*
X430160Y73976D01*
X427828Y71644D01*
X424436D01*
Y68646D01*
X421994Y66204D01*
X404730D01*
X404523Y66704D01*
X404743Y66924D01*
X404952Y67430D01*
Y67978D01*
X404743Y68485D01*
X404355Y68872D01*
X403849Y69082D01*
X403300D01*
X402794Y68872D01*
X402689Y68767D01*
X402173Y68640D01*
X402014Y68746D01*
X401651Y68988D01*
X401037Y69110D01*
X398891D01*
Y70899D01*
X401037D01*
X401651Y71021D01*
X402172Y71369D01*
X402520Y71890D01*
X402642Y72505D01*
X402520Y73119D01*
X402172Y73640D01*
X401651Y73988D01*
X401037Y74110D01*
X394738D01*
X394123Y73988D01*
X393602Y73640D01*
X393254Y73119D01*
X393132Y72505D01*
X393254Y71890D01*
X393602Y71369D01*
X394123Y71021D01*
X394738Y70899D01*
X396884D01*
Y69110D01*
X394738D01*
X394123Y68988D01*
X393602Y68640D01*
X393254Y68119D01*
X393132Y67505D01*
X393254Y66890D01*
X393379Y66704D01*
X393111Y66204D01*
X390567D01*
X390260Y66143D01*
X390000Y65969D01*
X387338Y63307D01*
X383497D01*
X383275Y63640D01*
X382754Y63988D01*
X382139Y64110D01*
X375840D01*
X375226Y63988D01*
X374705Y63640D01*
X374684Y63609D01*
X374591Y63628D01*
X373030D01*
X372723Y63566D01*
X372463Y63393D01*
X372463Y63392D01*
X365936Y56866D01*
X362835D01*
X362684Y57366D01*
X362748Y57408D01*
X363139Y57995D01*
X363277Y58686D01*
X363139Y59377D01*
X362748Y59963D01*
X362161Y60355D01*
X361470Y60492D01*
X354384D01*
X353692Y60355D01*
X353106Y59963D01*
X352799Y59504D01*
X349530D01*
X349323Y60004D01*
X349449Y60130D01*
X349659Y60636D01*
Y61184D01*
X349449Y61691D01*
X349285Y61855D01*
Y76636D01*
X363980Y91332D01*
X364428Y91073D01*
X364288Y90549D01*
X367900D01*
X371512D01*
X371372Y91073D01*
X371820Y91332D01*
X383517Y79634D01*
Y79140D01*
X383727Y78634D01*
X384115Y78246D01*
X384621Y78036D01*
X385169D01*
X385676Y78246D01*
X386064Y78634D01*
X386273Y79140D01*
Y79688D01*
X386064Y80195D01*
X385676Y80582D01*
X385218Y80772D01*
X368903Y97087D01*
Y106592D01*
X370951D01*
Y112694D01*
X364849D01*
Y110647D01*
X356594D01*
Y112500D01*
X349705D01*
Y110647D01*
X338481D01*
X338340Y110936D01*
X338311Y111147D01*
X338775Y111611D01*
X339138Y112239D01*
X339325Y112940D01*
Y113666D01*
X339138Y114367D01*
X338775Y114995D01*
X338262Y115508D01*
X337633Y115871D01*
X336932Y116059D01*
D02*
G37*
G36*
X316932D02*
X316207D01*
X315506Y115871D01*
X314877Y115508D01*
X314364Y114995D01*
X314001Y114367D01*
X313814Y113666D01*
Y112940D01*
X314001Y112239D01*
X314364Y111611D01*
X314877Y111098D01*
X315506Y110735D01*
X316207Y110547D01*
X316932D01*
X317633Y110735D01*
X318262Y111098D01*
X318775Y111611D01*
X319138Y112239D01*
X319325Y112940D01*
Y113666D01*
X319138Y114367D01*
X318775Y114995D01*
X318262Y115508D01*
X317633Y115871D01*
X316932Y116059D01*
D02*
G37*
G36*
X309876Y112712D02*
X307160D01*
Y109997D01*
X307861Y110185D01*
X308624Y110625D01*
X309247Y111248D01*
X309688Y112011D01*
X309876Y112712D01*
D02*
G37*
G36*
X305979D02*
X303263D01*
X303451Y112011D01*
X303892Y111248D01*
X304515Y110625D01*
X305278Y110185D01*
X305979Y109997D01*
Y112712D01*
D02*
G37*
G36*
X529308Y128268D02*
X527385D01*
X525498Y127892D01*
X523722Y127156D01*
X522122Y126088D01*
X520762Y124728D01*
X519694Y123129D01*
X518958Y121352D01*
X518583Y119466D01*
Y117542D01*
X518958Y115656D01*
X519694Y113879D01*
X520762Y112280D01*
X522122Y110920D01*
X523722Y109851D01*
X525498Y109115D01*
X527385Y108740D01*
X529308D01*
X531194Y109115D01*
X532971Y109851D01*
X534571Y110920D01*
X535930Y112280D01*
X536999Y113879D01*
X537735Y115656D01*
X538110Y117542D01*
Y119466D01*
X537735Y121352D01*
X536999Y123129D01*
X535930Y124728D01*
X534571Y126088D01*
X532971Y127156D01*
X531194Y127892D01*
X529308Y128268D01*
D02*
G37*
G36*
X357185Y105217D02*
X353740D01*
Y102165D01*
X357185D01*
Y105217D01*
D02*
G37*
G36*
X352559D02*
X349114D01*
Y102165D01*
X352559D01*
Y105217D01*
D02*
G37*
G36*
X357185Y100984D02*
X353740D01*
Y97933D01*
X357185D01*
Y100984D01*
D02*
G37*
G36*
X352559D02*
X349114D01*
Y97933D01*
X352559D01*
Y100984D01*
D02*
G37*
G36*
X527067Y95433D02*
X523347D01*
Y91713D01*
X527067D01*
Y95433D01*
D02*
G37*
G36*
X522165D02*
X518445D01*
Y91713D01*
X522165D01*
Y95433D01*
D02*
G37*
G36*
X527067Y90531D02*
X523347D01*
Y86811D01*
X527067D01*
Y90531D01*
D02*
G37*
G36*
X522165D02*
X518445D01*
Y86811D01*
X522165D01*
Y90531D01*
D02*
G37*
G36*
X367309Y89368D02*
X364288D01*
X364506Y88553D01*
X364986Y87722D01*
X365664Y87044D01*
X366494Y86565D01*
X367309Y86346D01*
Y89368D01*
D02*
G37*
G36*
X371512D02*
X368491D01*
Y86346D01*
X369306Y86565D01*
X370136Y87044D01*
X370814Y87722D01*
X371293Y88553D01*
X371512Y89368D01*
D02*
G37*
G36*
X315407Y75894D02*
X313242D01*
Y74276D01*
X317497D01*
X317447Y74531D01*
X316968Y75247D01*
X316252Y75726D01*
X315407Y75894D01*
D02*
G37*
G36*
X312060D02*
X309895D01*
X309050Y75726D01*
X308334Y75247D01*
X307856Y74531D01*
X307805Y74276D01*
X312060D01*
Y75894D01*
D02*
G37*
G36*
X342179Y76094D02*
X339226D01*
Y74276D01*
X344470D01*
X344404Y74607D01*
X343882Y75389D01*
X343101Y75911D01*
X342179Y76094D01*
D02*
G37*
G36*
X338045D02*
X335092D01*
X334171Y75911D01*
X333389Y75389D01*
X332867Y74607D01*
X332801Y74276D01*
X338045D01*
Y76094D01*
D02*
G37*
G36*
X361470D02*
X358517D01*
Y74276D01*
X363761D01*
X363695Y74607D01*
X363173Y75389D01*
X362392Y75911D01*
X361470Y76094D01*
D02*
G37*
G36*
X357336D02*
X354384D01*
X353462Y75911D01*
X352680Y75389D01*
X352158Y74607D01*
X352093Y74276D01*
X357336D01*
Y76094D01*
D02*
G37*
G36*
X317497Y73095D02*
X313242D01*
Y71478D01*
X315407D01*
X316252Y71646D01*
X316968Y72125D01*
X317447Y72841D01*
X317497Y73095D01*
D02*
G37*
G36*
X312060D02*
X307805D01*
X307856Y72841D01*
X308334Y72125D01*
X309050Y71646D01*
X309895Y71478D01*
X312060D01*
Y73095D01*
D02*
G37*
G36*
X363761Y73095D02*
X358517D01*
Y71277D01*
X361470D01*
X362392Y71461D01*
X363173Y71983D01*
X363695Y72764D01*
X363761Y73095D01*
D02*
G37*
G36*
X357336D02*
X352093D01*
X352158Y72764D01*
X352680Y71983D01*
X353462Y71461D01*
X354384Y71277D01*
X357336D01*
Y73095D01*
D02*
G37*
G36*
X344470Y73095D02*
X338635D01*
X332801D01*
X332867Y72764D01*
X333389Y71983D01*
X334171Y71461D01*
X334271Y71441D01*
Y70931D01*
X334171Y70911D01*
X333389Y70389D01*
X332867Y69608D01*
X332801Y69276D01*
X338635D01*
X344470D01*
X344404Y69608D01*
X343882Y70389D01*
X343101Y70911D01*
X343000Y70931D01*
Y71441D01*
X343101Y71461D01*
X343882Y71983D01*
X344404Y72764D01*
X344470Y73095D01*
D02*
G37*
G36*
X315407Y70292D02*
X309895D01*
X309281Y70169D01*
X308760Y69821D01*
X308412Y69300D01*
X308290Y68686D01*
X308412Y68071D01*
X308760Y67550D01*
X309281Y67202D01*
X309895Y67080D01*
X315407D01*
X316021Y67202D01*
X316542Y67550D01*
X316891Y68071D01*
X317013Y68686D01*
X316891Y69300D01*
X316542Y69821D01*
X316021Y70169D01*
X315407Y70292D01*
D02*
G37*
G36*
X344470Y68095D02*
X339226D01*
Y66277D01*
X342179D01*
X343101Y66461D01*
X343882Y66983D01*
X344404Y67764D01*
X344470Y68095D01*
D02*
G37*
G36*
X338045D02*
X332801D01*
X332867Y67764D01*
X333389Y66983D01*
X334171Y66461D01*
X335092Y66277D01*
X338045D01*
Y68095D01*
D02*
G37*
G36*
X315407Y65292D02*
X309895D01*
X309281Y65169D01*
X308760Y64821D01*
X308412Y64300D01*
X308290Y63686D01*
X308412Y63071D01*
X308760Y62550D01*
X309281Y62202D01*
X309895Y62080D01*
X315407D01*
X316021Y62202D01*
X316542Y62550D01*
X316891Y63071D01*
X317013Y63686D01*
X316891Y64300D01*
X316542Y64821D01*
X316021Y65169D01*
X315407Y65292D01*
D02*
G37*
G36*
X342179Y65492D02*
X335092D01*
X334401Y65355D01*
X333815Y64963D01*
X333423Y64377D01*
X333286Y63686D01*
X333423Y62994D01*
X333815Y62409D01*
X334401Y62017D01*
X335092Y61879D01*
X342179D01*
X342870Y62017D01*
X343456Y62409D01*
X343848Y62994D01*
X343985Y63686D01*
X343848Y64377D01*
X343456Y64963D01*
X342870Y65355D01*
X342179Y65492D01*
D02*
G37*
G36*
Y61094D02*
X339226D01*
Y59276D01*
X344470D01*
X344404Y59607D01*
X343882Y60389D01*
X343101Y60911D01*
X342179Y61094D01*
D02*
G37*
G36*
X338045D02*
X335092D01*
X334171Y60911D01*
X333389Y60389D01*
X332867Y59607D01*
X332801Y59276D01*
X338045D01*
Y61094D01*
D02*
G37*
G36*
X315407Y45894D02*
X313242D01*
Y44276D01*
X317497D01*
X317447Y44531D01*
X316968Y45247D01*
X316252Y45726D01*
X315407Y45894D01*
D02*
G37*
G36*
X312061D02*
X309895D01*
X309050Y45726D01*
X308334Y45247D01*
X307856Y44531D01*
X307805Y44276D01*
X312061D01*
Y45894D01*
D02*
G37*
G36*
X317497Y43095D02*
X313242D01*
Y41478D01*
X315407D01*
X316252Y41646D01*
X316968Y42125D01*
X317447Y42841D01*
X317497Y43095D01*
D02*
G37*
G36*
X312061D02*
X307805D01*
X307856Y42841D01*
X308334Y42125D01*
X309050Y41646D01*
X309895Y41478D01*
X312061D01*
Y43095D01*
D02*
G37*
G36*
X382139Y44110D02*
X375840D01*
X375226Y43988D01*
X374705Y43640D01*
X374357Y43119D01*
X374234Y42505D01*
X374357Y41890D01*
X374705Y41369D01*
X375226Y41021D01*
X375840Y40899D01*
X382139D01*
X382754Y41021D01*
X383275Y41369D01*
X383623Y41890D01*
X383745Y42505D01*
X383623Y43119D01*
X383275Y43640D01*
X382754Y43988D01*
X382139Y44110D01*
D02*
G37*
G36*
X330657Y43286D02*
X323767D01*
Y39689D01*
X316631D01*
X316542Y39821D01*
X316021Y40169D01*
X315407Y40292D01*
X309895D01*
X309281Y40169D01*
X308760Y39821D01*
X308412Y39300D01*
X308290Y38686D01*
X308412Y38071D01*
X308760Y37550D01*
X309281Y37202D01*
X309895Y37080D01*
X315407D01*
X316021Y37202D01*
X316542Y37550D01*
X316631Y37682D01*
X323767D01*
Y37183D01*
X330657D01*
Y37682D01*
X333632D01*
X333815Y37409D01*
X334401Y37017D01*
X335092Y36879D01*
X342179D01*
X342870Y37017D01*
X343456Y37409D01*
X343545Y37541D01*
X346473D01*
X346713Y37301D01*
X347220Y37091D01*
X347768D01*
X348274Y37301D01*
X348662Y37689D01*
X348872Y38195D01*
Y38743D01*
X348662Y39250D01*
X348274Y39638D01*
X347768Y39847D01*
X347220D01*
X346713Y39638D01*
X346624Y39548D01*
X343733D01*
X343456Y39963D01*
X342870Y40355D01*
X342179Y40492D01*
X335092D01*
X334401Y40355D01*
X333815Y39963D01*
X333632Y39689D01*
X330657D01*
Y43286D01*
D02*
G37*
G36*
X382139Y39110D02*
X375840D01*
X375226Y38988D01*
X374705Y38640D01*
X374357Y38119D01*
X374234Y37505D01*
X374357Y36890D01*
X374705Y36369D01*
X375226Y36021D01*
X375840Y35899D01*
X382139D01*
X382754Y36021D01*
X383275Y36369D01*
X383623Y36890D01*
X383745Y37505D01*
X383623Y38119D01*
X383275Y38640D01*
X382754Y38988D01*
X382139Y39110D01*
D02*
G37*
G36*
X331247Y36002D02*
X327802D01*
Y32951D01*
X331247D01*
Y36002D01*
D02*
G37*
G36*
X326621D02*
X323176D01*
Y32951D01*
X326621D01*
Y36002D01*
D02*
G37*
G36*
X331247Y31770D02*
X327802D01*
Y28719D01*
X331247D01*
Y31770D01*
D02*
G37*
G36*
X326621D02*
X323176D01*
Y28719D01*
X326621D01*
Y31770D01*
D02*
G37*
G36*
X471890Y29418D02*
Y26091D01*
X475218D01*
X474969Y27020D01*
X474450Y27918D01*
X473717Y28651D01*
X472820Y29169D01*
X471890Y29418D01*
D02*
G37*
G36*
X470709Y29418D02*
X469780Y29169D01*
X468883Y28651D01*
X468150Y27918D01*
X467631Y27020D01*
X467382Y26091D01*
X470709D01*
Y29418D01*
D02*
G37*
G36*
Y24910D02*
X467382D01*
X467631Y23981D01*
X468150Y23083D01*
X468883Y22350D01*
X469780Y21832D01*
X470709Y21583D01*
Y24910D01*
D02*
G37*
G36*
X475218D02*
X471890D01*
Y21583D01*
X472820Y21832D01*
X473717Y22350D01*
X474450Y23083D01*
X474969Y23981D01*
X475218Y24910D01*
D02*
G37*
G36*
X529308Y29882D02*
X527385D01*
X525498Y29507D01*
X523722Y28771D01*
X522122Y27702D01*
X520762Y26342D01*
X519694Y24743D01*
X518958Y22966D01*
X518583Y21080D01*
Y19157D01*
X518958Y17270D01*
X519694Y15493D01*
X520762Y13894D01*
X522122Y12534D01*
X523722Y11466D01*
X525498Y10730D01*
X527385Y10354D01*
X529308D01*
X531194Y10730D01*
X532971Y11466D01*
X534571Y12534D01*
X535930Y13894D01*
X536999Y15493D01*
X537735Y17270D01*
X538110Y19157D01*
Y21080D01*
X537735Y22966D01*
X536999Y24743D01*
X535930Y26342D01*
X534571Y27702D01*
X532971Y28771D01*
X531194Y29507D01*
X529308Y29882D01*
D02*
G37*
G36*
X308860Y253708D02*
Y250993D01*
X311576D01*
X311388Y251694D01*
X310947Y252457D01*
X310324Y253080D01*
X309561Y253520D01*
X308860Y253708D01*
D02*
G37*
G36*
X307679D02*
X306978Y253520D01*
X306215Y253080D01*
X305592Y252457D01*
X305151Y251694D01*
X304963Y250993D01*
X307679D01*
Y253708D01*
D02*
G37*
G36*
X338632Y253158D02*
X337907D01*
X337206Y252970D01*
X336577Y252607D01*
X336064Y252094D01*
X335701Y251466D01*
X335514Y250765D01*
Y250039D01*
X335701Y249338D01*
X336064Y248710D01*
X336528Y248246D01*
X336499Y248035D01*
X336358Y247746D01*
X332345D01*
X330806Y249284D01*
X330838Y249338D01*
X331026Y250039D01*
Y250765D01*
X330838Y251466D01*
X330475Y252094D01*
X329962Y252607D01*
X329333Y252970D01*
X328632Y253158D01*
X327907D01*
X327206Y252970D01*
X326577Y252607D01*
X326064Y252094D01*
X325701Y251466D01*
X325514Y250765D01*
Y250039D01*
X325701Y249338D01*
X326064Y248710D01*
X326577Y248197D01*
X327206Y247834D01*
X327907Y247646D01*
X328632D01*
X329333Y247834D01*
X329387Y247865D01*
X331219Y246033D01*
X331545Y245815D01*
X331929Y245739D01*
X351279D01*
Y243799D01*
X358169D01*
Y245739D01*
X366549D01*
Y243691D01*
X368596D01*
Y234186D01*
X349271Y214861D01*
X349054Y214535D01*
X348978Y214151D01*
Y198955D01*
X348813Y198790D01*
X348603Y198284D01*
Y197735D01*
X348813Y197229D01*
X349201Y196841D01*
X349214Y196836D01*
X349282Y196676D01*
X349303Y196257D01*
X347225Y194179D01*
X346177D01*
X345942Y194620D01*
X346104Y194863D01*
X346170Y195194D01*
X340335D01*
Y195785D01*
D01*
Y195194D01*
X334501D01*
X334567Y194863D01*
X334729Y194620D01*
X334494Y194179D01*
X328857D01*
X326669Y196368D01*
X326409Y196542D01*
X326101Y196603D01*
X318455D01*
X318242Y196920D01*
X317722Y197268D01*
X317107Y197391D01*
X311595D01*
X310981Y197268D01*
X310460Y196920D01*
X310112Y196399D01*
X309990Y195785D01*
X310112Y195171D01*
X310460Y194650D01*
X310981Y194302D01*
X311595Y194179D01*
X317107D01*
X317722Y194302D01*
X318242Y194650D01*
X318475Y194997D01*
X325769D01*
X327957Y192809D01*
X328218Y192635D01*
X328525Y192574D01*
X335380D01*
X335532Y192074D01*
X335515Y192062D01*
X335208Y191603D01*
X318455D01*
X318242Y191920D01*
X317722Y192269D01*
X317107Y192391D01*
X311595D01*
X310981Y192269D01*
X310460Y191920D01*
X310112Y191400D01*
X309990Y190785D01*
X310112Y190171D01*
X310460Y189650D01*
X310981Y189302D01*
X311595Y189179D01*
X317107D01*
X317722Y189302D01*
X318242Y189650D01*
X318475Y189997D01*
X335188D01*
X335515Y189508D01*
X336101Y189116D01*
X336792Y188979D01*
X343879D01*
X344570Y189116D01*
X345156Y189508D01*
X345548Y190094D01*
X345685Y190785D01*
X345548Y191476D01*
X345156Y192062D01*
X345139Y192074D01*
X345291Y192574D01*
X347558D01*
X347865Y192635D01*
X348125Y192809D01*
X350314Y194997D01*
X354479D01*
X354806Y194508D01*
X354870Y194465D01*
X354718Y193965D01*
X351299D01*
X351299Y193965D01*
X350992Y193904D01*
X350731Y193730D01*
X350731Y193730D01*
X344474Y187473D01*
X343879Y187591D01*
X336792D01*
X336101Y187454D01*
X335515Y187062D01*
X335123Y186476D01*
X334986Y185785D01*
X335030Y185562D01*
X334569Y185316D01*
X333518Y186368D01*
X333257Y186542D01*
X332950Y186603D01*
X318455D01*
X318242Y186920D01*
X317722Y187268D01*
X317107Y187391D01*
X311595D01*
X310981Y187268D01*
X310460Y186920D01*
X310112Y186399D01*
X309990Y185785D01*
X310112Y185171D01*
X310460Y184650D01*
X310981Y184302D01*
X311595Y184179D01*
X317107D01*
X317722Y184302D01*
X318242Y184650D01*
X318475Y184997D01*
X332617D01*
X334682Y182932D01*
X334682Y182932D01*
X334943Y182758D01*
X335250Y182697D01*
X335565D01*
X335717Y182197D01*
X335515Y182062D01*
X335123Y181476D01*
X334986Y180785D01*
X335123Y180094D01*
X335515Y179508D01*
X336101Y179116D01*
X336792Y178979D01*
X343879D01*
X344570Y179116D01*
X345156Y179508D01*
X345483Y179997D01*
X352801D01*
X353108Y180058D01*
X353369Y180232D01*
X353793Y180657D01*
X354335Y180492D01*
X354415Y180094D01*
X354806Y179508D01*
X355392Y179116D01*
X356084Y178979D01*
X363170D01*
X363861Y179116D01*
X364447Y179508D01*
X364774Y179997D01*
X366236D01*
X366544Y180058D01*
X366804Y180232D01*
X375549Y188978D01*
X375735Y188982D01*
X376107Y188914D01*
X376405Y188469D01*
X376926Y188120D01*
X377540Y187998D01*
X383839D01*
X384231Y188076D01*
X385890Y186418D01*
X386150Y186244D01*
X386457Y186183D01*
X395066D01*
X395200Y185931D01*
X395265Y185683D01*
X394954Y185218D01*
X394832Y184604D01*
X394954Y183990D01*
X395302Y183469D01*
X395748Y183171D01*
X395729Y182851D01*
X395665Y182671D01*
X388503D01*
X386087Y185086D01*
X385827Y185260D01*
X385520Y185321D01*
X385254D01*
X384975Y185739D01*
X384454Y186087D01*
X383839Y186210D01*
X377540D01*
X376926Y186087D01*
X376405Y185739D01*
X376057Y185218D01*
X375934Y184604D01*
X375985Y184351D01*
X368237Y176603D01*
X364754D01*
X364447Y177062D01*
X363861Y177454D01*
X363170Y177591D01*
X356084D01*
X355392Y177454D01*
X354806Y177062D01*
X354415Y176476D01*
X354277Y175785D01*
X354415Y175094D01*
X354806Y174508D01*
X355392Y174116D01*
X356084Y173979D01*
X363170D01*
X363861Y174116D01*
X364447Y174508D01*
X364774Y174997D01*
X368569D01*
X368877Y175058D01*
X369137Y175232D01*
X377009Y183104D01*
X377540Y182998D01*
X383839D01*
X384454Y183121D01*
X384975Y183469D01*
X385519Y183383D01*
X387602Y181300D01*
X387602Y181300D01*
X387863Y181126D01*
X388170Y181065D01*
X388170Y181065D01*
X394958D01*
X395186Y180565D01*
X394954Y180218D01*
X394832Y179604D01*
X394954Y178990D01*
X395302Y178469D01*
X395823Y178121D01*
X396438Y177998D01*
X398584D01*
Y176210D01*
X396438D01*
X395823Y176087D01*
X395302Y175739D01*
X394954Y175218D01*
X394832Y174604D01*
X394954Y173989D01*
X395302Y173469D01*
X395823Y173120D01*
X396438Y172998D01*
X402737D01*
X403351Y173120D01*
X403872Y173469D01*
X404220Y173989D01*
X404343Y174604D01*
X404220Y175218D01*
X403872Y175739D01*
X403351Y176087D01*
X402737Y176210D01*
X400591D01*
Y177998D01*
X402737D01*
X403351Y178121D01*
X403872Y178469D01*
X403927Y178551D01*
X404498D01*
X404712Y178337D01*
X405219Y178128D01*
X405452D01*
X411689Y171890D01*
X412014Y171673D01*
X412398Y171597D01*
X469804D01*
X469882Y171308D01*
X470322Y170545D01*
X470945Y169922D01*
X471708Y169482D01*
X472559Y169254D01*
X473441D01*
X474292Y169482D01*
X475055Y169922D01*
X475678Y170545D01*
X476118Y171308D01*
X476196Y171597D01*
X498981D01*
X499365Y171673D01*
X499691Y171890D01*
X505121Y177321D01*
X524391D01*
X524775Y177397D01*
X525100Y177615D01*
X530211Y182726D01*
X530429Y183052D01*
X530505Y183436D01*
Y187540D01*
X531005Y187673D01*
X531335Y187103D01*
X532027Y186410D01*
X532876Y185921D01*
X533822Y185667D01*
X534802D01*
X535748Y185921D01*
X536596Y186410D01*
X537289Y187103D01*
X537779Y187951D01*
X538032Y188898D01*
Y189877D01*
X537779Y190823D01*
X537436Y191416D01*
X539525Y193505D01*
X539699Y193765D01*
X539760Y194072D01*
X539760Y194072D01*
Y203128D01*
X539760Y203128D01*
X539699Y203435D01*
X539525Y203695D01*
X539525Y203695D01*
X537163Y206058D01*
X536903Y206231D01*
X536595Y206293D01*
X531022D01*
X525475Y211840D01*
X525643Y212325D01*
X525656Y212340D01*
X527442D01*
Y216061D01*
X518820D01*
Y212698D01*
X518820Y212340D01*
X518378Y212198D01*
X476348D01*
X476346Y212199D01*
Y213041D01*
X476118Y213892D01*
X475678Y214655D01*
X475055Y215278D01*
X474292Y215718D01*
X473441Y215947D01*
X472559D01*
X471708Y215718D01*
X470945Y215278D01*
X470322Y214655D01*
X469882Y213892D01*
X469654Y213041D01*
Y212159D01*
X469735Y211855D01*
X469190Y211310D01*
X432428D01*
X432428Y211310D01*
X432120Y211249D01*
X431860Y211075D01*
X429528Y208743D01*
X426136D01*
Y205745D01*
X423695Y203303D01*
X406430D01*
X406223Y203803D01*
X406443Y204023D01*
X406652Y204529D01*
Y205078D01*
X406443Y205584D01*
X406055Y205972D01*
X405549Y206182D01*
X405000D01*
X404494Y205972D01*
X404389Y205866D01*
X403873Y205739D01*
X403714Y205845D01*
X403351Y206087D01*
X402737Y206210D01*
X400591D01*
Y207998D01*
X402737D01*
X403351Y208120D01*
X403872Y208469D01*
X404220Y208990D01*
X404343Y209604D01*
X404220Y210218D01*
X403872Y210739D01*
X403351Y211087D01*
X402737Y211210D01*
X396438D01*
X395823Y211087D01*
X395302Y210739D01*
X394954Y210218D01*
X394832Y209604D01*
X394954Y208990D01*
X395302Y208469D01*
X395823Y208120D01*
X396438Y207998D01*
X398584D01*
Y206210D01*
X396438D01*
X395823Y206087D01*
X395302Y205739D01*
X394954Y205218D01*
X394832Y204604D01*
X394954Y203990D01*
X395079Y203803D01*
X394811Y203303D01*
X392267D01*
X391960Y203242D01*
X391700Y203068D01*
X389038Y200407D01*
X385197D01*
X384975Y200739D01*
X384454Y201087D01*
X383839Y201210D01*
X377540D01*
X376926Y201087D01*
X376405Y200739D01*
X376384Y200708D01*
X376291Y200727D01*
X374730D01*
X374423Y200666D01*
X374163Y200492D01*
X374163Y200492D01*
X367636Y193965D01*
X364535D01*
X364384Y194465D01*
X364447Y194508D01*
X364839Y195094D01*
X364977Y195785D01*
X364839Y196476D01*
X364447Y197062D01*
X363861Y197454D01*
X363170Y197591D01*
X356084D01*
X355392Y197454D01*
X354806Y197062D01*
X354499Y196603D01*
X351230D01*
X351023Y197103D01*
X351149Y197229D01*
X351359Y197735D01*
Y198284D01*
X351149Y198790D01*
X350985Y198955D01*
Y213736D01*
X365680Y228431D01*
X366128Y228172D01*
X365988Y227648D01*
X369600D01*
X373212D01*
X373072Y228172D01*
X373520Y228431D01*
X385217Y216733D01*
Y216239D01*
X385427Y215733D01*
X385815Y215345D01*
X386321Y215135D01*
X386869D01*
X387376Y215345D01*
X387764Y215733D01*
X387973Y216239D01*
Y216788D01*
X387764Y217294D01*
X387376Y217682D01*
X386918Y217871D01*
X370603Y234186D01*
Y243691D01*
X372651D01*
Y249794D01*
X366549D01*
Y247746D01*
X358169D01*
Y249902D01*
X351279D01*
Y247746D01*
X340181D01*
X340040Y248035D01*
X340011Y248246D01*
X340475Y248710D01*
X340838Y249338D01*
X341025Y250039D01*
Y250765D01*
X340838Y251466D01*
X340475Y252094D01*
X339962Y252607D01*
X339333Y252970D01*
X338632Y253158D01*
D02*
G37*
G36*
X318632D02*
X317907D01*
X317206Y252970D01*
X316577Y252607D01*
X316064Y252094D01*
X315702Y251466D01*
X315514Y250765D01*
Y250039D01*
X315702Y249338D01*
X316064Y248710D01*
X316577Y248197D01*
X317206Y247834D01*
X317907Y247646D01*
X318632D01*
X319333Y247834D01*
X319962Y248197D01*
X320475Y248710D01*
X320838Y249338D01*
X321025Y250039D01*
Y250765D01*
X320838Y251466D01*
X320475Y252094D01*
X319962Y252607D01*
X319333Y252970D01*
X318632Y253158D01*
D02*
G37*
G36*
X311576Y249812D02*
X308860D01*
Y247096D01*
X309561Y247284D01*
X310324Y247724D01*
X310947Y248347D01*
X311388Y249110D01*
X311576Y249812D01*
D02*
G37*
G36*
X307679D02*
X304963D01*
X305151Y249110D01*
X305592Y248347D01*
X306215Y247724D01*
X306978Y247284D01*
X307679Y247096D01*
Y249812D01*
D02*
G37*
G36*
X358760Y242618D02*
X355315D01*
Y239567D01*
X358760D01*
Y242618D01*
D02*
G37*
G36*
X354134D02*
X350689D01*
Y239567D01*
X354134D01*
Y242618D01*
D02*
G37*
G36*
X358760Y238386D02*
X355315D01*
Y235335D01*
X358760D01*
Y238386D01*
D02*
G37*
G36*
X354134D02*
X350689D01*
Y235335D01*
X354134D01*
Y238386D01*
D02*
G37*
G36*
X529683Y253797D02*
X527760D01*
X525873Y253422D01*
X524096Y252686D01*
X522497Y251617D01*
X521137Y250257D01*
X520069Y248658D01*
X519333Y246881D01*
X518958Y244995D01*
Y243071D01*
X519333Y241185D01*
X520069Y239408D01*
X521137Y237809D01*
X522497Y236449D01*
X524096Y235381D01*
X525873Y234645D01*
X527760Y234269D01*
X529683D01*
X531569Y234645D01*
X533346Y235381D01*
X534945Y236449D01*
X536305Y237809D01*
X537374Y239408D01*
X538110Y241185D01*
X538485Y243071D01*
Y244995D01*
X538110Y246881D01*
X537374Y248658D01*
X536305Y250257D01*
X534945Y251617D01*
X533346Y252686D01*
X531569Y253422D01*
X529683Y253797D01*
D02*
G37*
G36*
X373212Y226467D02*
X370191D01*
Y223446D01*
X371006Y223664D01*
X371836Y224143D01*
X372514Y224821D01*
X372993Y225652D01*
X373212Y226467D01*
D02*
G37*
G36*
X369009D02*
X365988D01*
X366206Y225652D01*
X366686Y224821D01*
X367364Y224143D01*
X368194Y223664D01*
X369009Y223446D01*
Y226467D01*
D02*
G37*
G36*
X527442Y220962D02*
X523721D01*
Y217242D01*
X527442D01*
Y220962D01*
D02*
G37*
G36*
X522540D02*
X518820D01*
Y217242D01*
X522540D01*
Y220962D01*
D02*
G37*
G36*
X317107Y212993D02*
X314942D01*
Y211376D01*
X319197D01*
X319147Y211630D01*
X318668Y212346D01*
X317952Y212825D01*
X317107Y212993D01*
D02*
G37*
G36*
X313761D02*
X311595D01*
X310750Y212825D01*
X310034Y212346D01*
X309556Y211630D01*
X309505Y211376D01*
X313761D01*
Y212993D01*
D02*
G37*
G36*
X343879Y213193D02*
X340926D01*
Y211375D01*
X346170D01*
X346104Y211707D01*
X345582Y212488D01*
X344800Y213010D01*
X343879Y213193D01*
D02*
G37*
G36*
X339745D02*
X336792D01*
X335871Y213010D01*
X335089Y212488D01*
X334567Y211707D01*
X334501Y211375D01*
X339745D01*
Y213193D01*
D02*
G37*
G36*
X363170D02*
X360217D01*
Y211375D01*
X365461D01*
X365395Y211707D01*
X364873Y212488D01*
X364092Y213010D01*
X363170Y213193D01*
D02*
G37*
G36*
X359036D02*
X356084D01*
X355162Y213010D01*
X354380Y212488D01*
X353858Y211707D01*
X353793Y211375D01*
X359036D01*
Y213193D01*
D02*
G37*
G36*
X319197Y210194D02*
X314942D01*
Y208577D01*
X317107D01*
X317952Y208745D01*
X318668Y209224D01*
X319147Y209940D01*
X319197Y210194D01*
D02*
G37*
G36*
X313761D02*
X309505D01*
X309556Y209940D01*
X310034Y209224D01*
X310750Y208745D01*
X311595Y208577D01*
X313761D01*
Y210194D01*
D02*
G37*
G36*
X365461Y210194D02*
X360217D01*
Y208377D01*
X363170D01*
X364092Y208560D01*
X364873Y209082D01*
X365395Y209863D01*
X365461Y210194D01*
D02*
G37*
G36*
X359036D02*
X353793D01*
X353858Y209863D01*
X354380Y209082D01*
X355162Y208560D01*
X356084Y208377D01*
X359036D01*
Y210194D01*
D02*
G37*
G36*
X534802Y214919D02*
X533822D01*
X532876Y214665D01*
X532027Y214176D01*
X531335Y213483D01*
X530845Y212634D01*
X530591Y211688D01*
Y210709D01*
X530845Y209762D01*
X531335Y208914D01*
X532027Y208221D01*
X532876Y207732D01*
X533822Y207478D01*
X534802D01*
X535748Y207732D01*
X536596Y208221D01*
X537289Y208914D01*
X537779Y209762D01*
X538032Y210709D01*
Y211688D01*
X537779Y212634D01*
X537289Y213483D01*
X536596Y214176D01*
X535748Y214665D01*
X534802Y214919D01*
D02*
G37*
G36*
X346170Y210194D02*
X340335D01*
X334501D01*
X334567Y209863D01*
X335089Y209082D01*
X335871Y208560D01*
X335971Y208540D01*
Y208030D01*
X335871Y208010D01*
X335089Y207488D01*
X334567Y206707D01*
X334501Y206376D01*
X340335D01*
X346170D01*
X346104Y206707D01*
X345582Y207488D01*
X344800Y208010D01*
X344700Y208030D01*
Y208540D01*
X344800Y208560D01*
X345582Y209082D01*
X346104Y209863D01*
X346170Y210194D01*
D02*
G37*
G36*
X317107Y207391D02*
X311595D01*
X310981Y207268D01*
X310460Y206920D01*
X310112Y206399D01*
X309990Y205785D01*
X310112Y205171D01*
X310460Y204650D01*
X310981Y204302D01*
X311595Y204179D01*
X317107D01*
X317722Y204302D01*
X318242Y204650D01*
X318590Y205171D01*
X318713Y205785D01*
X318590Y206399D01*
X318242Y206920D01*
X317722Y207268D01*
X317107Y207391D01*
D02*
G37*
G36*
X346170Y205194D02*
X340926D01*
Y203377D01*
X343879D01*
X344800Y203560D01*
X345582Y204082D01*
X346104Y204863D01*
X346170Y205194D01*
D02*
G37*
G36*
X339745D02*
X334501D01*
X334567Y204863D01*
X335089Y204082D01*
X335871Y203560D01*
X336792Y203377D01*
X339745D01*
Y205194D01*
D02*
G37*
G36*
X317107Y202391D02*
X311595D01*
X310981Y202269D01*
X310460Y201920D01*
X310112Y201399D01*
X309990Y200785D01*
X310112Y200171D01*
X310460Y199650D01*
X310981Y199302D01*
X311595Y199179D01*
X317107D01*
X317722Y199302D01*
X318242Y199650D01*
X318590Y200171D01*
X318713Y200785D01*
X318590Y201399D01*
X318242Y201920D01*
X317722Y202269D01*
X317107Y202391D01*
D02*
G37*
G36*
X343879Y202591D02*
X336792D01*
X336101Y202454D01*
X335515Y202062D01*
X335123Y201476D01*
X334986Y200785D01*
X335123Y200094D01*
X335515Y199508D01*
X336101Y199116D01*
X336792Y198979D01*
X343879D01*
X344570Y199116D01*
X345156Y199508D01*
X345548Y200094D01*
X345685Y200785D01*
X345548Y201476D01*
X345156Y202062D01*
X344570Y202454D01*
X343879Y202591D01*
D02*
G37*
G36*
Y198194D02*
X340926D01*
Y196376D01*
X346170D01*
X346104Y196707D01*
X345582Y197488D01*
X344800Y198010D01*
X343879Y198194D01*
D02*
G37*
G36*
X339745D02*
X336792D01*
X335871Y198010D01*
X335089Y197488D01*
X334567Y196707D01*
X334501Y196376D01*
X339745D01*
Y198194D01*
D02*
G37*
G36*
X473441Y225946D02*
X472559D01*
X471708Y225718D01*
X470945Y225278D01*
X470322Y224655D01*
X469882Y223892D01*
X469654Y223041D01*
Y222159D01*
X469882Y221308D01*
X470322Y220545D01*
X470945Y219922D01*
X471708Y219482D01*
X472559Y219253D01*
X473441D01*
X474292Y219482D01*
X475055Y219922D01*
X475678Y220545D01*
X476118Y221308D01*
X476249Y221797D01*
X532145D01*
X541304Y212637D01*
Y186610D01*
X536316Y181621D01*
X535748Y181949D01*
X534802Y182202D01*
X533822D01*
X532876Y181949D01*
X532027Y181459D01*
X531335Y180766D01*
X530845Y179918D01*
X530591Y178972D01*
Y177992D01*
X530845Y177046D01*
X531335Y176198D01*
X532027Y175505D01*
X532876Y175015D01*
X533822Y174761D01*
X534802D01*
X535748Y175015D01*
X536596Y175505D01*
X537289Y176198D01*
X537779Y177046D01*
X538032Y177992D01*
Y178972D01*
X537779Y179918D01*
X537451Y180486D01*
X542675Y185709D01*
X542675Y185710D01*
X542849Y185970D01*
X542910Y186277D01*
X542910Y186277D01*
Y212970D01*
X542910Y212970D01*
X542849Y213277D01*
X542675Y213538D01*
X542675Y213538D01*
X533045Y223168D01*
X532784Y223342D01*
X532477Y223403D01*
X476249D01*
X476118Y223892D01*
X475678Y224655D01*
X475055Y225278D01*
X474292Y225718D01*
X473441Y225946D01*
D02*
G37*
G36*
X317107Y182993D02*
X314942D01*
Y181376D01*
X319197D01*
X319147Y181630D01*
X318668Y182346D01*
X317952Y182825D01*
X317107Y182993D01*
D02*
G37*
G36*
X313761D02*
X311595D01*
X310750Y182825D01*
X310034Y182346D01*
X309556Y181630D01*
X309505Y181376D01*
X313761D01*
Y182993D01*
D02*
G37*
G36*
X319197Y180194D02*
X314942D01*
Y178577D01*
X317107D01*
X317952Y178745D01*
X318668Y179224D01*
X319147Y179940D01*
X319197Y180194D01*
D02*
G37*
G36*
X313761D02*
X309505D01*
X309556Y179940D01*
X310034Y179224D01*
X310750Y178745D01*
X311595Y178577D01*
X313761D01*
Y180194D01*
D02*
G37*
G36*
X383839Y181210D02*
X377540D01*
X376926Y181087D01*
X376405Y180739D01*
X376057Y180218D01*
X375934Y179604D01*
X376057Y178990D01*
X376405Y178469D01*
X376926Y178121D01*
X377540Y177998D01*
X383839D01*
X384454Y178121D01*
X384975Y178469D01*
X385323Y178990D01*
X385445Y179604D01*
X385323Y180218D01*
X384975Y180739D01*
X384454Y181087D01*
X383839Y181210D01*
D02*
G37*
G36*
X331398Y179035D02*
X324508D01*
Y176789D01*
X318331D01*
X318242Y176920D01*
X317722Y177269D01*
X317107Y177391D01*
X311595D01*
X310981Y177269D01*
X310460Y176920D01*
X310112Y176400D01*
X309990Y175785D01*
X310112Y175171D01*
X310460Y174650D01*
X310981Y174302D01*
X311595Y174179D01*
X317107D01*
X317722Y174302D01*
X318242Y174650D01*
X318331Y174782D01*
X324508D01*
Y172933D01*
X331398D01*
Y174781D01*
X335332D01*
X335515Y174508D01*
X336101Y174116D01*
X336792Y173979D01*
X343879D01*
X344570Y174116D01*
X345156Y174508D01*
X345245Y174640D01*
X348173D01*
X348413Y174400D01*
X348920Y174191D01*
X349468D01*
X349974Y174400D01*
X350362Y174788D01*
X350572Y175294D01*
Y175843D01*
X350362Y176349D01*
X349974Y176737D01*
X349468Y176946D01*
X348920D01*
X348413Y176737D01*
X348324Y176647D01*
X345433D01*
X345156Y177062D01*
X344570Y177454D01*
X343879Y177591D01*
X336792D01*
X336101Y177454D01*
X335515Y177062D01*
X335332Y176788D01*
X331398D01*
Y179035D01*
D02*
G37*
G36*
X476346Y235946D02*
X469654D01*
Y230389D01*
X463296Y224031D01*
X442493D01*
X442028Y224114D01*
X442028Y224531D01*
Y225947D01*
X461827D01*
X462193Y225581D01*
X462699Y225372D01*
X463247D01*
X463754Y225581D01*
X464141Y225969D01*
X464351Y226476D01*
Y227024D01*
X464141Y227530D01*
X463754Y227918D01*
X463247Y228128D01*
X462699D01*
X462193Y227918D01*
X461827Y227552D01*
X442028D01*
Y230217D01*
X435138D01*
Y227946D01*
X401379D01*
X401379Y227946D01*
X401071Y227885D01*
X400811Y227711D01*
X400811Y227711D01*
X384231Y211132D01*
X383839Y211210D01*
X377540D01*
X376926Y211087D01*
X376405Y210739D01*
X376396Y210727D01*
X372526D01*
X372218Y210666D01*
X371958Y210492D01*
X371958Y210492D01*
X368069Y206603D01*
X364754D01*
X364447Y207062D01*
X363861Y207454D01*
X363170Y207591D01*
X356084D01*
X355392Y207454D01*
X354806Y207062D01*
X354415Y206476D01*
X354277Y205785D01*
X354415Y205094D01*
X354806Y204508D01*
X355392Y204116D01*
X356084Y203979D01*
X363170D01*
X363861Y204116D01*
X364447Y204508D01*
X364774Y204997D01*
X368402D01*
X368709Y205058D01*
X368969Y205232D01*
X372858Y209121D01*
X376030D01*
X376057Y208990D01*
X376405Y208469D01*
X376926Y208120D01*
X377540Y207998D01*
X383839D01*
X384454Y208120D01*
X384975Y208469D01*
X385323Y208990D01*
X385445Y209604D01*
X385367Y209996D01*
X401711Y226341D01*
X435138D01*
X435138Y224114D01*
X434672Y224031D01*
X431572D01*
X431264Y223970D01*
X431004Y223796D01*
X431004Y223796D01*
X429528Y222321D01*
X426136D01*
Y219777D01*
X398505D01*
X398505Y219777D01*
X398198Y219716D01*
X397937Y219542D01*
X384471Y206076D01*
X384454Y206087D01*
X383839Y206210D01*
X377540D01*
X376926Y206087D01*
X376405Y205739D01*
X376384Y205708D01*
X373019D01*
X372711Y205647D01*
X372451Y205473D01*
X372451Y205473D01*
X368581Y201603D01*
X364754D01*
X364447Y202062D01*
X363861Y202454D01*
X363170Y202591D01*
X356084D01*
X355392Y202454D01*
X354806Y202062D01*
X354415Y201476D01*
X354277Y200785D01*
X354415Y200094D01*
X354806Y199508D01*
X355392Y199116D01*
X356084Y198979D01*
X363170D01*
X363861Y199116D01*
X364447Y199508D01*
X364774Y199997D01*
X368913D01*
X369221Y200058D01*
X369481Y200232D01*
X373351Y204102D01*
X376034D01*
X376057Y203990D01*
X376405Y203469D01*
X376926Y203120D01*
X377540Y202998D01*
X383839D01*
X384454Y203120D01*
X384975Y203469D01*
X385323Y203990D01*
X385445Y204604D01*
X385416Y204750D01*
X398837Y218171D01*
X427120D01*
X427198Y218187D01*
X430664D01*
Y221185D01*
X431904Y222426D01*
X434672D01*
X435138Y222342D01*
X435138Y221925D01*
Y217375D01*
X433701Y215938D01*
X430664D01*
Y217202D01*
X426136D01*
Y213069D01*
X430664D01*
Y214333D01*
X434033D01*
X434340Y214394D01*
X434601Y214568D01*
X436273Y216240D01*
X442028D01*
X442028Y222342D01*
X442493Y222426D01*
X463628D01*
X463936Y222487D01*
X464196Y222661D01*
X470789Y229254D01*
X476346D01*
Y231797D01*
X526082D01*
X543597Y214282D01*
Y181622D01*
X535078Y173103D01*
X526851D01*
Y173519D01*
X526598Y174465D01*
X526108Y175313D01*
X525415Y176006D01*
X524567Y176496D01*
X523621Y176750D01*
X522641D01*
X521695Y176496D01*
X520846Y176006D01*
X520154Y175313D01*
X519664Y174465D01*
X519410Y173519D01*
Y172539D01*
X519664Y171593D01*
X520154Y170745D01*
X520846Y170052D01*
X521695Y169562D01*
X522641Y169309D01*
X523621D01*
X524567Y169562D01*
X525415Y170052D01*
X526108Y170745D01*
X526542Y171497D01*
X535411D01*
X535718Y171558D01*
X535979Y171732D01*
X544968Y180721D01*
X544968Y180721D01*
X545142Y180982D01*
X545203Y181289D01*
X545203Y181289D01*
Y214614D01*
X545142Y214921D01*
X544968Y215182D01*
X544968Y215182D01*
X526982Y233168D01*
X526721Y233342D01*
X526414Y233403D01*
X476346D01*
Y235946D01*
D02*
G37*
G36*
X383839Y176210D02*
X377540D01*
X376926Y176087D01*
X376405Y175739D01*
X376057Y175218D01*
X375934Y174604D01*
X376057Y173989D01*
X376405Y173469D01*
X376926Y173120D01*
X377540Y172998D01*
X383839D01*
X384454Y173120D01*
X384975Y173469D01*
X385323Y173989D01*
X385445Y174604D01*
X385323Y175218D01*
X384975Y175739D01*
X384454Y176087D01*
X383839Y176210D01*
D02*
G37*
G36*
X331988Y171752D02*
X328543D01*
Y168701D01*
X331988D01*
Y171752D01*
D02*
G37*
G36*
X327362D02*
X323917D01*
Y168701D01*
X327362D01*
Y171752D01*
D02*
G37*
G36*
X331988Y167520D02*
X328543D01*
Y164469D01*
X331988D01*
Y167520D01*
D02*
G37*
G36*
X327362D02*
X323917D01*
Y164469D01*
X327362D01*
Y167520D01*
D02*
G37*
G36*
X473591Y166518D02*
Y163190D01*
X476918D01*
X476669Y164120D01*
X476150Y165017D01*
X475417Y165750D01*
X474520Y166269D01*
X473591Y166518D01*
D02*
G37*
G36*
X472409Y166518D02*
X471480Y166269D01*
X470583Y165750D01*
X469850Y165017D01*
X469331Y164120D01*
X469082Y163190D01*
X472409D01*
Y166518D01*
D02*
G37*
G36*
Y162009D02*
X469082D01*
X469331Y161080D01*
X469850Y160183D01*
X470583Y159450D01*
X471480Y158931D01*
X472409Y158682D01*
Y162009D01*
D02*
G37*
G36*
X476918D02*
X473591D01*
Y158682D01*
X474520Y158931D01*
X475417Y159450D01*
X476150Y160183D01*
X476669Y161080D01*
X476918Y162009D01*
D02*
G37*
G36*
X310060Y380108D02*
Y377393D01*
X312776D01*
X312588Y378094D01*
X312147Y378857D01*
X311524Y379480D01*
X310761Y379921D01*
X310060Y380108D01*
D02*
G37*
G36*
X308879D02*
X308178Y379921D01*
X307415Y379480D01*
X306792Y378857D01*
X306351Y378094D01*
X306163Y377393D01*
X308879D01*
Y380108D01*
D02*
G37*
G36*
X339832Y379558D02*
X339107D01*
X338406Y379370D01*
X337777Y379007D01*
X337264Y378494D01*
X336901Y377866D01*
X336714Y377165D01*
Y376439D01*
X336901Y375738D01*
X337264Y375110D01*
X337728Y374646D01*
X337699Y374435D01*
X337558Y374146D01*
X333545D01*
X332006Y375684D01*
X332038Y375738D01*
X332225Y376439D01*
Y377165D01*
X332038Y377866D01*
X331675Y378494D01*
X331162Y379007D01*
X330533Y379370D01*
X329832Y379558D01*
X329107D01*
X328406Y379370D01*
X327777Y379007D01*
X327264Y378494D01*
X326901Y377866D01*
X326714Y377165D01*
Y376439D01*
X326901Y375738D01*
X327264Y375110D01*
X327777Y374597D01*
X328406Y374234D01*
X329107Y374046D01*
X329832D01*
X330533Y374234D01*
X330587Y374265D01*
X332419Y372433D01*
X332745Y372216D01*
X333129Y372139D01*
X353248D01*
Y370177D01*
X360138D01*
Y372139D01*
X367749D01*
Y370091D01*
X369796D01*
Y360586D01*
X350471Y341261D01*
X350254Y340935D01*
X350178Y340551D01*
Y325355D01*
X350013Y325190D01*
X349803Y324683D01*
Y324135D01*
X350013Y323629D01*
X350401Y323241D01*
X350414Y323236D01*
X350482Y323076D01*
X350503Y322657D01*
X348425Y320579D01*
X347377D01*
X347142Y321020D01*
X347304Y321263D01*
X347370Y321595D01*
X341535D01*
X335701D01*
X335767Y321263D01*
X335929Y321020D01*
X335694Y320579D01*
X330058D01*
X327869Y322768D01*
X327609Y322942D01*
X327302Y323003D01*
X319655D01*
X319442Y323320D01*
X318921Y323669D01*
X318307Y323791D01*
X312795D01*
X312181Y323669D01*
X311660Y323320D01*
X311312Y322799D01*
X311190Y322185D01*
X311312Y321571D01*
X311660Y321050D01*
X312181Y320702D01*
X312795Y320579D01*
X318307D01*
X318921Y320702D01*
X319442Y321050D01*
X319674Y321397D01*
X326969D01*
X329157Y319209D01*
X329418Y319035D01*
X329725Y318974D01*
X336580D01*
X336732Y318474D01*
X336715Y318462D01*
X336408Y318003D01*
X319655D01*
X319442Y318320D01*
X318921Y318669D01*
X318307Y318791D01*
X312795D01*
X312181Y318669D01*
X311660Y318320D01*
X311312Y317799D01*
X311190Y317185D01*
X311312Y316571D01*
X311660Y316050D01*
X312181Y315702D01*
X312795Y315579D01*
X318307D01*
X318921Y315702D01*
X319442Y316050D01*
X319674Y316397D01*
X336388D01*
X336715Y315908D01*
X337301Y315516D01*
X337992Y315379D01*
X345079D01*
X345770Y315516D01*
X346356Y315908D01*
X346747Y316494D01*
X346885Y317185D01*
X346747Y317876D01*
X346356Y318462D01*
X346339Y318474D01*
X346491Y318974D01*
X348758D01*
X349065Y319035D01*
X349325Y319209D01*
X351514Y321397D01*
X355679D01*
X356006Y320908D01*
X356070Y320865D01*
X355918Y320365D01*
X352499D01*
X352499Y320365D01*
X352192Y320304D01*
X351931Y320130D01*
X351931Y320130D01*
X345674Y313873D01*
X345079Y313991D01*
X337992D01*
X337301Y313854D01*
X336715Y313462D01*
X336323Y312876D01*
X336186Y312185D01*
X336230Y311963D01*
X335769Y311716D01*
X334718Y312768D01*
X334457Y312942D01*
X334150Y313003D01*
X319655D01*
X319442Y313320D01*
X318921Y313668D01*
X318307Y313791D01*
X312795D01*
X312181Y313668D01*
X311660Y313320D01*
X311312Y312800D01*
X311190Y312185D01*
X311312Y311571D01*
X311660Y311050D01*
X312181Y310702D01*
X312795Y310579D01*
X318307D01*
X318921Y310702D01*
X319442Y311050D01*
X319674Y311397D01*
X333817D01*
X335882Y309332D01*
X335882Y309332D01*
X336143Y309158D01*
X336450Y309097D01*
X336765D01*
X336917Y308597D01*
X336715Y308462D01*
X336323Y307876D01*
X336186Y307185D01*
X336323Y306494D01*
X336715Y305908D01*
X337301Y305516D01*
X337992Y305379D01*
X345079D01*
X345770Y305516D01*
X346356Y305908D01*
X346683Y306397D01*
X354001D01*
X354308Y306458D01*
X354569Y306632D01*
X354993Y307057D01*
X355535Y306892D01*
X355615Y306494D01*
X356006Y305908D01*
X356592Y305516D01*
X357283Y305379D01*
X364370D01*
X365061Y305516D01*
X365647Y305908D01*
X365974Y306397D01*
X367436D01*
X367743Y306458D01*
X368004Y306632D01*
X376749Y315378D01*
X376935Y315382D01*
X377307Y315314D01*
X377605Y314868D01*
X378126Y314521D01*
X378740Y314398D01*
X385039D01*
X385432Y314476D01*
X387090Y312818D01*
X387350Y312644D01*
X387657Y312583D01*
X396267D01*
X396400Y312331D01*
X396465Y312083D01*
X396154Y311618D01*
X396032Y311004D01*
X396154Y310389D01*
X396502Y309869D01*
X396948Y309571D01*
X396929Y309251D01*
X396865Y309071D01*
X389703D01*
X387287Y311486D01*
X387027Y311660D01*
X386719Y311721D01*
X386454D01*
X386175Y312139D01*
X385654Y312487D01*
X385039Y312610D01*
X378740D01*
X378126Y312487D01*
X377605Y312139D01*
X377257Y311618D01*
X377134Y311004D01*
X377185Y310751D01*
X369437Y303003D01*
X365954D01*
X365647Y303462D01*
X365061Y303854D01*
X364370Y303991D01*
X357283D01*
X356592Y303854D01*
X356006Y303462D01*
X355615Y302876D01*
X355477Y302185D01*
X355615Y301494D01*
X356006Y300908D01*
X356592Y300516D01*
X357283Y300379D01*
X364370D01*
X365061Y300516D01*
X365647Y300908D01*
X365974Y301397D01*
X369769D01*
X370076Y301458D01*
X370337Y301632D01*
X378209Y309504D01*
X378740Y309398D01*
X385039D01*
X385654Y309521D01*
X386175Y309869D01*
X386719Y309783D01*
X388802Y307700D01*
X388802Y307700D01*
X389063Y307526D01*
X389370Y307465D01*
X389370Y307465D01*
X396158D01*
X396386Y306965D01*
X396154Y306618D01*
X396032Y306004D01*
X396154Y305389D01*
X396502Y304869D01*
X397023Y304521D01*
X397638Y304398D01*
X399784D01*
Y302609D01*
X397638D01*
X397023Y302487D01*
X396502Y302139D01*
X396154Y301618D01*
X396032Y301004D01*
X396154Y300389D01*
X396502Y299868D01*
X397023Y299520D01*
X397638Y299398D01*
X403937D01*
X404552Y299520D01*
X405072Y299868D01*
X405420Y300389D01*
X405543Y301004D01*
X405420Y301618D01*
X405072Y302139D01*
X404552Y302487D01*
X403937Y302609D01*
X401791D01*
Y304398D01*
X403937D01*
X404552Y304521D01*
X405072Y304869D01*
X405128Y304951D01*
X405698D01*
X405912Y304737D01*
X406419Y304528D01*
X406652D01*
X412889Y298290D01*
X413214Y298073D01*
X413598Y297996D01*
X471004D01*
X471082Y297708D01*
X471522Y296945D01*
X472145Y296322D01*
X472908Y295882D01*
X473759Y295654D01*
X474641D01*
X475492Y295882D01*
X476255Y296322D01*
X476878Y296945D01*
X477318Y297708D01*
X477396Y297996D01*
X500181D01*
X500565Y298073D01*
X500891Y298290D01*
X506321Y303721D01*
X525591D01*
X525975Y303797D01*
X526300Y304015D01*
X531411Y309126D01*
X531629Y309452D01*
X531705Y309836D01*
Y313939D01*
X532205Y314073D01*
X532535Y313503D01*
X533227Y312810D01*
X534076Y312320D01*
X535022Y312067D01*
X536002D01*
X536948Y312320D01*
X537796Y312810D01*
X538489Y313503D01*
X538979Y314351D01*
X539232Y315298D01*
Y316277D01*
X538979Y317224D01*
X538636Y317816D01*
X540725Y319905D01*
X540899Y320165D01*
X540960Y320472D01*
X540960Y320473D01*
Y329527D01*
X540960Y329528D01*
X540899Y329835D01*
X540725Y330095D01*
X540725Y330095D01*
X538363Y332457D01*
X538102Y332631D01*
X537795Y332693D01*
X532222D01*
X526675Y338240D01*
X526843Y338725D01*
X526856Y338740D01*
X528642D01*
Y342461D01*
X520020D01*
Y339098D01*
X520020Y338740D01*
X519579Y338598D01*
X477548D01*
X477547Y338599D01*
Y339441D01*
X477318Y340292D01*
X476878Y341055D01*
X476255Y341678D01*
X475492Y342118D01*
X474641Y342347D01*
X473759D01*
X472908Y342118D01*
X472145Y341678D01*
X471522Y341055D01*
X471082Y340292D01*
X470854Y339441D01*
Y338559D01*
X470935Y338255D01*
X470390Y337710D01*
X433628D01*
X433628Y337710D01*
X433320Y337649D01*
X433060Y337475D01*
X430728Y335143D01*
X427336D01*
Y332145D01*
X424895Y329703D01*
X407630D01*
X407423Y330203D01*
X407643Y330423D01*
X407852Y330929D01*
Y331478D01*
X407643Y331984D01*
X407255Y332372D01*
X406749Y332581D01*
X406200D01*
X405694Y332372D01*
X405589Y332266D01*
X405073Y332139D01*
X404914Y332245D01*
X404552Y332487D01*
X403937Y332610D01*
X401791D01*
Y334398D01*
X403937D01*
X404552Y334521D01*
X405072Y334869D01*
X405420Y335389D01*
X405543Y336004D01*
X405420Y336618D01*
X405072Y337139D01*
X404552Y337487D01*
X403937Y337610D01*
X397638D01*
X397023Y337487D01*
X396502Y337139D01*
X396154Y336618D01*
X396032Y336004D01*
X396154Y335389D01*
X396502Y334869D01*
X397023Y334521D01*
X397638Y334398D01*
X399784D01*
Y332610D01*
X397638D01*
X397023Y332487D01*
X396502Y332139D01*
X396154Y331618D01*
X396032Y331004D01*
X396154Y330389D01*
X396279Y330203D01*
X396012Y329703D01*
X393467D01*
X393160Y329642D01*
X392900Y329468D01*
X390238Y326807D01*
X386397D01*
X386175Y327139D01*
X385654Y327487D01*
X385039Y327609D01*
X378740D01*
X378126Y327487D01*
X377605Y327139D01*
X377584Y327108D01*
X377491Y327127D01*
X375930D01*
X375623Y327066D01*
X375363Y326892D01*
X375363Y326892D01*
X368836Y320365D01*
X365735D01*
X365583Y320865D01*
X365647Y320908D01*
X366039Y321494D01*
X366176Y322185D01*
X366039Y322876D01*
X365647Y323462D01*
X365061Y323854D01*
X364370Y323991D01*
X357283D01*
X356592Y323854D01*
X356006Y323462D01*
X355699Y323003D01*
X352430D01*
X352223Y323503D01*
X352349Y323629D01*
X352559Y324135D01*
Y324683D01*
X352349Y325190D01*
X352185Y325355D01*
Y340136D01*
X366880Y354831D01*
X367329Y354572D01*
X367188Y354048D01*
X370800D01*
X374412D01*
X374271Y354572D01*
X374720Y354831D01*
X386417Y343133D01*
Y342639D01*
X386627Y342133D01*
X387015Y341745D01*
X387521Y341535D01*
X388069D01*
X388576Y341745D01*
X388964Y342133D01*
X389173Y342639D01*
Y343187D01*
X388964Y343694D01*
X388576Y344082D01*
X388118Y344271D01*
X371803Y360586D01*
Y370091D01*
X373851D01*
Y376194D01*
X367749D01*
Y374146D01*
X360138D01*
Y376279D01*
X353248D01*
Y374146D01*
X341381D01*
X341240Y374435D01*
X341211Y374646D01*
X341675Y375110D01*
X342038Y375738D01*
X342225Y376439D01*
Y377165D01*
X342038Y377866D01*
X341675Y378494D01*
X341162Y379007D01*
X340533Y379370D01*
X339832Y379558D01*
D02*
G37*
G36*
X319832D02*
X319107D01*
X318406Y379370D01*
X317777Y379007D01*
X317264Y378494D01*
X316901Y377866D01*
X316714Y377165D01*
Y376439D01*
X316901Y375738D01*
X317264Y375110D01*
X317777Y374597D01*
X318406Y374234D01*
X319107Y374046D01*
X319832D01*
X320533Y374234D01*
X321162Y374597D01*
X321675Y375110D01*
X322038Y375738D01*
X322225Y376439D01*
Y377165D01*
X322038Y377866D01*
X321675Y378494D01*
X321162Y379007D01*
X320533Y379370D01*
X319832Y379558D01*
D02*
G37*
G36*
X312776Y376212D02*
X310060D01*
Y373496D01*
X310761Y373684D01*
X311524Y374124D01*
X312147Y374747D01*
X312588Y375511D01*
X312776Y376212D01*
D02*
G37*
G36*
X308879D02*
X306163D01*
X306351Y375511D01*
X306792Y374747D01*
X307415Y374124D01*
X308178Y373684D01*
X308879Y373496D01*
Y376212D01*
D02*
G37*
G36*
X360728Y368996D02*
X357283D01*
Y365945D01*
X360728D01*
Y368996D01*
D02*
G37*
G36*
X356102D02*
X352658D01*
Y365945D01*
X356102D01*
Y368996D01*
D02*
G37*
G36*
X360728Y364764D02*
X357283D01*
Y361713D01*
X360728D01*
Y364764D01*
D02*
G37*
G36*
X356102D02*
X352658D01*
Y361713D01*
X356102D01*
Y364764D01*
D02*
G37*
G36*
X530883Y380197D02*
X528960D01*
X527073Y379822D01*
X525296Y379086D01*
X523697Y378017D01*
X522337Y376657D01*
X521269Y375058D01*
X520533Y373281D01*
X520158Y371395D01*
Y369471D01*
X520533Y367585D01*
X521269Y365808D01*
X522337Y364209D01*
X523697Y362849D01*
X525296Y361781D01*
X527073Y361045D01*
X528960Y360669D01*
X530883D01*
X532769Y361045D01*
X534546Y361781D01*
X536145Y362849D01*
X537505Y364209D01*
X538574Y365808D01*
X539310Y367585D01*
X539685Y369471D01*
Y371395D01*
X539310Y373281D01*
X538574Y375058D01*
X537505Y376657D01*
X536145Y378017D01*
X534546Y379086D01*
X532769Y379822D01*
X530883Y380197D01*
D02*
G37*
G36*
X374412Y352867D02*
X371391D01*
Y349846D01*
X372206Y350064D01*
X373036Y350543D01*
X373714Y351221D01*
X374194Y352052D01*
X374412Y352867D01*
D02*
G37*
G36*
X370209D02*
X367188D01*
X367406Y352052D01*
X367886Y351221D01*
X368564Y350543D01*
X369394Y350064D01*
X370209Y349846D01*
Y352867D01*
D02*
G37*
G36*
X528642Y347362D02*
X524921D01*
Y343642D01*
X528642D01*
Y347362D01*
D02*
G37*
G36*
X523740D02*
X520020D01*
Y343642D01*
X523740D01*
Y347362D01*
D02*
G37*
G36*
X364370Y339594D02*
X361417D01*
Y337776D01*
X366661D01*
X366595Y338107D01*
X366073Y338888D01*
X365292Y339410D01*
X364370Y339594D01*
D02*
G37*
G36*
X345079D02*
X342126D01*
Y337776D01*
X347370D01*
X347304Y338107D01*
X346782Y338888D01*
X346000Y339410D01*
X345079Y339594D01*
D02*
G37*
G36*
X360236D02*
X357283D01*
X356362Y339410D01*
X355580Y338888D01*
X355058Y338107D01*
X354993Y337776D01*
X360236D01*
Y339594D01*
D02*
G37*
G36*
X340945D02*
X337992D01*
X337070Y339410D01*
X336289Y338888D01*
X335767Y338107D01*
X335701Y337776D01*
X340945D01*
Y339594D01*
D02*
G37*
G36*
X318307Y339393D02*
X316142D01*
Y337776D01*
X320397D01*
X320347Y338030D01*
X319868Y338746D01*
X319152Y339225D01*
X318307Y339393D01*
D02*
G37*
G36*
X314961D02*
X312795D01*
X311950Y339225D01*
X311234Y338746D01*
X310755Y338030D01*
X310705Y337776D01*
X314961D01*
Y339393D01*
D02*
G37*
G36*
X320397Y336595D02*
X316142D01*
Y334977D01*
X318307D01*
X319152Y335145D01*
X319868Y335624D01*
X320347Y336340D01*
X320397Y336595D01*
D02*
G37*
G36*
X314961D02*
X310705D01*
X310755Y336340D01*
X311234Y335624D01*
X311950Y335145D01*
X312795Y334977D01*
X314961D01*
Y336595D01*
D02*
G37*
G36*
X366661Y336595D02*
X361417D01*
Y334777D01*
X364370D01*
X365292Y334960D01*
X366073Y335482D01*
X366595Y336263D01*
X366661Y336595D01*
D02*
G37*
G36*
X360236D02*
X354992D01*
X355058Y336263D01*
X355580Y335482D01*
X356362Y334960D01*
X357283Y334777D01*
X360236D01*
Y336595D01*
D02*
G37*
G36*
X536002Y341319D02*
X535022D01*
X534076Y341065D01*
X533227Y340576D01*
X532535Y339883D01*
X532045Y339035D01*
X531791Y338088D01*
Y337109D01*
X532045Y336162D01*
X532535Y335314D01*
X533227Y334621D01*
X534076Y334132D01*
X535022Y333878D01*
X536002D01*
X536948Y334132D01*
X537796Y334621D01*
X538489Y335314D01*
X538979Y336162D01*
X539232Y337109D01*
Y338088D01*
X538979Y339035D01*
X538489Y339883D01*
X537796Y340576D01*
X536948Y341065D01*
X536002Y341319D01*
D02*
G37*
G36*
X347370Y336595D02*
X341535D01*
X335701D01*
X335767Y336263D01*
X336289Y335482D01*
X337070Y334960D01*
X337171Y334940D01*
Y334430D01*
X337070Y334410D01*
X336289Y333888D01*
X335767Y333107D01*
X335701Y332776D01*
X341535D01*
X347370D01*
X347304Y333107D01*
X346782Y333888D01*
X346000Y334410D01*
X345900Y334430D01*
Y334940D01*
X346000Y334960D01*
X346782Y335482D01*
X347304Y336263D01*
X347370Y336595D01*
D02*
G37*
G36*
X318307Y333791D02*
X312795D01*
X312181Y333668D01*
X311660Y333320D01*
X311312Y332800D01*
X311190Y332185D01*
X311312Y331571D01*
X311660Y331050D01*
X312181Y330702D01*
X312795Y330579D01*
X318307D01*
X318921Y330702D01*
X319442Y331050D01*
X319790Y331571D01*
X319913Y332185D01*
X319790Y332800D01*
X319442Y333320D01*
X318921Y333668D01*
X318307Y333791D01*
D02*
G37*
G36*
X347370Y331594D02*
X342126D01*
Y329777D01*
X345079D01*
X346000Y329960D01*
X346782Y330482D01*
X347304Y331263D01*
X347370Y331594D01*
D02*
G37*
G36*
X340945D02*
X335701D01*
X335767Y331263D01*
X336289Y330482D01*
X337070Y329960D01*
X337992Y329777D01*
X340945D01*
Y331594D01*
D02*
G37*
G36*
X318307Y328791D02*
X312795D01*
X312181Y328668D01*
X311660Y328320D01*
X311312Y327800D01*
X311190Y327185D01*
X311312Y326571D01*
X311660Y326050D01*
X312181Y325702D01*
X312795Y325579D01*
X318307D01*
X318921Y325702D01*
X319442Y326050D01*
X319790Y326571D01*
X319913Y327185D01*
X319790Y327800D01*
X319442Y328320D01*
X318921Y328668D01*
X318307Y328791D01*
D02*
G37*
G36*
X345079Y328991D02*
X337992D01*
X337301Y328854D01*
X336715Y328462D01*
X336323Y327876D01*
X336186Y327185D01*
X336323Y326494D01*
X336715Y325908D01*
X337301Y325516D01*
X337992Y325379D01*
X345079D01*
X345770Y325516D01*
X346356Y325908D01*
X346747Y326494D01*
X346885Y327185D01*
X346747Y327876D01*
X346356Y328462D01*
X345770Y328854D01*
X345079Y328991D01*
D02*
G37*
G36*
Y324593D02*
X342126D01*
Y322776D01*
X347370D01*
X347304Y323107D01*
X346782Y323888D01*
X346000Y324410D01*
X345079Y324593D01*
D02*
G37*
G36*
X340945D02*
X337992D01*
X337070Y324410D01*
X336289Y323888D01*
X335767Y323107D01*
X335701Y322776D01*
X340945D01*
Y324593D01*
D02*
G37*
G36*
X474641Y352346D02*
X473759D01*
X472908Y352118D01*
X472145Y351678D01*
X471522Y351055D01*
X471082Y350292D01*
X470854Y349441D01*
Y348559D01*
X471082Y347708D01*
X471522Y346945D01*
X472145Y346322D01*
X472908Y345882D01*
X473759Y345654D01*
X474641D01*
X475492Y345882D01*
X476255Y346322D01*
X476878Y346945D01*
X477318Y347708D01*
X477449Y348197D01*
X533345D01*
X542504Y339037D01*
Y313010D01*
X537515Y308021D01*
X536948Y308349D01*
X536002Y308602D01*
X535022D01*
X534076Y308349D01*
X533227Y307859D01*
X532535Y307166D01*
X532045Y306318D01*
X531791Y305372D01*
Y304392D01*
X532045Y303446D01*
X532535Y302597D01*
X533227Y301905D01*
X534076Y301415D01*
X535022Y301161D01*
X536002D01*
X536948Y301415D01*
X537796Y301905D01*
X538489Y302597D01*
X538979Y303446D01*
X539232Y304392D01*
Y305372D01*
X538979Y306318D01*
X538651Y306886D01*
X543875Y312109D01*
X543875Y312109D01*
X544049Y312370D01*
X544110Y312677D01*
X544110Y312677D01*
Y339370D01*
X544110Y339370D01*
X544049Y339677D01*
X543875Y339938D01*
X543875Y339938D01*
X534245Y349568D01*
X533984Y349742D01*
X533677Y349803D01*
X477449D01*
X477318Y350292D01*
X476878Y351055D01*
X476255Y351678D01*
X475492Y352118D01*
X474641Y352346D01*
D02*
G37*
G36*
X318307Y309393D02*
X316142D01*
Y307776D01*
X320397D01*
X320347Y308030D01*
X319868Y308746D01*
X319152Y309225D01*
X318307Y309393D01*
D02*
G37*
G36*
X314961D02*
X312795D01*
X311950Y309225D01*
X311234Y308746D01*
X310755Y308030D01*
X310705Y307776D01*
X314961D01*
Y309393D01*
D02*
G37*
G36*
X320397Y306594D02*
X316142D01*
Y304977D01*
X318307D01*
X319152Y305145D01*
X319868Y305624D01*
X320347Y306340D01*
X320397Y306594D01*
D02*
G37*
G36*
X314961D02*
X310705D01*
X310755Y306340D01*
X311234Y305624D01*
X311950Y305145D01*
X312795Y304977D01*
X314961D01*
Y306594D01*
D02*
G37*
G36*
X385039Y307610D02*
X378740D01*
X378126Y307487D01*
X377605Y307139D01*
X377257Y306618D01*
X377134Y306004D01*
X377257Y305389D01*
X377605Y304869D01*
X378126Y304521D01*
X378740Y304398D01*
X385039D01*
X385654Y304521D01*
X386175Y304869D01*
X386523Y305389D01*
X386645Y306004D01*
X386523Y306618D01*
X386175Y307139D01*
X385654Y307487D01*
X385039Y307610D01*
D02*
G37*
G36*
X331791Y305020D02*
X324902D01*
Y303189D01*
X319531D01*
X319442Y303320D01*
X318921Y303668D01*
X318307Y303791D01*
X312795D01*
X312181Y303668D01*
X311660Y303320D01*
X311312Y302800D01*
X311190Y302185D01*
X311312Y301571D01*
X311660Y301050D01*
X312181Y300702D01*
X312795Y300579D01*
X318307D01*
X318921Y300702D01*
X319442Y301050D01*
X319530Y301182D01*
X324902D01*
Y298917D01*
X331791D01*
Y301182D01*
X336532D01*
X336715Y300908D01*
X337301Y300516D01*
X337992Y300379D01*
X345079D01*
X345770Y300516D01*
X346356Y300908D01*
X346445Y301040D01*
X349373D01*
X349613Y300800D01*
X350120Y300590D01*
X350668D01*
X351174Y300800D01*
X351562Y301188D01*
X351772Y301694D01*
Y302243D01*
X351562Y302749D01*
X351174Y303137D01*
X350668Y303346D01*
X350120D01*
X349613Y303137D01*
X349524Y303047D01*
X346633D01*
X346356Y303462D01*
X345770Y303854D01*
X345079Y303991D01*
X337992D01*
X337301Y303854D01*
X336715Y303462D01*
X336532Y303189D01*
X331791D01*
Y305020D01*
D02*
G37*
G36*
X477547Y362347D02*
X470854D01*
Y356789D01*
X464474Y350409D01*
X442211D01*
X441745Y350492D01*
X441745Y350909D01*
Y352347D01*
X463027D01*
X463393Y351981D01*
X463899Y351772D01*
X464447D01*
X464954Y351981D01*
X465341Y352369D01*
X465551Y352875D01*
Y353424D01*
X465341Y353930D01*
X464954Y354318D01*
X464447Y354528D01*
X463899D01*
X463393Y354318D01*
X463027Y353952D01*
X441745D01*
Y356594D01*
X434855D01*
Y354346D01*
X402579D01*
X402579Y354346D01*
X402271Y354285D01*
X402011Y354111D01*
X402011Y354111D01*
X385432Y337531D01*
X385039Y337610D01*
X378740D01*
X378126Y337487D01*
X377605Y337139D01*
X377596Y337127D01*
X373726D01*
X373418Y337066D01*
X373158Y336892D01*
X373158Y336892D01*
X369269Y333003D01*
X365954D01*
X365647Y333462D01*
X365061Y333854D01*
X364370Y333991D01*
X357283D01*
X356592Y333854D01*
X356006Y333462D01*
X355615Y332876D01*
X355477Y332185D01*
X355615Y331494D01*
X356006Y330908D01*
X356592Y330516D01*
X357283Y330379D01*
X364370D01*
X365061Y330516D01*
X365647Y330908D01*
X365974Y331397D01*
X369602D01*
X369909Y331458D01*
X370169Y331632D01*
X374058Y335521D01*
X377230D01*
X377257Y335389D01*
X377605Y334869D01*
X378126Y334521D01*
X378740Y334398D01*
X385039D01*
X385654Y334521D01*
X386175Y334869D01*
X386523Y335389D01*
X386645Y336004D01*
X386567Y336396D01*
X402911Y352741D01*
X434855D01*
X434855Y350492D01*
X434390Y350409D01*
X432750D01*
X432750Y350409D01*
X432442Y350348D01*
X432182Y350174D01*
X430728Y348721D01*
X427336D01*
Y346177D01*
X399705D01*
X399705Y346177D01*
X399397Y346116D01*
X399137Y345942D01*
X385671Y332476D01*
X385654Y332487D01*
X385039Y332610D01*
X378740D01*
X378126Y332487D01*
X377605Y332139D01*
X377584Y332108D01*
X374219D01*
X373911Y332047D01*
X373651Y331873D01*
X373651Y331873D01*
X369781Y328003D01*
X365954D01*
X365647Y328462D01*
X365061Y328854D01*
X364370Y328991D01*
X357283D01*
X356592Y328854D01*
X356006Y328462D01*
X355615Y327876D01*
X355477Y327185D01*
X355615Y326494D01*
X356006Y325908D01*
X356592Y325516D01*
X357283Y325379D01*
X364370D01*
X365061Y325516D01*
X365647Y325908D01*
X365974Y326397D01*
X370113D01*
X370421Y326458D01*
X370681Y326632D01*
X374551Y330502D01*
X377234D01*
X377257Y330389D01*
X377605Y329869D01*
X378126Y329521D01*
X378740Y329398D01*
X385039D01*
X385654Y329521D01*
X386175Y329869D01*
X386523Y330389D01*
X386645Y331004D01*
X386616Y331150D01*
X400037Y344571D01*
X428320D01*
X428398Y344587D01*
X431864D01*
Y347585D01*
X433082Y348803D01*
X434390D01*
X434855Y348720D01*
X434855Y348304D01*
Y343754D01*
X433440Y342338D01*
X431864D01*
Y343602D01*
X427336D01*
Y339469D01*
X431864D01*
Y340733D01*
X433773D01*
X434080Y340794D01*
X434340Y340968D01*
X435991Y342618D01*
X441745D01*
X441745Y348720D01*
X442211Y348803D01*
X464806D01*
X465113Y348865D01*
X465374Y349039D01*
X471989Y355654D01*
X477547D01*
Y358197D01*
X527282D01*
X544797Y340682D01*
Y308022D01*
X536278Y299503D01*
X528051D01*
Y299919D01*
X527798Y300865D01*
X527308Y301714D01*
X526615Y302406D01*
X525767Y302896D01*
X524821Y303150D01*
X523841D01*
X522895Y302896D01*
X522046Y302406D01*
X521354Y301714D01*
X520864Y300865D01*
X520610Y299919D01*
Y298939D01*
X520864Y297993D01*
X521354Y297145D01*
X522046Y296452D01*
X522895Y295962D01*
X523841Y295709D01*
X524821D01*
X525767Y295962D01*
X526615Y296452D01*
X527308Y297145D01*
X527742Y297897D01*
X536611D01*
X536918Y297958D01*
X537179Y298132D01*
X546168Y307121D01*
X546168Y307121D01*
X546342Y307382D01*
X546403Y307689D01*
X546403Y307689D01*
Y341014D01*
X546342Y341321D01*
X546168Y341582D01*
X546168Y341582D01*
X528182Y359568D01*
X527921Y359742D01*
X527614Y359803D01*
X477547D01*
Y362347D01*
D02*
G37*
G36*
X385039Y302609D02*
X378740D01*
X378126Y302487D01*
X377605Y302139D01*
X377257Y301618D01*
X377134Y301004D01*
X377257Y300389D01*
X377605Y299868D01*
X378126Y299520D01*
X378740Y299398D01*
X385039D01*
X385654Y299520D01*
X386175Y299868D01*
X386523Y300389D01*
X386645Y301004D01*
X386523Y301618D01*
X386175Y302139D01*
X385654Y302487D01*
X385039Y302609D01*
D02*
G37*
G36*
X332382Y297736D02*
X328937D01*
Y294685D01*
X332382D01*
Y297736D01*
D02*
G37*
G36*
X327756D02*
X324311D01*
Y294685D01*
X327756D01*
Y297736D01*
D02*
G37*
G36*
X332382Y293504D02*
X328937D01*
Y290453D01*
X332382D01*
Y293504D01*
D02*
G37*
G36*
X327756D02*
X324311D01*
Y290453D01*
X327756D01*
Y293504D01*
D02*
G37*
G36*
X474790Y292918D02*
Y289591D01*
X478118D01*
X477869Y290520D01*
X477350Y291417D01*
X476617Y292150D01*
X475720Y292669D01*
X474790Y292918D01*
D02*
G37*
G36*
X473609Y292918D02*
X472680Y292669D01*
X471783Y292150D01*
X471050Y291417D01*
X470531Y290520D01*
X470282Y289591D01*
X473609D01*
Y292918D01*
D02*
G37*
G36*
Y288409D02*
X470282D01*
X470531Y287480D01*
X471050Y286583D01*
X471783Y285850D01*
X472680Y285331D01*
X473609Y285082D01*
Y288409D01*
D02*
G37*
G36*
X478118D02*
X474790D01*
Y285082D01*
X475720Y285331D01*
X476617Y285850D01*
X477350Y286583D01*
X477869Y287480D01*
X478118Y288409D01*
D02*
G37*
%LPD*%
D10*
X37777Y195669D02*
X38800Y195516D01*
X39823Y195669D01*
X33071Y137902D02*
Y142829D01*
X29000Y146900D02*
X33071Y142829D01*
Y137902D02*
X122287Y48686D01*
X276037D01*
X28800Y169000D02*
X144114Y53686D01*
X276037D01*
X58268Y173622D02*
X173204Y58686D01*
X276037D01*
X58226Y185785D02*
X277737D01*
X46776Y174335D02*
X58226Y185785D01*
X24135Y174335D02*
X46776D01*
X18800Y169000D02*
X24135Y174335D01*
X250903Y195785D02*
X277737D01*
X248031Y192913D02*
X250903Y195785D01*
X47786Y192913D02*
X248031D01*
X30388Y175516D02*
X47786Y192913D01*
X26887Y175516D02*
X30388D01*
X23403Y179000D02*
X26887Y175516D01*
X18800Y179000D02*
X23403D01*
X39823Y195669D02*
X247638D01*
X28800Y189000D02*
X35469Y195669D01*
X37777D01*
X247638D02*
X249722Y197754D01*
X281308D01*
X280493Y190785D02*
X284055Y194347D01*
X283594Y197638D02*
X284055Y197177D01*
X281424Y197638D02*
X283594D01*
X281308Y197754D02*
X281424Y197638D01*
X284055Y194347D02*
Y197177D01*
X277737Y190785D02*
X280493D01*
X265748Y317323D02*
X265886Y317185D01*
X278937D01*
X147057Y312185D02*
X278937D01*
X33873Y199000D02*
X147057Y312185D01*
X28800Y199000D02*
X33873D01*
X147057Y322185D02*
X278937D01*
X28800Y209000D02*
X33873D01*
X147057Y322185D01*
X23774Y142126D02*
X29000Y136900D01*
X14961Y142126D02*
X23774D01*
X-16106Y173193D02*
X14961Y142126D01*
X24719Y151181D02*
X29000Y146900D01*
X-10988Y179492D02*
X17323Y151181D01*
X24719D01*
X14567Y112205D02*
X23695D01*
X29000Y106900D01*
X-27524Y154295D02*
X14567Y112205D01*
X-48976Y154295D02*
X-27524D01*
X23459Y122441D02*
X29000Y116900D01*
X14567Y122441D02*
X23459D01*
X-48976Y160594D02*
X-23586D01*
X14567Y122441D01*
X14173Y132283D02*
X23617D01*
X29000Y126900D01*
X-20437Y166894D02*
X14173Y132283D01*
X-48976Y166894D02*
X-20437D01*
X-48976Y173193D02*
X-16106D01*
X-48976Y179492D02*
X-10988D01*
X23942Y183858D02*
X28800Y179000D01*
X16929Y183858D02*
X23942D01*
X2398Y198390D02*
X16929Y183858D01*
X-48976Y198390D02*
X2398D01*
X24099Y193701D02*
X28800Y189000D01*
X16142Y193701D02*
X24099D01*
X-48976Y204689D02*
X5153D01*
X16142Y193701D01*
X16535Y203937D02*
X23863D01*
X28800Y199000D01*
X9484Y210988D02*
X16535Y203937D01*
X-48976Y210988D02*
X9484D01*
X16929Y213779D02*
X24020D01*
X28800Y209000D01*
X11811Y217323D02*
X13386D01*
X16929Y213779D01*
X-48976Y217287D02*
X11776D01*
X11811Y217323D01*
X-48976Y223587D02*
X24213D01*
X28800Y219000D01*
X12957Y229886D02*
X15555Y232484D01*
X25316D02*
X28800Y229000D01*
X15555Y232484D02*
X25316D01*
X-48976Y229886D02*
X12957D01*
X17717Y234252D02*
X24052D01*
X28800Y239000D01*
X7480Y236221D02*
X15748D01*
X17717Y234252D01*
X7445Y236185D02*
X7480Y236221D01*
X-48976Y236185D02*
X7445D01*
X-38547Y255083D02*
X-23622Y240158D01*
X3476D01*
X4331Y241012D01*
X27553Y259000D02*
X28800D01*
X22550Y254046D02*
X26197Y257693D01*
X26247D01*
X11622Y254046D02*
X22550D01*
X26247Y257693D02*
X27553Y259000D01*
X3965Y238976D02*
X5512Y240523D01*
X-3543Y238976D02*
X3965D01*
X5512Y247936D02*
X11622Y254046D01*
X-3611Y238909D02*
X-3543Y238976D01*
X-24044Y238909D02*
X-3611D01*
X5512Y240523D02*
Y247936D01*
X14906Y259000D02*
X18800D01*
X4331Y241012D02*
Y248425D01*
X14906Y259000D01*
X12205Y244488D02*
X24288D01*
X5444Y237728D02*
X12205Y244488D01*
X24288D02*
X28800Y249000D01*
X-24600Y237795D02*
X-24533Y237728D01*
X5444D01*
X-25197Y237795D02*
X-24600D01*
X-29886Y242484D02*
X-25197Y237795D01*
X-48976Y242484D02*
X-29886D01*
X-24111Y238976D02*
X-24044Y238909D01*
X-24409Y238976D02*
X-24111D01*
X-48976Y248783D02*
X-34216D01*
X-24409Y238976D01*
X-48976Y255083D02*
X-38547D01*
X-40908Y118467D02*
X-36061D01*
X-35827Y118701D01*
X-28346Y113583D02*
X-28346Y113583D01*
X-35827Y113583D02*
X-28346D01*
X-36059Y113350D02*
X-35827Y113583D01*
X-48976Y113350D02*
X-36059D01*
X523406Y46850D02*
X534252D01*
X522756Y47500D02*
X523406Y46850D01*
X534252D02*
X542700Y55298D01*
Y91946D01*
X533937Y63858D02*
X538583Y68504D01*
X531102Y80709D02*
X538121D01*
X538583Y68504D02*
Y80247D01*
X538121Y80709D02*
X538583Y80247D01*
X527480Y84331D02*
X531102Y80709D01*
X513858Y84331D02*
X527480D01*
X505028Y75501D02*
X513858Y84331D01*
X471300Y75501D02*
X505028D01*
X515354Y74410D02*
X533583D01*
X533937Y74764D01*
X506446Y65501D02*
X515354Y74410D01*
X471300Y65501D02*
X506446D01*
X509350Y55905D02*
X522756Y69311D01*
X471300Y55501D02*
X471705Y55905D01*
X509350D01*
X509851Y45501D02*
X522756Y58406D01*
X471300Y45501D02*
X509851D01*
X540551Y59567D02*
Y91339D01*
X533937Y52953D02*
X540551Y59567D01*
X530315Y101575D02*
X540551Y91339D01*
X487402Y101575D02*
X530315D01*
X486614Y100787D02*
X487402Y101575D01*
X486587Y100787D02*
X486614D01*
X471300Y85501D02*
X486587Y100787D01*
X479343Y103543D02*
X531102D01*
X542700Y91946D01*
X471300Y95501D02*
X479343Y103543D01*
X461906Y86107D02*
X471300Y95501D01*
X426897Y49097D02*
X430049Y52249D01*
X468048D01*
X426700Y43979D02*
X432955D01*
X436614Y47638D01*
X437008D01*
X438264Y41020D02*
X466819D01*
X437008Y39764D02*
X438264Y41020D01*
X466819D02*
X471300Y45501D01*
X413054Y41020D02*
X435752D01*
X437008Y39764D01*
X409305Y44769D02*
X413054Y41020D01*
X386470Y44769D02*
X409305D01*
X383820Y47419D02*
X386470Y44769D01*
X379075Y47419D02*
X383820D01*
X427569Y64528D02*
X429290D01*
X434136Y69374D01*
X427500Y64459D02*
X427569Y64528D01*
X436107Y60123D02*
X437484Y61500D01*
X467299D01*
X471300Y65501D01*
X390013Y60123D02*
X436107D01*
X387395Y57505D02*
X390013Y60123D01*
X378990Y57505D02*
X387395D01*
X426897Y83154D02*
X429849Y86107D01*
X461906D01*
X437822Y90699D02*
X438870Y89650D01*
X461273D01*
X437155Y90699D02*
X437822D01*
X436501Y90044D02*
X437155Y90699D01*
X399679Y90044D02*
X436501D01*
X382459Y72825D02*
X399679Y90044D01*
X426700Y78036D02*
X433132D01*
X437674Y82579D01*
X438068D01*
X426700Y69577D02*
X426897D01*
X468048Y52249D02*
X471300Y55501D01*
X426700Y49097D02*
X426897D01*
X469915Y75501D02*
X471300D01*
X467822Y73408D02*
X469915Y75501D01*
X430727Y73408D02*
X467822D01*
X426897Y69577D02*
X430727Y73408D01*
X426700Y83154D02*
X426897D01*
X378990Y47505D02*
X379075Y47419D01*
X425910Y49887D02*
X426700Y49097D01*
X379124Y52806D02*
X379143Y52825D01*
X378990Y52505D02*
X382139D01*
X375094Y52825D02*
X375113Y52806D01*
X382139Y52505D02*
X384757Y49887D01*
X425910D01*
X422327Y65401D02*
X426503Y69577D01*
X426700D01*
X390567Y65401D02*
X422327D01*
X387671Y62505D02*
X390567Y65401D01*
X378990Y62505D02*
X387671D01*
X425420Y81875D02*
X426700Y83154D01*
X396805Y81875D02*
X425420D01*
X378990Y67505D02*
X382435D01*
X396805Y81875D01*
X375993Y47825D02*
X379143D01*
X366869Y38701D02*
X375993Y47825D01*
X357985Y38701D02*
X366869D01*
X373660Y52825D02*
X375094D01*
X375113Y52806D02*
X379124D01*
X364536Y43701D02*
X373660Y52825D01*
X357985Y43701D02*
X364536D01*
X354152Y48701D02*
X357985D01*
X351852Y46401D02*
X354152Y48701D01*
X333550Y46401D02*
X351852D01*
X313000Y48701D02*
X331250D01*
X333550Y46401D01*
X357985Y58701D02*
X357985Y58701D01*
X348281Y58701D02*
X357985D01*
X345858Y56277D02*
X348281Y58701D01*
X313000D02*
X324401D01*
X326825Y56277D02*
X345858D01*
X324401Y58701D02*
X326825Y56277D01*
X371319Y67806D02*
X379124D01*
X367213Y63701D02*
X371319Y67806D01*
X357985Y63701D02*
X367213D01*
X370826Y72825D02*
X382459D01*
X366702Y68701D02*
X370826Y72825D01*
X357985Y68701D02*
X366702D01*
X403475Y67605D02*
X403575Y67704D01*
X397987Y67605D02*
X403475D01*
X403389Y62495D02*
X403399Y62485D01*
X397897Y62495D02*
X403389D01*
X403783Y47515D02*
X403793Y47524D01*
X373993Y57825D02*
X379143D01*
X353463Y46063D02*
X362231D01*
X373993Y57825D01*
X351101Y43701D02*
X353463Y46063D01*
X338693Y43701D02*
X351101D01*
X373030Y62825D02*
X374591D01*
X374610Y62806D02*
X379124D01*
X374591Y62825D02*
X374610Y62806D01*
X366268Y56063D02*
X373030Y62825D01*
X349599Y56063D02*
X366268D01*
X342237Y48701D02*
X349599Y56063D01*
X338693Y48701D02*
X342237D01*
X338693Y53701D02*
X338693Y53701D01*
X313000Y53701D02*
X338693D01*
X431572Y223228D02*
X463628D01*
X473000Y232600D01*
X428597Y220253D02*
X431572Y223228D01*
X438998Y226750D02*
X462973D01*
X438583Y227165D02*
X438998Y226750D01*
X401379Y227143D02*
X438561D01*
X438583Y227165D01*
X384159Y209924D02*
X401379Y227143D01*
X428400Y215135D02*
X434033D01*
X438189Y219291D01*
X438583D01*
X437773Y197222D02*
X439150Y198599D01*
X391713Y197222D02*
X437773D01*
X389095Y194604D02*
X391713Y197222D01*
X380690Y194604D02*
X389095D01*
X439150Y198599D02*
X468999D01*
X473000Y202600D01*
X414753Y178119D02*
X438416D01*
X438976Y177559D01*
X411005Y181868D02*
X414753Y178119D01*
X388170Y181868D02*
X411005D01*
X385520Y184518D02*
X388170Y181868D01*
X380775Y184518D02*
X385520D01*
X439536Y178119D02*
X468519D01*
X438976Y177559D02*
X439536Y178119D01*
X468519D02*
X473000Y182600D01*
X428400Y181078D02*
X434228D01*
X438583Y185433D01*
X438976D01*
X428400Y206676D02*
X428597D01*
X433769Y204406D02*
X435836Y206473D01*
X432245Y204406D02*
X433769D01*
X429397Y201558D02*
X432245Y204406D01*
X429200Y201558D02*
X429397D01*
X534312Y178482D02*
X534312D01*
X522463Y183267D02*
X523131Y183935D01*
X473667Y183267D02*
X522463D01*
X473000Y182600D02*
X473667Y183267D01*
X519410Y192600D02*
X521650Y194840D01*
X523131D01*
X473000Y192600D02*
X519410D01*
X431839Y189438D02*
X452253D01*
X469748Y189348D02*
X473000Y192600D01*
X452253Y189438D02*
X452343Y189348D01*
X469748D01*
X428597Y186196D02*
X431839Y189438D01*
X428400Y186196D02*
X428597D01*
X502401Y202600D02*
X504708Y200293D01*
X473000Y202600D02*
X502401D01*
X504708Y200293D02*
X534312D01*
X473979Y211621D02*
X475795D01*
X476020Y211395D02*
X524784D01*
X475795Y211621D02*
X476020Y211395D01*
X471615Y212600D02*
X473000D01*
X469522Y210507D02*
X471615Y212600D01*
X473000D02*
X473979Y211621D01*
X432428Y210507D02*
X469522D01*
X538958Y194072D02*
Y203128D01*
X536595Y205490D02*
X538958Y203128D01*
X534312Y189427D02*
X538958Y194072D01*
X524784Y211395D02*
X530690Y205490D01*
X428597Y206676D02*
X432428Y210507D01*
X534312Y189387D02*
Y189427D01*
X530690Y205490D02*
X536595D01*
X473000Y222600D02*
X532477D01*
X542107Y186277D02*
Y212970D01*
X532477Y222600D02*
X542107Y212970D01*
X534312Y178482D02*
X542107Y186277D01*
X473000Y232600D02*
X526414D01*
X544400Y214614D01*
Y181289D02*
Y214614D01*
X535411Y172300D02*
X544400Y181289D01*
X523860Y172300D02*
X535411D01*
X523131Y173029D02*
X523860Y172300D01*
X428400Y220253D02*
X428597D01*
X380690Y184604D02*
X380775Y184518D01*
X427610Y186986D02*
X428400Y186196D01*
X380824Y189905D02*
X380843Y189924D01*
X380690Y189604D02*
X383839D01*
X376794Y189924D02*
X376813Y189905D01*
X383839Y189604D02*
X386457Y186986D01*
X427610D01*
X424027Y202500D02*
X428203Y206676D01*
X428400D01*
X392267Y202500D02*
X424027D01*
X389371Y199604D02*
X392267Y202500D01*
X380690Y199604D02*
X389371D01*
X427120Y218974D02*
X428400Y220253D01*
X398505Y218974D02*
X427120D01*
X380690Y204604D02*
X384135D01*
X398505Y218974D01*
X377693Y184924D02*
X380843D01*
X368569Y175800D02*
X377693Y184924D01*
X359685Y175800D02*
X368569D01*
X375360Y189924D02*
X376794D01*
X376813Y189905D02*
X380824D01*
X366236Y180800D02*
X375360Y189924D01*
X359685Y180800D02*
X366236D01*
X355852Y185800D02*
X359685D01*
X353552Y183500D02*
X355852Y185800D01*
X335250Y183500D02*
X353552D01*
X314700Y185800D02*
X332950D01*
X335250Y183500D01*
X359685Y195800D02*
X359685Y195800D01*
X349981Y195800D02*
X359685D01*
X347558Y193377D02*
X349981Y195800D01*
X314700D02*
X326101D01*
X328525Y193377D02*
X347558D01*
X326101Y195800D02*
X328525Y193377D01*
X373019Y204905D02*
X380824D01*
X368913Y200800D02*
X373019Y204905D01*
X359685Y200800D02*
X368913D01*
X372526Y209924D02*
X384159D01*
X368402Y205800D02*
X372526Y209924D01*
X359685Y205800D02*
X368402D01*
X405175Y204704D02*
X405274Y204803D01*
X399687Y204704D02*
X405175D01*
X405089Y199594D02*
X405099Y199584D01*
X399597Y199594D02*
X405089D01*
X405483Y184614D02*
X405493Y184624D01*
X375693Y194924D02*
X380843D01*
X355163Y183162D02*
X363931D01*
X375693Y194924D01*
X352801Y180800D02*
X355163Y183162D01*
X340393Y180800D02*
X352801D01*
X374730Y199924D02*
X376291D01*
X376310Y199905D02*
X380824D01*
X376291Y199924D02*
X376310Y199905D01*
X367969Y193162D02*
X374730Y199924D01*
X351299Y193162D02*
X367969D01*
X343937Y185800D02*
X351299Y193162D01*
X340393Y185800D02*
X343937D01*
X340393Y190800D02*
X340393Y190800D01*
X314700Y190800D02*
X340393D01*
X315900Y322200D02*
X327302D01*
X351181D02*
X360885D01*
X329725Y319777D02*
X348758D01*
X327302Y322200D02*
X329725Y319777D01*
X348758D02*
X351181Y322200D01*
X438300Y353543D02*
X438694Y353150D01*
X464173D01*
X402579Y353543D02*
X438300D01*
X385359Y336324D02*
X402579Y353543D01*
X399705Y345374D02*
X428320D01*
X385335Y331004D02*
X399705Y345374D01*
X381890Y331004D02*
X385335D01*
X432750Y349606D02*
X464806D01*
X429797Y346654D02*
X432750Y349606D01*
X464806D02*
X474200Y359000D01*
X400887Y331104D02*
X406375D01*
X406474Y331204D01*
X437906Y345669D02*
X438300D01*
X429600Y341535D02*
X433773D01*
X437906Y345669D01*
X374219Y331305D02*
X382024D01*
X428320Y345374D02*
X429600Y346654D01*
X373726Y336324D02*
X385359D01*
X429600Y346654D02*
X429797D01*
X540158Y320472D02*
Y329528D01*
X531890Y331890D02*
X537795D01*
X376893Y321324D02*
X382043D01*
X377491Y326324D02*
X377510Y326305D01*
X537795Y331890D02*
X540158Y329528D01*
X365131Y309562D02*
X376893Y321324D01*
X375930Y326324D02*
X377491D01*
X535512Y315787D02*
Y315827D01*
X525984Y337795D02*
X531890Y331890D01*
X505908Y326693D02*
X535512D01*
X377510Y326305D02*
X382024D01*
X535512Y315827D02*
X540158Y320472D01*
X477220Y337795D02*
X525984D01*
X476995Y338021D02*
X477220Y337795D01*
X474200Y339000D02*
X475179Y338021D01*
X476995D01*
X543307Y312677D02*
Y339370D01*
X474200Y349000D02*
X533677D01*
X543307Y339370D01*
X535512Y304882D02*
X543307Y312677D01*
X400797Y325994D02*
X406289D01*
X406299Y325984D01*
X406683Y311014D02*
X406693Y311024D01*
X434969Y330806D02*
X437036Y332873D01*
X433445Y330806D02*
X434969D01*
X430597Y327958D02*
X433445Y330806D01*
X430400Y327958D02*
X430597D01*
X425227Y328900D02*
X429403Y333076D01*
X393467Y328900D02*
X425227D01*
X429403Y333076D02*
X429600D01*
X433628Y336907D02*
X470722D01*
X429600Y333076D02*
X429797D01*
X433628Y336907D01*
X381890Y326004D02*
X390571D01*
X393467Y328900D01*
X381890Y321004D02*
X390295D01*
X392913Y323622D02*
X436812D01*
X390295Y321004D02*
X392913Y323622D01*
X438189Y324999D02*
X470199D01*
X436812Y323622D02*
X438189Y324999D01*
X470722Y336907D02*
X472815Y339000D01*
X474200D01*
X470199Y324999D02*
X474200Y329000D01*
X386719Y310918D02*
X389370Y308268D01*
X381890Y311004D02*
X381975Y310918D01*
X386719D01*
X378893Y311324D02*
X382043D01*
X389370Y308268D02*
X412205D01*
X415953Y304519D01*
X438300D01*
X429600Y307478D02*
X432991D01*
X437906Y312393D01*
X378013Y316305D02*
X382024D01*
X381890Y316004D02*
X385039D01*
X387657Y313386D01*
X428810D02*
X429600Y312596D01*
X387657Y313386D02*
X428810D01*
X437906Y312393D02*
X438300D01*
X429797Y312596D02*
X433039Y315838D01*
X453453D01*
X453543Y315748D01*
X429600Y312596D02*
X429797D01*
X470948Y315748D02*
X474200Y319000D01*
X453543Y315748D02*
X470948D01*
X469719Y304519D02*
X474200Y309000D01*
X438300Y304519D02*
X469719D01*
X525060Y298700D02*
X536611D01*
X545600Y307689D02*
Y341014D01*
X536611Y298700D02*
X545600Y307689D01*
X535512Y304882D02*
X535512D01*
X527614Y359000D02*
X545600Y341014D01*
X474200Y359000D02*
X527614D01*
X367436Y307200D02*
X376560Y316324D01*
X377994D01*
X378013Y316305D01*
X382024D02*
X382043Y316324D01*
X360885Y307200D02*
X367436D01*
X360885Y327200D02*
X370113D01*
X374219Y331305D01*
X369602Y332200D02*
X373726Y336324D01*
X360885Y332200D02*
X369602D01*
X369168Y319562D02*
X375930Y326324D01*
X352499Y319562D02*
X369168D01*
X356363Y309562D02*
X365131D01*
X354001Y307200D02*
X356363Y309562D01*
X341593Y307200D02*
X354001D01*
X354752Y309900D02*
X357052Y312200D01*
X336450Y309900D02*
X354752D01*
X357052Y312200D02*
X360885D01*
X345137D02*
X352499Y319562D01*
X341593Y312200D02*
X345137D01*
X334150Y312200D02*
X336450Y309900D01*
X360885Y322200D02*
X360885Y322200D01*
X315900Y312200D02*
X334150D01*
X360885Y302200D02*
X369769D01*
X378893Y311324D01*
X341593Y317200D02*
X341593Y317200D01*
X315900Y317200D02*
X341593D01*
X523663Y309667D02*
X524331Y310335D01*
Y299429D02*
X525060Y298700D01*
X522850Y321240D02*
X524331D01*
X474867Y309667D02*
X523663D01*
X520610Y319000D02*
X522850Y321240D01*
X474200Y319000D02*
X520610D01*
X474200Y309000D02*
X474867Y309667D01*
X474200Y329000D02*
X503601D01*
X505908Y326693D01*
D16*
X327212Y32361D02*
D03*
Y40235D02*
D03*
X353150Y101575D02*
D03*
Y109449D02*
D03*
X327953Y168110D02*
D03*
Y175984D02*
D03*
X354724Y238976D02*
D03*
Y246850D02*
D03*
X356693Y373228D02*
D03*
Y365354D02*
D03*
X328346Y301969D02*
D03*
Y294094D02*
D03*
X438583Y227165D02*
D03*
Y219291D02*
D03*
X438976Y198425D02*
D03*
Y206299D02*
D03*
Y177559D02*
D03*
Y185433D02*
D03*
X263951Y168673D02*
D03*
Y176547D02*
D03*
X264961Y73622D02*
D03*
Y65748D02*
D03*
X437008Y39764D02*
D03*
Y47638D02*
D03*
X437402Y61417D02*
D03*
Y69291D02*
D03*
X438068Y90453D02*
D03*
Y82579D02*
D03*
X438300Y345669D02*
D03*
Y353543D02*
D03*
X438300Y332873D02*
D03*
Y324999D02*
D03*
Y312393D02*
D03*
Y304519D02*
D03*
X263386Y293307D02*
D03*
Y301181D02*
D03*
D17*
X429600Y327958D02*
D03*
Y333076D02*
D03*
Y341535D02*
D03*
Y346654D02*
D03*
Y307478D02*
D03*
Y312596D02*
D03*
X428400Y220253D02*
D03*
Y215135D02*
D03*
Y206676D02*
D03*
Y201558D02*
D03*
Y186196D02*
D03*
Y181078D02*
D03*
X426700Y49097D02*
D03*
Y43979D02*
D03*
Y69577D02*
D03*
Y64459D02*
D03*
Y83154D02*
D03*
Y78036D02*
D03*
X-28346Y118701D02*
D03*
Y113583D02*
D03*
X-35827Y118701D02*
D03*
Y113583D02*
D03*
D18*
X341535Y337185D02*
D03*
Y332185D02*
D03*
Y327185D02*
D03*
Y322185D02*
D03*
Y317185D02*
D03*
Y312185D02*
D03*
Y307185D02*
D03*
Y302185D02*
D03*
X360827Y337185D02*
D03*
Y332185D02*
D03*
Y327185D02*
D03*
Y322185D02*
D03*
Y317185D02*
D03*
Y312185D02*
D03*
Y307185D02*
D03*
Y302185D02*
D03*
X359627Y175785D02*
D03*
Y180785D02*
D03*
Y185785D02*
D03*
Y190785D02*
D03*
Y195785D02*
D03*
Y200785D02*
D03*
Y205785D02*
D03*
Y210785D02*
D03*
X340335Y175785D02*
D03*
Y180785D02*
D03*
Y185785D02*
D03*
Y190785D02*
D03*
Y195785D02*
D03*
Y200785D02*
D03*
Y205785D02*
D03*
Y210785D02*
D03*
X357927Y38686D02*
D03*
Y43686D02*
D03*
Y48686D02*
D03*
Y53686D02*
D03*
Y58686D02*
D03*
Y63686D02*
D03*
Y68686D02*
D03*
Y73686D02*
D03*
X338635Y38686D02*
D03*
Y43686D02*
D03*
Y48686D02*
D03*
Y53686D02*
D03*
Y58686D02*
D03*
Y63686D02*
D03*
Y68686D02*
D03*
Y73686D02*
D03*
D19*
X381890Y336004D02*
D03*
Y331004D02*
D03*
Y326004D02*
D03*
Y321004D02*
D03*
Y316004D02*
D03*
Y311004D02*
D03*
Y306004D02*
D03*
Y301004D02*
D03*
X400787Y336004D02*
D03*
Y331004D02*
D03*
Y326004D02*
D03*
Y321004D02*
D03*
Y316004D02*
D03*
Y311004D02*
D03*
Y306004D02*
D03*
Y301004D02*
D03*
X399587Y174604D02*
D03*
Y179604D02*
D03*
Y184604D02*
D03*
Y189604D02*
D03*
Y194604D02*
D03*
Y199604D02*
D03*
Y204604D02*
D03*
Y209604D02*
D03*
X380690Y174604D02*
D03*
Y179604D02*
D03*
Y184604D02*
D03*
Y189604D02*
D03*
Y194604D02*
D03*
Y199604D02*
D03*
Y204604D02*
D03*
Y209604D02*
D03*
X397887Y37505D02*
D03*
Y42505D02*
D03*
Y47505D02*
D03*
Y52505D02*
D03*
Y57505D02*
D03*
Y62505D02*
D03*
Y67505D02*
D03*
Y72505D02*
D03*
X378990Y37505D02*
D03*
Y42505D02*
D03*
Y47505D02*
D03*
Y52505D02*
D03*
Y57505D02*
D03*
Y62505D02*
D03*
Y67505D02*
D03*
Y72505D02*
D03*
D20*
X277737Y210785D02*
D03*
Y205785D02*
D03*
Y200785D02*
D03*
Y195785D02*
D03*
Y190785D02*
D03*
Y185785D02*
D03*
Y180785D02*
D03*
Y175785D02*
D03*
X314351Y210785D02*
D03*
Y205785D02*
D03*
Y200785D02*
D03*
Y195785D02*
D03*
Y190785D02*
D03*
Y185785D02*
D03*
Y180785D02*
D03*
Y175785D02*
D03*
X276037Y73686D02*
D03*
Y68686D02*
D03*
Y63686D02*
D03*
Y58686D02*
D03*
Y53686D02*
D03*
Y48686D02*
D03*
Y43686D02*
D03*
Y38686D02*
D03*
X312651Y73686D02*
D03*
Y68686D02*
D03*
Y63686D02*
D03*
Y58686D02*
D03*
Y53686D02*
D03*
Y48686D02*
D03*
Y43686D02*
D03*
Y38686D02*
D03*
X278937Y337185D02*
D03*
Y332185D02*
D03*
Y327185D02*
D03*
Y322185D02*
D03*
Y317185D02*
D03*
Y312185D02*
D03*
Y307185D02*
D03*
Y302185D02*
D03*
X315551Y337185D02*
D03*
Y332185D02*
D03*
Y327185D02*
D03*
Y322185D02*
D03*
Y317185D02*
D03*
Y312185D02*
D03*
Y307185D02*
D03*
Y302185D02*
D03*
D21*
X-390Y283000D02*
D03*
X-19209D02*
D03*
X-490Y248500D02*
D03*
X-19309D02*
D03*
X-790Y265600D02*
D03*
X-19610D02*
D03*
D22*
X-48976Y280280D02*
D03*
Y277130D02*
D03*
Y273980D02*
D03*
Y270831D02*
D03*
Y267681D02*
D03*
Y264531D02*
D03*
Y261382D02*
D03*
Y258232D02*
D03*
Y255083D02*
D03*
Y251933D02*
D03*
Y248783D02*
D03*
Y245634D02*
D03*
Y242484D02*
D03*
Y239335D02*
D03*
Y236185D02*
D03*
Y233035D02*
D03*
Y229886D02*
D03*
Y226736D02*
D03*
Y223587D02*
D03*
Y220437D02*
D03*
Y217287D02*
D03*
Y214138D02*
D03*
Y210988D02*
D03*
Y207839D02*
D03*
Y204689D02*
D03*
Y201539D02*
D03*
Y198390D02*
D03*
Y182642D02*
D03*
Y179492D02*
D03*
Y176343D02*
D03*
Y173193D02*
D03*
Y170043D02*
D03*
Y166894D02*
D03*
Y163744D02*
D03*
Y160594D02*
D03*
Y157445D02*
D03*
Y154295D02*
D03*
Y151146D02*
D03*
Y147996D02*
D03*
Y144846D02*
D03*
Y141697D02*
D03*
Y138547D02*
D03*
Y135398D02*
D03*
Y132248D02*
D03*
Y129098D02*
D03*
Y125949D02*
D03*
Y122799D02*
D03*
Y119650D02*
D03*
Y116500D02*
D03*
Y113350D02*
D03*
D43*
X278270Y221337D02*
X288583Y211024D01*
Y125316D02*
Y211024D01*
X276570Y113303D02*
X288583Y125316D01*
X278270Y221337D02*
Y250402D01*
X288189Y260321D02*
Y339370D01*
X278270Y250402D02*
X288189Y260321D01*
X279469Y348090D02*
X288189Y339370D01*
X279469Y348090D02*
Y376802D01*
X263564Y75019D02*
X266634Y71949D01*
X263564Y75019D02*
Y164368D01*
X266107Y166911D01*
X266634Y71949D02*
X270018D01*
X273281Y68686D01*
X276037D01*
X275961Y38611D02*
X276037Y38686D01*
X265541Y291545D02*
X276052Y302057D01*
X266107Y166911D02*
X274852Y175656D01*
X274966Y205800D02*
X280842D01*
X264764Y216002D02*
Y290768D01*
Y216002D02*
X274966Y205800D01*
X280842D02*
X285827Y200815D01*
X280842Y175800D02*
X285827Y180785D01*
Y200815D01*
X29925Y376802D02*
X279469D01*
X23989Y370866D02*
X29925Y376802D01*
X23989Y311811D02*
Y370866D01*
Y311811D02*
X29600Y306200D01*
X276181Y332185D02*
X278937D01*
X29600Y326200D02*
X270196D01*
X276181Y332185D01*
X-9400Y269263D02*
Y290647D01*
X-790Y265600D02*
Y265787D01*
X-3113Y268110D02*
X-790Y265787D01*
X-9400Y269263D02*
X-8247Y268110D01*
X-3113D01*
X4005Y291800D02*
X16976Y304771D01*
X-8247Y291800D02*
X4005D01*
X18673Y306200D02*
X19600D01*
X17244Y304771D02*
X18673Y306200D01*
X16976Y304771D02*
X17244D01*
X282200Y41759D02*
Y65642D01*
X279142Y68701D02*
X282200Y65642D01*
X279142Y38701D02*
X282200Y41759D01*
X276386Y68701D02*
X279142D01*
X276386Y38701D02*
X279142D01*
X277608Y175656D02*
X277737Y175785D01*
X274852Y175656D02*
X277608D01*
X278086Y175800D02*
X280842D01*
X277267Y249400D02*
X278270Y250402D01*
X264764Y290768D02*
X265541Y291545D01*
X276052Y302057D02*
X278808D01*
X278937Y302185D01*
X-48976Y261382D02*
X-29317D01*
X-48976Y273980D02*
X-25355D01*
X-48976Y267681D02*
X-21690D01*
X-29317Y261382D02*
X-19309Y251374D01*
X-25355Y273980D02*
X-19209Y280126D01*
X-21690Y267681D02*
X-19610Y265600D01*
X-19309Y248500D02*
Y251374D01*
X-19209Y280126D02*
Y283000D01*
X-490Y248500D02*
Y251374D01*
X7800Y259665D01*
X-9400Y290647D02*
X-8247Y291800D01*
X7800Y259665D02*
Y275900D01*
X7900Y276000D01*
X8100Y325600D02*
X8251Y325751D01*
X19151D01*
X19600Y326200D01*
X279286Y302200D02*
X282042D01*
X279286Y332200D02*
X282042D01*
Y302200D02*
X285100Y305258D01*
X282042Y332200D02*
X285100Y329142D01*
Y305258D02*
Y329142D01*
D44*
X19600Y286200D02*
X29600D01*
X-390Y283000D02*
X16400D01*
X19600Y286200D01*
D45*
X520669Y52953D02*
X523691D01*
X503217Y35501D02*
X520669Y52953D01*
X523691D02*
X529180Y58441D01*
X471300Y35501D02*
X503217D01*
X397887Y37505D02*
Y42505D01*
Y67505D02*
Y72505D01*
Y42505D02*
X397937Y42456D01*
X397887Y62505D02*
X397897Y62495D01*
X397887Y67505D02*
X397987Y67605D01*
X398191Y55308D02*
X403399D01*
X397887Y55005D02*
Y57505D01*
Y55005D02*
X398191Y55308D01*
X403793Y42406D02*
X410698Y35501D01*
X471300D01*
X397887Y52505D02*
Y55005D01*
X397897Y47515D02*
X403783D01*
X397937Y42456D02*
X403744D01*
X403793Y42406D01*
X384895Y79414D02*
Y79676D01*
X367900Y96671D02*
X384895Y79676D01*
X367900Y96671D02*
Y109643D01*
X354383Y53686D02*
X357927D01*
X348281Y60910D02*
Y77052D01*
X367900Y96671D01*
X351372Y50674D02*
X354383Y53686D01*
X348281Y50674D02*
X351372D01*
X397887Y47505D02*
X397897Y47515D01*
X312651Y38686D02*
X312651Y38686D01*
X338777Y38545D02*
X347418D01*
X338635Y38686D02*
X338777Y38545D01*
X347418D02*
X347494Y38469D01*
X312651Y38686D02*
X338635D01*
X330229Y109643D02*
X367900D01*
X326570Y113303D02*
X330229Y109643D01*
X327953Y175984D02*
X328152Y175785D01*
X340335D01*
X340477Y175644D01*
X340335Y175785D02*
X340335Y175785D01*
X340335Y175785D02*
X340335D01*
X327753Y175785D02*
X327953Y175984D01*
X314351Y175785D02*
X327753D01*
X331929Y246743D02*
X369600D01*
X328270Y250402D02*
X331929Y246743D01*
X524391Y178324D02*
X529502Y183436D01*
Y195266D01*
X504705Y178324D02*
X524391D01*
X473000Y172600D02*
X498981D01*
X504705Y178324D01*
X399587Y174604D02*
Y179604D01*
Y204604D02*
Y209604D01*
Y199604D02*
X399597Y199594D01*
X399587Y204604D02*
X399687Y204704D01*
X399891Y192407D02*
X405099D01*
X399587Y192104D02*
Y194604D01*
Y192104D02*
X399891Y192407D01*
X405493Y179506D02*
X412398Y172600D01*
X473000D01*
X399587Y189604D02*
Y192104D01*
Y184604D02*
X399597Y184614D01*
X399637Y179555D02*
X405444D01*
X405493Y179506D01*
X399597Y184614D02*
X405483D01*
X386595Y216513D02*
Y216775D01*
X369600Y233770D02*
X386595Y216775D01*
X369600Y233770D02*
Y246743D01*
X356083Y190785D02*
X359627D01*
X349981Y198009D02*
Y214151D01*
X369600Y233770D01*
X353072Y187773D02*
X356083Y190785D01*
X349981Y187773D02*
X353072D01*
X399587Y179604D02*
X399637Y179555D01*
X340477Y175644D02*
X349118D01*
X349194Y175568D01*
X400787Y318504D02*
X401091Y318807D01*
X406299D01*
X400787Y318504D02*
Y321004D01*
Y316004D02*
Y318504D01*
X530702Y309836D02*
Y321667D01*
X525591Y304724D02*
X530702Y309836D01*
X474200Y299000D02*
X500181D01*
X505905Y304724D01*
X525591D01*
X400837Y305955D02*
X406644D01*
X406693Y305906D02*
X413598Y299000D01*
X400787Y301004D02*
Y306004D01*
X413598Y299000D02*
X474200D01*
X400787Y306004D02*
X400837Y305955D01*
X406644D02*
X406693Y305906D01*
X387795Y342913D02*
Y343175D01*
X370800Y360170D02*
X387795Y343175D01*
X400787Y331004D02*
X400887Y331104D01*
X400787Y331004D02*
Y336004D01*
X315551Y302185D02*
X341535D01*
X315551Y302185D02*
X315551Y302185D01*
X341535D02*
X341535Y302185D01*
X341677Y302044D02*
X350318D01*
X350394Y301969D01*
X341535Y302185D02*
X341677Y302044D01*
X351181Y314173D02*
X354272D01*
X357283Y317185D02*
X360827D01*
X354272Y314173D02*
X357283Y317185D01*
X351181Y324410D02*
Y340551D01*
X370800Y360170D01*
Y373143D01*
X400787Y326004D02*
X400797Y325994D01*
X400797Y311014D02*
X406683D01*
X400787Y311004D02*
X400797Y311014D01*
X333129Y373143D02*
X370800D01*
X329469Y376802D02*
X333129Y373143D01*
D46*
X367900Y109643D02*
D03*
X369600Y246743D02*
D03*
X370800Y373143D02*
D03*
D47*
X367900Y89958D02*
D03*
X369600Y227057D02*
D03*
X370800Y353457D02*
D03*
D48*
X336570Y113303D02*
D03*
X326570D02*
D03*
X316570D02*
D03*
X306570D02*
D03*
X286570D02*
D03*
X338270Y250402D02*
D03*
X328270D02*
D03*
X318270D02*
D03*
X308270D02*
D03*
X288270D02*
D03*
X289470Y376802D02*
D03*
X309470D02*
D03*
X319469D02*
D03*
X329469D02*
D03*
X339470D02*
D03*
D49*
X276570Y113303D02*
D03*
X278270Y250402D02*
D03*
X279469Y376802D02*
D03*
D50*
X528346Y20118D02*
D03*
Y118504D02*
D03*
X528721Y244033D02*
D03*
Y145647D02*
D03*
X529921Y272047D02*
D03*
Y370433D02*
D03*
D51*
X522756Y91122D02*
D03*
X523131Y216651D02*
D03*
X524331Y343051D02*
D03*
D52*
X533937Y85669D02*
D03*
X522756Y80216D02*
D03*
X533937Y74764D02*
D03*
X522756Y69311D02*
D03*
X533937Y63858D02*
D03*
X522756Y58406D02*
D03*
X533937Y52953D02*
D03*
X522756Y47500D02*
D03*
X523131Y173029D02*
D03*
X534312Y178482D02*
D03*
X523131Y183935D02*
D03*
X534312Y189387D02*
D03*
X523131Y194840D02*
D03*
X534312Y200293D02*
D03*
X523131Y205746D02*
D03*
X534312Y211198D02*
D03*
X535512Y337598D02*
D03*
X524331Y332146D02*
D03*
X535512Y326693D02*
D03*
X524331Y321240D02*
D03*
X535512Y315787D02*
D03*
X524331Y310335D02*
D03*
X535512Y304882D02*
D03*
X524331Y299429D02*
D03*
D53*
X474200Y359000D02*
D03*
X473000Y232600D02*
D03*
X471300Y95501D02*
D03*
D54*
X474200Y349000D02*
D03*
Y339000D02*
D03*
Y329000D02*
D03*
Y319000D02*
D03*
Y309000D02*
D03*
Y299000D02*
D03*
Y289000D02*
D03*
X473000Y162600D02*
D03*
Y172600D02*
D03*
Y182600D02*
D03*
Y192600D02*
D03*
Y202600D02*
D03*
Y212600D02*
D03*
Y222600D02*
D03*
X471300Y25501D02*
D03*
Y35501D02*
D03*
Y45501D02*
D03*
Y55501D02*
D03*
Y65501D02*
D03*
Y75501D02*
D03*
Y85501D02*
D03*
D55*
X19000Y146900D02*
D03*
X18800Y259000D02*
D03*
X29600Y286200D02*
D03*
D56*
X29000Y146900D02*
D03*
X39000D02*
D03*
X19000Y136900D02*
D03*
X29000D02*
D03*
X39000D02*
D03*
X19000Y126900D02*
D03*
X29000D02*
D03*
X39000D02*
D03*
X19000Y116900D02*
D03*
X29000D02*
D03*
X39000D02*
D03*
X19000Y106900D02*
D03*
X29000D02*
D03*
X39000D02*
D03*
X19000Y96900D02*
D03*
X29000D02*
D03*
X39000D02*
D03*
X19000Y86900D02*
D03*
X29000D02*
D03*
X39000D02*
D03*
X19000Y76900D02*
D03*
X29000D02*
D03*
X39000D02*
D03*
X19000Y66900D02*
D03*
X29000D02*
D03*
X39000D02*
D03*
X19000Y56900D02*
D03*
X29000D02*
D03*
X39000D02*
D03*
X38800Y169000D02*
D03*
X28800D02*
D03*
X18800D02*
D03*
X38800Y179000D02*
D03*
X28800D02*
D03*
X18800D02*
D03*
X38800Y189000D02*
D03*
X28800D02*
D03*
X18800D02*
D03*
X38800Y199000D02*
D03*
X28800D02*
D03*
X18800D02*
D03*
X38800Y209000D02*
D03*
X28800D02*
D03*
X18800D02*
D03*
X38800Y219000D02*
D03*
X28800D02*
D03*
X18800D02*
D03*
X38800Y229000D02*
D03*
X28800D02*
D03*
X18800D02*
D03*
X38800Y239000D02*
D03*
X28800D02*
D03*
X18800D02*
D03*
X38800Y249000D02*
D03*
X28800D02*
D03*
X18800D02*
D03*
X38800Y259000D02*
D03*
X28800D02*
D03*
X19600Y286200D02*
D03*
X29600Y296200D02*
D03*
X19600D02*
D03*
X29600Y306200D02*
D03*
X19600D02*
D03*
X29600Y316200D02*
D03*
X19600D02*
D03*
X29600Y326200D02*
D03*
X19600D02*
D03*
X29600Y336200D02*
D03*
X19600D02*
D03*
D57*
X285548Y388375D02*
D03*
Y368690D02*
D03*
Y349005D02*
D03*
Y289950D02*
D03*
X280627Y280107D02*
D03*
X285548Y270265D02*
D03*
X280627Y260422D02*
D03*
Y240737D02*
D03*
X285548Y230894D02*
D03*
Y171839D02*
D03*
X280627Y161997D02*
D03*
X285548Y152154D02*
D03*
X280627Y142312D02*
D03*
X285548Y132469D02*
D03*
X280627Y122627D02*
D03*
Y102942D02*
D03*
X285548Y93099D02*
D03*
X280627Y83257D02*
D03*
X285548Y73414D02*
D03*
Y53729D02*
D03*
Y34044D02*
D03*
X280627Y24202D02*
D03*
X285548Y14359D02*
D03*
X280627Y4516D02*
D03*
X275705Y388375D02*
D03*
Y368690D02*
D03*
X270784Y358847D02*
D03*
X275705Y349005D02*
D03*
X270784Y339162D02*
D03*
X275705Y289950D02*
D03*
X270784Y280107D02*
D03*
X275705Y270265D02*
D03*
X270784Y260422D02*
D03*
Y240737D02*
D03*
X275705Y230894D02*
D03*
X270784Y221052D02*
D03*
Y201367D02*
D03*
Y181682D02*
D03*
X275705Y171839D02*
D03*
X270784Y161997D02*
D03*
X275705Y152154D02*
D03*
X270784Y142312D02*
D03*
X275705Y132469D02*
D03*
X270784Y122627D02*
D03*
Y102942D02*
D03*
X275705Y93099D02*
D03*
X270784Y83257D02*
D03*
X275705Y34044D02*
D03*
X270784Y24202D02*
D03*
X275705Y14359D02*
D03*
X270784Y4516D02*
D03*
X265863Y388375D02*
D03*
Y368690D02*
D03*
X260942Y358847D02*
D03*
X265863Y349005D02*
D03*
X260942Y339162D02*
D03*
X265863Y329320D02*
D03*
Y309635D02*
D03*
X260942Y280107D02*
D03*
Y260422D02*
D03*
Y240737D02*
D03*
Y221052D02*
D03*
X265863Y211210D02*
D03*
X260942Y201367D02*
D03*
X265863Y191524D02*
D03*
X260942Y181682D02*
D03*
Y161997D02*
D03*
X265863Y152154D02*
D03*
X260942Y142312D02*
D03*
X265863Y132469D02*
D03*
X260942Y122627D02*
D03*
X265863Y112784D02*
D03*
X260942Y102942D02*
D03*
X265863Y93099D02*
D03*
X260942Y83257D02*
D03*
Y43887D02*
D03*
X265863Y34044D02*
D03*
X260942Y24202D02*
D03*
X265863Y14359D02*
D03*
X260942Y4516D02*
D03*
X256020Y388375D02*
D03*
Y368690D02*
D03*
X251099Y358847D02*
D03*
X256020Y349005D02*
D03*
X251099Y339162D02*
D03*
X256020Y329320D02*
D03*
Y309635D02*
D03*
X251099Y299792D02*
D03*
X256020Y289950D02*
D03*
X251099Y280107D02*
D03*
X256020Y270265D02*
D03*
X251099Y260422D02*
D03*
X256020Y250580D02*
D03*
X251099Y240737D02*
D03*
X256020Y230894D02*
D03*
X251099Y221052D02*
D03*
X256020Y211210D02*
D03*
X251099Y201367D02*
D03*
X256020Y191524D02*
D03*
X251099Y181682D02*
D03*
X256020Y171839D02*
D03*
X251099Y161997D02*
D03*
X256020Y152154D02*
D03*
X251099Y142312D02*
D03*
X256020Y132469D02*
D03*
X251099Y122627D02*
D03*
X256020Y112784D02*
D03*
X251099Y102942D02*
D03*
X256020Y93099D02*
D03*
X251099Y83257D02*
D03*
X256020Y73414D02*
D03*
X251099Y63572D02*
D03*
Y43887D02*
D03*
X256020Y34044D02*
D03*
X251099Y24202D02*
D03*
X256020Y14359D02*
D03*
X251099Y4516D02*
D03*
X246178Y388375D02*
D03*
Y368690D02*
D03*
X241256Y358847D02*
D03*
X246178Y349005D02*
D03*
X241256Y339162D02*
D03*
X246178Y329320D02*
D03*
Y309635D02*
D03*
X241256Y299792D02*
D03*
X246178Y289950D02*
D03*
X241256Y280107D02*
D03*
X246178Y270265D02*
D03*
X241256Y260422D02*
D03*
X246178Y250580D02*
D03*
X241256Y240737D02*
D03*
X246178Y230894D02*
D03*
X241256Y221052D02*
D03*
X246178Y211210D02*
D03*
X241256Y201367D02*
D03*
Y181682D02*
D03*
X246178Y171839D02*
D03*
X241256Y161997D02*
D03*
X246178Y152154D02*
D03*
X241256Y142312D02*
D03*
X246178Y132469D02*
D03*
X241256Y122627D02*
D03*
X246178Y112784D02*
D03*
X241256Y102942D02*
D03*
X246178Y93099D02*
D03*
X241256Y83257D02*
D03*
X246178Y73414D02*
D03*
X241256Y63572D02*
D03*
Y43887D02*
D03*
X246178Y34044D02*
D03*
X241256Y24202D02*
D03*
X246178Y14359D02*
D03*
X241256Y4516D02*
D03*
X236335Y388375D02*
D03*
Y368690D02*
D03*
X231414Y358847D02*
D03*
X236335Y349005D02*
D03*
X231414Y339162D02*
D03*
X236335Y329320D02*
D03*
Y309635D02*
D03*
X231414Y299792D02*
D03*
X236335Y289950D02*
D03*
X231414Y280107D02*
D03*
X236335Y270265D02*
D03*
X231414Y260422D02*
D03*
X236335Y250580D02*
D03*
X231414Y240737D02*
D03*
X236335Y230894D02*
D03*
X231414Y221052D02*
D03*
X236335Y211210D02*
D03*
X231414Y201367D02*
D03*
Y181682D02*
D03*
X236335Y171839D02*
D03*
X231414Y161997D02*
D03*
X236335Y152154D02*
D03*
X231414Y142312D02*
D03*
X236335Y132469D02*
D03*
X231414Y122627D02*
D03*
X236335Y112784D02*
D03*
X231414Y102942D02*
D03*
X236335Y93099D02*
D03*
X231414Y83257D02*
D03*
X236335Y73414D02*
D03*
X231414Y63572D02*
D03*
Y43887D02*
D03*
X236335Y34044D02*
D03*
X231414Y24202D02*
D03*
X236335Y14359D02*
D03*
X231414Y4516D02*
D03*
X226493Y388375D02*
D03*
Y368690D02*
D03*
X221571Y358847D02*
D03*
X226493Y349005D02*
D03*
X221571Y339162D02*
D03*
X226493Y329320D02*
D03*
Y309635D02*
D03*
X221571Y299792D02*
D03*
X226493Y289950D02*
D03*
X221571Y280107D02*
D03*
X226493Y270265D02*
D03*
X221571Y260422D02*
D03*
X226493Y250580D02*
D03*
X221571Y240737D02*
D03*
X226493Y230894D02*
D03*
X221571Y221052D02*
D03*
X226493Y211210D02*
D03*
X221571Y201367D02*
D03*
Y181682D02*
D03*
X226493Y171839D02*
D03*
X221571Y161997D02*
D03*
X226493Y152154D02*
D03*
X221571Y142312D02*
D03*
X226493Y132469D02*
D03*
X221571Y122627D02*
D03*
X226493Y112784D02*
D03*
X221571Y102942D02*
D03*
X226493Y93099D02*
D03*
X221571Y83257D02*
D03*
X226493Y73414D02*
D03*
X221571Y63572D02*
D03*
Y43887D02*
D03*
X226493Y34044D02*
D03*
X221571Y24202D02*
D03*
X226493Y14359D02*
D03*
X221571Y4516D02*
D03*
X216650Y388375D02*
D03*
Y368690D02*
D03*
X211729Y358847D02*
D03*
X216650Y349005D02*
D03*
X211729Y339162D02*
D03*
X216650Y329320D02*
D03*
Y309635D02*
D03*
X211729Y299792D02*
D03*
X216650Y289950D02*
D03*
X211729Y280107D02*
D03*
X216650Y270265D02*
D03*
X211729Y260422D02*
D03*
X216650Y250580D02*
D03*
X211729Y240737D02*
D03*
X216650Y230894D02*
D03*
X211729Y221052D02*
D03*
X216650Y211210D02*
D03*
X211729Y201367D02*
D03*
Y181682D02*
D03*
X216650Y171839D02*
D03*
X211729Y161997D02*
D03*
X216650Y152154D02*
D03*
X211729Y142312D02*
D03*
X216650Y132469D02*
D03*
X211729Y122627D02*
D03*
X216650Y112784D02*
D03*
X211729Y102942D02*
D03*
X216650Y93099D02*
D03*
X211729Y83257D02*
D03*
X216650Y73414D02*
D03*
X211729Y63572D02*
D03*
Y43887D02*
D03*
X216650Y34044D02*
D03*
X211729Y24202D02*
D03*
X216650Y14359D02*
D03*
X211729Y4516D02*
D03*
X206808Y388375D02*
D03*
Y368690D02*
D03*
X201886Y358847D02*
D03*
X206808Y349005D02*
D03*
X201886Y339162D02*
D03*
X206808Y329320D02*
D03*
Y309635D02*
D03*
X201886Y299792D02*
D03*
X206808Y289950D02*
D03*
X201886Y280107D02*
D03*
X206808Y270265D02*
D03*
X201886Y260422D02*
D03*
X206808Y250580D02*
D03*
X201886Y240737D02*
D03*
X206808Y230894D02*
D03*
X201886Y221052D02*
D03*
X206808Y211210D02*
D03*
X201886Y201367D02*
D03*
Y181682D02*
D03*
X206808Y171839D02*
D03*
X201886Y161997D02*
D03*
X206808Y152154D02*
D03*
X201886Y142312D02*
D03*
X206808Y132469D02*
D03*
X201886Y122627D02*
D03*
X206808Y112784D02*
D03*
X201886Y102942D02*
D03*
X206808Y93099D02*
D03*
X201886Y83257D02*
D03*
X206808Y73414D02*
D03*
X201886Y63572D02*
D03*
Y43887D02*
D03*
X206808Y34044D02*
D03*
X201886Y24202D02*
D03*
X206808Y14359D02*
D03*
X201886Y4516D02*
D03*
X196965Y388375D02*
D03*
Y368690D02*
D03*
X192044Y358847D02*
D03*
X196965Y349005D02*
D03*
X192044Y339162D02*
D03*
X196965Y329320D02*
D03*
Y309635D02*
D03*
X192044Y299792D02*
D03*
X196965Y289950D02*
D03*
X192044Y280107D02*
D03*
X196965Y270265D02*
D03*
X192044Y260422D02*
D03*
X196965Y250580D02*
D03*
X192044Y240737D02*
D03*
X196965Y230894D02*
D03*
X192044Y221052D02*
D03*
X196965Y211210D02*
D03*
X192044Y201367D02*
D03*
Y181682D02*
D03*
X196965Y171839D02*
D03*
X192044Y161997D02*
D03*
X196965Y152154D02*
D03*
X192044Y142312D02*
D03*
X196965Y132469D02*
D03*
X192044Y122627D02*
D03*
X196965Y112784D02*
D03*
X192044Y102942D02*
D03*
X196965Y93099D02*
D03*
X192044Y83257D02*
D03*
X196965Y73414D02*
D03*
X192044Y63572D02*
D03*
Y43887D02*
D03*
X196965Y34044D02*
D03*
X192044Y24202D02*
D03*
X196965Y14359D02*
D03*
X192044Y4516D02*
D03*
X187123Y388375D02*
D03*
Y368690D02*
D03*
X182201Y358847D02*
D03*
X187123Y349005D02*
D03*
X182201Y339162D02*
D03*
X187123Y329320D02*
D03*
Y309635D02*
D03*
X182201Y299792D02*
D03*
X187123Y289950D02*
D03*
X182201Y280107D02*
D03*
X187123Y270265D02*
D03*
X182201Y260422D02*
D03*
X187123Y250580D02*
D03*
X182201Y240737D02*
D03*
X187123Y230894D02*
D03*
X182201Y221052D02*
D03*
X187123Y211210D02*
D03*
X182201Y201367D02*
D03*
Y181682D02*
D03*
X187123Y171839D02*
D03*
X182201Y161997D02*
D03*
X187123Y152154D02*
D03*
X182201Y142312D02*
D03*
X187123Y132469D02*
D03*
X182201Y122627D02*
D03*
X187123Y112784D02*
D03*
X182201Y102942D02*
D03*
X187123Y93099D02*
D03*
X182201Y83257D02*
D03*
X187123Y73414D02*
D03*
X182201Y63572D02*
D03*
Y43887D02*
D03*
X187123Y34044D02*
D03*
X182201Y24202D02*
D03*
X187123Y14359D02*
D03*
X182201Y4516D02*
D03*
X177280Y388375D02*
D03*
Y368690D02*
D03*
X172359Y358847D02*
D03*
X177280Y349005D02*
D03*
X172359Y339162D02*
D03*
X177280Y329320D02*
D03*
Y309635D02*
D03*
X172359Y299792D02*
D03*
X177280Y289950D02*
D03*
X172359Y280107D02*
D03*
X177280Y270265D02*
D03*
X172359Y260422D02*
D03*
X177280Y250580D02*
D03*
X172359Y240737D02*
D03*
X177280Y230894D02*
D03*
X172359Y221052D02*
D03*
X177280Y211210D02*
D03*
X172359Y201367D02*
D03*
Y181682D02*
D03*
X177280Y171839D02*
D03*
X172359Y161997D02*
D03*
X177280Y152154D02*
D03*
X172359Y142312D02*
D03*
X177280Y132469D02*
D03*
X172359Y122627D02*
D03*
X177280Y112784D02*
D03*
X172359Y102942D02*
D03*
X177280Y93099D02*
D03*
X172359Y83257D02*
D03*
X177280Y73414D02*
D03*
X172359Y63572D02*
D03*
Y43887D02*
D03*
X177280Y34044D02*
D03*
X172359Y24202D02*
D03*
X177280Y14359D02*
D03*
X172359Y4516D02*
D03*
X167438Y388375D02*
D03*
Y368690D02*
D03*
X162516Y358847D02*
D03*
X167438Y349005D02*
D03*
X162516Y339162D02*
D03*
X167438Y329320D02*
D03*
Y309635D02*
D03*
X162516Y299792D02*
D03*
X167438Y289950D02*
D03*
X162516Y280107D02*
D03*
X167438Y270265D02*
D03*
X162516Y260422D02*
D03*
X167438Y250580D02*
D03*
X162516Y240737D02*
D03*
X167438Y230894D02*
D03*
X162516Y221052D02*
D03*
X167438Y211210D02*
D03*
X162516Y201367D02*
D03*
Y181682D02*
D03*
X167438Y171839D02*
D03*
X162516Y161997D02*
D03*
X167438Y152154D02*
D03*
X162516Y142312D02*
D03*
X167438Y132469D02*
D03*
X162516Y122627D02*
D03*
X167438Y112784D02*
D03*
X162516Y102942D02*
D03*
X167438Y93099D02*
D03*
X162516Y83257D02*
D03*
X167438Y73414D02*
D03*
X162516Y63572D02*
D03*
Y43887D02*
D03*
X167438Y34044D02*
D03*
X162516Y24202D02*
D03*
X167438Y14359D02*
D03*
X162516Y4516D02*
D03*
X157595Y388375D02*
D03*
Y368690D02*
D03*
X152674Y358847D02*
D03*
X157595Y349005D02*
D03*
X152674Y339162D02*
D03*
X157595Y329320D02*
D03*
X152674Y299792D02*
D03*
X157595Y289950D02*
D03*
X152674Y280107D02*
D03*
X157595Y270265D02*
D03*
X152674Y260422D02*
D03*
X157595Y250580D02*
D03*
X152674Y240737D02*
D03*
X157595Y230894D02*
D03*
X152674Y221052D02*
D03*
X157595Y211210D02*
D03*
X152674Y201367D02*
D03*
Y181682D02*
D03*
X157595Y171839D02*
D03*
X152674Y161997D02*
D03*
X157595Y152154D02*
D03*
X152674Y142312D02*
D03*
X157595Y132469D02*
D03*
X152674Y122627D02*
D03*
X157595Y112784D02*
D03*
X152674Y102942D02*
D03*
X157595Y93099D02*
D03*
X152674Y83257D02*
D03*
Y63572D02*
D03*
Y43887D02*
D03*
X157595Y34044D02*
D03*
X152674Y24202D02*
D03*
X157595Y14359D02*
D03*
X152674Y4516D02*
D03*
X147753Y388375D02*
D03*
Y368690D02*
D03*
X142831Y358847D02*
D03*
X147753Y349005D02*
D03*
X142831Y339162D02*
D03*
X147753Y329320D02*
D03*
Y309635D02*
D03*
X142831Y299792D02*
D03*
X147753Y289950D02*
D03*
X142831Y280107D02*
D03*
X147753Y270265D02*
D03*
X142831Y260422D02*
D03*
X147753Y250580D02*
D03*
X142831Y240737D02*
D03*
X147753Y230894D02*
D03*
X142831Y221052D02*
D03*
X147753Y211210D02*
D03*
X142831Y201367D02*
D03*
Y181682D02*
D03*
X147753Y171839D02*
D03*
X142831Y161997D02*
D03*
X147753Y152154D02*
D03*
X142831Y142312D02*
D03*
X147753Y132469D02*
D03*
X142831Y122627D02*
D03*
X147753Y112784D02*
D03*
X142831Y102942D02*
D03*
X147753Y93099D02*
D03*
X142831Y83257D02*
D03*
X147753Y73414D02*
D03*
X142831Y63572D02*
D03*
Y43887D02*
D03*
X147753Y34044D02*
D03*
X142831Y24202D02*
D03*
X147753Y14359D02*
D03*
X142831Y4516D02*
D03*
X137910Y388375D02*
D03*
Y368690D02*
D03*
X132989Y358847D02*
D03*
X137910Y349005D02*
D03*
X132989Y339162D02*
D03*
X137910Y329320D02*
D03*
X132989Y319477D02*
D03*
Y280107D02*
D03*
X137910Y270265D02*
D03*
X132989Y260422D02*
D03*
X137910Y250580D02*
D03*
X132989Y240737D02*
D03*
X137910Y230894D02*
D03*
X132989Y221052D02*
D03*
X137910Y211210D02*
D03*
X132989Y201367D02*
D03*
Y181682D02*
D03*
X137910Y171839D02*
D03*
X132989Y161997D02*
D03*
X137910Y152154D02*
D03*
X132989Y142312D02*
D03*
X137910Y132469D02*
D03*
X132989Y122627D02*
D03*
X137910Y112784D02*
D03*
X132989Y102942D02*
D03*
Y83257D02*
D03*
X137910Y73414D02*
D03*
Y53729D02*
D03*
X132989Y43887D02*
D03*
X137910Y34044D02*
D03*
X132989Y24202D02*
D03*
X137910Y14359D02*
D03*
X132989Y4516D02*
D03*
X128068Y388375D02*
D03*
Y368690D02*
D03*
X123146Y358847D02*
D03*
X128068Y349005D02*
D03*
X123146Y339162D02*
D03*
X128068Y329320D02*
D03*
X123146Y319477D02*
D03*
X128068Y309635D02*
D03*
Y289950D02*
D03*
X123146Y280107D02*
D03*
X128068Y270265D02*
D03*
X123146Y260422D02*
D03*
X128068Y250580D02*
D03*
X123146Y240737D02*
D03*
X128068Y230894D02*
D03*
X123146Y221052D02*
D03*
X128068Y211210D02*
D03*
X123146Y201367D02*
D03*
Y181682D02*
D03*
X128068Y171839D02*
D03*
X123146Y161997D02*
D03*
X128068Y152154D02*
D03*
X123146Y142312D02*
D03*
X128068Y132469D02*
D03*
X123146Y122627D02*
D03*
X128068Y112784D02*
D03*
X123146Y102942D02*
D03*
X128068Y93099D02*
D03*
X123146Y83257D02*
D03*
X128068Y73414D02*
D03*
X123146Y63572D02*
D03*
X128068Y53729D02*
D03*
X123146Y43887D02*
D03*
X128068Y34044D02*
D03*
X123146Y24202D02*
D03*
X128068Y14359D02*
D03*
X123146Y4516D02*
D03*
X118225Y388375D02*
D03*
Y368690D02*
D03*
X113304Y358847D02*
D03*
X118225Y349005D02*
D03*
X113304Y339162D02*
D03*
X118225Y329320D02*
D03*
X113304Y319477D02*
D03*
X118225Y309635D02*
D03*
X113304Y299792D02*
D03*
Y260422D02*
D03*
X118225Y250580D02*
D03*
X113304Y240737D02*
D03*
X118225Y230894D02*
D03*
X113304Y221052D02*
D03*
X118225Y211210D02*
D03*
X113304Y201367D02*
D03*
Y181682D02*
D03*
X118225Y171839D02*
D03*
X113304Y161997D02*
D03*
X118225Y152154D02*
D03*
X113304Y142312D02*
D03*
X118225Y132469D02*
D03*
X113304Y122627D02*
D03*
Y102942D02*
D03*
X118225Y93099D02*
D03*
Y73414D02*
D03*
X113304Y63572D02*
D03*
Y43887D02*
D03*
X118225Y34044D02*
D03*
X113304Y24202D02*
D03*
X118225Y14359D02*
D03*
X113304Y4516D02*
D03*
X108382Y388375D02*
D03*
Y368690D02*
D03*
X103461Y358847D02*
D03*
X108382Y349005D02*
D03*
X103461Y339162D02*
D03*
X108382Y329320D02*
D03*
X103461Y319477D02*
D03*
X108382Y309635D02*
D03*
X103461Y299792D02*
D03*
X108382Y289950D02*
D03*
Y270265D02*
D03*
X103461Y260422D02*
D03*
X108382Y250580D02*
D03*
X103461Y240737D02*
D03*
X108382Y230894D02*
D03*
X103461Y221052D02*
D03*
X108382Y211210D02*
D03*
X103461Y201367D02*
D03*
Y181682D02*
D03*
X108382Y171839D02*
D03*
X103461Y161997D02*
D03*
X108382Y152154D02*
D03*
X103461Y142312D02*
D03*
X108382Y132469D02*
D03*
X103461Y122627D02*
D03*
X108382Y112784D02*
D03*
X103461Y102942D02*
D03*
X108382Y93099D02*
D03*
X103461Y83257D02*
D03*
X108382Y73414D02*
D03*
X103461Y63572D02*
D03*
X108382Y53729D02*
D03*
X103461Y43887D02*
D03*
X108382Y34044D02*
D03*
X103461Y24202D02*
D03*
X108382Y14359D02*
D03*
X103461Y4516D02*
D03*
X98540Y388375D02*
D03*
Y368690D02*
D03*
X93619Y358847D02*
D03*
X98540Y349005D02*
D03*
X93619Y339162D02*
D03*
X98540Y329320D02*
D03*
X93619Y319477D02*
D03*
X98540Y309635D02*
D03*
X93619Y299792D02*
D03*
X98540Y289950D02*
D03*
X93619Y280107D02*
D03*
Y240737D02*
D03*
X98540Y230894D02*
D03*
X93619Y221052D02*
D03*
X98540Y211210D02*
D03*
X93619Y201367D02*
D03*
Y181682D02*
D03*
X98540Y171839D02*
D03*
X93619Y161997D02*
D03*
X98540Y152154D02*
D03*
X93619Y142312D02*
D03*
Y122627D02*
D03*
X98540Y112784D02*
D03*
Y93099D02*
D03*
X93619Y83257D02*
D03*
Y63572D02*
D03*
X98540Y53729D02*
D03*
X93619Y43887D02*
D03*
X98540Y34044D02*
D03*
X93619Y24202D02*
D03*
X98540Y14359D02*
D03*
X93619Y4516D02*
D03*
X88697Y388375D02*
D03*
Y368690D02*
D03*
X83776Y358847D02*
D03*
X88697Y349005D02*
D03*
X83776Y339162D02*
D03*
X88697Y329320D02*
D03*
X83776Y319477D02*
D03*
X88697Y309635D02*
D03*
X83776Y299792D02*
D03*
X88697Y289950D02*
D03*
X83776Y280107D02*
D03*
X88697Y270265D02*
D03*
Y250580D02*
D03*
X83776Y240737D02*
D03*
X88697Y230894D02*
D03*
X83776Y221052D02*
D03*
X88697Y211210D02*
D03*
X83776Y201367D02*
D03*
Y181682D02*
D03*
X88697Y171839D02*
D03*
X83776Y161997D02*
D03*
X88697Y152154D02*
D03*
X83776Y142312D02*
D03*
X88697Y132469D02*
D03*
X83776Y122627D02*
D03*
X88697Y112784D02*
D03*
X83776Y102942D02*
D03*
X88697Y93099D02*
D03*
X83776Y83257D02*
D03*
X88697Y73414D02*
D03*
X83776Y63572D02*
D03*
X88697Y53729D02*
D03*
X83776Y43887D02*
D03*
X88697Y34044D02*
D03*
X83776Y24202D02*
D03*
X88697Y14359D02*
D03*
X83776Y4516D02*
D03*
X78855Y388375D02*
D03*
Y368690D02*
D03*
X73934Y358847D02*
D03*
X78855Y349005D02*
D03*
X73934Y339162D02*
D03*
X78855Y329320D02*
D03*
X73934Y319477D02*
D03*
X78855Y309635D02*
D03*
X73934Y299792D02*
D03*
X78855Y289950D02*
D03*
X73934Y280107D02*
D03*
X78855Y270265D02*
D03*
X73934Y260422D02*
D03*
Y221052D02*
D03*
X78855Y211210D02*
D03*
X73934Y201367D02*
D03*
Y181682D02*
D03*
X78855Y171839D02*
D03*
X73934Y161997D02*
D03*
Y142312D02*
D03*
X78855Y132469D02*
D03*
Y112784D02*
D03*
X73934Y102942D02*
D03*
Y83257D02*
D03*
X78855Y73414D02*
D03*
X73934Y63572D02*
D03*
X78855Y53729D02*
D03*
X73934Y43887D02*
D03*
X78855Y34044D02*
D03*
X73934Y24202D02*
D03*
X78855Y14359D02*
D03*
X73934Y4516D02*
D03*
X69012Y388375D02*
D03*
Y368690D02*
D03*
X64091Y358847D02*
D03*
X69012Y349005D02*
D03*
X64091Y339162D02*
D03*
X69012Y329320D02*
D03*
X64091Y319477D02*
D03*
X69012Y309635D02*
D03*
X64091Y299792D02*
D03*
X69012Y289950D02*
D03*
X64091Y280107D02*
D03*
X69012Y270265D02*
D03*
X64091Y260422D02*
D03*
X69012Y250580D02*
D03*
Y230894D02*
D03*
X64091Y221052D02*
D03*
X69012Y211210D02*
D03*
X64091Y201367D02*
D03*
Y181682D02*
D03*
X69012Y171839D02*
D03*
X64091Y161997D02*
D03*
X69012Y152154D02*
D03*
X64091Y142312D02*
D03*
X69012Y132469D02*
D03*
X64091Y122627D02*
D03*
X69012Y112784D02*
D03*
X64091Y102942D02*
D03*
X69012Y93099D02*
D03*
X64091Y83257D02*
D03*
X69012Y73414D02*
D03*
X64091Y63572D02*
D03*
X69012Y53729D02*
D03*
X64091Y43887D02*
D03*
X69012Y34044D02*
D03*
X64091Y24202D02*
D03*
X69012Y14359D02*
D03*
X64091Y4516D02*
D03*
X59170Y388375D02*
D03*
Y368690D02*
D03*
X54249Y358847D02*
D03*
X59170Y349005D02*
D03*
X54249Y339162D02*
D03*
X59170Y329320D02*
D03*
X54249Y319477D02*
D03*
X59170Y309635D02*
D03*
X54249Y299792D02*
D03*
X59170Y289950D02*
D03*
X54249Y280107D02*
D03*
X59170Y270265D02*
D03*
X54249Y260422D02*
D03*
X59170Y250580D02*
D03*
X54249Y240737D02*
D03*
Y201367D02*
D03*
Y161997D02*
D03*
X59170Y152154D02*
D03*
Y132469D02*
D03*
X54249Y122627D02*
D03*
Y102942D02*
D03*
X59170Y93099D02*
D03*
X54249Y83257D02*
D03*
X59170Y73414D02*
D03*
X54249Y63572D02*
D03*
X59170Y53729D02*
D03*
X54249Y43887D02*
D03*
X59170Y34044D02*
D03*
X54249Y24202D02*
D03*
X59170Y14359D02*
D03*
X54249Y4516D02*
D03*
X49327Y388375D02*
D03*
Y368690D02*
D03*
X44406Y358847D02*
D03*
X49327Y349005D02*
D03*
X44406Y339162D02*
D03*
X49327Y329320D02*
D03*
X44406Y319477D02*
D03*
X49327Y309635D02*
D03*
X44406Y299792D02*
D03*
X49327Y289950D02*
D03*
X44406Y280107D02*
D03*
X49327Y270265D02*
D03*
X44406Y260422D02*
D03*
X49327Y250580D02*
D03*
X44406Y240737D02*
D03*
X49327Y230894D02*
D03*
Y211210D02*
D03*
X44406Y201367D02*
D03*
Y181682D02*
D03*
X49327Y171839D02*
D03*
X44406Y161997D02*
D03*
X49327Y152154D02*
D03*
X44406Y142312D02*
D03*
X49327Y132469D02*
D03*
X44406Y122627D02*
D03*
X49327Y112784D02*
D03*
X44406Y102942D02*
D03*
X49327Y93099D02*
D03*
X44406Y83257D02*
D03*
X49327Y73414D02*
D03*
X44406Y63572D02*
D03*
X49327Y53729D02*
D03*
X44406Y43887D02*
D03*
X49327Y34044D02*
D03*
X44406Y24202D02*
D03*
X49327Y14359D02*
D03*
X44406Y4516D02*
D03*
X39485Y388375D02*
D03*
Y368690D02*
D03*
X34564Y358847D02*
D03*
X39485Y349005D02*
D03*
X34564Y339162D02*
D03*
X39485Y329320D02*
D03*
X34564Y319477D02*
D03*
X39485Y309635D02*
D03*
X34564Y299792D02*
D03*
X39485Y289950D02*
D03*
X34564Y280107D02*
D03*
X39485Y270265D02*
D03*
X34564Y240737D02*
D03*
Y221052D02*
D03*
X39485Y152154D02*
D03*
X34564Y122627D02*
D03*
Y102942D02*
D03*
Y83257D02*
D03*
Y63572D02*
D03*
Y43887D02*
D03*
X39485Y34044D02*
D03*
X34564Y24202D02*
D03*
X39485Y14359D02*
D03*
X34564Y4516D02*
D03*
X29642Y388375D02*
D03*
X24721Y378532D02*
D03*
X29642Y368690D02*
D03*
Y349005D02*
D03*
X24721Y299792D02*
D03*
Y280107D02*
D03*
X29642Y270265D02*
D03*
X24721Y161997D02*
D03*
X29642Y152154D02*
D03*
X24721Y102942D02*
D03*
Y83257D02*
D03*
Y63572D02*
D03*
Y43887D02*
D03*
X29642Y34044D02*
D03*
X24721Y24202D02*
D03*
X29642Y14359D02*
D03*
X24721Y4516D02*
D03*
X19800Y388375D02*
D03*
X14878Y378532D02*
D03*
X19800Y368690D02*
D03*
X14878Y358847D02*
D03*
X19800Y349005D02*
D03*
X14878Y339162D02*
D03*
Y319477D02*
D03*
X19800Y270265D02*
D03*
X14878Y161997D02*
D03*
Y102942D02*
D03*
Y83257D02*
D03*
Y63572D02*
D03*
Y43887D02*
D03*
X19800Y34044D02*
D03*
X14878Y24202D02*
D03*
X19800Y14359D02*
D03*
X14878Y4516D02*
D03*
X9957Y388375D02*
D03*
X5036Y378532D02*
D03*
X9957Y368690D02*
D03*
X5036Y358847D02*
D03*
X9957Y349005D02*
D03*
X5036Y339162D02*
D03*
X9957Y329320D02*
D03*
X5036Y319477D02*
D03*
Y299792D02*
D03*
Y260422D02*
D03*
Y221052D02*
D03*
Y201367D02*
D03*
X9957Y152154D02*
D03*
Y132469D02*
D03*
Y112784D02*
D03*
X5036Y102942D02*
D03*
X9957Y93099D02*
D03*
X5036Y83257D02*
D03*
X9957Y73414D02*
D03*
X5036Y63572D02*
D03*
X9957Y53729D02*
D03*
X5036Y43887D02*
D03*
X9957Y34044D02*
D03*
X5036Y24202D02*
D03*
X9957Y14359D02*
D03*
D58*
X58268Y173622D02*
D03*
X265748Y317323D02*
D03*
X-40908Y118467D02*
D03*
X529180Y58441D02*
D03*
X461273Y89650D02*
D03*
X357730Y77446D02*
D03*
X403575Y67704D02*
D03*
X403399Y62485D02*
D03*
Y55308D02*
D03*
X403793Y47524D02*
D03*
Y42406D02*
D03*
X384895Y79414D02*
D03*
X348281Y60910D02*
D03*
Y50674D02*
D03*
X347494Y38469D02*
D03*
X529502Y195266D02*
D03*
X462973Y226750D02*
D03*
X359430Y214545D02*
D03*
X405274Y204803D02*
D03*
X405099Y199584D02*
D03*
Y192407D02*
D03*
X405493Y184624D02*
D03*
Y179506D02*
D03*
X386595Y216513D02*
D03*
X349981Y198009D02*
D03*
Y187773D02*
D03*
X349194Y175568D02*
D03*
X406299Y318807D02*
D03*
X464173Y353150D02*
D03*
X530702Y321667D02*
D03*
X387795Y342913D02*
D03*
X406474Y331204D02*
D03*
X350394Y301969D02*
D03*
X351181Y314173D02*
D03*
Y324410D02*
D03*
X406299Y325984D02*
D03*
X406693Y311024D02*
D03*
Y305906D02*
D03*
X8100Y325600D02*
D03*
X7900Y276000D02*
D03*
M02*
