M48
;Layer_Color=9474304
;FILE_FORMAT=2:4
INCH,TZ
;TYPE=PLATED
T1F00S00C0.0079
T2F00S00C0.0118
T3F00S00C0.0236
T4F00S00C0.0315
T5F00S00C0.0354
T6F00S00C0.0402
T7F00S00C0.0429
T8F00S00C0.1283
%
T01
X504Y1436
X1488
X2472
X3456
X4441
X5425
X6409
X7393
X8378
X9362
X10346
X11330
X12315
X12807Y2420
X11823
X10838
X9854
X8870
X7885
X6901
X5917
X4933
X3948
X2964
X1980
X996
X1488Y3404
X504
X996Y4389
X2964
X3948
X4933
X5917
X6901
X7885
X8870
X9854
X10838
X11823
X12807
X12315Y3404
X11330
X10346
X9362
X8378
X7393
X6409
X5425
X4441
X3456
X13299
X14283
X15267
X16252
X17236
X18220
X19204
X20189
X21173
X22157
X23141
X24126
X25110
X26094
X26586Y2420
X27571
X28555
X28063Y1436
X27078
X26094
X25110
X24126
X23141
X22157
X21173
X20189
X19204
X18220
X17236
X16252
X15267
X14283
X13299
X13791Y2420
X14775
X15760
X16744
X17728
X18712
X19697
X20681
X21665
X22649
X23634
X29539
X29047Y1436
X29539Y4389
Y6357
X29047Y7341
X29539Y8326
X29047Y9310
X29539Y10294
Y12263
X29047Y13247
Y15215
X28555Y16200
Y14231
X27571
X26586
X25602
X24618
X23634
X22649
X21665
X20681
X19697
X18712
X17728
X16744
X15760
X14775
X13791
X14283Y15215
X15267
X16252
X17236
X18220
X19204
X20189
X21173
X22157
X23141
X23634Y16200
X24618
X25602
X26586
X27078Y17184
X26094
X25110
X24126
X23141
X22157
X21173
X20189
X19204
X18220
X17236
X16252
X15267
X14283
X13299
X13791Y18168
X14775
X15760
X16744
X17728
X18712
X19697
X20681
X21665
X22649
X23634
X24618
X25602
X26586
X27078Y19152
X26094
X25110
X24126
X23141
X22157
X21173
X20189
X19204
X18220
X17236
X16252
X15267
X14283
X13299
X13791Y20137
X14775
X15760
X16744
X17728
X18712
X19697
X20681
X21665
X22649
X23634
X24618
X25602
X26586
X27078Y15215
Y13247
X28063
X28555Y12263
X27571
X26586
X25602
X24618
X23634
X22649
X21665
X20681
X19697
X18712
X17728
X16744
X15760
X14775
X13791
X14283Y13247
X15267
X16252
X17236
X18220
X19204
X20189
X21173
X22157
X23141
X24126
X25110
Y11278
X26094
X27078
X27571Y10294
X28555
X28063Y9310
X27078
X26094
X25110
X24126
X23141
X22157
X21173
X20189
X19204
X18220
X17236
X16252
X15267
X14283
X13299
X13791Y10294
X14775
X15760
X16744
X17728
X18712
X19697
X20681
X21665
X22649
X23634
X24618
X25602
X26586
Y8326
X27571
X28555
X28063Y7341
X27571Y6357
X26586
X25602
X24618
X23634
X22649
X21665
X20681
X19697
X18712
X17728
X16744
X15760
X14775
X13791
X14283Y7341
X15267
X16252
X17236
X18220
X19204
X20189
X21173
X22157
X23141
X24126
X25110
X26094
X25602Y8326
X24618
X23634
X22649
X21665
X20681
X19697
X18712
X17728
X16744
X15760
X14775
X13791
X13299Y7341
X14283Y5373
X15267
X16252
X17236
X18220
X19204
X20189
X21173
X22157
X23141
X24126
X25110
X26094
X27078
X24126Y11278
X23141
X22157
X21173
X20189
X19204
X18220
X17236
X16252
X15267
X14283
X13299
Y13247
Y15215
X13791Y16200
X14775
X15760
X16744
X17728
X18712
X19697
X20681
X21665
X22649
X12807
X11823
X10838
X9854
X8870
X7885
X6901
X5917
X4933
X3948
X4441Y17184
X5425
X6409
X7393
X8378
X9362
X10346
X11330
X12315
X12807Y18168
X11823
X10838
X9854
X8870
X7885
X6901
X5917
X4933
X5425Y19152
X6409
X7393
X8378
X9362
X10346
X11330
X12315
X12807Y20137
X11823
X10838
X9854
X8870
X7885
X6901
X5917
X4933
X4441Y19152
X3456
Y17184
X4441Y15215
X5425
X6409
X7393
X8378
X9362
X10346
X11330
X12315
X12807Y14231
X11823
X10838
X9854
X8870
X7885
X6901
X5917
X6409Y13247
X7393
X8378
X9362
X10346
X11330
X12315
X12807Y12263
X11823
X10838
X9854
X8870
X7885
X8378Y11278
X9362
X10346
X11330
X12315
X12807Y10294
X11823
X10838
X9854
X10346Y9310
X11330
X12315
X12807Y8326
X11823
X12315Y7341
Y5373
X11330
X10346
X9362
X8378
X7393
X6409
X5425
X4441
X4933Y6357
X5917
X6901
X7885
X8870
X9854
X10838
X10346Y7341
X9362
X8378
X7393
X6409
X5425
X5917Y8326
X6901
X7885
X8870
X8378Y9310
X7393
X6409
X5425
X5917Y10294
X6901
X6409Y11278
X5425
X4933Y12263
X4441Y13247
X3456
X996Y14231
X504Y17184
X996Y18168
Y20137
X3456Y9310
Y7341
X2472
X1488
X4933Y8326
Y10294
X5425Y21121
X6409
X7393
X8378
X9362
X10346
X11330
X12315
X12807Y22105
X11823
X10838
X9854
X8870
X7885
X6901
X7393Y23089
X8378
X9362
X10346
X11330
X12315
X12807Y24074
X11823
X10838
X9854
X8870
X7885
X8378Y25058
X9362
X10346
X11330
X12315
X12807Y26042
X11823
X10838
X9854
X8870
X7885
X8378Y27026
X9362
X10346
X11330
X12315
X12807Y28011
X11823
X10838
X9854
X8870
X7885
X8378Y28995
X9362
X10346
X11330
X12315
X12807Y29979
X11823
X10838
X9854
X8870
X7885
X7393Y28995
Y27026
Y25058
X5425
X4441
X3456
Y27026
X4441
X5425
X4933Y28011
X3948
X2964
X3456Y28995
X3948Y29979
X4933
X5425Y30963
X4933Y31948
X3948
X4441Y32932
X5425
X6409
X7393
X8378
X9362
X10346
X11330
X12315
X12807Y33916
X11823
X10838
X9854
X8870
X7885
X6901
X5917
X4933
X3948
X4441Y34900
X5425
X6409
X7393
X8378
X9362
X10346
X11330
X12315
X12807Y35885
X11823
X10838
X9854
X8870
X7885
X6901
X5917
X4933
X3948
X2964
X1980
X996
X1488Y34900
X2472
X3456
Y32932
X2472
X504
X996Y33916
X504Y34900
X996Y31948
X1488Y30963
X504
X996Y29979
X1488Y28995
Y27026
X2472
X4933Y26042
Y24074
X4441Y23089
X3456
Y21121
X4933Y22105
X996
X5425Y28995
X3456Y30963
X13791Y29979
X14775
X15760
X16744
X17728
X18712
X19697
X20681
X21665
X22649
X23634
X24618
X25602
X24126Y28995
X23141
X22157
X21173
X20189
X19204
X18220
X17236
X16252
X15267
X14283
X13299
X13791Y28011
X14775
X15760
X16744
X17728
X18712
X19697
X20681
X21665
X22649
X23634
X24618
X25110Y27026
X24126
X23141
X22157
X21173
X20189
X19204
X18220
X17236
X16252
X15267
X14283
X13299
X13791Y26042
X14775
X15760
X16744
X17728
X18712
X19697
X20681
X21665
X22649
X23634
X24618
X25110Y25058
X24126
X23141
X22157
X21173
X20189
X19204
X18220
X17236
X16252
X15267
X14283
X13299
X13791Y24074
X14775
X15760
X16744
X17728
X18712
X19697
X20681
X21665
X22649
X23634
X24618
X25110Y23089
X24126
X23141
X22157
X21173
X20189
X19204
X18220
X17236
X16252
X15267
X14283
X13299
X13791Y22105
X14775
X15760
X16744
X17728
X18712
X19697
X20681
X21665
X22649
X23634
X24618
X25602
X26586
X27078Y21121
X26094
X25110
X24126
X23141
X22157
X21173
X20189
X19204
X18220
X17236
X16252
X15267
X14283
X13299
Y32932
X14283
X15267
X16252
X17236
X18220
X19204
X20189
X21173
X22157
X23141
X24126
X25110
X26094
X27078
X26586Y33916
X25602
X24618
X23634
X22649
X21665
X20681
X19697
X18712
X17728
X16744
X15760
X14775
X13791
X13299Y34900
X13791Y35885
X14775
X15760
X16744
X17728
X18712
X19697
X20681
X21665
X22649
X23634
X24618
X25602
X26586
X27571
X28555
X28063Y34900
X27078
X26094
X25110
X24126
X23141
X22157
X21173
X20189
X19204
X18220
X17236
X16252
X15267
X28555Y33916
X29539
Y35885
Y31948
Y29979
Y28011
Y26042
X32590Y31150
X29539Y37853
X28555
X28063Y36869
X27078
X26094
X25110
X24126
X23141
X22157
X21173
X20189
X19204
X18220
X17236
X16744Y37853
X15760
X14775
X13791
X14283Y36869
X15267
X13299
X12315
X11330
X10346
X9362
X8378
X7393
X6409
X5425
X4441
X3456
X2472
X1488
X504
X996Y37853
X1980
X2964
X3948
X4933
X5917
X6901
X7885
X8870
X9854
X10838
X11823
X12807
T02
X33090Y3750
X32830Y4170
X34800Y3770
X35080Y3540
X34980Y2340
X36980Y3220
X36970Y3720
X37110Y1160
X37460Y700
X41040Y3200
X43740Y4453
X44150Y660
X44320Y4410
X46630Y3780
X51220Y3650
X51230Y5280
X51360Y6380
X47580Y5590
X47460Y11310
X49760Y18130
X49840Y20700
X51640Y19740
X54260Y19580
X53570Y17170
X44210Y16430
X43260Y16240
X43363Y16945
X43200Y18340
X42010Y18060
X40910Y18080
X41430Y16230
X36640Y15460
X36570Y18640
X34859Y18871
X34890Y19180
X34530Y19520
X34570Y18090
X34422Y17381
X32920Y17510
X32750Y18920
X34030Y16130
X34850Y6200
X34662Y5730
X37790Y6740
X41690Y6630
X41020Y5880
X44080Y6530
X43940Y8690
X510Y11630
X-25Y11643
X-2438Y11636
X-2410Y11960
X33540Y29300
X34646Y29744
X36430Y30660
X36350Y32380
X34610Y33180
X32650Y30860
X41550Y22250
X43580Y21430
T03
X29224Y11536
X31224
X32224
X33224
X34224
X28224
X28250Y23970
X29250
X31250
X32250
X33250
X34250
X33947Y37680
X32947
X31947
X30947
X28947
X27947
T04
X36690Y9626
Y11594
X37980Y22186
Y24154
X37080Y35346
Y37314
T05
X41580Y2230
X42580
X43580
X44580
X45580
X46580
X47580
X48580
X48500Y15500
X47500
X46500
X45500
X44500
X43500
X42500
X41500
Y29000
X42500
X43500
X44500
X45500
X46500
X47500
X48500
T06
X1900Y5690
Y6690
Y7690
Y8690
Y9690
Y10690
Y11690
Y12690
Y13690
Y14690
X2900
X3900
Y13690
X2900
Y12690
X3900
Y11690
X2900
Y10690
X3900
Y9690
X2900
Y8690
X3900
Y7690
X2900
Y6690
X3900
Y5690
X2900
X2880Y16900
X3880
Y17900
X2880
X1880
Y16900
Y18900
X2880
X3880
Y19900
X2880
X1880
Y20900
X2880
X3880
Y21900
X2880
X1880
Y22900
X2880
X3880
Y23900
X2880
X1880
Y24900
X2880
X3880
Y25900
X2880
X1880
X1960Y28620
X2960
Y29620
X1960
Y30620
X2960
Y31620
X1960
Y32620
X2960
Y33620
X1960
T07
X52391Y4329
X53509Y4874
Y5965
Y7055
Y8146
X52391Y7601
Y8691
Y6510
Y5419
X52441Y17409
Y18499
Y19590
Y20681
X53559Y20135
Y19045
Y17954
Y21226
X52441Y21771
X52433Y29943
Y31033
Y32124
Y33215
Y34305
X53551Y33760
Y32669
Y31579
Y30488
T08
X52950Y1591
Y11429
X53000Y14671
Y24509
X52992Y27205
Y37043
M30
