G04*
G04 #@! TF.GenerationSoftware,Altium Limited,Altium Designer,21.1.1 (26)*
G04*
G04 Layer_Physical_Order=1*
G04 Layer_Color=255*
%FSLAX25Y25*%
%MOIN*%
G70*
G04*
G04 #@! TF.SameCoordinates,5AB17A02-B252-4A1D-B91B-03B2559E31EB*
G04*
G04*
G04 #@! TF.FilePolarity,Positive*
G04*
G01*
G75*
%ADD11C,0.00787*%
G04:AMPARAMS|DCode=19|XSize=47.64mil|YSize=71.65mil|CornerRadius=7.86mil|HoleSize=0mil|Usage=FLASHONLY|Rotation=90.000|XOffset=0mil|YOffset=0mil|HoleType=Round|Shape=RoundedRectangle|*
%AMROUNDEDRECTD19*
21,1,0.04764,0.05593,0,0,90.0*
21,1,0.03192,0.07165,0,0,90.0*
1,1,0.01572,0.02797,0.01596*
1,1,0.01572,0.02797,-0.01596*
1,1,0.01572,-0.02797,-0.01596*
1,1,0.01572,-0.02797,0.01596*
%
%ADD19ROUNDEDRECTD19*%
%ADD20R,0.03150X0.03150*%
%ADD21R,0.03347X0.03740*%
%ADD22R,0.03740X0.03347*%
%ADD23R,0.06102X0.05315*%
G04:AMPARAMS|DCode=24|XSize=25.59mil|YSize=64.96mil|CornerRadius=1.92mil|HoleSize=0mil|Usage=FLASHONLY|Rotation=270.000|XOffset=0mil|YOffset=0mil|HoleType=Round|Shape=RoundedRectangle|*
%AMROUNDEDRECTD24*
21,1,0.02559,0.06112,0,0,270.0*
21,1,0.02175,0.06496,0,0,270.0*
1,1,0.00384,-0.03056,-0.01088*
1,1,0.00384,-0.03056,0.01088*
1,1,0.00384,0.03056,0.01088*
1,1,0.00384,0.03056,-0.01088*
%
%ADD24ROUNDEDRECTD24*%
%ADD25O,0.07874X0.02362*%
%ADD26R,0.05315X0.06102*%
%ADD27R,0.06614X0.12362*%
%ADD28R,0.11024X0.02165*%
%ADD48C,0.01181*%
%ADD49C,0.01968*%
%ADD50C,0.05906*%
%ADD51R,0.05906X0.05906*%
%ADD52C,0.18740*%
%ADD53C,0.06653*%
%ADD54R,0.06653X0.06653*%
%ADD55R,0.04724X0.04724*%
%ADD56C,0.04724*%
%ADD57C,0.05394*%
%ADD58R,0.05394X0.05394*%
%ADD59C,0.02362*%
%ADD60C,0.01968*%
G36*
X283858Y391694D02*
Y384660D01*
X292135D01*
Y379668D01*
X291971Y379600D01*
X291635Y379506D01*
X290917Y379921D01*
X290216Y380108D01*
Y376802D01*
Y373496D01*
X290917Y373684D01*
X291635Y374098D01*
X291971Y374004D01*
X292135Y373936D01*
Y370881D01*
X283858D01*
Y338907D01*
X283358Y338781D01*
X282694Y339225D01*
X281849Y339393D01*
X279683D01*
Y337185D01*
X279093D01*
Y336595D01*
X274247D01*
X274297Y336340D01*
X274683Y335763D01*
X274503Y335312D01*
X274461Y335263D01*
X272342D01*
Y338091D01*
X265453D01*
Y335263D01*
X67258D01*
X66721Y335156D01*
X66265Y334852D01*
X30556Y299143D01*
X30007Y299290D01*
X29193D01*
X28407Y299080D01*
X27702Y298673D01*
X27127Y298098D01*
X26842Y297605D01*
X22358D01*
X22073Y298098D01*
X21498Y298673D01*
X20793Y299080D01*
X20007Y299290D01*
X19193D01*
X18407Y299080D01*
X17702Y298673D01*
X17127Y298098D01*
X16720Y297393D01*
X16510Y296607D01*
Y295793D01*
X16720Y295007D01*
X17127Y294302D01*
X17702Y293727D01*
X18407Y293320D01*
X19193Y293109D01*
X20007D01*
X20793Y293320D01*
X21498Y293727D01*
X22073Y294302D01*
X22358Y294795D01*
X25555D01*
X25746Y294333D01*
X22681Y291268D01*
X22377Y290812D01*
X22270Y290275D01*
Y289371D01*
X21770Y289198D01*
X21021Y289630D01*
X20191Y289853D01*
Y286200D01*
Y282547D01*
X21021Y282770D01*
X21770Y283202D01*
X22270Y283029D01*
Y276121D01*
X1223Y255075D01*
X-4191D01*
Y241925D01*
X3210D01*
Y253088D01*
X24668Y274546D01*
X24973Y275002D01*
X25080Y275539D01*
Y289693D01*
X28644Y293257D01*
X29193Y293109D01*
X30007D01*
X30793Y293320D01*
X31498Y293727D01*
X32073Y294302D01*
X32480Y295007D01*
X32691Y295793D01*
Y296607D01*
X32543Y297156D01*
X67840Y332453D01*
X265453D01*
Y331988D01*
X272342D01*
Y332453D01*
X274405D01*
X274746Y332113D01*
X274853Y331571D01*
X275202Y331050D01*
X275722Y330702D01*
X276337Y330579D01*
X281675D01*
X283628Y328627D01*
X283587Y328318D01*
X283067Y328197D01*
X282984Y328320D01*
X282463Y328668D01*
X281849Y328791D01*
X276337D01*
X275722Y328668D01*
X275202Y328320D01*
X274979Y327988D01*
X269980D01*
Y329429D01*
X265953D01*
X265846Y329429D01*
X265453Y329686D01*
Y330020D01*
X263386D01*
Y327165D01*
Y324311D01*
X265453D01*
Y324645D01*
X265846Y324902D01*
X265953Y324902D01*
X269980D01*
Y326382D01*
X274979D01*
X275202Y326050D01*
X275722Y325702D01*
X276337Y325579D01*
X281849D01*
X282463Y325702D01*
X282984Y326050D01*
X283195Y326365D01*
X283695Y326214D01*
Y323156D01*
X283195Y323005D01*
X282984Y323320D01*
X282463Y323669D01*
X281849Y323791D01*
X276337D01*
X275722Y323669D01*
X275202Y323320D01*
X274979Y322988D01*
X159193D01*
X159193Y322988D01*
X158886Y322927D01*
X158625Y322753D01*
X41006Y205134D01*
X40446D01*
X40331Y205633D01*
X41060Y206054D01*
X41745Y206740D01*
X42230Y207579D01*
X42453Y208410D01*
X38800D01*
X35147D01*
X35370Y207579D01*
X35854Y206740D01*
X36540Y206054D01*
X37269Y205633D01*
X37154Y205134D01*
X34131D01*
X33823Y205072D01*
X33563Y204898D01*
X33563Y204898D01*
X30343Y201678D01*
X29993Y201880D01*
X29207Y202091D01*
X28393D01*
X27607Y201880D01*
X26902Y201473D01*
X26327Y200898D01*
X25920Y200193D01*
X25709Y199407D01*
Y198593D01*
X25920Y197807D01*
X26327Y197102D01*
X26902Y196527D01*
X27495Y196185D01*
X27375Y195685D01*
X23251D01*
X21478Y197457D01*
X21680Y197807D01*
X21891Y198593D01*
Y199407D01*
X21680Y200193D01*
X21273Y200898D01*
X20698Y201473D01*
X19993Y201880D01*
X19207Y202091D01*
X18393D01*
X17607Y201880D01*
X16902Y201473D01*
X16327Y200898D01*
X15920Y200193D01*
X15815Y199803D01*
X-7723D01*
X-25775Y217855D01*
X-26035Y218029D01*
X-26342Y218090D01*
X-42096D01*
X-42480Y218370D01*
Y219847D01*
X-48976D01*
X-55472D01*
Y218370D01*
X-54882D01*
Y216205D01*
X-55472D01*
Y214728D01*
X-48976D01*
X-42480D01*
Y216205D01*
X-42096Y216485D01*
X-26675D01*
X-8623Y198432D01*
X-8362Y198258D01*
X-8055Y198197D01*
X-8055Y198197D01*
X15815D01*
X15920Y197807D01*
X16327Y197102D01*
X16902Y196527D01*
X17607Y196120D01*
X18393Y195910D01*
X19207D01*
X19993Y196120D01*
X20343Y196322D01*
X22350Y194314D01*
X22350Y194314D01*
X22611Y194140D01*
X22918Y194079D01*
X22918Y194079D01*
X42520D01*
X42827Y194140D01*
X43087Y194314D01*
X165155Y316382D01*
X274979D01*
X275202Y316050D01*
X275722Y315702D01*
X276337Y315579D01*
X281849D01*
X282463Y315702D01*
X282984Y316050D01*
X283195Y316366D01*
X283695Y316214D01*
Y313156D01*
X283195Y313005D01*
X282984Y313320D01*
X282463Y313668D01*
X281849Y313791D01*
X276337D01*
X275722Y313668D01*
X275202Y313320D01*
X274986Y312998D01*
X268553D01*
X268504Y313007D01*
X268455Y312998D01*
X166526D01*
X166218Y312937D01*
X165958Y312763D01*
X165958Y312763D01*
X67565Y214370D01*
X67049D01*
X66542Y214160D01*
X66155Y213773D01*
X65945Y213266D01*
Y212718D01*
X66155Y212212D01*
X66542Y211824D01*
X67049Y211614D01*
X67597D01*
X68103Y211824D01*
X68491Y212212D01*
X68701Y212718D01*
Y213235D01*
X166858Y311392D01*
X268514D01*
X268514Y311392D01*
X268514Y311392D01*
X274973D01*
X275202Y311050D01*
X275722Y310702D01*
X276337Y310579D01*
X281849D01*
X282463Y310702D01*
X282984Y311050D01*
X283195Y311366D01*
X283695Y311214D01*
Y309151D01*
X283195Y308890D01*
X282694Y309225D01*
X281849Y309393D01*
X279683D01*
Y307185D01*
Y304977D01*
X281849D01*
X282193Y305046D01*
X282440Y304585D01*
X281645Y303791D01*
X276337D01*
X275722Y303668D01*
X275202Y303320D01*
X274853Y302800D01*
X274826Y302661D01*
X256881Y284716D01*
X256576Y284260D01*
X256469Y283722D01*
Y216803D01*
X256576Y216266D01*
X256881Y215810D01*
X263090Y209600D01*
Y205610D01*
X269980D01*
Y205682D01*
X274405D01*
X274766Y205321D01*
X274853Y204881D01*
X275202Y204360D01*
X275723Y204012D01*
X276337Y203890D01*
X281831D01*
X283858Y201863D01*
Y201028D01*
X283358Y200979D01*
X283332Y201110D01*
X282984Y201631D01*
X282463Y201979D01*
X281849Y202101D01*
X276337D01*
X275723Y201979D01*
X275202Y201631D01*
X274945Y201247D01*
X269980D01*
Y202658D01*
X265953D01*
X265846Y202658D01*
X265453Y202914D01*
Y203248D01*
X263386D01*
Y200394D01*
Y197539D01*
X265453D01*
Y197873D01*
X265846Y198130D01*
X265953Y198130D01*
X269980D01*
Y199642D01*
X275013D01*
X275202Y199360D01*
X275723Y199012D01*
X276337Y198890D01*
X281849D01*
X282463Y199012D01*
X282984Y199360D01*
X283332Y199881D01*
X283358Y200012D01*
X283858Y199963D01*
Y196028D01*
X283358Y195979D01*
X283332Y196110D01*
X282984Y196631D01*
X282463Y196979D01*
X281849Y197101D01*
X276337D01*
X275723Y196979D01*
X275202Y196631D01*
X274979Y196298D01*
X99193D01*
X98886Y196237D01*
X98626Y196063D01*
X98626Y196063D01*
X95850Y193287D01*
X27357D01*
X27357Y193287D01*
X27049Y193226D01*
X26789Y193052D01*
X26789Y193052D01*
X22951Y189214D01*
X22777Y188954D01*
X22716Y188647D01*
Y184052D01*
X20343Y181678D01*
X19993Y181880D01*
X19207Y182091D01*
X18393D01*
X17607Y181880D01*
X17257Y181678D01*
X13722Y185213D01*
X13462Y185387D01*
X13154Y185449D01*
X-13447D01*
X-33255Y205257D01*
X-33516Y205431D01*
X-33823Y205492D01*
X-42096D01*
X-42480Y205772D01*
Y207248D01*
X-48976D01*
X-55472D01*
Y205772D01*
X-54882D01*
Y203606D01*
X-55472D01*
Y202130D01*
X-48976D01*
X-42480D01*
Y203606D01*
X-42096Y203886D01*
X-34155D01*
X-14347Y184078D01*
X-14347Y184078D01*
X-14087Y183904D01*
X-13780Y183843D01*
X-13780Y183843D01*
X12822D01*
X16122Y180543D01*
X15920Y180193D01*
X15709Y179407D01*
Y178593D01*
X15920Y177807D01*
X16327Y177102D01*
X16902Y176527D01*
X17607Y176120D01*
X18393Y175909D01*
X19207D01*
X19993Y176120D01*
X20698Y176527D01*
X21273Y177102D01*
X21680Y177807D01*
X21891Y178593D01*
Y179407D01*
X21680Y180193D01*
X21478Y180543D01*
X24087Y183151D01*
X24087Y183151D01*
X24261Y183412D01*
X24322Y183719D01*
X24322Y183719D01*
Y188314D01*
X25209Y189202D01*
X25709Y188995D01*
Y188593D01*
X25920Y187807D01*
X26327Y187102D01*
X26902Y186527D01*
X27607Y186120D01*
X28393Y185909D01*
X29207D01*
X29993Y186120D01*
X30343Y186322D01*
X32587Y184078D01*
X32847Y183904D01*
X33154Y183843D01*
X44094D01*
X44402Y183904D01*
X44662Y184078D01*
X47970Y187386D01*
X97244D01*
X97551Y187447D01*
X97812Y187621D01*
X99883Y189692D01*
X274979D01*
X275202Y189360D01*
X275723Y189012D01*
X276337Y188890D01*
X281849D01*
X282463Y189012D01*
X282984Y189360D01*
X283332Y189881D01*
X283358Y190012D01*
X283858Y189963D01*
Y186028D01*
X283358Y185979D01*
X283332Y186110D01*
X282984Y186631D01*
X282463Y186979D01*
X281849Y187101D01*
X276337D01*
X275723Y186979D01*
X275202Y186631D01*
X274979Y186298D01*
X49882D01*
X49882Y186298D01*
X49574Y186237D01*
X49314Y186063D01*
X49314Y186063D01*
X48828Y185577D01*
X48699Y185630D01*
X48151D01*
X47645Y185420D01*
X47257Y185032D01*
X47047Y184526D01*
Y183978D01*
X47257Y183471D01*
X47645Y183084D01*
X48151Y182874D01*
X48699D01*
X49206Y183084D01*
X49593Y183471D01*
X49803Y183978D01*
Y184282D01*
X50214Y184692D01*
X274979D01*
X275202Y184360D01*
X275723Y184012D01*
X276337Y183890D01*
X281849D01*
X282463Y184012D01*
X282984Y184360D01*
X283332Y184881D01*
X283358Y185012D01*
X283858Y184963D01*
Y182217D01*
X283358Y182091D01*
X282694Y182535D01*
X281849Y182703D01*
X279683D01*
Y180495D01*
Y178287D01*
X281849D01*
X282388Y178395D01*
X282634Y177934D01*
X281801Y177101D01*
X276337D01*
X275723Y176979D01*
X275202Y176631D01*
X274853Y176110D01*
X274826Y175971D01*
X262570Y163716D01*
X262266Y163260D01*
X262159Y162722D01*
Y84153D01*
X260728D01*
Y77264D01*
X264844D01*
X274538Y67569D01*
X274994Y67265D01*
X275476Y67169D01*
X275723Y67004D01*
X276337Y66882D01*
X280257D01*
X281545Y65593D01*
X281338Y65093D01*
X276337D01*
X275723Y64971D01*
X275202Y64623D01*
X274979Y64290D01*
X269980D01*
Y66043D01*
X265953D01*
X265846Y66043D01*
X265453Y66300D01*
Y66634D01*
X263386D01*
Y63779D01*
Y60925D01*
X265453D01*
Y61259D01*
X265846Y61516D01*
X265953Y61516D01*
X269980D01*
Y62685D01*
X274979D01*
X275202Y62352D01*
X275723Y62004D01*
X276337Y61882D01*
X281849D01*
X282463Y62004D01*
X282984Y62352D01*
X283332Y62873D01*
X283358Y63004D01*
X283858Y62955D01*
Y59020D01*
X283358Y58971D01*
X283332Y59102D01*
X282984Y59623D01*
X282463Y59971D01*
X281849Y60093D01*
X276337D01*
X275723Y59971D01*
X275202Y59623D01*
X274979Y59290D01*
X170585D01*
X65135Y164741D01*
X64874Y164915D01*
X64567Y164976D01*
X39937D01*
X39871Y165476D01*
X40221Y165570D01*
X41060Y166054D01*
X41745Y166740D01*
X42230Y167579D01*
X42453Y168410D01*
X38800D01*
X35147D01*
X35370Y167579D01*
X35854Y166740D01*
X36540Y166054D01*
X37379Y165570D01*
X37729Y165476D01*
X37663Y164976D01*
X33959D01*
X31478Y167457D01*
X31680Y167807D01*
X31890Y168593D01*
Y169407D01*
X31680Y170193D01*
X31273Y170898D01*
X30698Y171473D01*
X29993Y171880D01*
X29207Y172091D01*
X28393D01*
X27607Y171880D01*
X26902Y171473D01*
X26327Y170898D01*
X25920Y170193D01*
X25709Y169407D01*
Y168593D01*
X25920Y167807D01*
X26327Y167102D01*
X26902Y166527D01*
X27607Y166120D01*
X28393Y165910D01*
X29207D01*
X29993Y166120D01*
X30343Y166322D01*
X33059Y163605D01*
X33320Y163432D01*
X33627Y163370D01*
X64234D01*
X169685Y57920D01*
X169685Y57920D01*
X169946Y57746D01*
X170253Y57685D01*
X274979D01*
X275202Y57352D01*
X275723Y57004D01*
X276337Y56882D01*
X281849D01*
X282463Y57004D01*
X282984Y57352D01*
X283332Y57873D01*
X283358Y58004D01*
X283858Y57955D01*
Y54020D01*
X283358Y53971D01*
X283332Y54102D01*
X282984Y54623D01*
X282463Y54971D01*
X281849Y55093D01*
X276337D01*
X275723Y54971D01*
X275202Y54623D01*
X274979Y54290D01*
X167318D01*
X61985Y159623D01*
X61725Y159797D01*
X61417Y159858D01*
X29077D01*
X21478Y167457D01*
X21680Y167807D01*
X21891Y168593D01*
Y169407D01*
X21680Y170193D01*
X21273Y170898D01*
X20698Y171473D01*
X19993Y171880D01*
X19207Y172091D01*
X18393D01*
X17607Y171880D01*
X17257Y171678D01*
X6478Y182457D01*
X6217Y182632D01*
X5910Y182693D01*
X-15416D01*
X-31680Y198958D01*
X-31941Y199132D01*
X-32248Y199193D01*
X-42096D01*
X-42480Y199472D01*
Y200949D01*
X-48976D01*
X-55472D01*
Y199472D01*
X-54882D01*
Y197283D01*
X-56469D01*
Y282343D01*
X-55472D01*
Y280870D01*
X-48976D01*
X-42480D01*
Y282343D01*
X-38791Y282343D01*
X-38742Y282353D01*
X-38693Y282346D01*
X-38307Y282365D01*
X-38162Y282401D01*
X-38013Y282401D01*
X-37257Y282551D01*
X-37074Y282627D01*
X-36880Y282665D01*
X-36167Y282961D01*
X-36002Y283071D01*
X-35820Y283146D01*
X-35178Y283575D01*
X-35038Y283715D01*
X-34874Y283825D01*
X-34328Y284370D01*
X-34218Y284535D01*
X-34078Y284675D01*
X-33650Y285316D01*
X-33574Y285499D01*
X-33464Y285664D01*
X-33169Y286377D01*
X-33130Y286570D01*
X-33055Y286753D01*
X-32904Y287510D01*
X-32904Y287659D01*
X-32868Y287803D01*
X-32849Y288189D01*
X-32856Y288238D01*
X-32847Y288287D01*
Y299706D01*
X-32493Y300060D01*
X-29853Y300060D01*
Y298130D01*
X-29844Y298081D01*
X-29851Y298031D01*
X-29832Y297646D01*
X-29796Y297501D01*
X-29796Y297353D01*
X-29645Y296596D01*
X-29570Y296413D01*
X-29531Y296219D01*
X-29236Y295506D01*
X-29126Y295342D01*
X-29050Y295159D01*
X-28622Y294517D01*
X-28482Y294377D01*
X-28372Y294213D01*
X-27826Y293667D01*
X-27662Y293558D01*
X-27522Y293418D01*
X-26880Y292989D01*
X-26698Y292913D01*
X-26533Y292804D01*
X-25820Y292508D01*
X-25627Y292470D01*
X-25444Y292394D01*
X-24687Y292243D01*
X-24538Y292243D01*
X-24394Y292207D01*
X-24008Y292188D01*
X-23959Y292196D01*
X-23910Y292186D01*
X-0D01*
X768Y292339D01*
X1419Y292774D01*
X1854Y293425D01*
X2007Y294193D01*
X2007Y381890D01*
Y382532D01*
X2175Y383806D01*
X2507Y385048D01*
X2999Y386235D01*
X3642Y387348D01*
X4424Y388368D01*
X5333Y389277D01*
X6352Y390059D01*
X7465Y390702D01*
X8653Y391193D01*
X9894Y391526D01*
X11169Y391694D01*
X11811Y391694D01*
X283858Y391694D01*
D02*
G37*
G36*
X275202Y321050D02*
X275722Y320702D01*
X276337Y320579D01*
X281849D01*
X282463Y320702D01*
X282984Y321050D01*
X283195Y321365D01*
X283695Y321214D01*
Y318156D01*
X283195Y318005D01*
X282984Y318320D01*
X282463Y318669D01*
X281849Y318791D01*
X276337D01*
X275722Y318669D01*
X275202Y318320D01*
X274979Y317988D01*
X164823D01*
X164516Y317927D01*
X164255Y317753D01*
X42187Y195685D01*
X41375D01*
X41190Y196185D01*
X41745Y196740D01*
X42230Y197579D01*
X42453Y198409D01*
X38800D01*
X35147D01*
X35370Y197579D01*
X35854Y196740D01*
X36409Y196185D01*
X36225Y195685D01*
X30225D01*
X30105Y196185D01*
X30698Y196527D01*
X31273Y197102D01*
X31680Y197807D01*
X31890Y198593D01*
Y199407D01*
X31680Y200193D01*
X31478Y200543D01*
X34463Y203528D01*
X41339D01*
X41646Y203589D01*
X41906Y203763D01*
X159526Y321382D01*
X274979D01*
X275202Y321050D01*
D02*
G37*
G36*
X518331Y381927D02*
X518430Y381427D01*
X517578Y381074D01*
X515979Y380005D01*
X514619Y378645D01*
X513551Y377046D01*
X512815Y375269D01*
X512439Y373383D01*
Y371460D01*
X512815Y369573D01*
X513551Y367796D01*
X514619Y366197D01*
X515979Y364837D01*
X517578Y363769D01*
X519355Y363033D01*
X521242Y362657D01*
X523165D01*
X525051Y363033D01*
X526828Y363769D01*
X528427Y364837D01*
X529787Y366197D01*
X530856Y367796D01*
X531592Y369573D01*
X531967Y371460D01*
Y373383D01*
X531592Y375269D01*
X530856Y377046D01*
X529787Y378645D01*
X528427Y380005D01*
X526828Y381074D01*
X525994Y381419D01*
X526094Y381919D01*
X549840Y381895D01*
X549840Y281496D01*
X528551D01*
X528427Y281620D01*
X526828Y282688D01*
X525051Y283424D01*
X523165Y283799D01*
X521242D01*
X519355Y283424D01*
X517578Y282688D01*
X515979Y281620D01*
X515856Y281496D01*
X305118Y281496D01*
X305118Y381784D01*
X305472Y382137D01*
X518331Y381927D01*
D02*
G37*
G36*
X283858Y301376D02*
Y258001D01*
X292135D01*
Y252978D01*
X291972Y252911D01*
X291635Y252816D01*
X290917Y253231D01*
X290216Y253419D01*
Y250112D01*
Y246806D01*
X290917Y246994D01*
X291635Y247408D01*
X291972Y247314D01*
X292135Y247246D01*
Y244221D01*
X283858D01*
Y212217D01*
X283358Y212091D01*
X282694Y212535D01*
X281849Y212703D01*
X279683D01*
Y210495D01*
X279093D01*
Y209905D01*
X274247D01*
X274297Y209650D01*
X274737Y208992D01*
X274672Y208740D01*
X274538Y208492D01*
X269980D01*
Y211713D01*
X264951D01*
X264232Y212432D01*
X264424Y212894D01*
X265945D01*
Y215945D01*
X262500D01*
Y214817D01*
X262038Y214626D01*
X259279Y217385D01*
Y283140D01*
X276718Y300579D01*
X281849D01*
X282463Y300702D01*
X282984Y301050D01*
X283197Y301369D01*
X283396Y301568D01*
X283858Y301376D01*
D02*
G37*
G36*
X549840Y155512D02*
X528023D01*
X526828Y156310D01*
X525051Y157046D01*
X523165Y157421D01*
X521242D01*
X519355Y157046D01*
X517578Y156310D01*
X516384Y155512D01*
X305118Y155512D01*
X305118Y255906D01*
X519233D01*
X519355Y255432D01*
X517578Y254696D01*
X515979Y253627D01*
X514619Y252267D01*
X513551Y250668D01*
X512815Y248891D01*
X512439Y247005D01*
Y245082D01*
X512815Y243195D01*
X513551Y241418D01*
X514619Y239819D01*
X515979Y238459D01*
X517578Y237391D01*
X519355Y236655D01*
X521242Y236280D01*
X523165D01*
X525051Y236655D01*
X526828Y237391D01*
X528427Y238459D01*
X529787Y239819D01*
X530856Y241418D01*
X531592Y243195D01*
X531967Y245082D01*
Y247005D01*
X531592Y248891D01*
X530856Y250668D01*
X529787Y252267D01*
X528427Y253627D01*
X526828Y254696D01*
X525051Y255432D01*
X525174Y255906D01*
X549840D01*
X549840Y155512D01*
D02*
G37*
G36*
X283858Y194963D02*
Y191028D01*
X283358Y190979D01*
X283332Y191110D01*
X282984Y191631D01*
X282463Y191979D01*
X281849Y192101D01*
X276337D01*
X275723Y191979D01*
X275202Y191631D01*
X274979Y191298D01*
X99550D01*
X99243Y191237D01*
X98983Y191063D01*
X98983Y191063D01*
X96912Y188992D01*
X47638D01*
X47638Y188992D01*
X47331Y188931D01*
X47070Y188757D01*
X47070Y188757D01*
X43762Y185449D01*
X41011D01*
X40877Y185949D01*
X41060Y186054D01*
X41745Y186740D01*
X42230Y187579D01*
X42453Y188409D01*
X38800D01*
Y189591D01*
X42453D01*
X42230Y190421D01*
X41791Y191181D01*
X41956Y191681D01*
X96182D01*
X96490Y191743D01*
X96750Y191917D01*
X99526Y194692D01*
X274979D01*
X275202Y194360D01*
X275723Y194012D01*
X276337Y193890D01*
X281849D01*
X282463Y194012D01*
X282984Y194360D01*
X283332Y194881D01*
X283358Y195012D01*
X283858Y194963D01*
D02*
G37*
G36*
X-16316Y181322D02*
X-16055Y181148D01*
X-15748Y181087D01*
X-15748Y181087D01*
X5578D01*
X16122Y170543D01*
X15920Y170193D01*
X15709Y169407D01*
Y168593D01*
X15920Y167807D01*
X16327Y167102D01*
X16902Y166527D01*
X17607Y166120D01*
X18393Y165910D01*
X19207D01*
X19993Y166120D01*
X20343Y166322D01*
X28177Y158487D01*
X28177Y158487D01*
X28438Y158313D01*
X28745Y158252D01*
X61085D01*
X166417Y52920D01*
X166678Y52746D01*
X166985Y52684D01*
X166985Y52685D01*
X274979D01*
X275202Y52352D01*
X275723Y52004D01*
X276337Y51882D01*
X281849D01*
X282463Y52004D01*
X282984Y52352D01*
X283332Y52873D01*
X283358Y53004D01*
X283858Y52955D01*
Y49020D01*
X283358Y48971D01*
X283332Y49102D01*
X282984Y49623D01*
X282463Y49971D01*
X281849Y50093D01*
X276337D01*
X275723Y49971D01*
X275202Y49623D01*
X274979Y49290D01*
X163656D01*
X57654Y155292D01*
X57394Y155466D01*
X57087Y155527D01*
X49571D01*
X49206Y155893D01*
X48699Y156102D01*
X48151D01*
X47645Y155893D01*
X47257Y155505D01*
X47047Y154999D01*
Y154450D01*
X47257Y153944D01*
X47645Y153556D01*
X48151Y153347D01*
X48699D01*
X49206Y153556D01*
X49571Y153922D01*
X56754D01*
X162756Y47920D01*
X163016Y47746D01*
X163324Y47684D01*
X163324Y47685D01*
X274979D01*
X275202Y47352D01*
X275723Y47004D01*
X276337Y46882D01*
X281849D01*
X282463Y47004D01*
X282984Y47352D01*
X283332Y47873D01*
X283358Y48004D01*
X283858Y47955D01*
Y45209D01*
X283358Y45083D01*
X282694Y45527D01*
X281849Y45695D01*
X279683D01*
Y43487D01*
Y41280D01*
X280760D01*
X280951Y40818D01*
X280226Y40093D01*
X276337D01*
X275723Y39971D01*
X275202Y39623D01*
X274853Y39102D01*
X274731Y38487D01*
X274853Y37873D01*
X275202Y37352D01*
X275723Y37004D01*
X276337Y36882D01*
X281849D01*
X282463Y37004D01*
X282984Y37352D01*
X283332Y37873D01*
X283358Y38004D01*
X283858Y37955D01*
Y2007D01*
X11811D01*
X11168Y2007D01*
X9894Y2175D01*
X8653Y2507D01*
X7465Y2999D01*
X6352Y3642D01*
X5333Y4424D01*
X4424Y5333D01*
X3642Y6352D01*
X2999Y7465D01*
X2507Y8653D01*
X2175Y9894D01*
X2007Y11168D01*
X2007Y11811D01*
X2007Y11811D01*
X2007Y11811D01*
Y99508D01*
X1854Y100276D01*
X1419Y100927D01*
X768Y101362D01*
X-0Y101515D01*
X-23910Y101515D01*
X-23958Y101505D01*
X-24008Y101512D01*
X-24394Y101494D01*
X-24538Y101457D01*
X-24687D01*
X-25444Y101307D01*
X-25627Y101231D01*
X-25820Y101193D01*
X-26533Y100897D01*
X-26698Y100787D01*
X-26880Y100712D01*
X-27522Y100283D01*
X-27662Y100143D01*
X-27826Y100033D01*
X-28372Y99488D01*
X-28482Y99323D01*
X-28622Y99183D01*
X-29050Y98542D01*
X-29126Y98359D01*
X-29236Y98195D01*
X-29531Y97482D01*
X-29570Y97288D01*
X-29645Y97105D01*
X-29796Y96348D01*
Y96200D01*
X-29832Y96055D01*
X-29851Y95669D01*
X-29844Y95620D01*
X-29853Y95571D01*
X-29854Y93641D01*
X-32847D01*
X-32847Y105413D01*
X-32857Y105462D01*
X-32849Y105511D01*
X-32868Y105897D01*
X-32904Y106042D01*
X-32904Y106191D01*
X-33055Y106948D01*
X-33131Y107130D01*
X-33169Y107324D01*
X-33464Y108037D01*
X-33574Y108201D01*
X-33650Y108384D01*
X-34079Y109026D01*
X-34218Y109166D01*
X-34328Y109330D01*
X-34874Y109876D01*
X-35038Y109986D01*
X-35178Y110125D01*
X-35820Y110554D01*
X-36002Y110630D01*
X-36167Y110740D01*
X-36880Y111035D01*
X-36768Y111516D01*
X-33563D01*
Y112780D01*
X-30610D01*
Y111516D01*
X-27145D01*
X-27067Y111500D01*
X-27067Y111500D01*
X-8305D01*
X5496Y97699D01*
Y74673D01*
X5557Y74366D01*
X5731Y74106D01*
X18197Y61640D01*
Y59885D01*
X17807Y59780D01*
X17102Y59373D01*
X16527Y58798D01*
X16120Y58093D01*
X15909Y57307D01*
Y56493D01*
X16120Y55707D01*
X16527Y55002D01*
X17102Y54427D01*
X17807Y54020D01*
X18593Y53809D01*
X19407D01*
X20193Y54020D01*
X20898Y54427D01*
X21473Y55002D01*
X21880Y55707D01*
X22091Y56493D01*
Y57307D01*
X21880Y58093D01*
X21473Y58798D01*
X20898Y59373D01*
X20193Y59780D01*
X19803Y59885D01*
Y61973D01*
X19742Y62280D01*
X19568Y62540D01*
X19568Y62540D01*
X18798Y63310D01*
X19005Y63810D01*
X19407D01*
X20193Y64020D01*
X20898Y64427D01*
X21473Y65002D01*
X21880Y65707D01*
X22091Y66493D01*
Y67307D01*
X21880Y68093D01*
X21473Y68798D01*
X20898Y69373D01*
X20193Y69780D01*
X19407Y69991D01*
X18593D01*
X17807Y69780D01*
X17102Y69373D01*
X16527Y68798D01*
X16120Y68093D01*
X15909Y67307D01*
Y66906D01*
X15409Y66698D01*
X7102Y75006D01*
Y97110D01*
X7564Y97302D01*
X11402Y93464D01*
Y88768D01*
X11463Y88460D01*
X11637Y88200D01*
X18197Y81640D01*
Y79884D01*
X17807Y79780D01*
X17102Y79373D01*
X16527Y78798D01*
X16120Y78093D01*
X15909Y77307D01*
Y76493D01*
X16120Y75707D01*
X16527Y75002D01*
X17102Y74427D01*
X17807Y74020D01*
X18593Y73809D01*
X19407D01*
X20193Y74020D01*
X20898Y74427D01*
X21473Y75002D01*
X21880Y75707D01*
X22091Y76493D01*
Y77307D01*
X21880Y78093D01*
X21473Y78798D01*
X20898Y79373D01*
X20193Y79780D01*
X19803Y79884D01*
Y81973D01*
X19742Y82280D01*
X19568Y82540D01*
X19568Y82540D01*
X18798Y83310D01*
X19005Y83810D01*
X19407D01*
X20193Y84020D01*
X20898Y84427D01*
X21473Y85002D01*
X21880Y85707D01*
X22091Y86493D01*
Y87307D01*
X21880Y88093D01*
X21473Y88798D01*
X20898Y89373D01*
X20193Y89780D01*
X19803Y89885D01*
Y91973D01*
X19742Y92280D01*
X19568Y92540D01*
X19568Y92540D01*
X18798Y93309D01*
X19005Y93809D01*
X19407D01*
X20193Y94020D01*
X20898Y94427D01*
X21473Y95002D01*
X21880Y95707D01*
X22091Y96493D01*
Y97307D01*
X21880Y98093D01*
X21473Y98798D01*
X20898Y99373D01*
X20193Y99780D01*
X19407Y99991D01*
X18593D01*
X17807Y99780D01*
X17457Y99578D01*
X-22080Y139115D01*
X-22340Y139289D01*
X-22647Y139350D01*
X-42096D01*
X-42480Y139630D01*
Y141106D01*
X-48976D01*
X-55472D01*
Y139630D01*
X-54882D01*
Y137071D01*
X-54882D01*
Y136874D01*
X-54882D01*
Y134315D01*
X-55472D01*
Y132839D01*
X-48976D01*
X-42480D01*
Y134315D01*
X-42096Y134595D01*
X-23132D01*
X12354Y99109D01*
Y97816D01*
X12415Y97509D01*
X12589Y97248D01*
X18197Y91640D01*
Y89885D01*
X17807Y89780D01*
X17102Y89373D01*
X16527Y88798D01*
X16120Y88093D01*
X15909Y87307D01*
Y86906D01*
X15409Y86699D01*
X13008Y89100D01*
Y93796D01*
X12946Y94103D01*
X12772Y94364D01*
X12772Y94364D01*
X7585Y99551D01*
Y101879D01*
X7585Y101879D01*
X7524Y102186D01*
X7350Y102446D01*
X-19869Y129666D01*
X-20130Y129840D01*
X-20437Y129901D01*
X-42096D01*
X-42480Y130181D01*
Y131658D01*
X-48976D01*
X-55472D01*
Y130181D01*
X-54882D01*
Y127925D01*
X-54882Y127622D01*
X-54882Y127122D01*
Y124776D01*
X-54882Y124472D01*
X-54882Y123972D01*
Y121626D01*
X-54882Y121323D01*
X-54882Y120823D01*
Y118567D01*
X-55472D01*
Y117091D01*
X-48976D01*
X-42480D01*
Y117437D01*
X-42427Y117470D01*
X-41980Y117591D01*
X-41688Y117298D01*
X-41182Y117089D01*
X-40633D01*
X-40127Y117298D01*
X-39762Y117664D01*
X-38091D01*
Y116634D01*
X-33563D01*
Y120768D01*
X-38091D01*
Y119270D01*
X-39762D01*
X-40127Y119635D01*
X-40633Y119845D01*
X-41182D01*
X-41688Y119635D01*
X-42076Y119247D01*
X-42199Y118950D01*
X-42378Y118706D01*
X-42571Y118633D01*
X-43071Y118897D01*
Y120823D01*
X-43071Y121126D01*
X-43071Y121626D01*
Y123972D01*
X-43071Y124276D01*
X-43071Y124776D01*
Y127122D01*
X-43071Y127425D01*
X-43071Y127942D01*
X-42717Y128296D01*
X-20770D01*
X5980Y101546D01*
Y100140D01*
X5518Y99948D01*
X-7405Y112871D01*
X-7665Y113045D01*
X-7972Y113106D01*
X-26083D01*
Y115543D01*
X-26083Y115650D01*
X-25826Y116043D01*
X-25492D01*
Y118110D01*
X-31201D01*
Y116043D01*
X-30867D01*
X-30610Y115650D01*
X-30610Y115543D01*
Y114386D01*
X-33563D01*
Y115650D01*
X-38091D01*
Y114153D01*
X-42096D01*
X-42480Y114433D01*
Y115910D01*
X-48976D01*
X-55472D01*
Y114433D01*
X-54882D01*
Y111874D01*
X-43071D01*
Y112548D01*
X-38091D01*
Y111800D01*
X-38091Y111796D01*
X-38134Y111705D01*
X-38521Y111347D01*
X-38692Y111355D01*
X-38742Y111348D01*
X-38791Y111357D01*
X-56469D01*
Y183820D01*
X-55472Y183820D01*
Y183232D01*
X-48976D01*
X-42480D01*
Y183820D01*
X-38004Y183820D01*
X-37939Y183833D01*
X-37873Y183824D01*
X-37256Y183864D01*
X-37065Y183916D01*
X-36868Y183929D01*
X-35677Y184248D01*
X-35441Y184364D01*
X-35192Y184448D01*
X-34124Y185065D01*
X-33927Y185238D01*
X-33709Y185384D01*
X-32837Y186256D01*
X-32691Y186474D01*
X-32518Y186672D01*
X-31901Y187740D01*
X-31817Y187988D01*
X-31701Y188224D01*
X-31381Y189415D01*
X-31364Y189677D01*
X-31313Y189935D01*
Y191168D01*
X-31364Y191425D01*
X-31381Y191687D01*
X-31701Y192879D01*
X-31817Y193114D01*
X-31901Y193363D01*
X-32518Y194431D01*
X-32691Y194628D01*
X-32837Y194846D01*
X-33709Y195719D01*
X-33927Y195864D01*
X-34124Y196037D01*
X-35192Y196654D01*
X-35441Y196739D01*
X-35677Y196855D01*
X-36544Y197087D01*
X-36478Y197587D01*
X-32581D01*
X-16316Y181322D01*
D02*
G37*
G36*
X283858Y174531D02*
Y120093D01*
X292135D01*
Y115971D01*
X291972Y115903D01*
X291635Y115809D01*
X290917Y116223D01*
X290216Y116411D01*
Y113104D01*
Y109798D01*
X290917Y109986D01*
X291635Y110400D01*
X291972Y110306D01*
X292135Y110238D01*
Y106314D01*
X283858D01*
Y75209D01*
X283358Y75083D01*
X282694Y75527D01*
X281849Y75695D01*
X279683D01*
Y73487D01*
X279093D01*
Y72897D01*
X274247D01*
X274297Y72642D01*
X274602Y72187D01*
X274213Y71868D01*
X269870Y76211D01*
X270061Y76673D01*
X271063D01*
Y80118D01*
X268012D01*
Y78723D01*
X267550Y78531D01*
X266831Y79251D01*
Y84153D01*
X264969D01*
Y162140D01*
X276718Y173890D01*
X281849D01*
X282463Y174012D01*
X282984Y174360D01*
X283007Y174394D01*
X283191Y174517D01*
X283396Y174722D01*
X283858Y174531D01*
D02*
G37*
G36*
X549840Y17717D02*
X531746D01*
X531468Y18132D01*
X531592Y18431D01*
X531967Y20318D01*
Y22241D01*
X531592Y24127D01*
X530856Y25904D01*
X529787Y27504D01*
X528427Y28863D01*
X526828Y29932D01*
X525051Y30668D01*
X523165Y31043D01*
X521242D01*
X519355Y30668D01*
X517578Y29932D01*
X515979Y28863D01*
X514619Y27504D01*
X513551Y25904D01*
X512815Y24127D01*
X512439Y22241D01*
Y20318D01*
X512815Y18431D01*
X512939Y18132D01*
X512661Y17717D01*
X305118D01*
Y118110D01*
X512558D01*
X512815Y116817D01*
X513551Y115041D01*
X514619Y113441D01*
X515979Y112081D01*
X517578Y111013D01*
X519355Y110277D01*
X521242Y109902D01*
X523165D01*
X525051Y110277D01*
X526828Y111013D01*
X528427Y112081D01*
X529787Y113441D01*
X530856Y115041D01*
X531592Y116817D01*
X531849Y118110D01*
X549840D01*
Y17717D01*
D02*
G37*
%LPC*%
G36*
X289035Y380108D02*
X288334Y379921D01*
X287571Y379480D01*
X286948Y378857D01*
X286507Y378094D01*
X286319Y377393D01*
X289035D01*
Y380108D01*
D02*
G37*
G36*
X256734Y381145D02*
X251140D01*
X250680Y381054D01*
X250290Y380793D01*
X250029Y380403D01*
X249938Y379942D01*
Y378207D01*
X51145D01*
X50607Y378100D01*
X50151Y377796D01*
X40345Y367990D01*
X40041Y367534D01*
X39934Y366996D01*
Y328520D01*
X30556Y319143D01*
X30007Y319290D01*
X29193D01*
X28407Y319080D01*
X27702Y318673D01*
X27127Y318098D01*
X26842Y317605D01*
X22358D01*
X22073Y318098D01*
X21498Y318673D01*
X20793Y319080D01*
X20007Y319290D01*
X19193D01*
X18407Y319080D01*
X17702Y318673D01*
X17127Y318098D01*
X16720Y317393D01*
X16510Y316607D01*
Y315793D01*
X16657Y315244D01*
X12786Y311373D01*
X12482Y310917D01*
X12375Y310379D01*
Y281449D01*
X7085Y276160D01*
X7014Y276146D01*
X6558Y275841D01*
X2892Y272175D01*
X-4491D01*
Y259025D01*
X2910D01*
Y268219D01*
X8226Y273535D01*
X8298Y273550D01*
X8754Y273854D01*
X14773Y279874D01*
X15078Y280329D01*
X15184Y280867D01*
Y309798D01*
X18644Y313257D01*
X19193Y313109D01*
X20007D01*
X20793Y313320D01*
X21498Y313727D01*
X22073Y314302D01*
X22358Y314795D01*
X26842D01*
X27127Y314302D01*
X27702Y313727D01*
X28407Y313320D01*
X29193Y313109D01*
X30007D01*
X30793Y313320D01*
X31498Y313727D01*
X32073Y314302D01*
X32480Y315007D01*
X32691Y315793D01*
Y316607D01*
X32543Y317156D01*
X42332Y326945D01*
X42637Y327401D01*
X42744Y327939D01*
Y366414D01*
X51727Y375397D01*
X261122D01*
Y374114D01*
X268012D01*
Y375397D01*
X276870D01*
Y374046D01*
X282381D01*
Y379558D01*
X276870D01*
Y378207D01*
X268012D01*
Y380217D01*
X261122D01*
Y378207D01*
X257937D01*
Y379942D01*
X257845Y380403D01*
X257584Y380793D01*
X257194Y381054D01*
X256734Y381145D01*
D02*
G37*
G36*
X289035Y376212D02*
X286319D01*
X286507Y375511D01*
X286948Y374747D01*
X287571Y374124D01*
X288334Y373684D01*
X289035Y373496D01*
Y376212D01*
D02*
G37*
G36*
X268602Y372933D02*
X265158D01*
Y369882D01*
X268602D01*
Y372933D01*
D02*
G37*
G36*
X263976D02*
X260531D01*
Y369882D01*
X263976D01*
Y372933D01*
D02*
G37*
G36*
X256734Y370330D02*
X254528D01*
Y367520D01*
X258539D01*
Y368525D01*
X258401Y369216D01*
X258010Y369801D01*
X257424Y370193D01*
X256734Y370330D01*
D02*
G37*
G36*
X253346D02*
X251140D01*
X250450Y370193D01*
X249864Y369801D01*
X249473Y369216D01*
X249335Y368525D01*
Y367520D01*
X253346D01*
Y370330D01*
D02*
G37*
G36*
X268602Y368701D02*
X265158D01*
Y365650D01*
X268602D01*
Y368701D01*
D02*
G37*
G36*
X263976D02*
X260531D01*
Y365650D01*
X263976D01*
Y368701D01*
D02*
G37*
G36*
X258539Y366339D02*
X254528D01*
Y363528D01*
X256734D01*
X257424Y363666D01*
X258010Y364057D01*
X258401Y364643D01*
X258539Y365333D01*
Y366339D01*
D02*
G37*
G36*
X253346D02*
X249335D01*
Y365333D01*
X249473Y364643D01*
X249864Y364057D01*
X250450Y363666D01*
X251140Y363528D01*
X253346D01*
Y366339D01*
D02*
G37*
G36*
X272933Y346555D02*
X269488D01*
Y343504D01*
X272933D01*
Y346555D01*
D02*
G37*
G36*
X268307D02*
X264862D01*
Y343504D01*
X268307D01*
Y346555D01*
D02*
G37*
G36*
X272933Y342323D02*
X269488D01*
Y339272D01*
X272933D01*
Y342323D01*
D02*
G37*
G36*
X268307D02*
X264862D01*
Y339272D01*
X268307D01*
Y342323D01*
D02*
G37*
G36*
X278502Y339393D02*
X276337D01*
X275492Y339225D01*
X274776Y338746D01*
X274297Y338030D01*
X274247Y337776D01*
X278502D01*
Y339393D01*
D02*
G37*
G36*
X30007Y339290D02*
X29193D01*
X28407Y339080D01*
X27702Y338673D01*
X27127Y338098D01*
X26842Y337605D01*
X22691D01*
Y339290D01*
X16510D01*
Y335096D01*
X6881Y325467D01*
X6576Y325012D01*
X6469Y324474D01*
Y290783D01*
X3772Y288087D01*
X3310Y288278D01*
Y289575D01*
X-4091D01*
Y276425D01*
X3310D01*
Y283651D01*
X8867Y289208D01*
X9172Y289664D01*
X9279Y290201D01*
Y323892D01*
X18496Y333109D01*
X22691D01*
Y334795D01*
X26842D01*
X27127Y334302D01*
X27702Y333727D01*
X28407Y333320D01*
X29193Y333109D01*
X30007D01*
X30793Y333320D01*
X31498Y333727D01*
X32073Y334302D01*
X32480Y335007D01*
X32691Y335793D01*
Y336607D01*
X32480Y337393D01*
X32073Y338098D01*
X31498Y338673D01*
X30793Y339080D01*
X30007Y339290D01*
D02*
G37*
G36*
X262205Y330020D02*
X260138D01*
Y327756D01*
X262205D01*
Y330020D01*
D02*
G37*
G36*
X30191Y329853D02*
Y326790D01*
X33253D01*
X33030Y327621D01*
X32546Y328460D01*
X31860Y329146D01*
X31021Y329630D01*
X30191Y329853D01*
D02*
G37*
G36*
X20191D02*
Y326790D01*
X23253D01*
X23030Y327621D01*
X22546Y328460D01*
X21860Y329146D01*
X21021Y329630D01*
X20191Y329853D01*
D02*
G37*
G36*
X29010D02*
X28179Y329630D01*
X27340Y329146D01*
X26654Y328460D01*
X26170Y327621D01*
X25947Y326790D01*
X29010D01*
Y329853D01*
D02*
G37*
G36*
X19010D02*
X18179Y329630D01*
X17340Y329146D01*
X16654Y328460D01*
X16170Y327621D01*
X15947Y326790D01*
X19010D01*
Y329853D01*
D02*
G37*
G36*
X262205Y326575D02*
X260138D01*
Y324311D01*
X262205D01*
Y326575D01*
D02*
G37*
G36*
X33253Y325609D02*
X30191D01*
Y322547D01*
X31021Y322770D01*
X31860Y323254D01*
X32546Y323940D01*
X33030Y324779D01*
X33253Y325609D01*
D02*
G37*
G36*
X23253D02*
X20191D01*
Y322547D01*
X21021Y322770D01*
X21860Y323254D01*
X22546Y323940D01*
X23030Y324779D01*
X23253Y325609D01*
D02*
G37*
G36*
X29010D02*
X25947D01*
X26170Y324779D01*
X26654Y323940D01*
X27340Y323254D01*
X28179Y322770D01*
X29010Y322547D01*
Y325609D01*
D02*
G37*
G36*
X19010D02*
X15947D01*
X16170Y324779D01*
X16654Y323940D01*
X17340Y323254D01*
X18179Y322770D01*
X19010Y322547D01*
Y325609D01*
D02*
G37*
G36*
X278502Y309393D02*
X276337D01*
X275492Y309225D01*
X274776Y308746D01*
X274297Y308030D01*
X274247Y307776D01*
X278502D01*
Y309393D01*
D02*
G37*
G36*
X30191Y309853D02*
Y306790D01*
X33253D01*
X33030Y307621D01*
X32546Y308460D01*
X31860Y309146D01*
X31021Y309630D01*
X30191Y309853D01*
D02*
G37*
G36*
X20191D02*
Y306790D01*
X23253D01*
X23030Y307621D01*
X22546Y308460D01*
X21860Y309146D01*
X21021Y309630D01*
X20191Y309853D01*
D02*
G37*
G36*
X29010D02*
X28179Y309630D01*
X27340Y309146D01*
X26654Y308460D01*
X26170Y307621D01*
X25947Y306790D01*
X29010D01*
Y309853D01*
D02*
G37*
G36*
X19010D02*
X18179Y309630D01*
X17340Y309146D01*
X16654Y308460D01*
X16170Y307621D01*
X15947Y306790D01*
X19010D01*
Y309853D01*
D02*
G37*
G36*
X278502Y306594D02*
X274247D01*
X274297Y306340D01*
X274776Y305624D01*
X275492Y305145D01*
X276337Y304977D01*
X278502D01*
Y306594D01*
D02*
G37*
G36*
X33253Y305609D02*
X30191D01*
Y302547D01*
X31021Y302770D01*
X31860Y303254D01*
X32546Y303940D01*
X33030Y304779D01*
X33253Y305609D01*
D02*
G37*
G36*
X23253D02*
X20191D01*
Y302547D01*
X21021Y302770D01*
X21860Y303254D01*
X22546Y303940D01*
X23030Y304779D01*
X23253Y305609D01*
D02*
G37*
G36*
X29010D02*
X25947D01*
X26170Y304779D01*
X26654Y303940D01*
X27340Y303254D01*
X28179Y302770D01*
X29010Y302547D01*
Y305609D01*
D02*
G37*
G36*
X19010D02*
X15947D01*
X16170Y304779D01*
X16654Y303940D01*
X17340Y303254D01*
X18179Y302770D01*
X19010Y302547D01*
Y305609D01*
D02*
G37*
G36*
X30191Y289853D02*
Y286790D01*
X33253D01*
X33030Y287621D01*
X32546Y288460D01*
X31860Y289146D01*
X31021Y289630D01*
X30191Y289853D01*
D02*
G37*
G36*
X29010D02*
X28179Y289630D01*
X27340Y289146D01*
X26654Y288460D01*
X26170Y287621D01*
X25947Y286790D01*
X29010D01*
Y289853D01*
D02*
G37*
G36*
X19010D02*
X18179Y289630D01*
X17340Y289146D01*
X16654Y288460D01*
X16170Y287621D01*
X15947Y286790D01*
X19010D01*
Y289853D01*
D02*
G37*
G36*
X33253Y285609D02*
X30191D01*
Y282547D01*
X31021Y282770D01*
X31860Y283254D01*
X32546Y283940D01*
X33030Y284779D01*
X33253Y285609D01*
D02*
G37*
G36*
X29010D02*
X25947D01*
X26170Y284779D01*
X26654Y283940D01*
X27340Y283254D01*
X28179Y282770D01*
X29010Y282547D01*
Y285609D01*
D02*
G37*
G36*
X19010D02*
X15947D01*
X16170Y284779D01*
X16654Y283940D01*
X17340Y283254D01*
X18179Y282770D01*
X19010Y282547D01*
Y285609D01*
D02*
G37*
G36*
X-42480Y279689D02*
X-48976D01*
X-55472D01*
Y278213D01*
Y277721D01*
X-48976D01*
X-42480D01*
Y278213D01*
Y279689D01*
D02*
G37*
G36*
X-15509Y289575D02*
X-22910D01*
Y278412D01*
X-25937Y275385D01*
X-42480D01*
Y276539D01*
X-48976D01*
X-55472D01*
Y275063D01*
X-54882D01*
Y272898D01*
X-55472D01*
Y271421D01*
X-48976D01*
X-42480D01*
Y272575D01*
X-25355D01*
X-24818Y272682D01*
X-24362Y272987D01*
X-20923Y276425D01*
X-15509D01*
Y289575D01*
D02*
G37*
G36*
X-15909Y272175D02*
X-23310D01*
Y269086D01*
X-42480D01*
Y270240D01*
X-48976D01*
X-55472D01*
Y268764D01*
X-54882D01*
Y266598D01*
X-55472D01*
Y265122D01*
X-48976D01*
X-42480D01*
Y266276D01*
X-23310D01*
Y259025D01*
X-15909D01*
Y272175D01*
D02*
G37*
G36*
X39391Y262653D02*
Y259591D01*
X42453D01*
X42230Y260421D01*
X41745Y261260D01*
X41060Y261946D01*
X40221Y262430D01*
X39391Y262653D01*
D02*
G37*
G36*
X38209D02*
X37379Y262430D01*
X36540Y261946D01*
X35854Y261260D01*
X35370Y260421D01*
X35147Y259591D01*
X38209D01*
Y262653D01*
D02*
G37*
G36*
X29207Y262091D02*
X28393D01*
X27607Y261880D01*
X26902Y261473D01*
X26327Y260898D01*
X25920Y260193D01*
X25709Y259407D01*
Y258593D01*
X25920Y257807D01*
X26327Y257102D01*
X26902Y256527D01*
X27607Y256120D01*
X28393Y255909D01*
X29207D01*
X29993Y256120D01*
X30698Y256527D01*
X31273Y257102D01*
X31680Y257807D01*
X31890Y258593D01*
Y259407D01*
X31680Y260193D01*
X31273Y260898D01*
X30698Y261473D01*
X29993Y261880D01*
X29207Y262091D01*
D02*
G37*
G36*
X42453Y258410D02*
X39391D01*
Y255347D01*
X40221Y255570D01*
X41060Y256054D01*
X41745Y256740D01*
X42230Y257579D01*
X42453Y258410D01*
D02*
G37*
G36*
X38209D02*
X35147D01*
X35370Y257579D01*
X35854Y256740D01*
X36540Y256054D01*
X37379Y255570D01*
X38209Y255347D01*
Y258410D01*
D02*
G37*
G36*
X39391Y252653D02*
Y249591D01*
X42453D01*
X42230Y250421D01*
X41745Y251260D01*
X41060Y251946D01*
X40221Y252430D01*
X39391Y252653D01*
D02*
G37*
G36*
X38209D02*
X37379Y252430D01*
X36540Y251946D01*
X35854Y251260D01*
X35370Y250421D01*
X35147Y249591D01*
X38209D01*
Y252653D01*
D02*
G37*
G36*
X29207Y252091D02*
X28393D01*
X27607Y251880D01*
X26902Y251473D01*
X26327Y250898D01*
X25920Y250193D01*
X25709Y249407D01*
Y248593D01*
X25920Y247807D01*
X26327Y247102D01*
X26902Y246527D01*
X27607Y246120D01*
X28393Y245910D01*
X29207D01*
X29993Y246120D01*
X30698Y246527D01*
X31273Y247102D01*
X31680Y247807D01*
X31890Y248593D01*
Y249407D01*
X31680Y250193D01*
X31273Y250898D01*
X30698Y251473D01*
X29993Y251880D01*
X29207Y252091D01*
D02*
G37*
G36*
X42453Y248410D02*
X39391D01*
Y245347D01*
X40221Y245570D01*
X41060Y246054D01*
X41745Y246740D01*
X42230Y247579D01*
X42453Y248410D01*
D02*
G37*
G36*
X38209D02*
X35147D01*
X35370Y247579D01*
X35854Y246740D01*
X36540Y246054D01*
X37379Y245570D01*
X38209Y245347D01*
Y248410D01*
D02*
G37*
G36*
X-42480Y263941D02*
X-48976D01*
X-55472D01*
Y262464D01*
X-54882D01*
Y260299D01*
X-55472D01*
Y258823D01*
X-48976D01*
X-42480D01*
Y259977D01*
X-32773D01*
X-25166Y252370D01*
X-24711Y252065D01*
X-24173Y251959D01*
X-23010D01*
Y241925D01*
X-15609D01*
Y255075D01*
X-23010D01*
Y254768D01*
X-23591D01*
X-31198Y262375D01*
X-31654Y262680D01*
X-32191Y262787D01*
X-42480D01*
Y263941D01*
D02*
G37*
G36*
X21891Y262091D02*
X15709D01*
Y257045D01*
X6217Y247552D01*
X6043Y247292D01*
X5982Y246985D01*
Y242817D01*
X3731Y240567D01*
X-26042D01*
X-41125Y255650D01*
X-41386Y255824D01*
X-41693Y255885D01*
X-42096D01*
X-42480Y256165D01*
Y257642D01*
X-48976D01*
X-55472D01*
Y256165D01*
X-54882D01*
Y254000D01*
X-55472D01*
Y252524D01*
X-48976D01*
X-42480D01*
Y254000D01*
X-42096Y254280D01*
X-42026D01*
X-26942Y239196D01*
X-26681Y239022D01*
X-26374Y238961D01*
X4064D01*
X4371Y239022D01*
X4632Y239196D01*
X7352Y241916D01*
X7352Y241916D01*
X7526Y242177D01*
X7587Y242484D01*
Y246652D01*
X16845Y255909D01*
X21891D01*
Y262091D01*
D02*
G37*
G36*
X39391Y242653D02*
Y239591D01*
X42453D01*
X42230Y240421D01*
X41745Y241260D01*
X41060Y241946D01*
X40221Y242430D01*
X39391Y242653D01*
D02*
G37*
G36*
X38209D02*
X37379Y242430D01*
X36540Y241946D01*
X35854Y241260D01*
X35370Y240421D01*
X35147Y239591D01*
X38209D01*
Y242653D01*
D02*
G37*
G36*
X19207Y252091D02*
X18393D01*
X17607Y251880D01*
X16902Y251473D01*
X16327Y250898D01*
X15920Y250193D01*
X15709Y249407D01*
Y248593D01*
X15920Y247807D01*
X16122Y247457D01*
X6475Y237811D01*
X-28014D01*
X-39554Y249351D01*
X-39815Y249525D01*
X-40122Y249586D01*
X-42096D01*
X-42480Y249866D01*
Y251343D01*
X-48976D01*
X-55472D01*
Y249866D01*
X-54882D01*
Y247701D01*
X-55472D01*
Y246224D01*
X-48976D01*
X-42480D01*
Y247701D01*
X-42096Y247981D01*
X-40455D01*
X-28914Y236440D01*
X-28914Y236440D01*
X-28654Y236266D01*
X-28346Y236205D01*
X6808D01*
X7115Y236266D01*
X7376Y236440D01*
X17257Y246322D01*
X17607Y246120D01*
X18393Y245910D01*
X19207D01*
X19993Y246120D01*
X20698Y246527D01*
X21273Y247102D01*
X21680Y247807D01*
X21891Y248593D01*
Y249407D01*
X21680Y250193D01*
X21273Y250898D01*
X20698Y251473D01*
X19993Y251880D01*
X19207Y252091D01*
D02*
G37*
G36*
X29207Y242091D02*
X28393D01*
X27607Y241880D01*
X26902Y241473D01*
X26327Y240898D01*
X25920Y240193D01*
X25709Y239407D01*
Y238593D01*
X25920Y237807D01*
X26327Y237102D01*
X26902Y236527D01*
X27607Y236120D01*
X28393Y235910D01*
X29207D01*
X29993Y236120D01*
X30698Y236527D01*
X31273Y237102D01*
X31680Y237807D01*
X31890Y238593D01*
Y239407D01*
X31680Y240193D01*
X31273Y240898D01*
X30698Y241473D01*
X29993Y241880D01*
X29207Y242091D01*
D02*
G37*
G36*
X-42480Y245043D02*
X-48976D01*
X-55472D01*
Y243567D01*
X-54882D01*
Y241402D01*
X-55472D01*
Y239925D01*
X-48976D01*
X-42480D01*
Y241402D01*
X-42096Y241681D01*
X-39274D01*
X-30883Y233291D01*
X-30883Y233291D01*
X-30622Y233117D01*
X-30315Y233055D01*
X-30315Y233055D01*
X13658D01*
X13965Y233117D01*
X14226Y233291D01*
X17257Y236322D01*
X17607Y236120D01*
X18393Y235910D01*
X19207D01*
X19993Y236120D01*
X20698Y236527D01*
X21273Y237102D01*
X21680Y237807D01*
X21891Y238593D01*
Y239407D01*
X21680Y240193D01*
X21273Y240898D01*
X20698Y241473D01*
X19993Y241880D01*
X19207Y242091D01*
X18393D01*
X17607Y241880D01*
X16902Y241473D01*
X16327Y240898D01*
X15920Y240193D01*
X15709Y239407D01*
Y238593D01*
X15920Y237807D01*
X16122Y237457D01*
X13326Y234661D01*
X-29982D01*
X-38373Y243052D01*
X-38634Y243226D01*
X-38941Y243287D01*
X-42096D01*
X-42480Y243567D01*
Y245043D01*
D02*
G37*
G36*
X42453Y238409D02*
X39391D01*
Y235347D01*
X40221Y235570D01*
X41060Y236054D01*
X41745Y236740D01*
X42230Y237579D01*
X42453Y238409D01*
D02*
G37*
G36*
X38209D02*
X35147D01*
X35370Y237579D01*
X35854Y236740D01*
X36540Y236054D01*
X37379Y235570D01*
X38209Y235347D01*
Y238409D01*
D02*
G37*
G36*
X39391Y232653D02*
Y229591D01*
X42453D01*
X42230Y230421D01*
X41745Y231260D01*
X41060Y231946D01*
X40221Y232430D01*
X39391Y232653D01*
D02*
G37*
G36*
X38209D02*
X37379Y232430D01*
X36540Y231946D01*
X35854Y231260D01*
X35370Y230421D01*
X35147Y229591D01*
X38209D01*
Y232653D01*
D02*
G37*
G36*
X29207Y232091D02*
X28393D01*
X27607Y231880D01*
X26902Y231473D01*
X26327Y230898D01*
X25920Y230193D01*
X25709Y229407D01*
Y228593D01*
X25920Y227807D01*
X26327Y227102D01*
X26902Y226527D01*
X27607Y226120D01*
X28393Y225909D01*
X29207D01*
X29993Y226120D01*
X30698Y226527D01*
X31273Y227102D01*
X31680Y227807D01*
X31890Y228593D01*
Y229407D01*
X31680Y230193D01*
X31273Y230898D01*
X30698Y231473D01*
X29993Y231880D01*
X29207Y232091D01*
D02*
G37*
G36*
X-42480Y238744D02*
X-48976D01*
X-55472D01*
Y237268D01*
X-54882D01*
Y235102D01*
X-55472D01*
Y233626D01*
X-48976D01*
X-42480D01*
Y235102D01*
X-42096Y235382D01*
X-37699D01*
X-30749Y228432D01*
X-30749Y228432D01*
X-30488Y228258D01*
X-30181Y228197D01*
X15815D01*
X15920Y227807D01*
X16327Y227102D01*
X16902Y226527D01*
X17607Y226120D01*
X18393Y225909D01*
X19207D01*
X19993Y226120D01*
X20698Y226527D01*
X21273Y227102D01*
X21680Y227807D01*
X21891Y228593D01*
Y229407D01*
X21680Y230193D01*
X21273Y230898D01*
X20698Y231473D01*
X19993Y231880D01*
X19207Y232091D01*
X18393D01*
X17607Y231880D01*
X16902Y231473D01*
X16327Y230898D01*
X15920Y230193D01*
X15815Y229803D01*
X-29849D01*
X-36798Y236753D01*
X-37059Y236927D01*
X-37366Y236988D01*
X-42096D01*
X-42480Y237268D01*
Y238744D01*
D02*
G37*
G36*
X42453Y228410D02*
X39391D01*
Y225347D01*
X40221Y225570D01*
X41060Y226054D01*
X41745Y226740D01*
X42230Y227579D01*
X42453Y228410D01*
D02*
G37*
G36*
X38209D02*
X35147D01*
X35370Y227579D01*
X35854Y226740D01*
X36540Y226054D01*
X37379Y225570D01*
X38209Y225347D01*
Y228410D01*
D02*
G37*
G36*
X39391Y222653D02*
Y219591D01*
X42453D01*
X42230Y220421D01*
X41745Y221260D01*
X41060Y221946D01*
X40221Y222430D01*
X39391Y222653D01*
D02*
G37*
G36*
X38209D02*
X37379Y222430D01*
X36540Y221946D01*
X35854Y221260D01*
X35370Y220421D01*
X35147Y219591D01*
X38209D01*
Y222653D01*
D02*
G37*
G36*
X29207Y222091D02*
X28393D01*
X27607Y221880D01*
X26902Y221473D01*
X26327Y220898D01*
X25920Y220193D01*
X25709Y219407D01*
Y218593D01*
X25920Y217807D01*
X26327Y217102D01*
X26902Y216527D01*
X27607Y216120D01*
X28393Y215910D01*
X29207D01*
X29993Y216120D01*
X30698Y216527D01*
X31273Y217102D01*
X31680Y217807D01*
X31890Y218593D01*
Y219407D01*
X31680Y220193D01*
X31273Y220898D01*
X30698Y221473D01*
X29993Y221880D01*
X29207Y222091D01*
D02*
G37*
G36*
X-42480Y232445D02*
X-48976D01*
X-55472D01*
Y230968D01*
X-54882D01*
Y228803D01*
X-55472D01*
Y227327D01*
X-48976D01*
X-42480D01*
Y228803D01*
X-42096Y229083D01*
X-38486D01*
X-34820Y225417D01*
X-34820Y225417D01*
X-34559Y225242D01*
X-34252Y225181D01*
X11483D01*
X16122Y220543D01*
X15920Y220193D01*
X15709Y219407D01*
Y218593D01*
X15920Y217807D01*
X16327Y217102D01*
X16902Y216527D01*
X17607Y216120D01*
X18393Y215910D01*
X19207D01*
X19993Y216120D01*
X20698Y216527D01*
X21273Y217102D01*
X21680Y217807D01*
X21891Y218593D01*
Y219407D01*
X21680Y220193D01*
X21273Y220898D01*
X20698Y221473D01*
X19993Y221880D01*
X19207Y222091D01*
X18393D01*
X17607Y221880D01*
X17257Y221678D01*
X12383Y226552D01*
X12123Y226726D01*
X11816Y226787D01*
X-33919D01*
X-37586Y230453D01*
X-37846Y230627D01*
X-38153Y230689D01*
X-42096D01*
X-42480Y230968D01*
Y232445D01*
D02*
G37*
G36*
X42453Y218409D02*
X39391D01*
Y215347D01*
X40221Y215570D01*
X41060Y216054D01*
X41745Y216740D01*
X42230Y217579D01*
X42453Y218409D01*
D02*
G37*
G36*
X38209D02*
X35147D01*
X35370Y217579D01*
X35854Y216740D01*
X36540Y216054D01*
X37379Y215570D01*
X38209Y215347D01*
Y218409D01*
D02*
G37*
G36*
X39391Y212653D02*
Y209591D01*
X42453D01*
X42230Y210421D01*
X41745Y211260D01*
X41060Y211946D01*
X40221Y212430D01*
X39391Y212653D01*
D02*
G37*
G36*
X38209D02*
X37379Y212430D01*
X36540Y211946D01*
X35854Y211260D01*
X35370Y210421D01*
X35147Y209591D01*
X38209D01*
Y212653D01*
D02*
G37*
G36*
X29207Y212091D02*
X28393D01*
X27607Y211880D01*
X26902Y211473D01*
X26327Y210898D01*
X25920Y210193D01*
X25709Y209407D01*
Y208593D01*
X25920Y207807D01*
X26327Y207102D01*
X26902Y206527D01*
X27607Y206120D01*
X28393Y205909D01*
X29207D01*
X29993Y206120D01*
X30698Y206527D01*
X31273Y207102D01*
X31680Y207807D01*
X31890Y208593D01*
Y209407D01*
X31680Y210193D01*
X31273Y210898D01*
X30698Y211473D01*
X29993Y211880D01*
X29207Y212091D01*
D02*
G37*
G36*
X-42480Y226146D02*
X-48976D01*
X-55472D01*
Y224669D01*
X-54882D01*
Y222504D01*
X-55472D01*
Y221028D01*
X-48976D01*
X-42480D01*
Y222504D01*
X-42096Y222784D01*
X3246D01*
X15902Y210127D01*
X15709Y209407D01*
Y208593D01*
X15920Y207807D01*
X16327Y207102D01*
X16902Y206527D01*
X17607Y206120D01*
X18393Y205909D01*
X19207D01*
X19993Y206120D01*
X20698Y206527D01*
X21273Y207102D01*
X21680Y207807D01*
X21891Y208593D01*
Y209407D01*
X21680Y210193D01*
X21273Y210898D01*
X20698Y211473D01*
X19993Y211880D01*
X19207Y212091D01*
X18393D01*
X17607Y211880D01*
X16902Y211473D01*
X16865Y211436D01*
X4146Y224154D01*
X3886Y224328D01*
X3579Y224389D01*
X-42096D01*
X-42480Y224669D01*
Y226146D01*
D02*
G37*
G36*
X262205Y203248D02*
X260138D01*
Y200984D01*
X262205D01*
Y203248D01*
D02*
G37*
G36*
Y199803D02*
X260138D01*
Y197539D01*
X262205D01*
Y199803D01*
D02*
G37*
G36*
X-42480Y213547D02*
X-48976D01*
X-55472D01*
Y212071D01*
X-54882D01*
Y209906D01*
X-55472D01*
Y208429D01*
X-48976D01*
X-42480D01*
Y209906D01*
X-42096Y210185D01*
X-33045D01*
X-11292Y188432D01*
X-11031Y188258D01*
X-10724Y188197D01*
X15815D01*
X15920Y187807D01*
X16327Y187102D01*
X16902Y186527D01*
X17607Y186120D01*
X18393Y185909D01*
X19207D01*
X19993Y186120D01*
X20698Y186527D01*
X21273Y187102D01*
X21680Y187807D01*
X21891Y188593D01*
Y189407D01*
X21680Y190193D01*
X21273Y190898D01*
X20698Y191473D01*
X19993Y191880D01*
X19207Y192091D01*
X18393D01*
X17607Y191880D01*
X16902Y191473D01*
X16327Y190898D01*
X15920Y190193D01*
X15815Y189803D01*
X-10391D01*
X-32144Y211556D01*
X-32405Y211730D01*
X-32712Y211791D01*
X-42096D01*
X-42480Y212071D01*
Y213547D01*
D02*
G37*
G36*
X278502Y182703D02*
X276337D01*
X275492Y182535D01*
X274776Y182056D01*
X274297Y181340D01*
X274247Y181086D01*
X278502D01*
Y182703D01*
D02*
G37*
G36*
X39391Y182653D02*
Y179591D01*
X42453D01*
X42230Y180421D01*
X41745Y181260D01*
X41060Y181946D01*
X40221Y182430D01*
X39391Y182653D01*
D02*
G37*
G36*
X38209D02*
X37379Y182430D01*
X36540Y181946D01*
X35854Y181260D01*
X35370Y180421D01*
X35147Y179591D01*
X38209D01*
Y182653D01*
D02*
G37*
G36*
X278502Y179905D02*
X274247D01*
X274297Y179650D01*
X274776Y178934D01*
X275492Y178455D01*
X276337Y178287D01*
X278502D01*
Y179905D01*
D02*
G37*
G36*
X29207Y182091D02*
X28393D01*
X27607Y181880D01*
X26902Y181473D01*
X26327Y180898D01*
X25920Y180193D01*
X25709Y179407D01*
Y178593D01*
X25920Y177807D01*
X26327Y177102D01*
X26902Y176527D01*
X27607Y176120D01*
X28393Y175909D01*
X29207D01*
X29993Y176120D01*
X30698Y176527D01*
X31273Y177102D01*
X31680Y177807D01*
X31890Y178593D01*
Y179407D01*
X31680Y180193D01*
X31273Y180898D01*
X30698Y181473D01*
X29993Y181880D01*
X29207Y182091D01*
D02*
G37*
G36*
X42453Y178410D02*
X39391D01*
Y175347D01*
X40221Y175570D01*
X41060Y176054D01*
X41745Y176740D01*
X42230Y177579D01*
X42453Y178410D01*
D02*
G37*
G36*
X38209D02*
X35147D01*
X35370Y177579D01*
X35854Y176740D01*
X36540Y176054D01*
X37379Y175570D01*
X38209Y175347D01*
Y178410D01*
D02*
G37*
G36*
X39391Y172653D02*
Y169591D01*
X42453D01*
X42230Y170421D01*
X41745Y171260D01*
X41060Y171946D01*
X40221Y172430D01*
X39391Y172653D01*
D02*
G37*
G36*
X38209D02*
X37379Y172430D01*
X36540Y171946D01*
X35854Y171260D01*
X35370Y170421D01*
X35147Y169591D01*
X38209D01*
Y172653D01*
D02*
G37*
G36*
X262205Y66634D02*
X260138D01*
Y64370D01*
X262205D01*
Y66634D01*
D02*
G37*
G36*
Y63189D02*
X260138D01*
Y60925D01*
X262205D01*
Y63189D01*
D02*
G37*
G36*
X39391Y202653D02*
Y199591D01*
X42453D01*
X42230Y200421D01*
X41745Y201260D01*
X41060Y201946D01*
X40221Y202430D01*
X39391Y202653D01*
D02*
G37*
G36*
X38209D02*
X37379Y202430D01*
X36540Y201946D01*
X35854Y201260D01*
X35370Y200421D01*
X35147Y199591D01*
X38209D01*
Y202653D01*
D02*
G37*
G36*
X310216Y380108D02*
Y377393D01*
X312932D01*
X312744Y378094D01*
X312303Y378857D01*
X311680Y379480D01*
X310917Y379921D01*
X310216Y380108D01*
D02*
G37*
G36*
X309035D02*
X308334Y379921D01*
X307571Y379480D01*
X306948Y378857D01*
X306507Y378094D01*
X306319Y377393D01*
X309035D01*
Y380108D01*
D02*
G37*
G36*
X404836Y376181D02*
X402867D01*
Y374213D01*
X404836D01*
Y376181D01*
D02*
G37*
G36*
X401686D02*
X399717D01*
Y374213D01*
X401686D01*
Y376181D01*
D02*
G37*
G36*
X339988Y379558D02*
X339263D01*
X338562Y379370D01*
X337933Y379007D01*
X337420Y378494D01*
X337057Y377866D01*
X336870Y377165D01*
Y376439D01*
X337057Y375738D01*
X337420Y375110D01*
X337884Y374646D01*
X337855Y374435D01*
X337714Y374146D01*
X333545D01*
X332105Y375586D01*
X332193Y375738D01*
X332381Y376439D01*
Y377165D01*
X332193Y377866D01*
X331831Y378494D01*
X331317Y379007D01*
X330689Y379370D01*
X329988Y379558D01*
X329263D01*
X328562Y379370D01*
X327933Y379007D01*
X327420Y378494D01*
X327057Y377866D01*
X326870Y377165D01*
Y376439D01*
X327057Y375738D01*
X327420Y375110D01*
X327933Y374597D01*
X328562Y374234D01*
X329263Y374046D01*
X329988D01*
X330633Y374219D01*
X332419Y372433D01*
X332745Y372216D01*
X333129Y372139D01*
X352635D01*
Y370199D01*
X359525D01*
Y372139D01*
X362930D01*
Y371829D01*
X363021Y371369D01*
X363282Y370979D01*
X363672Y370718D01*
X364132Y370626D01*
X365926D01*
Y369313D01*
X363870Y367258D01*
X363851Y367245D01*
X360616Y364010D01*
X360116Y364217D01*
Y364786D01*
X356671D01*
Y361735D01*
X359823D01*
Y350612D01*
X350471Y341261D01*
X350254Y340935D01*
X350178Y340551D01*
Y325355D01*
X350013Y325190D01*
X349803Y324683D01*
Y324135D01*
X350013Y323629D01*
X350401Y323241D01*
X350414Y323236D01*
X350482Y323076D01*
X350503Y322657D01*
X348425Y320579D01*
X344877D01*
X344467Y321079D01*
X344470Y321097D01*
Y321594D01*
X340215D01*
X335960D01*
Y321097D01*
X335963Y321079D01*
X335553Y320579D01*
X330058D01*
X327869Y322768D01*
X327609Y322942D01*
X327302Y323003D01*
X319811D01*
X319598Y323320D01*
X319077Y323669D01*
X318463Y323791D01*
X312951D01*
X312337Y323669D01*
X311816Y323320D01*
X311468Y322799D01*
X311345Y322185D01*
X311468Y321571D01*
X311816Y321050D01*
X312337Y320702D01*
X312951Y320579D01*
X318463D01*
X319077Y320702D01*
X319598Y321050D01*
X319830Y321397D01*
X326969D01*
X329157Y319209D01*
X329418Y319035D01*
X329725Y318974D01*
X336310D01*
X336608Y318474D01*
X336525Y318273D01*
Y318003D01*
X319811D01*
X319598Y318320D01*
X319077Y318669D01*
X318463Y318791D01*
X312951D01*
X312337Y318669D01*
X311816Y318320D01*
X311468Y317799D01*
X311345Y317185D01*
X311468Y316571D01*
X311816Y316050D01*
X312337Y315702D01*
X312951Y315579D01*
X318463D01*
X319077Y315702D01*
X319598Y316050D01*
X319830Y316397D01*
X336525D01*
Y316097D01*
X336711Y315649D01*
X337159Y315463D01*
X343271D01*
X343719Y315649D01*
X343905Y316097D01*
Y318273D01*
X343822Y318474D01*
X344120Y318974D01*
X348758D01*
X349065Y319035D01*
X349325Y319209D01*
X351514Y321397D01*
X358769D01*
Y321097D01*
X358865Y320865D01*
X358586Y320365D01*
X352499D01*
X352499Y320365D01*
X352192Y320304D01*
X351931Y320130D01*
X351931Y320130D01*
X344804Y313003D01*
X343905D01*
Y313273D01*
X343719Y313721D01*
X343271Y313907D01*
X337159D01*
X336711Y313721D01*
X336525Y313273D01*
Y311667D01*
X336025Y311460D01*
X334718Y312768D01*
X334457Y312942D01*
X334150Y313003D01*
X319811D01*
X319598Y313320D01*
X319077Y313668D01*
X318463Y313791D01*
X312951D01*
X312337Y313668D01*
X311816Y313320D01*
X311468Y312800D01*
X311345Y312185D01*
X311468Y311571D01*
X311816Y311050D01*
X312337Y310702D01*
X312951Y310579D01*
X318463D01*
X319077Y310702D01*
X319598Y311050D01*
X319830Y311397D01*
X333817D01*
X335882Y309332D01*
X335882Y309332D01*
X336143Y309158D01*
X336437Y309100D01*
X336478Y309031D01*
X336660Y308597D01*
X336525Y308273D01*
Y306097D01*
X336711Y305649D01*
X337159Y305464D01*
X343271D01*
X343719Y305649D01*
X343905Y306097D01*
Y306397D01*
X354001D01*
X354308Y306458D01*
X354569Y306632D01*
X356696Y308759D01*
X358430D01*
X358769Y308273D01*
Y306097D01*
X358955Y305649D01*
X359403Y305464D01*
X365515D01*
X365964Y305649D01*
X366149Y306097D01*
Y306397D01*
X391744D01*
X392052Y306458D01*
X392312Y306632D01*
X395919Y310239D01*
X397979D01*
X399730Y308488D01*
X399730Y308487D01*
X399991Y308313D01*
X400298Y308252D01*
X400298Y308252D01*
X426018D01*
X426325Y308313D01*
X426586Y308487D01*
X427030Y308932D01*
X427492Y308740D01*
Y305411D01*
X432020D01*
Y306675D01*
X432991D01*
X433299Y306736D01*
X433559Y306910D01*
X434660Y308011D01*
X435122Y307820D01*
Y307016D01*
X442012D01*
Y313119D01*
X438631D01*
X438607Y313135D01*
X438300Y313196D01*
X437906D01*
X437599Y313135D01*
X437575Y313119D01*
X435122D01*
Y310744D01*
X432659Y308281D01*
X432020D01*
Y309545D01*
X428297D01*
X428105Y310007D01*
X428627Y310529D01*
X432020D01*
Y313684D01*
X433371Y315035D01*
X453193D01*
X453236Y315006D01*
X453543Y314945D01*
X453543Y314945D01*
X470948D01*
X471255Y315006D01*
X471516Y315180D01*
X472527Y316192D01*
X473064Y315882D01*
X473915Y315653D01*
X474796D01*
X475648Y315882D01*
X476411Y316322D01*
X477034Y316945D01*
X477474Y317708D01*
X477605Y318197D01*
X512535D01*
X512843Y318258D01*
X513103Y318432D01*
X514705Y320034D01*
X515177Y319761D01*
X516123Y319508D01*
X517102D01*
X518049Y319761D01*
X518897Y320251D01*
X519590Y320944D01*
X520080Y321792D01*
X520333Y322739D01*
Y323718D01*
X520080Y324664D01*
X519590Y325513D01*
X518897Y326205D01*
X518049Y326695D01*
X517102Y326949D01*
X516123D01*
X515177Y326695D01*
X514328Y326205D01*
X513635Y325513D01*
X513146Y324664D01*
X512892Y323718D01*
Y322739D01*
X513146Y321792D01*
X513529Y321129D01*
X512203Y319803D01*
X477605D01*
X477474Y320292D01*
X477034Y321055D01*
X476411Y321678D01*
X475648Y322118D01*
X474796Y322346D01*
X473915D01*
X473064Y322118D01*
X472301Y321678D01*
X471678Y321055D01*
X471238Y320292D01*
X471009Y319441D01*
Y318559D01*
X471238Y317708D01*
X471433Y317369D01*
X470615Y316551D01*
X453804D01*
X453761Y316580D01*
X453453Y316641D01*
X433039D01*
X433039Y316641D01*
X432731Y316580D01*
X432471Y316406D01*
X430728Y314663D01*
X427492D01*
Y311665D01*
X425686Y309858D01*
X404519D01*
X404232Y310239D01*
Y314767D01*
X403169D01*
Y319888D01*
X404232D01*
Y321044D01*
X404960D01*
X405125Y320879D01*
X405631Y320669D01*
X406180D01*
X406686Y320879D01*
X407074Y321267D01*
X407283Y321773D01*
Y322321D01*
X407074Y322828D01*
X406686Y323215D01*
X406180Y323425D01*
X405631D01*
X405125Y323215D01*
X404960Y323051D01*
X404232D01*
Y324416D01*
X401021D01*
X400818Y324881D01*
X401061Y325181D01*
X414234D01*
X414660Y324756D01*
X414660Y324756D01*
X414920Y324582D01*
X415228Y324521D01*
X415228Y324521D01*
X435122D01*
Y320009D01*
X442012D01*
Y324196D01*
X470199D01*
X470506Y324257D01*
X470767Y324432D01*
X472527Y326192D01*
X473064Y325882D01*
X473915Y325654D01*
X474796D01*
X475648Y325882D01*
X476411Y326322D01*
X477034Y326945D01*
X477474Y327708D01*
X477605Y328197D01*
X524073D01*
Y328191D01*
X524327Y327245D01*
X524817Y326397D01*
X525509Y325704D01*
X526358Y325214D01*
X527304Y324961D01*
X528284D01*
X529230Y325214D01*
X530078Y325704D01*
X530771Y326397D01*
X530981Y326760D01*
X531481Y326626D01*
Y320805D01*
X530753Y320078D01*
X530078Y320753D01*
X529230Y321242D01*
X528284Y321496D01*
X527304D01*
X526358Y321242D01*
X525509Y320753D01*
X524817Y320060D01*
X524327Y319212D01*
X523831Y319294D01*
Y320721D01*
X523996Y320886D01*
X524206Y321392D01*
Y321941D01*
X523996Y322447D01*
X523608Y322835D01*
X523102Y323044D01*
X522554D01*
X522047Y322835D01*
X521660Y322447D01*
X521450Y321941D01*
Y321392D01*
X521660Y320886D01*
X521824Y320721D01*
Y310251D01*
X518876Y307303D01*
X499606D01*
X499222Y307226D01*
X498897Y307009D01*
X491891Y300004D01*
X477552D01*
X477474Y300292D01*
X477034Y301055D01*
X476411Y301678D01*
X475648Y302118D01*
X474796Y302346D01*
X473915D01*
X473064Y302118D01*
X472301Y301678D01*
X471678Y301055D01*
X471238Y300292D01*
X471009Y299441D01*
Y298559D01*
X471087Y298271D01*
X470739Y297854D01*
X403169D01*
Y300590D01*
X404232D01*
Y305118D01*
X404525Y305496D01*
X405179D01*
X409050Y301626D01*
X409310Y301452D01*
X409617Y301391D01*
X435122D01*
Y299143D01*
X442012D01*
Y301953D01*
X467956D01*
X468263Y302014D01*
X468524Y302188D01*
X472527Y306192D01*
X473064Y305882D01*
X473915Y305654D01*
X474796D01*
X475648Y305882D01*
X476411Y306322D01*
X477034Y306945D01*
X477474Y307708D01*
X477702Y308559D01*
Y308864D01*
X515162D01*
X515177Y308856D01*
X516123Y308602D01*
X517102D01*
X518049Y308856D01*
X518897Y309346D01*
X519590Y310038D01*
X520080Y310887D01*
X520333Y311833D01*
Y312813D01*
X520080Y313759D01*
X519590Y314607D01*
X518897Y315300D01*
X518049Y315790D01*
X517102Y316043D01*
X516123D01*
X515177Y315790D01*
X514328Y315300D01*
X513635Y314607D01*
X513146Y313759D01*
X512892Y312813D01*
Y311833D01*
X513123Y310970D01*
X512883Y310470D01*
X477371D01*
X477034Y311055D01*
X476411Y311678D01*
X475648Y312118D01*
X474796Y312347D01*
X473915D01*
X473064Y312118D01*
X472301Y311678D01*
X471678Y311055D01*
X471238Y310292D01*
X471009Y309441D01*
Y308559D01*
X471238Y307708D01*
X471433Y307369D01*
X467623Y303559D01*
X442012D01*
Y305245D01*
X435122D01*
Y302996D01*
X409950D01*
X406079Y306867D01*
X405819Y307041D01*
X405512Y307102D01*
X400296D01*
X400296Y307102D01*
X399989Y307041D01*
X399728Y306867D01*
X397979Y305118D01*
X394980D01*
Y303003D01*
X366149D01*
Y303273D01*
X365964Y303721D01*
X365515Y303906D01*
X359403D01*
X358955Y303721D01*
X358769Y303273D01*
Y301097D01*
X358955Y300649D01*
X359403Y300464D01*
X365515D01*
X365964Y300649D01*
X366149Y301097D01*
Y301397D01*
X394980D01*
Y300590D01*
X399114D01*
Y303982D01*
X399637Y304504D01*
X400098Y304313D01*
Y300590D01*
X401162D01*
Y297854D01*
X355927D01*
X351772Y302010D01*
Y302243D01*
X351562Y302749D01*
X351174Y303137D01*
X350668Y303346D01*
X350120D01*
X349613Y303137D01*
X349524Y303047D01*
X343905D01*
Y303273D01*
X343719Y303721D01*
X343271Y303906D01*
X337159D01*
X336711Y303721D01*
X336525Y303273D01*
Y303189D01*
X330988D01*
Y303670D01*
X324098D01*
Y303189D01*
X319686D01*
X319598Y303320D01*
X319077Y303668D01*
X318463Y303791D01*
X312951D01*
X312337Y303668D01*
X311816Y303320D01*
X311468Y302800D01*
X311345Y302185D01*
X311468Y301571D01*
X311816Y301050D01*
X312337Y300702D01*
X312951Y300579D01*
X318463D01*
X319077Y300702D01*
X319598Y301050D01*
X319686Y301182D01*
X324098D01*
Y297568D01*
X330988D01*
Y301182D01*
X336525D01*
Y301097D01*
X336711Y300649D01*
X337159Y300464D01*
X343271D01*
X343719Y300649D01*
X343881Y301040D01*
X349373D01*
X349613Y300800D01*
X350120Y300590D01*
X350352D01*
X354802Y296141D01*
X355128Y295923D01*
X355512Y295847D01*
X471302D01*
X471686Y295923D01*
X472011Y296141D01*
X472247Y296376D01*
X472301Y296322D01*
X473064Y295882D01*
X473915Y295654D01*
X474796D01*
X475648Y295882D01*
X476411Y296322D01*
X477034Y296945D01*
X477474Y297708D01*
X477552Y297996D01*
X492307D01*
X492691Y298073D01*
X493017Y298290D01*
X500022Y305296D01*
X514889D01*
X515023Y304796D01*
X514328Y304394D01*
X513635Y303702D01*
X513146Y302853D01*
X512892Y301907D01*
Y300927D01*
X513146Y299981D01*
X513635Y299133D01*
X514328Y298440D01*
X515177Y297950D01*
X516123Y297697D01*
X517102D01*
X518049Y297950D01*
X518897Y298440D01*
X519590Y299133D01*
X519772Y299448D01*
X520007Y299401D01*
X520007Y299401D01*
X530241D01*
X530548Y299463D01*
X530809Y299637D01*
X538294Y307121D01*
X538294Y307121D01*
X538468Y307382D01*
X538529Y307689D01*
X538529Y307689D01*
Y341014D01*
X538468Y341321D01*
X538294Y341582D01*
X538294Y341582D01*
X520308Y359568D01*
X520047Y359742D01*
X519740Y359803D01*
X477702D01*
Y362347D01*
X471009D01*
Y356945D01*
X462899Y348834D01*
X441618D01*
Y352347D01*
X463027D01*
X463393Y351981D01*
X463899Y351772D01*
X464447D01*
X464954Y351981D01*
X465341Y352369D01*
X465551Y352875D01*
Y353424D01*
X465341Y353930D01*
X464954Y354318D01*
X464447Y354528D01*
X463899D01*
X463393Y354318D01*
X463027Y353952D01*
X441618D01*
Y354851D01*
X434728D01*
Y352603D01*
X414005D01*
X414005Y352603D01*
X413697Y352542D01*
X413437Y352368D01*
X413437Y352368D01*
X409510Y348441D01*
X404486D01*
X404232Y348835D01*
Y349411D01*
X404731Y349619D01*
X405238Y349410D01*
X405786D01*
X406292Y349619D01*
X406680Y350007D01*
X406890Y350513D01*
Y351062D01*
X406680Y351568D01*
X406292Y351956D01*
X405786Y352165D01*
X405238D01*
X405087Y352103D01*
X404232D01*
Y353363D01*
X401321D01*
X383007Y371677D01*
X383198Y372139D01*
X392618D01*
Y370965D01*
X397146D01*
Y375098D01*
X392618D01*
Y374146D01*
X370956D01*
X370929Y374168D01*
Y375021D01*
X370837Y375481D01*
X370576Y375872D01*
X370186Y376132D01*
X369726Y376224D01*
X364132D01*
X363672Y376132D01*
X363282Y375872D01*
X363021Y375481D01*
X362930Y375021D01*
Y374146D01*
X359525D01*
Y376302D01*
X352635D01*
Y374146D01*
X341537D01*
X341396Y374435D01*
X341367Y374646D01*
X341831Y375110D01*
X342194Y375738D01*
X342381Y376439D01*
Y377165D01*
X342194Y377866D01*
X341831Y378494D01*
X341318Y379007D01*
X340689Y379370D01*
X339988Y379558D01*
D02*
G37*
G36*
X319988D02*
X319263D01*
X318562Y379370D01*
X317933Y379007D01*
X317420Y378494D01*
X317057Y377866D01*
X316869Y377165D01*
Y376439D01*
X317057Y375738D01*
X317420Y375110D01*
X317933Y374597D01*
X318562Y374234D01*
X319263Y374046D01*
X319988D01*
X320689Y374234D01*
X321318Y374597D01*
X321831Y375110D01*
X322194Y375738D01*
X322381Y376439D01*
Y377165D01*
X322194Y377866D01*
X321831Y378494D01*
X321318Y379007D01*
X320689Y379370D01*
X319988Y379558D01*
D02*
G37*
G36*
X312932Y376212D02*
X310216D01*
Y373496D01*
X310917Y373684D01*
X311680Y374124D01*
X312303Y374747D01*
X312744Y375511D01*
X312932Y376212D01*
D02*
G37*
G36*
X309035D02*
X306319D01*
X306507Y375511D01*
X306948Y374747D01*
X307571Y374124D01*
X308334Y373684D01*
X309035Y373496D01*
Y376212D01*
D02*
G37*
G36*
X404836Y373031D02*
X402867D01*
Y371063D01*
X404836D01*
Y373031D01*
D02*
G37*
G36*
X401686D02*
X399717D01*
Y371063D01*
X401686D01*
Y373031D01*
D02*
G37*
G36*
X360116Y369018D02*
X356671D01*
Y365967D01*
X360116D01*
Y369018D01*
D02*
G37*
G36*
X355490D02*
X352045D01*
Y365967D01*
X355490D01*
Y369018D01*
D02*
G37*
G36*
X397146Y369980D02*
X392618D01*
Y365846D01*
X397146D01*
Y366615D01*
X400308D01*
Y365354D01*
X404245D01*
Y369291D01*
X400308D01*
Y368622D01*
X397146D01*
Y369980D01*
D02*
G37*
G36*
X355490Y364786D02*
X352045D01*
Y361735D01*
X355490D01*
Y364786D01*
D02*
G37*
G36*
X318463Y339393D02*
X316298D01*
Y337776D01*
X320553D01*
X320503Y338030D01*
X320024Y338746D01*
X319308Y339225D01*
X318463Y339393D01*
D02*
G37*
G36*
X315116D02*
X312951D01*
X312106Y339225D01*
X311390Y338746D01*
X310911Y338030D01*
X310861Y337776D01*
X315116D01*
Y339393D01*
D02*
G37*
G36*
X343271Y339472D02*
X340806D01*
Y337775D01*
X344470D01*
Y338273D01*
X344379Y338732D01*
X344119Y339121D01*
X343730Y339381D01*
X343271Y339472D01*
D02*
G37*
G36*
X339625D02*
X337159D01*
X336700Y339381D01*
X336311Y339121D01*
X336051Y338732D01*
X335960Y338273D01*
Y337775D01*
X339625D01*
Y339472D01*
D02*
G37*
G36*
X320553Y336595D02*
X316298D01*
Y334977D01*
X318463D01*
X319308Y335145D01*
X320024Y335624D01*
X320503Y336340D01*
X320553Y336595D01*
D02*
G37*
G36*
X315116D02*
X310861D01*
X310911Y336340D01*
X311390Y335624D01*
X312106Y335145D01*
X312951Y334977D01*
X315116D01*
Y336595D01*
D02*
G37*
G36*
X344470Y336594D02*
X340215D01*
X335960D01*
Y336097D01*
X336051Y335638D01*
X336311Y335249D01*
X336700Y334989D01*
X336949Y334940D01*
Y334430D01*
X336700Y334381D01*
X336311Y334121D01*
X336051Y333732D01*
X335960Y333273D01*
Y332775D01*
X340215D01*
X344470D01*
Y333273D01*
X344379Y333732D01*
X344119Y334121D01*
X343730Y334381D01*
X343481Y334430D01*
Y334940D01*
X343730Y334989D01*
X344119Y335249D01*
X344379Y335638D01*
X344470Y336097D01*
Y336594D01*
D02*
G37*
G36*
X318463Y333791D02*
X312951D01*
X312337Y333668D01*
X311816Y333320D01*
X311468Y332800D01*
X311345Y332185D01*
X311468Y331571D01*
X311816Y331050D01*
X312337Y330702D01*
X312951Y330579D01*
X318463D01*
X319077Y330702D01*
X319598Y331050D01*
X319946Y331571D01*
X320069Y332185D01*
X319946Y332800D01*
X319598Y333320D01*
X319077Y333668D01*
X318463Y333791D01*
D02*
G37*
G36*
X344470Y331594D02*
X340806D01*
Y329898D01*
X343271D01*
X343730Y329989D01*
X344119Y330249D01*
X344379Y330639D01*
X344470Y331097D01*
Y331594D01*
D02*
G37*
G36*
X339625D02*
X335960D01*
Y331097D01*
X336051Y330639D01*
X336311Y330249D01*
X336700Y329989D01*
X337159Y329898D01*
X339625D01*
Y331594D01*
D02*
G37*
G36*
X333169Y330413D02*
X331102D01*
Y328150D01*
X333169D01*
Y330413D01*
D02*
G37*
G36*
X329921D02*
X327854D01*
Y330080D01*
X327461Y329823D01*
X327354Y329823D01*
X323327D01*
Y327988D01*
X319820D01*
X319598Y328320D01*
X319077Y328668D01*
X318463Y328791D01*
X312951D01*
X312337Y328668D01*
X311816Y328320D01*
X311468Y327800D01*
X311345Y327185D01*
X311468Y326571D01*
X311816Y326050D01*
X312337Y325702D01*
X312951Y325579D01*
X318463D01*
X319077Y325702D01*
X319598Y326050D01*
X319820Y326382D01*
X323327D01*
Y325295D01*
X327354D01*
X327461Y325295D01*
X327854Y325039D01*
Y324705D01*
X329921D01*
Y327559D01*
Y330413D01*
D02*
G37*
G36*
X343271Y328906D02*
X337159D01*
X336711Y328721D01*
X336525Y328273D01*
Y326097D01*
X336711Y325649D01*
X337159Y325464D01*
X343271D01*
X343719Y325649D01*
X343905Y326097D01*
Y328273D01*
X343719Y328721D01*
X343271Y328906D01*
D02*
G37*
G36*
X333169Y326969D02*
X331102D01*
Y324705D01*
X333169D01*
Y326969D01*
D02*
G37*
G36*
X343271Y324472D02*
X340806D01*
Y322776D01*
X344470D01*
Y323273D01*
X344379Y323731D01*
X344119Y324121D01*
X343730Y324380D01*
X343271Y324472D01*
D02*
G37*
G36*
X339625D02*
X337159D01*
X336700Y324380D01*
X336311Y324121D01*
X336051Y323731D01*
X335960Y323273D01*
Y322776D01*
X339625D01*
Y324472D01*
D02*
G37*
G36*
X318463Y309393D02*
X316298D01*
Y307776D01*
X320553D01*
X320503Y308030D01*
X320024Y308746D01*
X319308Y309225D01*
X318463Y309393D01*
D02*
G37*
G36*
X315116D02*
X312951D01*
X312106Y309225D01*
X311390Y308746D01*
X310911Y308030D01*
X310861Y307776D01*
X315116D01*
Y309393D01*
D02*
G37*
G36*
X320553Y306594D02*
X316298D01*
Y304977D01*
X318463D01*
X319308Y305145D01*
X320024Y305624D01*
X320503Y306340D01*
X320553Y306594D01*
D02*
G37*
G36*
X315116D02*
X310861D01*
X310911Y306340D01*
X311390Y305624D01*
X312106Y305145D01*
X312951Y304977D01*
X315116D01*
Y306594D01*
D02*
G37*
G36*
X331579Y296387D02*
X328134D01*
Y293336D01*
X331579D01*
Y296387D01*
D02*
G37*
G36*
X326953D02*
X323508D01*
Y293336D01*
X326953D01*
Y296387D01*
D02*
G37*
G36*
X474946Y292918D02*
Y289591D01*
X478273D01*
X478025Y290520D01*
X477506Y291417D01*
X476773Y292150D01*
X475876Y292669D01*
X474946Y292918D01*
D02*
G37*
G36*
X473765Y292918D02*
X472836Y292669D01*
X471939Y292150D01*
X471206Y291417D01*
X470687Y290520D01*
X470438Y289591D01*
X473765D01*
Y292918D01*
D02*
G37*
G36*
X331579Y292154D02*
X328134D01*
Y289103D01*
X331579D01*
Y292154D01*
D02*
G37*
G36*
X326953D02*
X323508D01*
Y289103D01*
X326953D01*
Y292154D01*
D02*
G37*
G36*
X473765Y288409D02*
X470438D01*
X470687Y287480D01*
X471206Y286583D01*
X471939Y285850D01*
X472836Y285331D01*
X473765Y285082D01*
Y288409D01*
D02*
G37*
G36*
X478274D02*
X474946D01*
Y285082D01*
X475876Y285331D01*
X476773Y285850D01*
X477506Y286583D01*
X478025Y287480D01*
X478274Y288409D01*
D02*
G37*
%LPD*%
G36*
X398020Y353825D02*
X397829Y353363D01*
X394980D01*
Y350168D01*
X377816Y333003D01*
X366149D01*
Y333273D01*
X365964Y333721D01*
X365515Y333907D01*
X359403D01*
X358955Y333721D01*
X358769Y333273D01*
Y331097D01*
X358955Y330649D01*
X359403Y330464D01*
X365515D01*
X365964Y330649D01*
X366149Y331097D01*
Y331397D01*
X378148D01*
X378455Y331458D01*
X378716Y331632D01*
X395919Y348835D01*
X397979D01*
X399744Y347070D01*
X400004Y346896D01*
X400312Y346835D01*
X400312Y346835D01*
X409842D01*
X410150Y346896D01*
X410410Y347070D01*
X414337Y350997D01*
X434728D01*
Y348834D01*
X431694D01*
X431694Y348834D01*
X431386Y348773D01*
X431330Y348736D01*
X431076D01*
X431076Y348736D01*
X430999Y348721D01*
X427492D01*
Y346177D01*
X402461D01*
X402153Y346116D01*
X402098Y346078D01*
X400676D01*
X400369Y346017D01*
X400108Y345843D01*
X397979Y343714D01*
X394980D01*
Y340518D01*
X382465Y328003D01*
X366149D01*
Y328273D01*
X365964Y328721D01*
X365515Y328906D01*
X359403D01*
X358955Y328721D01*
X358769Y328273D01*
Y326097D01*
X358955Y325649D01*
X359403Y325464D01*
X365515D01*
X365964Y325649D01*
X366149Y326097D01*
Y326397D01*
X382797D01*
X383104Y326458D01*
X383365Y326632D01*
X395919Y339186D01*
X399114D01*
Y342579D01*
X399637Y343101D01*
X400098Y342910D01*
Y339186D01*
X401162D01*
Y334065D01*
X400098D01*
Y330342D01*
X399637Y330150D01*
X399114Y330673D01*
Y334065D01*
X394980D01*
Y330870D01*
X384476Y320365D01*
X366333D01*
X366053Y320865D01*
X366149Y321097D01*
Y323273D01*
X365964Y323721D01*
X365515Y323906D01*
X359403D01*
X358955Y323721D01*
X358769Y323273D01*
Y323003D01*
X352430D01*
X352223Y323503D01*
X352349Y323629D01*
X352559Y324135D01*
Y324683D01*
X352349Y325190D01*
X352185Y325355D01*
Y340136D01*
X361536Y349487D01*
X361754Y349813D01*
X361830Y350197D01*
Y360405D01*
X362328Y360412D01*
X362465Y359721D01*
X362856Y359136D01*
X363442Y358745D01*
X364132Y358607D01*
X366339D01*
Y362008D01*
Y365409D01*
X365552D01*
X365435Y365586D01*
X365359Y365909D01*
X367639Y368188D01*
X367856Y368514D01*
X367933Y368898D01*
Y370626D01*
X368797D01*
Y370554D01*
X368874Y370170D01*
X369091Y369844D01*
X369417Y369627D01*
X369801Y369550D01*
X370185Y369627D01*
X370510Y369844D01*
X370728Y370170D01*
X370804Y370554D01*
Y371320D01*
X370837Y371369D01*
X370929Y371829D01*
Y371926D01*
X370956Y372139D01*
X379706D01*
X398020Y353825D01*
D02*
G37*
G36*
X536923Y340682D02*
Y308022D01*
X529909Y301007D01*
X520333D01*
Y301907D01*
X520080Y302853D01*
X519590Y303702D01*
X518897Y304394D01*
X518202Y304796D01*
X518336Y305296D01*
X519291D01*
X519675Y305372D01*
X520001Y305590D01*
X523537Y309126D01*
X523755Y309452D01*
X523831Y309836D01*
Y316257D01*
X524327Y316339D01*
X524817Y315491D01*
X525509Y314798D01*
X526358Y314309D01*
X527304Y314055D01*
X528284D01*
X529230Y314309D01*
X530078Y314798D01*
X530771Y315491D01*
X531261Y316339D01*
X531514Y317286D01*
Y318265D01*
X531450Y318504D01*
X532851Y319905D01*
X533025Y320165D01*
X533086Y320472D01*
X533086Y320473D01*
Y330010D01*
X533086Y330010D01*
X533025Y330317D01*
X532851Y330577D01*
X528168Y335260D01*
X528010Y335366D01*
X528105Y335866D01*
X528284D01*
X529230Y336120D01*
X530078Y336610D01*
X530771Y337302D01*
X531261Y338151D01*
X531514Y339097D01*
Y340076D01*
X531261Y341023D01*
X530771Y341871D01*
X530078Y342564D01*
X529230Y343054D01*
X528284Y343307D01*
X527304D01*
X526358Y343054D01*
X525509Y342564D01*
X524817Y341871D01*
X524327Y341023D01*
X524073Y340076D01*
Y339097D01*
X524327Y338151D01*
X524817Y337302D01*
X525509Y336610D01*
X526358Y336120D01*
X526821Y335995D01*
X526756Y335495D01*
X523908D01*
X519835Y339568D01*
X519575Y339742D01*
X519268Y339803D01*
X477605D01*
X477474Y340292D01*
X477034Y341055D01*
X476411Y341678D01*
X475648Y342118D01*
X474796Y342347D01*
X473915D01*
X473064Y342118D01*
X472301Y341678D01*
X471678Y341055D01*
X471238Y340292D01*
X471009Y339441D01*
Y338559D01*
X471058Y338378D01*
X470390Y337710D01*
X433628D01*
X433628Y337710D01*
X433320Y337649D01*
X433060Y337475D01*
X430728Y335143D01*
X427492D01*
Y332145D01*
X424497Y329149D01*
X406949D01*
X406795Y329649D01*
X407074Y329928D01*
X407283Y330435D01*
Y330983D01*
X407074Y331489D01*
X406686Y331877D01*
X406180Y332087D01*
X405631D01*
X405125Y331877D01*
X404960Y331712D01*
X404232D01*
Y334065D01*
X403169D01*
Y339186D01*
X404232D01*
Y339962D01*
X404731Y340170D01*
X405238Y339961D01*
X405786D01*
X406292Y340170D01*
X406680Y340558D01*
X406890Y341065D01*
Y341613D01*
X406680Y342119D01*
X406292Y342507D01*
X405786Y342717D01*
X405238D01*
X404731Y342507D01*
X404232Y342715D01*
Y343714D01*
X401046D01*
X400838Y344187D01*
X401068Y344473D01*
X402362D01*
X402669Y344534D01*
X402725Y344571D01*
X428320D01*
X428398Y344587D01*
X432020D01*
Y347229D01*
X434333D01*
X434728Y346977D01*
X434728Y346729D01*
Y343627D01*
X433440Y342338D01*
X432020D01*
Y343602D01*
X427492D01*
Y339469D01*
X432020D01*
Y340733D01*
X433773D01*
X434080Y340794D01*
X434228Y340893D01*
X434728Y340875D01*
X434728Y340875D01*
X434728Y340875D01*
X441618D01*
Y346729D01*
X441618Y346977D01*
X442014Y347229D01*
X463232D01*
X463539Y347290D01*
X463799Y347464D01*
X471989Y355654D01*
X477702D01*
Y358197D01*
X519408D01*
X536923Y340682D01*
D02*
G37*
%LPC*%
G36*
X369726Y365409D02*
X367520D01*
Y362598D01*
X371531D01*
Y363604D01*
X371393Y364295D01*
X371002Y364880D01*
X370416Y365271D01*
X369726Y365409D01*
D02*
G37*
G36*
X371531Y361417D02*
X367520D01*
Y358607D01*
X369726D01*
X370416Y358745D01*
X371002Y359136D01*
X371393Y359721D01*
X371531Y360412D01*
Y361417D01*
D02*
G37*
G36*
X365515Y339472D02*
X363050D01*
Y337776D01*
X366715D01*
Y338273D01*
X366623Y338732D01*
X366363Y339121D01*
X365974Y339381D01*
X365515Y339472D01*
D02*
G37*
G36*
X361869D02*
X359403D01*
X358944Y339381D01*
X358555Y339121D01*
X358295Y338732D01*
X358204Y338273D01*
Y337776D01*
X361869D01*
Y339472D01*
D02*
G37*
G36*
X366715Y336595D02*
X363050D01*
Y334898D01*
X365515D01*
X365974Y334989D01*
X366363Y335249D01*
X366623Y335638D01*
X366715Y336097D01*
Y336595D01*
D02*
G37*
G36*
X361869D02*
X358204D01*
Y336097D01*
X358295Y335638D01*
X358555Y335249D01*
X358944Y334989D01*
X359403Y334898D01*
X361869D01*
Y336595D01*
D02*
G37*
G36*
X520924Y349350D02*
X517203D01*
Y345630D01*
X520924D01*
Y349350D01*
D02*
G37*
G36*
X516022D02*
X512302D01*
Y345630D01*
X516022D01*
Y349350D01*
D02*
G37*
G36*
X520924Y344449D02*
X517203D01*
Y340728D01*
X520924D01*
Y344449D01*
D02*
G37*
G36*
X516022D02*
X512302D01*
Y340728D01*
X516022D01*
Y344449D01*
D02*
G37*
G36*
X474796Y352346D02*
X473915D01*
X473064Y352118D01*
X472301Y351678D01*
X471678Y351055D01*
X471238Y350292D01*
X471009Y349441D01*
Y348559D01*
X471238Y347708D01*
X471678Y346945D01*
X472301Y346322D01*
X473064Y345882D01*
X473915Y345654D01*
X474796D01*
X475648Y345882D01*
X476411Y346322D01*
X477034Y346945D01*
X477474Y347708D01*
X477702Y348559D01*
Y349441D01*
X477571Y349932D01*
X477935Y350378D01*
X523289D01*
X534630Y339037D01*
Y313010D01*
X530774Y309154D01*
X530771Y309155D01*
X530078Y309847D01*
X529230Y310337D01*
X528284Y310591D01*
X527304D01*
X526358Y310337D01*
X525509Y309847D01*
X524817Y309155D01*
X524327Y308306D01*
X524073Y307360D01*
Y306380D01*
X524327Y305434D01*
X524817Y304586D01*
X525509Y303893D01*
X526358Y303403D01*
X527304Y303150D01*
X528284D01*
X529230Y303403D01*
X530078Y303893D01*
X530771Y304586D01*
X531261Y305434D01*
X531514Y306380D01*
Y307360D01*
X531459Y307567D01*
X536001Y312109D01*
X536001Y312109D01*
X536175Y312370D01*
X536236Y312677D01*
X536236Y312677D01*
Y339370D01*
X536236Y339370D01*
X536175Y339677D01*
X536001Y339938D01*
X524190Y351749D01*
X523929Y351923D01*
X523622Y351984D01*
X477369D01*
X477061Y351923D01*
X476801Y351749D01*
X476570Y351518D01*
X476411Y351678D01*
X475648Y352118D01*
X474796Y352346D01*
D02*
G37*
G36*
X274508Y267028D02*
X271457D01*
Y263583D01*
X274508D01*
Y267028D01*
D02*
G37*
G36*
X270276D02*
X267224D01*
Y263583D01*
X270276D01*
Y267028D01*
D02*
G37*
G36*
X274508Y262402D02*
X271457D01*
Y258957D01*
X274508D01*
Y262402D01*
D02*
G37*
G36*
X270276D02*
X267224D01*
Y258957D01*
X270276D01*
Y262402D01*
D02*
G37*
G36*
X289035Y253419D02*
X288334Y253231D01*
X287571Y252790D01*
X286948Y252167D01*
X286507Y251404D01*
X286319Y250703D01*
X289035D01*
Y253419D01*
D02*
G37*
G36*
X281791Y266437D02*
X275689D01*
Y259547D01*
X277778D01*
Y252868D01*
X276870D01*
Y247356D01*
X282381D01*
Y252868D01*
X280588D01*
Y259547D01*
X281791D01*
Y266437D01*
D02*
G37*
G36*
X289035Y249522D02*
X286319D01*
X286507Y248821D01*
X286948Y248058D01*
X287571Y247434D01*
X288334Y246994D01*
X289035Y246806D01*
Y249522D01*
D02*
G37*
G36*
X270571Y220177D02*
X267126D01*
Y217126D01*
X270571D01*
Y220177D01*
D02*
G37*
G36*
X265945D02*
X262500D01*
Y217126D01*
X265945D01*
Y220177D01*
D02*
G37*
G36*
X270571Y215945D02*
X267126D01*
Y212894D01*
X270571D01*
Y215945D01*
D02*
G37*
G36*
X278502Y212703D02*
X276337D01*
X275492Y212535D01*
X274776Y212056D01*
X274297Y211340D01*
X274247Y211086D01*
X278502D01*
Y212703D01*
D02*
G37*
G36*
X310216Y253419D02*
Y250703D01*
X312932D01*
X312744Y251404D01*
X312303Y252167D01*
X311680Y252790D01*
X310917Y253231D01*
X310216Y253419D01*
D02*
G37*
G36*
X309035D02*
X308334Y253231D01*
X307571Y252790D01*
X306948Y252167D01*
X306507Y251404D01*
X306319Y250703D01*
X309035D01*
Y253419D01*
D02*
G37*
G36*
X404836Y249606D02*
X402867D01*
Y247638D01*
X404836D01*
Y249606D01*
D02*
G37*
G36*
X401686D02*
X399717D01*
Y247638D01*
X401686D01*
Y249606D01*
D02*
G37*
G36*
X339988Y252868D02*
X339263D01*
X338562Y252680D01*
X337933Y252318D01*
X337420Y251804D01*
X337057Y251176D01*
X336870Y250475D01*
Y249749D01*
X337057Y249049D01*
X337420Y248420D01*
X337884Y247956D01*
X337855Y247745D01*
X337714Y247456D01*
X333701D01*
X332162Y248995D01*
X332194Y249049D01*
X332381Y249749D01*
Y250475D01*
X332194Y251176D01*
X331831Y251804D01*
X331318Y252318D01*
X330689Y252680D01*
X329988Y252868D01*
X329263D01*
X328562Y252680D01*
X327933Y252318D01*
X327420Y251804D01*
X327057Y251176D01*
X326870Y250475D01*
Y249749D01*
X327057Y249049D01*
X327420Y248420D01*
X327933Y247907D01*
X328562Y247544D01*
X329263Y247356D01*
X329988D01*
X330689Y247544D01*
X330743Y247575D01*
X332575Y245743D01*
X332901Y245526D01*
X333285Y245449D01*
X352635D01*
Y243510D01*
X359525D01*
Y245449D01*
X364505D01*
Y244664D01*
X364596Y244204D01*
X364857Y243813D01*
X365247Y243553D01*
X365707Y243461D01*
X365744D01*
X365951Y242961D01*
X364645Y241654D01*
X364645Y241654D01*
X361101Y238111D01*
X360884Y237786D01*
X360807Y237402D01*
Y233093D01*
X350627Y222913D01*
X350410Y222587D01*
X350333Y222203D01*
Y198665D01*
X350169Y198500D01*
X349959Y197994D01*
Y197446D01*
X350169Y196939D01*
X350556Y196552D01*
X350570Y196546D01*
X350638Y196386D01*
X350659Y195968D01*
X348581Y193890D01*
X344877D01*
X344467Y194390D01*
X344470Y194408D01*
Y194905D01*
X340215D01*
X335960D01*
Y194408D01*
X335963Y194390D01*
X335553Y193890D01*
X330213D01*
X328025Y196078D01*
X327765Y196252D01*
X327457Y196313D01*
X319811D01*
X319598Y196631D01*
X319077Y196979D01*
X318463Y197101D01*
X312951D01*
X312337Y196979D01*
X311816Y196631D01*
X311468Y196110D01*
X311346Y195495D01*
X311468Y194881D01*
X311816Y194360D01*
X312337Y194012D01*
X312951Y193890D01*
X318463D01*
X319077Y194012D01*
X319598Y194360D01*
X319830Y194707D01*
X327125D01*
X329313Y192519D01*
X329574Y192345D01*
X329881Y192284D01*
X336310D01*
X336608Y191784D01*
X336525Y191583D01*
Y191313D01*
X319811D01*
X319598Y191631D01*
X319077Y191979D01*
X318463Y192101D01*
X312951D01*
X312337Y191979D01*
X311816Y191631D01*
X311468Y191110D01*
X311346Y190495D01*
X311468Y189881D01*
X311816Y189360D01*
X312337Y189012D01*
X312951Y188890D01*
X318463D01*
X319077Y189012D01*
X319598Y189360D01*
X319830Y189707D01*
X336525D01*
Y189408D01*
X336711Y188959D01*
X337159Y188774D01*
X343271D01*
X343719Y188959D01*
X343905Y189408D01*
Y191583D01*
X343822Y191784D01*
X344120Y192284D01*
X348914D01*
X349221Y192345D01*
X349481Y192519D01*
X351670Y194707D01*
X358769D01*
Y194408D01*
X358865Y194175D01*
X358586Y193675D01*
X352655D01*
X352655Y193675D01*
X352348Y193614D01*
X352087Y193440D01*
X352087Y193440D01*
X344960Y186313D01*
X343905D01*
Y186583D01*
X343719Y187031D01*
X343271Y187217D01*
X337159D01*
X336711Y187031D01*
X336525Y186583D01*
Y185080D01*
X336063Y184888D01*
X334874Y186078D01*
X334613Y186252D01*
X334306Y186313D01*
X319811D01*
X319598Y186631D01*
X319077Y186979D01*
X318463Y187101D01*
X312951D01*
X312337Y186979D01*
X311816Y186631D01*
X311468Y186110D01*
X311346Y185495D01*
X311468Y184881D01*
X311816Y184360D01*
X312337Y184012D01*
X312951Y183890D01*
X318463D01*
X319077Y184012D01*
X319598Y184360D01*
X319830Y184707D01*
X333973D01*
X336038Y182643D01*
X336038Y182642D01*
X336299Y182468D01*
X336462Y182436D01*
X336648Y182018D01*
X336660Y181907D01*
X336525Y181583D01*
Y179408D01*
X336711Y178959D01*
X337159Y178774D01*
X343271D01*
X343719Y178959D01*
X343905Y179408D01*
Y179707D01*
X354157D01*
X354464Y179769D01*
X354725Y179943D01*
X356852Y182070D01*
X358430D01*
X358769Y181583D01*
Y179408D01*
X358955Y178959D01*
X359403Y178774D01*
X365515D01*
X365964Y178959D01*
X366149Y179408D01*
Y179692D01*
X391729D01*
X392037Y179753D01*
X392297Y179928D01*
X395919Y183549D01*
X399114D01*
Y186942D01*
X399637Y187464D01*
X400098Y187273D01*
Y183549D01*
X404232D01*
Y185492D01*
X404438Y185629D01*
X404986D01*
X405492Y185839D01*
X405880Y186227D01*
X406090Y186733D01*
Y187282D01*
X405880Y187788D01*
X405492Y188176D01*
X404986Y188385D01*
X404438D01*
X403931Y188176D01*
X403833Y188077D01*
X400903D01*
X400711Y188539D01*
X401134Y188961D01*
X425369D01*
X427492Y186838D01*
Y183839D01*
X432020D01*
Y186838D01*
X435324Y190142D01*
X451480D01*
X453131Y188491D01*
X453392Y188317D01*
X453699Y188255D01*
X453699Y188255D01*
X471104D01*
X471411Y188317D01*
X471672Y188491D01*
X472626Y189445D01*
X473064Y189192D01*
X473915Y188964D01*
X474796D01*
X475648Y189192D01*
X476411Y189632D01*
X477034Y190255D01*
X477474Y191019D01*
X477605Y191507D01*
X509688D01*
X509995Y191569D01*
X510255Y191743D01*
X512188Y193675D01*
X514672D01*
X515177Y193384D01*
X516123Y193130D01*
X517102D01*
X518049Y193384D01*
X518897Y193873D01*
X519590Y194566D01*
X520080Y195414D01*
X520333Y196361D01*
Y197340D01*
X520080Y198286D01*
X519590Y199135D01*
X518897Y199828D01*
X518049Y200317D01*
X517102Y200571D01*
X516123D01*
X515177Y200317D01*
X514328Y199828D01*
X513635Y199135D01*
X513146Y198286D01*
X512892Y197340D01*
Y196361D01*
X513048Y195781D01*
X512666Y195281D01*
X511855D01*
X511548Y195220D01*
X511287Y195045D01*
X511287Y195045D01*
X509355Y193113D01*
X477605D01*
X477474Y193602D01*
X477034Y194365D01*
X476411Y194988D01*
X475648Y195429D01*
X474796Y195657D01*
X473915D01*
X473064Y195429D01*
X472301Y194988D01*
X471678Y194365D01*
X471238Y193602D01*
X471009Y192751D01*
Y191870D01*
X471238Y191019D01*
X471491Y190580D01*
X470771Y189861D01*
X454032D01*
X452380Y191513D01*
X452120Y191687D01*
X451813Y191748D01*
X435393D01*
X435186Y192248D01*
X438023Y195084D01*
X443777D01*
Y197507D01*
X470355D01*
X470662Y197568D01*
X470923Y197742D01*
X472626Y199445D01*
X473064Y199192D01*
X473915Y198964D01*
X474796D01*
X475648Y199192D01*
X476411Y199632D01*
X477034Y200255D01*
X477474Y201019D01*
X477605Y201507D01*
X524155D01*
X524327Y200867D01*
X524817Y200019D01*
X525509Y199326D01*
X526358Y198836D01*
X527304Y198583D01*
X528284D01*
X529230Y198836D01*
X530078Y199326D01*
X530771Y200019D01*
X531137Y200652D01*
X531636Y200518D01*
Y194115D01*
X531251Y193730D01*
X530702Y193751D01*
X530078Y194375D01*
X529230Y194865D01*
X528284Y195118D01*
X527304D01*
X526358Y194865D01*
X525509Y194375D01*
X524817Y193682D01*
X524487Y193112D01*
X523987Y193245D01*
Y194032D01*
X524152Y194196D01*
X524362Y194703D01*
Y195251D01*
X524152Y195757D01*
X523764Y196145D01*
X523258Y196355D01*
X522710D01*
X522203Y196145D01*
X521815Y195757D01*
X521606Y195251D01*
Y194703D01*
X521815Y194196D01*
X521980Y194032D01*
Y183562D01*
X519737Y181318D01*
X500468D01*
X500084Y181242D01*
X499758Y181025D01*
X492047Y173314D01*
X477552D01*
X477474Y173602D01*
X477034Y174365D01*
X476411Y174988D01*
X475648Y175429D01*
X474796Y175657D01*
X473915D01*
X473064Y175429D01*
X472301Y174988D01*
X471678Y174365D01*
X471238Y173602D01*
X471160Y173314D01*
X406435D01*
X404232Y175516D01*
Y178428D01*
X401239D01*
X400991Y178928D01*
X401136Y179118D01*
X408329D01*
X411637Y175810D01*
X411637Y175810D01*
X411898Y175636D01*
X412205Y175575D01*
X412205Y175575D01*
X436887D01*
Y174218D01*
X443777D01*
Y177026D01*
X469875D01*
X470182Y177087D01*
X470442Y177261D01*
X472626Y179445D01*
X473064Y179192D01*
X473915Y178964D01*
X474796D01*
X475648Y179192D01*
X476411Y179632D01*
X477034Y180255D01*
X477474Y181019D01*
X477702Y181870D01*
Y182175D01*
X515696D01*
X516003Y182236D01*
X516025Y182251D01*
X516123Y182224D01*
X517102D01*
X518049Y182478D01*
X518897Y182968D01*
X519590Y183660D01*
X520080Y184509D01*
X520333Y185455D01*
Y186435D01*
X520080Y187381D01*
X519590Y188229D01*
X518897Y188922D01*
X518049Y189412D01*
X517102Y189665D01*
X516123D01*
X515177Y189412D01*
X514328Y188922D01*
X513635Y188229D01*
X513146Y187381D01*
X512892Y186435D01*
Y185455D01*
X513146Y184509D01*
X513316Y184213D01*
X513066Y183780D01*
X477371D01*
X477034Y184365D01*
X476411Y184988D01*
X475648Y185429D01*
X474796Y185657D01*
X473915D01*
X473064Y185429D01*
X472301Y184988D01*
X471678Y184365D01*
X471238Y183602D01*
X471009Y182751D01*
Y181870D01*
X471238Y181019D01*
X471491Y180580D01*
X469542Y178632D01*
X443777D01*
Y180321D01*
X437382D01*
X436958Y180321D01*
X436655Y180724D01*
X438023Y182092D01*
X443777D01*
Y188195D01*
X436887D01*
Y183228D01*
X435251Y181591D01*
X432020D01*
Y182855D01*
X427492D01*
Y178721D01*
X432020D01*
Y179985D01*
X435583D01*
X435891Y180046D01*
X436151Y180220D01*
X436484Y180553D01*
X436887Y180250D01*
X436887Y179850D01*
Y177181D01*
X412537D01*
X409229Y180489D01*
X408969Y180663D01*
X408661Y180724D01*
X400608D01*
X400608Y180724D01*
X400300Y180663D01*
X400040Y180489D01*
X400040Y180489D01*
X397979Y178428D01*
X394980D01*
Y176298D01*
X366149D01*
Y176583D01*
X365964Y177031D01*
X365515Y177217D01*
X359403D01*
X358955Y177031D01*
X358769Y176583D01*
Y174408D01*
X358955Y173959D01*
X359306Y173814D01*
X359207Y173314D01*
X353934D01*
X351928Y175320D01*
Y175553D01*
X351718Y176059D01*
X351330Y176447D01*
X350824Y176657D01*
X350275D01*
X349769Y176447D01*
X349680Y176358D01*
X343905D01*
Y176583D01*
X343719Y177031D01*
X343271Y177217D01*
X337159D01*
X336711Y177031D01*
X336525Y176583D01*
Y176499D01*
X332753D01*
Y178746D01*
X325864D01*
Y176499D01*
X319686D01*
X319598Y176631D01*
X319077Y176979D01*
X318463Y177101D01*
X312951D01*
X312337Y176979D01*
X311816Y176631D01*
X311468Y176110D01*
X311346Y175495D01*
X311468Y174881D01*
X311816Y174360D01*
X312337Y174012D01*
X312951Y173890D01*
X318463D01*
X319077Y174012D01*
X319598Y174360D01*
X319686Y174492D01*
X325864D01*
Y172643D01*
X332753D01*
Y174492D01*
X336525D01*
Y174408D01*
X336711Y173959D01*
X337159Y173774D01*
X343271D01*
X343719Y173959D01*
X343881Y174351D01*
X349529D01*
X349769Y174111D01*
X350275Y173901D01*
X350508D01*
X352808Y171601D01*
X353134Y171383D01*
X353518Y171307D01*
X471160D01*
X471238Y171019D01*
X471678Y170255D01*
X472301Y169632D01*
X473064Y169192D01*
X473915Y168964D01*
X474796D01*
X475648Y169192D01*
X476411Y169632D01*
X477034Y170255D01*
X477474Y171019D01*
X477552Y171307D01*
X492463D01*
X492847Y171383D01*
X493173Y171601D01*
X500883Y179311D01*
X520153D01*
X520537Y179388D01*
X520862Y179605D01*
X523693Y182436D01*
X523911Y182762D01*
X523987Y183146D01*
Y189550D01*
X524487Y189684D01*
X524817Y189113D01*
X525509Y188420D01*
X526358Y187931D01*
X527304Y187677D01*
X528284D01*
X529230Y187931D01*
X530078Y188420D01*
X530771Y189113D01*
X531261Y189962D01*
X531514Y190908D01*
Y191722D01*
X533007Y193215D01*
X533181Y193475D01*
X533242Y193783D01*
X533242Y193783D01*
Y204569D01*
X533242Y204569D01*
X533181Y204876D01*
X533007Y205136D01*
X533007Y205136D01*
X529417Y208727D01*
X529156Y208900D01*
X528849Y208962D01*
X524457D01*
X520541Y212878D01*
X520281Y213052D01*
X519973Y213113D01*
X477605D01*
X477474Y213602D01*
X477034Y214365D01*
X476411Y214988D01*
X475648Y215429D01*
X474796Y215657D01*
X473915D01*
X473064Y215429D01*
X472301Y214988D01*
X471678Y214365D01*
X471238Y213602D01*
X471009Y212751D01*
Y211870D01*
X471091Y211566D01*
X470545Y211020D01*
X433783D01*
X433783Y211020D01*
X433476Y210959D01*
X433216Y210785D01*
X430884Y208454D01*
X428627D01*
X427065Y210016D01*
X426804Y210191D01*
X426497Y210252D01*
X401188D01*
X400881Y210191D01*
X400620Y210016D01*
X400620Y210016D01*
X397979Y207375D01*
X394980D01*
Y205914D01*
X393300D01*
X392993Y205853D01*
X392733Y205679D01*
X380729Y193675D01*
X366333D01*
X366053Y194175D01*
X366149Y194408D01*
Y196583D01*
X365964Y197031D01*
X365515Y197217D01*
X359403D01*
X358955Y197031D01*
X358769Y196583D01*
Y196313D01*
X352586D01*
X352379Y196813D01*
X352505Y196939D01*
X352715Y197446D01*
Y197994D01*
X352505Y198500D01*
X352341Y198665D01*
Y221788D01*
X362521Y231968D01*
X362738Y232293D01*
X362815Y232677D01*
Y236986D01*
X366064Y240235D01*
X366064Y240235D01*
X367917Y242089D01*
X368135Y242414D01*
X368211Y242798D01*
Y243461D01*
X371301D01*
X371761Y243553D01*
X372151Y243813D01*
X372412Y244204D01*
X372503Y244664D01*
Y245449D01*
X380691D01*
X398967Y227173D01*
X398760Y226673D01*
X394980D01*
Y223478D01*
X377800Y206298D01*
X366149D01*
Y206583D01*
X365964Y207031D01*
X365515Y207217D01*
X359403D01*
X358955Y207031D01*
X358769Y206583D01*
Y204408D01*
X358955Y203959D01*
X359403Y203774D01*
X365515D01*
X365964Y203959D01*
X366149Y204408D01*
Y204692D01*
X378133D01*
X378440Y204753D01*
X378701Y204927D01*
X395919Y222146D01*
X397979D01*
X399465Y220660D01*
X399725Y220486D01*
X400032Y220425D01*
X400672D01*
X400879Y219925D01*
X397979Y217024D01*
X394980D01*
Y213632D01*
X382646Y201298D01*
X366149D01*
Y201583D01*
X365964Y202031D01*
X365515Y202217D01*
X359403D01*
X358955Y202031D01*
X358769Y201583D01*
Y199408D01*
X358955Y198959D01*
X359403Y198774D01*
X365515D01*
X365964Y198959D01*
X366149Y199408D01*
Y199692D01*
X382979D01*
X383286Y199753D01*
X383547Y199927D01*
X396116Y212497D01*
X399114D01*
Y215889D01*
X399637Y216411D01*
X400098Y216220D01*
Y212497D01*
X404232D01*
Y213191D01*
X404731Y213399D01*
X405238Y213189D01*
X405786D01*
X406292Y213399D01*
X406680Y213786D01*
X406890Y214293D01*
Y214841D01*
X406680Y215348D01*
X406292Y215735D01*
X405786Y215945D01*
X405238D01*
X404801Y215764D01*
X404232D01*
Y217024D01*
X400903D01*
X400711Y217486D01*
X402044Y218819D01*
X427492D01*
Y217897D01*
X432020D01*
Y220895D01*
X433260Y222136D01*
X436028D01*
X436494Y222053D01*
X436494Y221636D01*
Y217086D01*
X435056Y215649D01*
X432020D01*
Y216913D01*
X427492D01*
Y212779D01*
X432020D01*
Y214043D01*
X435389D01*
X435696Y214104D01*
X435957Y214278D01*
X437629Y215950D01*
X443384D01*
X443384Y222053D01*
X443849Y222136D01*
X464984D01*
X465292Y222197D01*
X465552Y222371D01*
X472145Y228964D01*
X477702D01*
Y231507D01*
X519563D01*
X537079Y213992D01*
Y181332D01*
X528560Y172813D01*
X520123D01*
X519873Y173246D01*
X520080Y173603D01*
X520333Y174550D01*
Y175529D01*
X520080Y176475D01*
X519590Y177324D01*
X518897Y178016D01*
X518049Y178506D01*
X517102Y178760D01*
X516123D01*
X515177Y178506D01*
X514328Y178016D01*
X513635Y177324D01*
X513146Y176475D01*
X512892Y175529D01*
Y174550D01*
X513146Y173603D01*
X513635Y172755D01*
X514328Y172062D01*
X515177Y171572D01*
X516123Y171319D01*
X516959D01*
X517035Y171268D01*
X517342Y171207D01*
X528893D01*
X529200Y171268D01*
X529460Y171443D01*
X538449Y180432D01*
X538450Y180432D01*
X538624Y180692D01*
X538685Y180999D01*
X538685Y180999D01*
Y214324D01*
X538624Y214632D01*
X538450Y214892D01*
X538449Y214892D01*
X520464Y232878D01*
X520203Y233052D01*
X519896Y233113D01*
X477702D01*
Y235657D01*
X471009D01*
Y230099D01*
X464652Y223741D01*
X443849D01*
X443384Y223824D01*
X443384Y224241D01*
Y225657D01*
X463183D01*
X463549Y225292D01*
X464055Y225082D01*
X464603D01*
X465110Y225292D01*
X465497Y225679D01*
X465707Y226186D01*
Y226734D01*
X465497Y227240D01*
X465110Y227628D01*
X464603Y227838D01*
X464055D01*
X463549Y227628D01*
X463183Y227263D01*
X443384D01*
Y229927D01*
X436494D01*
Y225415D01*
X418063D01*
X417756Y225354D01*
X417495Y225180D01*
X414346Y222030D01*
X406522D01*
X406447Y222169D01*
X406369Y222530D01*
X406680Y222842D01*
X406890Y223348D01*
Y223896D01*
X406680Y224403D01*
X406292Y224790D01*
X405786Y225000D01*
X405553D01*
X404232Y226321D01*
Y226673D01*
X403792D01*
X403730Y226714D01*
X403346Y226791D01*
X402962Y226714D01*
X402901Y226673D01*
X402047D01*
X402010Y226860D01*
X401792Y227186D01*
X383991Y244987D01*
X384182Y245449D01*
X392618D01*
Y244390D01*
X397146D01*
Y248524D01*
X392618D01*
Y247456D01*
X372503D01*
Y247856D01*
X372412Y248316D01*
X372151Y248706D01*
X371761Y248967D01*
X371301Y249059D01*
X365707D01*
X365247Y248967D01*
X364857Y248706D01*
X364596Y248316D01*
X364505Y247856D01*
Y247456D01*
X359525D01*
Y249612D01*
X352635D01*
Y247456D01*
X341537D01*
X341396Y247745D01*
X341367Y247956D01*
X341831Y248420D01*
X342194Y249049D01*
X342381Y249749D01*
Y250475D01*
X342194Y251176D01*
X341831Y251804D01*
X341318Y252318D01*
X340689Y252680D01*
X339988Y252868D01*
D02*
G37*
G36*
X319988D02*
X319263D01*
X318562Y252680D01*
X317933Y252318D01*
X317420Y251804D01*
X317057Y251176D01*
X316870Y250475D01*
Y249749D01*
X317057Y249049D01*
X317420Y248420D01*
X317933Y247907D01*
X318562Y247544D01*
X319263Y247356D01*
X319988D01*
X320689Y247544D01*
X321318Y247907D01*
X321831Y248420D01*
X322194Y249049D01*
X322381Y249749D01*
Y250475D01*
X322194Y251176D01*
X321831Y251804D01*
X321318Y252318D01*
X320689Y252680D01*
X319988Y252868D01*
D02*
G37*
G36*
X312932Y249522D02*
X310216D01*
Y246806D01*
X310917Y246994D01*
X311680Y247434D01*
X312303Y248058D01*
X312744Y248821D01*
X312932Y249522D01*
D02*
G37*
G36*
X309035D02*
X306319D01*
X306507Y248821D01*
X306948Y248058D01*
X307571Y247434D01*
X308334Y246994D01*
X309035Y246806D01*
Y249522D01*
D02*
G37*
G36*
X404836Y246457D02*
X402867D01*
Y244488D01*
X404836D01*
Y246457D01*
D02*
G37*
G36*
X401686D02*
X399717D01*
Y244488D01*
X401686D01*
Y246457D01*
D02*
G37*
G36*
X360116Y242328D02*
X356671D01*
Y239277D01*
X360116D01*
Y242328D01*
D02*
G37*
G36*
X355490D02*
X352045D01*
Y239277D01*
X355490D01*
Y242328D01*
D02*
G37*
G36*
X397146Y243406D02*
X392618D01*
Y239272D01*
X397146D01*
Y240040D01*
X400308D01*
Y238779D01*
X404245D01*
Y242717D01*
X400308D01*
Y242047D01*
X397146D01*
Y243406D01*
D02*
G37*
G36*
X371301Y238243D02*
X369094D01*
Y235433D01*
X373106D01*
Y236438D01*
X372968Y237129D01*
X372577Y237715D01*
X371991Y238106D01*
X371301Y238243D01*
D02*
G37*
G36*
X367913D02*
X365707D01*
X365017Y238106D01*
X364431Y237715D01*
X364040Y237129D01*
X363902Y236438D01*
Y235433D01*
X367913D01*
Y238243D01*
D02*
G37*
G36*
X360116Y238096D02*
X356671D01*
Y235045D01*
X360116D01*
Y238096D01*
D02*
G37*
G36*
X355490D02*
X352045D01*
Y235045D01*
X355490D01*
Y238096D01*
D02*
G37*
G36*
X373106Y234252D02*
X369094D01*
Y231442D01*
X371301D01*
X371991Y231579D01*
X372577Y231970D01*
X372968Y232556D01*
X373106Y233247D01*
Y234252D01*
D02*
G37*
G36*
X367913D02*
X363902D01*
Y233247D01*
X364040Y232556D01*
X364431Y231970D01*
X365017Y231579D01*
X365707Y231442D01*
X367913D01*
Y234252D01*
D02*
G37*
G36*
X520924Y222972D02*
X517203D01*
Y219252D01*
X520924D01*
Y222972D01*
D02*
G37*
G36*
X516022D02*
X512302D01*
Y219252D01*
X516022D01*
Y222972D01*
D02*
G37*
G36*
X520924Y218071D02*
X517203D01*
Y214350D01*
X520924D01*
Y218071D01*
D02*
G37*
G36*
X516022D02*
X512302D01*
Y214350D01*
X516022D01*
Y218071D01*
D02*
G37*
G36*
X318463Y212703D02*
X316298D01*
Y211086D01*
X320553D01*
X320503Y211340D01*
X320024Y212056D01*
X319308Y212535D01*
X318463Y212703D01*
D02*
G37*
G36*
X315117D02*
X312951D01*
X312106Y212535D01*
X311390Y212056D01*
X310911Y211340D01*
X310861Y211086D01*
X315117D01*
Y212703D01*
D02*
G37*
G36*
X365515Y212782D02*
X363050D01*
Y211086D01*
X366715D01*
Y211583D01*
X366623Y212042D01*
X366363Y212431D01*
X365974Y212691D01*
X365515Y212782D01*
D02*
G37*
G36*
X361869D02*
X359403D01*
X358944Y212691D01*
X358555Y212431D01*
X358295Y212042D01*
X358204Y211583D01*
Y211086D01*
X361869D01*
Y212782D01*
D02*
G37*
G36*
X343271D02*
X340806D01*
Y211086D01*
X344470D01*
Y211583D01*
X344379Y212042D01*
X344119Y212431D01*
X343730Y212691D01*
X343271Y212782D01*
D02*
G37*
G36*
X339625D02*
X337159D01*
X336700Y212691D01*
X336311Y212431D01*
X336051Y212042D01*
X335960Y211583D01*
Y211086D01*
X339625D01*
Y212782D01*
D02*
G37*
G36*
X528284Y216929D02*
X527304D01*
X526358Y216676D01*
X525509Y216186D01*
X524817Y215493D01*
X524327Y214645D01*
X524073Y213699D01*
Y212719D01*
X524327Y211773D01*
X524817Y210924D01*
X525509Y210232D01*
X526358Y209742D01*
X527304Y209488D01*
X528284D01*
X529230Y209742D01*
X530078Y210232D01*
X530771Y210924D01*
X531261Y211773D01*
X531514Y212719D01*
Y213699D01*
X531261Y214645D01*
X530771Y215493D01*
X530078Y216186D01*
X529230Y216676D01*
X528284Y216929D01*
D02*
G37*
G36*
X320553Y209905D02*
X316298D01*
Y208288D01*
X318463D01*
X319308Y208455D01*
X320024Y208934D01*
X320503Y209650D01*
X320553Y209905D01*
D02*
G37*
G36*
X315117D02*
X310861D01*
X310911Y209650D01*
X311390Y208934D01*
X312106Y208455D01*
X312951Y208288D01*
X315117D01*
Y209905D01*
D02*
G37*
G36*
X366715Y209905D02*
X363050D01*
Y208208D01*
X365515D01*
X365974Y208300D01*
X366363Y208560D01*
X366623Y208949D01*
X366715Y209408D01*
Y209905D01*
D02*
G37*
G36*
X361869D02*
X358204D01*
Y209408D01*
X358295Y208949D01*
X358555Y208560D01*
X358944Y208300D01*
X359403Y208208D01*
X361869D01*
Y209905D01*
D02*
G37*
G36*
X344470Y209905D02*
X340215D01*
X335960D01*
Y209408D01*
X336051Y208949D01*
X336311Y208560D01*
X336700Y208300D01*
X336949Y208250D01*
Y207740D01*
X336700Y207691D01*
X336311Y207431D01*
X336051Y207042D01*
X335960Y206583D01*
Y206086D01*
X340215D01*
X344470D01*
Y206583D01*
X344379Y207042D01*
X344119Y207431D01*
X343730Y207691D01*
X343481Y207740D01*
Y208250D01*
X343730Y208300D01*
X344119Y208560D01*
X344379Y208949D01*
X344470Y209408D01*
Y209905D01*
D02*
G37*
G36*
X318463Y207101D02*
X312951D01*
X312337Y206979D01*
X311816Y206631D01*
X311468Y206110D01*
X311346Y205495D01*
X311468Y204881D01*
X311816Y204360D01*
X312337Y204012D01*
X312951Y203890D01*
X318463D01*
X319077Y204012D01*
X319598Y204360D01*
X319946Y204881D01*
X320069Y205495D01*
X319946Y206110D01*
X319598Y206631D01*
X319077Y206979D01*
X318463Y207101D01*
D02*
G37*
G36*
X344470Y204905D02*
X340806D01*
Y203208D01*
X343271D01*
X343730Y203300D01*
X344119Y203560D01*
X344379Y203949D01*
X344470Y204408D01*
Y204905D01*
D02*
G37*
G36*
X339625D02*
X335960D01*
Y204408D01*
X336051Y203949D01*
X336311Y203560D01*
X336700Y203300D01*
X337159Y203208D01*
X339625D01*
Y204905D01*
D02*
G37*
G36*
X330315Y203642D02*
X328248D01*
Y203308D01*
X327854Y203051D01*
X327748Y203051D01*
X323721D01*
Y201590D01*
X319625D01*
X319598Y201631D01*
X319077Y201979D01*
X318463Y202101D01*
X312951D01*
X312337Y201979D01*
X311816Y201631D01*
X311468Y201110D01*
X311346Y200495D01*
X311468Y199881D01*
X311816Y199360D01*
X312337Y199012D01*
X312951Y198890D01*
X318463D01*
X319077Y199012D01*
X319598Y199360D01*
X319946Y199881D01*
X319967Y199985D01*
X323721D01*
Y198524D01*
X327748D01*
X327854Y198524D01*
X328248Y198267D01*
Y197933D01*
X330315D01*
Y200787D01*
Y203642D01*
D02*
G37*
G36*
X333563D02*
X331496D01*
Y201378D01*
X333563D01*
Y203642D01*
D02*
G37*
G36*
X343271Y202217D02*
X337159D01*
X336711Y202031D01*
X336525Y201583D01*
Y199408D01*
X336711Y198959D01*
X337159Y198774D01*
X343271D01*
X343719Y198959D01*
X343905Y199408D01*
Y201583D01*
X343719Y202031D01*
X343271Y202217D01*
D02*
G37*
G36*
X333563Y200197D02*
X331496D01*
Y197933D01*
X333563D01*
Y200197D01*
D02*
G37*
G36*
X343271Y197782D02*
X340806D01*
Y196086D01*
X344470D01*
Y196583D01*
X344379Y197042D01*
X344119Y197431D01*
X343730Y197691D01*
X343271Y197782D01*
D02*
G37*
G36*
X339625D02*
X337159D01*
X336700Y197691D01*
X336311Y197431D01*
X336051Y197042D01*
X335960Y196583D01*
Y196086D01*
X339625D01*
Y197782D01*
D02*
G37*
G36*
X474796Y225657D02*
X473915D01*
X473064Y225429D01*
X472301Y224988D01*
X471678Y224365D01*
X471238Y223602D01*
X471009Y222751D01*
Y221870D01*
X471238Y221019D01*
X471678Y220255D01*
X472301Y219632D01*
X473064Y219192D01*
X473915Y218964D01*
X474796D01*
X475648Y219192D01*
X476411Y219632D01*
X477034Y220255D01*
X477474Y221019D01*
X477702Y221870D01*
Y222751D01*
X477594Y223154D01*
X477962Y223607D01*
X523527D01*
X534786Y212348D01*
Y186320D01*
X531188Y182722D01*
X530771Y182777D01*
X530078Y183469D01*
X529230Y183959D01*
X528284Y184213D01*
X527304D01*
X526358Y183959D01*
X525509Y183469D01*
X524817Y182776D01*
X524327Y181928D01*
X524073Y180982D01*
Y180002D01*
X524327Y179056D01*
X524817Y178208D01*
X525509Y177515D01*
X526358Y177025D01*
X527304Y176772D01*
X528284D01*
X529230Y177025D01*
X530078Y177515D01*
X530771Y178208D01*
X531261Y179056D01*
X531514Y180002D01*
Y180777D01*
X536157Y185420D01*
X536157Y185420D01*
X536331Y185680D01*
X536392Y185987D01*
X536392Y185987D01*
Y212680D01*
X536392Y212680D01*
X536331Y212987D01*
X536157Y213248D01*
X524428Y224977D01*
X524167Y225151D01*
X523860Y225212D01*
X477376D01*
X477069Y225151D01*
X476809Y224977D01*
X476615Y224784D01*
X476411Y224988D01*
X475648Y225429D01*
X474796Y225657D01*
D02*
G37*
G36*
X318463Y182703D02*
X316298D01*
Y181086D01*
X320553D01*
X320503Y181340D01*
X320024Y182056D01*
X319308Y182535D01*
X318463Y182703D01*
D02*
G37*
G36*
X315117D02*
X312951D01*
X312106Y182535D01*
X311390Y182056D01*
X310911Y181340D01*
X310861Y181086D01*
X315117D01*
Y182703D01*
D02*
G37*
G36*
X320553Y179905D02*
X316298D01*
Y178287D01*
X318463D01*
X319308Y178455D01*
X320024Y178934D01*
X320503Y179650D01*
X320553Y179905D01*
D02*
G37*
G36*
X315117D02*
X310861D01*
X310911Y179650D01*
X311390Y178934D01*
X312106Y178455D01*
X312951Y178287D01*
X315117D01*
Y179905D01*
D02*
G37*
G36*
X333344Y171462D02*
X329899D01*
Y168411D01*
X333344D01*
Y171462D01*
D02*
G37*
G36*
X328718D02*
X325273D01*
Y168411D01*
X328718D01*
Y171462D01*
D02*
G37*
G36*
X333344Y167230D02*
X329899D01*
Y164179D01*
X333344D01*
Y167230D01*
D02*
G37*
G36*
X328718D02*
X325273D01*
Y164179D01*
X328718D01*
Y167230D01*
D02*
G37*
G36*
X474946Y166228D02*
Y162901D01*
X478274D01*
X478025Y163830D01*
X477506Y164728D01*
X476773Y165461D01*
X475876Y165979D01*
X474946Y166228D01*
D02*
G37*
G36*
X473765Y166228D02*
X472836Y165979D01*
X471939Y165461D01*
X471206Y164728D01*
X470687Y163830D01*
X470438Y162901D01*
X473765D01*
Y166228D01*
D02*
G37*
G36*
Y161720D02*
X470438D01*
X470687Y160791D01*
X471206Y159893D01*
X471939Y159160D01*
X472836Y158642D01*
X473765Y158393D01*
Y161720D01*
D02*
G37*
G36*
X478273D02*
X474946D01*
Y158393D01*
X475876Y158642D01*
X476773Y159160D01*
X477506Y159893D01*
X478025Y160791D01*
X478273Y161720D01*
D02*
G37*
G36*
X39590Y150553D02*
Y147491D01*
X42653D01*
X42430Y148321D01*
X41945Y149160D01*
X41260Y149846D01*
X40421Y150330D01*
X39590Y150553D01*
D02*
G37*
G36*
X38409D02*
X37579Y150330D01*
X36740Y149846D01*
X36054Y149160D01*
X35570Y148321D01*
X35347Y147491D01*
X38409D01*
Y150553D01*
D02*
G37*
G36*
X29407Y149991D02*
X28593D01*
X27807Y149780D01*
X27102Y149373D01*
X26527Y148798D01*
X26120Y148093D01*
X25909Y147307D01*
Y146493D01*
X26120Y145707D01*
X26527Y145002D01*
X27102Y144427D01*
X27807Y144020D01*
X28593Y143809D01*
X29407D01*
X30193Y144020D01*
X30898Y144427D01*
X31473Y145002D01*
X31880Y145707D01*
X32090Y146493D01*
Y147307D01*
X31880Y148093D01*
X31473Y148798D01*
X30898Y149373D01*
X30193Y149780D01*
X29407Y149991D01*
D02*
G37*
G36*
X-42480Y182051D02*
X-48976D01*
X-55472D01*
Y180575D01*
X-54882D01*
Y178410D01*
X-55472D01*
Y176933D01*
X-48976D01*
X-42480D01*
Y178410D01*
X-42096Y178689D01*
X-18109D01*
X-3200Y163780D01*
X-2939Y163606D01*
X-2632Y163545D01*
X-2632Y163545D01*
X1220D01*
X15909Y148855D01*
Y143809D01*
X22091D01*
Y149991D01*
X17045D01*
X2120Y164915D01*
X1860Y165089D01*
X1552Y165150D01*
X-2300D01*
X-17209Y180060D01*
X-17470Y180234D01*
X-17777Y180295D01*
X-42096D01*
X-42480Y180575D01*
Y182051D01*
D02*
G37*
G36*
X42653Y146309D02*
X39590D01*
Y143247D01*
X40421Y143470D01*
X41260Y143954D01*
X41945Y144640D01*
X42430Y145479D01*
X42653Y146309D01*
D02*
G37*
G36*
X38409D02*
X35347D01*
X35570Y145479D01*
X36054Y144640D01*
X36740Y143954D01*
X37579Y143470D01*
X38409Y143247D01*
Y146309D01*
D02*
G37*
G36*
X-42480Y150555D02*
X-48976D01*
X-55472D01*
Y149079D01*
X-54882D01*
Y146823D01*
X-54882Y146520D01*
X-54882Y146020D01*
Y143764D01*
X-55472D01*
Y142287D01*
X-48976D01*
X-42480D01*
Y143764D01*
X-43071D01*
Y146020D01*
X-43071Y146323D01*
X-43071Y146823D01*
Y149079D01*
X-42480D01*
Y150555D01*
D02*
G37*
G36*
X39590Y140553D02*
Y137491D01*
X42653D01*
X42430Y138321D01*
X41945Y139160D01*
X41260Y139846D01*
X40421Y140330D01*
X39590Y140553D01*
D02*
G37*
G36*
X38409D02*
X37579Y140330D01*
X36740Y139846D01*
X36054Y139160D01*
X35570Y138321D01*
X35347Y137491D01*
X38409D01*
Y140553D01*
D02*
G37*
G36*
X29407Y139991D02*
X28593D01*
X27807Y139780D01*
X27102Y139373D01*
X26527Y138798D01*
X26120Y138093D01*
X25909Y137307D01*
Y136493D01*
X26120Y135707D01*
X26527Y135002D01*
X27102Y134427D01*
X27807Y134020D01*
X28593Y133809D01*
X29407D01*
X30193Y134020D01*
X30898Y134427D01*
X31473Y135002D01*
X31880Y135707D01*
X32090Y136493D01*
Y137307D01*
X31880Y138093D01*
X31473Y138798D01*
X30898Y139373D01*
X30193Y139780D01*
X29407Y139991D01*
D02*
G37*
G36*
X-42480Y175752D02*
X-48976D01*
X-55472D01*
Y174276D01*
X-54882D01*
Y172110D01*
X-55472D01*
Y170634D01*
X-48976D01*
X-42480D01*
Y172110D01*
X-42096Y172390D01*
X-17625D01*
X16322Y138443D01*
X16120Y138093D01*
X15909Y137307D01*
Y136493D01*
X16120Y135707D01*
X16527Y135002D01*
X17102Y134427D01*
X17807Y134020D01*
X18593Y133809D01*
X19407D01*
X20193Y134020D01*
X20898Y134427D01*
X21473Y135002D01*
X21880Y135707D01*
X22091Y136493D01*
Y137307D01*
X21880Y138093D01*
X21473Y138798D01*
X20898Y139373D01*
X20193Y139780D01*
X19407Y139991D01*
X18593D01*
X17807Y139780D01*
X17457Y139578D01*
X-16725Y173760D01*
X-16986Y173934D01*
X-17293Y173996D01*
X-42096D01*
X-42480Y174276D01*
Y175752D01*
D02*
G37*
G36*
X42653Y136310D02*
X39590D01*
Y133247D01*
X40421Y133470D01*
X41260Y133954D01*
X41945Y134640D01*
X42430Y135479D01*
X42653Y136310D01*
D02*
G37*
G36*
X38409D02*
X35347D01*
X35570Y135479D01*
X36054Y134640D01*
X36740Y133954D01*
X37579Y133470D01*
X38409Y133247D01*
Y136310D01*
D02*
G37*
G36*
X39590Y130553D02*
Y127491D01*
X42653D01*
X42430Y128321D01*
X41945Y129160D01*
X41260Y129846D01*
X40421Y130330D01*
X39590Y130553D01*
D02*
G37*
G36*
X38409D02*
X37579Y130330D01*
X36740Y129846D01*
X36054Y129160D01*
X35570Y128321D01*
X35347Y127491D01*
X38409D01*
Y130553D01*
D02*
G37*
G36*
X29407Y129991D02*
X28593D01*
X27807Y129780D01*
X27102Y129373D01*
X26527Y128798D01*
X26120Y128093D01*
X25909Y127307D01*
Y126493D01*
X26120Y125707D01*
X26527Y125002D01*
X27102Y124427D01*
X27807Y124020D01*
X28593Y123810D01*
X29407D01*
X30193Y124020D01*
X30898Y124427D01*
X31473Y125002D01*
X31880Y125707D01*
X32090Y126493D01*
Y127307D01*
X31880Y128093D01*
X31473Y128798D01*
X30898Y129373D01*
X30193Y129780D01*
X29407Y129991D01*
D02*
G37*
G36*
X-42480Y169453D02*
X-48976D01*
X-55472D01*
Y167976D01*
X-54882D01*
Y165811D01*
X-55472D01*
Y164335D01*
X-48976D01*
X-42480D01*
Y165811D01*
X-42096Y166091D01*
X-21326D01*
X16322Y128443D01*
X16120Y128093D01*
X15909Y127307D01*
Y126493D01*
X16120Y125707D01*
X16527Y125002D01*
X17102Y124427D01*
X17807Y124020D01*
X18593Y123810D01*
X19407D01*
X20193Y124020D01*
X20898Y124427D01*
X21473Y125002D01*
X21880Y125707D01*
X22091Y126493D01*
Y127307D01*
X21880Y128093D01*
X21473Y128798D01*
X20898Y129373D01*
X20193Y129780D01*
X19407Y129991D01*
X18593D01*
X17807Y129780D01*
X17457Y129578D01*
X-20426Y167461D01*
X-20686Y167635D01*
X-20994Y167696D01*
X-42096D01*
X-42480Y167976D01*
Y169453D01*
D02*
G37*
G36*
X42653Y126310D02*
X39590D01*
Y123247D01*
X40421Y123470D01*
X41260Y123954D01*
X41945Y124640D01*
X42430Y125479D01*
X42653Y126310D01*
D02*
G37*
G36*
X38409D02*
X35347D01*
X35570Y125479D01*
X36054Y124640D01*
X36740Y123954D01*
X37579Y123470D01*
X38409Y123247D01*
Y126310D01*
D02*
G37*
G36*
X-25492Y121358D02*
X-27756D01*
Y119291D01*
X-25492D01*
Y121358D01*
D02*
G37*
G36*
X-28937D02*
X-31201D01*
Y119291D01*
X-28937D01*
Y121358D01*
D02*
G37*
G36*
X39590Y120553D02*
Y117491D01*
X42653D01*
X42430Y118321D01*
X41945Y119160D01*
X41260Y119846D01*
X40421Y120330D01*
X39590Y120553D01*
D02*
G37*
G36*
X38409D02*
X37579Y120330D01*
X36740Y119846D01*
X36054Y119160D01*
X35570Y118321D01*
X35347Y117491D01*
X38409D01*
Y120553D01*
D02*
G37*
G36*
X29407Y119991D02*
X28593D01*
X27807Y119780D01*
X27102Y119373D01*
X26527Y118798D01*
X26120Y118093D01*
X25909Y117307D01*
Y116493D01*
X26120Y115707D01*
X26527Y115002D01*
X27102Y114427D01*
X27807Y114020D01*
X28593Y113810D01*
X29407D01*
X30193Y114020D01*
X30898Y114427D01*
X31473Y115002D01*
X31880Y115707D01*
X32090Y116493D01*
Y117307D01*
X31880Y118093D01*
X31473Y118798D01*
X30898Y119373D01*
X30193Y119780D01*
X29407Y119991D01*
D02*
G37*
G36*
X-42480Y163154D02*
X-48976D01*
X-55472D01*
Y161677D01*
X-54882D01*
Y159512D01*
X-55472D01*
Y158035D01*
X-48976D01*
X-42480D01*
Y159512D01*
X-42096Y159792D01*
X-25027D01*
X16322Y118443D01*
X16120Y118093D01*
X15909Y117307D01*
Y116493D01*
X16120Y115707D01*
X16527Y115002D01*
X17102Y114427D01*
X17807Y114020D01*
X18593Y113810D01*
X19407D01*
X20193Y114020D01*
X20898Y114427D01*
X21473Y115002D01*
X21880Y115707D01*
X22091Y116493D01*
Y117307D01*
X21880Y118093D01*
X21473Y118798D01*
X20898Y119373D01*
X20193Y119780D01*
X19407Y119991D01*
X18593D01*
X17807Y119780D01*
X17457Y119578D01*
X-24127Y161162D01*
X-24387Y161336D01*
X-24694Y161397D01*
X-42096D01*
X-42480Y161677D01*
Y163154D01*
D02*
G37*
G36*
X42653Y116309D02*
X39590D01*
Y113247D01*
X40421Y113470D01*
X41260Y113954D01*
X41945Y114640D01*
X42430Y115479D01*
X42653Y116309D01*
D02*
G37*
G36*
X38409D02*
X35347D01*
X35570Y115479D01*
X36054Y114640D01*
X36740Y113954D01*
X37579Y113470D01*
X38409Y113247D01*
Y116309D01*
D02*
G37*
G36*
X39590Y110553D02*
Y107491D01*
X42653D01*
X42430Y108321D01*
X41945Y109160D01*
X41260Y109846D01*
X40421Y110330D01*
X39590Y110553D01*
D02*
G37*
G36*
X38409D02*
X37579Y110330D01*
X36740Y109846D01*
X36054Y109160D01*
X35570Y108321D01*
X35347Y107491D01*
X38409D01*
Y110553D01*
D02*
G37*
G36*
X29407Y109991D02*
X28593D01*
X27807Y109780D01*
X27102Y109373D01*
X26527Y108798D01*
X26120Y108093D01*
X25909Y107307D01*
Y106493D01*
X26120Y105707D01*
X26527Y105002D01*
X27102Y104427D01*
X27807Y104020D01*
X28593Y103809D01*
X29407D01*
X30193Y104020D01*
X30898Y104427D01*
X31473Y105002D01*
X31880Y105707D01*
X32090Y106493D01*
Y107307D01*
X31880Y108093D01*
X31473Y108798D01*
X30898Y109373D01*
X30193Y109780D01*
X29407Y109991D01*
D02*
G37*
G36*
X-42480Y156854D02*
X-48976D01*
X-55472D01*
Y155378D01*
X-54882D01*
Y153212D01*
X-55472D01*
Y151736D01*
X-48976D01*
X-42480D01*
Y153212D01*
X-42096Y153492D01*
X-28728D01*
X16322Y108443D01*
X16120Y108093D01*
X15909Y107307D01*
Y106493D01*
X16120Y105707D01*
X16527Y105002D01*
X17102Y104427D01*
X17807Y104020D01*
X18593Y103809D01*
X19407D01*
X20193Y104020D01*
X20898Y104427D01*
X21473Y105002D01*
X21880Y105707D01*
X22091Y106493D01*
Y107307D01*
X21880Y108093D01*
X21473Y108798D01*
X20898Y109373D01*
X20193Y109780D01*
X19407Y109991D01*
X18593D01*
X17807Y109780D01*
X17457Y109578D01*
X-27828Y154863D01*
X-28088Y155037D01*
X-28395Y155098D01*
X-42096D01*
X-42480Y155378D01*
Y156854D01*
D02*
G37*
G36*
X42653Y106309D02*
X39590D01*
Y103247D01*
X40421Y103470D01*
X41260Y103954D01*
X41945Y104640D01*
X42430Y105479D01*
X42653Y106309D01*
D02*
G37*
G36*
X38409D02*
X35347D01*
X35570Y105479D01*
X36054Y104640D01*
X36740Y103954D01*
X37579Y103470D01*
X38409Y103247D01*
Y106309D01*
D02*
G37*
G36*
X39590Y100553D02*
Y97491D01*
X42653D01*
X42430Y98321D01*
X41945Y99160D01*
X41260Y99846D01*
X40421Y100330D01*
X39590Y100553D01*
D02*
G37*
G36*
X38409D02*
X37579Y100330D01*
X36740Y99846D01*
X36054Y99160D01*
X35570Y98321D01*
X35347Y97491D01*
X38409D01*
Y100553D01*
D02*
G37*
G36*
X29407Y99991D02*
X28593D01*
X27807Y99780D01*
X27102Y99373D01*
X26527Y98798D01*
X26120Y98093D01*
X25909Y97307D01*
Y96493D01*
X26120Y95707D01*
X26527Y95002D01*
X27102Y94427D01*
X27807Y94020D01*
X28593Y93809D01*
X29407D01*
X30193Y94020D01*
X30898Y94427D01*
X31473Y95002D01*
X31880Y95707D01*
X32090Y96493D01*
Y97307D01*
X31880Y98093D01*
X31473Y98798D01*
X30898Y99373D01*
X30193Y99780D01*
X29407Y99991D01*
D02*
G37*
G36*
X42653Y96310D02*
X39590D01*
Y93247D01*
X40421Y93470D01*
X41260Y93954D01*
X41945Y94640D01*
X42430Y95479D01*
X42653Y96310D01*
D02*
G37*
G36*
X38409D02*
X35347D01*
X35570Y95479D01*
X36054Y94640D01*
X36740Y93954D01*
X37579Y93470D01*
X38409Y93247D01*
Y96310D01*
D02*
G37*
G36*
X39590Y90553D02*
Y87491D01*
X42653D01*
X42430Y88321D01*
X41945Y89160D01*
X41260Y89846D01*
X40421Y90330D01*
X39590Y90553D01*
D02*
G37*
G36*
X38409D02*
X37579Y90330D01*
X36740Y89846D01*
X36054Y89160D01*
X35570Y88321D01*
X35347Y87491D01*
X38409D01*
Y90553D01*
D02*
G37*
G36*
X29407Y89991D02*
X28593D01*
X27807Y89780D01*
X27102Y89373D01*
X26527Y88798D01*
X26120Y88093D01*
X25909Y87307D01*
Y86493D01*
X26120Y85707D01*
X26527Y85002D01*
X27102Y84427D01*
X27807Y84020D01*
X28593Y83810D01*
X29407D01*
X30193Y84020D01*
X30898Y84427D01*
X31473Y85002D01*
X31880Y85707D01*
X32090Y86493D01*
Y87307D01*
X31880Y88093D01*
X31473Y88798D01*
X30898Y89373D01*
X30193Y89780D01*
X29407Y89991D01*
D02*
G37*
G36*
X42653Y86309D02*
X39590D01*
Y83247D01*
X40421Y83470D01*
X41260Y83954D01*
X41945Y84640D01*
X42430Y85479D01*
X42653Y86309D01*
D02*
G37*
G36*
X38409D02*
X35347D01*
X35570Y85479D01*
X36054Y84640D01*
X36740Y83954D01*
X37579Y83470D01*
X38409Y83247D01*
Y86309D01*
D02*
G37*
G36*
X39590Y80553D02*
Y77491D01*
X42653D01*
X42430Y78321D01*
X41945Y79160D01*
X41260Y79846D01*
X40421Y80330D01*
X39590Y80553D01*
D02*
G37*
G36*
X38409D02*
X37579Y80330D01*
X36740Y79846D01*
X36054Y79160D01*
X35570Y78321D01*
X35347Y77491D01*
X38409D01*
Y80553D01*
D02*
G37*
G36*
X29407Y79991D02*
X28593D01*
X27807Y79780D01*
X27102Y79373D01*
X26527Y78798D01*
X26120Y78093D01*
X25909Y77307D01*
Y76493D01*
X26120Y75707D01*
X26527Y75002D01*
X27102Y74427D01*
X27807Y74020D01*
X28593Y73809D01*
X29407D01*
X30193Y74020D01*
X30898Y74427D01*
X31473Y75002D01*
X31880Y75707D01*
X32090Y76493D01*
Y77307D01*
X31880Y78093D01*
X31473Y78798D01*
X30898Y79373D01*
X30193Y79780D01*
X29407Y79991D01*
D02*
G37*
G36*
X42653Y76310D02*
X39590D01*
Y73247D01*
X40421Y73470D01*
X41260Y73954D01*
X41945Y74640D01*
X42430Y75479D01*
X42653Y76310D01*
D02*
G37*
G36*
X38409D02*
X35347D01*
X35570Y75479D01*
X36054Y74640D01*
X36740Y73954D01*
X37579Y73470D01*
X38409Y73247D01*
Y76310D01*
D02*
G37*
G36*
X39590Y70553D02*
Y67491D01*
X42653D01*
X42430Y68321D01*
X41945Y69160D01*
X41260Y69846D01*
X40421Y70330D01*
X39590Y70553D01*
D02*
G37*
G36*
X38409D02*
X37579Y70330D01*
X36740Y69846D01*
X36054Y69160D01*
X35570Y68321D01*
X35347Y67491D01*
X38409D01*
Y70553D01*
D02*
G37*
G36*
X29407Y69991D02*
X28593D01*
X27807Y69780D01*
X27102Y69373D01*
X26527Y68798D01*
X26120Y68093D01*
X25909Y67307D01*
Y66493D01*
X26120Y65707D01*
X26527Y65002D01*
X27102Y64427D01*
X27807Y64020D01*
X28593Y63810D01*
X29407D01*
X30193Y64020D01*
X30898Y64427D01*
X31473Y65002D01*
X31880Y65707D01*
X32090Y66493D01*
Y67307D01*
X31880Y68093D01*
X31473Y68798D01*
X30898Y69373D01*
X30193Y69780D01*
X29407Y69991D01*
D02*
G37*
G36*
X42653Y66309D02*
X39590D01*
Y63247D01*
X40421Y63470D01*
X41260Y63954D01*
X41945Y64640D01*
X42430Y65479D01*
X42653Y66309D01*
D02*
G37*
G36*
X38409D02*
X35347D01*
X35570Y65479D01*
X36054Y64640D01*
X36740Y63954D01*
X37579Y63470D01*
X38409Y63247D01*
Y66309D01*
D02*
G37*
G36*
X39590Y60553D02*
Y57491D01*
X42653D01*
X42430Y58321D01*
X41945Y59160D01*
X41260Y59846D01*
X40421Y60330D01*
X39590Y60553D01*
D02*
G37*
G36*
X38409D02*
X37579Y60330D01*
X36740Y59846D01*
X36054Y59160D01*
X35570Y58321D01*
X35347Y57491D01*
X38409D01*
Y60553D01*
D02*
G37*
G36*
X29407Y59991D02*
X28593D01*
X27807Y59780D01*
X27102Y59373D01*
X26527Y58798D01*
X26120Y58093D01*
X25909Y57307D01*
Y56493D01*
X26120Y55707D01*
X26527Y55002D01*
X27102Y54427D01*
X27807Y54020D01*
X28593Y53809D01*
X29407D01*
X30193Y54020D01*
X30898Y54427D01*
X31473Y55002D01*
X31880Y55707D01*
X32090Y56493D01*
Y57307D01*
X31880Y58093D01*
X31473Y58798D01*
X30898Y59373D01*
X30193Y59780D01*
X29407Y59991D01*
D02*
G37*
G36*
X42653Y56309D02*
X39590D01*
Y53247D01*
X40421Y53470D01*
X41260Y53954D01*
X41945Y54640D01*
X42430Y55479D01*
X42653Y56309D01*
D02*
G37*
G36*
X38409D02*
X35347D01*
X35570Y55479D01*
X36054Y54640D01*
X36740Y53954D01*
X37579Y53470D01*
X38409Y53247D01*
Y56309D01*
D02*
G37*
G36*
X278502Y45695D02*
X276337D01*
X275492Y45527D01*
X274776Y45048D01*
X274297Y44332D01*
X274247Y44078D01*
X278502D01*
Y45695D01*
D02*
G37*
G36*
Y42897D02*
X274247D01*
X274297Y42643D01*
X274776Y41926D01*
X275492Y41448D01*
X276337Y41280D01*
X278502D01*
Y42897D01*
D02*
G37*
G36*
X274508Y130020D02*
X271457D01*
Y126575D01*
X274508D01*
Y130020D01*
D02*
G37*
G36*
X270276D02*
X267224D01*
Y126575D01*
X270276D01*
Y130020D01*
D02*
G37*
G36*
X274508Y125394D02*
X271457D01*
Y121949D01*
X274508D01*
Y125394D01*
D02*
G37*
G36*
X270276D02*
X267224D01*
Y121949D01*
X270276D01*
Y125394D01*
D02*
G37*
G36*
X289035Y116411D02*
X288334Y116223D01*
X287571Y115782D01*
X286948Y115159D01*
X286507Y114396D01*
X286319Y113695D01*
X289035D01*
Y116411D01*
D02*
G37*
G36*
X281791Y129429D02*
X275689D01*
Y122539D01*
X277581D01*
Y115860D01*
X276870D01*
Y110349D01*
X282381D01*
Y115860D01*
X280391D01*
Y122539D01*
X281791D01*
Y129429D01*
D02*
G37*
G36*
X289035Y112514D02*
X286319D01*
X286507Y111813D01*
X286948Y111050D01*
X287571Y110427D01*
X288334Y109986D01*
X289035Y109798D01*
Y112514D01*
D02*
G37*
G36*
X275295Y84744D02*
X272244D01*
Y81299D01*
X275295D01*
Y84744D01*
D02*
G37*
G36*
X271063D02*
X268012D01*
Y81299D01*
X271063D01*
Y84744D01*
D02*
G37*
G36*
X275295Y80118D02*
X272244D01*
Y76673D01*
X275295D01*
Y80118D01*
D02*
G37*
G36*
X278502Y75695D02*
X276337D01*
X275492Y75527D01*
X274776Y75049D01*
X274297Y74332D01*
X274247Y74078D01*
X278502D01*
Y75695D01*
D02*
G37*
G36*
X310216Y116411D02*
Y113695D01*
X312932D01*
X312744Y114396D01*
X312303Y115159D01*
X311680Y115782D01*
X310917Y116223D01*
X310216Y116411D01*
D02*
G37*
G36*
X309035D02*
X308334Y116223D01*
X307571Y115782D01*
X306948Y115159D01*
X306507Y114396D01*
X306319Y113695D01*
X309035D01*
Y116411D01*
D02*
G37*
G36*
X404836Y112795D02*
X402867D01*
Y110827D01*
X404836D01*
Y112795D01*
D02*
G37*
G36*
X401686D02*
X399717D01*
Y110827D01*
X401686D01*
Y112795D01*
D02*
G37*
G36*
X339988Y115860D02*
X339263D01*
X338562Y115673D01*
X337933Y115310D01*
X337420Y114797D01*
X337057Y114168D01*
X336870Y113467D01*
Y112742D01*
X337057Y112041D01*
X337420Y111412D01*
X337884Y110949D01*
X337855Y110737D01*
X337714Y110449D01*
X332126D01*
X331496Y111078D01*
X331831Y111412D01*
X332194Y112041D01*
X332381Y112742D01*
Y113467D01*
X332194Y114168D01*
X331831Y114797D01*
X331318Y115310D01*
X330689Y115673D01*
X329988Y115860D01*
X329263D01*
X328562Y115673D01*
X327933Y115310D01*
X327420Y114797D01*
X327057Y114168D01*
X326870Y113467D01*
Y112742D01*
X327057Y112041D01*
X327420Y111412D01*
X327933Y110899D01*
X328562Y110536D01*
X329263Y110349D01*
X329387D01*
X331000Y108735D01*
X331326Y108518D01*
X331710Y108441D01*
X352635D01*
Y106502D01*
X359525D01*
Y108441D01*
X365686D01*
Y108050D01*
X365777Y107589D01*
X365810Y107540D01*
Y107190D01*
X361889Y103269D01*
X361671Y102943D01*
X361595Y102559D01*
Y90105D01*
X349053Y77563D01*
X348835Y77238D01*
X348759Y76854D01*
Y61657D01*
X348594Y61492D01*
X348384Y60986D01*
Y60438D01*
X348594Y59931D01*
X348982Y59544D01*
X348995Y59538D01*
X349063Y59379D01*
X349084Y58960D01*
X347006Y56882D01*
X344877D01*
X344467Y57382D01*
X344470Y57400D01*
Y57897D01*
X340215D01*
X335960D01*
Y57400D01*
X335963Y57382D01*
X335553Y56882D01*
X328639D01*
X326450Y59070D01*
X326190Y59244D01*
X325883Y59305D01*
X319811D01*
X319598Y59623D01*
X319077Y59971D01*
X318463Y60093D01*
X312951D01*
X312337Y59971D01*
X311816Y59623D01*
X311468Y59102D01*
X311346Y58487D01*
X311468Y57873D01*
X311816Y57352D01*
X312337Y57004D01*
X312951Y56882D01*
X318463D01*
X319077Y57004D01*
X319598Y57352D01*
X319830Y57700D01*
X325550D01*
X327738Y55511D01*
X327999Y55337D01*
X328306Y55276D01*
X336310D01*
X336608Y54776D01*
X336525Y54575D01*
Y54305D01*
X319811D01*
X319598Y54623D01*
X319077Y54971D01*
X318463Y55093D01*
X312951D01*
X312337Y54971D01*
X311816Y54623D01*
X311468Y54102D01*
X311346Y53487D01*
X311468Y52873D01*
X311816Y52352D01*
X312337Y52004D01*
X312951Y51882D01*
X318463D01*
X319077Y52004D01*
X319598Y52352D01*
X319830Y52700D01*
X336525D01*
Y52400D01*
X336711Y51951D01*
X337159Y51766D01*
X343271D01*
X343719Y51951D01*
X343905Y52400D01*
Y54575D01*
X343822Y54776D01*
X344120Y55276D01*
X347339D01*
X347646Y55337D01*
X347906Y55511D01*
X350095Y57700D01*
X358769D01*
Y57400D01*
X358865Y57167D01*
X358586Y56667D01*
X351080D01*
X351080Y56667D01*
X350773Y56606D01*
X350512Y56432D01*
X350512Y56432D01*
X344040Y49959D01*
X343719Y50023D01*
X343271Y50209D01*
X337159D01*
X336711Y50023D01*
X336525Y49575D01*
Y47400D01*
X336262Y47005D01*
X335364D01*
X333299Y49070D01*
X333038Y49244D01*
X332731Y49305D01*
X319811D01*
X319598Y49623D01*
X319077Y49971D01*
X318463Y50093D01*
X312951D01*
X312337Y49971D01*
X311816Y49623D01*
X311468Y49102D01*
X311346Y48487D01*
X311468Y47873D01*
X311816Y47352D01*
X312337Y47004D01*
X312951Y46882D01*
X318463D01*
X319077Y47004D01*
X319598Y47352D01*
X319830Y47699D01*
X332399D01*
X334463Y45635D01*
X334463Y45635D01*
X334724Y45461D01*
X335031Y45399D01*
X336434D01*
X336660Y44899D01*
X336525Y44575D01*
Y42400D01*
X336711Y41952D01*
X337159Y41766D01*
X343271D01*
X343719Y41952D01*
X343905Y42400D01*
Y42700D01*
X352582D01*
X352889Y42761D01*
X353150Y42935D01*
X355277Y45062D01*
X358430D01*
X358769Y44575D01*
Y42400D01*
X358955Y41952D01*
X359403Y41766D01*
X365515D01*
X365964Y41952D01*
X366149Y42400D01*
Y42685D01*
X391926D01*
X392233Y42746D01*
X392494Y42920D01*
X396116Y46542D01*
X397979D01*
X399812Y44708D01*
X399812Y44708D01*
X400073Y44534D01*
X400380Y44473D01*
X400380Y44473D01*
X413903D01*
X414210Y44534D01*
X414471Y44708D01*
X417859Y48096D01*
X427492D01*
Y46832D01*
X432020D01*
Y50965D01*
X432403Y51248D01*
X436413D01*
X436887Y51187D01*
Y47367D01*
X434104Y44583D01*
X432020D01*
Y45847D01*
X427492D01*
Y44166D01*
X427439Y44088D01*
X427378Y43780D01*
X427439Y43473D01*
X427492Y43394D01*
Y42123D01*
X406495D01*
X405132Y43485D01*
X404872Y43659D01*
X404564Y43720D01*
X400612D01*
X400612Y43720D01*
X400304Y43659D01*
X400044Y43485D01*
X397979Y41420D01*
X394980D01*
Y39305D01*
X366149D01*
Y39575D01*
X365964Y40023D01*
X365515Y40209D01*
X359403D01*
X358955Y40023D01*
X358769Y39575D01*
Y38877D01*
X358724Y38810D01*
X358663Y38502D01*
X358724Y38195D01*
X358769Y38128D01*
Y37400D01*
X358955Y36952D01*
X359306Y36806D01*
X359207Y36306D01*
X352359D01*
X350353Y38312D01*
Y38545D01*
X350143Y39051D01*
X349755Y39439D01*
X349249Y39649D01*
X348701D01*
X348194Y39439D01*
X348105Y39350D01*
X343905D01*
Y39575D01*
X343719Y40023D01*
X343271Y40209D01*
X337159D01*
X336711Y40023D01*
X336525Y39575D01*
Y39491D01*
X332753D01*
Y41738D01*
X325864D01*
Y39491D01*
X319686D01*
X319598Y39623D01*
X319077Y39971D01*
X318463Y40093D01*
X312951D01*
X312337Y39971D01*
X311816Y39623D01*
X311468Y39102D01*
X311346Y38487D01*
X311468Y37873D01*
X311816Y37352D01*
X312337Y37004D01*
X312951Y36882D01*
X318463D01*
X319077Y37004D01*
X319598Y37352D01*
X319686Y37484D01*
X325864D01*
Y35635D01*
X332753D01*
Y37484D01*
X336525D01*
Y37400D01*
X336711Y36952D01*
X337159Y36766D01*
X343271D01*
X343719Y36952D01*
X343881Y37343D01*
X347954D01*
X348194Y37103D01*
X348701Y36893D01*
X348934D01*
X351234Y34593D01*
X351559Y34375D01*
X351943Y34299D01*
X471160D01*
X471238Y34011D01*
X471678Y33248D01*
X472301Y32625D01*
X473064Y32184D01*
X473915Y31956D01*
X474796D01*
X475648Y32184D01*
X476411Y32625D01*
X477034Y33248D01*
X477474Y34011D01*
X477552Y34299D01*
X496824D01*
X497208Y34375D01*
X497534Y34593D01*
X512478Y49536D01*
X512926Y49278D01*
X512892Y49151D01*
Y48172D01*
X513146Y47225D01*
X513635Y46377D01*
X514328Y45684D01*
X515177Y45195D01*
X516123Y44941D01*
X517102D01*
X518049Y45195D01*
X518897Y45684D01*
X519062Y45849D01*
X527859D01*
X528166Y45910D01*
X528427Y46084D01*
X536875Y54532D01*
X537049Y54793D01*
X537110Y55100D01*
X537110Y55100D01*
Y91747D01*
X537049Y92054D01*
X536875Y92315D01*
X536875Y92315D01*
X527835Y101355D01*
X527574Y101529D01*
X527267Y101590D01*
X478266D01*
X477959Y101529D01*
X477698Y101355D01*
X474992Y98649D01*
X471009D01*
Y94666D01*
X463055Y86712D01*
X443840D01*
X443384Y86817D01*
X443384Y87212D01*
Y88649D01*
X461608D01*
X461974Y88284D01*
X462480Y88074D01*
X463028D01*
X463535Y88284D01*
X463923Y88671D01*
X464132Y89178D01*
Y89726D01*
X463923Y90232D01*
X463535Y90620D01*
X463028Y90830D01*
X462480D01*
X461974Y90620D01*
X461608Y90255D01*
X443384D01*
Y92919D01*
X436494D01*
Y88407D01*
X409651D01*
X409651Y88407D01*
X409344Y88346D01*
X409084Y88172D01*
X409084Y88172D01*
X405573Y84661D01*
X404289D01*
X404232Y85138D01*
X404232D01*
Y86272D01*
X404450Y86417D01*
X404998D01*
X405505Y86627D01*
X405893Y87015D01*
X406102Y87521D01*
Y88069D01*
X405893Y88576D01*
X405505Y88964D01*
X404998Y89173D01*
X404450D01*
X404232Y89319D01*
Y89665D01*
X401518D01*
X383204Y107979D01*
X383395Y108441D01*
X391839D01*
X392118Y108497D01*
X392472Y108305D01*
X392618Y108180D01*
Y107579D01*
X397146D01*
Y111713D01*
X392618D01*
Y110999D01*
X392118Y110634D01*
X392040Y110649D01*
X391656Y110573D01*
X391470Y110448D01*
X373685D01*
Y111241D01*
X373593Y111702D01*
X373332Y112092D01*
X372942Y112353D01*
X372482Y112444D01*
X366888D01*
X366428Y112353D01*
X366038Y112092D01*
X365777Y111702D01*
X365686Y111241D01*
Y110449D01*
X359525D01*
Y112604D01*
X352635D01*
Y110449D01*
X341537D01*
X341396Y110737D01*
X341367Y110949D01*
X341831Y111412D01*
X342194Y112041D01*
X342381Y112742D01*
Y113467D01*
X342194Y114168D01*
X341831Y114797D01*
X341318Y115310D01*
X340689Y115673D01*
X339988Y115860D01*
D02*
G37*
G36*
X319988D02*
X319263D01*
X318562Y115673D01*
X317933Y115310D01*
X317420Y114797D01*
X317057Y114168D01*
X316870Y113467D01*
Y112742D01*
X317057Y112041D01*
X317420Y111412D01*
X317933Y110899D01*
X318562Y110536D01*
X319263Y110349D01*
X319988D01*
X320689Y110536D01*
X321318Y110899D01*
X321831Y111412D01*
X322194Y112041D01*
X322381Y112742D01*
Y113467D01*
X322194Y114168D01*
X321831Y114797D01*
X321318Y115310D01*
X320689Y115673D01*
X319988Y115860D01*
D02*
G37*
G36*
X312932Y112514D02*
X310216D01*
Y109798D01*
X310917Y109986D01*
X311680Y110427D01*
X312303Y111050D01*
X312744Y111813D01*
X312932Y112514D01*
D02*
G37*
G36*
X309035D02*
X306319D01*
X306507Y111813D01*
X306948Y111050D01*
X307571Y110427D01*
X308334Y109986D01*
X309035Y109798D01*
Y112514D01*
D02*
G37*
G36*
X404836Y109646D02*
X402867D01*
Y107677D01*
X404836D01*
Y109646D01*
D02*
G37*
G36*
X401686D02*
X399717D01*
Y107677D01*
X401686D01*
Y109646D01*
D02*
G37*
G36*
X360116Y105321D02*
X356671D01*
Y102269D01*
X360116D01*
Y105321D01*
D02*
G37*
G36*
X355490D02*
X352045D01*
Y102269D01*
X355490D01*
Y105321D01*
D02*
G37*
G36*
X397146Y106595D02*
X392618D01*
Y102461D01*
X397146D01*
Y103229D01*
X400308D01*
Y101969D01*
X404245D01*
Y105905D01*
X400308D01*
Y105236D01*
X397146D01*
Y106595D01*
D02*
G37*
G36*
X360116Y101088D02*
X356671D01*
Y98037D01*
X360116D01*
Y101088D01*
D02*
G37*
G36*
X355490D02*
X352045D01*
Y98037D01*
X355490D01*
Y101088D01*
D02*
G37*
G36*
X318463Y75695D02*
X316298D01*
Y74078D01*
X320553D01*
X320503Y74332D01*
X320024Y75049D01*
X319308Y75527D01*
X318463Y75695D01*
D02*
G37*
G36*
X315117D02*
X312951D01*
X312106Y75527D01*
X311390Y75049D01*
X310911Y74332D01*
X310861Y74078D01*
X315117D01*
Y75695D01*
D02*
G37*
G36*
X343271Y75774D02*
X340806D01*
Y74078D01*
X344470D01*
Y74575D01*
X344379Y75034D01*
X344119Y75423D01*
X343730Y75683D01*
X343271Y75774D01*
D02*
G37*
G36*
X339625D02*
X337159D01*
X336700Y75683D01*
X336311Y75423D01*
X336051Y75034D01*
X335960Y74575D01*
Y74078D01*
X339625D01*
Y75774D01*
D02*
G37*
G36*
X320553Y72897D02*
X316298D01*
Y71280D01*
X318463D01*
X319308Y71448D01*
X320024Y71926D01*
X320503Y72642D01*
X320553Y72897D01*
D02*
G37*
G36*
X315117D02*
X310861D01*
X310911Y72642D01*
X311390Y71926D01*
X312106Y71448D01*
X312951Y71280D01*
X315117D01*
Y72897D01*
D02*
G37*
G36*
X344470Y72897D02*
X340215D01*
X335960D01*
Y72400D01*
X336051Y71941D01*
X336311Y71552D01*
X336700Y71292D01*
X336949Y71242D01*
Y70732D01*
X336700Y70683D01*
X336311Y70423D01*
X336051Y70034D01*
X335960Y69575D01*
Y69078D01*
X340215D01*
X344470D01*
Y69575D01*
X344379Y70034D01*
X344119Y70423D01*
X343730Y70683D01*
X343481Y70732D01*
Y71242D01*
X343730Y71292D01*
X344119Y71552D01*
X344379Y71941D01*
X344470Y72400D01*
Y72897D01*
D02*
G37*
G36*
X318463Y70093D02*
X312951D01*
X312337Y69971D01*
X311816Y69623D01*
X311468Y69102D01*
X311346Y68487D01*
X311468Y67873D01*
X311816Y67352D01*
X312337Y67004D01*
X312951Y66882D01*
X318463D01*
X319077Y67004D01*
X319598Y67352D01*
X319946Y67873D01*
X320069Y68487D01*
X319946Y69102D01*
X319598Y69623D01*
X319077Y69971D01*
X318463Y70093D01*
D02*
G37*
G36*
X344470Y67897D02*
X340806D01*
Y66201D01*
X343271D01*
X343730Y66292D01*
X344119Y66552D01*
X344379Y66941D01*
X344470Y67400D01*
Y67897D01*
D02*
G37*
G36*
X339625D02*
X335960D01*
Y67400D01*
X336051Y66941D01*
X336311Y66552D01*
X336700Y66292D01*
X337159Y66201D01*
X339625D01*
Y67897D01*
D02*
G37*
G36*
X332776Y66634D02*
X330709D01*
Y64370D01*
X332776D01*
Y66634D01*
D02*
G37*
G36*
X329528D02*
X327461D01*
Y66300D01*
X327067Y66043D01*
X326961Y66043D01*
X322933D01*
Y64290D01*
X319820D01*
X319598Y64623D01*
X319077Y64971D01*
X318463Y65093D01*
X312951D01*
X312337Y64971D01*
X311816Y64623D01*
X311468Y64102D01*
X311346Y63487D01*
X311468Y62873D01*
X311816Y62352D01*
X312337Y62004D01*
X312951Y61882D01*
X318463D01*
X319077Y62004D01*
X319598Y62352D01*
X319820Y62685D01*
X322933D01*
Y61516D01*
X326961D01*
X327067Y61516D01*
X327461Y61259D01*
Y60925D01*
X329528D01*
Y63779D01*
Y66634D01*
D02*
G37*
G36*
X343271Y65209D02*
X337159D01*
X336711Y65023D01*
X336525Y64575D01*
Y62400D01*
X336711Y61952D01*
X337159Y61766D01*
X343271D01*
X343719Y61952D01*
X343905Y62400D01*
Y64575D01*
X343719Y65023D01*
X343271Y65209D01*
D02*
G37*
G36*
X332776Y63189D02*
X330709D01*
Y60925D01*
X332776D01*
Y63189D01*
D02*
G37*
G36*
X343271Y60774D02*
X340806D01*
Y59078D01*
X344470D01*
Y59575D01*
X344379Y60034D01*
X344119Y60423D01*
X343730Y60683D01*
X343271Y60774D01*
D02*
G37*
G36*
X339625D02*
X337159D01*
X336700Y60683D01*
X336311Y60423D01*
X336051Y60034D01*
X335960Y59575D01*
Y59078D01*
X339625D01*
Y60774D01*
D02*
G37*
G36*
X318463Y45695D02*
X316298D01*
Y44078D01*
X320553D01*
X320503Y44332D01*
X320024Y45048D01*
X319308Y45527D01*
X318463Y45695D01*
D02*
G37*
G36*
X315117D02*
X312951D01*
X312106Y45527D01*
X311390Y45048D01*
X310911Y44332D01*
X310861Y44078D01*
X315117D01*
Y45695D01*
D02*
G37*
G36*
X320553Y42897D02*
X316298D01*
Y41280D01*
X318463D01*
X319308Y41448D01*
X320024Y41926D01*
X320503Y42643D01*
X320553Y42897D01*
D02*
G37*
G36*
X315117D02*
X310861D01*
X310911Y42643D01*
X311390Y41926D01*
X312106Y41448D01*
X312951Y41280D01*
X315117D01*
Y42897D01*
D02*
G37*
G36*
X333344Y34454D02*
X329899D01*
Y31403D01*
X333344D01*
Y34454D01*
D02*
G37*
G36*
X328718D02*
X325273D01*
Y31403D01*
X328718D01*
Y34454D01*
D02*
G37*
G36*
X333344Y30222D02*
X329899D01*
Y27171D01*
X333344D01*
Y30222D01*
D02*
G37*
G36*
X328718D02*
X325273D01*
Y27171D01*
X328718D01*
Y30222D01*
D02*
G37*
G36*
X474946Y29220D02*
Y25893D01*
X478274D01*
X478025Y26822D01*
X477506Y27720D01*
X476773Y28453D01*
X475876Y28971D01*
X474946Y29220D01*
D02*
G37*
G36*
X473765Y29220D02*
X472836Y28971D01*
X471939Y28453D01*
X471206Y27720D01*
X470687Y26822D01*
X470438Y25893D01*
X473765D01*
Y29220D01*
D02*
G37*
G36*
Y24712D02*
X470438D01*
X470687Y23783D01*
X471206Y22885D01*
X471939Y22152D01*
X472836Y21634D01*
X473765Y21385D01*
Y24712D01*
D02*
G37*
G36*
X478273D02*
X474946D01*
Y21385D01*
X475876Y21634D01*
X476773Y22152D01*
X477506Y22885D01*
X478025Y23783D01*
X478273Y24712D01*
D02*
G37*
%LPD*%
G36*
X533355Y90808D02*
Y78590D01*
X532855Y78468D01*
X532757Y78614D01*
X530294Y81078D01*
X530033Y81252D01*
X529726Y81313D01*
X525042D01*
X519173Y87182D01*
X518913Y87356D01*
X518606Y87417D01*
X509947D01*
X509947Y87417D01*
X509640Y87356D01*
X509380Y87182D01*
X509379Y87182D01*
X498303Y76105D01*
X477605D01*
X477474Y76594D01*
X477034Y77357D01*
X476411Y77980D01*
X475648Y78421D01*
X474796Y78649D01*
X473915D01*
X473064Y78421D01*
X472301Y77980D01*
X471678Y77357D01*
X471238Y76594D01*
X471090Y76044D01*
X471089Y76044D01*
X470828Y75870D01*
X468971Y74012D01*
X432209D01*
X432209Y74012D01*
X431901Y73951D01*
X431641Y73777D01*
X429309Y71446D01*
X427492D01*
Y69997D01*
X427417Y69946D01*
X427243Y69686D01*
X427181Y69379D01*
X427243Y69072D01*
X427417Y68811D01*
X427361Y68316D01*
X424415Y65370D01*
X404843D01*
X404635Y65870D01*
X404709Y65945D01*
X404998D01*
X405505Y66155D01*
X405893Y66542D01*
X406102Y67049D01*
Y67597D01*
X405893Y68103D01*
X405505Y68491D01*
X404998Y68701D01*
X404450D01*
X404232Y68846D01*
Y70367D01*
X403169D01*
Y75489D01*
X404232D01*
Y76823D01*
X404450Y76968D01*
X404998D01*
X405505Y77178D01*
X405893Y77566D01*
X406102Y78072D01*
Y78621D01*
X405893Y79127D01*
X405505Y79515D01*
X404998Y79724D01*
X404450D01*
X404232Y79870D01*
Y80016D01*
X400903D01*
X400711Y80478D01*
X401320Y81087D01*
X427492D01*
Y80889D01*
X432020D01*
Y85023D01*
X432485Y85106D01*
X436019D01*
X436494Y85045D01*
X436494Y84606D01*
Y80854D01*
X434280Y78641D01*
X432020D01*
Y79905D01*
X427492D01*
Y78224D01*
X427439Y78145D01*
X427378Y77838D01*
X427439Y77531D01*
X427492Y77452D01*
Y75771D01*
X432020D01*
Y77035D01*
X434613D01*
X434920Y77096D01*
X435181Y77270D01*
X436853Y78943D01*
X443384D01*
X443384Y85045D01*
X443858Y85106D01*
X463387D01*
X463695Y85167D01*
X463955Y85341D01*
X470699Y92085D01*
X471009Y91956D01*
Y91956D01*
X477592D01*
X477868Y91524D01*
X474951Y88608D01*
X474796Y88649D01*
X473915D01*
X473064Y88421D01*
X472301Y87980D01*
X471678Y87357D01*
X471238Y86594D01*
X471009Y85743D01*
Y84862D01*
X471238Y84011D01*
X471678Y83248D01*
X472301Y82625D01*
X473064Y82184D01*
X473915Y81956D01*
X474796D01*
X475648Y82184D01*
X476411Y82625D01*
X477034Y83248D01*
X477474Y84011D01*
X477702Y84862D01*
Y85743D01*
X477474Y86594D01*
X477034Y87357D01*
X476503Y87888D01*
X485843Y97229D01*
X526934D01*
X533355Y90808D01*
D02*
G37*
G36*
X398217Y90127D02*
X398026Y89665D01*
X394980D01*
Y86470D01*
X377816Y69305D01*
X366149D01*
Y69575D01*
X365964Y70023D01*
X365515Y70209D01*
X359403D01*
X358955Y70023D01*
X358769Y69575D01*
Y68877D01*
X358724Y68810D01*
X358663Y68502D01*
X358724Y68195D01*
X358769Y68128D01*
Y67400D01*
X358955Y66952D01*
X359403Y66766D01*
X365515D01*
X365964Y66952D01*
X366149Y67400D01*
Y67699D01*
X378148D01*
X378455Y67761D01*
X378716Y67935D01*
X395919Y85138D01*
X397979D01*
X399826Y83291D01*
X400086Y83117D01*
X400394Y83055D01*
X400394Y83055D01*
X400444D01*
X400567Y82555D01*
X400420Y82457D01*
X397979Y80016D01*
X394980D01*
Y76821D01*
X382465Y64305D01*
X366149D01*
Y64575D01*
X365964Y65023D01*
X365515Y65209D01*
X359403D01*
X358955Y65023D01*
X358769Y64575D01*
Y63877D01*
X358724Y63810D01*
X358663Y63502D01*
X358724Y63195D01*
X358769Y63128D01*
Y62400D01*
X358955Y61952D01*
X359403Y61766D01*
X365515D01*
X365964Y61952D01*
X366149Y62400D01*
Y62700D01*
X382797D01*
X383104Y62761D01*
X383365Y62935D01*
X395919Y75489D01*
X399114D01*
Y78881D01*
X399637Y79403D01*
X400098Y79212D01*
Y75489D01*
X401162D01*
Y70367D01*
X400098D01*
Y66644D01*
X399637Y66453D01*
X399114Y66975D01*
Y70367D01*
X394980D01*
Y67172D01*
X384476Y56667D01*
X366333D01*
X366053Y57167D01*
X366149Y57400D01*
Y59575D01*
X365964Y60023D01*
X365515Y60209D01*
X359403D01*
X358955Y60023D01*
X358769Y59575D01*
Y59305D01*
X351011D01*
X350804Y59805D01*
X350930Y59931D01*
X351140Y60438D01*
Y60986D01*
X350930Y61492D01*
X350766Y61657D01*
Y76438D01*
X363308Y88980D01*
X363526Y89306D01*
X363602Y89690D01*
Y102143D01*
X367523Y106065D01*
X367741Y106390D01*
X367817Y106774D01*
Y106847D01*
X372482D01*
X372942Y106939D01*
X373332Y107199D01*
X373593Y107589D01*
X373685Y108050D01*
Y108441D01*
X379903D01*
X398217Y90127D01*
D02*
G37*
%LPC*%
G36*
X520924Y96595D02*
X517203D01*
Y92874D01*
X520924D01*
Y96595D01*
D02*
G37*
G36*
X516022D02*
X512302D01*
Y92874D01*
X516022D01*
Y96595D01*
D02*
G37*
G36*
X520924Y91693D02*
X517203D01*
Y87972D01*
X520924D01*
Y91693D01*
D02*
G37*
G36*
X516022D02*
X512302D01*
Y87972D01*
X516022D01*
Y91693D01*
D02*
G37*
G36*
X528284Y90551D02*
X527304D01*
X526358Y90298D01*
X525509Y89808D01*
X524817Y89115D01*
X524327Y88267D01*
X524073Y87321D01*
Y86341D01*
X524327Y85395D01*
X524817Y84546D01*
X525509Y83854D01*
X526358Y83364D01*
X527304Y83110D01*
X528284D01*
X529230Y83364D01*
X530078Y83854D01*
X530771Y84546D01*
X531261Y85395D01*
X531514Y86341D01*
Y87321D01*
X531261Y88267D01*
X530771Y89115D01*
X530078Y89808D01*
X529230Y90298D01*
X528284Y90551D01*
D02*
G37*
G36*
X372482Y101629D02*
X370276D01*
Y98819D01*
X374287D01*
Y99824D01*
X374149Y100515D01*
X373758Y101101D01*
X373172Y101492D01*
X372482Y101629D01*
D02*
G37*
G36*
X369094D02*
X366888D01*
X366198Y101492D01*
X365612Y101101D01*
X365221Y100515D01*
X365083Y99824D01*
Y98819D01*
X369094D01*
Y101629D01*
D02*
G37*
G36*
X374287Y97638D02*
X370276D01*
Y94828D01*
X372482D01*
X373172Y94965D01*
X373758Y95356D01*
X374149Y95942D01*
X374287Y96632D01*
Y97638D01*
D02*
G37*
G36*
X369094D02*
X365083D01*
Y96632D01*
X365221Y95942D01*
X365612Y95356D01*
X366198Y94965D01*
X366888Y94828D01*
X369094D01*
Y97638D01*
D02*
G37*
G36*
X365515Y75774D02*
X363050D01*
Y74078D01*
X366715D01*
Y74575D01*
X366623Y75034D01*
X366363Y75423D01*
X365974Y75683D01*
X365515Y75774D01*
D02*
G37*
G36*
X361869D02*
X359403D01*
X358944Y75683D01*
X358555Y75423D01*
X358295Y75034D01*
X358204Y74575D01*
Y74078D01*
X361869D01*
Y75774D01*
D02*
G37*
G36*
X366715Y72897D02*
X363050D01*
Y71201D01*
X365515D01*
X365974Y71292D01*
X366363Y71552D01*
X366623Y71941D01*
X366715Y72400D01*
Y72897D01*
D02*
G37*
G36*
X361869D02*
X358204D01*
Y72400D01*
X358295Y71941D01*
X358555Y71552D01*
X358944Y71292D01*
X359403Y71201D01*
X361869D01*
Y72897D01*
D02*
G37*
%LPD*%
D11*
X517030Y74565D02*
X516195D01*
X-40908Y118467D02*
X-36061D01*
X6299Y74673D02*
Y98032D01*
X6783Y99218D02*
Y101879D01*
Y99218D02*
X12205Y93796D01*
X-7972Y112303D02*
X6299Y98032D01*
X-27067Y112303D02*
X-7972D01*
X12205Y88768D02*
Y93796D01*
X-20437Y129098D02*
X6783Y101879D01*
X13157Y97816D02*
Y99442D01*
X-48976Y135398D02*
X-22799D01*
X-48976Y129098D02*
X-20437D01*
X-22799Y135398D02*
X13157Y99442D01*
X6299Y74673D02*
X19000Y61973D01*
X-28346Y113583D02*
X-27067Y112303D01*
X-28346Y113583D02*
X-28346Y113583D01*
X19000Y56900D02*
Y61973D01*
Y76900D02*
Y81973D01*
X12205Y88768D02*
X19000Y81973D01*
X-36059Y113350D02*
X-35827Y113583D01*
X-48976Y113350D02*
X-36059D01*
X-36061Y118467D02*
X-35827Y118701D01*
X-22647Y138547D02*
X19000Y96900D01*
X-48976Y138547D02*
X-22647D01*
X19000Y86900D02*
Y91973D01*
X13157Y97816D02*
X19000Y91973D01*
X57087Y154724D02*
X163324Y48487D01*
X324708Y63487D02*
X325000Y63779D01*
X315707Y63487D02*
X324708D01*
X268205D02*
X279093D01*
X267913Y63779D02*
X268205Y63487D01*
X318569Y200495D02*
X318862Y200787D01*
X325787D01*
X315707Y200495D02*
X318569D01*
X267964Y200445D02*
X279042D01*
X267913Y200394D02*
X267964Y200445D01*
X279042D02*
X279093Y200495D01*
X315707Y327185D02*
X325413D01*
X267933D02*
X279093D01*
X520007Y300204D02*
X530241D01*
X517232D02*
X517322Y300295D01*
X519916D02*
X520007Y300204D01*
X530241D02*
X537726Y307689D01*
X517322Y300295D02*
X519916D01*
X474200Y329000D02*
X527475D01*
X527794Y328681D01*
X474356Y339000D02*
X519268D01*
X523575Y334693D01*
X527600D01*
X472815Y339000D02*
X474356D01*
X532283Y320472D02*
Y330010D01*
X527600Y334693D02*
X532283Y330010D01*
X475188Y349000D02*
X477369Y351181D01*
X523622D02*
X535433Y339370D01*
X474356Y349000D02*
X475188D01*
X477369Y351181D02*
X523622D01*
X475277Y222310D02*
X477376Y224410D01*
X523860D02*
X535589Y212680D01*
X474356Y222310D02*
X475277D01*
X477376Y224410D02*
X523860D01*
X532439Y193783D02*
Y204569D01*
X528849Y208159D02*
X532439Y204569D01*
X524125Y208159D02*
X528849D01*
X474356Y212310D02*
X519973D01*
X524125Y208159D01*
X472971Y212310D02*
X474356D01*
X527787Y202310D02*
X527794Y202303D01*
X474356Y202310D02*
X527787D01*
X527267Y98032D02*
X534158Y91140D01*
X485510Y98032D02*
X527267D01*
X472781Y85302D02*
X485510Y98032D01*
X478266Y100787D02*
X527267D01*
X536307Y91747D01*
X473568Y96090D02*
X478266Y100787D01*
X498635Y75302D02*
X509947Y86614D01*
X518606D02*
X524709Y80510D01*
X509947Y86614D02*
X518606D01*
X532190Y68305D02*
Y78047D01*
X524709Y80510D02*
X529726D01*
X532190Y78047D01*
X517030Y74565D02*
X527544D01*
X509316D02*
X516195D01*
X500053Y65302D02*
X509316Y74565D01*
X474356Y75302D02*
X498635D01*
X48425Y184252D02*
X48638D01*
X49882Y185495D01*
X48425Y154724D02*
X57087D01*
X440332Y40821D02*
X468300D01*
X439274Y41320D02*
X440332Y40261D01*
X359466Y38502D02*
X396393D01*
X434436Y43780D02*
X438095Y47439D01*
X404564Y42917D02*
X406162Y41320D01*
X439274D01*
X428181Y43780D02*
X434436D01*
X397047Y39353D02*
X400612Y42917D01*
X404564D01*
X397047Y39156D02*
Y39353D01*
X428378Y48898D02*
X431530Y52050D01*
X417526Y48898D02*
X428378D01*
X413903Y45276D02*
X417526Y48898D01*
X397047Y48608D02*
X400380Y45276D01*
X413903D01*
X397047Y48608D02*
Y48805D01*
X400196Y61800D02*
X439660D01*
X397047Y58651D02*
X400196Y61800D01*
X397047Y58454D02*
Y58651D01*
X440158Y61302D02*
X468780D01*
X438965D02*
X440158D01*
X440332Y61128D01*
X439660Y61800D02*
X440158Y61302D01*
X429050Y64329D02*
X430771D01*
X433657Y64261D02*
X438489Y69093D01*
X428981Y64261D02*
X433657D01*
X428181D02*
X428981D01*
X429050Y64329D01*
X428378Y69379D02*
X432209Y73210D01*
X400387Y64567D02*
X424747D01*
X429559Y69379D02*
X429756D01*
X424747Y64567D02*
X429559Y69379D01*
X397047Y67906D02*
X400387Y64567D01*
X397047Y67906D02*
Y68103D01*
X428378Y82956D02*
X431331Y85909D01*
X400988Y81890D02*
X428690D01*
X429756Y82956D01*
X397047Y77949D02*
X400988Y81890D01*
X397047Y77753D02*
Y77949D01*
X409651Y87604D02*
X438504D01*
X440351Y89452D01*
X405905Y83858D02*
X409651Y87604D01*
X397047Y87205D02*
Y87401D01*
Y87205D02*
X400394Y83858D01*
X405905D01*
X396393Y38502D02*
X397047Y39156D01*
X391926Y43487D02*
X397047Y48608D01*
X362459Y43487D02*
X391926D01*
X395768Y56978D02*
X397047Y58258D01*
Y58454D01*
X395571Y56978D02*
X395768D01*
X384457Y45865D02*
X395571Y56978D01*
X395768Y66627D02*
X397047Y67906D01*
X395571Y66627D02*
X395768D01*
X384808Y55865D02*
X395571Y66627D01*
X351080Y55865D02*
X384808D01*
X343718Y48502D02*
X351080Y55865D01*
X395768Y76276D02*
X397047Y77556D01*
X395571Y76276D02*
X395768D01*
X382797Y63502D02*
X395571Y76276D01*
X359466Y63502D02*
X382797D01*
X397047Y77556D02*
Y77753D01*
X359466Y68502D02*
X378148D01*
X395571Y85925D02*
X395768D01*
X378148Y68502D02*
X395571Y85925D01*
X395768D02*
X397047Y87205D01*
X336450Y309900D02*
X354752D01*
X384457Y309562D02*
X395571Y320676D01*
X341593Y307200D02*
X354001D01*
X438189Y324999D02*
X470199D01*
X356363Y309562D02*
X384457D01*
X354001Y307200D02*
X356363Y309562D01*
X357052Y312200D02*
X360885D01*
X436812Y323622D02*
X438189Y324999D01*
X354752Y309900D02*
X357052Y312200D01*
X516363Y321240D02*
X516457D01*
X391744Y307200D02*
X395571Y311027D01*
X395768D02*
X397047Y312306D01*
X395571Y311027D02*
X395768D01*
X360885Y307200D02*
X391744D01*
X397047Y312306D02*
Y312503D01*
Y303051D02*
X400296Y306299D01*
X405512D02*
X409617Y302194D01*
X400296Y306299D02*
X405512D01*
X360885Y302200D02*
X396393D01*
X409617Y302194D02*
X438567D01*
X432991Y307478D02*
X437906Y312393D01*
X429600Y307478D02*
X432991D01*
X397047Y302854D02*
Y303051D01*
X429756Y312596D02*
X429797D01*
X429559D02*
X429756D01*
X426018Y309055D02*
X429559Y312596D01*
X400298Y309055D02*
X426018D01*
X397047Y312306D02*
X400298Y309055D01*
X437408Y324219D02*
X438567Y323060D01*
X436303Y325324D02*
X437408Y324219D01*
X415228Y325324D02*
X436303D01*
X414567Y325984D02*
X415228Y325324D01*
X397047Y322349D02*
X400683Y325984D01*
X397047Y322152D02*
Y322349D01*
X400683Y325984D02*
X414567D01*
X429756Y333076D02*
X429797D01*
X429559D02*
X429756D01*
X424829Y328346D02*
X429559Y333076D01*
X400305Y328346D02*
X424829D01*
X397047Y331604D02*
Y331801D01*
Y331604D02*
X400305Y328346D01*
X429756Y346654D02*
X429797D01*
X429600D02*
X429756D01*
X428320Y345374D02*
X429600Y346654D01*
X402461Y345374D02*
X428320D01*
X402362Y345276D02*
X402461Y345374D01*
X400676Y345276D02*
X402362D01*
X397047Y341450D02*
Y341647D01*
X400676Y345276D01*
X409842Y347638D02*
X414005Y351800D01*
X438173D01*
X400312Y347638D02*
X409842D01*
X397047Y350902D02*
Y351099D01*
Y350902D02*
X400312Y347638D01*
X396393Y302200D02*
X397047Y302854D01*
X395768Y320676D02*
X397047Y321955D01*
Y322152D01*
X395571Y320676D02*
X395768D01*
Y330325D02*
X397047Y331604D01*
X352499Y319562D02*
X384808D01*
X395571Y330325D02*
X395768D01*
X384808Y319562D02*
X395571Y330325D01*
X360885Y327200D02*
X382797D01*
X395768Y339974D02*
X397047Y341253D01*
Y341450D01*
X395571Y339974D02*
X395768D01*
X382797Y327200D02*
X395571Y339974D01*
X378148Y332200D02*
X395571Y349623D01*
X395768D01*
X360885Y332200D02*
X378148D01*
X395768Y349623D02*
X397047Y350902D01*
X429797Y346654D02*
X431076Y347933D01*
X431595D02*
X431694Y348031D01*
X463232D02*
X474200Y359000D01*
X431076Y347933D02*
X431595D01*
X431694Y348031D02*
X463232D01*
X439129Y302756D02*
X467956D01*
X438567Y302194D02*
X439129Y302756D01*
X467956D02*
X474867Y309667D01*
X517013Y46652D02*
X527859D01*
X516363Y47302D02*
X517013Y46652D01*
X527859D02*
X536307Y55100D01*
Y91747D01*
X474200Y319000D02*
X512535D01*
X514776Y321240D01*
X516363D01*
X474867Y309667D02*
X515696D01*
X516363Y310335D01*
X516410Y310288D02*
X516457Y310335D01*
X537726Y307689D02*
Y341014D01*
X474200Y359000D02*
X519740D01*
X537726Y341014D01*
X527638Y315827D02*
X532283Y320472D01*
X527638Y304882D02*
X527638D01*
X535433Y312677D01*
Y339370D01*
X315900Y317200D02*
X341593D01*
X341593Y317200D01*
Y312200D02*
X345137D01*
X352499Y319562D01*
X327302Y322200D02*
X329725Y319777D01*
X348758D01*
X315900Y322200D02*
X327302D01*
X348758Y319777D02*
X351181Y322200D01*
X360885D01*
X360885Y322200D01*
X334150Y312200D02*
X336450Y309900D01*
X315900Y312200D02*
X334150D01*
X429797Y312596D02*
X433039Y315838D01*
X453453D02*
X453543Y315748D01*
X433039Y315838D02*
X453453D01*
X453543Y315748D02*
X470948D01*
X474200Y319000D01*
X470199Y324999D02*
X474200Y329000D01*
X429797Y333076D02*
X433628Y336907D01*
X470722D01*
X472815Y339000D01*
X438300Y353543D02*
X438694Y353150D01*
X464173D01*
X268504Y312205D02*
X268514Y312195D01*
X279083D01*
X429600Y341535D02*
X433773D01*
X437906Y345669D01*
X438300D01*
X430400Y327958D02*
X430597D01*
X433445Y330806D01*
X434969D01*
X437036Y332873D01*
X437906Y312393D02*
X438300D01*
X473186Y55707D02*
X502957D01*
X516363Y69113D01*
X472781Y45302D02*
X503458D01*
X516363Y58207D01*
X463387Y85909D02*
X473568Y96090D01*
X472781Y65302D02*
X500053D01*
X527544Y63660D02*
X532190Y68305D01*
X527544Y52754D02*
X534158Y59368D01*
Y91140D01*
X431331Y85909D02*
X463387D01*
X440351Y89452D02*
X462754D01*
X432209Y73210D02*
X469303D01*
X471396Y75302D02*
X474356D01*
X469303Y73210D02*
X471396Y75302D01*
X468780Y61302D02*
X472781Y65302D01*
X431530Y52050D02*
X469529D01*
X473186Y55707D01*
X468300Y40821D02*
X472781Y45302D01*
X314481Y53502D02*
X340175D01*
X340175Y53502D01*
Y48502D02*
X343718D01*
X340175Y43502D02*
X352582D01*
X354944Y45865D01*
X384457D01*
X437588Y59924D02*
X438965Y61302D01*
X325883Y58502D02*
X328306Y56079D01*
X347339D01*
X314481Y58502D02*
X325883D01*
X347339Y56079D02*
X349762Y58502D01*
X359466D01*
X359466Y58502D01*
X332731Y48502D02*
X335031Y46202D01*
X314481Y48502D02*
X332731D01*
X335031Y46202D02*
X353333D01*
X355633Y48502D01*
X359466D01*
X428181Y77838D02*
X434613D01*
X439155Y82380D01*
X439549D01*
X427984Y69379D02*
X428378D01*
X438489Y69093D02*
X438883D01*
X438095Y47439D02*
X438489D01*
X400187Y192126D02*
X433929D01*
X397047Y195265D02*
X400187Y192126D01*
X433929D02*
X440113Y198310D01*
X395768Y193986D02*
X397047Y195265D01*
X356519Y182872D02*
X384457D01*
X395571Y193986D02*
X395768D01*
X384457Y182872D02*
X395571Y193986D01*
X397047Y224213D02*
Y224409D01*
X395571Y222933D02*
X395768D01*
X397047Y224213D01*
X362459Y205495D02*
X378133D01*
X395571Y222933D01*
X397047Y224213D02*
X400032Y221227D01*
X414679D01*
X397047Y224213D02*
Y224409D01*
X414679Y221227D02*
X418063Y224612D01*
X432928Y222939D02*
X464984D01*
X429953Y219964D02*
X432928Y222939D01*
X429756Y219964D02*
X429953D01*
X418063Y224612D02*
X437675D01*
X439939Y226876D01*
X401712Y219621D02*
X429414D01*
X429756Y219964D01*
X397047Y214957D02*
X401712Y219621D01*
X439441Y176378D02*
X440332Y177269D01*
X412205Y176378D02*
X439441D01*
X408661Y179921D02*
X412205Y176378D01*
X400608Y179921D02*
X408661D01*
X397047Y176361D02*
X400608Y179921D01*
X397047Y176164D02*
Y176361D01*
X435583Y180788D02*
X439939Y185143D01*
X429756Y180788D02*
X435583D01*
X425702Y189764D02*
X429559Y185906D01*
X400801Y189764D02*
X425702D01*
X429559Y185906D02*
X429756D01*
X397047Y185813D02*
Y186010D01*
X400801Y189764D01*
X440113Y198310D02*
X470355D01*
X397047Y195265D02*
Y195462D01*
X381061Y192873D02*
X393300Y205111D01*
X352655Y192873D02*
X381061D01*
X393300Y205111D02*
X397047D01*
X401188Y209449D02*
X426497D01*
X429559Y206387D01*
X397047Y205111D02*
Y205308D01*
X401188Y209449D01*
X397047Y214760D02*
Y214957D01*
X382979Y200495D02*
X397047Y214563D01*
X362459Y200495D02*
X382979D01*
X397047Y214563D02*
Y214760D01*
X395571Y184337D02*
X395768D01*
X397047Y185616D02*
Y185813D01*
X395768Y184337D02*
X397047Y185616D01*
X391729Y180495D02*
X395571Y184337D01*
X361041Y175510D02*
X362459D01*
Y175495D02*
X396378D01*
X397047Y176164D01*
X362459Y180495D02*
X391729D01*
X429756Y206387D02*
X429953D01*
X429559D02*
X429756D01*
X430556Y201269D02*
X430753D01*
X433601Y204117D01*
X438439D01*
X440332Y206010D01*
X434991Y190945D02*
X451813D01*
X429953Y185906D02*
X434991Y190945D01*
X515132Y194551D02*
X516613D01*
X515059Y194478D02*
X515132Y194551D01*
X429756Y185906D02*
X429953D01*
X99550Y190495D02*
X279093D01*
X97244Y188189D02*
X99550Y190495D01*
X47638Y188189D02*
X97244D01*
X49882Y185495D02*
X279093D01*
X44094Y184646D02*
X47638Y188189D01*
X27357Y192484D02*
X96182D01*
X99193Y195495D01*
X23519Y188647D02*
X27357Y192484D01*
X33154Y184646D02*
X44094D01*
X163324Y48487D02*
X279093D01*
X166526Y312195D02*
X268514D01*
X67323Y212992D02*
X166526Y312195D01*
X164823Y317185D02*
X279093D01*
X42520Y194882D02*
X164823Y317185D01*
X-48976Y210988D02*
X-32712D01*
X-33823Y204689D02*
X-13780Y184646D01*
X-48976Y204689D02*
X-33823D01*
X-10724Y189000D02*
X18800D01*
X-32712Y210988D02*
X-10724Y189000D01*
X-13780Y184646D02*
X13154D01*
X22918Y194882D02*
X42520D01*
X18800Y199000D02*
X22918Y194882D01*
X23519Y183719D02*
Y188647D01*
X28800Y189000D02*
X33154Y184646D01*
X99193Y195495D02*
X279093D01*
X28745Y159055D02*
X61417D01*
X18800Y169000D02*
X28745Y159055D01*
X61417D02*
X166985Y53487D01*
X33627Y164173D02*
X64567D01*
X170253Y58487D01*
X279093D01*
X28800Y169000D02*
X33627Y164173D01*
X166985Y53487D02*
X279093D01*
X18800Y179000D02*
X23519Y183719D01*
X159193Y322185D02*
X279093D01*
X34131Y204331D02*
X41339D01*
X159193Y322185D01*
X28800Y199000D02*
X34131Y204331D01*
X-32248Y198390D02*
X-15748Y181890D01*
X-48976Y198390D02*
X-32248D01*
X-15748Y181890D02*
X5910D01*
X18800Y169000D01*
X-17777Y179492D02*
X-2632Y164348D01*
X-48976Y179492D02*
X-17777D01*
X-2632Y164348D02*
X1552D01*
X19000Y146900D01*
X13154Y184646D02*
X18800Y179000D01*
X-26342Y217287D02*
X-8055Y199000D01*
X18800D01*
X-48976Y217287D02*
X-26342D01*
X3579Y223587D02*
X18165Y209000D01*
X18800D01*
X-48976Y223587D02*
X3579D01*
X-48976Y229886D02*
X-38153D01*
X-34252Y225984D02*
X11816D01*
X-38153Y229886D02*
X-34252Y225984D01*
X11816D02*
X18800Y219000D01*
X-37366Y236185D02*
X-30181Y229000D01*
X18800D01*
X-48976Y236185D02*
X-37366D01*
X-48976Y242484D02*
X-38941D01*
X-30315Y233858D01*
X13658D01*
X18800Y239000D01*
X-48976Y248783D02*
X-40122D01*
X-28346Y237008D01*
X-26374Y239764D02*
X4064D01*
X-41693Y255083D02*
X-26374Y239764D01*
X-48976Y255083D02*
X-41693D01*
X4064Y239764D02*
X6785Y242484D01*
X-28346Y237008D02*
X6808D01*
X18800Y249000D01*
X6785Y242484D02*
Y246985D01*
X18800Y259000D01*
X-28395Y154295D02*
X19000Y106900D01*
X-48976Y154295D02*
X-28395D01*
X-48976Y160594D02*
X-24694D01*
X19000Y116900D01*
X-20994Y166894D02*
X19000Y126900D01*
X-48976Y166894D02*
X-20994D01*
X-48976Y173193D02*
X-17293D01*
X19000Y136900D01*
X451813Y190945D02*
X453699Y189058D01*
X519896Y232310D02*
X537882Y214324D01*
X474356Y232310D02*
X519896D01*
X474356Y192310D02*
X509688D01*
X515309Y194478D02*
X516540D01*
X511855Y194478D02*
X515059D01*
X509688Y192310D02*
X511855Y194478D01*
X516540Y194478D02*
X516613Y194551D01*
X516738Y183520D02*
X516862Y183645D01*
X475023Y182977D02*
X515696D01*
X516363Y183645D01*
X527794Y178192D02*
X527794D01*
X528893Y172010D02*
X537882Y180999D01*
X517342Y172010D02*
X528893D01*
X516613Y172740D02*
X517342Y172010D01*
X527794Y178192D02*
X535589Y185987D01*
X527794Y189137D02*
X532439Y193783D01*
X537882Y180999D02*
Y214324D01*
X535589Y185987D02*
Y212680D01*
X440332Y177269D02*
X440892Y177829D01*
X469875D01*
X327457Y195510D02*
X329881Y193087D01*
X316056Y195510D02*
X327457D01*
X316056Y185510D02*
X334306D01*
X316056Y190510D02*
X341749D01*
X345293Y185510D02*
X352655Y192873D01*
X341749Y190510D02*
X341749Y190510D01*
X329881Y193087D02*
X348914D01*
X351337Y195510D01*
X361041D02*
X361041Y195510D01*
X351337Y195510D02*
X361041D01*
X440354Y226460D02*
X464329D01*
X439939Y226876D02*
X440354Y226460D01*
X464984Y222939D02*
X474356Y232310D01*
X469875Y177829D02*
X474356Y182310D01*
X475023Y182977D01*
X471104Y189058D02*
X474356Y192310D01*
X341749Y180510D02*
X354157D01*
X356519Y182872D01*
X336606Y183210D02*
X354908D01*
X357208Y185510D01*
X334306Y185510D02*
X336606Y183210D01*
X341749Y185510D02*
X345293D01*
X357208D02*
X361041D01*
X439939Y185143D02*
X440332D01*
X453699Y189058D02*
X471104D01*
X429953Y206387D02*
X433783Y210217D01*
X470878D01*
X429756Y214846D02*
X435389D01*
X439545Y219002D01*
X439939D01*
X470878Y210217D02*
X472971Y212310D01*
X470355Y198310D02*
X474356Y202310D01*
X-35827Y113583D02*
X-28346D01*
D19*
X253937Y366929D02*
D03*
Y378346D02*
D03*
X369685Y98228D02*
D03*
Y109646D02*
D03*
X368504Y234842D02*
D03*
Y246260D02*
D03*
X366929Y362008D02*
D03*
Y373425D02*
D03*
D20*
X402276Y110236D02*
D03*
Y103937D02*
D03*
Y247047D02*
D03*
Y240748D02*
D03*
Y373622D02*
D03*
Y367323D02*
D03*
D21*
X267913Y63779D02*
D03*
X262795D02*
D03*
X330118D02*
D03*
X325000D02*
D03*
X267913Y200394D02*
D03*
X262795D02*
D03*
X330906Y200787D02*
D03*
X325787D02*
D03*
X267913Y327165D02*
D03*
X262795D02*
D03*
X330512Y327559D02*
D03*
X325394D02*
D03*
X397047Y302854D02*
D03*
X402165D02*
D03*
X397047Y312503D02*
D03*
X402165D02*
D03*
X397047Y322152D02*
D03*
X402165D02*
D03*
X397047Y331801D02*
D03*
X402165D02*
D03*
X397047Y341450D02*
D03*
X402165D02*
D03*
X397047Y351099D02*
D03*
X402165D02*
D03*
X397047Y39156D02*
D03*
X402165D02*
D03*
X397047Y48805D02*
D03*
X402165D02*
D03*
X397047Y58454D02*
D03*
X402165D02*
D03*
X397047Y68103D02*
D03*
X402165D02*
D03*
X397047Y77753D02*
D03*
X402165D02*
D03*
X397047Y87401D02*
D03*
X402165D02*
D03*
X397047Y224409D02*
D03*
X402165D02*
D03*
X397047Y214760D02*
D03*
X402165D02*
D03*
X397047Y205111D02*
D03*
X402165D02*
D03*
X397047Y195462D02*
D03*
X402165D02*
D03*
X397047Y185813D02*
D03*
X402165D02*
D03*
X397047Y176164D02*
D03*
X402165D02*
D03*
D22*
X394882Y104527D02*
D03*
Y109646D02*
D03*
Y241339D02*
D03*
Y246457D02*
D03*
Y367913D02*
D03*
Y373031D02*
D03*
X429756Y346654D02*
D03*
Y341535D02*
D03*
Y333076D02*
D03*
Y327958D02*
D03*
Y312596D02*
D03*
Y307478D02*
D03*
Y77838D02*
D03*
Y82956D02*
D03*
Y64261D02*
D03*
Y69379D02*
D03*
Y43780D02*
D03*
Y48898D02*
D03*
Y214846D02*
D03*
Y219964D02*
D03*
Y201269D02*
D03*
Y206387D02*
D03*
Y180788D02*
D03*
Y185906D02*
D03*
X-28346Y118701D02*
D03*
Y113583D02*
D03*
X-35827Y118701D02*
D03*
Y113583D02*
D03*
D23*
X356080Y373250D02*
D03*
Y365376D02*
D03*
X264567Y377165D02*
D03*
Y369291D02*
D03*
X438173Y351800D02*
D03*
Y343926D02*
D03*
X438567Y323060D02*
D03*
Y330934D02*
D03*
Y302194D02*
D03*
Y310068D02*
D03*
X268898Y342913D02*
D03*
Y335039D02*
D03*
X327543Y300619D02*
D03*
Y292745D02*
D03*
X356080Y101679D02*
D03*
Y109553D02*
D03*
X439939Y81994D02*
D03*
Y89868D02*
D03*
X440332Y69002D02*
D03*
Y61128D02*
D03*
Y48135D02*
D03*
Y40261D02*
D03*
X329309Y30813D02*
D03*
Y38687D02*
D03*
X356080Y238687D02*
D03*
Y246561D02*
D03*
X440332Y185143D02*
D03*
Y177269D02*
D03*
X439939Y219002D02*
D03*
Y226876D02*
D03*
X266535Y216535D02*
D03*
Y208661D02*
D03*
X440332Y206010D02*
D03*
Y198135D02*
D03*
X329309Y167821D02*
D03*
Y175695D02*
D03*
D24*
X362459Y302185D02*
D03*
Y307185D02*
D03*
Y312185D02*
D03*
Y317185D02*
D03*
Y322185D02*
D03*
Y327185D02*
D03*
Y332185D02*
D03*
Y337185D02*
D03*
X340215Y302185D02*
D03*
Y307185D02*
D03*
Y312185D02*
D03*
Y317185D02*
D03*
Y322185D02*
D03*
Y327185D02*
D03*
Y332185D02*
D03*
Y337185D02*
D03*
X362459Y38487D02*
D03*
Y43487D02*
D03*
Y48487D02*
D03*
Y53487D02*
D03*
Y58487D02*
D03*
Y63487D02*
D03*
Y68487D02*
D03*
Y73487D02*
D03*
X340215Y38487D02*
D03*
Y43487D02*
D03*
Y48487D02*
D03*
Y53487D02*
D03*
Y58487D02*
D03*
Y63487D02*
D03*
Y68487D02*
D03*
Y73487D02*
D03*
Y210495D02*
D03*
Y205495D02*
D03*
Y200495D02*
D03*
Y195495D02*
D03*
Y190495D02*
D03*
Y185495D02*
D03*
Y180495D02*
D03*
Y175495D02*
D03*
X362459Y210495D02*
D03*
Y205495D02*
D03*
Y200495D02*
D03*
Y195495D02*
D03*
Y190495D02*
D03*
Y185495D02*
D03*
Y180495D02*
D03*
Y175495D02*
D03*
D25*
X315707Y302185D02*
D03*
Y307185D02*
D03*
Y312185D02*
D03*
Y317185D02*
D03*
Y322185D02*
D03*
Y327185D02*
D03*
Y332185D02*
D03*
Y337185D02*
D03*
X279093Y302185D02*
D03*
Y307185D02*
D03*
Y312185D02*
D03*
Y317185D02*
D03*
Y322185D02*
D03*
Y327185D02*
D03*
Y332185D02*
D03*
Y337185D02*
D03*
X279093Y210495D02*
D03*
Y205495D02*
D03*
Y200495D02*
D03*
Y195495D02*
D03*
Y190495D02*
D03*
Y185495D02*
D03*
Y180495D02*
D03*
Y175495D02*
D03*
X315707Y210495D02*
D03*
Y205495D02*
D03*
Y200495D02*
D03*
Y195495D02*
D03*
Y190495D02*
D03*
Y185495D02*
D03*
Y180495D02*
D03*
Y175495D02*
D03*
Y38487D02*
D03*
Y43487D02*
D03*
Y48487D02*
D03*
Y53487D02*
D03*
Y58487D02*
D03*
Y63487D02*
D03*
Y68487D02*
D03*
Y73487D02*
D03*
X279093Y38487D02*
D03*
Y43487D02*
D03*
Y48487D02*
D03*
Y53487D02*
D03*
Y58487D02*
D03*
Y63487D02*
D03*
Y68487D02*
D03*
Y73487D02*
D03*
D26*
X278740Y125984D02*
D03*
X270866D02*
D03*
X271654Y80709D02*
D03*
X263779D02*
D03*
X278740Y262992D02*
D03*
X270866D02*
D03*
D27*
X-490Y248500D02*
D03*
X-19309D02*
D03*
X-19610Y265600D02*
D03*
X-790D02*
D03*
X-19209Y283000D02*
D03*
X-390D02*
D03*
D28*
X-48976Y113350D02*
D03*
Y116500D02*
D03*
Y119650D02*
D03*
Y122799D02*
D03*
Y125949D02*
D03*
Y129098D02*
D03*
Y132248D02*
D03*
Y135398D02*
D03*
Y138547D02*
D03*
Y141697D02*
D03*
Y144846D02*
D03*
Y147996D02*
D03*
Y151146D02*
D03*
Y154295D02*
D03*
Y157445D02*
D03*
Y160594D02*
D03*
Y163744D02*
D03*
Y166894D02*
D03*
Y170043D02*
D03*
Y173193D02*
D03*
Y176343D02*
D03*
Y179492D02*
D03*
Y182642D02*
D03*
Y198390D02*
D03*
Y201539D02*
D03*
Y204689D02*
D03*
Y207839D02*
D03*
Y210988D02*
D03*
Y214138D02*
D03*
Y217287D02*
D03*
Y220437D02*
D03*
Y223587D02*
D03*
Y226736D02*
D03*
Y229886D02*
D03*
Y233035D02*
D03*
Y236185D02*
D03*
Y239335D02*
D03*
Y242484D02*
D03*
Y245634D02*
D03*
Y248783D02*
D03*
Y251933D02*
D03*
Y255083D02*
D03*
Y258232D02*
D03*
Y261382D02*
D03*
Y264531D02*
D03*
Y267681D02*
D03*
Y270831D02*
D03*
Y273980D02*
D03*
Y277130D02*
D03*
Y280280D02*
D03*
D48*
X331710Y109445D02*
X368389D01*
X368590Y109646D01*
X366814Y107869D02*
X368389Y109445D01*
X349762Y76854D02*
X362598Y89690D01*
Y102559D02*
X366814Y106774D01*
X368590Y109646D02*
X369685D01*
X366814Y106774D02*
Y107869D01*
X362598Y89690D02*
Y102559D01*
X369177Y246453D02*
X369621D01*
X367208Y244483D02*
X369177Y246453D01*
X367208Y242798D02*
Y244483D01*
X365354Y240945D02*
X365354D01*
X367208Y242798D01*
X361811Y237402D02*
X365354Y240945D01*
X356080Y246453D02*
X369621D01*
X370956D01*
X333285D02*
X356080D01*
X351337Y197720D02*
Y222203D01*
X361811Y232677D02*
Y237402D01*
X351337Y222203D02*
X361811Y232677D01*
X366929Y373143D02*
X368307D01*
X333129D02*
X366929D01*
Y373425D01*
Y368898D02*
Y373143D01*
X364567Y366535D02*
X366929Y368898D01*
X360827Y362802D02*
X364561Y366535D01*
X360827Y350197D02*
Y362802D01*
X364561Y366535D02*
X364567D01*
X368307Y373143D02*
X370800D01*
X368307D02*
X369801Y371649D01*
X368024Y373425D02*
X368307Y373143D01*
X369801Y370554D02*
Y371649D01*
X366929Y373425D02*
X368024D01*
X351181Y340551D02*
X360827Y350197D01*
X351181Y324410D02*
Y340551D01*
X325413Y327185D02*
X325787Y327559D01*
X267913Y327165D02*
X267933Y327185D01*
X395177Y104232D02*
X401981D01*
X394882Y104527D02*
X395177Y104232D01*
X401981D02*
X402276Y103937D01*
X395177Y367618D02*
X401981D01*
X402276Y367323D01*
X394882Y367913D02*
X395177Y367618D01*
X380122Y373143D02*
X394771D01*
X394882Y373031D01*
X370956Y373143D02*
X380122D01*
X402165Y351099D02*
Y351296D01*
X380122Y373143D02*
X400886Y352379D01*
X401083D02*
X402165Y351296D01*
X400886Y352379D02*
X401083D01*
X395177Y241043D02*
X401981D01*
X394882Y241339D02*
X395177Y241043D01*
X401981D02*
X402276Y240748D01*
X381106Y246453D02*
X394878D01*
X394882Y246457D01*
X370956Y246453D02*
X381106D01*
X401083Y225492D02*
X402165Y224409D01*
X401083Y225492D02*
Y226476D01*
X403346Y225787D02*
X405512Y223622D01*
X381106Y246453D02*
X401083Y226476D01*
X380319Y109445D02*
X391839D01*
X392040Y109646D01*
X380319Y109445D02*
X402165Y87598D01*
X519291Y306299D02*
X522828Y309836D01*
X492307Y299000D02*
X499606Y306299D01*
X519291D01*
X492463Y172310D02*
X500468Y180315D01*
X520153D02*
X522984Y183146D01*
X500468Y180315D02*
X520153D01*
X496824Y35302D02*
X515459Y53937D01*
X520472D02*
X522787Y56251D01*
X515459Y53937D02*
X520472D01*
X522787Y56251D02*
Y69829D01*
X402165Y58454D02*
X402352Y58268D01*
X404724D01*
X402946Y67323D02*
X404724D01*
X402165Y68103D02*
X402946Y67323D01*
X402165Y77753D02*
X402759Y78347D01*
X404724D01*
X402559Y87795D02*
X404724D01*
X402165Y87401D02*
X402559Y87795D01*
X402165Y87401D02*
Y87598D01*
X370956Y109445D02*
X380319D01*
X402165Y68103D02*
Y77753D01*
Y48805D02*
Y58454D01*
X402638Y35302D02*
X474356D01*
X351943D02*
X402638D01*
X402165Y35775D02*
X402638Y35302D01*
X402165Y35775D02*
Y39156D01*
X474356Y35302D02*
X496824D01*
X348975Y38271D02*
X351943Y35302D01*
X402270Y322047D02*
X405905D01*
X402165Y322152D02*
X402270Y322047D01*
X403248Y330709D02*
X405905D01*
X402165Y331791D02*
Y331801D01*
Y331791D02*
X403248Y330709D01*
X402165Y341450D02*
X402277Y341339D01*
X405512D01*
X405200Y351099D02*
X405512Y350787D01*
X402165Y351099D02*
X405200D01*
X402165Y331801D02*
Y341450D01*
X401939Y296850D02*
X471302D01*
X355512D02*
X401939D01*
X402165Y297077D01*
Y302854D01*
X350394Y301969D02*
X355512Y296850D01*
X402165Y312503D02*
Y322152D01*
X473451Y299000D02*
X492307D01*
X471302Y296850D02*
X473451Y299000D01*
X522828Y309836D02*
Y321667D01*
X329469Y376802D02*
X333129Y373143D01*
X341535Y302185D02*
X341677Y302044D01*
X350318D02*
X350394Y301969D01*
X341677Y302044D02*
X350318D01*
X315551Y302185D02*
X341535D01*
X351181Y314173D02*
X354272D01*
X357283Y317185D01*
X360827D01*
X315551Y302185D02*
X315551Y302185D01*
X328051Y113104D02*
X331710Y109445D01*
X340116Y38487D02*
X340258Y38346D01*
X348900D02*
X348975Y38271D01*
X340258Y38346D02*
X348900D01*
X349762Y50476D02*
X352853D01*
X355865Y53487D01*
X349762Y60712D02*
Y76854D01*
X355865Y53487D02*
X359408D01*
X314132Y38487D02*
X340116D01*
X314132Y38487D02*
X314132Y38487D01*
X402165Y195265D02*
X403248Y194183D01*
X405030D01*
X402165Y195265D02*
Y205111D01*
Y185925D02*
X403248Y187007D01*
X402165Y185813D02*
Y185925D01*
X403248Y187007D02*
X404712D01*
X402165Y205308D02*
X403248Y206391D01*
X402165Y205111D02*
Y205308D01*
X403248Y206391D02*
X403445D01*
X404123Y207068D01*
X405618D01*
X405693Y207144D01*
X405405Y214567D02*
X405512D01*
X402165Y214760D02*
X405212D01*
X405405Y214567D01*
X350550Y175279D02*
X353518Y172310D01*
X406019D01*
X474356D01*
X403445Y174884D02*
X406019Y172310D01*
X403248Y174884D02*
X403445D01*
X402165Y175967D02*
Y176164D01*
Y175967D02*
X403248Y174884D01*
X474356Y172310D02*
X492463D01*
X522984Y183146D02*
Y194977D01*
X315707Y175495D02*
X329109D01*
X329309Y175695D01*
X329508Y175495D01*
X341691D01*
X341691Y175495D02*
X341691D01*
X341691Y175495D01*
X341691D02*
X341832Y175354D01*
X350474D01*
X350550Y175279D01*
X354428Y187484D02*
X357439Y190495D01*
X360983D01*
X329625Y250112D02*
X333285Y246453D01*
X351337Y187484D02*
X354428D01*
D49*
X253937Y376802D02*
X264567D01*
X279469D01*
X263564Y80531D02*
X265453Y78642D01*
X265453D02*
X275532Y68563D01*
X280562D02*
X285433Y63692D01*
X265453Y78642D02*
X265453D01*
X263564Y80531D02*
Y162722D01*
X275532Y68563D02*
X280562D01*
X274987Y207087D02*
X276262Y205812D01*
Y205677D02*
X276444Y205495D01*
X257874Y216803D02*
X267590Y207087D01*
X274987D01*
X276262Y205677D02*
Y205812D01*
X276444Y205495D02*
X279093D01*
X257874Y216803D02*
Y283722D01*
X279078Y205510D02*
X282198D01*
X274987Y333858D02*
X276261Y332584D01*
X267323Y333465D02*
X267717Y333858D01*
X276261Y332367D02*
Y332584D01*
X267717Y333858D02*
X274987D01*
X276261Y332367D02*
X276443Y332185D01*
X279093D01*
X266929Y333858D02*
X267323Y333465D01*
X29600Y296200D02*
X67258Y333858D01*
X266929D01*
X276337Y302185D02*
X278937D01*
X279286Y302200D02*
X282042D01*
X279286Y332200D02*
X282042D01*
X285100Y329142D01*
X282042Y302200D02*
X285100Y305258D01*
Y329142D01*
X257874Y283722D02*
X276337Y302185D01*
X278346Y125197D02*
X278986Y124557D01*
Y113744D02*
Y124557D01*
Y113744D02*
X279626Y113104D01*
X277443Y38412D02*
X277518Y38487D01*
X277867Y38502D02*
X280623D01*
X285433Y43313D01*
Y63692D01*
X279183Y250555D02*
Y262549D01*
X278740Y262992D02*
X279183Y262549D01*
Y250555D02*
X279626Y250112D01*
X278740Y262992D02*
X278870Y263122D01*
X279078Y205510D02*
X279093Y205495D01*
X19600Y296200D02*
X29600D01*
X23675Y290275D02*
X29600Y296200D01*
X23675Y275539D02*
Y290275D01*
X51145Y376802D02*
X253937D01*
X41339Y366996D02*
X51145Y376802D01*
X41339Y327939D02*
Y366996D01*
X29600Y316200D02*
X41339Y327939D01*
X19600Y336200D02*
X29600D01*
X19600Y316200D02*
X29600D01*
X-490Y248500D02*
Y251374D01*
X23675Y275539D01*
X13780Y280867D02*
Y310379D01*
X7760Y274848D02*
X13780Y280867D01*
Y310379D02*
X19600Y316200D01*
X-790Y263632D02*
Y266506D01*
X7552Y274848D01*
X7760D01*
X7874Y290201D02*
Y324474D01*
X-390Y279063D02*
Y281937D01*
X7874Y290201D01*
Y324474D02*
X19600Y336200D01*
X263564Y162722D02*
X276208Y175367D01*
X278964D02*
X279093Y175495D01*
X276208Y175367D02*
X278964D01*
X286002Y179314D02*
Y201706D01*
X282198Y175510D02*
X286002Y179314D01*
X282198Y205510D02*
X286002Y201706D01*
X279442Y175510D02*
X282198D01*
X-21632Y253363D02*
X-19309Y251041D01*
X-32191Y261382D02*
X-24173Y253363D01*
X-48976Y261382D02*
X-37922D01*
X-32191D01*
X-19309Y248500D02*
Y251041D01*
X-24173Y253363D02*
X-21632D01*
X-48976Y267681D02*
X-21690D01*
X-38294Y273980D02*
X-25355D01*
X-48976D02*
X-38294D01*
X-25355D02*
X-19209Y280126D01*
X-21690Y267681D02*
X-19610Y265600D01*
X-19209Y280126D02*
Y283000D01*
D50*
X474356Y25302D02*
D03*
Y35302D02*
D03*
Y45302D02*
D03*
Y55302D02*
D03*
Y65302D02*
D03*
Y75302D02*
D03*
Y85302D02*
D03*
Y349000D02*
D03*
Y339000D02*
D03*
Y329000D02*
D03*
Y319000D02*
D03*
Y309000D02*
D03*
Y299000D02*
D03*
Y289000D02*
D03*
Y222310D02*
D03*
Y212310D02*
D03*
Y202310D02*
D03*
Y192310D02*
D03*
Y182310D02*
D03*
Y172310D02*
D03*
Y162310D02*
D03*
D51*
Y95302D02*
D03*
Y359000D02*
D03*
Y232310D02*
D03*
D52*
X522203Y274035D02*
D03*
Y372421D02*
D03*
Y21280D02*
D03*
Y119665D02*
D03*
Y147658D02*
D03*
Y246043D02*
D03*
D53*
X527794Y339587D02*
D03*
Y306870D02*
D03*
Y317776D02*
D03*
Y328681D02*
D03*
X516613Y301417D02*
D03*
Y312323D02*
D03*
Y323228D02*
D03*
Y334134D02*
D03*
X527794Y86831D02*
D03*
Y54114D02*
D03*
Y65020D02*
D03*
Y75925D02*
D03*
X516613Y48661D02*
D03*
Y59567D02*
D03*
Y70473D02*
D03*
Y81378D02*
D03*
Y207756D02*
D03*
Y196850D02*
D03*
Y185945D02*
D03*
Y175039D02*
D03*
X527794Y202303D02*
D03*
Y191398D02*
D03*
Y180492D02*
D03*
Y213209D02*
D03*
D54*
X516613Y345039D02*
D03*
Y92283D02*
D03*
Y218661D02*
D03*
D55*
X279625Y376802D02*
D03*
X279626Y250112D02*
D03*
Y113104D02*
D03*
D56*
X289625Y376802D02*
D03*
X309625D02*
D03*
X319625D02*
D03*
X329625D02*
D03*
X339625D02*
D03*
X339626Y250112D02*
D03*
X329626D02*
D03*
X319625D02*
D03*
X309626D02*
D03*
X289626D02*
D03*
Y113104D02*
D03*
X309626D02*
D03*
X319625D02*
D03*
X329626D02*
D03*
X339626D02*
D03*
D57*
X29600Y286200D02*
D03*
X19600D02*
D03*
X29600Y296200D02*
D03*
X19600D02*
D03*
X29600Y306200D02*
D03*
X19600D02*
D03*
X29600Y316200D02*
D03*
X19600D02*
D03*
X29600Y326200D02*
D03*
X19600D02*
D03*
X29600Y336200D02*
D03*
X39000Y56900D02*
D03*
X29000D02*
D03*
X19000D02*
D03*
X39000Y66900D02*
D03*
X29000D02*
D03*
X19000D02*
D03*
X39000Y76900D02*
D03*
X29000D02*
D03*
X19000D02*
D03*
X39000Y86900D02*
D03*
X29000D02*
D03*
X19000D02*
D03*
X39000Y96900D02*
D03*
X29000D02*
D03*
X19000D02*
D03*
X39000Y106900D02*
D03*
X29000D02*
D03*
X19000D02*
D03*
X39000Y116900D02*
D03*
X29000D02*
D03*
X19000D02*
D03*
X39000Y126900D02*
D03*
X29000D02*
D03*
X19000D02*
D03*
X39000Y136900D02*
D03*
X29000D02*
D03*
X19000D02*
D03*
X39000Y146900D02*
D03*
X29000D02*
D03*
X28800Y259000D02*
D03*
X38800D02*
D03*
X18800Y249000D02*
D03*
X28800D02*
D03*
X38800D02*
D03*
X18800Y239000D02*
D03*
X28800D02*
D03*
X38800D02*
D03*
X18800Y229000D02*
D03*
X28800D02*
D03*
X38800D02*
D03*
X18800Y219000D02*
D03*
X28800D02*
D03*
X38800D02*
D03*
X18800Y209000D02*
D03*
X28800D02*
D03*
X38800D02*
D03*
X18800Y199000D02*
D03*
X28800D02*
D03*
X38800D02*
D03*
X18800Y189000D02*
D03*
X28800D02*
D03*
X38800D02*
D03*
X18800Y179000D02*
D03*
X28800D02*
D03*
X38800D02*
D03*
X18800Y169000D02*
D03*
X28800D02*
D03*
X38800D02*
D03*
D58*
X19600Y336200D02*
D03*
X19000Y146900D02*
D03*
X18800Y259000D02*
D03*
D59*
X-9843Y280709D02*
D03*
X-9449Y264961D02*
D03*
X-9843Y250787D02*
D03*
X-29134Y183465D02*
D03*
X-33465Y144882D02*
D03*
X336614Y30315D02*
D03*
X322047D02*
D03*
X324016Y44094D02*
D03*
X355906Y94095D02*
D03*
X368898Y92126D02*
D03*
X337008Y167717D02*
D03*
X323622Y181496D02*
D03*
X322441Y168110D02*
D03*
X354331Y231890D02*
D03*
X374410Y240551D02*
D03*
X333858Y296457D02*
D03*
X324410Y307087D02*
D03*
X316142Y341732D02*
D03*
X340158Y341339D02*
D03*
X362598Y341732D02*
D03*
X408661Y373622D02*
D03*
X356299Y359055D02*
D03*
X370472Y366846D02*
D03*
D60*
X-40908Y118467D02*
D03*
X8554Y101539D02*
D03*
X-34334Y132469D02*
D03*
X48425Y184252D02*
D03*
Y154724D02*
D03*
X67323Y212992D02*
D03*
X275705Y280107D02*
D03*
X201886Y250580D02*
D03*
X216650Y161997D02*
D03*
X83776Y368690D02*
D03*
X246178Y102942D02*
D03*
X275705Y221052D02*
D03*
X172359Y14359D02*
D03*
X128068Y339162D02*
D03*
X98540Y161997D02*
D03*
X231414Y368690D02*
D03*
X142831Y250580D02*
D03*
X260942D02*
D03*
X172359Y309635D02*
D03*
X246178Y43887D02*
D03*
X187123Y339162D02*
D03*
X69012D02*
D03*
X260942Y14359D02*
D03*
X98540Y43887D02*
D03*
X113304Y132469D02*
D03*
X98540Y339162D02*
D03*
X201886Y368690D02*
D03*
X275705Y102942D02*
D03*
X216650Y43887D02*
D03*
X24721Y14359D02*
D03*
X260942Y309635D02*
D03*
X246178Y280107D02*
D03*
X172359Y250580D02*
D03*
Y132469D02*
D03*
X24721Y368690D02*
D03*
X54249Y132469D02*
D03*
X83776D02*
D03*
X187123Y43887D02*
D03*
X260942Y73414D02*
D03*
X142831Y132469D02*
D03*
X157595Y221052D02*
D03*
X83776Y309635D02*
D03*
X39485Y43887D02*
D03*
X9957Y339162D02*
D03*
X69012Y280107D02*
D03*
X157595D02*
D03*
X216650Y102942D02*
D03*
X69012D02*
D03*
X246178Y161997D02*
D03*
X128068Y43887D02*
D03*
X54249Y368690D02*
D03*
X9957Y43887D02*
D03*
X-19570Y161997D02*
D03*
X24721Y309635D02*
D03*
X69012Y43887D02*
D03*
X54249Y14359D02*
D03*
X83776D02*
D03*
X142831Y368690D02*
D03*
X39485Y161997D02*
D03*
X54249Y250580D02*
D03*
X157595Y102942D02*
D03*
X187123Y161997D02*
D03*
X231414Y132469D02*
D03*
X187123Y280107D02*
D03*
X231414Y309635D02*
D03*
X128068Y221052D02*
D03*
X231414Y14359D02*
D03*
X157595Y43887D02*
D03*
X-19570Y221052D02*
D03*
X98540D02*
D03*
X201886Y14359D02*
D03*
Y132469D02*
D03*
X172359Y368690D02*
D03*
Y73414D02*
D03*
X24721D02*
D03*
X201886D02*
D03*
X157595Y161997D02*
D03*
X187123Y221052D02*
D03*
X128068Y161997D02*
D03*
X113304Y309635D02*
D03*
X83776Y73414D02*
D03*
Y250580D02*
D03*
X54249Y309635D02*
D03*
X201886D02*
D03*
X216650Y280107D02*
D03*
X98540Y102942D02*
D03*
X246178Y339162D02*
D03*
X54249Y73414D02*
D03*
X216650Y221052D02*
D03*
X39485Y280107D02*
D03*
X113304Y14359D02*
D03*
X98540Y280107D02*
D03*
X231414Y250580D02*
D03*
X260942Y132469D02*
D03*
X187123Y102942D02*
D03*
X-19570D02*
D03*
X275705Y161997D02*
D03*
X113304Y368690D02*
D03*
X142831Y73414D02*
D03*
X216650Y339162D02*
D03*
X113304Y250580D02*
D03*
X231414Y73414D02*
D03*
X113304D02*
D03*
X9957Y161997D02*
D03*
X157595Y339162D02*
D03*
X142831Y309635D02*
D03*
X246178Y221052D02*
D03*
X142831Y14359D02*
D03*
X404724Y58268D02*
D03*
Y67323D02*
D03*
Y78347D02*
D03*
Y87795D02*
D03*
X405905Y322047D02*
D03*
Y330709D02*
D03*
X405512Y341339D02*
D03*
Y350787D02*
D03*
X522828Y321667D02*
D03*
X350394Y301969D02*
D03*
X351181Y314173D02*
D03*
Y324410D02*
D03*
X464173Y353150D02*
D03*
X522787Y69829D02*
D03*
X462754Y89452D02*
D03*
X348975Y38271D02*
D03*
X349762Y50476D02*
D03*
Y60712D02*
D03*
X359211Y77247D02*
D03*
X405030Y194183D02*
D03*
X404712Y187007D02*
D03*
X405693Y207144D02*
D03*
X405512Y214567D02*
D03*
Y223622D02*
D03*
X275590Y372047D02*
D03*
X273622Y118110D02*
D03*
Y112205D02*
D03*
X274614Y107213D02*
D03*
X281496Y106299D02*
D03*
X275590Y381890D02*
D03*
X273622Y244094D02*
D03*
Y250000D02*
D03*
Y255906D02*
D03*
Y214567D02*
D03*
X271654Y220472D02*
D03*
X522984Y194977D02*
D03*
X350550Y175279D02*
D03*
X351337Y187484D02*
D03*
Y197720D02*
D03*
X464329Y226460D02*
D03*
X360786Y214255D02*
D03*
X-37922Y261399D02*
D03*
X-38183Y267654D02*
D03*
X-38294Y273980D02*
D03*
M02*
