G04*
G04 #@! TF.GenerationSoftware,Altium Limited,Altium Designer,21.1.1 (26)*
G04*
G04 Layer_Color=16711935*
%FSLAX25Y25*%
%MOIN*%
G70*
G04*
G04 #@! TF.SameCoordinates,5AB17A02-B252-4A1D-B91B-03B2559E31EB*
G04*
G04*
G04 #@! TF.FilePolarity,Negative*
G04*
G01*
G75*
%ADD38R,0.11417X0.02559*%
%ADD39C,0.06706*%
%ADD40R,0.06706X0.06706*%
%ADD41C,0.19540*%
%ADD42C,0.07453*%
%ADD43R,0.07453X0.07453*%
%ADD44R,0.05524X0.05524*%
%ADD45C,0.05524*%
%ADD46C,0.06194*%
%ADD47R,0.06194X0.06194*%
D38*
X-48976Y113350D02*
D03*
Y116500D02*
D03*
Y119650D02*
D03*
Y122799D02*
D03*
Y125949D02*
D03*
Y129098D02*
D03*
Y132248D02*
D03*
Y135398D02*
D03*
Y138547D02*
D03*
Y141697D02*
D03*
Y144846D02*
D03*
Y147996D02*
D03*
Y151146D02*
D03*
Y154295D02*
D03*
Y157445D02*
D03*
Y160594D02*
D03*
Y163744D02*
D03*
Y166894D02*
D03*
Y170043D02*
D03*
Y173193D02*
D03*
Y176343D02*
D03*
Y179492D02*
D03*
Y182642D02*
D03*
Y198390D02*
D03*
Y201539D02*
D03*
Y204689D02*
D03*
Y207839D02*
D03*
Y210988D02*
D03*
Y214138D02*
D03*
Y217287D02*
D03*
Y220437D02*
D03*
Y223587D02*
D03*
Y226736D02*
D03*
Y229886D02*
D03*
Y233035D02*
D03*
Y236185D02*
D03*
Y239335D02*
D03*
Y242484D02*
D03*
Y245634D02*
D03*
Y248783D02*
D03*
Y251933D02*
D03*
Y255083D02*
D03*
Y258232D02*
D03*
Y261382D02*
D03*
Y264531D02*
D03*
Y267681D02*
D03*
Y270831D02*
D03*
Y273980D02*
D03*
Y277130D02*
D03*
Y280280D02*
D03*
D39*
X474356Y25302D02*
D03*
Y35302D02*
D03*
Y45302D02*
D03*
Y55302D02*
D03*
Y65302D02*
D03*
Y75302D02*
D03*
Y85302D02*
D03*
Y349000D02*
D03*
Y339000D02*
D03*
Y329000D02*
D03*
Y319000D02*
D03*
Y309000D02*
D03*
Y299000D02*
D03*
Y289000D02*
D03*
Y222310D02*
D03*
Y212310D02*
D03*
Y202310D02*
D03*
Y192310D02*
D03*
Y182310D02*
D03*
Y172310D02*
D03*
Y162310D02*
D03*
D40*
Y95302D02*
D03*
Y359000D02*
D03*
Y232310D02*
D03*
D41*
X522203Y274035D02*
D03*
Y372421D02*
D03*
Y21280D02*
D03*
Y119665D02*
D03*
Y147658D02*
D03*
Y246043D02*
D03*
D42*
X527794Y339587D02*
D03*
Y306870D02*
D03*
Y317776D02*
D03*
Y328681D02*
D03*
X516613Y301417D02*
D03*
Y312323D02*
D03*
Y323228D02*
D03*
Y334134D02*
D03*
X527794Y86831D02*
D03*
Y54114D02*
D03*
Y65020D02*
D03*
Y75925D02*
D03*
X516613Y48661D02*
D03*
Y59567D02*
D03*
Y70473D02*
D03*
Y81378D02*
D03*
Y207756D02*
D03*
Y196850D02*
D03*
Y185945D02*
D03*
Y175039D02*
D03*
X527794Y202303D02*
D03*
Y191398D02*
D03*
Y180492D02*
D03*
Y213209D02*
D03*
D43*
X516613Y345039D02*
D03*
Y92283D02*
D03*
Y218661D02*
D03*
D44*
X279625Y376802D02*
D03*
X279626Y250112D02*
D03*
Y113104D02*
D03*
D45*
X289625Y376802D02*
D03*
X309625D02*
D03*
X319625D02*
D03*
X329625D02*
D03*
X339625D02*
D03*
X339626Y250112D02*
D03*
X329626D02*
D03*
X319625D02*
D03*
X309626D02*
D03*
X289626D02*
D03*
Y113104D02*
D03*
X309626D02*
D03*
X319625D02*
D03*
X329626D02*
D03*
X339626D02*
D03*
D46*
X29600Y286200D02*
D03*
X19600D02*
D03*
X29600Y296200D02*
D03*
X19600D02*
D03*
X29600Y306200D02*
D03*
X19600D02*
D03*
X29600Y316200D02*
D03*
X19600D02*
D03*
X29600Y326200D02*
D03*
X19600D02*
D03*
X29600Y336200D02*
D03*
X39000Y56900D02*
D03*
X29000D02*
D03*
X19000D02*
D03*
X39000Y66900D02*
D03*
X29000D02*
D03*
X19000D02*
D03*
X39000Y76900D02*
D03*
X29000D02*
D03*
X19000D02*
D03*
X39000Y86900D02*
D03*
X29000D02*
D03*
X19000D02*
D03*
X39000Y96900D02*
D03*
X29000D02*
D03*
X19000D02*
D03*
X39000Y106900D02*
D03*
X29000D02*
D03*
X19000D02*
D03*
X39000Y116900D02*
D03*
X29000D02*
D03*
X19000D02*
D03*
X39000Y126900D02*
D03*
X29000D02*
D03*
X19000D02*
D03*
X39000Y136900D02*
D03*
X29000D02*
D03*
X19000D02*
D03*
X39000Y146900D02*
D03*
X29000D02*
D03*
X28800Y259000D02*
D03*
X38800D02*
D03*
X18800Y249000D02*
D03*
X28800D02*
D03*
X38800D02*
D03*
X18800Y239000D02*
D03*
X28800D02*
D03*
X38800D02*
D03*
X18800Y229000D02*
D03*
X28800D02*
D03*
X38800D02*
D03*
X18800Y219000D02*
D03*
X28800D02*
D03*
X38800D02*
D03*
X18800Y209000D02*
D03*
X28800D02*
D03*
X38800D02*
D03*
X18800Y199000D02*
D03*
X28800D02*
D03*
X38800D02*
D03*
X18800Y189000D02*
D03*
X28800D02*
D03*
X38800D02*
D03*
X18800Y179000D02*
D03*
X28800D02*
D03*
X38800D02*
D03*
X18800Y169000D02*
D03*
X28800D02*
D03*
X38800D02*
D03*
D47*
X19600Y336200D02*
D03*
X19000Y146900D02*
D03*
X18800Y259000D02*
D03*
M02*
