G04*
G04 #@! TF.GenerationSoftware,Altium Limited,Altium Designer,22.2.1 (43)*
G04*
G04 Layer_Physical_Order=2*
G04 Layer_Color=16711680*
%FSLAX25Y25*%
%MOIN*%
G70*
G04*
G04 #@! TF.SameCoordinates,AF04F028-1FEE-4182-B250-BA9835736C91*
G04*
G04*
G04 #@! TF.FilePolarity,Positive*
G04*
G01*
G75*
%ADD23R,0.11024X0.02165*%
%ADD45C,0.01181*%
%ADD48C,0.04724*%
%ADD49R,0.04724X0.04724*%
%ADD50R,0.05394X0.05394*%
%ADD51C,0.05394*%
%ADD52C,0.18740*%
%ADD53R,0.06653X0.06653*%
%ADD54C,0.06653*%
%ADD55C,0.05906*%
%ADD56R,0.05906X0.05906*%
%ADD57C,0.05315*%
%ADD58R,0.05315X0.05315*%
%ADD59C,0.01575*%
%ADD60C,0.01968*%
%ADD61O,0.08661X0.02362*%
G36*
X297000Y393947D02*
X296900Y1100D01*
X8300D01*
X-700Y10100D01*
Y99610D01*
X-700Y100065D01*
X-316Y100389D01*
X1147Y98926D01*
Y53033D01*
X1223Y52649D01*
X1441Y52324D01*
X5024Y48741D01*
X5349Y48523D01*
X5733Y48447D01*
X36756D01*
X37140Y48523D01*
X37466Y48741D01*
X43391Y54666D01*
X43608Y54991D01*
X43685Y55375D01*
Y58425D01*
X43608Y58809D01*
X43391Y59134D01*
X41234Y61291D01*
X40909Y61508D01*
X40525Y61585D01*
X35757D01*
X35566Y62047D01*
X37637Y64118D01*
X37807Y64020D01*
X38593Y63810D01*
X39407D01*
X40193Y64020D01*
X40898Y64427D01*
X41473Y65002D01*
X41880Y65707D01*
X42090Y66493D01*
Y67307D01*
X41880Y68093D01*
X41473Y68798D01*
X40898Y69373D01*
X40193Y69780D01*
X39407Y69991D01*
X39011D01*
X38804Y70491D01*
X39211Y70898D01*
X39590Y70973D01*
X39915Y71190D01*
X43391Y74666D01*
X43608Y74991D01*
X43685Y75375D01*
Y78727D01*
X43608Y79111D01*
X43391Y79437D01*
X40003Y82824D01*
Y83969D01*
X40193Y84020D01*
X40898Y84427D01*
X41473Y85002D01*
X41880Y85707D01*
X42090Y86493D01*
Y87307D01*
X41880Y88093D01*
X41473Y88798D01*
X40898Y89373D01*
X40193Y89780D01*
X39407Y89991D01*
X38593D01*
X37807Y89780D01*
X37102Y89373D01*
X36527Y88798D01*
X36120Y88093D01*
X35909Y87307D01*
Y86493D01*
X36120Y85707D01*
X36527Y85002D01*
X37102Y84427D01*
X37807Y84020D01*
X37996Y83969D01*
Y82408D01*
X38073Y82024D01*
X38290Y81699D01*
X39518Y80471D01*
X39475Y80284D01*
X39291Y79991D01*
X38593D01*
X37807Y79780D01*
X37102Y79373D01*
X36527Y78798D01*
X36120Y78093D01*
X35909Y77307D01*
Y76493D01*
X36120Y75707D01*
X36527Y75002D01*
X37102Y74427D01*
X37807Y74020D01*
X38593Y73809D01*
X38989D01*
X39196Y73309D01*
X38789Y72903D01*
X38410Y72827D01*
X38085Y72610D01*
X33890Y68415D01*
X33673Y68090D01*
X33597Y67711D01*
X32590Y66704D01*
X32090Y66911D01*
Y67307D01*
X31880Y68093D01*
X31473Y68798D01*
X30898Y69373D01*
X30193Y69780D01*
X29407Y69991D01*
X28593D01*
X27807Y69780D01*
X27102Y69373D01*
X26527Y68798D01*
X26120Y68093D01*
X25909Y67307D01*
Y66493D01*
X26120Y65707D01*
X26218Y65537D01*
X25084Y64403D01*
X21581D01*
X21374Y64903D01*
X21473Y65002D01*
X21880Y65707D01*
X22091Y66493D01*
Y67307D01*
X21880Y68093D01*
X21473Y68798D01*
X20898Y69373D01*
X20193Y69780D01*
X19407Y69991D01*
X18593D01*
X17807Y69780D01*
X17102Y69373D01*
X16527Y68798D01*
X16120Y68093D01*
X15909Y67307D01*
Y66493D01*
X16120Y65707D01*
X16527Y65002D01*
X17029Y64500D01*
X17012Y64245D01*
X16881Y63977D01*
X16613Y63924D01*
X16287Y63707D01*
X13484Y60904D01*
X9616D01*
X9504Y61016D01*
Y89118D01*
X9966Y89309D01*
X18444Y80831D01*
X18769Y80613D01*
X19153Y80537D01*
X23944D01*
X26218Y78263D01*
X26120Y78093D01*
X25909Y77307D01*
Y76493D01*
X26120Y75707D01*
X26527Y75002D01*
X27102Y74427D01*
X27807Y74020D01*
X28593Y73809D01*
X29407D01*
X30193Y74020D01*
X30898Y74427D01*
X31473Y75002D01*
X31880Y75707D01*
X32090Y76493D01*
Y77307D01*
X31880Y78093D01*
X31473Y78798D01*
X30898Y79373D01*
X30193Y79780D01*
X29407Y79991D01*
X28593D01*
X27807Y79780D01*
X27637Y79682D01*
X25069Y82250D01*
X24743Y82468D01*
X24359Y82544D01*
X19569D01*
X18804Y83310D01*
X19011Y83810D01*
X19407D01*
X20193Y84020D01*
X20898Y84427D01*
X21473Y85002D01*
X21880Y85707D01*
X22091Y86493D01*
Y86889D01*
X22591Y87096D01*
X23496Y86190D01*
X23822Y85973D01*
X24206Y85896D01*
X26069D01*
X26120Y85707D01*
X26527Y85002D01*
X27102Y84427D01*
X27807Y84020D01*
X28593Y83810D01*
X29407D01*
X30193Y84020D01*
X30898Y84427D01*
X31473Y85002D01*
X31880Y85707D01*
X32090Y86493D01*
Y87307D01*
X31880Y88093D01*
X31473Y88798D01*
X30898Y89373D01*
X30193Y89780D01*
X29407Y89991D01*
X28593D01*
X27807Y89780D01*
X27102Y89373D01*
X26527Y88798D01*
X26120Y88093D01*
X26069Y87903D01*
X24622D01*
X20772Y91754D01*
X20963Y92216D01*
X30525D01*
X30909Y92292D01*
X31234Y92509D01*
X35069Y96344D01*
X35287Y96670D01*
X35363Y97054D01*
Y101844D01*
X37637Y104118D01*
X37807Y104020D01*
X38593Y103809D01*
X39407D01*
X40193Y104020D01*
X40898Y104427D01*
X41473Y105002D01*
X41880Y105707D01*
X42090Y106493D01*
Y107307D01*
X41880Y108093D01*
X41473Y108798D01*
X40923Y109348D01*
X40896Y109392D01*
X40867Y109792D01*
X40901Y109949D01*
X44965Y114013D01*
X45183Y114339D01*
X45259Y114723D01*
Y121644D01*
X45183Y122028D01*
X44966Y122354D01*
X41782Y125537D01*
X41880Y125707D01*
X42090Y126493D01*
Y127307D01*
X41880Y128093D01*
X41473Y128798D01*
X40898Y129373D01*
X40193Y129780D01*
X39407Y129991D01*
X38593D01*
X37807Y129780D01*
X37102Y129373D01*
X36527Y128798D01*
X36120Y128093D01*
X35909Y127307D01*
Y126493D01*
X36120Y125707D01*
X36527Y125002D01*
X37102Y124427D01*
X37807Y124020D01*
X38593Y123810D01*
X39407D01*
X40193Y124020D01*
X40363Y124118D01*
X43252Y121228D01*
Y120620D01*
X42790Y120429D01*
X41910Y121310D01*
X41584Y121527D01*
X41200Y121604D01*
X27494D01*
X27110Y121527D01*
X26785Y121310D01*
X23290Y117815D01*
X23073Y117490D01*
X22997Y117111D01*
X22591Y116704D01*
X22091Y116911D01*
Y117307D01*
X21880Y118093D01*
X21473Y118798D01*
X20898Y119373D01*
X20193Y119780D01*
X20004Y119831D01*
Y121694D01*
X19927Y122078D01*
X19710Y122404D01*
X18804Y123310D01*
X19011Y123810D01*
X19407D01*
X20193Y124020D01*
X20363Y124118D01*
X21971Y122509D01*
X22297Y122292D01*
X22681Y122215D01*
X30525D01*
X30909Y122292D01*
X30909Y122292D01*
X31234Y122509D01*
X33710Y124985D01*
X33845Y125188D01*
X33927Y125310D01*
X34003Y125694D01*
Y128106D01*
X33927Y128490D01*
X33709Y128815D01*
X31234Y131291D01*
X30909Y131508D01*
X30525Y131585D01*
X21362D01*
X19602Y133344D01*
X19751Y133902D01*
X20193Y134020D01*
X20898Y134427D01*
X21473Y135002D01*
X21880Y135707D01*
X22091Y136493D01*
Y137307D01*
X21880Y138093D01*
X21473Y138798D01*
X20898Y139373D01*
X20193Y139780D01*
X20004Y139831D01*
Y142527D01*
X19927Y142911D01*
X19710Y143237D01*
X19599Y143348D01*
X19790Y143809D01*
X22091D01*
Y149991D01*
X20004D01*
Y153400D01*
X19927Y153784D01*
X19710Y154110D01*
X-5300Y179119D01*
X-5625Y179337D01*
X-6010Y179413D01*
X-43049D01*
X-43071Y179435D01*
Y180575D01*
X-42480D01*
Y182051D01*
X-48976D01*
X-55472D01*
Y180575D01*
X-54882D01*
Y178410D01*
X-55472D01*
Y176933D01*
X-48976D01*
X-42480D01*
Y177406D01*
X-6425D01*
X17996Y152984D01*
Y149991D01*
X16322D01*
Y150381D01*
X16246Y150765D01*
X16029Y151091D01*
X-5700Y172820D01*
X-6026Y173037D01*
X-6410Y173114D01*
X-43049D01*
X-43071Y173136D01*
Y174276D01*
X-42480D01*
Y175752D01*
X-48976D01*
X-55472D01*
Y174276D01*
X-54882D01*
Y172110D01*
X-55472D01*
Y170634D01*
X-48976D01*
X-42480D01*
Y171107D01*
X-6826D01*
X14315Y149965D01*
Y143911D01*
X14038Y143737D01*
X13826Y143693D01*
X-9001Y166521D01*
X-9327Y166738D01*
X-9711Y166815D01*
X-43049D01*
X-43071Y166837D01*
Y167976D01*
X-42480D01*
Y169453D01*
X-48976D01*
X-55472D01*
Y167976D01*
X-54882D01*
Y165811D01*
X-55472D01*
Y164335D01*
X-48976D01*
X-42480D01*
Y164807D01*
X-10126D01*
X14315Y140365D01*
Y135375D01*
X14392Y134991D01*
X14609Y134666D01*
X16766Y132509D01*
X17091Y132292D01*
X17475Y132215D01*
X17892D01*
X19670Y130438D01*
X19411Y129989D01*
X19407Y129991D01*
X18593D01*
X17807Y129780D01*
X17102Y129373D01*
X16527Y128798D01*
X16120Y128093D01*
X16094Y127996D01*
X15594Y128062D01*
Y132536D01*
X15518Y132921D01*
X15300Y133246D01*
X-12758Y161304D01*
X-13083Y161522D01*
X-13467Y161598D01*
X-42013D01*
X-42480Y161677D01*
Y163154D01*
X-48976D01*
X-55472D01*
Y161677D01*
X-54882D01*
Y159512D01*
X-55472D01*
Y158035D01*
X-48976D01*
X-42480D01*
Y159512D01*
X-42013Y159591D01*
X-13883D01*
X-10053Y155761D01*
X-10244Y155299D01*
X-42013D01*
X-42480Y155378D01*
Y156854D01*
X-48976D01*
X-55472D01*
Y155378D01*
X-54882D01*
Y153212D01*
X-55472D01*
Y151736D01*
X-48976D01*
X-42480D01*
Y153212D01*
X-42013Y153292D01*
X-9811D01*
X12012Y131469D01*
Y125960D01*
X11512Y125753D01*
X-11441Y148706D01*
X-11766Y148923D01*
X-12150Y149000D01*
X-42013D01*
X-42480Y149079D01*
Y150555D01*
X-48976D01*
X-55472D01*
Y149079D01*
X-54882D01*
Y146520D01*
X-54882D01*
Y146323D01*
X-54882D01*
Y143764D01*
X-55472D01*
Y142287D01*
X-48976D01*
X-42480D01*
Y143764D01*
X-42013Y143843D01*
X-12432D01*
X-8584Y139994D01*
X-8830Y139533D01*
X-8918Y139551D01*
X-42013D01*
X-42480Y139630D01*
Y141106D01*
X-48976D01*
X-55472D01*
Y139630D01*
X-54882D01*
Y137071D01*
X-54882D01*
Y136874D01*
X-54882D01*
Y134315D01*
X-55472D01*
Y132839D01*
X-48976D01*
X-42480D01*
Y134315D01*
X-42013Y134394D01*
X-9413D01*
X7597Y117384D01*
Y104947D01*
X7601Y104926D01*
X7140Y104679D01*
X1310Y110510D01*
X984Y110727D01*
X600Y110803D01*
X-21584D01*
X-40589Y129808D01*
X-40914Y130026D01*
X-41298Y130102D01*
X-42013D01*
X-42480Y130181D01*
Y131658D01*
X-48976D01*
X-55472D01*
Y130181D01*
X-54882D01*
Y127622D01*
X-54882D01*
Y127425D01*
X-54882D01*
Y124472D01*
X-54882D01*
Y124276D01*
X-54882D01*
Y121323D01*
X-54882D01*
Y121126D01*
X-54882D01*
Y118567D01*
X-55472D01*
Y117091D01*
X-48976D01*
X-42480D01*
Y118567D01*
X-42013Y118646D01*
X-40604D01*
X-26324Y104366D01*
X-26515Y103903D01*
X-27287D01*
X-37443Y114060D01*
X-37769Y114278D01*
X-38153Y114354D01*
X-42013D01*
X-42480Y114433D01*
Y115910D01*
X-48976D01*
X-55472D01*
Y114433D01*
X-54882D01*
Y111874D01*
X-43071D01*
Y112347D01*
X-38568D01*
X-28412Y102190D01*
X-28086Y101973D01*
X-27702Y101897D01*
X-1824D01*
X-419Y100491D01*
X-743Y100108D01*
X-1182Y100108D01*
X-26392Y100108D01*
X-28547Y97953D01*
Y93824D01*
X-28495Y93773D01*
X-30070Y92198D01*
X-35089Y92198D01*
X-35554Y92663D01*
Y107562D01*
X-37907Y109915D01*
X-59090D01*
X-59125Y109950D01*
Y186391D01*
X-36509D01*
X-33800Y189100D01*
Y192830D01*
X-36845Y195876D01*
X-47319D01*
X-47355Y195840D01*
X-47390Y195876D01*
X-59125D01*
Y284950D01*
X-59076Y285000D01*
X-39525D01*
X-39475Y284950D01*
X-37750D01*
X-35503Y287197D01*
Y302265D01*
X-35254Y302368D01*
X-29197D01*
Y299380D01*
X-26822Y297005D01*
Y295473D01*
X-20173D01*
X-19493Y294793D01*
X-778D01*
Y387122D01*
X6401Y394301D01*
X11111D01*
X292601Y394301D01*
X296646D01*
X297000Y393947D01*
D02*
G37*
G36*
X548290Y393491D02*
Y265694D01*
X545390Y262794D01*
X534377D01*
X534280Y263284D01*
X534546Y263395D01*
X536145Y264463D01*
X537505Y265823D01*
X538574Y267422D01*
X539310Y269199D01*
X539685Y271086D01*
Y273009D01*
X539310Y274895D01*
X538574Y276672D01*
X537505Y278271D01*
X536145Y279631D01*
X534546Y280700D01*
X532769Y281436D01*
X530883Y281811D01*
X528960D01*
X527073Y281436D01*
X525296Y280700D01*
X523697Y279631D01*
X522337Y278271D01*
X521269Y276672D01*
X520533Y274895D01*
X520158Y273009D01*
Y271086D01*
X520533Y269199D01*
X521269Y267422D01*
X522337Y265823D01*
X523697Y264463D01*
X525296Y263395D01*
X525563Y263284D01*
X525465Y262794D01*
X305490D01*
Y393377D01*
X305844Y393731D01*
X548290Y393491D01*
D02*
G37*
G36*
X546400Y134959D02*
X304800D01*
Y252059D01*
Y256056D01*
X546400D01*
Y134959D01*
D02*
G37*
G36*
X544600Y100D02*
X305900D01*
Y118600D01*
Y125497D01*
X544600D01*
Y100D01*
D02*
G37*
%LPC*%
G36*
X290060Y380108D02*
Y377393D01*
X292776D01*
X292588Y378094D01*
X292147Y378857D01*
X291524Y379480D01*
X290761Y379921D01*
X290060Y380108D01*
D02*
G37*
G36*
X288879D02*
X288178Y379921D01*
X287415Y379480D01*
X286792Y378857D01*
X286351Y378094D01*
X286163Y377393D01*
X288879D01*
Y380108D01*
D02*
G37*
G36*
X282225Y379558D02*
X276714D01*
Y374046D01*
X282225D01*
Y379558D01*
D02*
G37*
G36*
X292776Y376212D02*
X290060D01*
Y373496D01*
X290761Y373684D01*
X291524Y374124D01*
X292147Y374747D01*
X292588Y375511D01*
X292776Y376212D01*
D02*
G37*
G36*
X288879D02*
X286163D01*
X286351Y375511D01*
X286792Y374747D01*
X287415Y374124D01*
X288178Y373684D01*
X288879Y373496D01*
Y376212D01*
D02*
G37*
G36*
X30191Y339853D02*
Y336791D01*
X33253D01*
X33030Y337621D01*
X32546Y338460D01*
X31860Y339146D01*
X31021Y339630D01*
X30191Y339853D01*
D02*
G37*
G36*
X20190D02*
Y336791D01*
X23253D01*
X23030Y337621D01*
X22546Y338460D01*
X21860Y339146D01*
X21021Y339630D01*
X20190Y339853D01*
D02*
G37*
G36*
X29009D02*
X28179Y339630D01*
X27340Y339146D01*
X26654Y338460D01*
X26170Y337621D01*
X25947Y336791D01*
X29009D01*
Y339853D01*
D02*
G37*
G36*
X19009D02*
X18179Y339630D01*
X17340Y339146D01*
X16654Y338460D01*
X16170Y337621D01*
X15947Y336791D01*
X19009D01*
Y339853D01*
D02*
G37*
G36*
X33253Y335610D02*
X30191D01*
Y332547D01*
X31021Y332770D01*
X31860Y333254D01*
X32546Y333940D01*
X33030Y334779D01*
X33253Y335610D01*
D02*
G37*
G36*
X23253D02*
X20190D01*
Y332547D01*
X21021Y332770D01*
X21860Y333254D01*
X22546Y333940D01*
X23030Y334779D01*
X23253Y335610D01*
D02*
G37*
G36*
X29009D02*
X25947D01*
X26170Y334779D01*
X26654Y333940D01*
X27340Y333254D01*
X28179Y332770D01*
X29009Y332547D01*
Y335610D01*
D02*
G37*
G36*
X19009D02*
X15947D01*
X16170Y334779D01*
X16654Y333940D01*
X17340Y333254D01*
X18179Y332770D01*
X19009Y332547D01*
Y335610D01*
D02*
G37*
G36*
X30007Y329291D02*
X29193D01*
X28407Y329080D01*
X27702Y328673D01*
X27127Y328098D01*
X26720Y327393D01*
X26509Y326607D01*
Y325793D01*
X26720Y325007D01*
X27127Y324302D01*
X27702Y323727D01*
X28407Y323320D01*
X29193Y323110D01*
X30007D01*
X30793Y323320D01*
X31498Y323727D01*
X32073Y324302D01*
X32480Y325007D01*
X32691Y325793D01*
Y326607D01*
X32480Y327393D01*
X32073Y328098D01*
X31498Y328673D01*
X30793Y329080D01*
X30007Y329291D01*
D02*
G37*
G36*
X20007D02*
X19193D01*
X18407Y329080D01*
X17702Y328673D01*
X17127Y328098D01*
X16720Y327393D01*
X16509Y326607D01*
Y325793D01*
X16720Y325007D01*
X17127Y324302D01*
X17702Y323727D01*
X18407Y323320D01*
X19193Y323110D01*
X20007D01*
X20793Y323320D01*
X21498Y323727D01*
X22073Y324302D01*
X22480Y325007D01*
X22691Y325793D01*
Y326607D01*
X22480Y327393D01*
X22073Y328098D01*
X21498Y328673D01*
X20793Y329080D01*
X20007Y329291D01*
D02*
G37*
G36*
X30191Y319853D02*
Y316791D01*
X33253D01*
X33030Y317621D01*
X32546Y318460D01*
X31860Y319146D01*
X31021Y319630D01*
X30191Y319853D01*
D02*
G37*
G36*
X20190D02*
Y316791D01*
X23253D01*
X23030Y317621D01*
X22546Y318460D01*
X21860Y319146D01*
X21021Y319630D01*
X20190Y319853D01*
D02*
G37*
G36*
X29009D02*
X28179Y319630D01*
X27340Y319146D01*
X26654Y318460D01*
X26170Y317621D01*
X25947Y316791D01*
X29009D01*
Y319853D01*
D02*
G37*
G36*
X19009D02*
X18179Y319630D01*
X17340Y319146D01*
X16654Y318460D01*
X16170Y317621D01*
X15947Y316791D01*
X19009D01*
Y319853D01*
D02*
G37*
G36*
X33253Y315610D02*
X30191D01*
Y312547D01*
X31021Y312770D01*
X31860Y313254D01*
X32546Y313940D01*
X33030Y314779D01*
X33253Y315610D01*
D02*
G37*
G36*
X23253D02*
X20190D01*
Y312547D01*
X21021Y312770D01*
X21860Y313254D01*
X22546Y313940D01*
X23030Y314779D01*
X23253Y315610D01*
D02*
G37*
G36*
X29009D02*
X25947D01*
X26170Y314779D01*
X26654Y313940D01*
X27340Y313254D01*
X28179Y312770D01*
X29009Y312547D01*
Y315610D01*
D02*
G37*
G36*
X19009D02*
X15947D01*
X16170Y314779D01*
X16654Y313940D01*
X17340Y313254D01*
X18179Y312770D01*
X19009Y312547D01*
Y315610D01*
D02*
G37*
G36*
X30007Y309291D02*
X29193D01*
X28407Y309080D01*
X27702Y308673D01*
X27127Y308098D01*
X26720Y307393D01*
X26669Y307204D01*
X22531D01*
X22480Y307393D01*
X22073Y308098D01*
X21498Y308673D01*
X20793Y309080D01*
X20007Y309291D01*
X19193D01*
X18407Y309080D01*
X17702Y308673D01*
X17127Y308098D01*
X16720Y307393D01*
X16509Y306607D01*
Y305793D01*
X16720Y305007D01*
X17127Y304302D01*
X17702Y303727D01*
X18407Y303320D01*
X19193Y303110D01*
X20007D01*
X20793Y303320D01*
X21498Y303727D01*
X22073Y304302D01*
X22480Y305007D01*
X22531Y305196D01*
X26669D01*
X26720Y305007D01*
X27127Y304302D01*
X27702Y303727D01*
X28407Y303320D01*
X29193Y303110D01*
X30007D01*
X30793Y303320D01*
X31498Y303727D01*
X32073Y304302D01*
X32480Y305007D01*
X32691Y305793D01*
Y306607D01*
X32480Y307393D01*
X32073Y308098D01*
X31498Y308673D01*
X30793Y309080D01*
X30007Y309291D01*
D02*
G37*
G36*
X30191Y299853D02*
Y296791D01*
X33253D01*
X33030Y297621D01*
X32546Y298460D01*
X31860Y299146D01*
X31021Y299630D01*
X30191Y299853D01*
D02*
G37*
G36*
X20190D02*
Y296791D01*
X23253D01*
X23030Y297621D01*
X22546Y298460D01*
X21860Y299146D01*
X21021Y299630D01*
X20190Y299853D01*
D02*
G37*
G36*
X29009D02*
X28179Y299630D01*
X27340Y299146D01*
X26654Y298460D01*
X26170Y297621D01*
X25947Y296791D01*
X29009D01*
Y299853D01*
D02*
G37*
G36*
X19009D02*
X18179Y299630D01*
X17340Y299146D01*
X16654Y298460D01*
X16170Y297621D01*
X15947Y296791D01*
X19009D01*
Y299853D01*
D02*
G37*
G36*
X33253Y295609D02*
X30191D01*
Y292547D01*
X31021Y292770D01*
X31860Y293254D01*
X32546Y293940D01*
X33030Y294779D01*
X33253Y295609D01*
D02*
G37*
G36*
X23253D02*
X20190D01*
Y292547D01*
X21021Y292770D01*
X21860Y293254D01*
X22546Y293940D01*
X23030Y294779D01*
X23253Y295609D01*
D02*
G37*
G36*
X29009D02*
X25947D01*
X26170Y294779D01*
X26654Y293940D01*
X27340Y293254D01*
X28179Y292770D01*
X29009Y292547D01*
Y295609D01*
D02*
G37*
G36*
X19009D02*
X15947D01*
X16170Y294779D01*
X16654Y293940D01*
X17340Y293254D01*
X18179Y292770D01*
X19009Y292547D01*
Y295609D01*
D02*
G37*
G36*
X32691Y289291D02*
X26509D01*
Y287204D01*
X22531D01*
X22480Y287393D01*
X22073Y288098D01*
X21498Y288673D01*
X20793Y289080D01*
X20007Y289291D01*
X19193D01*
X18407Y289080D01*
X17702Y288673D01*
X17127Y288098D01*
X16720Y287393D01*
X16509Y286607D01*
Y285793D01*
X16720Y285007D01*
X17127Y284302D01*
X17702Y283727D01*
X18407Y283320D01*
X19193Y283109D01*
X20007D01*
X20793Y283320D01*
X21498Y283727D01*
X22073Y284302D01*
X22480Y285007D01*
X22531Y285196D01*
X26509D01*
Y283109D01*
X32691D01*
Y289291D01*
D02*
G37*
G36*
X-42480Y282347D02*
X-48386D01*
Y280870D01*
X-42480D01*
Y282347D01*
D02*
G37*
G36*
X-49567D02*
X-55472D01*
Y280870D01*
X-49567D01*
Y282347D01*
D02*
G37*
G36*
X-42480Y279689D02*
X-48976D01*
X-55472D01*
Y278213D01*
Y277721D01*
X-48976D01*
X-42480D01*
Y278213D01*
Y279689D01*
D02*
G37*
G36*
Y276539D02*
X-48976D01*
X-55472D01*
Y275063D01*
X-54882D01*
Y272898D01*
X-55472D01*
Y271421D01*
X-48976D01*
X-42480D01*
Y272898D01*
X-43071D01*
Y275063D01*
X-42480D01*
Y276539D01*
D02*
G37*
G36*
Y270240D02*
X-48976D01*
X-55472D01*
Y268764D01*
X-54882D01*
Y266598D01*
X-55472D01*
Y265122D01*
X-48976D01*
X-42480D01*
Y266598D01*
X-43071D01*
Y268764D01*
X-42480D01*
Y270240D01*
D02*
G37*
G36*
X39391Y262653D02*
Y259591D01*
X42453D01*
X42230Y260421D01*
X41745Y261260D01*
X41060Y261946D01*
X40221Y262430D01*
X39391Y262653D01*
D02*
G37*
G36*
X38209D02*
X37379Y262430D01*
X36540Y261946D01*
X35854Y261260D01*
X35370Y260421D01*
X35147Y259591D01*
X38209D01*
Y262653D01*
D02*
G37*
G36*
X-42480Y263941D02*
X-48976D01*
X-55472D01*
Y262464D01*
X-54882D01*
Y260299D01*
X-55472D01*
Y258823D01*
X-48976D01*
X-42480D01*
Y260299D01*
X-43071D01*
Y262464D01*
X-42480D01*
Y263941D01*
D02*
G37*
G36*
X29207Y262091D02*
X28393D01*
X27607Y261880D01*
X26902Y261473D01*
X26327Y260898D01*
X25920Y260193D01*
X25709Y259407D01*
Y258593D01*
X25920Y257807D01*
X26327Y257102D01*
X26902Y256527D01*
X27607Y256120D01*
X28393Y255909D01*
X29207D01*
X29993Y256120D01*
X30698Y256527D01*
X31273Y257102D01*
X31680Y257807D01*
X31890Y258593D01*
Y259407D01*
X31680Y260193D01*
X31273Y260898D01*
X30698Y261473D01*
X29993Y261880D01*
X29207Y262091D01*
D02*
G37*
G36*
X21891D02*
X15709D01*
Y255909D01*
X21891D01*
Y262091D01*
D02*
G37*
G36*
X42453Y258410D02*
X39391D01*
Y255347D01*
X40221Y255570D01*
X41060Y256054D01*
X41745Y256740D01*
X42230Y257579D01*
X42453Y258410D01*
D02*
G37*
G36*
X38209D02*
X35147D01*
X35370Y257579D01*
X35854Y256740D01*
X36540Y256054D01*
X37379Y255570D01*
X38209Y255347D01*
Y258410D01*
D02*
G37*
G36*
X39391Y252653D02*
Y249591D01*
X42453D01*
X42230Y250421D01*
X41745Y251260D01*
X41060Y251946D01*
X40221Y252430D01*
X39391Y252653D01*
D02*
G37*
G36*
X38209D02*
X37379Y252430D01*
X36540Y251946D01*
X35854Y251260D01*
X35370Y250421D01*
X35147Y249591D01*
X38209D01*
Y252653D01*
D02*
G37*
G36*
X29207Y252091D02*
X28393D01*
X27607Y251880D01*
X26902Y251473D01*
X26327Y250898D01*
X25920Y250193D01*
X25709Y249407D01*
Y248593D01*
X25920Y247807D01*
X26327Y247102D01*
X26902Y246527D01*
X27607Y246120D01*
X28393Y245910D01*
X29207D01*
X29993Y246120D01*
X30698Y246527D01*
X31273Y247102D01*
X31680Y247807D01*
X31890Y248593D01*
Y249407D01*
X31680Y250193D01*
X31273Y250898D01*
X30698Y251473D01*
X29993Y251880D01*
X29207Y252091D01*
D02*
G37*
G36*
X-42480Y257642D02*
X-48976D01*
X-55472D01*
Y256165D01*
X-54882D01*
Y254000D01*
X-55472D01*
Y252524D01*
X-48976D01*
X-42480D01*
Y254000D01*
X-42013Y254079D01*
X-36780D01*
X-23720Y241019D01*
X-23394Y240801D01*
X-23010Y240725D01*
X3618D01*
X4002Y240801D01*
X4328Y241019D01*
X11305Y247996D01*
X15869D01*
X15920Y247807D01*
X16327Y247102D01*
X16902Y246527D01*
X17607Y246120D01*
X18393Y245910D01*
X19207D01*
X19993Y246120D01*
X20698Y246527D01*
X21273Y247102D01*
X21680Y247807D01*
X21891Y248593D01*
Y249407D01*
X21680Y250193D01*
X21273Y250898D01*
X20698Y251473D01*
X19993Y251880D01*
X19207Y252091D01*
X18393D01*
X17607Y251880D01*
X16902Y251473D01*
X16327Y250898D01*
X15920Y250193D01*
X15869Y250004D01*
X10890D01*
X10506Y249927D01*
X10180Y249710D01*
X3202Y242732D01*
X-22595D01*
X-35655Y255792D01*
X-35980Y256010D01*
X-36364Y256086D01*
X-42013D01*
X-42480Y256165D01*
Y257642D01*
D02*
G37*
G36*
X42453Y248410D02*
X39391D01*
Y245347D01*
X40221Y245570D01*
X41060Y246054D01*
X41745Y246740D01*
X42230Y247579D01*
X42453Y248410D01*
D02*
G37*
G36*
X38209D02*
X35147D01*
X35370Y247579D01*
X35854Y246740D01*
X36540Y246054D01*
X37379Y245570D01*
X38209Y245347D01*
Y248410D01*
D02*
G37*
G36*
X293091Y243006D02*
Y240290D01*
X295806D01*
X295618Y240992D01*
X295178Y241755D01*
X294555Y242378D01*
X293792Y242818D01*
X293091Y243006D01*
D02*
G37*
G36*
X291910D02*
X291208Y242818D01*
X290445Y242378D01*
X289822Y241755D01*
X289382Y240992D01*
X289194Y240290D01*
X291910D01*
Y243006D01*
D02*
G37*
G36*
X39391Y242653D02*
Y239591D01*
X42453D01*
X42230Y240421D01*
X41745Y241260D01*
X41060Y241946D01*
X40221Y242430D01*
X39391Y242653D01*
D02*
G37*
G36*
X38209D02*
X37379Y242430D01*
X36540Y241946D01*
X35854Y241260D01*
X35370Y240421D01*
X35147Y239591D01*
X38209D01*
Y242653D01*
D02*
G37*
G36*
X285256Y242456D02*
X279744D01*
Y236944D01*
X285256D01*
Y242456D01*
D02*
G37*
G36*
X295806Y239109D02*
X293091D01*
Y236394D01*
X293792Y236582D01*
X294555Y237022D01*
X295178Y237645D01*
X295618Y238408D01*
X295806Y239109D01*
D02*
G37*
G36*
X291910D02*
X289194D01*
X289382Y238408D01*
X289822Y237645D01*
X290445Y237022D01*
X291208Y236582D01*
X291910Y236394D01*
Y239109D01*
D02*
G37*
G36*
X29207Y242091D02*
X28393D01*
X27607Y241880D01*
X26902Y241473D01*
X26327Y240898D01*
X25920Y240193D01*
X25709Y239407D01*
Y238593D01*
X25920Y237807D01*
X26327Y237102D01*
X26902Y236527D01*
X27607Y236120D01*
X28393Y235910D01*
X29207D01*
X29993Y236120D01*
X30698Y236527D01*
X31273Y237102D01*
X31680Y237807D01*
X31890Y238593D01*
Y239407D01*
X31680Y240193D01*
X31273Y240898D01*
X30698Y241473D01*
X29993Y241880D01*
X29207Y242091D01*
D02*
G37*
G36*
X-42480Y251343D02*
X-48976D01*
X-55472D01*
Y249866D01*
X-54882D01*
Y247701D01*
X-55472D01*
Y246224D01*
X-48976D01*
X-42480D01*
Y246508D01*
X-42018Y246699D01*
X-31810Y236490D01*
X-31484Y236273D01*
X-31100Y236196D01*
X7600D01*
X7984Y236273D01*
X8309Y236490D01*
X9816Y237997D01*
X15869D01*
X15920Y237807D01*
X16327Y237102D01*
X16902Y236527D01*
X17607Y236120D01*
X18393Y235910D01*
X19207D01*
X19993Y236120D01*
X20698Y236527D01*
X21273Y237102D01*
X21680Y237807D01*
X21891Y238593D01*
Y239407D01*
X21680Y240193D01*
X21273Y240898D01*
X20698Y241473D01*
X19993Y241880D01*
X19207Y242091D01*
X18393D01*
X17607Y241880D01*
X16902Y241473D01*
X16327Y240898D01*
X15920Y240193D01*
X15869Y240003D01*
X9400D01*
X9016Y239927D01*
X8690Y239710D01*
X7184Y238204D01*
X-30684D01*
X-41482Y249001D01*
X-41807Y249218D01*
X-42191Y249295D01*
X-43071D01*
Y249866D01*
X-42480D01*
Y251343D01*
D02*
G37*
G36*
X42453Y238409D02*
X39391D01*
Y235347D01*
X40221Y235570D01*
X41060Y236054D01*
X41745Y236740D01*
X42230Y237579D01*
X42453Y238409D01*
D02*
G37*
G36*
X38209D02*
X35147D01*
X35370Y237579D01*
X35854Y236740D01*
X36540Y236054D01*
X37379Y235570D01*
X38209Y235347D01*
Y238409D01*
D02*
G37*
G36*
X39391Y232653D02*
Y229591D01*
X42453D01*
X42230Y230421D01*
X41745Y231260D01*
X41060Y231946D01*
X40221Y232430D01*
X39391Y232653D01*
D02*
G37*
G36*
X38209D02*
X37379Y232430D01*
X36540Y231946D01*
X35854Y231260D01*
X35370Y230421D01*
X35147Y229591D01*
X38209D01*
Y232653D01*
D02*
G37*
G36*
X29207Y232091D02*
X28393D01*
X27607Y231880D01*
X26902Y231473D01*
X26327Y230898D01*
X25920Y230193D01*
X25709Y229407D01*
Y228593D01*
X25920Y227807D01*
X26327Y227102D01*
X26902Y226527D01*
X27607Y226120D01*
X28393Y225909D01*
X29207D01*
X29993Y226120D01*
X30698Y226527D01*
X31273Y227102D01*
X31680Y227807D01*
X31890Y228593D01*
Y229407D01*
X31680Y230193D01*
X31273Y230898D01*
X30698Y231473D01*
X29993Y231880D01*
X29207Y232091D01*
D02*
G37*
G36*
X-42480Y245043D02*
X-48976D01*
X-55472D01*
Y243567D01*
X-54882D01*
Y241402D01*
X-55472D01*
Y239925D01*
X-48976D01*
X-42480D01*
Y240108D01*
X-42018Y240299D01*
X-34010Y232290D01*
X-33684Y232073D01*
X-33300Y231996D01*
X14384D01*
X16018Y230363D01*
X15920Y230193D01*
X15709Y229407D01*
Y228593D01*
X15920Y227807D01*
X16327Y227102D01*
X16902Y226527D01*
X17607Y226120D01*
X18393Y225909D01*
X19207D01*
X19993Y226120D01*
X20698Y226527D01*
X21273Y227102D01*
X21680Y227807D01*
X21891Y228593D01*
Y229407D01*
X21680Y230193D01*
X21273Y230898D01*
X20698Y231473D01*
X19993Y231880D01*
X19207Y232091D01*
X18393D01*
X17607Y231880D01*
X17437Y231782D01*
X15509Y233710D01*
X15184Y233927D01*
X14800Y234003D01*
X-32884D01*
X-41583Y242702D01*
X-41908Y242919D01*
X-42292Y242996D01*
X-43071D01*
Y243567D01*
X-42480D01*
Y245043D01*
D02*
G37*
G36*
X42453Y228410D02*
X39391D01*
Y225347D01*
X40221Y225570D01*
X41060Y226054D01*
X41745Y226740D01*
X42230Y227579D01*
X42453Y228410D01*
D02*
G37*
G36*
X38209D02*
X35147D01*
X35370Y227579D01*
X35854Y226740D01*
X36540Y226054D01*
X37379Y225570D01*
X38209Y225347D01*
Y228410D01*
D02*
G37*
G36*
X39391Y222653D02*
Y219591D01*
X42453D01*
X42230Y220421D01*
X41745Y221260D01*
X41060Y221946D01*
X40221Y222430D01*
X39391Y222653D01*
D02*
G37*
G36*
X38209D02*
X37379Y222430D01*
X36540Y221946D01*
X35854Y221260D01*
X35370Y220421D01*
X35147Y219591D01*
X38209D01*
Y222653D01*
D02*
G37*
G36*
X29207Y222091D02*
X28393D01*
X27607Y221880D01*
X26902Y221473D01*
X26327Y220898D01*
X25920Y220193D01*
X25709Y219407D01*
Y218593D01*
X25920Y217807D01*
X26327Y217102D01*
X26902Y216527D01*
X27607Y216120D01*
X28393Y215910D01*
X29207D01*
X29993Y216120D01*
X30698Y216527D01*
X31273Y217102D01*
X31680Y217807D01*
X31890Y218593D01*
Y219407D01*
X31680Y220193D01*
X31273Y220898D01*
X30698Y221473D01*
X29993Y221880D01*
X29207Y222091D01*
D02*
G37*
G36*
X-42480Y238744D02*
X-48976D01*
X-55472D01*
Y237268D01*
X-54882D01*
Y235102D01*
X-55472D01*
Y233626D01*
X-48976D01*
X-42480D01*
Y235102D01*
X-42013Y235181D01*
X-41701D01*
X-35010Y228490D01*
X-34684Y228273D01*
X-34300Y228197D01*
X8184D01*
X16018Y220363D01*
X15920Y220193D01*
X15709Y219407D01*
Y218593D01*
X15920Y217807D01*
X16327Y217102D01*
X16902Y216527D01*
X17607Y216120D01*
X18393Y215910D01*
X19207D01*
X19993Y216120D01*
X20698Y216527D01*
X21273Y217102D01*
X21680Y217807D01*
X21891Y218593D01*
Y219407D01*
X21680Y220193D01*
X21273Y220898D01*
X20698Y221473D01*
X19993Y221880D01*
X19207Y222091D01*
X18393D01*
X17607Y221880D01*
X17437Y221782D01*
X9309Y229910D01*
X8984Y230127D01*
X8600Y230204D01*
X-33884D01*
X-40576Y236895D01*
X-40901Y237112D01*
X-41285Y237189D01*
X-42013D01*
X-42480Y237268D01*
Y238744D01*
D02*
G37*
G36*
X42453Y218409D02*
X39391D01*
Y215347D01*
X40221Y215570D01*
X41060Y216054D01*
X41745Y216740D01*
X42230Y217579D01*
X42453Y218409D01*
D02*
G37*
G36*
X38209D02*
X35147D01*
X35370Y217579D01*
X35854Y216740D01*
X36540Y216054D01*
X37379Y215570D01*
X38209Y215347D01*
Y218409D01*
D02*
G37*
G36*
X39391Y212653D02*
Y209591D01*
X42453D01*
X42230Y210421D01*
X41745Y211260D01*
X41060Y211946D01*
X40221Y212430D01*
X39391Y212653D01*
D02*
G37*
G36*
X38209D02*
X37379Y212430D01*
X36540Y211946D01*
X35854Y211260D01*
X35370Y210421D01*
X35147Y209591D01*
X38209D01*
Y212653D01*
D02*
G37*
G36*
X29207Y212091D02*
X28393D01*
X27607Y211880D01*
X26902Y211473D01*
X26327Y210898D01*
X25920Y210193D01*
X25709Y209407D01*
Y208593D01*
X25920Y207807D01*
X26327Y207102D01*
X26902Y206527D01*
X27607Y206120D01*
X28393Y205909D01*
X29207D01*
X29993Y206120D01*
X30698Y206527D01*
X31273Y207102D01*
X31680Y207807D01*
X31890Y208593D01*
Y209407D01*
X31680Y210193D01*
X31273Y210898D01*
X30698Y211473D01*
X29993Y211880D01*
X29207Y212091D01*
D02*
G37*
G36*
X-42480Y232445D02*
X-48976D01*
X-55472D01*
Y230968D01*
X-54882D01*
Y228803D01*
X-55472D01*
Y227327D01*
X-48976D01*
Y226146D01*
X-55472D01*
Y224669D01*
X-54882D01*
Y222504D01*
X-55472D01*
Y221028D01*
X-48976D01*
X-42480D01*
Y222504D01*
X-42013Y222583D01*
X-6202D01*
X16018Y200363D01*
X15920Y200193D01*
X15709Y199407D01*
Y198593D01*
X15920Y197807D01*
X16327Y197102D01*
X16902Y196527D01*
X17607Y196120D01*
X18393Y195910D01*
X19207D01*
X19993Y196120D01*
X20698Y196527D01*
X21273Y197102D01*
X21680Y197807D01*
X21891Y198593D01*
Y199407D01*
X21680Y200193D01*
X21273Y200898D01*
X20698Y201473D01*
X19993Y201880D01*
X19207Y202091D01*
X18393D01*
X17607Y201880D01*
X17437Y201782D01*
X-4977Y224197D01*
X-4867Y224588D01*
X-4789Y224696D01*
X1684D01*
X16018Y210363D01*
X15920Y210193D01*
X15709Y209407D01*
Y208593D01*
X15920Y207807D01*
X16327Y207102D01*
X16902Y206527D01*
X17607Y206120D01*
X18393Y205909D01*
X19207D01*
X19993Y206120D01*
X20698Y206527D01*
X21273Y207102D01*
X21680Y207807D01*
X21891Y208593D01*
Y209407D01*
X21680Y210193D01*
X21273Y210898D01*
X20698Y211473D01*
X19993Y211880D01*
X19207Y212091D01*
X18393D01*
X17607Y211880D01*
X17437Y211782D01*
X2809Y226410D01*
X2484Y226627D01*
X2100Y226704D01*
X-35384D01*
X-39276Y230595D01*
X-39602Y230813D01*
X-39986Y230889D01*
X-42013D01*
X-42480Y230968D01*
Y232445D01*
D02*
G37*
G36*
X42453Y208410D02*
X39391D01*
Y205347D01*
X40221Y205570D01*
X41060Y206054D01*
X41745Y206740D01*
X42230Y207579D01*
X42453Y208410D01*
D02*
G37*
G36*
X38209D02*
X35147D01*
X35370Y207579D01*
X35854Y206740D01*
X36540Y206054D01*
X37379Y205570D01*
X38209Y205347D01*
Y208410D01*
D02*
G37*
G36*
X39391Y202653D02*
Y199591D01*
X42453D01*
X42230Y200421D01*
X41745Y201260D01*
X41060Y201946D01*
X40221Y202430D01*
X39391Y202653D01*
D02*
G37*
G36*
X38209D02*
X37379Y202430D01*
X36540Y201946D01*
X35854Y201260D01*
X35370Y200421D01*
X35147Y199591D01*
X38209D01*
Y202653D01*
D02*
G37*
G36*
X29207Y202091D02*
X28393D01*
X27607Y201880D01*
X26902Y201473D01*
X26327Y200898D01*
X25920Y200193D01*
X25709Y199407D01*
Y198593D01*
X25920Y197807D01*
X26327Y197102D01*
X26902Y196527D01*
X27607Y196120D01*
X28393Y195910D01*
X29207D01*
X29993Y196120D01*
X30698Y196527D01*
X31273Y197102D01*
X31680Y197807D01*
X31890Y198593D01*
Y199407D01*
X31680Y200193D01*
X31273Y200898D01*
X30698Y201473D01*
X29993Y201880D01*
X29207Y202091D01*
D02*
G37*
G36*
X42453Y198409D02*
X39391D01*
Y195347D01*
X40221Y195570D01*
X41060Y196054D01*
X41745Y196740D01*
X42230Y197579D01*
X42453Y198409D01*
D02*
G37*
G36*
X38209D02*
X35147D01*
X35370Y197579D01*
X35854Y196740D01*
X36540Y196054D01*
X37379Y195570D01*
X38209Y195347D01*
Y198409D01*
D02*
G37*
G36*
X39391Y192653D02*
Y189591D01*
X42453D01*
X42230Y190421D01*
X41745Y191260D01*
X41060Y191946D01*
X40221Y192430D01*
X39391Y192653D01*
D02*
G37*
G36*
X38209D02*
X37379Y192430D01*
X36540Y191946D01*
X35854Y191260D01*
X35370Y190421D01*
X35147Y189591D01*
X38209D01*
Y192653D01*
D02*
G37*
G36*
X29207Y192091D02*
X28393D01*
X27607Y191880D01*
X26902Y191473D01*
X26327Y190898D01*
X25920Y190193D01*
X25709Y189407D01*
Y188593D01*
X25920Y187807D01*
X26327Y187102D01*
X26902Y186527D01*
X27607Y186120D01*
X28393Y185909D01*
X29207D01*
X29993Y186120D01*
X30698Y186527D01*
X31273Y187102D01*
X31680Y187807D01*
X31890Y188593D01*
Y189407D01*
X31680Y190193D01*
X31273Y190898D01*
X30698Y191473D01*
X29993Y191880D01*
X29207Y192091D01*
D02*
G37*
G36*
X-42480Y219847D02*
X-48976D01*
X-55472D01*
Y218370D01*
X-54882D01*
Y216205D01*
X-55472D01*
Y214728D01*
X-48976D01*
X-42480D01*
Y216205D01*
X-42013Y216284D01*
X-9903D01*
X16018Y190363D01*
X15920Y190193D01*
X15709Y189407D01*
Y188593D01*
X15920Y187807D01*
X16327Y187102D01*
X16902Y186527D01*
X17607Y186120D01*
X18393Y185909D01*
X19207D01*
X19993Y186120D01*
X20698Y186527D01*
X21273Y187102D01*
X21680Y187807D01*
X21891Y188593D01*
Y189407D01*
X21680Y190193D01*
X21273Y190898D01*
X20698Y191473D01*
X19993Y191880D01*
X19207Y192091D01*
X18393D01*
X17607Y191880D01*
X17437Y191782D01*
X-8778Y217997D01*
X-9103Y218215D01*
X-9488Y218291D01*
X-42013D01*
X-42480Y218370D01*
Y219847D01*
D02*
G37*
G36*
X42453Y188409D02*
X39391D01*
Y185347D01*
X40221Y185570D01*
X41060Y186054D01*
X41745Y186740D01*
X42230Y187579D01*
X42453Y188409D01*
D02*
G37*
G36*
X38209D02*
X35147D01*
X35370Y187579D01*
X35854Y186740D01*
X36540Y186054D01*
X37379Y185570D01*
X38209Y185347D01*
Y188409D01*
D02*
G37*
G36*
X-42480Y184709D02*
X-48386D01*
Y183232D01*
X-42480D01*
Y184709D01*
D02*
G37*
G36*
X-49567D02*
X-55472D01*
Y183232D01*
X-49567D01*
Y184709D01*
D02*
G37*
G36*
X39391Y182653D02*
Y179591D01*
X42453D01*
X42230Y180421D01*
X41745Y181260D01*
X41060Y181946D01*
X40221Y182430D01*
X39391Y182653D01*
D02*
G37*
G36*
X38209D02*
X37379Y182430D01*
X36540Y181946D01*
X35854Y181260D01*
X35370Y180421D01*
X35147Y179591D01*
X38209D01*
Y182653D01*
D02*
G37*
G36*
X29207Y182091D02*
X28393D01*
X27607Y181880D01*
X26902Y181473D01*
X26327Y180898D01*
X25920Y180193D01*
X25709Y179407D01*
Y178593D01*
X25920Y177807D01*
X26327Y177102D01*
X26902Y176527D01*
X27607Y176120D01*
X28393Y175909D01*
X29207D01*
X29993Y176120D01*
X30698Y176527D01*
X31273Y177102D01*
X31680Y177807D01*
X31890Y178593D01*
Y179407D01*
X31680Y180193D01*
X31273Y180898D01*
X30698Y181473D01*
X29993Y181880D01*
X29207Y182091D01*
D02*
G37*
G36*
X-42480Y213547D02*
X-48976D01*
X-55472D01*
Y212071D01*
X-54882D01*
Y209906D01*
X-55472D01*
Y208429D01*
X-48976D01*
X-42480D01*
Y209906D01*
X-42013Y209985D01*
X-13604D01*
X16018Y180363D01*
X15920Y180193D01*
X15709Y179407D01*
Y178593D01*
X15920Y177807D01*
X16327Y177102D01*
X16902Y176527D01*
X17607Y176120D01*
X18393Y175909D01*
X19207D01*
X19993Y176120D01*
X20698Y176527D01*
X21273Y177102D01*
X21680Y177807D01*
X21891Y178593D01*
Y179407D01*
X21680Y180193D01*
X21273Y180898D01*
X20698Y181473D01*
X19993Y181880D01*
X19207Y182091D01*
X18393D01*
X17607Y181880D01*
X17437Y181782D01*
X-12479Y211698D01*
X-12804Y211915D01*
X-13188Y211992D01*
X-42013D01*
X-42480Y212071D01*
Y213547D01*
D02*
G37*
G36*
X42453Y178410D02*
X39391D01*
Y175347D01*
X40221Y175570D01*
X41060Y176054D01*
X41745Y176740D01*
X42230Y177579D01*
X42453Y178410D01*
D02*
G37*
G36*
X38209D02*
X35147D01*
X35370Y177579D01*
X35854Y176740D01*
X36540Y176054D01*
X37379Y175570D01*
X38209Y175347D01*
Y178410D01*
D02*
G37*
G36*
X39391Y172653D02*
Y169591D01*
X42453D01*
X42230Y170421D01*
X41745Y171260D01*
X41060Y171946D01*
X40221Y172430D01*
X39391Y172653D01*
D02*
G37*
G36*
X38209D02*
X37379Y172430D01*
X36540Y171946D01*
X35854Y171260D01*
X35370Y170421D01*
X35147Y169591D01*
X38209D01*
Y172653D01*
D02*
G37*
G36*
X-42480Y207248D02*
X-48976D01*
X-55472D01*
Y205772D01*
X-54882D01*
Y203606D01*
X-55472D01*
Y202130D01*
X-48976D01*
X-42480D01*
Y203606D01*
X-42013Y203685D01*
X-17305D01*
X16018Y170363D01*
X15920Y170193D01*
X15709Y169407D01*
Y168593D01*
X15920Y167807D01*
X16327Y167102D01*
X16902Y166527D01*
X17289Y166304D01*
X17155Y165804D01*
X15416D01*
X-17880Y199099D01*
X-18206Y199317D01*
X-18590Y199393D01*
X-42013D01*
X-42480Y199472D01*
Y200949D01*
X-48976D01*
X-55472D01*
Y199472D01*
X-54882D01*
Y196913D01*
X-43071D01*
Y197386D01*
X-19005D01*
X14290Y164090D01*
X14616Y163873D01*
X15000Y163796D01*
X24600D01*
X24984Y163873D01*
X25310Y164090D01*
X27437Y166218D01*
X27607Y166120D01*
X28393Y165910D01*
X29207D01*
X29993Y166120D01*
X30698Y166527D01*
X31273Y167102D01*
X31680Y167807D01*
X31890Y168593D01*
Y169407D01*
X31680Y170193D01*
X31273Y170898D01*
X30698Y171473D01*
X29993Y171880D01*
X29207Y172091D01*
X28393D01*
X27607Y171880D01*
X26902Y171473D01*
X26327Y170898D01*
X25920Y170193D01*
X25709Y169407D01*
Y168593D01*
X25920Y167807D01*
X26018Y167637D01*
X24184Y165804D01*
X20445D01*
X20311Y166304D01*
X20698Y166527D01*
X21273Y167102D01*
X21680Y167807D01*
X21891Y168593D01*
Y169407D01*
X21680Y170193D01*
X21273Y170898D01*
X20698Y171473D01*
X19993Y171880D01*
X19207Y172091D01*
X18393D01*
X17607Y171880D01*
X17437Y171782D01*
X-16180Y205399D01*
X-16505Y205616D01*
X-16889Y205693D01*
X-42013D01*
X-42480Y205772D01*
Y207248D01*
D02*
G37*
G36*
X42453Y168410D02*
X39391D01*
Y165347D01*
X40221Y165570D01*
X41060Y166054D01*
X41745Y166740D01*
X42230Y167579D01*
X42453Y168410D01*
D02*
G37*
G36*
X38209D02*
X35147D01*
X35370Y167579D01*
X35854Y166740D01*
X36540Y166054D01*
X37379Y165570D01*
X38209Y165347D01*
Y168410D01*
D02*
G37*
G36*
X39590Y150553D02*
Y147491D01*
X42653D01*
X42430Y148321D01*
X41945Y149160D01*
X41260Y149846D01*
X40421Y150330D01*
X39590Y150553D01*
D02*
G37*
G36*
X38409D02*
X37579Y150330D01*
X36740Y149846D01*
X36054Y149160D01*
X35570Y148321D01*
X35347Y147491D01*
X38409D01*
Y150553D01*
D02*
G37*
G36*
X29407Y149991D02*
X28593D01*
X27807Y149780D01*
X27102Y149373D01*
X26527Y148798D01*
X26120Y148093D01*
X25909Y147307D01*
Y146493D01*
X26120Y145707D01*
X26527Y145002D01*
X27102Y144427D01*
X27807Y144020D01*
X28593Y143809D01*
X29407D01*
X30193Y144020D01*
X30898Y144427D01*
X31473Y145002D01*
X31880Y145707D01*
X32090Y146493D01*
Y147307D01*
X31880Y148093D01*
X31473Y148798D01*
X30898Y149373D01*
X30193Y149780D01*
X29407Y149991D01*
D02*
G37*
G36*
X42653Y146309D02*
X39590D01*
Y143247D01*
X40421Y143470D01*
X41260Y143954D01*
X41945Y144640D01*
X42430Y145479D01*
X42653Y146309D01*
D02*
G37*
G36*
X38409D02*
X35347D01*
X35570Y145479D01*
X36054Y144640D01*
X36740Y143954D01*
X37579Y143470D01*
X38409Y143247D01*
Y146309D01*
D02*
G37*
G36*
X39590Y140553D02*
Y137491D01*
X42653D01*
X42430Y138321D01*
X41945Y139160D01*
X41260Y139846D01*
X40421Y140330D01*
X39590Y140553D01*
D02*
G37*
G36*
X38409D02*
X37579Y140330D01*
X36740Y139846D01*
X36054Y139160D01*
X35570Y138321D01*
X35347Y137491D01*
X38409D01*
Y140553D01*
D02*
G37*
G36*
X29407Y139991D02*
X28593D01*
X27807Y139780D01*
X27102Y139373D01*
X26527Y138798D01*
X26120Y138093D01*
X25909Y137307D01*
Y136493D01*
X26120Y135707D01*
X26527Y135002D01*
X27102Y134427D01*
X27807Y134020D01*
X28593Y133809D01*
X29407D01*
X30193Y134020D01*
X30898Y134427D01*
X31473Y135002D01*
X31880Y135707D01*
X32090Y136493D01*
Y137307D01*
X31880Y138093D01*
X31473Y138798D01*
X30898Y139373D01*
X30193Y139780D01*
X29407Y139991D01*
D02*
G37*
G36*
X42653Y136310D02*
X39590D01*
Y133247D01*
X40421Y133470D01*
X41260Y133954D01*
X41945Y134640D01*
X42430Y135479D01*
X42653Y136310D01*
D02*
G37*
G36*
X38409D02*
X35347D01*
X35570Y135479D01*
X36054Y134640D01*
X36740Y133954D01*
X37579Y133470D01*
X38409Y133247D01*
Y136310D01*
D02*
G37*
G36*
X292834Y118669D02*
Y115953D01*
X295550D01*
X295362Y116655D01*
X294922Y117418D01*
X294299Y118041D01*
X293536Y118481D01*
X292834Y118669D01*
D02*
G37*
G36*
X291653D02*
X290952Y118481D01*
X290189Y118041D01*
X289566Y117418D01*
X289126Y116655D01*
X288938Y115953D01*
X291653D01*
Y118669D01*
D02*
G37*
G36*
X-23826Y120978D02*
X-24374D01*
X-24881Y120768D01*
X-25268Y120380D01*
X-25478Y119874D01*
Y119326D01*
X-25268Y118819D01*
X-24881Y118432D01*
X-24551Y118295D01*
X-24374Y118222D01*
X-24408Y117736D01*
X-24653Y117736D01*
X-25160Y117526D01*
X-25548Y117139D01*
X-25757Y116632D01*
Y116084D01*
X-25548Y115577D01*
X-25160Y115190D01*
X-24653Y114980D01*
X-24105D01*
X-23599Y115190D01*
X-23361Y115428D01*
X-1198D01*
X-1033Y115263D01*
X-527Y115053D01*
X22D01*
X528Y115263D01*
X916Y115651D01*
X1125Y116157D01*
Y116706D01*
X916Y117212D01*
X528Y117600D01*
X22Y117809D01*
X-527D01*
X-1033Y117600D01*
X-1198Y117435D01*
X-23508D01*
X-23599Y117526D01*
X-23928Y117663D01*
X-24105Y117736D01*
X-24071Y118222D01*
X-23826Y118222D01*
X-23320Y118432D01*
X-23155Y118596D01*
X1584D01*
X3722Y116459D01*
Y116026D01*
X3932Y115519D01*
X4319Y115132D01*
X4826Y114922D01*
X5374D01*
X5881Y115132D01*
X6268Y115519D01*
X6478Y116026D01*
Y116574D01*
X6268Y117080D01*
X5881Y117468D01*
X5374Y117678D01*
X5341D01*
X2710Y120310D01*
X2384Y120527D01*
X2000Y120604D01*
X-23155D01*
X-23320Y120768D01*
X-23826Y120978D01*
D02*
G37*
G36*
X285000Y118119D02*
X279488D01*
Y112607D01*
X285000D01*
Y118119D01*
D02*
G37*
G36*
X295550Y114772D02*
X292834D01*
Y112057D01*
X293536Y112244D01*
X294299Y112685D01*
X294922Y113308D01*
X295362Y114071D01*
X295550Y114772D01*
D02*
G37*
G36*
X291653D02*
X288938D01*
X289126Y114071D01*
X289566Y113308D01*
X290189Y112685D01*
X290952Y112244D01*
X291653Y112057D01*
Y114772D01*
D02*
G37*
G36*
X39407Y99991D02*
X38593D01*
X37807Y99780D01*
X37102Y99373D01*
X36527Y98798D01*
X36120Y98093D01*
X35909Y97307D01*
Y96493D01*
X36120Y95707D01*
X36527Y95002D01*
X37102Y94427D01*
X37807Y94020D01*
X38593Y93809D01*
X39407D01*
X40193Y94020D01*
X40898Y94427D01*
X41473Y95002D01*
X41880Y95707D01*
X42090Y96493D01*
Y97307D01*
X41880Y98093D01*
X41473Y98798D01*
X40898Y99373D01*
X40193Y99780D01*
X39407Y99991D01*
D02*
G37*
G36*
X19407Y79991D02*
X18593D01*
X17807Y79780D01*
X17102Y79373D01*
X16527Y78798D01*
X16120Y78093D01*
X15909Y77307D01*
Y76493D01*
X16120Y75707D01*
X16527Y75002D01*
X17102Y74427D01*
X17807Y74020D01*
X18593Y73809D01*
X19407D01*
X20193Y74020D01*
X20898Y74427D01*
X21473Y75002D01*
X21880Y75707D01*
X22091Y76493D01*
Y77307D01*
X21880Y78093D01*
X21473Y78798D01*
X20898Y79373D01*
X20193Y79780D01*
X19407Y79991D01*
D02*
G37*
G36*
X310060Y380108D02*
Y377393D01*
X312776D01*
X312588Y378094D01*
X312147Y378857D01*
X311524Y379480D01*
X310761Y379921D01*
X310060Y380108D01*
D02*
G37*
G36*
X308879D02*
X308178Y379921D01*
X307415Y379480D01*
X306792Y378857D01*
X306351Y378094D01*
X306163Y377393D01*
X308879D01*
Y380108D01*
D02*
G37*
G36*
X330856Y381152D02*
X328083D01*
X327699Y381076D01*
X327374Y380858D01*
X323138Y376622D01*
X322920Y376297D01*
X322844Y375913D01*
Y334351D01*
X321087Y332594D01*
X320544Y332759D01*
X320533Y332815D01*
X320185Y333335D01*
X319664Y333683D01*
X319050Y333806D01*
X312750D01*
X312136Y333683D01*
X311615Y333335D01*
X311267Y332815D01*
X311145Y332200D01*
X311267Y331586D01*
X311615Y331065D01*
X311620Y331062D01*
X311587Y330482D01*
X311478Y330410D01*
X309875Y328806D01*
X309658Y328481D01*
X309581Y328097D01*
Y326303D01*
X309658Y325919D01*
X309875Y325593D01*
X311144Y324325D01*
X311469Y324108D01*
X311778Y324046D01*
X311874Y323842D01*
X311908Y323531D01*
X311615Y323335D01*
X311267Y322814D01*
X311145Y322200D01*
X311267Y321586D01*
X311615Y321065D01*
X311908Y320869D01*
X311874Y320558D01*
X311778Y320354D01*
X311469Y320292D01*
X311144Y320075D01*
X309875Y318807D01*
X309658Y318481D01*
X309581Y318097D01*
Y314365D01*
X309658Y313981D01*
X309875Y313656D01*
X311176Y312355D01*
X311145Y312200D01*
X311176Y312045D01*
X308290Y309159D01*
X308073Y308834D01*
X307996Y308450D01*
Y290100D01*
X308073Y289716D01*
X308290Y289390D01*
X319890Y277790D01*
X320216Y277573D01*
X320600Y277497D01*
X410797D01*
X411181Y277573D01*
X411507Y277790D01*
X421714Y287998D01*
X421986Y288019D01*
X422312Y287963D01*
X422322Y287945D01*
X422945Y287322D01*
X423708Y286882D01*
X424559Y286654D01*
X425441D01*
X426292Y286882D01*
X427055Y287322D01*
X427678Y287945D01*
X428116Y288704D01*
X429309D01*
X440533Y277479D01*
X440859Y277262D01*
X441243Y277186D01*
X519370D01*
X519754Y277262D01*
X520079Y277479D01*
X547309Y304710D01*
X547527Y305035D01*
X547604Y305419D01*
Y323928D01*
X547527Y324312D01*
X547310Y324638D01*
X538659Y333288D01*
X538334Y333506D01*
X537950Y333582D01*
X536830D01*
X536764Y334082D01*
X536948Y334132D01*
X537796Y334621D01*
X538489Y335314D01*
X538979Y336162D01*
X539232Y337109D01*
Y338088D01*
X538979Y339035D01*
X538489Y339883D01*
X537796Y340576D01*
X536948Y341065D01*
X536002Y341319D01*
X535022D01*
X534076Y341065D01*
X533227Y340576D01*
X532535Y339883D01*
X532045Y339035D01*
X531791Y338088D01*
Y337109D01*
X532045Y336162D01*
X532535Y335314D01*
X533227Y334621D01*
X534076Y334132D01*
X534259Y334082D01*
X534193Y333582D01*
X533074D01*
X532690Y333506D01*
X532364Y333288D01*
X528916Y329841D01*
X528699Y329515D01*
X528622Y329131D01*
Y318172D01*
X528622Y318172D01*
X528622Y318172D01*
X528655Y318008D01*
X528699Y317788D01*
X528699Y317788D01*
X528699Y317788D01*
X528916Y317462D01*
X528916Y317462D01*
X530197Y316182D01*
Y309193D01*
X530274Y308809D01*
X530491Y308483D01*
X532269Y306706D01*
X532045Y306318D01*
X531791Y305372D01*
Y304392D01*
X532045Y303446D01*
X532535Y302597D01*
X533227Y301905D01*
X534076Y301415D01*
X535022Y301161D01*
X535761D01*
X535969Y300661D01*
X517650Y282342D01*
X513409D01*
X513218Y282804D01*
X513309Y282896D01*
X513527Y283221D01*
X513603Y283605D01*
Y293379D01*
X520110Y299886D01*
X520610Y299679D01*
Y298939D01*
X520864Y297993D01*
X521354Y297145D01*
X522046Y296452D01*
X522895Y295962D01*
X523841Y295709D01*
X524821D01*
X525767Y295962D01*
X526615Y296452D01*
X527308Y297145D01*
X527798Y297993D01*
X528051Y298939D01*
Y299919D01*
X527798Y300865D01*
X527308Y301714D01*
X526615Y302406D01*
X525767Y302896D01*
X525253Y303034D01*
X525103Y303591D01*
X529351Y307839D01*
X529569Y308165D01*
X529645Y308549D01*
Y312120D01*
X529569Y312504D01*
X529351Y312830D01*
X526826Y315355D01*
X526500Y315573D01*
X526116Y315649D01*
X522545D01*
X522161Y315573D01*
X521836Y315355D01*
X514104Y307623D01*
X513603Y307830D01*
Y309094D01*
X522507Y317997D01*
X522895Y317773D01*
X523841Y317520D01*
X524821D01*
X525767Y317773D01*
X526615Y318263D01*
X527308Y318956D01*
X527798Y319804D01*
X528051Y320750D01*
Y321730D01*
X527798Y322676D01*
X527308Y323525D01*
X526615Y324217D01*
X525767Y324707D01*
X524821Y324961D01*
X523841D01*
X522895Y324707D01*
X522046Y324217D01*
X521354Y323525D01*
X520864Y322676D01*
X520610Y321730D01*
Y320750D01*
X520864Y319804D01*
X521088Y319416D01*
X511890Y310219D01*
X511673Y309893D01*
X511596Y309509D01*
Y307063D01*
X511673Y306679D01*
X511890Y306353D01*
X512582Y305661D01*
X512908Y305444D01*
X513292Y305367D01*
X514270D01*
X514654Y305444D01*
X514980Y305661D01*
X520110Y310791D01*
X520610Y310584D01*
Y309845D01*
X520864Y308899D01*
X521088Y308511D01*
X498069Y285492D01*
X488132D01*
X487941Y285954D01*
X506034Y304047D01*
X506251Y304372D01*
X506327Y304756D01*
Y312723D01*
X522507Y328903D01*
X522895Y328679D01*
X523841Y328425D01*
X524821D01*
X525767Y328679D01*
X526615Y329169D01*
X527308Y329861D01*
X527798Y330710D01*
X528051Y331656D01*
Y332635D01*
X527798Y333582D01*
X527308Y334430D01*
X526615Y335123D01*
X525767Y335613D01*
X524821Y335866D01*
X523841D01*
X522895Y335613D01*
X522046Y335123D01*
X521354Y334430D01*
X520864Y333582D01*
X520610Y332635D01*
Y331656D01*
X520864Y330710D01*
X521088Y330322D01*
X504614Y313848D01*
X504397Y313523D01*
X504320Y313139D01*
Y305172D01*
X489399Y290250D01*
X488937Y290442D01*
Y290518D01*
X488669Y291520D01*
X488150Y292417D01*
X487417Y293150D01*
X486520Y293669D01*
X485591Y293918D01*
Y290000D01*
X484409D01*
Y293918D01*
X483480Y293669D01*
X482583Y293150D01*
X481850Y292417D01*
X481331Y291520D01*
X481063Y290518D01*
Y290442D01*
X480601Y290250D01*
X480434Y290417D01*
X480108Y290635D01*
X479724Y290711D01*
X478274D01*
X478118Y291292D01*
X477678Y292055D01*
X477055Y292678D01*
X476292Y293118D01*
X475441Y293347D01*
X474559D01*
X473708Y293118D01*
X472945Y292678D01*
X472322Y292055D01*
X471881Y291292D01*
X471654Y290441D01*
Y289560D01*
X471881Y288708D01*
X472322Y287945D01*
X472945Y287322D01*
X473708Y286882D01*
X474559Y286654D01*
X475441D01*
X476292Y286882D01*
X477055Y287322D01*
X477678Y287945D01*
X478116Y288704D01*
X479309D01*
X482059Y285954D01*
X481868Y285492D01*
X470927D01*
X467969Y288450D01*
X468118Y288708D01*
X468346Y289560D01*
Y290441D01*
X468118Y291292D01*
X467678Y292055D01*
X467055Y292678D01*
X466292Y293118D01*
X466004Y293196D01*
Y296474D01*
X465927Y296858D01*
X465709Y297184D01*
X448910Y313984D01*
X448584Y314201D01*
X448200Y314278D01*
X447816Y314201D01*
X447490Y313984D01*
X447273Y313658D01*
X447196Y313274D01*
X447273Y312890D01*
X447490Y312564D01*
X463996Y296058D01*
Y293196D01*
X463708Y293118D01*
X462945Y292678D01*
X462322Y292055D01*
X461881Y291292D01*
X461654Y290441D01*
Y289560D01*
X461881Y288708D01*
X462322Y287945D01*
X462945Y287322D01*
X463708Y286882D01*
X464559Y286654D01*
X465441D01*
X466292Y286882D01*
X466550Y287031D01*
X469202Y284379D01*
X469010Y283917D01*
X462502D01*
X457969Y288450D01*
X458118Y288708D01*
X458346Y289560D01*
Y290441D01*
X458118Y291292D01*
X457678Y292055D01*
X457055Y292678D01*
X456292Y293118D01*
X455441Y293347D01*
X454559D01*
X453708Y293118D01*
X452945Y292678D01*
X452322Y292055D01*
X451882Y291292D01*
X451653Y290441D01*
Y289905D01*
X451154Y289698D01*
X450434Y290417D01*
X450108Y290635D01*
X449724Y290711D01*
X448274D01*
X448118Y291292D01*
X447678Y292055D01*
X447055Y292678D01*
X446292Y293118D01*
X446003Y293196D01*
Y330384D01*
X449110Y333490D01*
X449327Y333815D01*
X449403Y334199D01*
X449327Y334583D01*
X449110Y334909D01*
X448784Y335126D01*
X448400Y335203D01*
X448016Y335126D01*
X447690Y334909D01*
X444290Y331509D01*
X444073Y331183D01*
X443996Y330799D01*
Y293196D01*
X443708Y293118D01*
X442945Y292678D01*
X442322Y292055D01*
X441882Y291292D01*
X441653Y290441D01*
Y289560D01*
X441882Y288708D01*
X442322Y287945D01*
X442945Y287322D01*
X443708Y286882D01*
X444559Y286654D01*
X445440D01*
X446292Y286882D01*
X447055Y287322D01*
X447678Y287945D01*
X448116Y288704D01*
X449309D01*
X456784Y281229D01*
X456592Y280767D01*
X445652D01*
X437969Y288450D01*
X438118Y288708D01*
X438346Y289560D01*
Y290441D01*
X438118Y291292D01*
X437969Y291550D01*
X439110Y292690D01*
X439327Y293016D01*
X439403Y293400D01*
Y339000D01*
X439388Y339079D01*
X439391Y339159D01*
X438666Y343673D01*
X438625Y343783D01*
X438602Y343898D01*
X438557Y343965D01*
X438529Y344040D01*
X438449Y344126D01*
X438384Y344223D01*
X437428Y345179D01*
X437409Y345192D01*
X437396Y345210D01*
X437033Y345543D01*
X437030Y345544D01*
X437029Y345546D01*
X432682Y349482D01*
X432535Y349570D01*
X432392Y349665D01*
X432368Y349670D01*
X432346Y349683D01*
X432176Y349708D01*
X432008Y349741D01*
X430948D01*
X430564Y349665D01*
X430238Y349447D01*
X430021Y349122D01*
X430002Y349030D01*
X420353Y339381D01*
X420136Y339055D01*
X420059Y338671D01*
Y289181D01*
X418808Y287930D01*
X418346Y288122D01*
Y293347D01*
X416004D01*
Y351184D01*
X422116Y357296D01*
X438295D01*
X448990Y346601D01*
X449316Y346383D01*
X449700Y346307D01*
X450084Y346383D01*
X450410Y346601D01*
X450627Y346926D01*
X450703Y347310D01*
X450627Y347694D01*
X450410Y348020D01*
X439420Y359010D01*
X439094Y359227D01*
X438710Y359303D01*
X421700D01*
X421316Y359227D01*
X420990Y359010D01*
X414290Y352310D01*
X414073Y351984D01*
X413996Y351600D01*
Y293347D01*
X411654D01*
Y286654D01*
X416878D01*
X417070Y286192D01*
X410382Y279503D01*
X321016D01*
X310003Y290516D01*
Y299812D01*
X310465Y300004D01*
X321583Y288886D01*
X321909Y288668D01*
X322293Y288592D01*
X347295D01*
X347679Y288668D01*
X348005Y288886D01*
X364341Y305222D01*
X364574D01*
X365080Y305432D01*
X365468Y305820D01*
X365678Y306326D01*
Y306874D01*
X365468Y307381D01*
X365080Y307768D01*
X364574Y307978D01*
X364026D01*
X363520Y307768D01*
X363132Y307381D01*
X362922Y306874D01*
Y306641D01*
X346880Y290599D01*
X322708D01*
X313213Y300094D01*
X313420Y300594D01*
X319050D01*
X319664Y300717D01*
X320185Y301065D01*
X320273Y301197D01*
X328170D01*
X332631Y296735D01*
X332957Y296518D01*
X333341Y296441D01*
X345517D01*
X345681Y296277D01*
X346188Y296067D01*
X346340D01*
X346548Y295567D01*
X344984Y294004D01*
X336345D01*
X336180Y294168D01*
X335674Y294378D01*
X335126D01*
X334619Y294168D01*
X334232Y293780D01*
X334022Y293274D01*
Y292726D01*
X334232Y292219D01*
X334619Y291832D01*
X335126Y291622D01*
X335674D01*
X336180Y291832D01*
X336345Y291997D01*
X345400D01*
X345784Y292073D01*
X346110Y292290D01*
X350020Y296201D01*
X350238Y296527D01*
X350314Y296911D01*
Y297889D01*
X350238Y298273D01*
X350020Y298599D01*
X345710Y302910D01*
X345384Y303127D01*
X345000Y303204D01*
X339171D01*
X339083Y303335D01*
X338562Y303683D01*
X337947Y303806D01*
X335801D01*
Y305594D01*
X337947D01*
X338562Y305717D01*
X339083Y306065D01*
X339431Y306586D01*
X339553Y307200D01*
X339431Y307815D01*
X339083Y308335D01*
X338562Y308683D01*
X337947Y308806D01*
X337376D01*
Y310594D01*
X337947D01*
X338562Y310717D01*
X339083Y311065D01*
X339431Y311586D01*
X339553Y312200D01*
X339431Y312814D01*
X339083Y313335D01*
X338562Y313683D01*
X337947Y313806D01*
X337376D01*
Y315594D01*
X337947D01*
X338562Y315717D01*
X339083Y316065D01*
X339431Y316586D01*
X339553Y317200D01*
X339431Y317814D01*
X339083Y318335D01*
X338562Y318683D01*
X337947Y318806D01*
X335801D01*
Y320594D01*
X337947D01*
X338562Y320717D01*
X339083Y321065D01*
X339171Y321197D01*
X351316D01*
X351700Y321273D01*
X352026Y321490D01*
X356374Y325838D01*
X356591Y326164D01*
X356667Y326548D01*
Y327852D01*
X356591Y328237D01*
X356374Y328562D01*
X355451Y329484D01*
X355413Y329877D01*
X356374Y330838D01*
X356591Y331164D01*
X356667Y331548D01*
Y332852D01*
X356591Y333237D01*
X356374Y333562D01*
X355451Y334484D01*
X355126Y334702D01*
X354742Y334778D01*
X339842D01*
X339579Y334726D01*
X339458Y334702D01*
X339458Y334702D01*
X339458Y334702D01*
X339294Y334593D01*
X339132Y334485D01*
X338369Y333722D01*
X337947Y333806D01*
X335801D01*
Y335594D01*
X337947D01*
X338562Y335717D01*
X339083Y336065D01*
X339431Y336586D01*
X339553Y337200D01*
X339431Y337814D01*
X339083Y338335D01*
X338562Y338683D01*
X337947Y338806D01*
X331648D01*
X331493Y338775D01*
X330473Y339794D01*
Y374218D01*
X330533Y374234D01*
X331162Y374597D01*
X331675Y375110D01*
X332038Y375738D01*
X332225Y376439D01*
Y376653D01*
X332725Y376860D01*
X362496Y347089D01*
Y324745D01*
X362332Y324581D01*
X362122Y324074D01*
Y323526D01*
X362332Y323020D01*
X362719Y322632D01*
X363226Y322422D01*
X363774D01*
X364281Y322632D01*
X364668Y323020D01*
X364878Y323526D01*
Y324074D01*
X364668Y324581D01*
X364504Y324745D01*
Y347504D01*
X364427Y347888D01*
X364210Y348214D01*
X338817Y373606D01*
X339076Y374054D01*
X339107Y374046D01*
X339832D01*
X340533Y374234D01*
X341162Y374597D01*
X341675Y375110D01*
X342038Y375738D01*
X342225Y376439D01*
Y377165D01*
X342038Y377866D01*
X341675Y378494D01*
X341162Y379007D01*
X340533Y379370D01*
X339832Y379558D01*
X339107D01*
X338406Y379370D01*
X337777Y379007D01*
X337264Y378494D01*
X336901Y377866D01*
X336714Y377165D01*
Y376439D01*
X336722Y376409D01*
X336274Y376150D01*
X331565Y380858D01*
X331240Y381076D01*
X330856Y381152D01*
D02*
G37*
G36*
X319832Y379558D02*
X319107D01*
X318406Y379370D01*
X317777Y379007D01*
X317264Y378494D01*
X316901Y377866D01*
X316714Y377165D01*
Y376439D01*
X316901Y375738D01*
X317264Y375110D01*
X317777Y374597D01*
X318406Y374234D01*
X319107Y374046D01*
X319832D01*
X320533Y374234D01*
X321162Y374597D01*
X321675Y375110D01*
X322038Y375738D01*
X322225Y376439D01*
Y377165D01*
X322038Y377866D01*
X321675Y378494D01*
X321162Y379007D01*
X320533Y379370D01*
X319832Y379558D01*
D02*
G37*
G36*
X312776Y376212D02*
X310060D01*
Y373496D01*
X310761Y373684D01*
X311524Y374124D01*
X312147Y374747D01*
X312588Y375511D01*
X312776Y376212D01*
D02*
G37*
G36*
X308879D02*
X306163D01*
X306351Y375511D01*
X306792Y374747D01*
X307415Y374124D01*
X308178Y373684D01*
X308879Y373496D01*
Y376212D01*
D02*
G37*
G36*
X373851Y376194D02*
X367749D01*
Y370091D01*
X373851D01*
Y376194D01*
D02*
G37*
G36*
X530883Y380197D02*
X528960D01*
X527073Y379822D01*
X525296Y379086D01*
X523697Y378017D01*
X522337Y376657D01*
X521269Y375058D01*
X520533Y373281D01*
X520158Y371395D01*
Y369471D01*
X520533Y367585D01*
X521269Y365808D01*
X522337Y364209D01*
X523697Y362849D01*
X525296Y361781D01*
X527073Y361045D01*
X528960Y360669D01*
X530883D01*
X532769Y361045D01*
X534546Y361781D01*
X536145Y362849D01*
X537505Y364209D01*
X538574Y365808D01*
X539310Y367585D01*
X539685Y369471D01*
Y371395D01*
X539310Y373281D01*
X538574Y375058D01*
X537505Y376657D01*
X536145Y378017D01*
X534546Y379086D01*
X532769Y379822D01*
X530883Y380197D01*
D02*
G37*
G36*
X371391Y357069D02*
Y354048D01*
X374412D01*
X374194Y354863D01*
X373714Y355694D01*
X373036Y356371D01*
X372206Y356851D01*
X371391Y357069D01*
D02*
G37*
G36*
X370209D02*
X369394Y356851D01*
X368564Y356371D01*
X367886Y355694D01*
X367406Y354863D01*
X367188Y354048D01*
X370209D01*
Y357069D01*
D02*
G37*
G36*
X374412Y352867D02*
X371391D01*
Y349846D01*
X372206Y350064D01*
X373036Y350543D01*
X373714Y351221D01*
X374194Y352052D01*
X374412Y352867D01*
D02*
G37*
G36*
X370209D02*
X367188D01*
X367406Y352052D01*
X367886Y351221D01*
X368564Y350543D01*
X369394Y350064D01*
X370209Y349846D01*
Y352867D01*
D02*
G37*
G36*
X528642Y347362D02*
X524921D01*
Y343642D01*
X528642D01*
Y347362D01*
D02*
G37*
G36*
X523740D02*
X520020D01*
Y343642D01*
X523740D01*
Y347362D01*
D02*
G37*
G36*
X528642Y342461D02*
X524921D01*
Y338740D01*
X528642D01*
Y342461D01*
D02*
G37*
G36*
X523740D02*
X520020D01*
Y338740D01*
X523740D01*
Y342461D01*
D02*
G37*
G36*
X319050Y338806D02*
X312750D01*
X312136Y338683D01*
X311615Y338335D01*
X311267Y337814D01*
X311145Y337200D01*
X311267Y336586D01*
X311615Y336065D01*
X312136Y335717D01*
X312750Y335594D01*
X319050D01*
X319664Y335717D01*
X320185Y336065D01*
X320533Y336586D01*
X320655Y337200D01*
X320533Y337814D01*
X320185Y338335D01*
X319664Y338683D01*
X319050Y338806D01*
D02*
G37*
G36*
X313090Y243006D02*
Y240290D01*
X315806D01*
X315618Y240992D01*
X315178Y241755D01*
X314555Y242378D01*
X313792Y242818D01*
X313090Y243006D01*
D02*
G37*
G36*
X311910D02*
X311208Y242818D01*
X310445Y242378D01*
X309822Y241755D01*
X309382Y240992D01*
X309194Y240290D01*
X311910D01*
Y243006D01*
D02*
G37*
G36*
X382851Y244594D02*
X376749D01*
Y238491D01*
X382851D01*
Y244594D01*
D02*
G37*
G36*
X342863Y242456D02*
X342137D01*
X341436Y242268D01*
X340808Y241905D01*
X340295Y241392D01*
X339932Y240764D01*
X339744Y240063D01*
Y239337D01*
X339932Y238636D01*
X340295Y238008D01*
X340808Y237495D01*
X341436Y237132D01*
X342137Y236944D01*
X342863D01*
X343564Y237132D01*
X344192Y237495D01*
X344705Y238008D01*
X345068Y238636D01*
X345256Y239337D01*
Y240063D01*
X345068Y240764D01*
X344705Y241392D01*
X344192Y241905D01*
X343564Y242268D01*
X342863Y242456D01*
D02*
G37*
G36*
X332863D02*
X332137D01*
X331436Y242268D01*
X330808Y241905D01*
X330295Y241392D01*
X329932Y240764D01*
X329744Y240063D01*
Y239337D01*
X329932Y238636D01*
X330295Y238008D01*
X330808Y237495D01*
X331436Y237132D01*
X332137Y236944D01*
X332863D01*
X333564Y237132D01*
X334192Y237495D01*
X334705Y238008D01*
X335068Y238636D01*
X335256Y239337D01*
Y240063D01*
X335068Y240764D01*
X334705Y241392D01*
X334192Y241905D01*
X333564Y242268D01*
X332863Y242456D01*
D02*
G37*
G36*
X322863D02*
X322137D01*
X321436Y242268D01*
X320808Y241905D01*
X320295Y241392D01*
X319932Y240764D01*
X319744Y240063D01*
Y239337D01*
X319932Y238636D01*
X320295Y238008D01*
X320808Y237495D01*
X321436Y237132D01*
X322137Y236944D01*
X322863D01*
X323564Y237132D01*
X324192Y237495D01*
X324705Y238008D01*
X325068Y238636D01*
X325256Y239337D01*
Y240063D01*
X325068Y240764D01*
X324705Y241392D01*
X324192Y241905D01*
X323564Y242268D01*
X322863Y242456D01*
D02*
G37*
G36*
X315806Y239109D02*
X313090D01*
Y236394D01*
X313792Y236582D01*
X314555Y237022D01*
X315178Y237645D01*
X315618Y238408D01*
X315806Y239109D01*
D02*
G37*
G36*
X311910D02*
X309194D01*
X309382Y238408D01*
X309822Y237645D01*
X310445Y237022D01*
X311208Y236582D01*
X311910Y236394D01*
Y239109D01*
D02*
G37*
G36*
X530960Y254857D02*
X529037D01*
X527150Y254481D01*
X525374Y253745D01*
X523774Y252677D01*
X522414Y251317D01*
X521346Y249718D01*
X520610Y247941D01*
X520235Y246055D01*
Y244131D01*
X520610Y242245D01*
X521346Y240468D01*
X522414Y238869D01*
X523774Y237509D01*
X525374Y236440D01*
X527150Y235704D01*
X529037Y235329D01*
X530960D01*
X532846Y235704D01*
X534623Y236440D01*
X536222Y237509D01*
X537582Y238869D01*
X538651Y240468D01*
X539387Y242245D01*
X539762Y244131D01*
Y246055D01*
X539387Y247941D01*
X538651Y249718D01*
X537582Y251317D01*
X536222Y252677D01*
X534623Y253745D01*
X532846Y254481D01*
X530960Y254857D01*
D02*
G37*
G36*
X380391Y225469D02*
Y222448D01*
X383412D01*
X383193Y223263D01*
X382714Y224094D01*
X382036Y224771D01*
X381206Y225251D01*
X380391Y225469D01*
D02*
G37*
G36*
X379209D02*
X378394Y225251D01*
X377564Y224771D01*
X376886Y224094D01*
X376406Y223263D01*
X376188Y222448D01*
X379209D01*
Y225469D01*
D02*
G37*
G36*
X528719Y222022D02*
X524999D01*
Y218302D01*
X528719D01*
Y222022D01*
D02*
G37*
G36*
X523817D02*
X520097D01*
Y218302D01*
X523817D01*
Y222022D01*
D02*
G37*
G36*
X383412Y221267D02*
X380391D01*
Y218246D01*
X381206Y218464D01*
X382036Y218943D01*
X382714Y219621D01*
X383193Y220452D01*
X383412Y221267D01*
D02*
G37*
G36*
X379209D02*
X376188D01*
X376406Y220452D01*
X376886Y219621D01*
X377564Y218943D01*
X378394Y218464D01*
X379209Y218246D01*
Y221267D01*
D02*
G37*
G36*
X528719Y217121D02*
X524999D01*
Y213400D01*
X528719D01*
Y217121D01*
D02*
G37*
G36*
X523817D02*
X520097D01*
Y213400D01*
X523817D01*
Y217121D01*
D02*
G37*
G36*
X432400Y233703D02*
X408700D01*
X408316Y233627D01*
X407990Y233410D01*
X402090Y227510D01*
X401873Y227184D01*
X401796Y226800D01*
Y177000D01*
X401873Y176616D01*
X402090Y176290D01*
X413297Y165084D01*
Y163245D01*
X413132Y163081D01*
X412922Y162574D01*
Y162026D01*
X413132Y161520D01*
X413519Y161132D01*
X414026Y160922D01*
X414574D01*
X415081Y161132D01*
X415468Y161520D01*
X415678Y162026D01*
Y162574D01*
X415468Y163081D01*
X415304Y163245D01*
Y165500D01*
X415227Y165884D01*
X415010Y166210D01*
X403803Y177416D01*
Y226384D01*
X409116Y231697D01*
X431984D01*
X434197Y229484D01*
Y214900D01*
X434273Y214516D01*
X434422Y214293D01*
Y214026D01*
X434632Y213520D01*
X435019Y213132D01*
X435526Y212922D01*
X436074D01*
X436581Y213132D01*
X436968Y213520D01*
X437178Y214026D01*
Y214574D01*
X436968Y215080D01*
X436581Y215468D01*
X436203Y215624D01*
Y229900D01*
X436127Y230284D01*
X435910Y230610D01*
X433110Y233410D01*
X432784Y233627D01*
X432400Y233703D01*
D02*
G37*
G36*
X536079Y215979D02*
X535099D01*
X534153Y215725D01*
X533305Y215235D01*
X532612Y214543D01*
X532122Y213694D01*
X531869Y212748D01*
Y211768D01*
X532122Y210822D01*
X532612Y209974D01*
X533305Y209281D01*
X534153Y208791D01*
X535099Y208538D01*
X536079D01*
X537025Y208791D01*
X537873Y209281D01*
X538566Y209974D01*
X539056Y210822D01*
X539309Y211768D01*
Y212748D01*
X539056Y213694D01*
X538566Y214543D01*
X537873Y215235D01*
X537025Y215725D01*
X536079Y215979D01*
D02*
G37*
G36*
X524898Y210526D02*
X523918D01*
X522972Y210273D01*
X522123Y209783D01*
X521431Y209090D01*
X520941Y208242D01*
X520687Y207295D01*
Y206316D01*
X520941Y205370D01*
X521431Y204521D01*
X522123Y203829D01*
X522972Y203339D01*
X523918Y203085D01*
X524898D01*
X525844Y203339D01*
X526692Y203829D01*
X527385Y204521D01*
X527875Y205370D01*
X528128Y206316D01*
Y207295D01*
X527875Y208242D01*
X527385Y209090D01*
X526692Y209783D01*
X525844Y210273D01*
X524898Y210526D01*
D02*
G37*
G36*
X536079Y205073D02*
X535099D01*
X534153Y204820D01*
X533305Y204330D01*
X532612Y203637D01*
X532122Y202789D01*
X531869Y201843D01*
Y200863D01*
X532122Y199917D01*
X532612Y199068D01*
X533305Y198376D01*
X534153Y197886D01*
X535099Y197632D01*
X536079D01*
X537025Y197886D01*
X537873Y198376D01*
X538566Y199068D01*
X539056Y199917D01*
X539309Y200863D01*
Y201843D01*
X539056Y202789D01*
X538566Y203637D01*
X537873Y204330D01*
X537025Y204820D01*
X536079Y205073D01*
D02*
G37*
G36*
X340299Y203106D02*
X333999D01*
X333385Y202983D01*
X332864Y202635D01*
X332776Y202503D01*
X331047D01*
X330662Y202427D01*
X330337Y202210D01*
X323247Y195120D01*
X323030Y194794D01*
X322953Y194410D01*
Y192911D01*
X322762Y192785D01*
X322453Y192691D01*
X322015Y192983D01*
X321401Y193106D01*
X319255D01*
Y194894D01*
X321401D01*
X322015Y195017D01*
X322536Y195365D01*
X322884Y195886D01*
X323007Y196500D01*
X322884Y197114D01*
X322536Y197635D01*
X322015Y197983D01*
X321401Y198106D01*
X319255D01*
Y199894D01*
X321401D01*
X322015Y200017D01*
X322536Y200365D01*
X322884Y200886D01*
X323007Y201500D01*
X322884Y202114D01*
X322536Y202635D01*
X322015Y202983D01*
X321401Y203106D01*
X315102D01*
X314487Y202983D01*
X313966Y202635D01*
X313618Y202114D01*
X313496Y201500D01*
X313618Y200886D01*
X313966Y200365D01*
X314487Y200017D01*
X315102Y199894D01*
X317248D01*
Y198106D01*
X315102D01*
X314487Y197983D01*
X313966Y197635D01*
X313618Y197114D01*
X313496Y196500D01*
X313618Y195886D01*
X313966Y195365D01*
X314487Y195017D01*
X315102Y194894D01*
X317248D01*
Y193106D01*
X315102D01*
X314487Y192983D01*
X313966Y192635D01*
X313618Y192114D01*
X313496Y191500D01*
X313618Y190885D01*
X313966Y190365D01*
X314487Y190017D01*
X315102Y189894D01*
X317248D01*
Y188106D01*
X315102D01*
X314487Y187983D01*
X313966Y187635D01*
X313618Y187114D01*
X313496Y186500D01*
X313618Y185886D01*
X313966Y185365D01*
X314487Y185017D01*
X315102Y184894D01*
X317248D01*
Y183106D01*
X315102D01*
X314487Y182983D01*
X313966Y182635D01*
X313618Y182114D01*
X313496Y181500D01*
X313618Y180886D01*
X313966Y180365D01*
X314487Y180017D01*
X315102Y179894D01*
X317248D01*
Y178106D01*
X315102D01*
X314487Y177983D01*
X313966Y177635D01*
X313618Y177114D01*
X313496Y176500D01*
X313618Y175885D01*
X313966Y175365D01*
X314487Y175017D01*
X315102Y174894D01*
X317248D01*
Y173106D01*
X315102D01*
X314487Y172983D01*
X313966Y172635D01*
X313618Y172114D01*
X313496Y171500D01*
X313618Y170886D01*
X313966Y170365D01*
X314487Y170017D01*
X315102Y169894D01*
X317248D01*
Y168106D01*
X315102D01*
X314487Y167983D01*
X313966Y167635D01*
X313618Y167114D01*
X313496Y166500D01*
X313618Y165885D01*
X313966Y165365D01*
X314487Y165017D01*
X315102Y164894D01*
X321401D01*
X322015Y165017D01*
X322536Y165365D01*
X322884Y165885D01*
X323007Y166500D01*
X322884Y167114D01*
X322536Y167635D01*
X322015Y167983D01*
X321401Y168106D01*
X319255D01*
Y169894D01*
X321401D01*
X322015Y170017D01*
X322536Y170365D01*
X322884Y170886D01*
X323007Y171500D01*
X322884Y172114D01*
X322536Y172635D01*
X322015Y172983D01*
X321401Y173106D01*
X319255D01*
Y174894D01*
X321401D01*
X322015Y175017D01*
X322453Y175309D01*
X322762Y175215D01*
X322953Y175089D01*
Y173480D01*
X323030Y173096D01*
X323247Y172771D01*
X335427Y160590D01*
X335753Y160373D01*
X336137Y160296D01*
X339355D01*
X339520Y160132D01*
X340026Y159922D01*
X340574D01*
X341080Y160132D01*
X341468Y160520D01*
X341678Y161026D01*
Y161574D01*
X341468Y162081D01*
X341080Y162468D01*
X340574Y162678D01*
X340026D01*
X339520Y162468D01*
X339355Y162303D01*
X336553D01*
X334462Y164394D01*
X334669Y164894D01*
X340299D01*
X340913Y165017D01*
X341434Y165365D01*
X341782Y165885D01*
X341904Y166500D01*
X341782Y167114D01*
X341434Y167635D01*
X340913Y167983D01*
X340299Y168106D01*
X333999D01*
X333385Y167983D01*
X332864Y167635D01*
X332516Y167114D01*
X332505Y167059D01*
X331962Y166894D01*
X324960Y173896D01*
Y177867D01*
X325422Y178059D01*
X327905Y175575D01*
X327822Y175374D01*
Y174826D01*
X328032Y174320D01*
X328419Y173932D01*
X328926Y173722D01*
X329474D01*
X329980Y173932D01*
X330297Y174249D01*
X330510Y174390D01*
X330674Y174637D01*
X331039Y174748D01*
X331248Y174770D01*
X332393Y173625D01*
X332718Y173407D01*
X333027Y173346D01*
X333123Y173142D01*
X333157Y172831D01*
X332864Y172635D01*
X332516Y172114D01*
X332394Y171500D01*
X332516Y170886D01*
X332864Y170365D01*
X333385Y170017D01*
X333999Y169894D01*
X340299D01*
X340913Y170017D01*
X341434Y170365D01*
X341782Y170886D01*
X341904Y171500D01*
X341782Y172114D01*
X341434Y172635D01*
X341141Y172831D01*
X341175Y173142D01*
X341270Y173346D01*
X341579Y173407D01*
X341905Y173625D01*
X342341Y174061D01*
X342841Y173854D01*
Y173539D01*
X343051Y173033D01*
X343439Y172645D01*
X343945Y172435D01*
X344493D01*
X345000Y172645D01*
X345164Y172810D01*
X348079D01*
X348463Y172886D01*
X348788Y173104D01*
X353102Y177418D01*
X353320Y177744D01*
X353396Y178128D01*
Y191091D01*
X353320Y191475D01*
X353102Y191801D01*
X347025Y197878D01*
X346699Y198096D01*
X346315Y198172D01*
X343920D01*
X343536Y198096D01*
X343210Y197878D01*
X342836Y197503D01*
X341522D01*
X341434Y197635D01*
X340913Y197983D01*
X340299Y198106D01*
X333999D01*
X333385Y197983D01*
X332864Y197635D01*
X332516Y197114D01*
X332394Y196500D01*
X332516Y195886D01*
X332864Y195365D01*
X333385Y195017D01*
X333999Y194894D01*
X340299D01*
X340913Y195017D01*
X341434Y195365D01*
X341522Y195496D01*
X343251D01*
X343447Y195536D01*
X343860Y195251D01*
X343922Y195163D01*
Y194926D01*
X344045Y194629D01*
Y189826D01*
X343583Y189635D01*
X341873Y191344D01*
X341904Y191500D01*
X341782Y192114D01*
X341434Y192635D01*
X340913Y192983D01*
X340299Y193106D01*
X333999D01*
X333385Y192983D01*
X332864Y192635D01*
X332516Y192114D01*
X332394Y191500D01*
X332516Y190885D01*
X332864Y190365D01*
X333385Y190017D01*
X333999Y189894D01*
X340299D01*
X340454Y189925D01*
X342470Y187909D01*
Y184463D01*
X342008Y184272D01*
X341905Y184375D01*
X341579Y184592D01*
X341270Y184654D01*
X341175Y184858D01*
X341141Y185169D01*
X341434Y185365D01*
X341782Y185886D01*
X341904Y186500D01*
X341782Y187114D01*
X341434Y187635D01*
X340913Y187983D01*
X340299Y188106D01*
X333999D01*
X333385Y187983D01*
X332864Y187635D01*
X332776Y187504D01*
X331462D01*
X330684Y188281D01*
Y189803D01*
X330608Y190187D01*
X330391Y190513D01*
X329025Y191878D01*
X328699Y192096D01*
X328315Y192172D01*
X326685D01*
X326301Y192096D01*
X325975Y191878D01*
X325422Y191325D01*
X324960Y191517D01*
Y193994D01*
X331462Y200497D01*
X332776D01*
X332864Y200365D01*
X333385Y200017D01*
X333999Y199894D01*
X340299D01*
X340913Y200017D01*
X341434Y200365D01*
X341782Y200886D01*
X341904Y201500D01*
X341782Y202114D01*
X341434Y202635D01*
X340913Y202983D01*
X340299Y203106D01*
D02*
G37*
G36*
X526194Y201215D02*
X519211D01*
X518827Y201138D01*
X518501Y200921D01*
X516359Y198778D01*
X516126D01*
X515619Y198568D01*
X515232Y198180D01*
X515022Y197674D01*
Y197126D01*
X515232Y196619D01*
X515619Y196232D01*
X516126Y196022D01*
X516674D01*
X517181Y196232D01*
X517568Y196619D01*
X517778Y197126D01*
Y197359D01*
X519627Y199207D01*
X521747D01*
X521954Y198707D01*
X521431Y198184D01*
X520941Y197336D01*
X520687Y196390D01*
Y195410D01*
X520941Y194464D01*
X521431Y193616D01*
X522123Y192923D01*
X522972Y192433D01*
X523918Y192180D01*
X524898D01*
X525844Y192433D01*
X526692Y192923D01*
X527385Y193616D01*
X527875Y194464D01*
X528128Y195410D01*
Y196150D01*
X528628Y196357D01*
X530390Y194595D01*
X530716Y194378D01*
X531100Y194301D01*
X533823D01*
X533957Y193801D01*
X533305Y193424D01*
X532612Y192732D01*
X532122Y191883D01*
X531869Y190937D01*
Y189957D01*
X532122Y189011D01*
X532612Y188163D01*
X533305Y187470D01*
X534153Y186980D01*
X535099Y186727D01*
X536079D01*
X537025Y186980D01*
X537873Y187470D01*
X538566Y188163D01*
X539056Y189011D01*
X539309Y189957D01*
Y190937D01*
X539056Y191883D01*
X538566Y192732D01*
X537873Y193424D01*
X537221Y193801D01*
X537355Y194301D01*
X542005D01*
X542389Y194378D01*
X542455Y194422D01*
X542874D01*
X543381Y194632D01*
X543768Y195019D01*
X543978Y195526D01*
Y196074D01*
X543768Y196581D01*
X543381Y196968D01*
X542874Y197178D01*
X542326D01*
X541819Y196968D01*
X541432Y196581D01*
X541319Y196308D01*
X531516D01*
X526903Y200921D01*
X526578Y201138D01*
X526194Y201215D01*
D02*
G37*
G36*
X524898Y188715D02*
X523918D01*
X522972Y188461D01*
X522123Y187971D01*
X521431Y187279D01*
X520941Y186431D01*
X520687Y185484D01*
Y184505D01*
X520941Y183558D01*
X521431Y182710D01*
X522123Y182017D01*
X522972Y181527D01*
X523918Y181274D01*
X524898D01*
X525844Y181527D01*
X526692Y182017D01*
X527385Y182710D01*
X527875Y183558D01*
X528128Y184505D01*
Y185484D01*
X527875Y186431D01*
X527385Y187279D01*
X526692Y187971D01*
X525844Y188461D01*
X524898Y188715D01*
D02*
G37*
G36*
X498674Y208378D02*
X498126D01*
X497619Y208168D01*
X497232Y207781D01*
X497022Y207274D01*
Y206828D01*
X496890Y206697D01*
X496673Y206371D01*
X496596Y205987D01*
Y182245D01*
X496432Y182080D01*
X496222Y181574D01*
Y181026D01*
X496432Y180519D01*
X496819Y180132D01*
X497326Y179922D01*
X497874D01*
X498381Y180132D01*
X498768Y180519D01*
X498978Y181026D01*
Y181574D01*
X498768Y182080D01*
X498603Y182245D01*
Y205571D01*
X498654Y205622D01*
X498674D01*
X499181Y205832D01*
X499568Y206220D01*
X499778Y206726D01*
Y207274D01*
X499568Y207781D01*
X499181Y208168D01*
X498674Y208378D01*
D02*
G37*
G36*
X536079Y183262D02*
X535099D01*
X534153Y183009D01*
X533305Y182519D01*
X532612Y181826D01*
X532122Y180978D01*
X531869Y180032D01*
Y179052D01*
X532122Y178106D01*
X532612Y177257D01*
X533305Y176565D01*
X534153Y176075D01*
X535099Y175821D01*
X536079D01*
X537025Y176075D01*
X537873Y176565D01*
X538566Y177257D01*
X539056Y178106D01*
X539309Y179052D01*
Y180032D01*
X539056Y180978D01*
X538566Y181826D01*
X537873Y182519D01*
X537025Y183009D01*
X536079Y183262D01*
D02*
G37*
G36*
X524898Y177810D02*
X523918D01*
X522972Y177556D01*
X522123Y177066D01*
X521431Y176373D01*
X520941Y175525D01*
X520687Y174579D01*
Y173599D01*
X520941Y172653D01*
X521431Y171805D01*
X522123Y171112D01*
X522972Y170622D01*
X523918Y170369D01*
X524898D01*
X525844Y170622D01*
X526692Y171112D01*
X527385Y171805D01*
X527875Y172653D01*
X528128Y173599D01*
Y174579D01*
X527875Y175525D01*
X527385Y176373D01*
X526692Y177066D01*
X525844Y177556D01*
X524898Y177810D01*
D02*
G37*
G36*
X433906Y170829D02*
X433357D01*
X432851Y170619D01*
X432463Y170231D01*
X432254Y169725D01*
Y169177D01*
X432463Y168670D01*
X432851Y168282D01*
X432897Y168264D01*
Y166700D01*
X432973Y166316D01*
X433190Y165990D01*
X435590Y163590D01*
X435916Y163373D01*
X436300Y163296D01*
X441155D01*
X441319Y163132D01*
X441826Y162922D01*
X442374D01*
X442881Y163132D01*
X443268Y163520D01*
X443478Y164026D01*
Y164574D01*
X443268Y165080D01*
X442881Y165468D01*
X442374Y165678D01*
X441826D01*
X441319Y165468D01*
X441155Y165304D01*
X436716D01*
X434903Y167116D01*
Y168921D01*
X435009Y169177D01*
Y169725D01*
X434800Y170231D01*
X434412Y170619D01*
X433906Y170829D01*
D02*
G37*
G36*
X485591Y158918D02*
Y155591D01*
X488918D01*
X488669Y156520D01*
X488150Y157417D01*
X487417Y158150D01*
X486520Y158669D01*
X485591Y158918D01*
D02*
G37*
G36*
X484409D02*
X483480Y158669D01*
X482583Y158150D01*
X481850Y157417D01*
X481331Y156520D01*
X481082Y155591D01*
X484409D01*
Y158918D01*
D02*
G37*
G36*
X365974Y187778D02*
X365426D01*
X364919Y187568D01*
X364532Y187180D01*
X364322Y186674D01*
Y186126D01*
X364532Y185619D01*
X364697Y185455D01*
Y155292D01*
X364773Y154908D01*
X364990Y154582D01*
X365022Y154551D01*
Y154326D01*
X365232Y153820D01*
X365619Y153432D01*
X366126Y153222D01*
X366674D01*
X367180Y153432D01*
X367568Y153820D01*
X367778Y154326D01*
Y154874D01*
X367568Y155380D01*
X367180Y155768D01*
X366704Y155966D01*
Y185455D01*
X366868Y185619D01*
X367078Y186126D01*
Y186674D01*
X366868Y187180D01*
X366480Y187568D01*
X365974Y187778D01*
D02*
G37*
G36*
X475441Y158346D02*
X474559D01*
X473708Y158118D01*
X472945Y157678D01*
X472322Y157055D01*
X471881Y156292D01*
X471654Y155441D01*
Y154559D01*
X471881Y153708D01*
X472322Y152945D01*
X472945Y152322D01*
X473708Y151882D01*
X474559Y151654D01*
X475441D01*
X476292Y151882D01*
X477055Y152322D01*
X477678Y152945D01*
X478118Y153708D01*
X478346Y154559D01*
Y155441D01*
X478118Y156292D01*
X477678Y157055D01*
X477055Y157678D01*
X476292Y158118D01*
X475441Y158346D01*
D02*
G37*
G36*
X465441D02*
X464559D01*
X463708Y158118D01*
X462945Y157678D01*
X462322Y157055D01*
X461881Y156292D01*
X461654Y155441D01*
Y154559D01*
X461881Y153708D01*
X462322Y152945D01*
X462945Y152322D01*
X463708Y151882D01*
X464559Y151654D01*
X465441D01*
X466292Y151882D01*
X467055Y152322D01*
X467678Y152945D01*
X468118Y153708D01*
X468346Y154559D01*
Y155441D01*
X468118Y156292D01*
X467678Y157055D01*
X467055Y157678D01*
X466292Y158118D01*
X465441Y158346D01*
D02*
G37*
G36*
X455441D02*
X454559D01*
X453708Y158118D01*
X452945Y157678D01*
X452322Y157055D01*
X451882Y156292D01*
X451653Y155441D01*
Y154559D01*
X451882Y153708D01*
X452322Y152945D01*
X452945Y152322D01*
X453708Y151882D01*
X454559Y151654D01*
X455441D01*
X456292Y151882D01*
X457055Y152322D01*
X457678Y152945D01*
X458118Y153708D01*
X458346Y154559D01*
Y155441D01*
X458118Y156292D01*
X457678Y157055D01*
X457055Y157678D01*
X456292Y158118D01*
X455441Y158346D01*
D02*
G37*
G36*
X445440D02*
X444559D01*
X443708Y158118D01*
X442945Y157678D01*
X442322Y157055D01*
X441882Y156292D01*
X441653Y155441D01*
Y154559D01*
X441882Y153708D01*
X442322Y152945D01*
X442945Y152322D01*
X443708Y151882D01*
X444559Y151654D01*
X445440D01*
X446292Y151882D01*
X447055Y152322D01*
X447678Y152945D01*
X448118Y153708D01*
X448346Y154559D01*
Y155441D01*
X448118Y156292D01*
X447678Y157055D01*
X447055Y157678D01*
X446292Y158118D01*
X445440Y158346D01*
D02*
G37*
G36*
X418346D02*
X411654D01*
Y151654D01*
X418346D01*
Y158346D01*
D02*
G37*
G36*
X488918Y154410D02*
X485591D01*
Y151082D01*
X486520Y151331D01*
X487417Y151850D01*
X488150Y152583D01*
X488669Y153480D01*
X488918Y154410D01*
D02*
G37*
G36*
X484409D02*
X481082D01*
X481331Y153480D01*
X481850Y152583D01*
X482583Y151850D01*
X483480Y151331D01*
X484409Y151082D01*
Y154410D01*
D02*
G37*
G36*
X415774Y223878D02*
X415226D01*
X414719Y223668D01*
X414332Y223281D01*
X414122Y222774D01*
Y222226D01*
X414332Y221720D01*
X414497Y221555D01*
Y193316D01*
X406290Y185110D01*
X406073Y184784D01*
X405997Y184400D01*
Y176700D01*
X406073Y176316D01*
X406290Y175990D01*
X423698Y158583D01*
X423548Y158026D01*
X422945Y157678D01*
X422322Y157055D01*
X421881Y156292D01*
X421654Y155441D01*
Y154559D01*
X421881Y153708D01*
X422322Y152945D01*
X422945Y152322D01*
X423708Y151882D01*
X424559Y151654D01*
X425441D01*
X426292Y151882D01*
X427055Y152322D01*
X427678Y152945D01*
X428026Y153548D01*
X428583Y153698D01*
X437890Y144390D01*
X438216Y144173D01*
X438600Y144097D01*
X500200D01*
X500584Y144173D01*
X500910Y144390D01*
X520110Y163590D01*
X520327Y163916D01*
X520403Y164300D01*
Y164484D01*
X522716Y166797D01*
X532700D01*
X533084Y166873D01*
X533410Y167090D01*
X536310Y169990D01*
X536527Y170316D01*
X536592Y170644D01*
X536868Y170920D01*
X537078Y171426D01*
Y171974D01*
X536868Y172480D01*
X536481Y172868D01*
X535974Y173078D01*
X535426D01*
X534919Y172868D01*
X534532Y172480D01*
X534322Y171974D01*
Y171426D01*
X534493Y171012D01*
X532284Y168804D01*
X522300D01*
X521916Y168727D01*
X521590Y168510D01*
X518690Y165610D01*
X518473Y165284D01*
X518397Y164900D01*
Y164716D01*
X499784Y146104D01*
X439016D01*
X433772Y151347D01*
X434031Y151795D01*
X434559Y151654D01*
X435440D01*
X436292Y151882D01*
X437055Y152322D01*
X437678Y152945D01*
X438118Y153708D01*
X438346Y154559D01*
Y155441D01*
X438118Y156292D01*
X437678Y157055D01*
X437055Y157678D01*
X436292Y158118D01*
X435440Y158346D01*
X434559D01*
X433708Y158118D01*
X432945Y157678D01*
X432322Y157055D01*
X431882Y156292D01*
X431653Y155441D01*
Y154559D01*
X431795Y154031D01*
X431347Y153772D01*
X428706Y156413D01*
X428803Y156706D01*
X428952Y156874D01*
X429185Y156828D01*
X430815D01*
X431199Y156904D01*
X431525Y157122D01*
X433310Y158906D01*
X433527Y159232D01*
X433603Y159616D01*
Y161455D01*
X433768Y161619D01*
X433978Y162126D01*
Y162674D01*
X433768Y163180D01*
X433381Y163568D01*
X432874Y163778D01*
X432326D01*
X431819Y163568D01*
X431432Y163180D01*
X431222Y162674D01*
Y162126D01*
X431432Y161619D01*
X431597Y161455D01*
Y160032D01*
X430400Y158835D01*
X429600D01*
X429035Y159400D01*
Y168446D01*
X431131Y170542D01*
X431348Y170867D01*
X431425Y171251D01*
Y179253D01*
X432710Y180538D01*
X432927Y180863D01*
X433004Y181247D01*
Y182455D01*
X433168Y182620D01*
X433378Y183126D01*
Y183674D01*
X433168Y184180D01*
X432781Y184568D01*
X432274Y184778D01*
X431726D01*
X431219Y184568D01*
X430832Y184180D01*
X430622Y183674D01*
Y183126D01*
X430832Y182620D01*
X430997Y182455D01*
Y181663D01*
X429712Y180378D01*
X429494Y180052D01*
X429418Y179668D01*
Y171667D01*
X427322Y169571D01*
X427104Y169246D01*
X427028Y168862D01*
Y158985D01*
X427074Y158752D01*
X426613Y158506D01*
X408004Y177116D01*
Y179295D01*
X408503Y179556D01*
X408826Y179422D01*
X409374D01*
X409881Y179632D01*
X410045Y179797D01*
X418526D01*
X418727Y179662D01*
X419111Y179586D01*
X419166D01*
X419319Y179432D01*
X419826Y179222D01*
X420374D01*
X420881Y179432D01*
X421268Y179820D01*
X421478Y180326D01*
Y180874D01*
X421268Y181380D01*
X420881Y181768D01*
X420374Y181978D01*
X419826D01*
X419319Y181768D01*
X419279Y181728D01*
X418900Y181804D01*
X410045D01*
X409881Y181968D01*
X409374Y182178D01*
X408826D01*
X408503Y182044D01*
X408004Y182306D01*
Y183984D01*
X416210Y192190D01*
X416427Y192516D01*
X416503Y192900D01*
Y221555D01*
X416668Y221720D01*
X416878Y222226D01*
Y222774D01*
X416668Y223281D01*
X416281Y223668D01*
X415774Y223878D01*
D02*
G37*
G36*
X530960Y156471D02*
X529037D01*
X527150Y156096D01*
X525374Y155360D01*
X523774Y154291D01*
X522414Y152931D01*
X521346Y151332D01*
X520610Y149555D01*
X520235Y147669D01*
Y145745D01*
X520610Y143859D01*
X521346Y142082D01*
X522414Y140483D01*
X523774Y139123D01*
X525374Y138055D01*
X527150Y137319D01*
X529037Y136943D01*
X530960D01*
X532846Y137319D01*
X534623Y138055D01*
X536222Y139123D01*
X537582Y140483D01*
X538651Y142082D01*
X539387Y143859D01*
X539762Y145745D01*
Y147669D01*
X539387Y149555D01*
X538651Y151332D01*
X537582Y152931D01*
X536222Y154291D01*
X534623Y155360D01*
X532846Y156096D01*
X530960Y156471D01*
D02*
G37*
G36*
X367491Y119555D02*
Y116533D01*
X370512D01*
X370293Y117348D01*
X369814Y118179D01*
X369136Y118857D01*
X368306Y119336D01*
X367491Y119555D01*
D02*
G37*
G36*
X366309D02*
X365494Y119336D01*
X364664Y118857D01*
X363986Y118179D01*
X363506Y117348D01*
X363288Y116533D01*
X366309D01*
Y119555D01*
D02*
G37*
G36*
X312835Y118669D02*
Y115953D01*
X315550D01*
X315362Y116655D01*
X314922Y117418D01*
X314299Y118041D01*
X313536Y118481D01*
X312835Y118669D01*
D02*
G37*
G36*
X311653D02*
X310952Y118481D01*
X310189Y118041D01*
X309566Y117418D01*
X309126Y116655D01*
X308938Y115953D01*
X311653D01*
Y118669D01*
D02*
G37*
G36*
X342607Y118119D02*
X341881D01*
X341180Y117931D01*
X340552Y117568D01*
X340039Y117055D01*
X339676Y116427D01*
X339488Y115726D01*
Y115000D01*
X339676Y114299D01*
X340039Y113671D01*
X340552Y113158D01*
X341180Y112795D01*
X341881Y112607D01*
X342607D01*
X343308Y112795D01*
X343936Y113158D01*
X344449Y113671D01*
X344812Y114299D01*
X345000Y115000D01*
Y115726D01*
X344812Y116427D01*
X344449Y117055D01*
X343936Y117568D01*
X343308Y117931D01*
X342607Y118119D01*
D02*
G37*
G36*
X332607D02*
X331881D01*
X331180Y117931D01*
X330552Y117568D01*
X330039Y117055D01*
X329676Y116427D01*
X329488Y115726D01*
Y115000D01*
X329491Y114988D01*
X328792Y114289D01*
X328385D01*
X328001Y114212D01*
X327676Y113995D01*
X326840Y113160D01*
X326840Y113160D01*
X319142Y105461D01*
X318924Y105135D01*
X318848Y104751D01*
Y69006D01*
X316702D01*
X316087Y68884D01*
X315566Y68535D01*
X315218Y68015D01*
X315096Y67400D01*
X315218Y66786D01*
X315566Y66265D01*
X316087Y65917D01*
X316702Y65794D01*
X318848D01*
Y64006D01*
X316702D01*
X316087Y63884D01*
X315566Y63535D01*
X315218Y63015D01*
X315096Y62400D01*
X315218Y61786D01*
X315566Y61265D01*
X316087Y60917D01*
X316702Y60794D01*
X318848D01*
Y59006D01*
X316702D01*
X316087Y58884D01*
X315566Y58535D01*
X315218Y58015D01*
X315096Y57400D01*
X315218Y56786D01*
X315566Y56265D01*
X316087Y55917D01*
X316702Y55794D01*
X318848D01*
Y54006D01*
X316702D01*
X316087Y53883D01*
X315566Y53535D01*
X315218Y53014D01*
X315096Y52400D01*
X315218Y51786D01*
X315566Y51265D01*
X316087Y50917D01*
X316702Y50794D01*
X318848D01*
Y49006D01*
X316702D01*
X316087Y48883D01*
X315566Y48535D01*
X315218Y48015D01*
X315096Y47400D01*
X315218Y46786D01*
X315566Y46265D01*
X316087Y45917D01*
X316702Y45794D01*
X318848D01*
Y44006D01*
X316702D01*
X316087Y43883D01*
X315566Y43535D01*
X315218Y43014D01*
X315096Y42400D01*
X315218Y41786D01*
X315566Y41265D01*
X316087Y40917D01*
X316702Y40794D01*
X318848D01*
Y39006D01*
X316702D01*
X316087Y38883D01*
X315566Y38535D01*
X315218Y38015D01*
X315096Y37400D01*
X315218Y36786D01*
X315566Y36265D01*
X316087Y35917D01*
X316702Y35794D01*
X318848D01*
Y34006D01*
X316702D01*
X316087Y33883D01*
X315566Y33535D01*
X315218Y33015D01*
X315096Y32400D01*
X315218Y31786D01*
X315566Y31265D01*
X316087Y30917D01*
X316702Y30794D01*
X321949D01*
Y29447D01*
X322026Y29063D01*
X322243Y28738D01*
X328090Y22890D01*
X328416Y22673D01*
X328800Y22596D01*
X348655D01*
X349020Y22232D01*
X349526Y22022D01*
X350074D01*
X350581Y22232D01*
X350968Y22619D01*
X351178Y23126D01*
Y23674D01*
X350968Y24181D01*
X350581Y24568D01*
X350074Y24778D01*
X349526D01*
X349105Y24603D01*
X329216D01*
X323956Y29863D01*
Y31144D01*
X324136Y31265D01*
X324484Y31786D01*
X324606Y32400D01*
X324484Y33015D01*
X324136Y33535D01*
X323615Y33883D01*
X323001Y34006D01*
X320855D01*
Y35794D01*
X323001D01*
X323615Y35917D01*
X324136Y36265D01*
X324484Y36786D01*
X324606Y37400D01*
X324484Y38015D01*
X324136Y38535D01*
X323615Y38883D01*
X323001Y39006D01*
X320855D01*
Y40794D01*
X323001D01*
X323615Y40917D01*
X324136Y41265D01*
X324484Y41786D01*
X324606Y42400D01*
X324484Y43014D01*
X324136Y43535D01*
X323615Y43883D01*
X323001Y44006D01*
X320855D01*
Y45794D01*
X323001D01*
X323615Y45917D01*
X324136Y46265D01*
X324484Y46786D01*
X324606Y47400D01*
X324484Y48015D01*
X324136Y48535D01*
X323615Y48883D01*
X323001Y49006D01*
X320855D01*
Y50794D01*
X323001D01*
X323615Y50917D01*
X324136Y51265D01*
X324484Y51786D01*
X324606Y52400D01*
X324484Y53014D01*
X324136Y53535D01*
X323615Y53883D01*
X323001Y54006D01*
X320855D01*
Y55794D01*
X323001D01*
X323615Y55917D01*
X324136Y56265D01*
X324484Y56786D01*
X324606Y57400D01*
X324484Y58015D01*
X324136Y58535D01*
X323615Y58884D01*
X323001Y59006D01*
X320855D01*
Y60794D01*
X323001D01*
X323615Y60917D01*
X324136Y61265D01*
X324484Y61786D01*
X324606Y62400D01*
X324484Y63015D01*
X324136Y63535D01*
X323615Y63884D01*
X323001Y64006D01*
X320855D01*
Y65794D01*
X323001D01*
X323615Y65917D01*
X324136Y66265D01*
X324484Y66786D01*
X324606Y67400D01*
X324484Y68015D01*
X324136Y68535D01*
X323615Y68884D01*
X323001Y69006D01*
X320855D01*
Y104335D01*
X327550Y111031D01*
X343033Y95548D01*
X343358Y95330D01*
X343742Y95254D01*
X363849D01*
Y93206D01*
X369951D01*
Y99309D01*
X363849D01*
Y97261D01*
X344158D01*
X329574Y111845D01*
X329580Y112012D01*
X329697Y112429D01*
X329917Y112575D01*
X330525Y113184D01*
X330552Y113158D01*
X331180Y112795D01*
X331881Y112607D01*
X332607D01*
X333308Y112795D01*
X333936Y113158D01*
X334449Y113671D01*
X334812Y114299D01*
X335000Y115000D01*
Y115726D01*
X334812Y116427D01*
X334449Y117055D01*
X333936Y117568D01*
X333308Y117931D01*
X332607Y118119D01*
D02*
G37*
G36*
X322607D02*
X321881D01*
X321180Y117931D01*
X320552Y117568D01*
X320039Y117055D01*
X319676Y116427D01*
X319488Y115726D01*
Y115000D01*
X319676Y114299D01*
X320039Y113671D01*
X320552Y113158D01*
X321180Y112795D01*
X321881Y112607D01*
X322607D01*
X323308Y112795D01*
X323936Y113158D01*
X324449Y113671D01*
X324812Y114299D01*
X325000Y115000D01*
Y115726D01*
X324812Y116427D01*
X324449Y117055D01*
X323936Y117568D01*
X323308Y117931D01*
X322607Y118119D01*
D02*
G37*
G36*
X370512Y115352D02*
X367491D01*
Y112331D01*
X368306Y112549D01*
X369136Y113029D01*
X369814Y113707D01*
X370293Y114537D01*
X370512Y115352D01*
D02*
G37*
G36*
X366309D02*
X363288D01*
X363506Y114537D01*
X363986Y113707D01*
X364664Y113029D01*
X365494Y112549D01*
X366309Y112331D01*
Y115352D01*
D02*
G37*
G36*
X315550Y114772D02*
X312835D01*
Y112057D01*
X313536Y112244D01*
X314299Y112685D01*
X314922Y113308D01*
X315362Y114071D01*
X315550Y114772D01*
D02*
G37*
G36*
X311653D02*
X308938D01*
X309126Y114071D01*
X309566Y113308D01*
X310189Y112685D01*
X310952Y112244D01*
X311653Y112057D01*
Y114772D01*
D02*
G37*
G36*
X530460Y124057D02*
X528537D01*
X526650Y123681D01*
X524873Y122945D01*
X523274Y121877D01*
X521914Y120517D01*
X520846Y118918D01*
X520110Y117141D01*
X519735Y115254D01*
Y113331D01*
X520110Y111445D01*
X520846Y109668D01*
X521914Y108069D01*
X523274Y106709D01*
X524873Y105640D01*
X526650Y104904D01*
X528537Y104529D01*
X530460D01*
X532346Y104904D01*
X534123Y105640D01*
X535722Y106709D01*
X537082Y108069D01*
X538151Y109668D01*
X538887Y111445D01*
X539262Y113331D01*
Y115254D01*
X538887Y117141D01*
X538151Y118918D01*
X537082Y120517D01*
X535722Y121877D01*
X534123Y122945D01*
X532346Y123681D01*
X530460Y124057D01*
D02*
G37*
G36*
X528219Y91222D02*
X524499D01*
Y87502D01*
X528219D01*
Y91222D01*
D02*
G37*
G36*
X523317D02*
X519597D01*
Y87502D01*
X523317D01*
Y91222D01*
D02*
G37*
G36*
X528219Y86321D02*
X524499D01*
Y82600D01*
X528219D01*
Y86321D01*
D02*
G37*
G36*
X523317D02*
X519597D01*
Y82600D01*
X523317D01*
Y86321D01*
D02*
G37*
G36*
X535579Y85179D02*
X534599D01*
X533653Y84925D01*
X532804Y84435D01*
X532112Y83743D01*
X531622Y82894D01*
X531368Y81948D01*
Y80968D01*
X531622Y80022D01*
X532112Y79174D01*
X532804Y78481D01*
X533653Y77991D01*
X534599Y77738D01*
X535579D01*
X536525Y77991D01*
X537373Y78481D01*
X538066Y79174D01*
X538556Y80022D01*
X538809Y80968D01*
Y81948D01*
X538556Y82894D01*
X538066Y83743D01*
X537373Y84435D01*
X536525Y84925D01*
X535579Y85179D01*
D02*
G37*
G36*
X524398Y79726D02*
X523418D01*
X522472Y79473D01*
X521624Y78983D01*
X520931Y78290D01*
X520441Y77442D01*
X520188Y76495D01*
Y75516D01*
X520441Y74570D01*
X520931Y73721D01*
X521624Y73028D01*
X522472Y72539D01*
X523418Y72285D01*
X524398D01*
X525344Y72539D01*
X526192Y73028D01*
X526885Y73721D01*
X527375Y74570D01*
X527628Y75516D01*
Y76495D01*
X527375Y77442D01*
X526885Y78290D01*
X526192Y78983D01*
X525344Y79473D01*
X524398Y79726D01*
D02*
G37*
G36*
X535579Y74273D02*
X534599D01*
X533653Y74020D01*
X532804Y73530D01*
X532112Y72837D01*
X531622Y71989D01*
X531368Y71043D01*
Y70063D01*
X531622Y69117D01*
X532112Y68268D01*
X532804Y67576D01*
X533653Y67086D01*
X534599Y66832D01*
X535579D01*
X536525Y67086D01*
X537373Y67576D01*
X538066Y68268D01*
X538556Y69117D01*
X538809Y70063D01*
Y71043D01*
X538556Y71989D01*
X538066Y72837D01*
X537373Y73530D01*
X536525Y74020D01*
X535579Y74273D01*
D02*
G37*
G36*
X439674Y88278D02*
X439126D01*
X438619Y88068D01*
X438232Y87681D01*
X438022Y87174D01*
Y86907D01*
X437873Y86684D01*
X437796Y86300D01*
Y76016D01*
X436690Y74910D01*
X436473Y74584D01*
X436397Y74200D01*
Y66976D01*
X435934Y66785D01*
X430310Y72410D01*
X429984Y72627D01*
X429600Y72703D01*
X335500D01*
X335116Y72627D01*
X334790Y72410D01*
X332724Y70343D01*
X332507Y70018D01*
X332430Y69634D01*
Y59565D01*
X332507Y59181D01*
X332724Y58856D01*
X333891Y57689D01*
Y57111D01*
X327290Y50511D01*
X327073Y50185D01*
X326996Y49801D01*
Y42154D01*
X326922Y41974D01*
Y41426D01*
X327132Y40920D01*
X327519Y40532D01*
X328026Y40322D01*
X328574D01*
X329081Y40532D01*
X329197Y40648D01*
X329696Y40441D01*
Y38195D01*
X329522Y37774D01*
Y37226D01*
X329732Y36720D01*
X330119Y36332D01*
X330626Y36122D01*
X331174D01*
X331680Y36332D01*
X332068Y36720D01*
X332278Y37226D01*
Y37774D01*
X332068Y38280D01*
X331703Y38645D01*
Y47085D01*
X335444Y50825D01*
X335599Y50794D01*
X341898D01*
X342513Y50917D01*
X342795Y51105D01*
X343295Y50838D01*
Y50216D01*
X342054Y48975D01*
X341898Y49006D01*
X335599D01*
X334985Y48883D01*
X334464Y48535D01*
X334116Y48015D01*
X333994Y47400D01*
X334116Y46786D01*
X334464Y46265D01*
X334985Y45917D01*
X335599Y45794D01*
X341898D01*
X342513Y45917D01*
X343034Y46265D01*
X343382Y46786D01*
X343504Y47400D01*
X343473Y47556D01*
X344922Y49004D01*
X345257Y48923D01*
X345422Y48811D01*
Y47343D01*
X342054Y43975D01*
X341898Y44006D01*
X335599D01*
X334985Y43883D01*
X334464Y43535D01*
X334116Y43014D01*
X333994Y42400D01*
X334116Y41786D01*
X334464Y41265D01*
X334985Y40917D01*
X335599Y40794D01*
X341898D01*
X342513Y40917D01*
X343034Y41265D01*
X343382Y41786D01*
X343504Y42400D01*
X343473Y42555D01*
X346534Y45617D01*
X346996Y45426D01*
Y38645D01*
X346832Y38480D01*
X346622Y37974D01*
Y37426D01*
X346832Y36920D01*
X347219Y36532D01*
X347726Y36322D01*
X348274D01*
X348780Y36532D01*
X349168Y36920D01*
X349296Y37229D01*
X349797Y37130D01*
Y36345D01*
X349632Y36180D01*
X349422Y35674D01*
Y35126D01*
X349632Y34620D01*
X350020Y34232D01*
X350526Y34022D01*
X351074D01*
X351581Y34232D01*
X351968Y34620D01*
X352178Y35126D01*
Y35674D01*
X351968Y36180D01*
X351803Y36345D01*
Y49443D01*
X352753Y50392D01*
X352970Y50718D01*
X353047Y51102D01*
Y65165D01*
X352970Y65549D01*
X352753Y65874D01*
X350518Y68110D01*
X350192Y68327D01*
X349808Y68404D01*
X343122D01*
X343034Y68535D01*
X342513Y68884D01*
X341898Y69006D01*
X335599D01*
X335321Y68950D01*
X334782Y69295D01*
X334773Y69312D01*
X334742Y69523D01*
X335916Y70697D01*
X429184D01*
X434696Y65184D01*
Y46445D01*
X434773Y46060D01*
X434990Y45735D01*
X436022Y44703D01*
Y44257D01*
X436232Y43751D01*
X436619Y43363D01*
X437126Y43154D01*
X437674D01*
X438181Y43363D01*
X438568Y43751D01*
X438778Y44257D01*
Y44806D01*
X438568Y45312D01*
X438404Y45477D01*
Y73784D01*
X439510Y74890D01*
X439727Y75216D01*
X439804Y75600D01*
Y85576D01*
X440181Y85732D01*
X440568Y86119D01*
X440778Y86626D01*
Y87174D01*
X440568Y87681D01*
X440181Y88068D01*
X439674Y88278D01*
D02*
G37*
G36*
X524398Y68821D02*
X523418D01*
X522472Y68567D01*
X521624Y68077D01*
X520931Y67384D01*
X520441Y66536D01*
X520188Y65590D01*
Y64610D01*
X520441Y63664D01*
X520931Y62816D01*
X521624Y62123D01*
X522472Y61633D01*
X523418Y61379D01*
X524398D01*
X525344Y61633D01*
X526192Y62123D01*
X526885Y62816D01*
X527375Y63664D01*
X527628Y64610D01*
Y65590D01*
X527375Y66536D01*
X526885Y67384D01*
X526192Y68077D01*
X525344Y68567D01*
X524398Y68821D01*
D02*
G37*
G36*
X535579Y63368D02*
X534599D01*
X533653Y63114D01*
X532804Y62624D01*
X532112Y61932D01*
X531622Y61083D01*
X531368Y60137D01*
Y59157D01*
X531622Y58211D01*
X532112Y57363D01*
X532804Y56670D01*
X533653Y56180D01*
X534599Y55927D01*
X535579D01*
X536525Y56180D01*
X537373Y56670D01*
X538066Y57363D01*
X538556Y58211D01*
X538809Y59157D01*
Y60137D01*
X538556Y61083D01*
X538066Y61932D01*
X537373Y62624D01*
X536525Y63114D01*
X535579Y63368D01*
D02*
G37*
G36*
X474874Y114478D02*
X474326D01*
X473819Y114268D01*
X473432Y113881D01*
X473222Y113374D01*
Y112826D01*
X473432Y112320D01*
X473596Y112155D01*
Y57313D01*
X473673Y56929D01*
X473890Y56603D01*
X474422Y56072D01*
Y55626D01*
X474632Y55119D01*
X475019Y54732D01*
X475526Y54522D01*
X476074D01*
X476581Y54732D01*
X476745Y54896D01*
X505500D01*
X505884Y54973D01*
X506210Y55190D01*
X513441Y62422D01*
X513874D01*
X514381Y62632D01*
X514768Y63019D01*
X514978Y63526D01*
Y64074D01*
X514768Y64581D01*
X514381Y64968D01*
X513874Y65178D01*
X513326D01*
X512819Y64968D01*
X512432Y64581D01*
X512222Y64074D01*
Y64041D01*
X505084Y56903D01*
X476745D01*
X476581Y57068D01*
X476074Y57278D01*
X476054D01*
X475603Y57729D01*
Y112155D01*
X475768Y112320D01*
X475978Y112826D01*
Y113374D01*
X475768Y113881D01*
X475381Y114268D01*
X474874Y114478D01*
D02*
G37*
G36*
X524398Y57915D02*
X523418D01*
X522472Y57661D01*
X521624Y57171D01*
X520931Y56479D01*
X520441Y55630D01*
X520188Y54684D01*
Y53705D01*
X520441Y52758D01*
X520931Y51910D01*
X521624Y51217D01*
X522472Y50727D01*
X523418Y50474D01*
X524398D01*
X525344Y50727D01*
X526192Y51217D01*
X526885Y51910D01*
X527375Y52758D01*
X527628Y53705D01*
Y54684D01*
X527375Y55630D01*
X526885Y56479D01*
X526192Y57171D01*
X525344Y57661D01*
X524398Y57915D01*
D02*
G37*
G36*
X535579Y52462D02*
X534599D01*
X533653Y52209D01*
X532804Y51719D01*
X532112Y51026D01*
X531622Y50178D01*
X531368Y49232D01*
Y48252D01*
X531622Y47306D01*
X532112Y46457D01*
X532804Y45765D01*
X533653Y45275D01*
X534599Y45021D01*
X535579D01*
X536525Y45275D01*
X537373Y45765D01*
X538066Y46457D01*
X538556Y47306D01*
X538809Y48252D01*
Y49232D01*
X538556Y50178D01*
X538066Y51026D01*
X537373Y51719D01*
X536525Y52209D01*
X535579Y52462D01*
D02*
G37*
G36*
X441074Y66678D02*
X440526D01*
X440019Y66468D01*
X439632Y66081D01*
X439422Y65574D01*
Y65026D01*
X439632Y64519D01*
X439796Y64355D01*
Y47300D01*
X439873Y46916D01*
X440090Y46590D01*
X441964Y44717D01*
X441822Y44374D01*
Y43826D01*
X442032Y43319D01*
X442419Y42932D01*
X442926Y42722D01*
X443474D01*
X443981Y42932D01*
X444368Y43319D01*
X444578Y43826D01*
Y44374D01*
X444368Y44881D01*
X444017Y45232D01*
X443976Y45435D01*
X443759Y45760D01*
X441804Y47716D01*
Y64355D01*
X441968Y64519D01*
X442178Y65026D01*
Y65574D01*
X441968Y66081D01*
X441581Y66468D01*
X441074Y66678D01*
D02*
G37*
G36*
X524398Y47010D02*
X523418D01*
X522472Y46756D01*
X521624Y46266D01*
X520931Y45573D01*
X520441Y44725D01*
X520188Y43779D01*
Y42799D01*
X520441Y41853D01*
X520931Y41005D01*
X521624Y40312D01*
X522472Y39822D01*
X523418Y39568D01*
X524398D01*
X525344Y39822D01*
X526192Y40312D01*
X526885Y41005D01*
X527375Y41853D01*
X527628Y42799D01*
Y43779D01*
X527375Y44725D01*
X526885Y45573D01*
X526192Y46266D01*
X525344Y46756D01*
X524398Y47010D01*
D02*
G37*
G36*
X417174Y67678D02*
X416626D01*
X416119Y67468D01*
X415955Y67304D01*
X410892D01*
X410508Y67227D01*
X410182Y67010D01*
X409490Y66318D01*
X409273Y65992D01*
X409197Y65608D01*
Y59745D01*
X409032Y59581D01*
X408822Y59074D01*
Y58526D01*
X409032Y58019D01*
X409419Y57632D01*
X409926Y57422D01*
X410474D01*
X410981Y57632D01*
X411368Y58019D01*
X411578Y58526D01*
Y59074D01*
X411368Y59581D01*
X411203Y59745D01*
Y65192D01*
X411308Y65297D01*
X415897D01*
Y41492D01*
X415973Y41108D01*
X416190Y40782D01*
X416882Y40090D01*
X417208Y39873D01*
X417592Y39797D01*
X462984D01*
X464922Y37859D01*
Y37526D01*
X465132Y37020D01*
X465519Y36632D01*
X466026Y36422D01*
X466574D01*
X467081Y36632D01*
X467468Y37020D01*
X467678Y37526D01*
Y38074D01*
X467468Y38581D01*
X467081Y38968D01*
X466574Y39178D01*
X466441D01*
X464110Y41510D01*
X463784Y41727D01*
X463400Y41804D01*
X418008D01*
X417904Y41908D01*
Y65355D01*
X418068Y65519D01*
X418278Y66026D01*
Y66574D01*
X418068Y67081D01*
X417681Y67468D01*
X417174Y67678D01*
D02*
G37*
G36*
X341898Y39006D02*
X335599D01*
X334985Y38883D01*
X334464Y38535D01*
X334116Y38015D01*
X333994Y37400D01*
X334116Y36786D01*
X334464Y36265D01*
X334985Y35917D01*
X335599Y35794D01*
X341898D01*
X342513Y35917D01*
X343034Y36265D01*
X343382Y36786D01*
X343504Y37400D01*
X343382Y38015D01*
X343034Y38535D01*
X342513Y38883D01*
X341898Y39006D01*
D02*
G37*
G36*
X512574Y54178D02*
X512026D01*
X511519Y53968D01*
X511132Y53581D01*
X510922Y53074D01*
Y52526D01*
X511132Y52019D01*
X511197Y51955D01*
Y37445D01*
X511032Y37280D01*
X510822Y36774D01*
Y36226D01*
X511032Y35719D01*
X511419Y35332D01*
X511926Y35122D01*
X512474D01*
X512981Y35332D01*
X513368Y35719D01*
X513578Y36226D01*
Y36774D01*
X513368Y37280D01*
X513203Y37445D01*
Y51755D01*
X513468Y52019D01*
X513678Y52526D01*
Y53074D01*
X513468Y53581D01*
X513081Y53968D01*
X512574Y54178D01*
D02*
G37*
G36*
X341898Y34006D02*
X335599D01*
X334985Y33883D01*
X334464Y33535D01*
X334116Y33015D01*
X333994Y32400D01*
X334116Y31786D01*
X334464Y31265D01*
X334985Y30917D01*
X335599Y30794D01*
X341898D01*
X342513Y30917D01*
X343034Y31265D01*
X343382Y31786D01*
X343504Y32400D01*
X343382Y33015D01*
X343034Y33535D01*
X342513Y33883D01*
X341898Y34006D01*
D02*
G37*
G36*
X370074Y33578D02*
X369526D01*
X369020Y33368D01*
X368632Y32980D01*
X368422Y32474D01*
Y31926D01*
X368632Y31420D01*
X369020Y31032D01*
X369526Y30822D01*
X370074D01*
X370581Y31032D01*
X370745Y31196D01*
X409255D01*
X409619Y30832D01*
X410126Y30622D01*
X410674D01*
X411181Y30832D01*
X411568Y31220D01*
X411778Y31726D01*
Y32274D01*
X411568Y32781D01*
X411181Y33168D01*
X410674Y33378D01*
X410126D01*
X409705Y33204D01*
X370745D01*
X370581Y33368D01*
X370074Y33578D01*
D02*
G37*
G36*
X486390Y26218D02*
Y22891D01*
X489718D01*
X489469Y23820D01*
X488950Y24717D01*
X488217Y25450D01*
X487320Y25969D01*
X486390Y26218D01*
D02*
G37*
G36*
X485210D02*
X484280Y25969D01*
X483383Y25450D01*
X482650Y24717D01*
X482131Y23820D01*
X481882Y22891D01*
X485210D01*
Y26218D01*
D02*
G37*
G36*
X476241Y25646D02*
X475359D01*
X474508Y25418D01*
X473745Y24978D01*
X473122Y24355D01*
X472682Y23592D01*
X472453Y22741D01*
Y21859D01*
X472682Y21008D01*
X473122Y20245D01*
X473745Y19622D01*
X474508Y19182D01*
X475359Y18954D01*
X476241D01*
X477092Y19182D01*
X477855Y19622D01*
X478478Y20245D01*
X478918Y21008D01*
X479146Y21859D01*
Y22741D01*
X478918Y23592D01*
X478478Y24355D01*
X477855Y24978D01*
X477092Y25418D01*
X476241Y25646D01*
D02*
G37*
G36*
X466241D02*
X465359D01*
X464508Y25418D01*
X463745Y24978D01*
X463122Y24355D01*
X462682Y23592D01*
X462454Y22741D01*
Y21859D01*
X462682Y21008D01*
X463122Y20245D01*
X463745Y19622D01*
X464508Y19182D01*
X465359Y18954D01*
X466241D01*
X467092Y19182D01*
X467855Y19622D01*
X468478Y20245D01*
X468918Y21008D01*
X469146Y21859D01*
Y22741D01*
X468918Y23592D01*
X468478Y24355D01*
X467855Y24978D01*
X467092Y25418D01*
X466241Y25646D01*
D02*
G37*
G36*
X369974Y38578D02*
X369426D01*
X368919Y38368D01*
X368532Y37980D01*
X368322Y37474D01*
Y36926D01*
X368532Y36419D01*
X368919Y36032D01*
X369426Y35822D01*
X369974D01*
X370480Y36032D01*
X370645Y36197D01*
X440484D01*
X452831Y23850D01*
X452682Y23592D01*
X452454Y22741D01*
Y21859D01*
X452682Y21008D01*
X453122Y20245D01*
X453745Y19622D01*
X454508Y19182D01*
X455359Y18954D01*
X456241D01*
X457092Y19182D01*
X457855Y19622D01*
X458478Y20245D01*
X458918Y21008D01*
X459146Y21859D01*
Y22741D01*
X458918Y23592D01*
X458478Y24355D01*
X457855Y24978D01*
X457092Y25418D01*
X456241Y25646D01*
X455359D01*
X454508Y25418D01*
X454250Y25269D01*
X441610Y37910D01*
X441284Y38127D01*
X440900Y38203D01*
X370645D01*
X370480Y38368D01*
X369974Y38578D01*
D02*
G37*
G36*
X446241Y25646D02*
X445359D01*
X444508Y25418D01*
X443745Y24978D01*
X443122Y24355D01*
X442682Y23592D01*
X442453Y22741D01*
Y21859D01*
X442682Y21008D01*
X443122Y20245D01*
X443745Y19622D01*
X444508Y19182D01*
X445359Y18954D01*
X446241D01*
X447092Y19182D01*
X447855Y19622D01*
X448478Y20245D01*
X448918Y21008D01*
X449147Y21859D01*
Y22741D01*
X448918Y23592D01*
X448478Y24355D01*
X447855Y24978D01*
X447092Y25418D01*
X446241Y25646D01*
D02*
G37*
G36*
X436241D02*
X435359D01*
X434508Y25418D01*
X433745Y24978D01*
X433122Y24355D01*
X432682Y23592D01*
X432453Y22741D01*
Y21859D01*
X432682Y21008D01*
X433122Y20245D01*
X433745Y19622D01*
X434508Y19182D01*
X435359Y18954D01*
X436241D01*
X437092Y19182D01*
X437855Y19622D01*
X438478Y20245D01*
X438918Y21008D01*
X439147Y21859D01*
Y22741D01*
X438918Y23592D01*
X438478Y24355D01*
X437855Y24978D01*
X437092Y25418D01*
X436241Y25646D01*
D02*
G37*
G36*
X426241D02*
X425359D01*
X424508Y25418D01*
X423745Y24978D01*
X423122Y24355D01*
X422682Y23592D01*
X422453Y22741D01*
Y21859D01*
X422682Y21008D01*
X423122Y20245D01*
X423745Y19622D01*
X424508Y19182D01*
X425359Y18954D01*
X426241D01*
X427092Y19182D01*
X427855Y19622D01*
X428478Y20245D01*
X428918Y21008D01*
X429146Y21859D01*
Y22741D01*
X428918Y23592D01*
X428478Y24355D01*
X427855Y24978D01*
X427092Y25418D01*
X426241Y25646D01*
D02*
G37*
G36*
X419146D02*
X412454D01*
Y18954D01*
X419146D01*
Y25646D01*
D02*
G37*
G36*
X489718Y21710D02*
X486390D01*
Y18382D01*
X487320Y18631D01*
X488217Y19150D01*
X488950Y19883D01*
X489469Y20780D01*
X489718Y21710D01*
D02*
G37*
G36*
X485210D02*
X481882D01*
X482131Y20780D01*
X482650Y19883D01*
X483383Y19150D01*
X484280Y18631D01*
X485210Y18382D01*
Y21710D01*
D02*
G37*
G36*
X530460Y25671D02*
X528537D01*
X526650Y25296D01*
X524873Y24560D01*
X523274Y23491D01*
X521914Y22131D01*
X520846Y20532D01*
X520110Y18755D01*
X519735Y16869D01*
Y14945D01*
X520110Y13059D01*
X520846Y11282D01*
X521914Y9683D01*
X523274Y8323D01*
X524873Y7254D01*
X526650Y6519D01*
X528537Y6143D01*
X530460D01*
X532346Y6519D01*
X534123Y7254D01*
X535722Y8323D01*
X537082Y9683D01*
X538151Y11282D01*
X538887Y13059D01*
X539262Y14945D01*
Y16869D01*
X538887Y18755D01*
X538151Y20532D01*
X537082Y22131D01*
X535722Y23491D01*
X534123Y24560D01*
X532346Y25296D01*
X530460Y25671D01*
D02*
G37*
G36*
X374874Y8378D02*
X374326D01*
X373819Y8168D01*
X373432Y7780D01*
X373222Y7274D01*
Y6726D01*
X373432Y6219D01*
X373819Y5832D01*
X374326Y5622D01*
X374874D01*
X374906Y5635D01*
X375100Y5596D01*
X440555D01*
X440719Y5432D01*
X441226Y5222D01*
X441774D01*
X442281Y5432D01*
X442668Y5819D01*
X442878Y6326D01*
Y6874D01*
X442668Y7380D01*
X442281Y7768D01*
X441774Y7978D01*
X441226D01*
X440719Y7768D01*
X440555Y7604D01*
X375841D01*
X375768Y7780D01*
X375380Y8168D01*
X374874Y8378D01*
D02*
G37*
%LPD*%
D23*
X-48976Y280280D02*
D03*
Y277130D02*
D03*
Y273980D02*
D03*
Y270831D02*
D03*
Y267681D02*
D03*
Y264531D02*
D03*
Y261382D02*
D03*
Y258232D02*
D03*
Y255083D02*
D03*
Y251933D02*
D03*
Y248783D02*
D03*
Y245634D02*
D03*
Y242484D02*
D03*
Y239335D02*
D03*
Y236185D02*
D03*
Y233035D02*
D03*
Y229886D02*
D03*
Y226736D02*
D03*
Y223587D02*
D03*
Y220437D02*
D03*
Y217287D02*
D03*
Y214138D02*
D03*
Y210988D02*
D03*
Y207839D02*
D03*
Y204689D02*
D03*
Y201539D02*
D03*
Y198390D02*
D03*
Y182642D02*
D03*
Y179492D02*
D03*
Y176343D02*
D03*
Y173193D02*
D03*
Y170043D02*
D03*
Y166894D02*
D03*
Y163744D02*
D03*
Y160594D02*
D03*
Y157445D02*
D03*
Y154295D02*
D03*
Y151146D02*
D03*
Y147996D02*
D03*
Y144846D02*
D03*
Y141697D02*
D03*
Y138547D02*
D03*
Y135398D02*
D03*
Y132248D02*
D03*
Y129098D02*
D03*
Y125949D02*
D03*
Y122799D02*
D03*
Y119650D02*
D03*
Y116500D02*
D03*
Y113350D02*
D03*
D45*
X327550Y112450D02*
X328385Y113285D01*
X329207D01*
X331285Y115363D01*
X332244D01*
X319851Y104751D02*
X327550Y112450D01*
X319851Y62400D02*
Y67400D01*
Y104751D01*
X343742Y96257D02*
X366900D01*
X327550Y112450D02*
X343742Y96257D01*
X371711Y12511D02*
Y13489D01*
X367731Y17469D02*
X371711Y13489D01*
X371100Y11600D02*
X371251Y11751D01*
Y12051D01*
X371711Y12511D01*
X367731Y17469D02*
Y46701D01*
X377900Y56870D01*
Y67400D01*
X328083Y380149D02*
X330856D01*
X323848Y375913D02*
X328083Y380149D01*
X323848Y333936D02*
Y375913D01*
X319612Y329700D02*
X323848Y333936D01*
X329469Y339379D02*
Y376802D01*
Y339379D02*
X331648Y337200D01*
X363500Y323800D02*
Y347504D01*
X330856Y380149D02*
X363500Y347504D01*
X311853Y325035D02*
X321530D01*
X322694Y323870D01*
Y322892D02*
Y323870D01*
X322002Y322200D02*
X322694Y322892D01*
X315900Y322200D02*
X322002D01*
X331648Y337200D02*
X334798D01*
X335827Y307200D02*
X336372D01*
X338267D01*
X513400Y63800D02*
X513600D01*
X505500Y55900D02*
X513400Y63800D01*
X512200Y36500D02*
Y52700D01*
X512300Y52800D01*
X435700Y46445D02*
X437400Y44745D01*
Y44532D02*
Y44745D01*
X435700Y46445D02*
Y65600D01*
X369800Y32200D02*
X410200D01*
X374700Y7000D02*
X375100Y6600D01*
X369700Y37200D02*
X440900D01*
X375100Y6600D02*
X441500D01*
X440900Y37200D02*
X455800Y22300D01*
X410200Y32200D02*
X410400Y32000D01*
X374600Y7000D02*
X374700D01*
X410892Y66300D02*
X416900D01*
X410200Y65608D02*
X410892Y66300D01*
X410200Y58800D02*
Y65608D01*
X443049Y44251D02*
Y45051D01*
Y44251D02*
X443200Y44100D01*
X440800Y47300D02*
Y65300D01*
Y47300D02*
X443049Y45051D01*
X416900Y41492D02*
Y66300D01*
X417592Y40800D02*
X463400D01*
X416900Y41492D02*
X417592Y40800D01*
X463400D02*
X466300Y37900D01*
Y37800D02*
Y37900D01*
X429600Y71700D02*
X435700Y65600D01*
X335500Y71700D02*
X429600D01*
X333434Y69634D02*
X335500Y71700D01*
X333434Y59565D02*
Y69634D01*
Y59565D02*
X335599Y57400D01*
X338749D01*
X349808Y67400D02*
X352043Y65165D01*
X338749Y67400D02*
X349808D01*
X338749Y62400D02*
X344851D01*
X349009Y64275D02*
X350468Y62815D01*
X346726Y64275D02*
X349009D01*
X344851Y62400D02*
X346726Y64275D01*
X352043Y51102D02*
Y65165D01*
X350468Y51754D02*
Y62815D01*
X350800Y49859D02*
X352043Y51102D01*
X346425Y46927D02*
Y53585D01*
X344298Y54975D02*
X346623Y57300D01*
X344298Y49800D02*
Y54975D01*
X346425Y53585D02*
X348591Y55751D01*
Y61909D01*
X348000Y49286D02*
X350468Y51754D01*
X348500Y62000D02*
X348591Y61909D01*
X328000Y42000D02*
X328300Y41700D01*
X328000Y42000D02*
Y49801D01*
X330700Y37800D02*
Y47501D01*
X335599Y52400D01*
X330700Y37800D02*
X330900Y37600D01*
Y37500D02*
Y37600D01*
X335599Y52400D02*
X338749D01*
X328000Y49801D02*
X335599Y57400D01*
X350800Y35400D02*
Y49859D01*
X341898Y47400D02*
X344298Y49800D01*
X338749Y42400D02*
X341898D01*
X346425Y46927D01*
X348000Y37700D02*
Y49286D01*
X338749Y47400D02*
X341898D01*
X334798Y307200D02*
X335129D01*
X349311Y296911D02*
Y297889D01*
X345000Y302200D02*
X349311Y297889D01*
X333341Y297445D02*
X346462D01*
X345400Y293000D02*
X349311Y296911D01*
X334798Y302200D02*
X345000D01*
X335400Y293000D02*
X345400D01*
X347295Y289595D02*
X364300Y306600D01*
X322293Y289595D02*
X347295D01*
X310585Y301303D02*
X322293Y289595D01*
X334798Y302200D02*
Y307200D01*
X328586Y302200D02*
X333341Y297445D01*
X321900Y308692D02*
Y314350D01*
Y308692D02*
X322592Y308000D01*
X325900Y308600D02*
X326500D01*
X325300Y308000D02*
X325900Y308600D01*
X322592Y308000D02*
X325300D01*
X345592Y180900D02*
X345700D01*
X344900Y181592D02*
X345592Y180900D01*
X345049Y184335D02*
Y194736D01*
X341750Y179595D02*
X343989Y177357D01*
X344219Y173813D02*
X348079D01*
X349243Y179432D02*
Y182368D01*
X343989Y177357D02*
X347168D01*
X349243Y179432D01*
X346315Y197169D02*
X352393Y191091D01*
Y178128D02*
Y191091D01*
X350818Y178780D02*
Y186482D01*
X348079Y173813D02*
X352393Y178128D01*
X343325Y180248D02*
X344641Y178931D01*
X341195Y174335D02*
X342643Y175782D01*
X347669Y180085D02*
Y181715D01*
X344641Y178931D02*
X346515D01*
X346623Y184987D02*
Y189523D01*
X346515Y178931D02*
X347669Y180085D01*
X346623Y184987D02*
X349243Y182368D01*
X345049Y184335D02*
X347669Y181715D01*
X344900Y181592D02*
Y182188D01*
X348592Y188708D02*
X350818Y186482D01*
X342643Y175782D02*
X347820D01*
X350818Y178780D01*
X337149Y191500D02*
X340299D01*
X339979Y181500D02*
X341750Y179728D01*
X331834Y182397D02*
X333102Y183665D01*
X345049Y194736D02*
X345300Y194987D01*
Y195200D01*
X340299Y191500D02*
X343474Y188325D01*
X337149Y181500D02*
X339979D01*
X343325Y180248D02*
Y181535D01*
X331834Y178665D02*
X333999Y176500D01*
X333102Y183665D02*
X341195D01*
X346623Y189523D02*
X348900Y191800D01*
X331834Y178665D02*
Y182397D01*
X341750Y179595D02*
Y179728D01*
X343474Y183614D02*
X344900Y182188D01*
X343474Y183614D02*
Y188325D01*
X341195Y183665D02*
X343325Y181535D01*
X328315Y191168D02*
X329681Y189803D01*
Y187865D02*
Y189803D01*
Y187865D02*
X331047Y186500D01*
X337149D01*
X327500Y179937D02*
Y189200D01*
X326685Y191168D02*
X328315D01*
X327500Y179937D02*
X333102Y174335D01*
X325532Y179368D02*
Y190015D01*
X318251Y166500D02*
Y171500D01*
Y176500D01*
Y181500D01*
Y186500D01*
Y191500D01*
Y196500D01*
Y201500D01*
X333999Y176500D02*
X337149D01*
X343920Y197169D02*
X346315D01*
X325532Y190015D02*
X326685Y191168D01*
X325532Y179368D02*
X329800Y175100D01*
X323957Y194410D02*
X331047Y201500D01*
X323957Y173480D02*
X336137Y161300D01*
X323957Y173480D02*
Y194410D01*
X343251Y196500D02*
X343920Y197169D01*
X337149Y196500D02*
X343251D01*
X333102Y174335D02*
X341195D01*
X336137Y161300D02*
X340300D01*
X331047Y201500D02*
X337149D01*
X345700Y331187D02*
X346100Y331587D01*
X345700Y331100D02*
Y331187D01*
X346100Y331587D02*
Y331800D01*
X315900Y327200D02*
X324232D01*
X326398Y329365D01*
X343965D01*
X345700Y331100D01*
X312188Y329700D02*
X319612D01*
X310585Y326303D02*
Y328097D01*
Y326303D02*
X311853Y325035D01*
X310585Y328097D02*
X312188Y329700D01*
X310585Y301303D02*
Y305035D01*
X312750Y307200D01*
X315900D01*
Y302200D02*
X328586D01*
X349600Y23600D02*
X349800Y23400D01*
X328800Y23600D02*
X349600D01*
X319851Y32400D02*
Y37400D01*
Y42400D01*
Y47400D01*
Y52400D01*
Y57400D01*
Y62400D01*
X322953Y29447D02*
X328800Y23600D01*
X319851Y32400D02*
X322407D01*
X322953Y31854D01*
Y29447D02*
Y31854D01*
X474600Y57313D02*
Y113100D01*
Y57313D02*
X475800Y56113D01*
Y55900D02*
Y56113D01*
Y55900D02*
X505500D01*
X438800Y75600D02*
Y86300D01*
X439400Y86900D01*
X437400Y74200D02*
X438800Y75600D01*
X437400Y45100D02*
Y74200D01*
X542005Y195305D02*
X542500Y195800D01*
X542600D01*
X531100Y195305D02*
X542005D01*
X519211Y200211D02*
X526194D01*
X516400Y197400D02*
X519211Y200211D01*
X526194D02*
X531100Y195305D01*
X498400Y206787D02*
Y207000D01*
X497600Y205987D02*
X498400Y206787D01*
X497600Y181300D02*
Y205987D01*
X407000Y176700D02*
X438600Y145100D01*
X535600Y171600D02*
X535700Y171700D01*
X535600Y170700D02*
Y171600D01*
X532700Y167800D02*
X535600Y170700D01*
X519400Y164900D02*
X522300Y167800D01*
X532700D01*
X519400Y164300D02*
Y164900D01*
X500200Y145100D02*
X519400Y164300D01*
X438600Y145100D02*
X500200D01*
X432000Y181247D02*
Y183400D01*
X430421Y171251D02*
Y179668D01*
X432000Y181247D01*
X428031Y168862D02*
X430421Y171251D01*
X428031Y158985D02*
X429185Y157832D01*
X428031Y158985D02*
Y168862D01*
X433900Y166700D02*
Y168969D01*
X433632Y169238D02*
X433900Y168969D01*
X433632Y169238D02*
Y169451D01*
X433900Y166700D02*
X436300Y164300D01*
X429185Y157832D02*
X430815D01*
X432600Y159616D01*
Y162400D01*
X436300Y164300D02*
X442100D01*
X407000Y176700D02*
Y184400D01*
X415500Y192900D02*
Y222500D01*
X407000Y184400D02*
X415500Y192900D01*
X402800Y177000D02*
Y226800D01*
Y177000D02*
X414300Y165500D01*
Y162300D02*
Y165500D01*
X402800Y226800D02*
X408700Y232700D01*
X435200Y214900D02*
X435800Y214300D01*
X435200Y214900D02*
Y229900D01*
X408700Y232700D02*
X432400D01*
X435200Y229900D01*
X365700Y155292D02*
Y186400D01*
X366392Y154600D02*
X366400D01*
X365700Y155292D02*
X366392Y154600D01*
X418900Y180800D02*
X419111Y180589D01*
X420089D02*
X420100Y180600D01*
X419111Y180589D02*
X420089D01*
X409100Y180800D02*
X418900D01*
X421063Y338671D02*
X430948Y348556D01*
Y348738D01*
X431600Y346981D02*
X435713Y343246D01*
X431591Y346972D02*
X431600Y346981D01*
X432008Y348738D02*
X436355Y344802D01*
X430948Y348738D02*
X432008D01*
X425000Y290000D02*
X436100Y301100D01*
X435713Y343246D02*
X435734Y343228D01*
X436355Y344802D02*
X436719Y344470D01*
X437675Y343514D02*
X438400Y339000D01*
X436100Y301100D02*
Y342861D01*
X435734Y343228D02*
X436100Y342861D01*
X436719Y344470D02*
X437675Y343514D01*
X438400Y293400D02*
Y339000D01*
X435000Y290000D02*
X438400Y293400D01*
X2000Y119600D02*
X5100Y116500D01*
Y116300D02*
Y116500D01*
X-8998Y135398D02*
X8600Y117800D01*
Y104947D02*
Y117800D01*
Y104947D02*
X10075Y103472D01*
X13744Y113379D02*
Y119077D01*
X15800Y118906D02*
Y122667D01*
X10594Y105180D02*
Y119035D01*
X15319Y115375D02*
Y118425D01*
X17475Y113219D02*
X20525D01*
X12169Y105832D02*
X15319Y102682D01*
X12169Y105832D02*
Y120660D01*
X-8918Y138547D02*
X10594Y119035D01*
X14115Y119448D02*
Y121731D01*
X15319Y115375D02*
X17475Y113219D01*
X-12017Y144846D02*
X12169Y120660D01*
X13744Y119077D02*
X14115Y119448D01*
X15319Y118425D02*
X15800Y118906D01*
X-12150Y147996D02*
X14115Y121731D01*
X13744Y113379D02*
X16337Y110786D01*
X13016Y125451D02*
X15800Y122667D01*
X10594Y105180D02*
X12235Y103540D01*
X-48976Y135398D02*
X-8998D01*
X15319Y105375D02*
Y108425D01*
X16337Y109443D01*
X15319Y105375D02*
X19050Y101644D01*
X16337Y109443D02*
Y110786D01*
X-24100Y119600D02*
X2000D01*
X-24306Y116431D02*
X-252D01*
X-24379Y116358D02*
X-24306Y116431D01*
X-41298Y129098D02*
X-22000Y109800D01*
X-48976Y129098D02*
X-41298D01*
X-22000Y109800D02*
X600D01*
X-40635Y122799D02*
X-23961Y106125D01*
X-41558Y125949D02*
X-23309Y107700D01*
X473D01*
X-40189Y119650D02*
X-25090Y104550D01*
X-48976Y119650D02*
X-40189D01*
X-25090Y104550D02*
X-832D01*
X-48976Y122799D02*
X-40635D01*
X-48976Y125949D02*
X-41558D01*
X-23961Y106125D02*
X-179D01*
X-48976Y144846D02*
X-12017D01*
X-48976Y138547D02*
X-8918D01*
X-48976Y147996D02*
X-12150D01*
X13016Y125451D02*
Y131884D01*
X14591Y126104D02*
Y132536D01*
X-13467Y160594D02*
X14591Y132536D01*
Y126104D02*
X19000Y121694D01*
Y116900D02*
Y121694D01*
X312750Y312200D02*
X315900D01*
X312750D02*
X312750D01*
X319050Y317200D02*
X321900Y314350D01*
X319947Y319365D02*
X325590Y313722D01*
X310585Y318097D02*
X311853Y319365D01*
X325590Y311810D02*
X325900Y311500D01*
X310585Y314365D02*
X312750Y312200D01*
X325590Y311810D02*
Y313722D01*
X310585Y314365D02*
Y318097D01*
X311853Y319365D02*
X319947D01*
X315900Y317200D02*
X319050D01*
X335675Y311654D02*
X336372D01*
Y307746D02*
Y311654D01*
X335827Y307200D02*
X336372Y307746D01*
X334798Y332200D02*
Y337200D01*
Y317200D02*
Y322200D01*
X421063Y288766D02*
Y338671D01*
X410797Y278500D02*
X421063Y288766D01*
X320600Y278500D02*
X410797D01*
X309000Y290100D02*
X320600Y278500D01*
X309000Y290100D02*
Y308450D01*
X312750Y312200D01*
X334798Y322200D02*
X351316D01*
X355664Y326548D01*
Y327852D01*
X354742Y328775D02*
X355664Y327852D01*
X352891Y328775D02*
X354742D01*
X334798Y317200D02*
X335827D01*
X336372Y316654D01*
Y312746D02*
Y316654D01*
X335827Y312200D02*
X336372Y312746D01*
X334798Y332200D02*
X338267D01*
X339842Y333775D01*
X354742D01*
X355664Y332852D01*
Y331548D02*
Y332852D01*
X352891Y328775D02*
X355664Y331548D01*
X334798Y327200D02*
X351316D01*
X352891Y328775D01*
X415000Y290000D02*
Y351600D01*
X-48976Y113350D02*
X-38153D01*
X-27702Y102900D01*
X-1408D01*
X19153Y81541D02*
X24359D01*
X29000Y76900D01*
X17475Y93219D02*
X30525D01*
X12235Y96232D02*
X16939Y91529D01*
X15319Y95375D02*
Y102682D01*
X10075Y90619D02*
Y103472D01*
Y90619D02*
X19153Y81541D01*
X15319Y95375D02*
X17475Y93219D01*
X12235Y96232D02*
Y103540D01*
X30525Y93219D02*
X34359Y97054D01*
X16939Y91529D02*
X19577D01*
X19050Y101644D02*
X31177D01*
X600Y109800D02*
X8500Y101900D01*
X473Y107700D02*
X6925Y101248D01*
X-832Y104550D02*
X3725Y99993D01*
X-179Y106125D02*
X5300Y100646D01*
X-1408Y102900D02*
X2150Y99341D01*
Y53033D02*
Y99341D01*
X3725Y56640D02*
Y99993D01*
X6925Y59567D02*
Y101248D01*
X5300Y58000D02*
Y100646D01*
Y58000D02*
X9300Y54000D01*
X3725Y56640D02*
X9148Y51216D01*
X2150Y53033D02*
X5733Y49450D01*
X8500Y60600D02*
Y101900D01*
X6925Y59567D02*
X8167Y58325D01*
X8500Y60600D02*
X9200Y59900D01*
X13900D01*
X8167Y58325D02*
X15219D01*
X18316Y61422D01*
X23862D02*
X24265Y61825D01*
X13900Y59900D02*
X16997Y62997D01*
X20303D01*
X20706Y63400D01*
X25500D01*
X29000Y66900D01*
X18316Y61422D02*
X23862D01*
X26152Y61825D02*
X27427Y63100D01*
X27145Y60250D02*
X28097Y61203D01*
X24917Y60250D02*
X27145D01*
X27427Y63100D02*
X30406D01*
X28097Y61203D02*
X30736D01*
X31689Y62156D01*
X23460Y58793D02*
X24917Y60250D01*
X24265Y61825D02*
X26152D01*
X30406Y63100D02*
X34600Y67294D01*
X31689Y62156D02*
X34256D01*
X34600Y67294D02*
Y67706D01*
X38794Y71900D01*
X39206D01*
X42681Y75375D02*
Y78727D01*
X39000Y82408D02*
Y86900D01*
X34256Y62156D02*
X39000Y66900D01*
Y82408D02*
X42681Y78727D01*
X39206Y71900D02*
X42681Y75375D01*
X32681Y60581D02*
X40525D01*
X29000Y56900D02*
X32681Y60581D01*
X23460Y56154D02*
Y58793D01*
X5733Y49450D02*
X36756D01*
X40525Y60581D02*
X42681Y58425D01*
Y55375D02*
Y58425D01*
X36756Y49450D02*
X42681Y55375D01*
X9148Y51216D02*
X33316D01*
X39000Y56900D01*
X9801Y52791D02*
X20097D01*
X23460Y56154D01*
X9300Y53292D02*
Y54000D01*
Y53292D02*
X9801Y52791D01*
X19577Y91529D02*
X24206Y86900D01*
X37510Y110616D02*
X40149D01*
X35249Y105716D02*
Y108355D01*
X31177Y101644D02*
X35249Y105716D01*
Y108355D02*
X37510Y110616D01*
X20946Y130581D02*
X30525D01*
X-48976Y166894D02*
X-44547D01*
X15319Y135375D02*
X17475Y133219D01*
X-44547Y166894D02*
X-43465Y165811D01*
X-9711D01*
X18308Y133219D02*
X20946Y130581D01*
X15319Y135375D02*
Y140781D01*
X17475Y133219D02*
X18308D01*
X-9711Y165811D02*
X15319Y140781D01*
X19000Y146900D02*
Y153400D01*
Y136900D02*
Y142527D01*
X-48976Y154295D02*
X-9395D01*
X13016Y131884D01*
X20525Y113219D02*
X24000Y116694D01*
Y117106D01*
X27494Y120600D01*
X41200D01*
X42681Y119119D01*
Y115375D02*
Y119119D01*
X39497Y112191D02*
X42681Y115375D01*
X36858Y112191D02*
X39497D01*
X33674Y109007D02*
X36858Y112191D01*
X33674Y106368D02*
Y109007D01*
X30525Y103219D02*
X33674Y106368D01*
X22681Y103219D02*
X30525D01*
X19000Y106900D02*
X22681Y103219D01*
X24206Y86900D02*
X29000D01*
X40149Y110616D02*
X44256Y114723D01*
Y121644D01*
X39000Y126900D02*
X44256Y121644D01*
X34359Y97054D02*
Y102259D01*
X39000Y106900D01*
X30525Y130581D02*
X33000Y128106D01*
Y125694D02*
Y128106D01*
X30525Y123219D02*
X33000Y125694D01*
X22681Y123219D02*
X30525D01*
X19000Y126900D02*
X22681Y123219D01*
X18308Y143219D02*
X19000Y142527D01*
X15895Y143219D02*
X18308D01*
X15319Y143795D02*
X15895Y143219D01*
X15319Y143795D02*
Y150381D01*
X-6410Y172110D02*
X15319Y150381D01*
X-43465Y172110D02*
X-6410D01*
X-44547Y173193D02*
X-43465Y172110D01*
X-48976Y173193D02*
X-44547D01*
X-6010Y178410D02*
X19000Y153400D01*
X-43465Y178410D02*
X-6010D01*
X-44547Y179492D02*
X-43465Y178410D01*
X-48976Y179492D02*
X-44547D01*
X-48976Y160594D02*
X-13467D01*
X19600Y306200D02*
X29600D01*
X-48976Y255083D02*
X-36364D01*
X-23010Y241728D01*
X3618D01*
X10890Y249000D01*
X18800D01*
X-48976Y248783D02*
X-48484Y248291D01*
X-42191D01*
X-31100Y237200D01*
X7600D01*
X9400Y239000D01*
X18800D01*
X-48976Y242484D02*
X-48484Y241992D01*
X-42292D01*
X-33300Y233000D01*
X14800D01*
X18800Y229000D01*
X-48976Y236185D02*
X-41285D01*
X-34300Y229200D01*
X8600D01*
X18800Y219000D01*
X-48976Y229886D02*
X-39986D01*
X-35800Y225700D01*
X2100D01*
X18800Y209000D01*
X-48976Y223587D02*
X-5787D01*
X18800Y199000D01*
X-13188Y210988D02*
X18800Y179000D01*
X-48976Y210988D02*
X-13188D01*
X455000Y290000D02*
X462086Y282913D01*
X511908D01*
X512600Y283605D01*
Y293795D01*
X522545Y303740D01*
X523833D01*
X528642Y308549D01*
Y312120D01*
X526116Y314646D02*
X528642Y312120D01*
X522545Y314646D02*
X526116D01*
X514270Y306371D02*
X522545Y314646D01*
X513292Y306371D02*
X514270D01*
X512600Y307063D02*
X513292Y306371D01*
X512600Y307063D02*
Y309509D01*
X524331Y321240D01*
X-16889Y204689D02*
X18800Y169000D01*
X-48976Y204689D02*
X-16889D01*
X-9488Y217287D02*
X18800Y189000D01*
X-48976Y217287D02*
X-9488D01*
X24600Y164800D02*
X28800Y169000D01*
X15000Y164800D02*
X24600D01*
X-18590Y198390D02*
X15000Y164800D01*
X-48976Y198390D02*
X-18590D01*
X370800Y353457D02*
X407657D01*
X419600Y365400D01*
X454000D01*
X476349Y343051D01*
X524331D01*
X503749Y322470D02*
X524331Y343051D01*
X503749Y308749D02*
Y322470D01*
X485000Y290000D02*
X503749Y308749D01*
X475000Y290000D02*
X475292Y289708D01*
X479724D01*
X483369Y286063D01*
X486631D01*
X505324Y304756D01*
Y313139D01*
X524331Y332146D01*
X19600Y286200D02*
X29600D01*
X465000Y290000D02*
X470512Y284488D01*
X498484D01*
X524331Y310335D01*
X465000Y290000D02*
Y296474D01*
X448200Y313274D02*
X465000Y296474D01*
X435000Y290000D02*
X445236Y279764D01*
X518717D01*
X545000Y306046D01*
Y323301D01*
X537297Y331004D02*
X545000Y323301D01*
X533726Y331004D02*
X537297D01*
X531201Y328479D02*
X533726Y331004D01*
X531201Y320098D02*
Y328479D01*
Y320098D02*
X535512Y315787D01*
X445000Y330799D02*
X448400Y334199D01*
X445000Y290000D02*
Y330799D01*
Y290000D02*
X445292Y289708D01*
X449724D01*
X458094Y281339D01*
X518065D01*
X543100Y306373D01*
Y319105D01*
X535512Y326693D02*
X543100Y319105D01*
X438710Y358300D02*
X449700Y347310D01*
X421700Y358300D02*
X438710D01*
X415000Y351600D02*
X421700Y358300D01*
X425000Y290000D02*
X425292Y289708D01*
X429724D01*
X441243Y278189D01*
X519370D01*
X546600Y305419D01*
Y323928D01*
X537950Y332579D02*
X546600Y323928D01*
X533074Y332579D02*
X537950D01*
X529626Y329131D02*
X533074Y332579D01*
X529626Y318172D02*
Y329131D01*
Y318172D02*
X531201Y316597D01*
Y309193D02*
Y316597D01*
Y309193D02*
X535512Y304882D01*
D48*
X339470Y376802D02*
D03*
X329469D02*
D03*
X319469D02*
D03*
X309470D02*
D03*
X289470D02*
D03*
X342244Y115363D02*
D03*
X332244D02*
D03*
X322244D02*
D03*
X312244D02*
D03*
X292244D02*
D03*
X342500Y239700D02*
D03*
X332500D02*
D03*
X322500D02*
D03*
X312500D02*
D03*
X292500D02*
D03*
D49*
X279469Y376802D02*
D03*
X282244Y115363D02*
D03*
X282500Y239700D02*
D03*
D50*
X19000Y146900D02*
D03*
X18800Y259000D02*
D03*
X29600Y286200D02*
D03*
D51*
X29000Y146900D02*
D03*
X39000D02*
D03*
X19000Y136900D02*
D03*
X29000D02*
D03*
X39000D02*
D03*
X19000Y126900D02*
D03*
X29000D02*
D03*
X39000D02*
D03*
X19000Y116900D02*
D03*
X29000D02*
D03*
X39000D02*
D03*
X19000Y106900D02*
D03*
X29000D02*
D03*
X39000D02*
D03*
X19000Y96900D02*
D03*
X29000D02*
D03*
X39000D02*
D03*
X19000Y86900D02*
D03*
X29000D02*
D03*
X39000D02*
D03*
X19000Y76900D02*
D03*
X29000D02*
D03*
X39000D02*
D03*
X19000Y66900D02*
D03*
X29000D02*
D03*
X39000D02*
D03*
X19000Y56900D02*
D03*
X29000D02*
D03*
X39000D02*
D03*
X38800Y169000D02*
D03*
X28800D02*
D03*
X18800D02*
D03*
X38800Y179000D02*
D03*
X28800D02*
D03*
X18800D02*
D03*
X38800Y189000D02*
D03*
X28800D02*
D03*
X18800D02*
D03*
X38800Y199000D02*
D03*
X28800D02*
D03*
X18800D02*
D03*
X38800Y209000D02*
D03*
X28800D02*
D03*
X18800D02*
D03*
X38800Y219000D02*
D03*
X28800D02*
D03*
X18800D02*
D03*
X38800Y229000D02*
D03*
X28800D02*
D03*
X18800D02*
D03*
X38800Y239000D02*
D03*
X28800D02*
D03*
X18800D02*
D03*
X38800Y249000D02*
D03*
X28800D02*
D03*
X18800D02*
D03*
X38800Y259000D02*
D03*
X28800D02*
D03*
X19600Y286200D02*
D03*
X29600Y296200D02*
D03*
X19600D02*
D03*
X29600Y306200D02*
D03*
X19600D02*
D03*
X29600Y316200D02*
D03*
X19600D02*
D03*
X29600Y326200D02*
D03*
X19600D02*
D03*
X29600Y336200D02*
D03*
X19600D02*
D03*
D52*
X529998Y146707D02*
D03*
Y245093D02*
D03*
X529921Y272047D02*
D03*
Y370433D02*
D03*
X529498Y114293D02*
D03*
Y15907D02*
D03*
D53*
X524408Y217711D02*
D03*
X524331Y343051D02*
D03*
X523908Y86911D02*
D03*
D54*
X535589Y212258D02*
D03*
X524408Y206806D02*
D03*
X535589Y201353D02*
D03*
X524408Y195900D02*
D03*
X535589Y190447D02*
D03*
X524408Y184994D02*
D03*
X535589Y179542D02*
D03*
X524408Y174089D02*
D03*
X535512Y337598D02*
D03*
X524331Y332146D02*
D03*
X535512Y326693D02*
D03*
X524331Y321240D02*
D03*
X535512Y315787D02*
D03*
X524331Y310335D02*
D03*
X535512Y304882D02*
D03*
X524331Y299429D02*
D03*
X523908Y43289D02*
D03*
X535089Y48742D02*
D03*
X523908Y54194D02*
D03*
X535089Y59647D02*
D03*
X523908Y65100D02*
D03*
X535089Y70553D02*
D03*
X523908Y76006D02*
D03*
X535089Y81458D02*
D03*
D55*
X485000Y290000D02*
D03*
X475000D02*
D03*
X465000D02*
D03*
X455000D02*
D03*
X445000D02*
D03*
X435000D02*
D03*
X425000D02*
D03*
X425800Y22300D02*
D03*
X435800D02*
D03*
X445800D02*
D03*
X455800D02*
D03*
X465800D02*
D03*
X475800D02*
D03*
X485800D02*
D03*
X425000Y155000D02*
D03*
X435000D02*
D03*
X445000D02*
D03*
X455000D02*
D03*
X465000D02*
D03*
X475000D02*
D03*
X485000D02*
D03*
D56*
X415000Y290000D02*
D03*
X415800Y22300D02*
D03*
X415000Y155000D02*
D03*
D57*
X370800Y353457D02*
D03*
X366900Y115943D02*
D03*
X379800Y221857D02*
D03*
D58*
X370800Y373143D02*
D03*
X366900Y96257D02*
D03*
X379800Y241543D02*
D03*
D59*
X295390Y378532D02*
D03*
Y358847D02*
D03*
Y339162D02*
D03*
Y319477D02*
D03*
Y299792D02*
D03*
Y280107D02*
D03*
Y260422D02*
D03*
X290469Y152154D02*
D03*
Y132469D02*
D03*
X295390Y122627D02*
D03*
Y102942D02*
D03*
X290469Y93099D02*
D03*
X295390Y83257D02*
D03*
X290469Y73414D02*
D03*
X295390Y63572D02*
D03*
Y43887D02*
D03*
Y24202D02*
D03*
X290469Y14359D02*
D03*
X285548Y378532D02*
D03*
X280627Y368690D02*
D03*
X285548Y358847D02*
D03*
X280627Y349005D02*
D03*
X285548Y339162D02*
D03*
Y161997D02*
D03*
Y142312D02*
D03*
X280627Y132469D02*
D03*
X285548Y122627D02*
D03*
Y102942D02*
D03*
X280627Y93099D02*
D03*
X285548Y83257D02*
D03*
X280627Y73414D02*
D03*
X285548Y24202D02*
D03*
X280627Y14359D02*
D03*
X270784Y368690D02*
D03*
X275705Y358847D02*
D03*
X270784Y349005D02*
D03*
Y329320D02*
D03*
Y211210D02*
D03*
Y191524D02*
D03*
Y171839D02*
D03*
Y152154D02*
D03*
X275705Y142312D02*
D03*
X270784Y132469D02*
D03*
X275705Y122627D02*
D03*
X270784Y112784D02*
D03*
X275705Y102942D02*
D03*
X270784Y93099D02*
D03*
X275705Y83257D02*
D03*
Y63572D02*
D03*
X270784Y53729D02*
D03*
X275705Y24202D02*
D03*
X270784Y14359D02*
D03*
X260942Y368690D02*
D03*
X265863Y358847D02*
D03*
X260942Y349005D02*
D03*
X265863Y339162D02*
D03*
X260942Y329320D02*
D03*
X265863Y221052D02*
D03*
X260942Y211210D02*
D03*
X265863Y201367D02*
D03*
X260942Y191524D02*
D03*
X265863Y181682D02*
D03*
X260942Y171839D02*
D03*
X265863Y161997D02*
D03*
Y142312D02*
D03*
Y122627D02*
D03*
X260942Y112784D02*
D03*
X265863Y102942D02*
D03*
X260942Y93099D02*
D03*
X265863Y83257D02*
D03*
X260942Y73414D02*
D03*
X265863Y63572D02*
D03*
X260942Y53729D02*
D03*
Y34044D02*
D03*
X265863Y24202D02*
D03*
X260942Y14359D02*
D03*
X251099Y368690D02*
D03*
X256020Y358847D02*
D03*
X251099Y349005D02*
D03*
X256020Y339162D02*
D03*
X251099Y329320D02*
D03*
X256020Y299792D02*
D03*
X251099Y270265D02*
D03*
Y250580D02*
D03*
Y230894D02*
D03*
X256020Y221052D02*
D03*
X251099Y211210D02*
D03*
X256020Y201367D02*
D03*
X251099Y191524D02*
D03*
X256020Y181682D02*
D03*
X251099Y171839D02*
D03*
X256020Y161997D02*
D03*
Y142312D02*
D03*
X251099Y132469D02*
D03*
X256020Y122627D02*
D03*
X251099Y112784D02*
D03*
X256020Y102942D02*
D03*
X251099Y93099D02*
D03*
X256020Y83257D02*
D03*
X251099Y73414D02*
D03*
X256020Y63572D02*
D03*
X251099Y53729D02*
D03*
Y34044D02*
D03*
Y14359D02*
D03*
X241256Y368690D02*
D03*
X246178Y358847D02*
D03*
X241256Y349005D02*
D03*
X246178Y339162D02*
D03*
X241256Y329320D02*
D03*
X246178Y299792D02*
D03*
X241256Y289950D02*
D03*
X246178Y280107D02*
D03*
X241256Y270265D02*
D03*
X246178Y260422D02*
D03*
X241256Y250580D02*
D03*
X246178Y240737D02*
D03*
X241256Y230894D02*
D03*
X246178Y221052D02*
D03*
X241256Y211210D02*
D03*
X246178Y201367D02*
D03*
X241256Y191524D02*
D03*
X246178Y181682D02*
D03*
X241256Y171839D02*
D03*
X246178Y161997D02*
D03*
Y142312D02*
D03*
X241256Y132469D02*
D03*
X246178Y122627D02*
D03*
X241256Y112784D02*
D03*
X246178Y102942D02*
D03*
X241256Y93099D02*
D03*
X246178Y83257D02*
D03*
X241256Y73414D02*
D03*
X246178Y63572D02*
D03*
X241256Y53729D02*
D03*
Y34044D02*
D03*
Y14359D02*
D03*
X231414Y368690D02*
D03*
X236335Y358847D02*
D03*
X231414Y349005D02*
D03*
X236335Y339162D02*
D03*
X231414Y329320D02*
D03*
X236335Y299792D02*
D03*
X231414Y289950D02*
D03*
X236335Y280107D02*
D03*
X231414Y270265D02*
D03*
X236335Y260422D02*
D03*
X231414Y250580D02*
D03*
X236335Y240737D02*
D03*
X231414Y230894D02*
D03*
X236335Y221052D02*
D03*
X231414Y211210D02*
D03*
X236335Y201367D02*
D03*
X231414Y191524D02*
D03*
X236335Y181682D02*
D03*
X231414Y171839D02*
D03*
X236335Y161997D02*
D03*
X231414Y152154D02*
D03*
X236335Y142312D02*
D03*
X231414Y132469D02*
D03*
X236335Y122627D02*
D03*
X231414Y112784D02*
D03*
X236335Y102942D02*
D03*
X231414Y93099D02*
D03*
X236335Y83257D02*
D03*
X231414Y73414D02*
D03*
X236335Y63572D02*
D03*
X231414Y53729D02*
D03*
Y34044D02*
D03*
X236335Y24202D02*
D03*
X231414Y14359D02*
D03*
X221571Y368690D02*
D03*
X226493Y358847D02*
D03*
X221571Y349005D02*
D03*
X226493Y339162D02*
D03*
X221571Y329320D02*
D03*
X226493Y299792D02*
D03*
X221571Y289950D02*
D03*
X226493Y280107D02*
D03*
X221571Y270265D02*
D03*
X226493Y260422D02*
D03*
X221571Y250580D02*
D03*
X226493Y240737D02*
D03*
X221571Y230894D02*
D03*
X226493Y221052D02*
D03*
X221571Y211210D02*
D03*
X226493Y201367D02*
D03*
X221571Y191524D02*
D03*
X226493Y181682D02*
D03*
X221571Y171839D02*
D03*
X226493Y161997D02*
D03*
X221571Y152154D02*
D03*
X226493Y142312D02*
D03*
X221571Y132469D02*
D03*
X226493Y122627D02*
D03*
X221571Y112784D02*
D03*
X226493Y102942D02*
D03*
X221571Y93099D02*
D03*
X226493Y83257D02*
D03*
X221571Y73414D02*
D03*
X226493Y63572D02*
D03*
X221571Y53729D02*
D03*
Y34044D02*
D03*
X226493Y24202D02*
D03*
X221571Y14359D02*
D03*
X211729Y368690D02*
D03*
X216650Y358847D02*
D03*
X211729Y349005D02*
D03*
X216650Y339162D02*
D03*
X211729Y329320D02*
D03*
X216650Y299792D02*
D03*
X211729Y289950D02*
D03*
X216650Y280107D02*
D03*
X211729Y270265D02*
D03*
X216650Y260422D02*
D03*
X211729Y250580D02*
D03*
X216650Y240737D02*
D03*
X211729Y230894D02*
D03*
X216650Y221052D02*
D03*
X211729Y211210D02*
D03*
X216650Y201367D02*
D03*
X211729Y191524D02*
D03*
X216650Y181682D02*
D03*
X211729Y171839D02*
D03*
X216650Y161997D02*
D03*
X211729Y152154D02*
D03*
X216650Y142312D02*
D03*
X211729Y132469D02*
D03*
X216650Y122627D02*
D03*
X211729Y112784D02*
D03*
X216650Y102942D02*
D03*
X211729Y93099D02*
D03*
X216650Y83257D02*
D03*
X211729Y73414D02*
D03*
X216650Y63572D02*
D03*
X211729Y53729D02*
D03*
Y34044D02*
D03*
X216650Y24202D02*
D03*
X211729Y14359D02*
D03*
X201886Y368690D02*
D03*
X206808Y358847D02*
D03*
X201886Y349005D02*
D03*
X206808Y339162D02*
D03*
X201886Y329320D02*
D03*
X206808Y299792D02*
D03*
X201886Y289950D02*
D03*
X206808Y280107D02*
D03*
X201886Y270265D02*
D03*
X206808Y260422D02*
D03*
X201886Y250580D02*
D03*
X206808Y240737D02*
D03*
X201886Y230894D02*
D03*
X206808Y221052D02*
D03*
X201886Y211210D02*
D03*
X206808Y201367D02*
D03*
X201886Y191524D02*
D03*
X206808Y181682D02*
D03*
X201886Y171839D02*
D03*
X206808Y161997D02*
D03*
X201886Y152154D02*
D03*
X206808Y142312D02*
D03*
X201886Y132469D02*
D03*
X206808Y122627D02*
D03*
X201886Y112784D02*
D03*
X206808Y102942D02*
D03*
X201886Y93099D02*
D03*
X206808Y83257D02*
D03*
X201886Y73414D02*
D03*
X206808Y63572D02*
D03*
X201886Y53729D02*
D03*
Y34044D02*
D03*
X206808Y24202D02*
D03*
X201886Y14359D02*
D03*
X192044Y368690D02*
D03*
X196965Y358847D02*
D03*
X192044Y349005D02*
D03*
X196965Y339162D02*
D03*
X192044Y329320D02*
D03*
X196965Y299792D02*
D03*
X192044Y289950D02*
D03*
X196965Y280107D02*
D03*
X192044Y270265D02*
D03*
X196965Y260422D02*
D03*
X192044Y250580D02*
D03*
X196965Y240737D02*
D03*
X192044Y230894D02*
D03*
X196965Y221052D02*
D03*
X192044Y211210D02*
D03*
X196965Y201367D02*
D03*
X192044Y191524D02*
D03*
X196965Y181682D02*
D03*
X192044Y171839D02*
D03*
X196965Y161997D02*
D03*
X192044Y152154D02*
D03*
X196965Y142312D02*
D03*
X192044Y132469D02*
D03*
X196965Y122627D02*
D03*
X192044Y112784D02*
D03*
X196965Y102942D02*
D03*
X192044Y93099D02*
D03*
X196965Y83257D02*
D03*
X192044Y73414D02*
D03*
X196965Y63572D02*
D03*
X192044Y53729D02*
D03*
Y34044D02*
D03*
X196965Y24202D02*
D03*
X192044Y14359D02*
D03*
X182201Y368690D02*
D03*
X187123Y358847D02*
D03*
X182201Y349005D02*
D03*
X187123Y339162D02*
D03*
X182201Y329320D02*
D03*
X187123Y299792D02*
D03*
X182201Y289950D02*
D03*
X187123Y280107D02*
D03*
X182201Y270265D02*
D03*
X187123Y260422D02*
D03*
X182201Y250580D02*
D03*
X187123Y240737D02*
D03*
X182201Y230894D02*
D03*
X187123Y221052D02*
D03*
X182201Y211210D02*
D03*
X187123Y201367D02*
D03*
X182201Y191524D02*
D03*
X187123Y181682D02*
D03*
X182201Y171839D02*
D03*
X187123Y161997D02*
D03*
X182201Y152154D02*
D03*
X187123Y142312D02*
D03*
X182201Y132469D02*
D03*
X187123Y122627D02*
D03*
X182201Y112784D02*
D03*
X187123Y102942D02*
D03*
X182201Y93099D02*
D03*
X187123Y83257D02*
D03*
X182201Y73414D02*
D03*
X187123Y63572D02*
D03*
X182201Y53729D02*
D03*
Y34044D02*
D03*
X187123Y24202D02*
D03*
X182201Y14359D02*
D03*
X172359Y368690D02*
D03*
X177280Y358847D02*
D03*
X172359Y349005D02*
D03*
X177280Y339162D02*
D03*
X172359Y329320D02*
D03*
X177280Y299792D02*
D03*
X172359Y289950D02*
D03*
X177280Y280107D02*
D03*
X172359Y270265D02*
D03*
X177280Y260422D02*
D03*
X172359Y250580D02*
D03*
X177280Y240737D02*
D03*
X172359Y230894D02*
D03*
X177280Y221052D02*
D03*
X172359Y211210D02*
D03*
X177280Y201367D02*
D03*
X172359Y191524D02*
D03*
X177280Y181682D02*
D03*
X172359Y171839D02*
D03*
X177280Y161997D02*
D03*
X172359Y152154D02*
D03*
X177280Y142312D02*
D03*
X172359Y132469D02*
D03*
X177280Y122627D02*
D03*
X172359Y112784D02*
D03*
X177280Y102942D02*
D03*
X172359Y93099D02*
D03*
X177280Y83257D02*
D03*
X172359Y73414D02*
D03*
X177280Y63572D02*
D03*
X172359Y53729D02*
D03*
Y34044D02*
D03*
X177280Y24202D02*
D03*
X172359Y14359D02*
D03*
X167438Y378532D02*
D03*
Y358847D02*
D03*
X162516Y349005D02*
D03*
X167438Y339162D02*
D03*
X162516Y329320D02*
D03*
X167438Y299792D02*
D03*
X162516Y289950D02*
D03*
X167438Y280107D02*
D03*
X162516Y270265D02*
D03*
X167438Y260422D02*
D03*
X162516Y250580D02*
D03*
X167438Y240737D02*
D03*
X162516Y230894D02*
D03*
X167438Y221052D02*
D03*
X162516Y211210D02*
D03*
X167438Y201367D02*
D03*
X162516Y191524D02*
D03*
X167438Y181682D02*
D03*
X162516Y171839D02*
D03*
X167438Y161997D02*
D03*
X162516Y152154D02*
D03*
X167438Y142312D02*
D03*
X162516Y132469D02*
D03*
X167438Y122627D02*
D03*
X162516Y112784D02*
D03*
X167438Y102942D02*
D03*
X162516Y93099D02*
D03*
X167438Y83257D02*
D03*
X162516Y73414D02*
D03*
X167438Y63572D02*
D03*
X162516Y53729D02*
D03*
Y34044D02*
D03*
X167438Y24202D02*
D03*
X162516Y14359D02*
D03*
X157595Y378532D02*
D03*
X152674Y368690D02*
D03*
X157595Y358847D02*
D03*
X152674Y349005D02*
D03*
X157595Y339162D02*
D03*
X152674Y329320D02*
D03*
X157595Y299792D02*
D03*
X152674Y289950D02*
D03*
X157595Y280107D02*
D03*
X152674Y270265D02*
D03*
X157595Y260422D02*
D03*
X152674Y250580D02*
D03*
X157595Y240737D02*
D03*
X152674Y230894D02*
D03*
X157595Y221052D02*
D03*
X152674Y211210D02*
D03*
X157595Y201367D02*
D03*
X152674Y191524D02*
D03*
X157595Y181682D02*
D03*
X152674Y171839D02*
D03*
X157595Y161997D02*
D03*
X152674Y152154D02*
D03*
X157595Y142312D02*
D03*
X152674Y132469D02*
D03*
X157595Y122627D02*
D03*
X152674Y112784D02*
D03*
X157595Y102942D02*
D03*
X152674Y93099D02*
D03*
X157595Y83257D02*
D03*
X152674Y73414D02*
D03*
X157595Y63572D02*
D03*
X152674Y53729D02*
D03*
Y34044D02*
D03*
X157595Y24202D02*
D03*
X152674Y14359D02*
D03*
X147753Y378532D02*
D03*
X142831Y368690D02*
D03*
X147753Y358847D02*
D03*
Y339162D02*
D03*
X142831Y329320D02*
D03*
X147753Y299792D02*
D03*
X142831Y289950D02*
D03*
X147753Y280107D02*
D03*
X142831Y270265D02*
D03*
X147753Y260422D02*
D03*
X142831Y250580D02*
D03*
X147753Y240737D02*
D03*
X142831Y230894D02*
D03*
X147753Y221052D02*
D03*
X142831Y211210D02*
D03*
X147753Y201367D02*
D03*
X142831Y191524D02*
D03*
X147753Y181682D02*
D03*
X142831Y171839D02*
D03*
X147753Y161997D02*
D03*
X142831Y152154D02*
D03*
X147753Y142312D02*
D03*
X142831Y132469D02*
D03*
X147753Y122627D02*
D03*
X142831Y112784D02*
D03*
X147753Y102942D02*
D03*
X142831Y93099D02*
D03*
X147753Y83257D02*
D03*
X142831Y73414D02*
D03*
X147753Y63572D02*
D03*
X142831Y53729D02*
D03*
Y34044D02*
D03*
X147753Y24202D02*
D03*
X142831Y14359D02*
D03*
X137910Y378532D02*
D03*
X132989Y368690D02*
D03*
X137910Y358847D02*
D03*
X132989Y349005D02*
D03*
X137910Y339162D02*
D03*
X132989Y329320D02*
D03*
X137910Y299792D02*
D03*
X132989Y289950D02*
D03*
X137910Y280107D02*
D03*
X132989Y270265D02*
D03*
X137910Y260422D02*
D03*
X132989Y250580D02*
D03*
X137910Y240737D02*
D03*
X132989Y230894D02*
D03*
X137910Y221052D02*
D03*
X132989Y211210D02*
D03*
X137910Y201367D02*
D03*
X132989Y191524D02*
D03*
X137910Y181682D02*
D03*
X132989Y171839D02*
D03*
X137910Y161997D02*
D03*
X132989Y152154D02*
D03*
X137910Y142312D02*
D03*
X132989Y132469D02*
D03*
X137910Y122627D02*
D03*
X132989Y112784D02*
D03*
X137910Y102942D02*
D03*
X132989Y93099D02*
D03*
X137910Y83257D02*
D03*
X132989Y73414D02*
D03*
X137910Y63572D02*
D03*
X132989Y34044D02*
D03*
X137910Y24202D02*
D03*
X132989Y14359D02*
D03*
X128068Y378532D02*
D03*
X123146Y368690D02*
D03*
X128068Y358847D02*
D03*
X123146Y349005D02*
D03*
X128068Y339162D02*
D03*
X123146Y329320D02*
D03*
X128068Y299792D02*
D03*
X123146Y289950D02*
D03*
X128068Y280107D02*
D03*
X123146Y270265D02*
D03*
X128068Y260422D02*
D03*
X123146Y250580D02*
D03*
X128068Y240737D02*
D03*
X123146Y230894D02*
D03*
X128068Y221052D02*
D03*
X123146Y211210D02*
D03*
X128068Y201367D02*
D03*
X123146Y191524D02*
D03*
X128068Y181682D02*
D03*
X123146Y171839D02*
D03*
X128068Y161997D02*
D03*
X123146Y152154D02*
D03*
X128068Y142312D02*
D03*
X123146Y132469D02*
D03*
X128068Y122627D02*
D03*
X123146Y112784D02*
D03*
X128068Y102942D02*
D03*
X123146Y93099D02*
D03*
X128068Y83257D02*
D03*
X123146Y73414D02*
D03*
Y53729D02*
D03*
X128068Y43887D02*
D03*
X123146Y34044D02*
D03*
X128068Y24202D02*
D03*
X123146Y14359D02*
D03*
X118225Y378532D02*
D03*
X113304Y368690D02*
D03*
X118225Y358847D02*
D03*
X113304Y349005D02*
D03*
X118225Y339162D02*
D03*
X113304Y329320D02*
D03*
X118225Y299792D02*
D03*
X113304Y289950D02*
D03*
X118225Y280107D02*
D03*
X113304Y270265D02*
D03*
X118225Y260422D02*
D03*
X113304Y250580D02*
D03*
X118225Y240737D02*
D03*
X113304Y230894D02*
D03*
X118225Y221052D02*
D03*
X113304Y211210D02*
D03*
X118225Y201367D02*
D03*
X113304Y191524D02*
D03*
X118225Y181682D02*
D03*
X113304Y171839D02*
D03*
X118225Y161997D02*
D03*
X113304Y152154D02*
D03*
X118225Y142312D02*
D03*
X113304Y132469D02*
D03*
X118225Y122627D02*
D03*
X113304Y112784D02*
D03*
X118225Y102942D02*
D03*
X113304Y93099D02*
D03*
X118225Y83257D02*
D03*
X113304Y53729D02*
D03*
X118225Y43887D02*
D03*
X113304Y34044D02*
D03*
X118225Y24202D02*
D03*
X113304Y14359D02*
D03*
X108382Y378532D02*
D03*
X103461Y368690D02*
D03*
X108382Y358847D02*
D03*
X103461Y349005D02*
D03*
X108382Y339162D02*
D03*
X103461Y329320D02*
D03*
X108382Y299792D02*
D03*
X103461Y289950D02*
D03*
X108382Y280107D02*
D03*
X103461Y270265D02*
D03*
X108382Y260422D02*
D03*
X103461Y250580D02*
D03*
X108382Y240737D02*
D03*
X103461Y230894D02*
D03*
X108382Y221052D02*
D03*
X103461Y211210D02*
D03*
X108382Y201367D02*
D03*
X103461Y191524D02*
D03*
X108382Y181682D02*
D03*
X103461Y171839D02*
D03*
X108382Y161997D02*
D03*
X103461Y152154D02*
D03*
X108382Y142312D02*
D03*
X103461Y132469D02*
D03*
X108382Y122627D02*
D03*
X103461Y112784D02*
D03*
X108382Y102942D02*
D03*
X103461Y93099D02*
D03*
Y73414D02*
D03*
X108382Y63572D02*
D03*
X103461Y53729D02*
D03*
X108382Y43887D02*
D03*
X103461Y34044D02*
D03*
X108382Y24202D02*
D03*
X103461Y14359D02*
D03*
X98540Y378532D02*
D03*
X93619Y368690D02*
D03*
X98540Y358847D02*
D03*
X93619Y349005D02*
D03*
X98540Y339162D02*
D03*
X93619Y329320D02*
D03*
X98540Y299792D02*
D03*
X93619Y289950D02*
D03*
X98540Y280107D02*
D03*
X93619Y270265D02*
D03*
X98540Y260422D02*
D03*
X93619Y250580D02*
D03*
X98540Y240737D02*
D03*
X93619Y230894D02*
D03*
X98540Y221052D02*
D03*
X93619Y211210D02*
D03*
X98540Y201367D02*
D03*
X93619Y191524D02*
D03*
X98540Y181682D02*
D03*
X93619Y171839D02*
D03*
X98540Y161997D02*
D03*
X93619Y152154D02*
D03*
X98540Y142312D02*
D03*
X93619Y132469D02*
D03*
X98540Y122627D02*
D03*
X93619Y112784D02*
D03*
X98540Y102942D02*
D03*
X93619Y73414D02*
D03*
X98540Y63572D02*
D03*
X93619Y53729D02*
D03*
X98540Y43887D02*
D03*
X93619Y34044D02*
D03*
X98540Y24202D02*
D03*
X93619Y14359D02*
D03*
X88697Y378532D02*
D03*
X83776Y368690D02*
D03*
X88697Y358847D02*
D03*
X83776Y349005D02*
D03*
X88697Y339162D02*
D03*
X83776Y329320D02*
D03*
X88697Y299792D02*
D03*
X83776Y289950D02*
D03*
X88697Y280107D02*
D03*
X83776Y270265D02*
D03*
X88697Y260422D02*
D03*
X83776Y250580D02*
D03*
X88697Y240737D02*
D03*
X83776Y230894D02*
D03*
X88697Y221052D02*
D03*
X83776Y211210D02*
D03*
X88697Y201367D02*
D03*
X83776Y191524D02*
D03*
X88697Y181682D02*
D03*
X83776Y171839D02*
D03*
X88697Y161997D02*
D03*
X83776Y152154D02*
D03*
X88697Y142312D02*
D03*
X83776Y132469D02*
D03*
X88697Y122627D02*
D03*
X83776Y112784D02*
D03*
Y93099D02*
D03*
X88697Y83257D02*
D03*
X83776Y73414D02*
D03*
X88697Y63572D02*
D03*
X83776Y53729D02*
D03*
X88697Y43887D02*
D03*
X83776Y34044D02*
D03*
X88697Y24202D02*
D03*
X83776Y14359D02*
D03*
X78855Y378532D02*
D03*
X73934Y368690D02*
D03*
X78855Y358847D02*
D03*
X73934Y349005D02*
D03*
X78855Y339162D02*
D03*
X73934Y329320D02*
D03*
X78855Y299792D02*
D03*
X73934Y289950D02*
D03*
X78855Y280107D02*
D03*
X73934Y270265D02*
D03*
X78855Y260422D02*
D03*
X73934Y250580D02*
D03*
X78855Y240737D02*
D03*
X73934Y230894D02*
D03*
X78855Y221052D02*
D03*
X73934Y211210D02*
D03*
X78855Y201367D02*
D03*
X73934Y191524D02*
D03*
X78855Y181682D02*
D03*
X73934Y171839D02*
D03*
X78855Y161997D02*
D03*
X73934Y152154D02*
D03*
X78855Y142312D02*
D03*
X73934Y132469D02*
D03*
X78855Y122627D02*
D03*
X73934Y93099D02*
D03*
X78855Y83257D02*
D03*
X73934Y73414D02*
D03*
X78855Y63572D02*
D03*
X73934Y53729D02*
D03*
X78855Y43887D02*
D03*
X73934Y34044D02*
D03*
X78855Y24202D02*
D03*
X73934Y14359D02*
D03*
X69012Y378532D02*
D03*
X64091Y368690D02*
D03*
X69012Y358847D02*
D03*
X64091Y349005D02*
D03*
X69012Y339162D02*
D03*
X64091Y329320D02*
D03*
X69012Y221052D02*
D03*
X64091Y211210D02*
D03*
X69012Y201367D02*
D03*
X64091Y191524D02*
D03*
X69012Y181682D02*
D03*
X64091Y171839D02*
D03*
X69012Y161997D02*
D03*
X64091Y152154D02*
D03*
X69012Y142312D02*
D03*
X64091Y132469D02*
D03*
Y112784D02*
D03*
X69012Y102942D02*
D03*
X64091Y93099D02*
D03*
X69012Y83257D02*
D03*
X64091Y73414D02*
D03*
X69012Y63572D02*
D03*
X64091Y53729D02*
D03*
X69012Y43887D02*
D03*
X64091Y34044D02*
D03*
X69012Y24202D02*
D03*
X64091Y14359D02*
D03*
X59170Y378532D02*
D03*
X54249Y368690D02*
D03*
X59170Y358847D02*
D03*
X54249Y349005D02*
D03*
X59170Y339162D02*
D03*
X54249Y329320D02*
D03*
Y309635D02*
D03*
Y289950D02*
D03*
Y270265D02*
D03*
Y250580D02*
D03*
Y211210D02*
D03*
X59170Y201367D02*
D03*
X54249Y191524D02*
D03*
X59170Y181682D02*
D03*
X54249Y171839D02*
D03*
X59170Y161997D02*
D03*
X54249Y152154D02*
D03*
X59170Y142312D02*
D03*
X54249Y112784D02*
D03*
X59170Y102942D02*
D03*
X54249Y93099D02*
D03*
X59170Y83257D02*
D03*
X54249Y73414D02*
D03*
X59170Y63572D02*
D03*
X54249Y53729D02*
D03*
X59170Y43887D02*
D03*
X54249Y34044D02*
D03*
X59170Y24202D02*
D03*
X54249Y14359D02*
D03*
X49327Y378532D02*
D03*
X44406Y368690D02*
D03*
X49327Y358847D02*
D03*
X44406Y349005D02*
D03*
X49327Y339162D02*
D03*
X44406Y329320D02*
D03*
X49327Y319477D02*
D03*
Y299792D02*
D03*
Y280107D02*
D03*
X44406Y270265D02*
D03*
X49327Y260422D02*
D03*
X44406Y250580D02*
D03*
X49327Y240737D02*
D03*
X44406Y230894D02*
D03*
X49327Y221052D02*
D03*
Y201367D02*
D03*
X44406Y191524D02*
D03*
X49327Y181682D02*
D03*
X44406Y171839D02*
D03*
X49327Y161997D02*
D03*
X44406Y152154D02*
D03*
Y132469D02*
D03*
X49327Y122627D02*
D03*
Y102942D02*
D03*
Y83257D02*
D03*
Y63572D02*
D03*
X44406Y53729D02*
D03*
X49327Y43887D02*
D03*
X44406Y34044D02*
D03*
X49327Y24202D02*
D03*
X44406Y14359D02*
D03*
X39485Y378532D02*
D03*
X34564Y368690D02*
D03*
X39485Y358847D02*
D03*
X34564Y349005D02*
D03*
X39485Y339162D02*
D03*
X34564Y329320D02*
D03*
X39485Y319477D02*
D03*
X34564Y309635D02*
D03*
X39485Y299792D02*
D03*
X34564Y289950D02*
D03*
X39485Y280107D02*
D03*
X34564Y270265D02*
D03*
Y250580D02*
D03*
Y230894D02*
D03*
Y211210D02*
D03*
Y191524D02*
D03*
Y171839D02*
D03*
X39485Y161997D02*
D03*
X34564Y132469D02*
D03*
Y93099D02*
D03*
Y73414D02*
D03*
X39485Y43887D02*
D03*
X34564Y34044D02*
D03*
X39485Y24202D02*
D03*
X34564Y14359D02*
D03*
X29642Y378532D02*
D03*
X24721Y368690D02*
D03*
X29642Y358847D02*
D03*
X24721Y349005D02*
D03*
Y329320D02*
D03*
X29642Y280107D02*
D03*
X24721Y270265D02*
D03*
Y73414D02*
D03*
X29642Y43887D02*
D03*
Y24202D02*
D03*
X24721Y14359D02*
D03*
X19800Y378532D02*
D03*
X14878Y368690D02*
D03*
X19800Y358847D02*
D03*
X14878Y349005D02*
D03*
Y309635D02*
D03*
Y289950D02*
D03*
Y270265D02*
D03*
Y73414D02*
D03*
Y34044D02*
D03*
X19800Y24202D02*
D03*
X14878Y14359D02*
D03*
X9957Y378532D02*
D03*
X5036Y368690D02*
D03*
X9957Y358847D02*
D03*
X5036Y349005D02*
D03*
X9957Y339162D02*
D03*
X5036Y329320D02*
D03*
X9957Y319477D02*
D03*
X5036Y309635D02*
D03*
X9957Y299792D02*
D03*
Y221052D02*
D03*
Y201367D02*
D03*
Y181682D02*
D03*
X5036Y171839D02*
D03*
X9957Y142312D02*
D03*
Y43887D02*
D03*
X5036Y34044D02*
D03*
X9957Y24202D02*
D03*
X5036Y14359D02*
D03*
X325900Y311500D02*
D03*
D60*
X371100Y11600D02*
D03*
X377900Y67400D02*
D03*
X513600Y63800D02*
D03*
X512300Y52800D02*
D03*
X437400Y44532D02*
D03*
X410200Y58800D02*
D03*
X416900Y66300D02*
D03*
X410400Y32000D02*
D03*
X443200Y44100D02*
D03*
X369800Y32200D02*
D03*
X369700Y37200D02*
D03*
X346623Y57300D02*
D03*
X328300Y41700D02*
D03*
X348500Y62000D02*
D03*
X330900Y37500D02*
D03*
X348000Y37700D02*
D03*
X350800Y35400D02*
D03*
X346462Y297445D02*
D03*
X335400Y293000D02*
D03*
X364300Y306600D02*
D03*
X345700Y180900D02*
D03*
X344219Y173813D02*
D03*
X348592Y188708D02*
D03*
X348900Y191800D02*
D03*
X326500Y308600D02*
D03*
X346100Y331800D02*
D03*
X363500Y323800D02*
D03*
X349800Y23400D02*
D03*
X374600Y7000D02*
D03*
X441500Y6600D02*
D03*
X440800Y65300D02*
D03*
X466300Y37800D02*
D03*
X474600Y113100D02*
D03*
X475800Y55900D02*
D03*
X512200Y36500D02*
D03*
X439400Y86900D02*
D03*
X542600Y195800D02*
D03*
X516400Y197400D02*
D03*
X498400Y207000D02*
D03*
X497600Y181300D02*
D03*
X535700Y171700D02*
D03*
X433632Y169451D02*
D03*
X432000Y183400D02*
D03*
X432600Y162400D02*
D03*
X442100Y164300D02*
D03*
X415500Y222500D02*
D03*
X435800Y214300D02*
D03*
X414300Y162300D02*
D03*
X366400Y154600D02*
D03*
X365700Y186400D02*
D03*
X340300Y161300D02*
D03*
X329200Y175100D02*
D03*
X345300Y195200D02*
D03*
X420100Y180600D02*
D03*
X409100Y180800D02*
D03*
X327500Y189200D02*
D03*
X5100Y116300D02*
D03*
X-24100Y119600D02*
D03*
X-24379Y116358D02*
D03*
X-252Y116431D02*
D03*
D61*
X315900Y302200D02*
D03*
Y307200D02*
D03*
Y312200D02*
D03*
Y317200D02*
D03*
Y322200D02*
D03*
Y327200D02*
D03*
Y332200D02*
D03*
Y337200D02*
D03*
X334798Y302200D02*
D03*
Y307200D02*
D03*
Y312200D02*
D03*
Y317200D02*
D03*
Y322200D02*
D03*
Y327200D02*
D03*
Y332200D02*
D03*
Y337200D02*
D03*
X338749Y67400D02*
D03*
Y62400D02*
D03*
Y57400D02*
D03*
Y52400D02*
D03*
Y47400D02*
D03*
Y42400D02*
D03*
Y37400D02*
D03*
Y32400D02*
D03*
X319851Y67400D02*
D03*
Y62400D02*
D03*
Y57400D02*
D03*
Y52400D02*
D03*
Y47400D02*
D03*
Y42400D02*
D03*
Y37400D02*
D03*
Y32400D02*
D03*
X337149Y201500D02*
D03*
Y196500D02*
D03*
Y191500D02*
D03*
Y186500D02*
D03*
Y181500D02*
D03*
Y176500D02*
D03*
Y171500D02*
D03*
Y166500D02*
D03*
X318251Y201500D02*
D03*
Y196500D02*
D03*
Y191500D02*
D03*
Y186500D02*
D03*
Y181500D02*
D03*
Y176500D02*
D03*
Y171500D02*
D03*
Y166500D02*
D03*
M02*
