G04*
G04 #@! TF.GenerationSoftware,Altium Limited,Altium Designer,22.2.1 (43)*
G04*
G04 Layer_Color=8421504*
%FSLAX25Y25*%
%MOIN*%
G70*
G04*
G04 #@! TF.SameCoordinates,AF04F028-1FEE-4182-B250-BA9835736C91*
G04*
G04*
G04 #@! TF.FilePolarity,Positive*
G04*
G01*
G75*
%ADD16R,0.03740X0.03347*%
%ADD17O,0.07874X0.02362*%
%ADD18O,0.09843X0.02756*%
%ADD19R,0.03347X0.03740*%
%ADD20R,0.06102X0.05315*%
%ADD21R,0.06614X0.12362*%
%ADD22R,0.05315X0.06102*%
%ADD23R,0.11024X0.02165*%
D16*
X448700Y59259D02*
D03*
Y54141D02*
D03*
X448400Y87159D02*
D03*
Y82041D02*
D03*
X448700Y112459D02*
D03*
Y107341D02*
D03*
X442200Y215641D02*
D03*
Y220759D02*
D03*
X425200Y201759D02*
D03*
Y196641D02*
D03*
X425500Y180259D02*
D03*
Y175141D02*
D03*
X449700Y348196D02*
D03*
Y353314D02*
D03*
X430400Y333076D02*
D03*
Y327958D02*
D03*
X429600Y312596D02*
D03*
Y307478D02*
D03*
D17*
X281893Y201800D02*
D03*
Y196800D02*
D03*
Y191800D02*
D03*
Y186800D02*
D03*
Y181800D02*
D03*
Y176800D02*
D03*
Y171800D02*
D03*
Y166800D02*
D03*
X318507Y201800D02*
D03*
Y196800D02*
D03*
Y191800D02*
D03*
Y186800D02*
D03*
Y181800D02*
D03*
Y176800D02*
D03*
Y171800D02*
D03*
Y166800D02*
D03*
X279286Y337200D02*
D03*
Y332200D02*
D03*
Y327200D02*
D03*
Y322200D02*
D03*
Y317200D02*
D03*
Y312200D02*
D03*
Y307200D02*
D03*
Y302200D02*
D03*
X315900Y337200D02*
D03*
Y332200D02*
D03*
Y327200D02*
D03*
Y322200D02*
D03*
Y317200D02*
D03*
Y312200D02*
D03*
Y307200D02*
D03*
Y302200D02*
D03*
X320407Y32500D02*
D03*
Y37500D02*
D03*
Y42500D02*
D03*
Y47500D02*
D03*
Y52500D02*
D03*
Y57500D02*
D03*
Y62500D02*
D03*
Y67500D02*
D03*
X283793Y32500D02*
D03*
Y37500D02*
D03*
Y42500D02*
D03*
Y47500D02*
D03*
Y52500D02*
D03*
Y57500D02*
D03*
Y62500D02*
D03*
Y67500D02*
D03*
D18*
X337354Y201700D02*
D03*
Y196700D02*
D03*
Y191700D02*
D03*
Y186700D02*
D03*
Y181700D02*
D03*
Y176700D02*
D03*
Y171700D02*
D03*
Y166700D02*
D03*
X356646Y201700D02*
D03*
Y196700D02*
D03*
Y191700D02*
D03*
Y186700D02*
D03*
Y181700D02*
D03*
Y176700D02*
D03*
Y171700D02*
D03*
Y166700D02*
D03*
X354089Y302200D02*
D03*
Y307200D02*
D03*
Y312200D02*
D03*
Y317200D02*
D03*
Y322200D02*
D03*
Y327200D02*
D03*
Y332200D02*
D03*
Y337200D02*
D03*
X334798Y302200D02*
D03*
Y307200D02*
D03*
Y312200D02*
D03*
Y317200D02*
D03*
Y322200D02*
D03*
Y327200D02*
D03*
Y332200D02*
D03*
Y337200D02*
D03*
X358040Y32400D02*
D03*
Y37400D02*
D03*
Y42400D02*
D03*
Y47400D02*
D03*
Y52400D02*
D03*
Y57400D02*
D03*
Y62400D02*
D03*
Y67400D02*
D03*
X338749Y32400D02*
D03*
Y37400D02*
D03*
Y42400D02*
D03*
Y47400D02*
D03*
Y52400D02*
D03*
Y57400D02*
D03*
Y62400D02*
D03*
Y67400D02*
D03*
D19*
X24159Y36700D02*
D03*
X19041D02*
D03*
X24159Y45400D02*
D03*
X19041D02*
D03*
D20*
X431400Y355037D02*
D03*
Y347163D02*
D03*
X448400Y326325D02*
D03*
Y334199D02*
D03*
X448200Y305400D02*
D03*
Y313274D02*
D03*
X326200Y285363D02*
D03*
Y293237D02*
D03*
X430000Y52126D02*
D03*
Y60000D02*
D03*
Y81063D02*
D03*
Y88937D02*
D03*
Y106063D02*
D03*
Y113937D02*
D03*
X330500Y157474D02*
D03*
Y149600D02*
D03*
X425500Y215963D02*
D03*
Y223837D02*
D03*
X442900Y194963D02*
D03*
Y202837D02*
D03*
X443700Y173263D02*
D03*
Y181137D02*
D03*
D21*
X-390Y283000D02*
D03*
X-19209D02*
D03*
X-490Y248500D02*
D03*
X-19309D02*
D03*
X-790Y265600D02*
D03*
X-19610D02*
D03*
D22*
X254037Y288400D02*
D03*
X246163D02*
D03*
X244763Y20100D02*
D03*
X252637D02*
D03*
X363937Y11400D02*
D03*
X356063D02*
D03*
X243363Y154100D02*
D03*
X251237D02*
D03*
D23*
X-48976Y280280D02*
D03*
Y277130D02*
D03*
Y273980D02*
D03*
Y270831D02*
D03*
Y267681D02*
D03*
Y264531D02*
D03*
Y261382D02*
D03*
Y258232D02*
D03*
Y255083D02*
D03*
Y251933D02*
D03*
Y248783D02*
D03*
Y245634D02*
D03*
Y242484D02*
D03*
Y239335D02*
D03*
Y236185D02*
D03*
Y233035D02*
D03*
Y229886D02*
D03*
Y226736D02*
D03*
Y223587D02*
D03*
Y220437D02*
D03*
Y217287D02*
D03*
Y214138D02*
D03*
Y210988D02*
D03*
Y207839D02*
D03*
Y204689D02*
D03*
Y201539D02*
D03*
Y198390D02*
D03*
Y182642D02*
D03*
Y179492D02*
D03*
Y176343D02*
D03*
Y173193D02*
D03*
Y170043D02*
D03*
Y166894D02*
D03*
Y163744D02*
D03*
Y160594D02*
D03*
Y157445D02*
D03*
Y154295D02*
D03*
Y151146D02*
D03*
Y147996D02*
D03*
Y144846D02*
D03*
Y141697D02*
D03*
Y138547D02*
D03*
Y135398D02*
D03*
Y132248D02*
D03*
Y129098D02*
D03*
Y125949D02*
D03*
Y122799D02*
D03*
Y119650D02*
D03*
Y116500D02*
D03*
Y113350D02*
D03*
M02*
