G04*
G04 #@! TF.GenerationSoftware,Altium Limited,Altium Designer,22.2.1 (43)*
G04*
G04 Layer_Color=128*
%FSLAX25Y25*%
%MOIN*%
G70*
G04*
G04 #@! TF.SameCoordinates,AF04F028-1FEE-4182-B250-BA9835736C91*
G04*
G04*
G04 #@! TF.FilePolarity,Positive*
G04*
G01*
G75*
%ADD23R,0.11024X0.02165*%
%ADD61O,0.08661X0.02362*%
D23*
X-48976Y280280D02*
D03*
Y277130D02*
D03*
Y273980D02*
D03*
Y270831D02*
D03*
Y267681D02*
D03*
Y264531D02*
D03*
Y261382D02*
D03*
Y258232D02*
D03*
Y255083D02*
D03*
Y251933D02*
D03*
Y248783D02*
D03*
Y245634D02*
D03*
Y242484D02*
D03*
Y239335D02*
D03*
Y236185D02*
D03*
Y233035D02*
D03*
Y229886D02*
D03*
Y226736D02*
D03*
Y223587D02*
D03*
Y220437D02*
D03*
Y217287D02*
D03*
Y214138D02*
D03*
Y210988D02*
D03*
Y207839D02*
D03*
Y204689D02*
D03*
Y201539D02*
D03*
Y198390D02*
D03*
Y182642D02*
D03*
Y179492D02*
D03*
Y176343D02*
D03*
Y173193D02*
D03*
Y170043D02*
D03*
Y166894D02*
D03*
Y163744D02*
D03*
Y160594D02*
D03*
Y157445D02*
D03*
Y154295D02*
D03*
Y151146D02*
D03*
Y147996D02*
D03*
Y144846D02*
D03*
Y141697D02*
D03*
Y138547D02*
D03*
Y135398D02*
D03*
Y132248D02*
D03*
Y129098D02*
D03*
Y125949D02*
D03*
Y122799D02*
D03*
Y119650D02*
D03*
Y116500D02*
D03*
Y113350D02*
D03*
D61*
X315900Y302200D02*
D03*
Y307200D02*
D03*
Y312200D02*
D03*
Y317200D02*
D03*
Y322200D02*
D03*
Y327200D02*
D03*
Y332200D02*
D03*
Y337200D02*
D03*
X334798Y302200D02*
D03*
Y307200D02*
D03*
Y312200D02*
D03*
Y317200D02*
D03*
Y322200D02*
D03*
Y327200D02*
D03*
Y332200D02*
D03*
Y337200D02*
D03*
X338749Y67400D02*
D03*
Y62400D02*
D03*
Y57400D02*
D03*
Y52400D02*
D03*
Y47400D02*
D03*
Y42400D02*
D03*
Y37400D02*
D03*
Y32400D02*
D03*
X319851Y67400D02*
D03*
Y62400D02*
D03*
Y57400D02*
D03*
Y52400D02*
D03*
Y47400D02*
D03*
Y42400D02*
D03*
Y37400D02*
D03*
Y32400D02*
D03*
X337149Y201500D02*
D03*
Y196500D02*
D03*
Y191500D02*
D03*
Y186500D02*
D03*
Y181500D02*
D03*
Y176500D02*
D03*
Y171500D02*
D03*
Y166500D02*
D03*
X318251Y201500D02*
D03*
Y196500D02*
D03*
Y191500D02*
D03*
Y186500D02*
D03*
Y181500D02*
D03*
Y176500D02*
D03*
Y171500D02*
D03*
Y166500D02*
D03*
M02*
