G04*
G04 #@! TF.GenerationSoftware,Altium Limited,Altium Designer,22.2.1 (43)*
G04*
G04 Layer_Physical_Order=1*
G04 Layer_Color=255*
%FSLAX25Y25*%
%MOIN*%
G70*
G04*
G04 #@! TF.SameCoordinates,AF04F028-1FEE-4182-B250-BA9835736C91*
G04*
G04*
G04 #@! TF.FilePolarity,Positive*
G04*
G01*
G75*
%ADD16R,0.03740X0.03347*%
%ADD17O,0.07874X0.02362*%
%ADD18O,0.09843X0.02756*%
%ADD19R,0.03347X0.03740*%
%ADD20R,0.06102X0.05315*%
%ADD21R,0.06614X0.12362*%
%ADD22R,0.05315X0.06102*%
%ADD23R,0.11024X0.02165*%
%ADD45C,0.01181*%
%ADD46C,0.01968*%
%ADD47C,0.03937*%
%ADD48C,0.04724*%
%ADD49R,0.04724X0.04724*%
%ADD50R,0.05394X0.05394*%
%ADD51C,0.05394*%
%ADD52C,0.18740*%
%ADD53R,0.06653X0.06653*%
%ADD54C,0.06653*%
%ADD55C,0.05906*%
%ADD56R,0.05906X0.05906*%
%ADD57C,0.05315*%
%ADD58R,0.05315X0.05315*%
%ADD59C,0.01575*%
%ADD60C,0.01968*%
G36*
X276714Y374046D02*
X280239D01*
X289557Y364727D01*
Y330983D01*
X289095Y330792D01*
X286693Y333194D01*
X286238Y333498D01*
X285700Y333605D01*
X282773D01*
X282656Y333683D01*
X282042Y333806D01*
X276530D01*
X275915Y333683D01*
X275798Y333605D01*
X159586D01*
X159048Y333498D01*
X158593Y333193D01*
X153004Y327605D01*
X32357D01*
X32073Y328098D01*
X31498Y328673D01*
X30793Y329080D01*
X30007Y329291D01*
X29193D01*
X28407Y329080D01*
X27702Y328673D01*
X27127Y328098D01*
X26842Y327605D01*
X22357D01*
X22073Y328098D01*
X21498Y328673D01*
X20793Y329080D01*
X20007Y329291D01*
X19622D01*
X19415Y329791D01*
X20345Y330720D01*
X126589D01*
X127126Y330827D01*
X127582Y331132D01*
X171847Y375397D01*
X276714D01*
Y374046D01*
D02*
G37*
G36*
X297600Y393283D02*
X297600Y500D01*
X9000D01*
X-0Y9500D01*
Y99508D01*
X-25692Y99508D01*
X-27847Y97354D01*
Y93224D01*
X-27795Y93173D01*
X-29370Y91598D01*
X-34389Y91598D01*
X-34854Y92063D01*
Y106962D01*
X-37207Y109315D01*
X-58390D01*
X-58425Y109350D01*
Y185791D01*
X-35809D01*
X-33100Y188500D01*
Y192230D01*
X-36145Y195276D01*
X-46619D01*
X-46655Y195240D01*
X-46690Y195276D01*
X-58425D01*
Y284350D01*
X-58376Y284400D01*
X-38825D01*
X-38775Y284350D01*
X-37050D01*
X-34803Y286597D01*
Y301665D01*
X-34554Y301768D01*
X-28497D01*
Y298780D01*
X-26122Y296405D01*
Y294873D01*
X-19473D01*
X-18793Y294193D01*
X-3275D01*
X-3083Y293731D01*
X-6069Y290745D01*
X-6374Y290289D01*
X-6481Y289752D01*
Y276248D01*
X-6374Y275711D01*
X-6069Y275255D01*
X-5262Y274447D01*
X-4806Y274143D01*
X-4268Y274036D01*
X-2390D01*
X-1352Y272999D01*
Y272175D01*
X-4491D01*
Y259025D01*
X2910D01*
Y269392D01*
X9959D01*
X10497Y269499D01*
X10953Y269803D01*
X26009Y284860D01*
X26509Y284653D01*
Y283109D01*
X32691D01*
Y289291D01*
X26654D01*
Y293286D01*
X27116Y293478D01*
X27340Y293254D01*
X28179Y292770D01*
X29009Y292547D01*
Y296200D01*
Y299853D01*
X28179Y299630D01*
X27340Y299146D01*
X27116Y298922D01*
X26654Y299114D01*
Y304121D01*
X27030Y304265D01*
X27154Y304275D01*
X27702Y303727D01*
X28407Y303320D01*
X29193Y303110D01*
X30007D01*
X30793Y303320D01*
X31498Y303727D01*
X32073Y304302D01*
X32480Y305007D01*
X32691Y305793D01*
Y306607D01*
X32480Y307393D01*
X32073Y308098D01*
X31498Y308673D01*
X30793Y309080D01*
X30007Y309291D01*
X29193D01*
X28407Y309080D01*
X27702Y308673D01*
X27154Y308125D01*
X27030Y308135D01*
X26654Y308279D01*
Y313286D01*
X27116Y313478D01*
X27340Y313254D01*
X28179Y312770D01*
X29009Y312547D01*
Y316200D01*
Y319853D01*
X28179Y319630D01*
X27340Y319146D01*
X26654Y318460D01*
X26340Y317916D01*
X25730Y317820D01*
X22143Y321406D01*
X21688Y321711D01*
X21150Y321818D01*
X20207D01*
X19415Y322609D01*
X19622Y323110D01*
X20007D01*
X20793Y323320D01*
X21498Y323727D01*
X22073Y324302D01*
X22357Y324795D01*
X26842D01*
X27127Y324302D01*
X27702Y323727D01*
X28407Y323320D01*
X29193Y323110D01*
X30007D01*
X30556Y323257D01*
X32288Y321526D01*
X32458Y321412D01*
X32743Y321221D01*
X33281Y321114D01*
X40795D01*
Y275935D01*
X40465Y275605D01*
X24385D01*
X23848Y275498D01*
X23392Y275193D01*
X18197Y269998D01*
X16728D01*
X16191Y269891D01*
X15735Y269586D01*
X1223Y255075D01*
X-4191D01*
Y242338D01*
X-15609D01*
Y255075D01*
X-21023D01*
X-28324Y262375D01*
X-28780Y262680D01*
X-29317Y262787D01*
X-42480D01*
Y263941D01*
X-48976D01*
X-55472D01*
Y262464D01*
X-54882D01*
Y260299D01*
X-55472D01*
Y258823D01*
X-48976D01*
X-42480D01*
Y259977D01*
X-29899D01*
X-23010Y253088D01*
Y243393D01*
X-23472Y243202D01*
X-36063Y255792D01*
X-36388Y256010D01*
X-36772Y256086D01*
X-42013D01*
X-42480Y256165D01*
Y257642D01*
X-48976D01*
X-55472D01*
Y256165D01*
X-54882D01*
Y254000D01*
X-55472D01*
Y252524D01*
X-48976D01*
X-42480D01*
Y254000D01*
X-42013Y254079D01*
X-37188D01*
X-23734Y240625D01*
X-23408Y240407D01*
X-23024Y240331D01*
X3224D01*
X3608Y240407D01*
X3934Y240625D01*
X4510Y241202D01*
X4728Y241527D01*
X4804Y241911D01*
Y243585D01*
X17129Y255909D01*
X21891D01*
Y262091D01*
X15709D01*
Y257329D01*
X3672Y245291D01*
X3210Y245483D01*
Y253088D01*
X17311Y267188D01*
X18778D01*
X19316Y267295D01*
X19772Y267600D01*
X24968Y272795D01*
X41047D01*
X41585Y272902D01*
X42040Y273207D01*
X43194Y274360D01*
X43498Y274816D01*
X43605Y275353D01*
Y322519D01*
X43498Y323057D01*
X43194Y323513D01*
X42738Y323817D01*
X42200Y323924D01*
X33863D01*
X33454Y324333D01*
X33645Y324795D01*
X153586D01*
X154124Y324902D01*
X154580Y325207D01*
X160168Y330795D01*
X275798D01*
X275915Y330717D01*
X276530Y330594D01*
X282042D01*
X282656Y330717D01*
X282774Y330795D01*
X285118D01*
X287195Y328718D01*
Y303935D01*
X286865Y303605D01*
X282774D01*
X282656Y303683D01*
X282042Y303806D01*
X276530D01*
X275915Y303683D01*
X275798Y303605D01*
X267837D01*
X267299Y303498D01*
X266844Y303193D01*
X255495Y291845D01*
X250986D01*
Y284955D01*
X252632D01*
Y240163D01*
X252739Y239625D01*
X253044Y239170D01*
X285997Y206217D01*
X285750Y205756D01*
X285709Y205764D01*
X278077D01*
X277539Y205657D01*
X277083Y205352D01*
X275584Y203854D01*
X275280Y203398D01*
X275173Y202860D01*
Y200740D01*
X275280Y200202D01*
X275584Y199747D01*
X277657Y197674D01*
Y197419D01*
X277653Y197415D01*
X277531Y196800D01*
X277653Y196186D01*
X277842Y195904D01*
X277575Y195404D01*
X40933D01*
X40799Y195904D01*
X41060Y196054D01*
X41745Y196740D01*
X42230Y197579D01*
X42453Y198409D01*
X38800D01*
Y199591D01*
X42453D01*
X42230Y200421D01*
X41745Y201260D01*
X41060Y201946D01*
X40549Y202241D01*
X40683Y202741D01*
X40977D01*
X41361Y202817D01*
X41686Y203035D01*
X71710Y233058D01*
X71927Y233383D01*
X72004Y233767D01*
Y308892D01*
X72107Y308997D01*
X272086D01*
X272470Y309073D01*
X272795Y309290D01*
X274785Y311280D01*
X275283Y311231D01*
X275395Y311065D01*
X275915Y310717D01*
X276530Y310594D01*
X282042D01*
X282656Y310717D01*
X283177Y311065D01*
X283525Y311586D01*
X283647Y312200D01*
X283616Y312355D01*
X284917Y313656D01*
X285134Y313981D01*
X285211Y314365D01*
Y323097D01*
X285211Y323097D01*
X285211Y323097D01*
X285170Y323301D01*
X285134Y323481D01*
X285134Y323481D01*
X285134Y323481D01*
X284981Y323710D01*
X284917Y323806D01*
X284917Y323806D01*
X284917Y323807D01*
X283648Y325075D01*
X283448Y325208D01*
X283323Y325292D01*
X283323Y325292D01*
X283323Y325292D01*
X283130Y325331D01*
X283013Y325354D01*
X282918Y325558D01*
X282884Y325869D01*
X283177Y326065D01*
X283525Y326586D01*
X283647Y327200D01*
X283525Y327815D01*
X283177Y328335D01*
X282656Y328683D01*
X282042Y328806D01*
X276530D01*
X275915Y328683D01*
X275395Y328335D01*
X275046Y327815D01*
X274924Y327200D01*
X275046Y326586D01*
X275395Y326065D01*
X275688Y325869D01*
X275654Y325558D01*
X275558Y325354D01*
X275249Y325292D01*
X274923Y325075D01*
X270852Y321004D01*
X58228D01*
X58001Y320958D01*
X57844Y320927D01*
X57844Y320927D01*
X57844Y320927D01*
X57689Y320824D01*
X57519Y320710D01*
X56827Y320018D01*
X56827Y320018D01*
X56827Y320018D01*
X56731Y319874D01*
X56609Y319692D01*
X56609Y319692D01*
X56609Y319692D01*
X56569Y319493D01*
X56533Y319308D01*
X56533Y319308D01*
X56533Y319308D01*
Y232946D01*
X42928Y219342D01*
X42456Y219577D01*
X42230Y220421D01*
X41745Y221260D01*
X41060Y221946D01*
X40221Y222430D01*
X39391Y222653D01*
Y219000D01*
X38800D01*
Y218409D01*
X35147D01*
X35370Y217579D01*
X35807Y216823D01*
X35639Y216323D01*
X35119D01*
X34735Y216246D01*
X34409Y216029D01*
X30163Y211782D01*
X29993Y211880D01*
X29207Y212091D01*
X28393D01*
X27607Y211880D01*
X26902Y211473D01*
X26327Y210898D01*
X25920Y210193D01*
X25709Y209407D01*
Y208593D01*
X25920Y207807D01*
X26018Y207637D01*
X24703Y206323D01*
X21200D01*
X20993Y206823D01*
X21273Y207102D01*
X21680Y207807D01*
X21891Y208593D01*
Y209407D01*
X21680Y210193D01*
X21273Y210898D01*
X20698Y211473D01*
X19993Y211880D01*
X19207Y212091D01*
X18393D01*
X17607Y211880D01*
X16902Y211473D01*
X16327Y210898D01*
X15920Y210193D01*
X15709Y209407D01*
Y208593D01*
X15920Y207807D01*
X16327Y207102D01*
X16607Y206823D01*
X16400Y206323D01*
X-3638D01*
X-15313Y217997D01*
X-15638Y218215D01*
X-16023Y218291D01*
X-42013D01*
X-42480Y218370D01*
Y219847D01*
X-48976D01*
X-55472D01*
Y218370D01*
X-54882D01*
Y216205D01*
X-55472D01*
Y214728D01*
X-48976D01*
X-42480D01*
Y216205D01*
X-42013Y216284D01*
X-16438D01*
X-4764Y204609D01*
X-4438Y204392D01*
X-4054Y204315D01*
X25119D01*
X25503Y204392D01*
X25828Y204609D01*
X27437Y206218D01*
X27607Y206120D01*
X28393Y205909D01*
X29207D01*
X29993Y206120D01*
X30698Y206527D01*
X31273Y207102D01*
X31680Y207807D01*
X31890Y208593D01*
Y209407D01*
X31680Y210193D01*
X31582Y210363D01*
X35535Y214316D01*
X40325D01*
X40709Y214392D01*
X41034Y214609D01*
X58246Y231821D01*
X58463Y232146D01*
X58540Y232530D01*
Y318893D01*
X58644Y318997D01*
X271268D01*
X271652Y319073D01*
X271977Y319290D01*
X274493Y321806D01*
X275035Y321641D01*
X275046Y321586D01*
X275395Y321065D01*
X275656Y320890D01*
X275677Y320774D01*
X275654Y320558D01*
X275558Y320354D01*
X275429Y320328D01*
X275249Y320293D01*
X275249Y320292D01*
X275249Y320292D01*
X275020Y320140D01*
X274923Y320075D01*
X274923Y320075D01*
X274923Y320075D01*
X273655Y318806D01*
X273521Y318607D01*
X273437Y318481D01*
X273437Y318481D01*
X273437Y318481D01*
X273399Y318288D01*
X273361Y318097D01*
Y317694D01*
X268770Y313104D01*
X65992D01*
X65765Y313058D01*
X65608Y313027D01*
X65608Y313027D01*
X65608Y313027D01*
X65453Y312924D01*
X65282Y312810D01*
X64590Y312118D01*
X64590Y312118D01*
X64590Y312118D01*
X64494Y311974D01*
X64373Y311792D01*
X64373Y311792D01*
X64373Y311792D01*
X64333Y311593D01*
X64296Y311408D01*
X64296Y311408D01*
X64296Y311408D01*
Y230710D01*
X42928Y209342D01*
X42456Y209577D01*
X42230Y210421D01*
X41745Y211260D01*
X41060Y211946D01*
X40221Y212430D01*
X39391Y212653D01*
Y209000D01*
X38800D01*
Y208410D01*
X35147D01*
X35370Y207579D01*
X35807Y206823D01*
X35639Y206323D01*
X35119D01*
X34735Y206246D01*
X34409Y206029D01*
X30163Y201782D01*
X29993Y201880D01*
X29207Y202091D01*
X28393D01*
X27607Y201880D01*
X26902Y201473D01*
X26327Y200898D01*
X25920Y200193D01*
X25709Y199407D01*
Y198593D01*
X25920Y197807D01*
X26018Y197637D01*
X24703Y196323D01*
X21200D01*
X20993Y196823D01*
X21273Y197102D01*
X21680Y197807D01*
X21891Y198593D01*
Y199407D01*
X21680Y200193D01*
X21273Y200898D01*
X20698Y201473D01*
X19993Y201880D01*
X19207Y202091D01*
X18393D01*
X17607Y201880D01*
X16902Y201473D01*
X16327Y200898D01*
X15920Y200193D01*
X15709Y199407D01*
Y198593D01*
X15920Y197807D01*
X16327Y197102D01*
X16607Y196823D01*
X16400Y196323D01*
X-1788D01*
X-17163Y211698D01*
X-17489Y211915D01*
X-17873Y211992D01*
X-42013D01*
X-42480Y212071D01*
Y213547D01*
X-48976D01*
X-55472D01*
Y212071D01*
X-54882D01*
Y209906D01*
X-55472D01*
Y208429D01*
X-48976D01*
X-42480D01*
Y209906D01*
X-42013Y209985D01*
X-18289D01*
X-2913Y194609D01*
X-2588Y194392D01*
X-2204Y194316D01*
X25119D01*
X25503Y194392D01*
X25828Y194609D01*
X27437Y196218D01*
X27607Y196120D01*
X28393Y195910D01*
X28431D01*
X28622Y195448D01*
X23178Y190004D01*
X21731D01*
X21680Y190193D01*
X21273Y190898D01*
X20698Y191473D01*
X19993Y191880D01*
X19207Y192091D01*
X18393D01*
X17607Y191880D01*
X16902Y191473D01*
X16327Y190898D01*
X15920Y190193D01*
X15709Y189407D01*
Y188593D01*
X15920Y187807D01*
X16327Y187102D01*
X16607Y186823D01*
X16400Y186323D01*
X63D01*
X-19014Y205399D01*
X-19339Y205616D01*
X-19723Y205693D01*
X-42013D01*
X-42480Y205772D01*
Y207248D01*
X-48976D01*
X-55472D01*
Y205772D01*
X-54882D01*
Y203606D01*
X-55472D01*
Y202130D01*
X-48976D01*
X-42480D01*
Y203606D01*
X-42013Y203685D01*
X-20139D01*
X-1063Y184609D01*
X-737Y184392D01*
X-353Y184316D01*
X22043D01*
X22234Y183853D01*
X20163Y181782D01*
X19993Y181880D01*
X19207Y182091D01*
X18393D01*
X17607Y181880D01*
X16902Y181473D01*
X16327Y180898D01*
X15920Y180193D01*
X15709Y179407D01*
Y178593D01*
X15920Y177807D01*
X16327Y177102D01*
X16607Y176823D01*
X16400Y176323D01*
X86D01*
X-22691Y199099D01*
X-23017Y199317D01*
X-23401Y199393D01*
X-42013D01*
X-42480Y199472D01*
Y200949D01*
X-48976D01*
X-55472D01*
Y199472D01*
X-54882D01*
Y196913D01*
X-43071D01*
Y197386D01*
X-23816D01*
X-1039Y174609D01*
X-714Y174392D01*
X-330Y174316D01*
X16543D01*
X16734Y173854D01*
X14290Y171410D01*
X14073Y171084D01*
X13996Y170700D01*
Y167594D01*
X14073Y167210D01*
X14290Y166884D01*
X18009Y163165D01*
X17818Y162704D01*
X8516D01*
X-8983Y180202D01*
X-9308Y180419D01*
X-9692Y180496D01*
X-42013D01*
X-42480Y180575D01*
Y182051D01*
X-48976D01*
X-55472D01*
Y180575D01*
X-54882D01*
Y178410D01*
X-55472D01*
Y176933D01*
X-48976D01*
X-42480D01*
Y178410D01*
X-42013Y178489D01*
X-10108D01*
X-6002Y174382D01*
X-6320Y173994D01*
X-6509Y174120D01*
X-6893Y174196D01*
X-42013D01*
X-42480Y174276D01*
Y175752D01*
X-48976D01*
X-55472D01*
Y174276D01*
X-54882D01*
Y172110D01*
X-55472D01*
Y170634D01*
X-48976D01*
X-42480D01*
Y172110D01*
X-42013Y172189D01*
X-7309D01*
X-3478Y168359D01*
X-3670Y167897D01*
X-42013D01*
X-42480Y167976D01*
Y169453D01*
X-48976D01*
X-55472D01*
Y167976D01*
X-54882D01*
Y165811D01*
X-55472D01*
Y164335D01*
X-48976D01*
X-42480D01*
Y165811D01*
X-42013Y165890D01*
X-3236D01*
X594Y162060D01*
X403Y161598D01*
X-42013D01*
X-42480Y161677D01*
Y163154D01*
X-48976D01*
X-55472D01*
Y161677D01*
X-54882D01*
Y159512D01*
X-55472D01*
Y158035D01*
X-48976D01*
X-42480D01*
Y159512D01*
X-42013Y159591D01*
X836D01*
X5586Y154841D01*
X5911Y154623D01*
X6295Y154547D01*
X13734D01*
X14315Y153965D01*
Y136011D01*
X13815Y135804D01*
X-5386Y155005D01*
X-5711Y155222D01*
X-6095Y155299D01*
X-42013D01*
X-42480Y155378D01*
Y156854D01*
X-48976D01*
X-55472D01*
Y155378D01*
X-54882D01*
Y153212D01*
X-55472D01*
Y151736D01*
X-48976D01*
X-42480D01*
Y153212D01*
X-42013Y153292D01*
X-6511D01*
X-2637Y149418D01*
X-2884Y148957D01*
X-3096Y149000D01*
X-42013D01*
X-42480Y149079D01*
Y150555D01*
X-48976D01*
X-55472D01*
Y149079D01*
X-54882D01*
Y146520D01*
X-54882D01*
Y146323D01*
X-54882D01*
Y143764D01*
X-55472D01*
Y142287D01*
X-48976D01*
X-42480D01*
Y143764D01*
X-42013Y143843D01*
X-7081D01*
X13471Y123291D01*
Y116219D01*
X13548Y115835D01*
X13765Y115510D01*
X17662Y111612D01*
X17988Y111395D01*
X18367Y111319D01*
X19196Y110491D01*
X18989Y109991D01*
X18593D01*
X17807Y109780D01*
X17102Y109373D01*
X16527Y108798D01*
X16120Y108093D01*
X15909Y107307D01*
Y106911D01*
X15409Y106704D01*
X6364Y115750D01*
X6478Y116026D01*
Y116574D01*
X6268Y117080D01*
X5881Y117468D01*
X5374Y117678D01*
X4826D01*
X4319Y117468D01*
X3932Y117080D01*
X3722Y116574D01*
Y116026D01*
X3932Y115519D01*
X4307Y115145D01*
X4324Y115059D01*
X4541Y114734D01*
X18149Y101126D01*
X18474Y100909D01*
X18853Y100833D01*
X19196Y100491D01*
X18989Y99991D01*
X18593D01*
X17807Y99780D01*
X17637Y99682D01*
X2473Y114846D01*
Y115346D01*
X2396Y115730D01*
X2179Y116056D01*
X1244Y116990D01*
X918Y117208D01*
X917Y117208D01*
X916Y117212D01*
X528Y117600D01*
X22Y117809D01*
X-527D01*
X-1033Y117600D01*
X-1421Y117212D01*
X-1506Y117005D01*
X-2092Y116884D01*
X-9797Y124589D01*
Y137855D01*
X-9873Y138239D01*
X-10090Y138565D01*
X-10782Y139257D01*
X-11108Y139474D01*
X-11492Y139551D01*
X-42013D01*
X-42480Y139630D01*
Y141106D01*
X-48976D01*
X-55472D01*
Y139630D01*
X-54882D01*
Y137071D01*
X-54882D01*
Y136874D01*
X-54882D01*
Y134315D01*
X-55472D01*
Y132839D01*
X-48976D01*
X-42480D01*
Y134315D01*
X-42013Y134394D01*
X-14108D01*
X-14004Y134290D01*
Y124578D01*
X-14171Y124131D01*
X-14483Y124103D01*
X-18284D01*
X-23989Y129808D01*
X-24314Y130026D01*
X-24698Y130102D01*
X-42013D01*
X-42480Y130181D01*
Y131658D01*
X-48976D01*
X-55472D01*
Y130181D01*
X-54882D01*
Y127622D01*
X-54882D01*
Y127425D01*
X-54882D01*
Y124472D01*
X-54882D01*
Y124276D01*
X-54882D01*
Y121626D01*
X-54882Y121323D01*
X-54882Y120823D01*
Y118567D01*
X-55472D01*
Y117091D01*
X-48976D01*
X-42480D01*
Y118567D01*
X-42013Y118646D01*
X-29765D01*
X-26768Y115648D01*
X-26442Y115431D01*
X-26058Y115355D01*
X-25324D01*
X-25160Y115190D01*
X-24653Y114980D01*
X-24105D01*
X-23599Y115190D01*
X-23211Y115577D01*
X-23001Y116084D01*
Y116632D01*
X-23211Y117139D01*
X-23599Y117526D01*
X-24105Y117736D01*
X-24071Y118222D01*
X-23826D01*
X-23320Y118432D01*
X-22932Y118819D01*
X-22722Y119326D01*
Y119423D01*
X-22222Y119630D01*
X-11682Y109090D01*
X-11357Y108873D01*
X-10973Y108797D01*
X-3893D01*
X-3836Y108703D01*
X-4118Y108203D01*
X-25684D01*
X-31541Y114060D01*
X-31866Y114278D01*
X-32250Y114354D01*
X-42013D01*
X-42480Y114433D01*
Y115910D01*
X-48976D01*
X-55472D01*
Y114433D01*
X-54882D01*
Y111874D01*
X-43071D01*
Y112347D01*
X-32666D01*
X-26810Y106490D01*
X-26484Y106273D01*
X-26100Y106196D01*
X-3897D01*
X4496Y97803D01*
Y52492D01*
X4573Y52108D01*
X4790Y51782D01*
X5482Y51090D01*
X5808Y50873D01*
X6192Y50797D01*
X13900D01*
X14284Y50873D01*
X14609Y51090D01*
X17541Y54022D01*
X18017Y53828D01*
Y47664D01*
X16974D01*
Y43136D01*
X18037D01*
Y38964D01*
X16974D01*
Y34436D01*
X21001D01*
X21108Y34436D01*
X21501Y34179D01*
Y33846D01*
X23568D01*
Y36700D01*
Y39554D01*
X21501D01*
Y39221D01*
X21108Y38964D01*
X21001Y38964D01*
X20044D01*
Y43136D01*
X21108D01*
Y47664D01*
X20024D01*
Y53975D01*
X20193Y54020D01*
X20898Y54427D01*
X21473Y55002D01*
X21880Y55707D01*
X22091Y56493D01*
Y57307D01*
X21880Y58093D01*
X21473Y58798D01*
X20898Y59373D01*
X20193Y59780D01*
X19407Y59991D01*
X18593D01*
X17807Y59780D01*
X17102Y59373D01*
X16527Y58798D01*
X16120Y58093D01*
X15909Y57307D01*
Y56493D01*
X16120Y55707D01*
X16218Y55537D01*
X13484Y52803D01*
X6608D01*
X6504Y52908D01*
Y98062D01*
X6910Y98274D01*
X6988Y98285D01*
X7497Y97776D01*
Y63819D01*
X7573Y63435D01*
X7790Y63109D01*
X9454Y61446D01*
X9779Y61229D01*
X10163Y61152D01*
X39462D01*
X39846Y61229D01*
X40171Y61446D01*
X44965Y66241D01*
X45183Y66566D01*
X45259Y66950D01*
Y91644D01*
X45183Y92028D01*
X44965Y92354D01*
X41782Y95537D01*
X41880Y95707D01*
X42090Y96493D01*
Y97307D01*
X41880Y98093D01*
X41473Y98798D01*
X40898Y99373D01*
X40193Y99780D01*
X39407Y99991D01*
X38593D01*
X37807Y99780D01*
X37102Y99373D01*
X36527Y98798D01*
X36120Y98093D01*
X35909Y97307D01*
Y96493D01*
X36120Y95707D01*
X36527Y95002D01*
X37102Y94427D01*
X37807Y94020D01*
X38593Y93809D01*
X39407D01*
X40193Y94020D01*
X40363Y94118D01*
X43252Y91228D01*
Y67366D01*
X42590Y66704D01*
X42090Y66911D01*
Y67307D01*
X41880Y68093D01*
X41473Y68798D01*
X40898Y69373D01*
X40193Y69780D01*
X39407Y69991D01*
X38593D01*
X37807Y69780D01*
X37102Y69373D01*
X36527Y68798D01*
X36120Y68093D01*
X35909Y67307D01*
Y66493D01*
X36120Y65707D01*
X36527Y65002D01*
X37102Y64427D01*
X37807Y64020D01*
X38558Y63819D01*
X38598Y63799D01*
X38818Y63310D01*
X38717Y63160D01*
X10579D01*
X9504Y64235D01*
Y68674D01*
X9620Y68718D01*
X10003Y68757D01*
X10165Y68516D01*
X12490Y66190D01*
X12816Y65973D01*
X13200Y65896D01*
X16069D01*
X16120Y65707D01*
X16527Y65002D01*
X17102Y64427D01*
X17807Y64020D01*
X18593Y63810D01*
X19407D01*
X20193Y64020D01*
X20898Y64427D01*
X21473Y65002D01*
X21880Y65707D01*
X22091Y66493D01*
Y67307D01*
X21880Y68093D01*
X21473Y68798D01*
X20898Y69373D01*
X20193Y69780D01*
X19407Y69991D01*
X18593D01*
X17807Y69780D01*
X17102Y69373D01*
X16527Y68798D01*
X16120Y68093D01*
X16069Y67904D01*
X13616D01*
X11878Y69641D01*
Y87125D01*
X11802Y87509D01*
X11598Y87814D01*
Y97475D01*
X12060Y97667D01*
X12741Y96986D01*
Y94723D01*
X12817Y94339D01*
X13035Y94013D01*
X13846Y93202D01*
Y85765D01*
X13922Y85381D01*
X14140Y85055D01*
X17996Y81199D01*
Y79831D01*
X17807Y79780D01*
X17102Y79373D01*
X16527Y78798D01*
X16120Y78093D01*
X15909Y77307D01*
Y76493D01*
X16120Y75707D01*
X16527Y75002D01*
X17102Y74427D01*
X17807Y74020D01*
X18593Y73809D01*
X19407D01*
X20193Y74020D01*
X20898Y74427D01*
X21473Y75002D01*
X21880Y75707D01*
X22091Y76493D01*
Y77307D01*
X21880Y78093D01*
X21473Y78798D01*
X20898Y79373D01*
X20193Y79780D01*
X20004Y79831D01*
Y81614D01*
X19927Y81998D01*
X19710Y82324D01*
X18724Y83310D01*
X18931Y83810D01*
X19407D01*
X20193Y84020D01*
X20898Y84427D01*
X21473Y85002D01*
X21880Y85707D01*
X22091Y86493D01*
Y87307D01*
X21880Y88093D01*
X21473Y88798D01*
X20898Y89373D01*
X20193Y89780D01*
X20004Y89831D01*
Y91694D01*
X19927Y92078D01*
X19710Y92404D01*
X18804Y93309D01*
X19011Y93809D01*
X19407D01*
X20193Y94020D01*
X20898Y94427D01*
X21473Y95002D01*
X22057Y95013D01*
X22100Y94948D01*
X27023Y90025D01*
X27120Y89960D01*
X27165Y89574D01*
X27118Y89382D01*
X27102Y89373D01*
X26527Y88798D01*
X26120Y88093D01*
X25909Y87307D01*
Y86493D01*
X26120Y85707D01*
X26527Y85002D01*
X27102Y84427D01*
X27807Y84020D01*
X28593Y83810D01*
X29407D01*
X30193Y84020D01*
X30898Y84427D01*
X31473Y85002D01*
X31880Y85707D01*
X32090Y86493D01*
Y86889D01*
X32590Y87096D01*
X33357Y86330D01*
X33432Y85951D01*
X33650Y85625D01*
X37996Y81279D01*
Y79831D01*
X37807Y79780D01*
X37102Y79373D01*
X36527Y78798D01*
X36120Y78093D01*
X35909Y77307D01*
Y76493D01*
X36120Y75707D01*
X36527Y75002D01*
X37102Y74427D01*
X37807Y74020D01*
X38593Y73809D01*
X39407D01*
X40193Y74020D01*
X40898Y74427D01*
X41473Y75002D01*
X41880Y75707D01*
X42090Y76493D01*
Y77307D01*
X41880Y78093D01*
X41473Y78798D01*
X40898Y79373D01*
X40193Y79780D01*
X40003Y79831D01*
Y81694D01*
X39927Y82078D01*
X39710Y82404D01*
X38804Y83310D01*
X39011Y83810D01*
X39407D01*
X40193Y84020D01*
X40898Y84427D01*
X41473Y85002D01*
X41880Y85707D01*
X42090Y86493D01*
Y87307D01*
X41880Y88093D01*
X41473Y88798D01*
X40898Y89373D01*
X40193Y89780D01*
X39407Y89991D01*
X38593D01*
X37807Y89780D01*
X37102Y89373D01*
X36527Y88798D01*
X36120Y88093D01*
X35932Y87392D01*
X35737Y87227D01*
X35409Y87076D01*
X35286Y87131D01*
X35069Y87456D01*
X31081Y91444D01*
X30755Y91662D01*
X30486Y91715D01*
X30525Y92215D01*
X30909Y92292D01*
X31234Y92509D01*
X33391Y94666D01*
X33608Y94991D01*
X33685Y95375D01*
Y98290D01*
X34454Y99059D01*
X34671Y99385D01*
X34748Y99769D01*
Y111228D01*
X37637Y114118D01*
X37807Y114020D01*
X38593Y113810D01*
X39407D01*
X40193Y114020D01*
X40898Y114427D01*
X41473Y115002D01*
X41880Y115707D01*
X42090Y116493D01*
Y117307D01*
X41880Y118093D01*
X41473Y118798D01*
X40898Y119373D01*
X40193Y119780D01*
X39407Y119991D01*
X38593D01*
X37807Y119780D01*
X37102Y119373D01*
X36527Y118798D01*
X36120Y118093D01*
X35909Y117307D01*
Y116493D01*
X36120Y115707D01*
X36218Y115537D01*
X33035Y112354D01*
X32817Y112028D01*
X32741Y111644D01*
Y100185D01*
X31971Y99416D01*
X31808Y99170D01*
X31441Y99058D01*
X31234Y99037D01*
X30898Y99373D01*
X30193Y99780D01*
X29407Y99991D01*
X28593D01*
X27807Y99780D01*
X27637Y99682D01*
X25260Y102060D01*
Y113362D01*
X25721Y113554D01*
X27996Y111278D01*
Y109831D01*
X27807Y109780D01*
X27102Y109373D01*
X26527Y108798D01*
X26120Y108093D01*
X25909Y107307D01*
Y106493D01*
X26120Y105707D01*
X26527Y105002D01*
X27102Y104427D01*
X27807Y104020D01*
X28593Y103809D01*
X29407D01*
X30193Y104020D01*
X30898Y104427D01*
X31473Y105002D01*
X31880Y105707D01*
X32090Y106493D01*
Y107307D01*
X31880Y108093D01*
X31473Y108798D01*
X30898Y109373D01*
X30193Y109780D01*
X30003Y109831D01*
Y111694D01*
X29927Y112078D01*
X29710Y112404D01*
X28804Y113310D01*
X29011Y113810D01*
X29407D01*
X30193Y114020D01*
X30898Y114427D01*
X31473Y115002D01*
X31880Y115707D01*
X32090Y116493D01*
Y117307D01*
X31880Y118093D01*
X31473Y118798D01*
X30898Y119373D01*
X30193Y119780D01*
X30003Y119831D01*
Y121694D01*
X29927Y122078D01*
X29710Y122404D01*
X28804Y123310D01*
X29011Y123810D01*
X29407D01*
X30193Y124020D01*
X30898Y124427D01*
X31473Y125002D01*
X31880Y125707D01*
X32090Y126493D01*
Y127307D01*
X31880Y128093D01*
X31473Y128798D01*
X30898Y129373D01*
X30193Y129780D01*
X30003Y129831D01*
Y131694D01*
X29927Y132078D01*
X29710Y132404D01*
X28804Y133309D01*
X29011Y133809D01*
X29407D01*
X30193Y134020D01*
X30898Y134427D01*
X31473Y135002D01*
X31880Y135707D01*
X32090Y136493D01*
Y137307D01*
X31880Y138093D01*
X31473Y138798D01*
X30898Y139373D01*
X30193Y139780D01*
X30003Y139831D01*
Y141694D01*
X29927Y142078D01*
X29710Y142404D01*
X28804Y143309D01*
X29011Y143809D01*
X29407D01*
X30193Y144020D01*
X30363Y144118D01*
X34609Y139871D01*
X34935Y139654D01*
X35319Y139577D01*
X35839D01*
X36007Y139077D01*
X35570Y138321D01*
X35347Y137491D01*
X39000D01*
X42653D01*
X42469Y138178D01*
X42917Y138437D01*
X141729Y39625D01*
X142054Y39408D01*
X142438Y39331D01*
X279055D01*
X279322Y38831D01*
X278997Y38345D01*
X278947Y38091D01*
X283793D01*
Y37500D01*
X284384D01*
Y35292D01*
X286549D01*
X286671Y35317D01*
X286918Y34856D01*
X286168Y34106D01*
X281037D01*
X280423Y33983D01*
X280305Y33905D01*
X264643D01*
X264106Y33798D01*
X263650Y33494D01*
X253701Y23545D01*
X249586D01*
Y16655D01*
X255688D01*
Y21558D01*
X265225Y31095D01*
X280305D01*
X280423Y31017D01*
X281037Y30894D01*
X286549D01*
X287163Y31017D01*
X287684Y31365D01*
X288032Y31886D01*
X288060Y32024D01*
X293594Y37558D01*
X293898Y38014D01*
X293898Y38014D01*
X294005Y38551D01*
Y61347D01*
X293898Y61884D01*
X293593Y62340D01*
X292440Y63494D01*
X291985Y63798D01*
X291447Y63905D01*
X287281D01*
X287163Y63984D01*
X286549Y64106D01*
X281318D01*
X280543Y64881D01*
X280789Y65342D01*
X281037Y65292D01*
X283202D01*
Y67500D01*
Y69708D01*
X281037D01*
X280192Y69540D01*
X279476Y69061D01*
X278997Y68345D01*
X278829Y67500D01*
X278878Y67253D01*
X278418Y67006D01*
X260105Y85319D01*
Y128618D01*
X283993Y152506D01*
X284298Y152962D01*
X284405Y153500D01*
Y165194D01*
X284649D01*
X285263Y165317D01*
X285784Y165665D01*
X286132Y166186D01*
X286254Y166800D01*
X286148Y167336D01*
X286381Y167836D01*
X290509D01*
X291046Y167943D01*
X291502Y168247D01*
X292695Y169440D01*
X293195Y169233D01*
Y128301D01*
X283013Y118119D01*
X279488D01*
Y112607D01*
X285000D01*
Y116132D01*
X295593Y126725D01*
X295898Y127181D01*
X296005Y127719D01*
Y224004D01*
X295898Y224541D01*
X295593Y224997D01*
X284108Y236482D01*
X284300Y236944D01*
X285256D01*
Y240469D01*
X291956Y247169D01*
X292260Y247624D01*
X292367Y248162D01*
Y365309D01*
X292260Y365847D01*
X291956Y366303D01*
X282225Y376033D01*
Y379558D01*
X276714D01*
Y378207D01*
X171265D01*
X170728Y378100D01*
X170272Y377796D01*
X126007Y333530D01*
X32771D01*
X32598Y334030D01*
X33030Y334779D01*
X33253Y335610D01*
X29600D01*
X25947D01*
X26170Y334779D01*
X26602Y334030D01*
X26429Y333530D01*
X22771D01*
X22598Y334030D01*
X23030Y334779D01*
X23253Y335610D01*
X19600D01*
X15947D01*
X16170Y334779D01*
X16654Y333940D01*
X17340Y333254D01*
X17884Y332940D01*
X17980Y332330D01*
X14532Y328881D01*
X14227Y328426D01*
X14120Y327888D01*
Y324512D01*
X14227Y323974D01*
X14532Y323519D01*
X17980Y320070D01*
X17884Y319460D01*
X17340Y319146D01*
X16654Y318460D01*
X16170Y317621D01*
X15947Y316791D01*
X19600D01*
Y316200D01*
X20190D01*
Y312547D01*
X21021Y312770D01*
X21860Y313254D01*
X22546Y313940D01*
X23030Y314779D01*
X23142Y315196D01*
X23720Y315423D01*
X23845Y315346D01*
Y286669D01*
X23190Y286015D01*
X22691Y286222D01*
Y286607D01*
X22480Y287393D01*
X22073Y288098D01*
X21498Y288673D01*
X20793Y289080D01*
X20007Y289291D01*
X19193D01*
X18407Y289080D01*
X17702Y288673D01*
X17127Y288098D01*
X16720Y287393D01*
X16509Y286607D01*
Y286516D01*
X15402Y285408D01*
X3310D01*
Y289575D01*
X-2612D01*
X-2804Y290037D01*
X10590Y303430D01*
X17308D01*
X17846Y303537D01*
X17932Y303594D01*
X18407Y303320D01*
X19193Y303110D01*
X20007D01*
X20793Y303320D01*
X21498Y303727D01*
X22073Y304302D01*
X22480Y305007D01*
X22691Y305793D01*
Y306607D01*
X22480Y307393D01*
X22073Y308098D01*
X21498Y308673D01*
X20793Y309080D01*
X20007Y309291D01*
X19193D01*
X18407Y309080D01*
X17702Y308673D01*
X17127Y308098D01*
X16720Y307393D01*
X16509Y306607D01*
Y306240D01*
X10008D01*
X9470Y306133D01*
X9014Y305829D01*
X384Y297198D01*
X-78Y297390D01*
Y386522D01*
X7101Y393701D01*
X11811D01*
X297100Y393701D01*
X297600Y393283D01*
D02*
G37*
G36*
X277930Y193091D02*
X277976Y192896D01*
X277653Y192414D01*
X277531Y191800D01*
X277653Y191186D01*
X278001Y190665D01*
X278294Y190469D01*
X278143Y189969D01*
X157726D01*
X157342Y189893D01*
X157016Y189675D01*
X152088Y184748D01*
X26620D01*
X26429Y185210D01*
X27437Y186218D01*
X27607Y186120D01*
X28393Y185909D01*
X29207D01*
X29993Y186120D01*
X30698Y186527D01*
X31273Y187102D01*
X31680Y187807D01*
X31890Y188593D01*
Y189407D01*
X31680Y190193D01*
X31582Y190363D01*
X34616Y193396D01*
X277792D01*
X277930Y193091D01*
D02*
G37*
G36*
X282483Y199592D02*
X284649D01*
X285493Y199760D01*
X286210Y200239D01*
X286580Y200793D01*
X287154Y200927D01*
X287165Y200916D01*
X287620Y200612D01*
X288158Y200505D01*
X290611D01*
Y171330D01*
X289927Y170646D01*
X287037D01*
X286726Y171146D01*
X286739Y171210D01*
X281893D01*
X277046D01*
X277097Y170955D01*
X277229Y170757D01*
X277135Y170284D01*
X277093Y170241D01*
X277083Y170234D01*
X277076Y170223D01*
X277028Y170174D01*
X276326D01*
X275788Y170067D01*
X275332Y169762D01*
X261075Y155505D01*
X254288D01*
Y157545D01*
X248186D01*
Y150655D01*
X254288D01*
Y152695D01*
X267400D01*
X267938Y152802D01*
X268393Y153107D01*
X280055Y164768D01*
X280168Y164937D01*
X280265Y164956D01*
X280621Y165194D01*
X281595D01*
Y154082D01*
X257707Y130193D01*
X257402Y129738D01*
X257295Y129200D01*
Y84737D01*
X257402Y84200D01*
X257706Y83744D01*
X279551Y61899D01*
X279554Y61886D01*
X279902Y61365D01*
X280423Y61017D01*
X281037Y60894D01*
X286549D01*
X287163Y61017D01*
X287281Y61095D01*
X290865D01*
X291195Y60765D01*
Y39133D01*
X289193Y37131D01*
X288732Y37378D01*
X288757Y37500D01*
X288589Y38345D01*
X288110Y39061D01*
X288155Y39625D01*
X289424Y40893D01*
X289641Y41219D01*
X289718Y41603D01*
Y50335D01*
X289683Y50508D01*
X289641Y50719D01*
X289641Y50719D01*
X289424Y51044D01*
X288124Y52345D01*
X288155Y52500D01*
X288032Y53114D01*
X287684Y53635D01*
X287163Y53983D01*
X286549Y54106D01*
X281037D01*
X280423Y53983D01*
X279902Y53635D01*
X279554Y53114D01*
X279431Y52500D01*
X279554Y51886D01*
X279902Y51365D01*
X280423Y51017D01*
X281037Y50894D01*
X286549D01*
X286704Y50925D01*
X287711Y49919D01*
Y49219D01*
X287211Y48952D01*
X287163Y48983D01*
X286549Y49106D01*
X281037D01*
X280423Y48983D01*
X279902Y48635D01*
X279814Y48504D01*
X143816D01*
X43633Y148687D01*
X43608Y148809D01*
X43608Y148809D01*
X43608Y148809D01*
X43391Y149134D01*
X41234Y151291D01*
X40909Y151508D01*
X40909Y151508D01*
X40787Y151532D01*
X29803Y162516D01*
Y166069D01*
X29993Y166120D01*
X30698Y166527D01*
X31273Y167102D01*
X31680Y167807D01*
X31890Y168593D01*
Y169407D01*
X31680Y170193D01*
X31273Y170898D01*
X30698Y171473D01*
X29993Y171880D01*
X29207Y172091D01*
X28811D01*
X28604Y172591D01*
X30329Y174316D01*
X146734D01*
X147119Y174392D01*
X147444Y174609D01*
X158931Y186097D01*
X218101D01*
X218107Y186090D01*
X218432Y185873D01*
X218816Y185796D01*
X277913D01*
X278001Y185665D01*
X278522Y185317D01*
X279137Y185194D01*
X284649D01*
X285263Y185317D01*
X285311Y185348D01*
X285811Y185081D01*
Y183519D01*
X285311Y183252D01*
X285263Y183283D01*
X284649Y183406D01*
X279137D01*
X278522Y183283D01*
X278001Y182935D01*
X277653Y182414D01*
X277531Y181800D01*
X277562Y181644D01*
X276262Y180344D01*
X276044Y180019D01*
X275968Y179635D01*
Y175903D01*
X276044Y175519D01*
X276262Y175193D01*
X277530Y173925D01*
X277576Y173361D01*
X277097Y172645D01*
X277046Y172391D01*
X281893D01*
X286739D01*
X286688Y172645D01*
X286210Y173361D01*
X286255Y173925D01*
X289099Y176768D01*
X289316Y177094D01*
X289392Y177478D01*
Y193708D01*
X289392Y193708D01*
X289392Y193708D01*
X289363Y193855D01*
X289316Y194092D01*
X289316Y194092D01*
X289316Y194092D01*
X289194Y194274D01*
X289099Y194418D01*
X289099Y194418D01*
X289098Y194418D01*
X288406Y195110D01*
X288231Y195227D01*
X288081Y195327D01*
X288081Y195327D01*
X288081Y195327D01*
X287909Y195361D01*
X287697Y195404D01*
X286211D01*
X285944Y195904D01*
X286132Y196186D01*
X286254Y196800D01*
X286132Y197415D01*
X285784Y197935D01*
X285263Y198283D01*
X284649Y198406D01*
X280437D01*
X280360Y198794D01*
X280160Y199092D01*
X280374Y199592D01*
X281302D01*
Y201800D01*
X282483D01*
Y199592D01*
D02*
G37*
G36*
X152237Y182241D02*
X146319Y176323D01*
X41961D01*
X41793Y176823D01*
X42230Y177579D01*
X42453Y178410D01*
X38800D01*
X35147D01*
X35370Y177579D01*
X35807Y176823D01*
X35639Y176323D01*
X31200D01*
X30993Y176823D01*
X31273Y177102D01*
X31680Y177807D01*
X31890Y178593D01*
Y179407D01*
X31680Y180193D01*
X31273Y180898D01*
X30698Y181473D01*
X29993Y181880D01*
X29207Y182091D01*
X28393D01*
X27607Y181880D01*
X26902Y181473D01*
X26327Y180898D01*
X25920Y180193D01*
X25709Y179407D01*
Y178593D01*
X25920Y177807D01*
X26018Y177637D01*
X24703Y176323D01*
X21200D01*
X20993Y176823D01*
X21273Y177102D01*
X21680Y177807D01*
X21891Y178593D01*
Y179407D01*
X21680Y180193D01*
X21582Y180363D01*
X23960Y182741D01*
X36917D01*
X37051Y182241D01*
X36540Y181946D01*
X35854Y181260D01*
X35370Y180421D01*
X35147Y179591D01*
X38800D01*
X42453D01*
X42230Y180421D01*
X41745Y181260D01*
X41060Y181946D01*
X40549Y182241D01*
X40683Y182741D01*
X152030D01*
X152237Y182241D01*
D02*
G37*
G36*
X545200Y-0D02*
X306000D01*
Y119000D01*
Y125397D01*
X545200D01*
Y-0D01*
D02*
G37*
G36*
X546400Y134700D02*
X304800D01*
Y251800D01*
Y255797D01*
X546400D01*
Y134700D01*
D02*
G37*
G36*
X548300Y393497D02*
Y265700D01*
X545400Y262800D01*
X534392D01*
X534295Y263290D01*
X534546Y263395D01*
X536145Y264463D01*
X537505Y265823D01*
X538574Y267422D01*
X539310Y269199D01*
X539685Y271086D01*
Y273009D01*
X539310Y274895D01*
X538574Y276672D01*
X537505Y278271D01*
X536145Y279631D01*
X534546Y280700D01*
X532769Y281436D01*
X530883Y281811D01*
X528960D01*
X527073Y281436D01*
X525296Y280700D01*
X523697Y279631D01*
X522337Y278271D01*
X521269Y276672D01*
X520533Y274895D01*
X520158Y273009D01*
Y271086D01*
X520533Y269199D01*
X521269Y267422D01*
X522337Y265823D01*
X523697Y264463D01*
X525296Y263395D01*
X525548Y263290D01*
X525451Y262800D01*
X305500D01*
Y393383D01*
X305854Y393737D01*
X548300Y393497D01*
D02*
G37*
%LPC*%
G36*
X282042Y339408D02*
X279876D01*
Y337791D01*
X284132D01*
X284081Y338045D01*
X283603Y338761D01*
X282887Y339240D01*
X282042Y339408D01*
D02*
G37*
G36*
X278695D02*
X276530D01*
X275685Y339240D01*
X274969Y338761D01*
X274490Y338045D01*
X274440Y337791D01*
X278695D01*
Y339408D01*
D02*
G37*
G36*
X284132Y336610D02*
X279876D01*
Y334992D01*
X282042D01*
X282887Y335160D01*
X283603Y335639D01*
X284081Y336355D01*
X284132Y336610D01*
D02*
G37*
G36*
X278695D02*
X274440D01*
X274490Y336355D01*
X274969Y335639D01*
X275685Y335160D01*
X276530Y334992D01*
X278695D01*
Y336610D01*
D02*
G37*
G36*
X290060Y380108D02*
Y377393D01*
X292776D01*
X292588Y378094D01*
X292147Y378857D01*
X291524Y379480D01*
X290761Y379921D01*
X290060Y380108D01*
D02*
G37*
G36*
X288879D02*
X288178Y379921D01*
X287415Y379480D01*
X286792Y378857D01*
X286351Y378094D01*
X286163Y377393D01*
X288879D01*
Y380108D01*
D02*
G37*
G36*
X292776Y376212D02*
X290060D01*
Y373496D01*
X290761Y373684D01*
X291524Y374124D01*
X292147Y374747D01*
X292588Y375511D01*
X292776Y376212D01*
D02*
G37*
G36*
X288879D02*
X286163D01*
X286351Y375511D01*
X286792Y374747D01*
X287415Y374124D01*
X288178Y373684D01*
X288879Y373496D01*
Y376212D01*
D02*
G37*
G36*
X30191Y339853D02*
Y336791D01*
X33253D01*
X33030Y337621D01*
X32546Y338460D01*
X31860Y339146D01*
X31021Y339630D01*
X30191Y339853D01*
D02*
G37*
G36*
X20190D02*
Y336791D01*
X23253D01*
X23030Y337621D01*
X22546Y338460D01*
X21860Y339146D01*
X21021Y339630D01*
X20190Y339853D01*
D02*
G37*
G36*
X29009D02*
X28179Y339630D01*
X27340Y339146D01*
X26654Y338460D01*
X26170Y337621D01*
X25947Y336791D01*
X29009D01*
Y339853D01*
D02*
G37*
G36*
X19009D02*
X18179Y339630D01*
X17340Y339146D01*
X16654Y338460D01*
X16170Y337621D01*
X15947Y336791D01*
X19009D01*
Y339853D01*
D02*
G37*
G36*
X30191Y319853D02*
Y316791D01*
X33253D01*
X33030Y317621D01*
X32546Y318460D01*
X31860Y319146D01*
X31021Y319630D01*
X30191Y319853D01*
D02*
G37*
G36*
X33253Y315610D02*
X30191D01*
Y312547D01*
X31021Y312770D01*
X31860Y313254D01*
X32546Y313940D01*
X33030Y314779D01*
X33253Y315610D01*
D02*
G37*
G36*
X19009D02*
X15947D01*
X16170Y314779D01*
X16654Y313940D01*
X17340Y313254D01*
X18179Y312770D01*
X19009Y312547D01*
Y315610D01*
D02*
G37*
G36*
X282042Y309408D02*
X279876D01*
Y307791D01*
X284132D01*
X284081Y308045D01*
X283603Y308761D01*
X282887Y309240D01*
X282042Y309408D01*
D02*
G37*
G36*
X278695D02*
X276530D01*
X275685Y309240D01*
X274969Y308761D01*
X274490Y308045D01*
X274440Y307791D01*
X278695D01*
Y309408D01*
D02*
G37*
G36*
X284132Y306610D02*
X279876D01*
Y304992D01*
X282042D01*
X282887Y305160D01*
X283603Y305639D01*
X284081Y306355D01*
X284132Y306610D01*
D02*
G37*
G36*
X278695D02*
X274440D01*
X274490Y306355D01*
X274969Y305639D01*
X275685Y305160D01*
X276530Y304992D01*
X278695D01*
Y306610D01*
D02*
G37*
G36*
X30191Y299853D02*
Y296791D01*
X33253D01*
X33030Y297621D01*
X32546Y298460D01*
X31860Y299146D01*
X31021Y299630D01*
X30191Y299853D01*
D02*
G37*
G36*
X20190D02*
Y296791D01*
X23253D01*
X23030Y297621D01*
X22546Y298460D01*
X21860Y299146D01*
X21021Y299630D01*
X20190Y299853D01*
D02*
G37*
G36*
X19009D02*
X18179Y299630D01*
X17340Y299146D01*
X16654Y298460D01*
X16170Y297621D01*
X15947Y296791D01*
X19009D01*
Y299853D01*
D02*
G37*
G36*
X33253Y295609D02*
X30191D01*
Y292547D01*
X31021Y292770D01*
X31860Y293254D01*
X32546Y293940D01*
X33030Y294779D01*
X33253Y295609D01*
D02*
G37*
G36*
X23253D02*
X20190D01*
Y292547D01*
X21021Y292770D01*
X21860Y293254D01*
X22546Y293940D01*
X23030Y294779D01*
X23253Y295609D01*
D02*
G37*
G36*
X19009D02*
X15947D01*
X16170Y294779D01*
X16654Y293940D01*
X17340Y293254D01*
X18179Y292770D01*
X19009Y292547D01*
Y295609D01*
D02*
G37*
G36*
X249805Y292435D02*
X246754D01*
Y288991D01*
X249805D01*
Y292435D01*
D02*
G37*
G36*
X245572D02*
X242521D01*
Y288991D01*
X245572D01*
Y292435D01*
D02*
G37*
G36*
X249805Y287809D02*
X246754D01*
Y284365D01*
X249805D01*
Y287809D01*
D02*
G37*
G36*
X245572D02*
X242521D01*
Y284365D01*
X245572D01*
Y287809D01*
D02*
G37*
G36*
X-42480Y282347D02*
X-48386D01*
Y280870D01*
X-42480D01*
Y282347D01*
D02*
G37*
G36*
X-49567D02*
X-55472D01*
Y280870D01*
X-49567D01*
Y282347D01*
D02*
G37*
G36*
X-42480Y279689D02*
X-48976D01*
X-55472D01*
Y278213D01*
Y277721D01*
X-48976D01*
X-42480D01*
Y278213D01*
Y279689D01*
D02*
G37*
G36*
X-15509Y289575D02*
X-22910D01*
Y278412D01*
X-25937Y275385D01*
X-42480D01*
Y276539D01*
X-48976D01*
X-55472D01*
Y275063D01*
X-54882D01*
Y272898D01*
X-55472D01*
Y271421D01*
X-48976D01*
X-42480D01*
Y272575D01*
X-25355D01*
X-24818Y272682D01*
X-24362Y272987D01*
X-20923Y276425D01*
X-15509D01*
Y289575D01*
D02*
G37*
G36*
X-15909Y272175D02*
X-23310D01*
Y269086D01*
X-42480D01*
Y270240D01*
X-48976D01*
X-55472D01*
Y268764D01*
X-54882D01*
Y266598D01*
X-55472D01*
Y265122D01*
X-48976D01*
X-42480D01*
Y266276D01*
X-23310D01*
Y259025D01*
X-15909D01*
Y272175D01*
D02*
G37*
G36*
X39391Y262653D02*
Y259591D01*
X42453D01*
X42230Y260421D01*
X41745Y261260D01*
X41060Y261946D01*
X40221Y262430D01*
X39391Y262653D01*
D02*
G37*
G36*
X38209D02*
X37379Y262430D01*
X36540Y261946D01*
X35854Y261260D01*
X35370Y260421D01*
X35147Y259591D01*
X38209D01*
Y262653D01*
D02*
G37*
G36*
X29207Y262091D02*
X28393D01*
X27607Y261880D01*
X26902Y261473D01*
X26327Y260898D01*
X25920Y260193D01*
X25709Y259407D01*
Y258593D01*
X25920Y257807D01*
X26018Y257637D01*
X23744Y255363D01*
X18953D01*
X18569Y255287D01*
X18244Y255069D01*
X12190Y249016D01*
X11973Y248690D01*
X11896Y248306D01*
Y243816D01*
X6084Y238003D01*
X-33593D01*
X-33696Y238108D01*
Y240900D01*
X-33773Y241284D01*
X-33990Y241610D01*
X-41382Y249001D01*
X-41707Y249218D01*
X-42091Y249295D01*
X-43071D01*
Y249866D01*
X-42480D01*
Y251343D01*
X-48976D01*
X-55472D01*
Y249866D01*
X-54882D01*
Y247701D01*
X-55472D01*
Y246224D01*
X-48976D01*
Y245043D01*
X-55472D01*
Y243567D01*
X-54882D01*
Y241402D01*
X-55472D01*
Y239925D01*
X-48976D01*
X-42480D01*
Y240308D01*
X-42018Y240499D01*
X-35523Y234003D01*
X-35666Y233557D01*
X-35707Y233504D01*
X-40039D01*
X-42347Y235812D01*
X-42673Y236030D01*
X-43047Y236104D01*
X-43071Y236128D01*
Y237268D01*
X-42480D01*
Y238744D01*
X-48976D01*
X-55472D01*
Y237268D01*
X-54882D01*
Y235102D01*
X-55472D01*
Y233626D01*
X-48976D01*
Y232445D01*
X-55472D01*
Y230968D01*
X-54882D01*
Y228803D01*
X-55472D01*
Y227327D01*
X-48976D01*
X-42480D01*
Y228803D01*
X-42013Y228882D01*
X-12867D01*
X-8594Y224609D01*
X-8269Y224392D01*
X-7885Y224316D01*
X25119D01*
X25503Y224392D01*
X25828Y224609D01*
X27437Y226218D01*
X27607Y226120D01*
X28393Y225909D01*
X29207D01*
X29993Y226120D01*
X30698Y226527D01*
X31273Y227102D01*
X31680Y227807D01*
X31890Y228593D01*
Y229407D01*
X31680Y230193D01*
X31273Y230898D01*
X30698Y231473D01*
X29993Y231880D01*
X29207Y232091D01*
X28393D01*
X27607Y231880D01*
X26902Y231473D01*
X26327Y230898D01*
X25920Y230193D01*
X25709Y229407D01*
Y228593D01*
X25920Y227807D01*
X26018Y227637D01*
X24703Y226323D01*
X21200D01*
X20993Y226823D01*
X21273Y227102D01*
X21680Y227807D01*
X21891Y228593D01*
Y229407D01*
X21680Y230193D01*
X21273Y230898D01*
X21174Y230996D01*
X21381Y231497D01*
X22300D01*
X22684Y231573D01*
X23009Y231790D01*
X27437Y236218D01*
X27607Y236120D01*
X28393Y235910D01*
X29207D01*
X29993Y236120D01*
X30698Y236527D01*
X31273Y237102D01*
X31680Y237807D01*
X31890Y238593D01*
Y239407D01*
X31680Y240193D01*
X31273Y240898D01*
X30698Y241473D01*
X29993Y241880D01*
X29207Y242091D01*
X28393D01*
X27607Y241880D01*
X26902Y241473D01*
X26327Y240898D01*
X25920Y240193D01*
X25709Y239407D01*
Y238593D01*
X25920Y237807D01*
X26018Y237637D01*
X21884Y233504D01*
X20921D01*
X20015Y234410D01*
X19690Y234627D01*
X19306Y234703D01*
X18294D01*
X17910Y234627D01*
X17584Y234410D01*
X16679Y233504D01*
X9407D01*
X9366Y233557D01*
X9223Y234003D01*
X15399Y240180D01*
X15847Y239921D01*
X15709Y239407D01*
Y238593D01*
X15920Y237807D01*
X16327Y237102D01*
X16902Y236527D01*
X17607Y236120D01*
X18393Y235910D01*
X19207D01*
X19993Y236120D01*
X20698Y236527D01*
X21273Y237102D01*
X21680Y237807D01*
X21891Y238593D01*
Y239407D01*
X21680Y240193D01*
X21273Y240898D01*
X20698Y241473D01*
X19993Y241880D01*
X19207Y242091D01*
X18393D01*
X17879Y241953D01*
X17620Y242401D01*
X19535Y244316D01*
X20325D01*
X20709Y244392D01*
X20716Y244396D01*
X21300D01*
X21684Y244473D01*
X22009Y244690D01*
X24747Y247428D01*
X26139D01*
X26327Y247102D01*
X26902Y246527D01*
X27607Y246120D01*
X28393Y245910D01*
X29207D01*
X29993Y246120D01*
X30698Y246527D01*
X31273Y247102D01*
X31680Y247807D01*
X31890Y248593D01*
Y249407D01*
X31680Y250193D01*
X31273Y250898D01*
X30698Y251473D01*
X29993Y251880D01*
X29207Y252091D01*
X28393D01*
X27607Y251880D01*
X26902Y251473D01*
X26327Y250898D01*
X25920Y250193D01*
X25717Y249435D01*
X24331D01*
X23947Y249359D01*
X23622Y249141D01*
X22164Y247684D01*
X21716Y247942D01*
X21891Y248593D01*
Y249407D01*
X21680Y250193D01*
X21273Y250898D01*
X20698Y251473D01*
X19993Y251880D01*
X19207Y252091D01*
X18811D01*
X18604Y252591D01*
X19369Y253356D01*
X24159D01*
X24543Y253432D01*
X24869Y253650D01*
X27437Y256218D01*
X27607Y256120D01*
X28393Y255909D01*
X29207D01*
X29993Y256120D01*
X30698Y256527D01*
X31273Y257102D01*
X31680Y257807D01*
X31890Y258593D01*
Y259407D01*
X31680Y260193D01*
X31273Y260898D01*
X30698Y261473D01*
X29993Y261880D01*
X29207Y262091D01*
D02*
G37*
G36*
X42453Y258410D02*
X39391D01*
Y255347D01*
X40221Y255570D01*
X41060Y256054D01*
X41745Y256740D01*
X42230Y257579D01*
X42453Y258410D01*
D02*
G37*
G36*
X38209D02*
X35147D01*
X35370Y257579D01*
X35854Y256740D01*
X36540Y256054D01*
X37379Y255570D01*
X38209Y255347D01*
Y258410D01*
D02*
G37*
G36*
X39391Y252653D02*
Y249591D01*
X42453D01*
X42230Y250421D01*
X41745Y251260D01*
X41060Y251946D01*
X40221Y252430D01*
X39391Y252653D01*
D02*
G37*
G36*
X38209D02*
X37379Y252430D01*
X36540Y251946D01*
X35854Y251260D01*
X35370Y250421D01*
X35147Y249591D01*
X38209D01*
Y252653D01*
D02*
G37*
G36*
X42453Y248410D02*
X39391D01*
Y245347D01*
X40221Y245570D01*
X41060Y246054D01*
X41745Y246740D01*
X42230Y247579D01*
X42453Y248410D01*
D02*
G37*
G36*
X38209D02*
X35147D01*
X35370Y247579D01*
X35854Y246740D01*
X36540Y246054D01*
X37379Y245570D01*
X38209Y245347D01*
Y248410D01*
D02*
G37*
G36*
X293091Y243006D02*
Y240290D01*
X295806D01*
X295618Y240992D01*
X295178Y241755D01*
X294555Y242378D01*
X293792Y242818D01*
X293091Y243006D01*
D02*
G37*
G36*
X291910D02*
X291208Y242818D01*
X290445Y242378D01*
X289822Y241755D01*
X289382Y240992D01*
X289194Y240290D01*
X291910D01*
Y243006D01*
D02*
G37*
G36*
X39391Y242653D02*
Y239591D01*
X42453D01*
X42230Y240421D01*
X41745Y241260D01*
X41060Y241946D01*
X40221Y242430D01*
X39391Y242653D01*
D02*
G37*
G36*
X38209D02*
X37379Y242430D01*
X36540Y241946D01*
X35854Y241260D01*
X35370Y240421D01*
X35147Y239591D01*
X38209D01*
Y242653D01*
D02*
G37*
G36*
X295806Y239109D02*
X293091D01*
Y236394D01*
X293792Y236582D01*
X294555Y237022D01*
X295178Y237645D01*
X295618Y238408D01*
X295806Y239109D01*
D02*
G37*
G36*
X291910D02*
X289194D01*
X289382Y238408D01*
X289822Y237645D01*
X290445Y237022D01*
X291208Y236582D01*
X291910Y236394D01*
Y239109D01*
D02*
G37*
G36*
X42453Y238409D02*
X39391D01*
Y235347D01*
X40221Y235570D01*
X41060Y236054D01*
X41745Y236740D01*
X42230Y237579D01*
X42453Y238409D01*
D02*
G37*
G36*
X38209D02*
X35147D01*
X35370Y237579D01*
X35854Y236740D01*
X36540Y236054D01*
X37379Y235570D01*
X38209Y235347D01*
Y238409D01*
D02*
G37*
G36*
X39391Y232653D02*
Y229591D01*
X42453D01*
X42230Y230421D01*
X41745Y231260D01*
X41060Y231946D01*
X40221Y232430D01*
X39391Y232653D01*
D02*
G37*
G36*
X38209D02*
X37379Y232430D01*
X36540Y231946D01*
X35854Y231260D01*
X35370Y230421D01*
X35147Y229591D01*
X38209D01*
Y232653D01*
D02*
G37*
G36*
X42453Y228410D02*
X39391D01*
Y225347D01*
X40221Y225570D01*
X41060Y226054D01*
X41745Y226740D01*
X42230Y227579D01*
X42453Y228410D01*
D02*
G37*
G36*
X38209D02*
X35147D01*
X35370Y227579D01*
X35854Y226740D01*
X36540Y226054D01*
X37379Y225570D01*
X38209Y225347D01*
Y228410D01*
D02*
G37*
G36*
Y222653D02*
X37379Y222430D01*
X36540Y221946D01*
X35854Y221260D01*
X35370Y220421D01*
X35147Y219591D01*
X38209D01*
Y222653D01*
D02*
G37*
G36*
X-42480Y226146D02*
X-48976D01*
X-55472D01*
Y224669D01*
X-54882D01*
Y222504D01*
X-55472D01*
Y221028D01*
X-48976D01*
X-42480D01*
Y222504D01*
X-42013Y222583D01*
X-11402D01*
X-2010Y213190D01*
X-1684Y212973D01*
X-1300Y212896D01*
X23700D01*
X24084Y212973D01*
X24409Y213190D01*
X27437Y216218D01*
X27607Y216120D01*
X28393Y215910D01*
X29207D01*
X29993Y216120D01*
X30698Y216527D01*
X31273Y217102D01*
X31680Y217807D01*
X31890Y218593D01*
Y219407D01*
X31680Y220193D01*
X31273Y220898D01*
X30698Y221473D01*
X29993Y221880D01*
X29207Y222091D01*
X28393D01*
X27607Y221880D01*
X26902Y221473D01*
X26327Y220898D01*
X25920Y220193D01*
X25709Y219407D01*
Y218593D01*
X25920Y217807D01*
X26018Y217637D01*
X23284Y214903D01*
X-884D01*
X-10277Y224296D01*
X-10603Y224514D01*
X-10987Y224590D01*
X-42013D01*
X-42480Y224669D01*
Y226146D01*
D02*
G37*
G36*
X19207Y222091D02*
X18393D01*
X17607Y221880D01*
X16902Y221473D01*
X16327Y220898D01*
X15920Y220193D01*
X15709Y219407D01*
Y218593D01*
X15920Y217807D01*
X16327Y217102D01*
X16902Y216527D01*
X17607Y216120D01*
X18393Y215910D01*
X19207D01*
X19993Y216120D01*
X20698Y216527D01*
X21273Y217102D01*
X21680Y217807D01*
X21891Y218593D01*
Y219407D01*
X21680Y220193D01*
X21273Y220898D01*
X20698Y221473D01*
X19993Y221880D01*
X19207Y222091D01*
D02*
G37*
G36*
X38209Y212653D02*
X37379Y212430D01*
X36540Y211946D01*
X35854Y211260D01*
X35370Y210421D01*
X35147Y209591D01*
X38209D01*
Y212653D01*
D02*
G37*
G36*
X-42480Y184709D02*
X-48386D01*
Y183232D01*
X-42480D01*
Y184709D01*
D02*
G37*
G36*
X-49567D02*
X-55472D01*
Y183232D01*
X-49567D01*
Y184709D01*
D02*
G37*
G36*
X42653Y136310D02*
X39590D01*
Y133247D01*
X40421Y133470D01*
X41260Y133954D01*
X41945Y134640D01*
X42430Y135479D01*
X42653Y136310D01*
D02*
G37*
G36*
X38409D02*
X35347D01*
X35570Y135479D01*
X36054Y134640D01*
X36740Y133954D01*
X37579Y133470D01*
X38409Y133247D01*
Y136310D01*
D02*
G37*
G36*
X39407Y129991D02*
X38593D01*
X37807Y129780D01*
X37102Y129373D01*
X36527Y128798D01*
X36120Y128093D01*
X35909Y127307D01*
Y126493D01*
X36120Y125707D01*
X36527Y125002D01*
X37102Y124427D01*
X37807Y124020D01*
X38593Y123810D01*
X39407D01*
X40193Y124020D01*
X40898Y124427D01*
X41473Y125002D01*
X41880Y125707D01*
X42090Y126493D01*
Y127307D01*
X41880Y128093D01*
X41473Y128798D01*
X40898Y129373D01*
X40193Y129780D01*
X39407Y129991D01*
D02*
G37*
G36*
X292834Y118669D02*
Y115953D01*
X295550D01*
X295362Y116655D01*
X294922Y117418D01*
X294299Y118041D01*
X293536Y118481D01*
X292834Y118669D01*
D02*
G37*
G36*
X291653D02*
X290952Y118481D01*
X290189Y118041D01*
X289566Y117418D01*
X289126Y116655D01*
X288938Y115953D01*
X291653D01*
Y118669D01*
D02*
G37*
G36*
X295550Y114772D02*
X292834D01*
Y112057D01*
X293536Y112244D01*
X294299Y112685D01*
X294922Y113308D01*
X295362Y114071D01*
X295550Y114772D01*
D02*
G37*
G36*
X291653D02*
X288938D01*
X289126Y114071D01*
X289566Y113308D01*
X290189Y112685D01*
X290952Y112244D01*
X291653Y112057D01*
Y114772D01*
D02*
G37*
G36*
X39407Y109991D02*
X38593D01*
X37807Y109780D01*
X37102Y109373D01*
X36527Y108798D01*
X36120Y108093D01*
X35909Y107307D01*
Y106493D01*
X36120Y105707D01*
X36527Y105002D01*
X37102Y104427D01*
X37807Y104020D01*
X38593Y103809D01*
X39407D01*
X40193Y104020D01*
X40898Y104427D01*
X41473Y105002D01*
X41880Y105707D01*
X42090Y106493D01*
Y107307D01*
X41880Y108093D01*
X41473Y108798D01*
X40898Y109373D01*
X40193Y109780D01*
X39407Y109991D01*
D02*
G37*
G36*
X29407Y79991D02*
X28593D01*
X27807Y79780D01*
X27102Y79373D01*
X26527Y78798D01*
X26120Y78093D01*
X25909Y77307D01*
Y76493D01*
X26120Y75707D01*
X26527Y75002D01*
X27102Y74427D01*
X27807Y74020D01*
X28593Y73809D01*
X29407D01*
X30193Y74020D01*
X30898Y74427D01*
X31473Y75002D01*
X31880Y75707D01*
X32090Y76493D01*
Y77307D01*
X31880Y78093D01*
X31473Y78798D01*
X30898Y79373D01*
X30193Y79780D01*
X29407Y79991D01*
D02*
G37*
G36*
X286549Y69708D02*
X284384D01*
Y68091D01*
X288639D01*
X288589Y68345D01*
X288110Y69061D01*
X287394Y69540D01*
X286549Y69708D01*
D02*
G37*
G36*
X288639Y66909D02*
X284384D01*
Y65292D01*
X286549D01*
X287394Y65460D01*
X288110Y65939D01*
X288589Y66655D01*
X288639Y66909D01*
D02*
G37*
G36*
X29407Y69991D02*
X28593D01*
X27807Y69780D01*
X27102Y69373D01*
X26527Y68798D01*
X26120Y68093D01*
X25909Y67307D01*
Y66493D01*
X26120Y65707D01*
X26527Y65002D01*
X27102Y64427D01*
X27807Y64020D01*
X28593Y63810D01*
X29407D01*
X30193Y64020D01*
X30898Y64427D01*
X31473Y65002D01*
X31880Y65707D01*
X32090Y66493D01*
Y67307D01*
X31880Y68093D01*
X31473Y68798D01*
X30898Y69373D01*
X30193Y69780D01*
X29407Y69991D01*
D02*
G37*
G36*
X39407Y59991D02*
X38593D01*
X37807Y59780D01*
X37102Y59373D01*
X36527Y58798D01*
X36120Y58093D01*
X35909Y57307D01*
Y56493D01*
X36120Y55707D01*
X36527Y55002D01*
X37102Y54427D01*
X37807Y54020D01*
X38593Y53809D01*
X39407D01*
X40193Y54020D01*
X40898Y54427D01*
X41473Y55002D01*
X41880Y55707D01*
X42090Y56493D01*
Y57307D01*
X41880Y58093D01*
X41473Y58798D01*
X40898Y59373D01*
X40193Y59780D01*
X39407Y59991D01*
D02*
G37*
G36*
X29407D02*
X28593D01*
X27807Y59780D01*
X27102Y59373D01*
X26527Y58798D01*
X26120Y58093D01*
X25909Y57307D01*
Y56493D01*
X26120Y55707D01*
X26218Y55537D01*
X23449Y52769D01*
X23232Y52443D01*
X23155Y52059D01*
Y47664D01*
X22092D01*
Y43136D01*
X26226D01*
Y47664D01*
X25163D01*
Y51643D01*
X27637Y54118D01*
X27807Y54020D01*
X28593Y53809D01*
X29407D01*
X30193Y54020D01*
X30898Y54427D01*
X31473Y55002D01*
X31880Y55707D01*
X32090Y56493D01*
Y57307D01*
X31880Y58093D01*
X31473Y58798D01*
X30898Y59373D01*
X30193Y59780D01*
X29407Y59991D01*
D02*
G37*
G36*
X26816Y39554D02*
X24749D01*
Y37290D01*
X26816D01*
Y39554D01*
D02*
G37*
G36*
X283202Y36909D02*
X278947D01*
X278997Y36655D01*
X279476Y35939D01*
X280192Y35460D01*
X281037Y35292D01*
X283202D01*
Y36909D01*
D02*
G37*
G36*
X26816Y36109D02*
X24749D01*
Y33846D01*
X26816D01*
Y36109D01*
D02*
G37*
G36*
X248405Y24136D02*
X245354D01*
Y20691D01*
X248405D01*
Y24136D01*
D02*
G37*
G36*
X244172D02*
X241121D01*
Y20691D01*
X244172D01*
Y24136D01*
D02*
G37*
G36*
X248405Y19510D02*
X245354D01*
Y16065D01*
X248405D01*
Y19510D01*
D02*
G37*
G36*
X244172D02*
X241121D01*
Y16065D01*
X244172D01*
Y19510D01*
D02*
G37*
G36*
X39391Y192653D02*
Y189591D01*
X42453D01*
X42230Y190421D01*
X41745Y191260D01*
X41060Y191946D01*
X40221Y192430D01*
X39391Y192653D01*
D02*
G37*
G36*
X38209D02*
X37379Y192430D01*
X36540Y191946D01*
X35854Y191260D01*
X35370Y190421D01*
X35147Y189591D01*
X38209D01*
Y192653D01*
D02*
G37*
G36*
X42453Y188409D02*
X39391D01*
Y185347D01*
X40221Y185570D01*
X41060Y186054D01*
X41745Y186740D01*
X42230Y187579D01*
X42453Y188409D01*
D02*
G37*
G36*
X38209D02*
X35147D01*
X35370Y187579D01*
X35854Y186740D01*
X36540Y186054D01*
X37379Y185570D01*
X38209Y185347D01*
Y188409D01*
D02*
G37*
G36*
X39391Y172653D02*
Y169591D01*
X42453D01*
X42230Y170421D01*
X41745Y171260D01*
X41060Y171946D01*
X40221Y172430D01*
X39391Y172653D01*
D02*
G37*
G36*
X38209D02*
X37379Y172430D01*
X36540Y171946D01*
X35854Y171260D01*
X35370Y170421D01*
X35147Y169591D01*
X38209D01*
Y172653D01*
D02*
G37*
G36*
X42453Y168410D02*
X39391D01*
Y165347D01*
X40221Y165570D01*
X41060Y166054D01*
X41745Y166740D01*
X42230Y167579D01*
X42453Y168410D01*
D02*
G37*
G36*
X38209D02*
X35147D01*
X35370Y167579D01*
X35854Y166740D01*
X36540Y166054D01*
X37379Y165570D01*
X38209Y165347D01*
Y168410D01*
D02*
G37*
G36*
X247005Y158135D02*
X243953D01*
Y154691D01*
X247005D01*
Y158135D01*
D02*
G37*
G36*
X242772D02*
X239721D01*
Y154691D01*
X242772D01*
Y158135D01*
D02*
G37*
G36*
X247005Y153509D02*
X243953D01*
Y150065D01*
X247005D01*
Y153509D01*
D02*
G37*
G36*
X242772D02*
X239721D01*
Y150065D01*
X242772D01*
Y153509D01*
D02*
G37*
G36*
X286549Y59106D02*
X281037D01*
X280423Y58983D01*
X279902Y58635D01*
X279554Y58114D01*
X279431Y57500D01*
X279554Y56886D01*
X279902Y56365D01*
X280423Y56017D01*
X281037Y55894D01*
X286549D01*
X287163Y56017D01*
X287684Y56365D01*
X288032Y56886D01*
X288155Y57500D01*
X288032Y58114D01*
X287684Y58635D01*
X287163Y58983D01*
X286549Y59106D01*
D02*
G37*
G36*
X367491Y119555D02*
Y116533D01*
X370512D01*
X370293Y117348D01*
X369814Y118179D01*
X369136Y118857D01*
X368306Y119336D01*
X367491Y119555D01*
D02*
G37*
G36*
X366309D02*
X365494Y119336D01*
X364664Y118857D01*
X363986Y118179D01*
X363506Y117348D01*
X363288Y116533D01*
X366309D01*
Y119555D01*
D02*
G37*
G36*
X312835Y118669D02*
Y115953D01*
X315550D01*
X315362Y116655D01*
X314922Y117418D01*
X314299Y118041D01*
X313536Y118481D01*
X312835Y118669D01*
D02*
G37*
G36*
X311653D02*
X310952Y118481D01*
X310189Y118041D01*
X309566Y117418D01*
X309126Y116655D01*
X308938Y115953D01*
X311653D01*
Y118669D01*
D02*
G37*
G36*
X342607Y118119D02*
X341881D01*
X341180Y117931D01*
X340552Y117568D01*
X340039Y117055D01*
X339676Y116427D01*
X339488Y115726D01*
Y115000D01*
X339676Y114299D01*
X340039Y113671D01*
X340552Y113158D01*
X341180Y112795D01*
X341881Y112607D01*
X342607D01*
X343308Y112795D01*
X343936Y113158D01*
X344449Y113671D01*
X344812Y114299D01*
X345000Y115000D01*
Y115726D01*
X344812Y116427D01*
X344449Y117055D01*
X343936Y117568D01*
X343308Y117931D01*
X342607Y118119D01*
D02*
G37*
G36*
X332607D02*
X331881D01*
X331180Y117931D01*
X330552Y117568D01*
X330039Y117055D01*
X329676Y116427D01*
X329488Y115726D01*
Y115000D01*
X329676Y114299D01*
X330039Y113671D01*
X330552Y113158D01*
X331180Y112795D01*
X331881Y112607D01*
X332607D01*
X333308Y112795D01*
X333936Y113158D01*
X334449Y113671D01*
X334812Y114299D01*
X335000Y115000D01*
Y115726D01*
X334812Y116427D01*
X334449Y117055D01*
X333936Y117568D01*
X333308Y117931D01*
X332607Y118119D01*
D02*
G37*
G36*
X322607D02*
X321881D01*
X321180Y117931D01*
X320552Y117568D01*
X320039Y117055D01*
X319676Y116427D01*
X319488Y115726D01*
Y115000D01*
X319676Y114299D01*
X320039Y113671D01*
X320552Y113158D01*
X321180Y112795D01*
X321881Y112607D01*
X322607D01*
X323308Y112795D01*
X323936Y113158D01*
X324449Y113671D01*
X324812Y114299D01*
X325000Y115000D01*
Y115726D01*
X324812Y116427D01*
X324449Y117055D01*
X323936Y117568D01*
X323308Y117931D01*
X322607Y118119D01*
D02*
G37*
G36*
X370512Y115352D02*
X367491D01*
Y112331D01*
X368306Y112549D01*
X369136Y113029D01*
X369814Y113707D01*
X370293Y114537D01*
X370512Y115352D01*
D02*
G37*
G36*
X366309D02*
X363288D01*
X363506Y114537D01*
X363986Y113707D01*
X364664Y113029D01*
X365494Y112549D01*
X366309Y112331D01*
Y115352D01*
D02*
G37*
G36*
X315550Y114772D02*
X312835D01*
Y112057D01*
X313536Y112244D01*
X314299Y112685D01*
X314922Y113308D01*
X315362Y114071D01*
X315550Y114772D01*
D02*
G37*
G36*
X311653D02*
X308938D01*
X309126Y114071D01*
X309566Y113308D01*
X310189Y112685D01*
X310952Y112244D01*
X311653Y112057D01*
Y114772D01*
D02*
G37*
G36*
X450964Y114526D02*
X446436D01*
Y110392D01*
X450964D01*
Y111946D01*
X473806D01*
X473819Y111932D01*
X474326Y111722D01*
X474874D01*
X475381Y111932D01*
X475768Y112320D01*
X475978Y112826D01*
Y113374D01*
X475768Y113881D01*
X475381Y114268D01*
X474874Y114478D01*
X474326D01*
X473819Y114268D01*
X473504Y113953D01*
X450964D01*
Y114526D01*
D02*
G37*
G36*
X433445Y116988D02*
X426555D01*
Y112305D01*
X415990Y101740D01*
X415773Y101415D01*
X415696Y101031D01*
Y67200D01*
X415724Y67062D01*
X415522Y66574D01*
Y66026D01*
X415732Y65519D01*
X416119Y65132D01*
X416626Y64922D01*
X417174D01*
X417681Y65132D01*
X418068Y65519D01*
X418278Y66026D01*
Y66574D01*
X418068Y67081D01*
X417703Y67445D01*
Y100615D01*
X426055Y108967D01*
X426555Y108759D01*
Y103012D01*
X433445D01*
Y105452D01*
X446436D01*
Y105274D01*
X450964D01*
Y109408D01*
X446436D01*
Y107459D01*
X433445D01*
Y109114D01*
X426910D01*
X426703Y109614D01*
X427974Y110886D01*
X433445D01*
Y116988D01*
D02*
G37*
G36*
X530460Y124057D02*
X528537D01*
X526650Y123681D01*
X524873Y122945D01*
X523274Y121877D01*
X521914Y120517D01*
X520846Y118918D01*
X520110Y117141D01*
X519735Y115254D01*
Y113331D01*
X520110Y111445D01*
X520846Y109668D01*
X521914Y108069D01*
X523274Y106709D01*
X524873Y105640D01*
X526650Y104904D01*
X528537Y104529D01*
X530460D01*
X532346Y104904D01*
X534123Y105640D01*
X535722Y106709D01*
X537082Y108069D01*
X538151Y109668D01*
X538887Y111445D01*
X539262Y113331D01*
Y115254D01*
X538887Y117141D01*
X538151Y118918D01*
X537082Y120517D01*
X535722Y121877D01*
X534123Y122945D01*
X532346Y123681D01*
X530460Y124057D01*
D02*
G37*
G36*
X369951Y99309D02*
X363849D01*
Y93206D01*
X369951D01*
Y99309D01*
D02*
G37*
G36*
X527264Y92603D02*
X442086D01*
X441702Y92527D01*
X441376Y92310D01*
X439007Y89941D01*
X433445D01*
Y91988D01*
X426555D01*
Y87305D01*
X425255Y86005D01*
X425037Y85679D01*
X424961Y85295D01*
Y77998D01*
X425037Y77614D01*
X425255Y77288D01*
X425832Y76712D01*
X426157Y76494D01*
X426541Y76418D01*
X427763D01*
X439590Y64590D01*
X439607Y64579D01*
X439632Y64519D01*
X440019Y64132D01*
X440526Y63922D01*
X441074D01*
X441581Y64132D01*
X441968Y64519D01*
X442178Y65026D01*
Y65574D01*
X441968Y66081D01*
X441581Y66468D01*
X441074Y66678D01*
X440526D01*
X440395Y66624D01*
X429469Y77550D01*
X429661Y78012D01*
X433445D01*
Y80152D01*
X446136D01*
Y79974D01*
X450664D01*
Y84108D01*
X446136D01*
Y82159D01*
X433445D01*
Y84114D01*
X426968D01*
Y84880D01*
X427974Y85886D01*
X433445D01*
Y87933D01*
X437831D01*
X438130Y87433D01*
X438022Y87174D01*
Y86626D01*
X438232Y86119D01*
X438619Y85732D01*
X439126Y85522D01*
X439674D01*
X440181Y85732D01*
X440568Y86119D01*
X440583Y86155D01*
X446136D01*
Y85092D01*
X450664D01*
Y85368D01*
X477813D01*
X492196Y70985D01*
X492521Y70767D01*
X492905Y70691D01*
X523390D01*
X524869Y69212D01*
X524610Y68764D01*
X524398Y68821D01*
X523418D01*
X522472Y68567D01*
X521624Y68077D01*
X520931Y67384D01*
X520441Y66536D01*
X520325Y66104D01*
X515113D01*
X514729Y66027D01*
X514403Y65810D01*
X513772Y65178D01*
X513326D01*
X512819Y64968D01*
X512432Y64581D01*
X512222Y64074D01*
Y63526D01*
X512432Y63019D01*
X512819Y62632D01*
X513326Y62422D01*
X513874D01*
X514381Y62632D01*
X514768Y63019D01*
X514978Y63526D01*
Y63546D01*
X515529Y64096D01*
X520325D01*
X520441Y63664D01*
X520931Y62816D01*
X521624Y62123D01*
X522472Y61633D01*
X523418Y61379D01*
X524398D01*
X525344Y61633D01*
X526192Y62123D01*
X526885Y62816D01*
X527375Y63664D01*
X527628Y64610D01*
Y65590D01*
X527571Y65802D01*
X528020Y66061D01*
X532130Y61950D01*
X532112Y61932D01*
X531622Y61083D01*
X531368Y60137D01*
Y59157D01*
X531622Y58211D01*
X532112Y57363D01*
X532804Y56670D01*
X533653Y56180D01*
X534599Y55927D01*
X535579D01*
X536525Y56180D01*
X537373Y56670D01*
X537896Y57193D01*
X538396Y56986D01*
Y51403D01*
X537896Y51196D01*
X537373Y51719D01*
X536525Y52209D01*
X535579Y52462D01*
X534599D01*
X533653Y52209D01*
X532804Y51719D01*
X532112Y51026D01*
X531622Y50178D01*
X531506Y49745D01*
X497363D01*
X483006Y64102D01*
X482680Y64320D01*
X482296Y64396D01*
X445635D01*
X445251Y64320D01*
X444925Y64103D01*
X441826Y61004D01*
X433445D01*
Y63051D01*
X427974D01*
X427916Y63110D01*
X427590Y63327D01*
X427206Y63403D01*
X363044D01*
X362861Y63677D01*
X362275Y64069D01*
X361583Y64206D01*
X354497D01*
X353806Y64069D01*
X353220Y63677D01*
X353037Y63403D01*
X349113D01*
X348842Y63350D01*
X348774Y63378D01*
X348226D01*
X347720Y63168D01*
X347332Y62781D01*
X347122Y62274D01*
Y61726D01*
X347332Y61219D01*
X347720Y60832D01*
X348226Y60622D01*
X348774D01*
X349281Y60832D01*
X349668Y61219D01*
X349742Y61396D01*
X353037D01*
X353220Y61123D01*
X353806Y60731D01*
X354497Y60594D01*
X361583D01*
X362275Y60731D01*
X362861Y61123D01*
X363044Y61396D01*
X426555D01*
Y58368D01*
X425090Y56903D01*
X424873Y56578D01*
X424796Y56194D01*
Y25496D01*
X424508Y25418D01*
X423745Y24978D01*
X423122Y24355D01*
X422682Y23592D01*
X422453Y22741D01*
Y21859D01*
X422682Y21008D01*
X423122Y20245D01*
X423745Y19622D01*
X424508Y19182D01*
X425359Y18954D01*
X426241D01*
X427092Y19182D01*
X427855Y19622D01*
X428478Y20245D01*
X428918Y21008D01*
X429146Y21859D01*
Y22741D01*
X428918Y23592D01*
X428478Y24355D01*
X427855Y24978D01*
X427092Y25418D01*
X426803Y25496D01*
Y49075D01*
X433445D01*
Y51122D01*
X447571D01*
X447955Y51199D01*
X448280Y51416D01*
X448938Y52074D01*
X450838D01*
X450964Y52074D01*
X451338Y51771D01*
Y50999D01*
X447842Y47504D01*
X432392D01*
X432008Y47427D01*
X431682Y47210D01*
X430990Y46518D01*
X430773Y46192D01*
X430696Y45808D01*
Y14616D01*
X430484Y14403D01*
X417416D01*
X417312Y14507D01*
X417312Y14507D01*
X416804Y15016D01*
Y18954D01*
X419146D01*
Y25646D01*
X413873D01*
X381410Y58110D01*
X381084Y58327D01*
X380700Y58403D01*
X363044D01*
X362861Y58677D01*
X362275Y59069D01*
X361583Y59206D01*
X354497D01*
X353806Y59069D01*
X353220Y58677D01*
X353003Y58354D01*
X347518D01*
X347403Y58468D01*
X346897Y58678D01*
X346349D01*
X345842Y58468D01*
X345455Y58081D01*
X345245Y57574D01*
Y57026D01*
X345455Y56519D01*
X345842Y56132D01*
X346349Y55922D01*
X346897D01*
X346957Y55947D01*
X347320Y55566D01*
X347260Y55450D01*
X347226Y55412D01*
X344991Y53178D01*
X344679Y53273D01*
X344481Y53375D01*
X343995Y54103D01*
X343214Y54625D01*
X342292Y54808D01*
X339339D01*
Y52400D01*
X338749D01*
Y51810D01*
X332914D01*
X332968Y51541D01*
X332901Y51329D01*
X332747Y51041D01*
X326041D01*
X324738Y52345D01*
X324769Y52500D01*
X324646Y53114D01*
X324298Y53635D01*
X323778Y53983D01*
X323163Y54106D01*
X317651D01*
X317037Y53983D01*
X316516Y53635D01*
X316168Y53114D01*
X316046Y52500D01*
X316168Y51886D01*
X316516Y51365D01*
X317037Y51017D01*
X317651Y50894D01*
X323163D01*
X323319Y50925D01*
X324916Y49328D01*
X325241Y49111D01*
X325625Y49034D01*
X333115D01*
X333381Y48534D01*
X333326Y48454D01*
X324420D01*
X324298Y48635D01*
X323778Y48983D01*
X323163Y49106D01*
X317651D01*
X317037Y48983D01*
X316516Y48635D01*
X316168Y48114D01*
X316046Y47500D01*
X316168Y46886D01*
X316516Y46365D01*
X317037Y46017D01*
X317651Y45894D01*
X323163D01*
X323778Y46017D01*
X324298Y46365D01*
X324353Y46446D01*
X333597D01*
X333877Y46015D01*
X333712Y45666D01*
X332717Y44672D01*
X327485D01*
X327101Y44596D01*
X326775Y44378D01*
X325901Y43504D01*
X324387D01*
X324298Y43635D01*
X323778Y43983D01*
X323163Y44106D01*
X317651D01*
X317037Y43983D01*
X316516Y43635D01*
X316168Y43115D01*
X316046Y42500D01*
X316168Y41886D01*
X316516Y41365D01*
X317037Y41017D01*
X317651Y40894D01*
X323163D01*
X323778Y41017D01*
X324298Y41365D01*
X324387Y41497D01*
X326316D01*
X326422Y41517D01*
X326804Y41447D01*
X327021Y41186D01*
X327132Y40920D01*
X327197Y40855D01*
Y39665D01*
X327273Y39281D01*
X327490Y38956D01*
X327816Y38738D01*
X328200Y38662D01*
X329460D01*
X329683Y38162D01*
X329522Y37774D01*
Y37226D01*
X329732Y36720D01*
X329493Y36251D01*
X325488D01*
X325222Y36751D01*
X325253Y36909D01*
X320407D01*
X315561D01*
X315612Y36655D01*
X316090Y35939D01*
X316137Y35467D01*
X314776Y34106D01*
X314559Y33781D01*
X314482Y33397D01*
Y31603D01*
X314559Y31219D01*
X314776Y30893D01*
X342479Y3190D01*
X342805Y2973D01*
X343189Y2897D01*
X430500D01*
X430884Y2973D01*
X431210Y3190D01*
X445910Y17890D01*
X446127Y18216D01*
X446204Y18600D01*
Y18954D01*
X446241D01*
X447092Y19182D01*
X447855Y19622D01*
X448478Y20245D01*
X448918Y21008D01*
X449147Y21859D01*
Y22741D01*
X448918Y23592D01*
X448478Y24355D01*
X447855Y24978D01*
X447092Y25418D01*
X446804Y25496D01*
Y36000D01*
X446727Y36384D01*
X446510Y36710D01*
X444304Y38916D01*
Y43255D01*
X444368Y43319D01*
X444578Y43826D01*
Y44374D01*
X444368Y44881D01*
X444252Y44997D01*
X444459Y45496D01*
X448258D01*
X448642Y45573D01*
X448968Y45790D01*
X453051Y49874D01*
X453269Y50200D01*
X453345Y50584D01*
Y56897D01*
X453269Y57281D01*
X453051Y57606D01*
X451978Y58679D01*
X452170Y59141D01*
X477753D01*
X494315Y42579D01*
X494641Y42362D01*
X495025Y42285D01*
X520325D01*
X520441Y41853D01*
X520931Y41005D01*
X521624Y40312D01*
X522472Y39822D01*
X523418Y39568D01*
X524398D01*
X525344Y39822D01*
X526192Y40312D01*
X526885Y41005D01*
X527375Y41853D01*
X527628Y42799D01*
Y43779D01*
X527375Y44725D01*
X526885Y45573D01*
X526192Y46266D01*
X525344Y46756D01*
X524398Y47010D01*
X523418D01*
X522472Y46756D01*
X521624Y46266D01*
X520931Y45573D01*
X520441Y44725D01*
X520325Y44293D01*
X495441D01*
X478879Y60854D01*
X478553Y61072D01*
X478169Y61148D01*
X450964D01*
Y61326D01*
X446436D01*
Y57192D01*
X450627D01*
X451216Y56603D01*
X450904Y56208D01*
X450838Y56208D01*
X446436D01*
Y53130D01*
X433445D01*
Y55177D01*
X426803D01*
Y55778D01*
X427974Y56949D01*
X433445D01*
Y58996D01*
X442242D01*
X442626Y59073D01*
X442952Y59290D01*
X446051Y62389D01*
X481880D01*
X496237Y48032D01*
X496563Y47815D01*
X496947Y47738D01*
X531506D01*
X531622Y47306D01*
X532112Y46457D01*
X532804Y45765D01*
X533653Y45275D01*
X534599Y45021D01*
X535339D01*
X535546Y44521D01*
X526560Y35535D01*
X513833D01*
X513499Y36035D01*
X513578Y36226D01*
Y36774D01*
X513368Y37280D01*
X512981Y37668D01*
X512474Y37878D01*
X511926D01*
X511419Y37668D01*
X511255Y37503D01*
X480000D01*
X479616Y37427D01*
X479290Y37210D01*
X467653Y25572D01*
X467153Y25779D01*
Y36704D01*
X467468Y37020D01*
X467678Y37526D01*
Y38074D01*
X467468Y38581D01*
X467081Y38968D01*
X466574Y39178D01*
X466026D01*
X465519Y38968D01*
X465132Y38581D01*
X464922Y38074D01*
Y37526D01*
X465132Y37020D01*
X465146Y37005D01*
Y25589D01*
X464508Y25418D01*
X463745Y24978D01*
X463122Y24355D01*
X462682Y23592D01*
X462454Y22741D01*
Y21859D01*
X462682Y21008D01*
X463122Y20245D01*
X463745Y19622D01*
X464508Y19182D01*
X465359Y18954D01*
X466241D01*
X467092Y19182D01*
X467855Y19622D01*
X468478Y20245D01*
X468918Y21008D01*
X469146Y21859D01*
Y22741D01*
X468918Y23592D01*
X468769Y23850D01*
X480416Y35497D01*
X486870D01*
X487077Y34997D01*
X477350Y25269D01*
X477092Y25418D01*
X476241Y25646D01*
X475359D01*
X474508Y25418D01*
X473745Y24978D01*
X473122Y24355D01*
X472682Y23592D01*
X472453Y22741D01*
Y21859D01*
X472682Y21008D01*
X472831Y20750D01*
X459784Y7704D01*
X442345D01*
X442281Y7768D01*
X441774Y7978D01*
X441226D01*
X440719Y7768D01*
X440332Y7380D01*
X440122Y6874D01*
Y6326D01*
X440332Y5819D01*
X440719Y5432D01*
X441226Y5222D01*
X441774D01*
X442281Y5432D01*
X442545Y5697D01*
X460200D01*
X460584Y5773D01*
X460910Y5990D01*
X474250Y19331D01*
X474508Y19182D01*
X475359Y18954D01*
X476241D01*
X477092Y19182D01*
X477855Y19622D01*
X478478Y20245D01*
X478918Y21008D01*
X479146Y21859D01*
Y22741D01*
X478918Y23592D01*
X478769Y23850D01*
X488447Y33528D01*
X526975D01*
X527359Y33604D01*
X527685Y33822D01*
X540110Y46246D01*
X540327Y46572D01*
X540404Y46956D01*
Y61433D01*
X540327Y61817D01*
X540110Y62142D01*
X535862Y66391D01*
X536011Y66948D01*
X536525Y67086D01*
X537373Y67576D01*
X538066Y68268D01*
X538556Y69117D01*
X538809Y70063D01*
Y71043D01*
X538556Y71989D01*
X538066Y72837D01*
X537373Y73530D01*
X536525Y74020D01*
X535803Y74213D01*
Y75651D01*
X535726Y76035D01*
X535509Y76361D01*
X534632Y77238D01*
X534839Y77738D01*
X535579D01*
X536525Y77991D01*
X537373Y78481D01*
X538066Y79174D01*
X538556Y80022D01*
X538809Y80968D01*
Y81948D01*
X538556Y82894D01*
X538066Y83743D01*
X537373Y84435D01*
X536525Y84925D01*
X535579Y85179D01*
X534599D01*
X533653Y84925D01*
X532804Y84435D01*
X532281Y83912D01*
X531781Y84119D01*
Y88086D01*
X531705Y88471D01*
X531488Y88796D01*
X527974Y92310D01*
X527648Y92527D01*
X527264Y92603D01*
D02*
G37*
G36*
X323163Y69708D02*
X320998D01*
Y68091D01*
X325253D01*
X325203Y68345D01*
X324724Y69061D01*
X324008Y69540D01*
X323163Y69708D01*
D02*
G37*
G36*
X319817D02*
X317651D01*
X316806Y69540D01*
X316090Y69061D01*
X315612Y68345D01*
X315561Y68091D01*
X319817D01*
Y69708D01*
D02*
G37*
G36*
X361583Y69809D02*
X358631D01*
Y67991D01*
X363875D01*
X363809Y68322D01*
X363286Y69103D01*
X362505Y69625D01*
X361583Y69809D01*
D02*
G37*
G36*
X342292D02*
X339339D01*
Y67991D01*
X344583D01*
X344517Y68322D01*
X343995Y69103D01*
X343214Y69625D01*
X342292Y69809D01*
D02*
G37*
G36*
X357450D02*
X354497D01*
X353575Y69625D01*
X352794Y69103D01*
X352272Y68322D01*
X352206Y67991D01*
X357450D01*
Y69809D01*
D02*
G37*
G36*
X338158D02*
X335205D01*
X334284Y69625D01*
X333502Y69103D01*
X332980Y68322D01*
X332914Y67991D01*
X338158D01*
Y69809D01*
D02*
G37*
G36*
X325253Y66909D02*
X320998D01*
Y65292D01*
X323163D01*
X324008Y65460D01*
X324724Y65939D01*
X325203Y66655D01*
X325253Y66909D01*
D02*
G37*
G36*
X319817D02*
X315561D01*
X315612Y66655D01*
X316090Y65939D01*
X316806Y65460D01*
X317651Y65292D01*
X319817D01*
Y66909D01*
D02*
G37*
G36*
X363875Y66809D02*
X358631D01*
Y64991D01*
X361583D01*
X362505Y65175D01*
X363286Y65697D01*
X363809Y66478D01*
X363875Y66809D01*
D02*
G37*
G36*
X357450D02*
X352206D01*
X352272Y66478D01*
X352794Y65697D01*
X353575Y65175D01*
X354497Y64991D01*
X357450D01*
Y66809D01*
D02*
G37*
G36*
X344583D02*
X338749D01*
X332914D01*
X332980Y66478D01*
X333502Y65697D01*
X334284Y65175D01*
X334384Y65155D01*
Y64645D01*
X334284Y64625D01*
X333502Y64103D01*
X332980Y63322D01*
X332914Y62991D01*
X338749D01*
X344583D01*
X344517Y63322D01*
X343995Y64103D01*
X343214Y64625D01*
X343113Y64645D01*
Y65155D01*
X343214Y65175D01*
X343995Y65697D01*
X344517Y66478D01*
X344583Y66809D01*
D02*
G37*
G36*
X323163Y64106D02*
X317651D01*
X317037Y63984D01*
X316516Y63635D01*
X316168Y63115D01*
X316046Y62500D01*
X316168Y61886D01*
X316516Y61365D01*
X317037Y61017D01*
X317651Y60894D01*
X323163D01*
X323778Y61017D01*
X324298Y61365D01*
X324646Y61886D01*
X324769Y62500D01*
X324646Y63115D01*
X324298Y63635D01*
X323778Y63984D01*
X323163Y64106D01*
D02*
G37*
G36*
X344583Y61809D02*
X339339D01*
Y59992D01*
X342292D01*
X343214Y60175D01*
X343995Y60697D01*
X344517Y61478D01*
X344583Y61809D01*
D02*
G37*
G36*
X338158D02*
X332914D01*
X332980Y61478D01*
X333502Y60697D01*
X334284Y60175D01*
X335205Y59992D01*
X338158D01*
Y61809D01*
D02*
G37*
G36*
X323163Y59106D02*
X317651D01*
X317037Y58983D01*
X316516Y58635D01*
X316168Y58114D01*
X316046Y57500D01*
X316168Y56886D01*
X316516Y56365D01*
X317037Y56017D01*
X317651Y55894D01*
X323163D01*
X323778Y56017D01*
X324298Y56365D01*
X324646Y56886D01*
X324769Y57500D01*
X324646Y58114D01*
X324298Y58635D01*
X323778Y58983D01*
X323163Y59106D01*
D02*
G37*
G36*
X342292Y59206D02*
X335205D01*
X334514Y59069D01*
X333928Y58677D01*
X333537Y58091D01*
X333399Y57400D01*
X333537Y56709D01*
X333928Y56123D01*
X334514Y55731D01*
X335205Y55594D01*
X342292D01*
X342983Y55731D01*
X343569Y56123D01*
X343961Y56709D01*
X344098Y57400D01*
X343961Y58091D01*
X343569Y58677D01*
X342983Y59069D01*
X342292Y59206D01*
D02*
G37*
G36*
X338158Y54808D02*
X335205D01*
X334284Y54625D01*
X333502Y54103D01*
X332980Y53322D01*
X332914Y52991D01*
X338158D01*
Y54808D01*
D02*
G37*
G36*
X524398Y57915D02*
X523418D01*
X522472Y57661D01*
X521624Y57171D01*
X520931Y56479D01*
X520441Y55630D01*
X520325Y55198D01*
X513907D01*
X513523Y55122D01*
X513198Y54904D01*
X512472Y54178D01*
X512026D01*
X511519Y53968D01*
X511132Y53581D01*
X510922Y53074D01*
Y52526D01*
X511132Y52019D01*
X511519Y51632D01*
X512026Y51422D01*
X512574D01*
X513081Y51632D01*
X513468Y52019D01*
X513678Y52526D01*
Y52546D01*
X514323Y53191D01*
X520325D01*
X520441Y52758D01*
X520931Y51910D01*
X521624Y51217D01*
X522472Y50727D01*
X523418Y50474D01*
X524398D01*
X525344Y50727D01*
X526192Y51217D01*
X526885Y51910D01*
X527375Y52758D01*
X527628Y53705D01*
Y54684D01*
X527375Y55630D01*
X526885Y56479D01*
X526192Y57171D01*
X525344Y57661D01*
X524398Y57915D01*
D02*
G37*
G36*
X323163Y39708D02*
X320998D01*
Y38091D01*
X325253D01*
X325203Y38345D01*
X324724Y39061D01*
X324008Y39540D01*
X323163Y39708D01*
D02*
G37*
G36*
X319817D02*
X317651D01*
X316806Y39540D01*
X316090Y39061D01*
X315612Y38345D01*
X315561Y38091D01*
X319817D01*
Y39708D01*
D02*
G37*
G36*
X410474Y60178D02*
X409926D01*
X409419Y59968D01*
X409032Y59581D01*
X408822Y59074D01*
Y58526D01*
X409032Y58019D01*
X409397Y57655D01*
Y32945D01*
X409232Y32781D01*
X409022Y32274D01*
Y31726D01*
X409232Y31220D01*
X409619Y30832D01*
X410126Y30622D01*
X410674D01*
X411181Y30832D01*
X411568Y31220D01*
X411778Y31726D01*
Y32274D01*
X411568Y32781D01*
X411404Y32945D01*
Y58105D01*
X411578Y58526D01*
Y59074D01*
X411368Y59581D01*
X410981Y59968D01*
X410474Y60178D01*
D02*
G37*
G36*
X486390Y26218D02*
Y22891D01*
X489718D01*
X489469Y23820D01*
X488950Y24717D01*
X488217Y25450D01*
X487320Y25969D01*
X486390Y26218D01*
D02*
G37*
G36*
X485210D02*
X484280Y25969D01*
X483383Y25450D01*
X482650Y24717D01*
X482131Y23820D01*
X481882Y22891D01*
X485210D01*
Y26218D01*
D02*
G37*
G36*
X476074Y57278D02*
X475526D01*
X475019Y57068D01*
X474632Y56681D01*
X474422Y56174D01*
Y55941D01*
X455090Y36610D01*
X454873Y36284D01*
X454797Y35900D01*
Y25496D01*
X454508Y25418D01*
X453745Y24978D01*
X453122Y24355D01*
X452682Y23592D01*
X452454Y22741D01*
Y21859D01*
X452682Y21008D01*
X453122Y20245D01*
X453745Y19622D01*
X454508Y19182D01*
X455359Y18954D01*
X456241D01*
X457092Y19182D01*
X457855Y19622D01*
X458478Y20245D01*
X458918Y21008D01*
X459146Y21859D01*
Y22741D01*
X458918Y23592D01*
X458478Y24355D01*
X457855Y24978D01*
X457092Y25418D01*
X456804Y25496D01*
Y35484D01*
X475841Y54522D01*
X476074D01*
X476581Y54732D01*
X476968Y55119D01*
X477178Y55626D01*
Y56174D01*
X476968Y56681D01*
X476581Y57068D01*
X476074Y57278D01*
D02*
G37*
G36*
X489718Y21710D02*
X486390D01*
Y18382D01*
X487320Y18631D01*
X488217Y19150D01*
X488950Y19883D01*
X489469Y20780D01*
X489718Y21710D01*
D02*
G37*
G36*
X485210D02*
X481882D01*
X482131Y20780D01*
X482650Y19883D01*
X483383Y19150D01*
X484280Y18631D01*
X485210Y18382D01*
Y21710D01*
D02*
G37*
G36*
X530460Y25671D02*
X528537D01*
X526650Y25296D01*
X524873Y24560D01*
X523274Y23491D01*
X521914Y22131D01*
X520846Y20532D01*
X520110Y18755D01*
X519735Y16869D01*
Y14945D01*
X520110Y13059D01*
X520846Y11282D01*
X521914Y9683D01*
X523274Y8323D01*
X524873Y7254D01*
X526650Y6519D01*
X528537Y6143D01*
X530460D01*
X532346Y6519D01*
X534123Y7254D01*
X535722Y8323D01*
X537082Y9683D01*
X538151Y11282D01*
X538887Y13059D01*
X539262Y14945D01*
Y16869D01*
X538887Y18755D01*
X538151Y20532D01*
X537082Y22131D01*
X535722Y23491D01*
X534123Y24560D01*
X532346Y25296D01*
X530460Y25671D01*
D02*
G37*
%LPD*%
G36*
X519597Y87502D02*
X528219D01*
Y88573D01*
X528681Y88764D01*
X529774Y87671D01*
Y79672D01*
X529851Y79289D01*
X530068Y78963D01*
X533796Y75236D01*
Y74058D01*
X533653Y74020D01*
X532804Y73530D01*
X532112Y72837D01*
X531622Y71989D01*
X531368Y71043D01*
Y70303D01*
X530868Y70096D01*
X527016Y73948D01*
X527375Y74570D01*
X527628Y75516D01*
Y76495D01*
X527375Y77442D01*
X526885Y78290D01*
X526192Y78983D01*
X525344Y79473D01*
X524398Y79726D01*
X523418D01*
X522472Y79473D01*
X521624Y78983D01*
X520931Y78290D01*
X520441Y77442D01*
X520188Y76495D01*
Y75516D01*
X520441Y74570D01*
X520931Y73721D01*
X521454Y73198D01*
X521247Y72698D01*
X493321D01*
X478938Y87081D01*
X478612Y87299D01*
X478228Y87375D01*
X450664D01*
Y89226D01*
X446136D01*
Y88163D01*
X440775D01*
X440568Y88663D01*
X442502Y90596D01*
X519597D01*
Y87502D01*
D02*
G37*
G36*
X412454Y24227D02*
Y18954D01*
X414796D01*
Y14600D01*
X414873Y14216D01*
X415090Y13890D01*
X415893Y13088D01*
X415893Y13088D01*
X416290Y12690D01*
X416616Y12473D01*
X417000Y12397D01*
X430900D01*
X431284Y12473D01*
X431610Y12690D01*
X432410Y13490D01*
X432627Y13816D01*
X432703Y14200D01*
Y20049D01*
X433204Y20164D01*
X433745Y19622D01*
X434508Y19182D01*
X435359Y18954D01*
X436241D01*
X437092Y19182D01*
X437855Y19622D01*
X438478Y20245D01*
X438918Y21008D01*
X439147Y21859D01*
Y22741D01*
X438918Y23592D01*
X438478Y24355D01*
X437855Y24978D01*
X437092Y25418D01*
X436803Y25496D01*
Y42303D01*
X437654Y43154D01*
X437674D01*
X438181Y43363D01*
X438568Y43751D01*
X438778Y44257D01*
Y44806D01*
X438699Y44997D01*
X439033Y45496D01*
X441941D01*
X442148Y44997D01*
X442032Y44881D01*
X441822Y44374D01*
Y43826D01*
X442032Y43319D01*
X442297Y43055D01*
Y38500D01*
X442373Y38116D01*
X442590Y37790D01*
X444797Y35584D01*
Y25496D01*
X444508Y25418D01*
X443745Y24978D01*
X443122Y24355D01*
X442682Y23592D01*
X442453Y22741D01*
Y21859D01*
X442682Y21008D01*
X443122Y20245D01*
X443745Y19622D01*
X444041Y19451D01*
X444091Y18910D01*
X430084Y4904D01*
X343605D01*
X318114Y30394D01*
X318321Y30894D01*
X323163D01*
X323778Y31017D01*
X324298Y31365D01*
X324353Y31446D01*
X333712D01*
X333928Y31123D01*
X334514Y30731D01*
X335205Y30594D01*
X342292D01*
X342983Y30731D01*
X343569Y31123D01*
X343752Y31396D01*
X350741D01*
X352809Y29328D01*
X353134Y29111D01*
X353518Y29034D01*
X355059D01*
Y24503D01*
X350645D01*
X350581Y24568D01*
X350074Y24778D01*
X349526D01*
X349020Y24568D01*
X348632Y24181D01*
X348422Y23674D01*
Y23126D01*
X348632Y22619D01*
X349020Y22232D01*
X349526Y22022D01*
X350074D01*
X350581Y22232D01*
X350845Y22497D01*
X355059D01*
Y14845D01*
X353012D01*
Y7955D01*
X357695D01*
X359360Y6290D01*
X359685Y6073D01*
X360069Y5996D01*
X373655D01*
X373819Y5832D01*
X374326Y5622D01*
X374874D01*
X375380Y5832D01*
X375768Y6219D01*
X375978Y6726D01*
Y7274D01*
X375768Y7780D01*
X375380Y8168D01*
X374874Y8378D01*
X374326D01*
X373819Y8168D01*
X373655Y8004D01*
X367579D01*
Y10809D01*
X363937D01*
X360295D01*
Y8846D01*
X359833Y8655D01*
X359114Y9374D01*
Y14845D01*
X357066D01*
Y23500D01*
Y29034D01*
X372238D01*
X372622Y29111D01*
X372947Y29328D01*
X376610Y32990D01*
X376827Y33316D01*
X376904Y33700D01*
Y45300D01*
X376827Y45684D01*
X376610Y46010D01*
X374510Y48110D01*
X374184Y48327D01*
X373800Y48404D01*
X363247D01*
X362949Y48865D01*
X363077Y49134D01*
X364655Y50712D01*
X364873Y51038D01*
X364949Y51422D01*
Y53378D01*
X364873Y53763D01*
X364655Y54088D01*
X363271Y55472D01*
X363165Y55543D01*
X363069Y56097D01*
X363336Y56397D01*
X380284D01*
X412454Y24227D01*
D02*
G37*
%LPC*%
G36*
X528219Y86321D02*
X524499D01*
Y82600D01*
X528219D01*
Y86321D01*
D02*
G37*
G36*
X523317D02*
X519597D01*
Y82600D01*
X523317D01*
Y86321D01*
D02*
G37*
G36*
X367579Y15436D02*
X364528D01*
Y11991D01*
X367579D01*
Y15436D01*
D02*
G37*
G36*
X363346D02*
X360295D01*
Y11991D01*
X363346D01*
Y15436D01*
D02*
G37*
G36*
X382851Y244594D02*
X376749D01*
Y244450D01*
X335214D01*
X334830Y244374D01*
X334504Y244156D01*
X333669Y243321D01*
X333520Y243098D01*
X332875Y242453D01*
X332863Y242456D01*
X332137D01*
X331436Y242268D01*
X330808Y241905D01*
X330295Y241392D01*
X329932Y240764D01*
X329744Y240063D01*
Y239337D01*
X329932Y238636D01*
X330295Y238008D01*
X330808Y237495D01*
X331436Y237132D01*
X332137Y236944D01*
X332863D01*
X333564Y237132D01*
X333618Y237163D01*
X342256Y228524D01*
Y204159D01*
X341969Y204005D01*
X341756Y203938D01*
X340898Y204109D01*
X337945D01*
Y201700D01*
X337354D01*
Y201110D01*
X331520D01*
X331586Y200778D01*
X332108Y199997D01*
X332889Y199475D01*
X332990Y199455D01*
Y198945D01*
X332889Y198925D01*
X332108Y198403D01*
X331586Y197622D01*
X331520Y197291D01*
X337354D01*
Y196700D01*
X337945D01*
Y194291D01*
X340898D01*
X341756Y194462D01*
X341843Y194461D01*
X342307Y194200D01*
X342333Y194072D01*
X342550Y193747D01*
X345620Y190677D01*
Y188536D01*
X345120Y188329D01*
X343677Y189772D01*
X343351Y189989D01*
X342967Y190066D01*
X342472D01*
X342270Y190566D01*
X342566Y191009D01*
X342704Y191700D01*
X342566Y192391D01*
X342175Y192977D01*
X341589Y193369D01*
X340898Y193506D01*
X333811D01*
X333120Y193369D01*
X332534Y192977D01*
X332142Y192391D01*
X332103Y192194D01*
X331560Y192029D01*
X328915Y194675D01*
X328589Y194893D01*
X328205Y194969D01*
X322257D01*
X322105Y195469D01*
X322398Y195665D01*
X322746Y196186D01*
X322868Y196800D01*
X322746Y197415D01*
X322398Y197935D01*
X321877Y198283D01*
X321263Y198406D01*
X315751D01*
X315137Y198283D01*
X314616Y197935D01*
X314268Y197415D01*
X314145Y196800D01*
X314268Y196186D01*
X314616Y195665D01*
X314909Y195469D01*
X314875Y195158D01*
X314779Y194954D01*
X314470Y194893D01*
X314144Y194675D01*
X311301Y191832D01*
X311084Y191506D01*
X311007Y191122D01*
Y177478D01*
X311084Y177094D01*
X311301Y176768D01*
X314236Y173833D01*
X314190Y173361D01*
X313711Y172645D01*
X313661Y172391D01*
X318507D01*
X323353D01*
X323339Y172462D01*
X323646Y172962D01*
X326130D01*
X330876Y168216D01*
X330685Y167754D01*
X322520D01*
X322398Y167935D01*
X321877Y168283D01*
X321263Y168406D01*
X315751D01*
X315137Y168283D01*
X314616Y167935D01*
X314268Y167414D01*
X314145Y166800D01*
X314268Y166186D01*
X314616Y165665D01*
X315137Y165317D01*
X315751Y165194D01*
X321263D01*
X321877Y165317D01*
X322398Y165665D01*
X322453Y165746D01*
X332317D01*
X332534Y165423D01*
X333120Y165031D01*
X333811Y164894D01*
X336351D01*
Y156476D01*
X334997Y155123D01*
X334535Y155314D01*
Y156883D01*
X331090D01*
Y153832D01*
X333053D01*
X333245Y153370D01*
X332526Y152651D01*
X327055D01*
Y146549D01*
X333945D01*
Y151232D01*
X338064Y155351D01*
X338281Y155677D01*
X338358Y156061D01*
Y164894D01*
X340898D01*
X341589Y165031D01*
X342175Y165423D01*
X342566Y166009D01*
X342704Y166700D01*
X342566Y167391D01*
X342175Y167977D01*
X341589Y168369D01*
X340898Y168506D01*
X333811D01*
X333488Y168442D01*
X328625Y173306D01*
X328908Y173730D01*
X328926Y173722D01*
X329474D01*
X329980Y173932D01*
X329995Y173946D01*
X330146D01*
X332069Y172023D01*
X332005Y171700D01*
X332142Y171009D01*
X332534Y170423D01*
X333120Y170031D01*
X333811Y169894D01*
X340898D01*
X341589Y170031D01*
X342175Y170423D01*
X342358Y170696D01*
X349346D01*
X351414Y168628D01*
X351657Y168466D01*
X351753Y168187D01*
X351770Y167895D01*
X351434Y167391D01*
X351296Y166700D01*
X351360Y166377D01*
X347587Y162603D01*
X340754D01*
X340574Y162678D01*
X340026D01*
X339520Y162468D01*
X339132Y162081D01*
X338922Y161574D01*
Y161026D01*
X339132Y160520D01*
X339520Y160132D01*
X340026Y159922D01*
X340574D01*
X341080Y160132D01*
X341468Y160520D01*
X341500Y160597D01*
X348002D01*
X348387Y160673D01*
X348712Y160890D01*
X352780Y164958D01*
X353102Y164894D01*
X360189D01*
X360662Y164988D01*
X360959Y164690D01*
X361284Y164473D01*
X361668Y164397D01*
X433000D01*
X433384Y164473D01*
X433710Y164690D01*
X436310Y167290D01*
X436527Y167616D01*
X436603Y168000D01*
Y173015D01*
X439755Y176167D01*
X440255Y175960D01*
Y170212D01*
X440897D01*
Y164995D01*
X440722Y164574D01*
Y164026D01*
X440932Y163520D01*
X441319Y163132D01*
X441826Y162922D01*
X442374D01*
X442881Y163132D01*
X443268Y163520D01*
X443478Y164026D01*
Y164574D01*
X443268Y165080D01*
X442904Y165445D01*
Y170212D01*
X447145D01*
Y175960D01*
X447645Y176167D01*
X448761Y175050D01*
Y155824D01*
X448261Y155758D01*
X448118Y156292D01*
X447678Y157055D01*
X447055Y157678D01*
X446292Y158118D01*
X445440Y158346D01*
X444559D01*
X443708Y158118D01*
X443450Y157969D01*
X438410Y163010D01*
X438084Y163227D01*
X437700Y163303D01*
X433645D01*
X433381Y163568D01*
X432874Y163778D01*
X432326D01*
X431819Y163568D01*
X431432Y163180D01*
X431222Y162674D01*
Y162126D01*
X431432Y161619D01*
X431819Y161232D01*
X432326Y161022D01*
X432874D01*
X433381Y161232D01*
X433445Y161296D01*
X437284D01*
X442031Y156550D01*
X441882Y156292D01*
X441653Y155441D01*
Y154905D01*
X441153Y154698D01*
X440434Y155417D01*
X440108Y155635D01*
X439724Y155711D01*
X438274D01*
X438118Y156292D01*
X437678Y157055D01*
X437055Y157678D01*
X436292Y158118D01*
X435440Y158346D01*
X434559D01*
X433708Y158118D01*
X432945Y157678D01*
X432322Y157055D01*
X431882Y156292D01*
X431653Y155441D01*
Y154559D01*
X431882Y153708D01*
X432322Y152945D01*
X432945Y152322D01*
X433708Y151882D01*
X434559Y151654D01*
X435440D01*
X436292Y151882D01*
X437055Y152322D01*
X437678Y152945D01*
X438116Y153704D01*
X439309D01*
X445010Y148003D01*
X444802Y147503D01*
X423916D01*
X418346Y153073D01*
Y158346D01*
X415304D01*
Y161355D01*
X415468Y161520D01*
X415678Y162026D01*
Y162574D01*
X415468Y163081D01*
X415081Y163468D01*
X414574Y163678D01*
X414026D01*
X413519Y163468D01*
X413132Y163081D01*
X412922Y162574D01*
Y162026D01*
X413132Y161520D01*
X413297Y161355D01*
Y158346D01*
X411654D01*
Y155604D01*
X367345D01*
X367180Y155768D01*
X366674Y155978D01*
X366126D01*
X365619Y155768D01*
X365232Y155380D01*
X365022Y154874D01*
Y154326D01*
X365232Y153820D01*
X365619Y153432D01*
X366126Y153222D01*
X366674D01*
X367180Y153432D01*
X367345Y153596D01*
X411654D01*
Y151654D01*
X416927D01*
X422790Y145790D01*
X423116Y145573D01*
X423500Y145496D01*
X497008D01*
X497392Y145573D01*
X497718Y145790D01*
X510524Y158597D01*
X510741Y158922D01*
X510762Y159023D01*
X522584Y170846D01*
X522972Y170622D01*
X523918Y170369D01*
X524898D01*
X525844Y170622D01*
X526692Y171112D01*
X527385Y171805D01*
X527875Y172653D01*
X528128Y173599D01*
Y174579D01*
X527875Y175525D01*
X527385Y176373D01*
X526692Y177066D01*
X525844Y177556D01*
X524898Y177810D01*
X524158D01*
X523951Y178310D01*
X524819Y179177D01*
X525691D01*
X526075Y179254D01*
X526401Y179471D01*
X530707Y183778D01*
X530925Y184103D01*
X530989Y184428D01*
X533765Y187204D01*
X534153Y186980D01*
X535099Y186727D01*
X536079D01*
X537025Y186980D01*
X537873Y187470D01*
X538566Y188163D01*
X539056Y189011D01*
X539309Y189957D01*
Y190937D01*
X539056Y191883D01*
X538566Y192732D01*
X537873Y193424D01*
X537025Y193914D01*
X536079Y194168D01*
X535558D01*
Y195546D01*
X535482Y195930D01*
X535264Y196255D01*
X534150Y197369D01*
X534409Y197817D01*
X535099Y197632D01*
X536079D01*
X537025Y197886D01*
X537413Y198110D01*
X540281Y195241D01*
X540607Y195024D01*
X540991Y194947D01*
X541504D01*
X541819Y194632D01*
X542326Y194422D01*
X542874D01*
X543381Y194632D01*
X543768Y195019D01*
X543978Y195526D01*
Y196074D01*
X543768Y196581D01*
X543381Y196968D01*
X542874Y197178D01*
X542326D01*
X541819Y196968D01*
X541335Y197026D01*
X538832Y199529D01*
X539056Y199917D01*
X539309Y200863D01*
Y201843D01*
X539056Y202789D01*
X538566Y203637D01*
X537873Y204330D01*
X537025Y204820D01*
X536079Y205073D01*
X535099D01*
X534153Y204820D01*
X533305Y204330D01*
X532612Y203637D01*
X532122Y202789D01*
X531869Y201843D01*
Y200863D01*
X532053Y200173D01*
X531605Y199914D01*
X528610Y202910D01*
X528284Y203127D01*
X527900Y203204D01*
X526610D01*
X526476Y203703D01*
X526692Y203829D01*
X527385Y204521D01*
X527875Y205370D01*
X528128Y206316D01*
Y207295D01*
X527875Y208242D01*
X527385Y209090D01*
X526692Y209783D01*
X525844Y210273D01*
X524898Y210526D01*
X523918D01*
X522972Y210273D01*
X522584Y210049D01*
X521523Y211110D01*
X521198Y211327D01*
X520814Y211403D01*
X419400D01*
X419016Y211327D01*
X418690Y211110D01*
X390284Y182703D01*
X361649D01*
X361466Y182977D01*
X360880Y183369D01*
X360189Y183506D01*
X353102D01*
X352780Y183442D01*
X350459Y185763D01*
X350133Y185981D01*
X349910Y186025D01*
X349064Y186871D01*
X349182Y187461D01*
X349373Y187540D01*
X349756Y187924D01*
X350460D01*
X351360Y187023D01*
X351296Y186700D01*
X351434Y186009D01*
X351825Y185423D01*
X352411Y185031D01*
X353102Y184894D01*
X360189D01*
X360880Y185031D01*
X361466Y185423D01*
X361858Y186009D01*
X361995Y186700D01*
X361858Y187391D01*
X361466Y187977D01*
X360880Y188369D01*
X360189Y188506D01*
X353102D01*
X352780Y188442D01*
X351585Y189637D01*
X351259Y189854D01*
X350875Y189931D01*
X349629D01*
X349551Y190037D01*
X349681Y190632D01*
X349795Y190746D01*
X351609D01*
X351825Y190423D01*
X352411Y190031D01*
X353102Y189894D01*
X360189D01*
X360512Y189958D01*
X364322Y186148D01*
Y186126D01*
X364532Y185619D01*
X364919Y185232D01*
X365426Y185022D01*
X365974D01*
X366480Y185232D01*
X366868Y185619D01*
X367078Y186126D01*
Y186674D01*
X366868Y187180D01*
X366480Y187568D01*
X365974Y187778D01*
X365530D01*
X361931Y191377D01*
X361995Y191700D01*
X361858Y192391D01*
X361466Y192977D01*
X360880Y193369D01*
X360189Y193506D01*
X353102D01*
X352411Y193369D01*
X351825Y192977D01*
X351676Y192754D01*
X351146D01*
X351007Y193254D01*
X351212Y193390D01*
X352780Y194958D01*
X353102Y194894D01*
X360189D01*
X360880Y195031D01*
X361466Y195423D01*
X361649Y195696D01*
X397969D01*
X398353Y195773D01*
X398679Y195990D01*
X421555Y218867D01*
X422055Y218659D01*
Y212912D01*
X428945D01*
Y214960D01*
X432584D01*
X432968Y215036D01*
X433293Y215253D01*
X437796Y219756D01*
X439936D01*
Y218692D01*
X444464D01*
Y222826D01*
X439936D01*
Y221763D01*
X437380D01*
X436996Y221686D01*
X436670Y221469D01*
X432168Y216967D01*
X428945D01*
Y219014D01*
X422410D01*
X422203Y219514D01*
X423474Y220786D01*
X428945D01*
Y226888D01*
X422055D01*
Y223704D01*
X416800D01*
X416552Y223654D01*
X416294D01*
X416281Y223668D01*
X415774Y223878D01*
X415226D01*
X414719Y223668D01*
X414332Y223281D01*
X414122Y222774D01*
Y222226D01*
X414332Y221720D01*
X414719Y221332D01*
X415226Y221122D01*
X415774D01*
X416281Y221332D01*
X416596Y221647D01*
X416751D01*
X416999Y221696D01*
X420893D01*
X421084Y221234D01*
X397554Y197704D01*
X361649D01*
X361466Y197977D01*
X360880Y198369D01*
X360189Y198506D01*
X353102D01*
X352411Y198369D01*
X351825Y197977D01*
X351434Y197391D01*
X351296Y196700D01*
X351360Y196377D01*
X350087Y195104D01*
X349391D01*
X348735Y195759D01*
X348410Y195976D01*
X348026Y196053D01*
X346396D01*
X346080Y196368D01*
X345574Y196578D01*
X345026D01*
X344763Y196469D01*
X344263Y196765D01*
Y228940D01*
X344187Y229324D01*
X343969Y229650D01*
X335037Y238582D01*
X335068Y238636D01*
X335256Y239337D01*
Y240063D01*
X335068Y240764D01*
X334705Y241392D01*
X334679Y241419D01*
X335088Y241828D01*
X335237Y242050D01*
X335630Y242443D01*
X340739D01*
X340873Y241943D01*
X340808Y241905D01*
X340295Y241392D01*
X339932Y240764D01*
X339744Y240063D01*
Y239337D01*
X339932Y238636D01*
X340295Y238008D01*
X340808Y237495D01*
X341436Y237132D01*
X342137Y236944D01*
X342863D01*
X343564Y237132D01*
X344192Y237495D01*
X344705Y238008D01*
X345068Y238636D01*
X345256Y239337D01*
Y240063D01*
X345068Y240764D01*
X344705Y241392D01*
X344192Y241905D01*
X344127Y241943D01*
X344261Y242443D01*
X376749D01*
Y238491D01*
X382851D01*
Y244594D01*
D02*
G37*
G36*
X313090Y243006D02*
Y240290D01*
X315806D01*
X315618Y240992D01*
X315178Y241755D01*
X314555Y242378D01*
X313792Y242818D01*
X313090Y243006D01*
D02*
G37*
G36*
X311910D02*
X311208Y242818D01*
X310445Y242378D01*
X309822Y241755D01*
X309382Y240992D01*
X309194Y240290D01*
X311910D01*
Y243006D01*
D02*
G37*
G36*
X322863Y242456D02*
X322137D01*
X321436Y242268D01*
X320808Y241905D01*
X320295Y241392D01*
X319932Y240764D01*
X319744Y240063D01*
Y239337D01*
X319932Y238636D01*
X320295Y238008D01*
X320808Y237495D01*
X321436Y237132D01*
X322137Y236944D01*
X322863D01*
X323564Y237132D01*
X324192Y237495D01*
X324705Y238008D01*
X325068Y238636D01*
X325256Y239337D01*
Y240063D01*
X325068Y240764D01*
X324705Y241392D01*
X324192Y241905D01*
X323564Y242268D01*
X322863Y242456D01*
D02*
G37*
G36*
X315806Y239109D02*
X313090D01*
Y236394D01*
X313792Y236582D01*
X314555Y237022D01*
X315178Y237645D01*
X315618Y238408D01*
X315806Y239109D01*
D02*
G37*
G36*
X311910D02*
X309194D01*
X309382Y238408D01*
X309822Y237645D01*
X310445Y237022D01*
X311208Y236582D01*
X311910Y236394D01*
Y239109D01*
D02*
G37*
G36*
X530960Y254857D02*
X529037D01*
X527150Y254481D01*
X525374Y253745D01*
X523774Y252677D01*
X522414Y251317D01*
X521346Y249718D01*
X520610Y247941D01*
X520235Y246055D01*
Y244131D01*
X520610Y242245D01*
X521346Y240468D01*
X522414Y238869D01*
X523774Y237509D01*
X525374Y236440D01*
X527150Y235704D01*
X529037Y235329D01*
X530960D01*
X532846Y235704D01*
X534623Y236440D01*
X536222Y237509D01*
X537582Y238869D01*
X538651Y240468D01*
X539387Y242245D01*
X539762Y244131D01*
Y246055D01*
X539387Y247941D01*
X538651Y249718D01*
X537582Y251317D01*
X536222Y252677D01*
X534623Y253745D01*
X532846Y254481D01*
X530960Y254857D01*
D02*
G37*
G36*
X380391Y225469D02*
Y222448D01*
X383412D01*
X383193Y223263D01*
X382714Y224094D01*
X382036Y224771D01*
X381206Y225251D01*
X380391Y225469D01*
D02*
G37*
G36*
X379209D02*
X378394Y225251D01*
X377564Y224771D01*
X376886Y224094D01*
X376406Y223263D01*
X376188Y222448D01*
X379209D01*
Y225469D01*
D02*
G37*
G36*
X528719Y222022D02*
X524999D01*
Y218302D01*
X528719D01*
Y222022D01*
D02*
G37*
G36*
X523817D02*
X520097D01*
Y218302D01*
X523817D01*
Y222022D01*
D02*
G37*
G36*
X383412Y221267D02*
X380391D01*
Y218246D01*
X381206Y218464D01*
X382036Y218943D01*
X382714Y219621D01*
X383193Y220452D01*
X383412Y221267D01*
D02*
G37*
G36*
X379209D02*
X376188D01*
X376406Y220452D01*
X376886Y219621D01*
X377564Y218943D01*
X378394Y218464D01*
X379209Y218246D01*
Y221267D01*
D02*
G37*
G36*
X444464Y217708D02*
X439936D01*
Y215303D01*
X436745D01*
X436581Y215468D01*
X436074Y215678D01*
X435526D01*
X435019Y215468D01*
X434632Y215080D01*
X434422Y214574D01*
Y214026D01*
X434632Y213520D01*
X435019Y213132D01*
X435526Y212922D01*
X436074D01*
X436581Y213132D01*
X436745Y213297D01*
X441745D01*
X442129Y213373D01*
X442430Y213574D01*
X444464D01*
Y217708D01*
D02*
G37*
G36*
X528719Y217121D02*
X524999D01*
Y213400D01*
X528719D01*
Y217121D01*
D02*
G37*
G36*
X523817D02*
X520097D01*
Y213400D01*
X523817D01*
Y217121D01*
D02*
G37*
G36*
X536079Y215979D02*
X535099D01*
X534153Y215725D01*
X533305Y215235D01*
X532612Y214543D01*
X532122Y213694D01*
X531869Y212748D01*
Y211768D01*
X532122Y210822D01*
X532612Y209974D01*
X533305Y209281D01*
X534153Y208791D01*
X535099Y208538D01*
X536079D01*
X537025Y208791D01*
X537873Y209281D01*
X538566Y209974D01*
X539056Y210822D01*
X539309Y211768D01*
Y212748D01*
X539056Y213694D01*
X538566Y214543D01*
X537873Y215235D01*
X537025Y215725D01*
X536079Y215979D01*
D02*
G37*
G36*
X321263Y204008D02*
X319097D01*
Y202391D01*
X323353D01*
X323303Y202645D01*
X322824Y203361D01*
X322108Y203840D01*
X321263Y204008D01*
D02*
G37*
G36*
X317916D02*
X315751D01*
X314906Y203840D01*
X314190Y203361D01*
X313711Y202645D01*
X313661Y202391D01*
X317916D01*
Y204008D01*
D02*
G37*
G36*
X360189Y204109D02*
X357236D01*
Y202291D01*
X362480D01*
X362414Y202622D01*
X361892Y203403D01*
X361111Y203925D01*
X360189Y204109D01*
D02*
G37*
G36*
X356055D02*
X353102D01*
X352181Y203925D01*
X351399Y203403D01*
X350877Y202622D01*
X350811Y202291D01*
X356055D01*
Y204109D01*
D02*
G37*
G36*
X336764D02*
X333811D01*
X332889Y203925D01*
X332108Y203403D01*
X331586Y202622D01*
X331520Y202291D01*
X336764D01*
Y204109D01*
D02*
G37*
G36*
X323353Y201209D02*
X319097D01*
Y199592D01*
X321263D01*
X322108Y199760D01*
X322824Y200239D01*
X323303Y200955D01*
X323353Y201209D01*
D02*
G37*
G36*
X317916D02*
X313661D01*
X313711Y200955D01*
X314190Y200239D01*
X314906Y199760D01*
X315751Y199592D01*
X317916D01*
Y201209D01*
D02*
G37*
G36*
X362480Y201110D02*
X357236D01*
Y199292D01*
X360189D01*
X361111Y199475D01*
X361892Y199997D01*
X362414Y200778D01*
X362480Y201110D01*
D02*
G37*
G36*
X356055D02*
X350811D01*
X350877Y200778D01*
X351399Y199997D01*
X352181Y199475D01*
X353102Y199292D01*
X356055D01*
Y201110D01*
D02*
G37*
G36*
X336764Y196109D02*
X331520D01*
X331586Y195778D01*
X332108Y194997D01*
X332889Y194475D01*
X333811Y194291D01*
X336764D01*
Y196109D01*
D02*
G37*
G36*
X536079Y183262D02*
X535099D01*
X534153Y183009D01*
X533305Y182519D01*
X532612Y181826D01*
X532122Y180978D01*
X531869Y180032D01*
Y179052D01*
X532122Y178106D01*
X532612Y177257D01*
X533305Y176565D01*
X534153Y176075D01*
X534641Y175944D01*
Y172590D01*
X534532Y172480D01*
X534322Y171974D01*
Y171426D01*
X534532Y170920D01*
X534919Y170532D01*
X535426Y170322D01*
X535974D01*
X536481Y170532D01*
X536868Y170920D01*
X537078Y171426D01*
Y171974D01*
X536868Y172480D01*
X536648Y172701D01*
Y175974D01*
X537025Y176075D01*
X537873Y176565D01*
X538566Y177257D01*
X539056Y178106D01*
X539309Y179052D01*
Y180032D01*
X539056Y180978D01*
X538566Y181826D01*
X537873Y182519D01*
X537025Y183009D01*
X536079Y183262D01*
D02*
G37*
G36*
X323353Y171210D02*
X319097D01*
Y169592D01*
X321263D01*
X322108Y169760D01*
X322824Y170239D01*
X323303Y170955D01*
X323353Y171210D01*
D02*
G37*
G36*
X317916D02*
X313661D01*
X313711Y170955D01*
X314190Y170239D01*
X314906Y169760D01*
X315751Y169592D01*
X317916D01*
Y171210D01*
D02*
G37*
G36*
X334535Y161116D02*
X331090D01*
Y158065D01*
X334535D01*
Y161116D01*
D02*
G37*
G36*
X329909D02*
X326465D01*
Y158065D01*
X329909D01*
Y161116D01*
D02*
G37*
G36*
Y156883D02*
X326465D01*
Y153832D01*
X329909D01*
Y156883D01*
D02*
G37*
G36*
X425441Y158346D02*
X424559D01*
X423708Y158118D01*
X422945Y157678D01*
X422322Y157055D01*
X421881Y156292D01*
X421654Y155441D01*
Y154559D01*
X421881Y153708D01*
X422322Y152945D01*
X422945Y152322D01*
X423708Y151882D01*
X424559Y151654D01*
X425441D01*
X426292Y151882D01*
X427055Y152322D01*
X427678Y152945D01*
X428118Y153708D01*
X428346Y154559D01*
Y155441D01*
X428118Y156292D01*
X427678Y157055D01*
X427055Y157678D01*
X426292Y158118D01*
X425441Y158346D01*
D02*
G37*
G36*
X530960Y156471D02*
X529037D01*
X527150Y156096D01*
X525374Y155360D01*
X523774Y154291D01*
X522414Y152931D01*
X521346Y151332D01*
X520610Y149555D01*
X520235Y147669D01*
Y145745D01*
X520610Y143859D01*
X521346Y142082D01*
X522414Y140483D01*
X523774Y139123D01*
X525374Y138055D01*
X527150Y137319D01*
X529037Y136943D01*
X530960D01*
X532846Y137319D01*
X534623Y138055D01*
X536222Y139123D01*
X537582Y140483D01*
X538651Y142082D01*
X539387Y143859D01*
X539762Y145745D01*
Y147669D01*
X539387Y149555D01*
X538651Y151332D01*
X537582Y152931D01*
X536222Y154291D01*
X534623Y155360D01*
X532846Y156096D01*
X530960Y156471D01*
D02*
G37*
%LPD*%
G36*
X520941Y183558D02*
X521431Y182710D01*
X522123Y182017D01*
X522972Y181527D01*
X523525Y181379D01*
X523623Y181096D01*
X523635Y180832D01*
X516690Y173887D01*
X516473Y173562D01*
X516397Y173178D01*
Y171316D01*
X494484Y149404D01*
X446448D01*
X444698Y151154D01*
X444905Y151654D01*
X445440D01*
X446292Y151882D01*
X447055Y152322D01*
X447678Y152945D01*
X448118Y153708D01*
X448304Y154402D01*
X448817Y154385D01*
X448838Y154283D01*
X449055Y153958D01*
X452660Y150353D01*
X452985Y150136D01*
X453369Y150059D01*
X461063D01*
X461447Y150136D01*
X461772Y150353D01*
X463450Y152031D01*
X463708Y151882D01*
X464559Y151654D01*
X465441D01*
X466292Y151882D01*
X467055Y152322D01*
X467678Y152945D01*
X468118Y153708D01*
X468346Y154559D01*
Y155441D01*
X468118Y156292D01*
X467969Y156550D01*
X495410Y183991D01*
X520825D01*
X520941Y183558D01*
D02*
G37*
%LPC*%
G36*
X497874Y182678D02*
X497326D01*
X496819Y182468D01*
X496432Y182080D01*
X496222Y181574D01*
Y181026D01*
X496432Y180519D01*
X496496Y180455D01*
Y177916D01*
X476550Y157969D01*
X476292Y158118D01*
X475441Y158346D01*
X474559D01*
X473708Y158118D01*
X472945Y157678D01*
X472322Y157055D01*
X471881Y156292D01*
X471654Y155441D01*
Y154559D01*
X471881Y153708D01*
X472322Y152945D01*
X472945Y152322D01*
X473708Y151882D01*
X474559Y151654D01*
X475441D01*
X476292Y151882D01*
X477055Y152322D01*
X477678Y152945D01*
X478118Y153708D01*
X478346Y154559D01*
Y155441D01*
X478118Y156292D01*
X477969Y156550D01*
X498210Y176790D01*
X498427Y177116D01*
X498503Y177500D01*
Y180255D01*
X498768Y180519D01*
X498978Y181026D01*
Y181574D01*
X498768Y182080D01*
X498381Y182468D01*
X497874Y182678D01*
D02*
G37*
G36*
X485591Y158918D02*
Y155591D01*
X488918D01*
X488669Y156520D01*
X488150Y157417D01*
X487417Y158150D01*
X486520Y158669D01*
X485591Y158918D01*
D02*
G37*
G36*
X484409D02*
X483480Y158669D01*
X482583Y158150D01*
X481850Y157417D01*
X481331Y156520D01*
X481082Y155591D01*
X484409D01*
Y158918D01*
D02*
G37*
G36*
X488918Y154410D02*
X485591D01*
Y151082D01*
X486520Y151331D01*
X487417Y151850D01*
X488150Y152583D01*
X488669Y153480D01*
X488918Y154410D01*
D02*
G37*
G36*
X484409D02*
X481082D01*
X481331Y153480D01*
X481850Y152583D01*
X482583Y151850D01*
X483480Y151331D01*
X484409Y151082D01*
Y154410D01*
D02*
G37*
G36*
X349905Y381152D02*
X332816D01*
X332432Y381076D01*
X332106Y380858D01*
X330587Y379339D01*
X330533Y379370D01*
X329832Y379558D01*
X329107D01*
X328406Y379370D01*
X327777Y379007D01*
X327264Y378494D01*
X326901Y377866D01*
X326714Y377165D01*
Y376439D01*
X326901Y375738D01*
X327264Y375110D01*
X327777Y374597D01*
X328406Y374234D01*
X329107Y374046D01*
X329832D01*
X330533Y374234D01*
X330587Y374265D01*
X339700Y365153D01*
Y339659D01*
X339412Y339505D01*
X339200Y339438D01*
X338341Y339609D01*
X335388D01*
Y337200D01*
X334798D01*
Y336610D01*
X328963D01*
X329029Y336278D01*
X329551Y335497D01*
X330333Y334975D01*
X330433Y334955D01*
Y334445D01*
X330333Y334425D01*
X329551Y333903D01*
X329029Y333122D01*
X328963Y332791D01*
X334798D01*
Y332200D01*
X335388D01*
Y329791D01*
X338341D01*
X339263Y329975D01*
X339502Y330135D01*
X339776Y330022D01*
X339994Y329696D01*
X343060Y326630D01*
Y320533D01*
X343136Y320149D01*
X343354Y319823D01*
X346687Y316490D01*
X347012Y316273D01*
X347396Y316196D01*
X349086D01*
X349269Y315923D01*
X349855Y315531D01*
X350546Y315394D01*
X357632D01*
X358324Y315531D01*
X358910Y315923D01*
X359301Y316509D01*
X359439Y317200D01*
X359301Y317891D01*
X358910Y318477D01*
X358324Y318869D01*
X357632Y319006D01*
X350546D01*
X349855Y318869D01*
X349269Y318477D01*
X349086Y318203D01*
X347812D01*
X345067Y320948D01*
Y327045D01*
X344991Y327429D01*
X344773Y327755D01*
X341707Y330821D01*
Y365568D01*
X341630Y365952D01*
X341413Y366278D01*
X332006Y375684D01*
X332038Y375738D01*
X332225Y376439D01*
Y377165D01*
X332038Y377866D01*
X332006Y377920D01*
X333232Y379145D01*
X337208D01*
X337415Y378645D01*
X337264Y378494D01*
X336901Y377866D01*
X336714Y377165D01*
Y376439D01*
X336901Y375738D01*
X337264Y375110D01*
X337777Y374597D01*
X338406Y374234D01*
X339107Y374046D01*
X339832D01*
X340533Y374234D01*
X341162Y374597D01*
X341675Y375110D01*
X342038Y375738D01*
X342225Y376439D01*
Y377165D01*
X342038Y377866D01*
X341675Y378494D01*
X341524Y378645D01*
X341731Y379145D01*
X349489D01*
X356202Y372433D01*
X356527Y372216D01*
X356911Y372139D01*
X367749D01*
Y370091D01*
X373851D01*
Y376194D01*
X367749D01*
Y374146D01*
X357327D01*
X350615Y380858D01*
X350289Y381076D01*
X349905Y381152D01*
D02*
G37*
G36*
X310060Y380108D02*
Y377393D01*
X312776D01*
X312588Y378094D01*
X312147Y378857D01*
X311524Y379480D01*
X310761Y379921D01*
X310060Y380108D01*
D02*
G37*
G36*
X308879D02*
X308178Y379921D01*
X307415Y379480D01*
X306792Y378857D01*
X306351Y378094D01*
X306163Y377393D01*
X308879D01*
Y380108D01*
D02*
G37*
G36*
X319832Y379558D02*
X319107D01*
X318406Y379370D01*
X317777Y379007D01*
X317264Y378494D01*
X316901Y377866D01*
X316714Y377165D01*
Y376439D01*
X316901Y375738D01*
X317264Y375110D01*
X317777Y374597D01*
X318406Y374234D01*
X319107Y374046D01*
X319832D01*
X320533Y374234D01*
X321162Y374597D01*
X321675Y375110D01*
X322038Y375738D01*
X322225Y376439D01*
Y377165D01*
X322038Y377866D01*
X321675Y378494D01*
X321162Y379007D01*
X320533Y379370D01*
X319832Y379558D01*
D02*
G37*
G36*
X312776Y376212D02*
X310060D01*
Y373496D01*
X310761Y373684D01*
X311524Y374124D01*
X312147Y374747D01*
X312588Y375511D01*
X312776Y376212D01*
D02*
G37*
G36*
X308879D02*
X306163D01*
X306351Y375511D01*
X306792Y374747D01*
X307415Y374124D01*
X308178Y373684D01*
X308879Y373496D01*
Y376212D01*
D02*
G37*
G36*
X530883Y380197D02*
X528960D01*
X527073Y379822D01*
X525296Y379086D01*
X523697Y378017D01*
X522337Y376657D01*
X521269Y375058D01*
X520533Y373281D01*
X520158Y371395D01*
Y369471D01*
X520533Y367585D01*
X521269Y365808D01*
X522337Y364209D01*
X523697Y362849D01*
X525296Y361781D01*
X527073Y361045D01*
X528960Y360669D01*
X530883D01*
X532769Y361045D01*
X534546Y361781D01*
X536145Y362849D01*
X537505Y364209D01*
X538574Y365808D01*
X539310Y367585D01*
X539685Y369471D01*
Y371395D01*
X539310Y373281D01*
X538574Y375058D01*
X537505Y376657D01*
X536145Y378017D01*
X534546Y379086D01*
X532769Y379822D01*
X530883Y380197D01*
D02*
G37*
G36*
X371391Y357069D02*
Y354048D01*
X374412D01*
X374194Y354863D01*
X373714Y355694D01*
X373036Y356371D01*
X372206Y356851D01*
X371391Y357069D01*
D02*
G37*
G36*
X370209D02*
X369394Y356851D01*
X368564Y356371D01*
X367886Y355694D01*
X367406Y354863D01*
X367188Y354048D01*
X370209D01*
Y357069D01*
D02*
G37*
G36*
X434845Y358088D02*
X427955D01*
Y351986D01*
X434845D01*
Y354033D01*
X447365D01*
X447436Y353962D01*
Y351247D01*
X451964D01*
Y355381D01*
X448855D01*
X448490Y355747D01*
X448165Y355964D01*
X447780Y356041D01*
X434845D01*
Y358088D01*
D02*
G37*
G36*
X374412Y352867D02*
X371391D01*
Y349846D01*
X372206Y350064D01*
X373036Y350543D01*
X373714Y351221D01*
X374194Y352052D01*
X374412Y352867D01*
D02*
G37*
G36*
X370209D02*
X367188D01*
X367406Y352052D01*
X367886Y351221D01*
X368564Y350543D01*
X369394Y350064D01*
X370209Y349846D01*
Y352867D01*
D02*
G37*
G36*
X451964Y350263D02*
X447436D01*
Y346129D01*
X451964D01*
Y350263D01*
D02*
G37*
G36*
X434845Y350214D02*
X427955D01*
Y347985D01*
X400989D01*
X400605Y347908D01*
X400280Y347691D01*
X385793Y333204D01*
X359093D01*
X358910Y333477D01*
X358324Y333869D01*
X357632Y334006D01*
X350546D01*
X349855Y333869D01*
X349269Y333477D01*
X349086Y333204D01*
X346713D01*
X346442Y333150D01*
X346374Y333178D01*
X345826D01*
X345320Y332968D01*
X344932Y332580D01*
X344722Y332074D01*
Y331526D01*
X344932Y331019D01*
X345320Y330632D01*
X345826Y330422D01*
X346374D01*
X346881Y330632D01*
X347268Y331019D01*
X347341Y331196D01*
X348883D01*
X349180Y330735D01*
X349052Y330466D01*
X347474Y328888D01*
X347256Y328562D01*
X347180Y328179D01*
Y326222D01*
X347256Y325837D01*
X347474Y325512D01*
X349052Y323934D01*
X349269Y323477D01*
X349144Y323290D01*
X348877Y322891D01*
X348740Y322200D01*
X348877Y321509D01*
X349269Y320923D01*
X349855Y320531D01*
X350546Y320394D01*
X357632D01*
X358311Y320529D01*
X358412Y320427D01*
X358738Y320210D01*
X358780Y320201D01*
X360566Y318415D01*
Y315985D01*
X359285Y314704D01*
X359068Y314379D01*
X358991Y313995D01*
X358491Y313757D01*
X358324Y313869D01*
X357632Y314006D01*
X350546D01*
X349855Y313869D01*
X349269Y313477D01*
X349086Y313204D01*
X346216D01*
X341707Y317712D01*
Y318178D01*
X341631Y318562D01*
X341413Y318888D01*
X340023Y320278D01*
X340044Y320497D01*
X340566Y321278D01*
X340632Y321609D01*
X334798D01*
Y322200D01*
X334207D01*
Y324608D01*
X331254D01*
X330333Y324425D01*
X329551Y323903D01*
X329172Y323336D01*
X328610Y323136D01*
X328523Y323139D01*
X328200Y323203D01*
X319879D01*
X319791Y323335D01*
X319270Y323683D01*
X318656Y323806D01*
X313144D01*
X312530Y323683D01*
X312009Y323335D01*
X311661Y322814D01*
X311538Y322200D01*
X311661Y321586D01*
X312009Y321065D01*
X312530Y320717D01*
X313144Y320594D01*
X318656D01*
X319270Y320717D01*
X319791Y321065D01*
X319879Y321197D01*
X327785D01*
X327921Y321060D01*
X327965Y320838D01*
X328183Y320512D01*
X329704Y318990D01*
X329775Y318943D01*
X329897Y318661D01*
X329634Y318203D01*
X319879D01*
X319791Y318335D01*
X319270Y318683D01*
X318656Y318806D01*
X313144D01*
X312530Y318683D01*
X312009Y318335D01*
X311661Y317814D01*
X311538Y317200D01*
X311661Y316586D01*
X312009Y316065D01*
X312530Y315717D01*
X313144Y315594D01*
X318656D01*
X319270Y315717D01*
X319791Y316065D01*
X319879Y316196D01*
X329395D01*
X329483Y316066D01*
X329218Y315566D01*
X325112D01*
X324728Y315489D01*
X324402Y315272D01*
X322334Y313204D01*
X319879D01*
X319791Y313335D01*
X319270Y313683D01*
X318656Y313806D01*
X313144D01*
X312530Y313683D01*
X312009Y313335D01*
X311661Y312814D01*
X311538Y312200D01*
X311661Y311586D01*
X312009Y311065D01*
X312530Y310717D01*
X313144Y310594D01*
X318656D01*
X319270Y310717D01*
X319791Y311065D01*
X319879Y311196D01*
X322749D01*
X323133Y311273D01*
X323459Y311490D01*
X325527Y313559D01*
X326456D01*
X326552Y313059D01*
X326328Y312910D01*
X326100Y312681D01*
X325665D01*
X325231Y312501D01*
X324899Y312169D01*
X324719Y311735D01*
Y311265D01*
X324899Y310831D01*
X325231Y310499D01*
X325665Y310319D01*
X325743D01*
X325842Y309819D01*
X325719Y309768D01*
X325332Y309381D01*
X325122Y308874D01*
Y308326D01*
X325332Y307820D01*
X325719Y307432D01*
X326226Y307222D01*
X326672D01*
X327395Y306499D01*
X327721Y306281D01*
X328105Y306205D01*
X329789D01*
X329977Y305923D01*
X330563Y305531D01*
X331254Y305394D01*
X338341D01*
X339032Y305531D01*
X339618Y305923D01*
X339801Y306196D01*
X346790D01*
X349052Y303934D01*
X349269Y303477D01*
X349144Y303290D01*
X348877Y302891D01*
X348740Y302200D01*
X348804Y301877D01*
X345903Y298976D01*
X345685Y298651D01*
X345677Y298609D01*
X345294Y298225D01*
X345084Y297719D01*
Y297171D01*
X345294Y296664D01*
X345681Y296277D01*
X346188Y296067D01*
X346736D01*
X347242Y296277D01*
X347630Y296664D01*
X347840Y297171D01*
Y297719D01*
X347736Y297971D01*
X350223Y300458D01*
X350546Y300394D01*
X357632D01*
X358324Y300531D01*
X358910Y300923D01*
X359093Y301197D01*
X387691D01*
X394672Y294216D01*
X394998Y293998D01*
X395382Y293922D01*
X416575D01*
X416626Y293847D01*
X416359Y293347D01*
X411654D01*
Y286654D01*
X416927D01*
X417160Y286421D01*
X417204Y286355D01*
X421355Y282204D01*
X421421Y282160D01*
X426790Y276790D01*
X427116Y276573D01*
X427500Y276497D01*
X510800D01*
X511184Y276573D01*
X511510Y276790D01*
X525040Y290321D01*
X525258Y290647D01*
X525334Y291031D01*
Y295846D01*
X525767Y295962D01*
X526615Y296452D01*
X527308Y297145D01*
X527798Y297993D01*
X528051Y298939D01*
Y299919D01*
X527798Y300865D01*
X527308Y301714D01*
X526615Y302406D01*
X525767Y302896D01*
X524821Y303150D01*
X523841D01*
X522895Y302896D01*
X522046Y302406D01*
X521354Y301714D01*
X520864Y300865D01*
X520610Y299919D01*
Y298939D01*
X520864Y297993D01*
X521354Y297145D01*
X522046Y296452D01*
X522895Y295962D01*
X523327Y295846D01*
Y291446D01*
X510384Y278503D01*
X453344D01*
X453192Y279004D01*
X453268Y279054D01*
X461221Y287007D01*
X461439Y287333D01*
X461515Y287717D01*
Y288343D01*
X462015Y288477D01*
X462322Y287945D01*
X462945Y287322D01*
X463708Y286882D01*
X464559Y286654D01*
X465441D01*
X466292Y286882D01*
X467055Y287322D01*
X467678Y287945D01*
X468118Y288708D01*
X468346Y289560D01*
Y290441D01*
X468118Y291292D01*
X467678Y292055D01*
X467055Y292678D01*
X466292Y293118D01*
X465441Y293347D01*
X464559D01*
X463708Y293118D01*
X462945Y292678D01*
X462322Y292055D01*
X462015Y291523D01*
X461515Y291657D01*
Y308063D01*
X461439Y308447D01*
X461221Y308772D01*
X447514Y322479D01*
X447189Y322697D01*
X446805Y322773D01*
X429805D01*
X424669Y327910D01*
X424343Y328127D01*
X423959Y328204D01*
X359492D01*
X359403Y328334D01*
X359669Y328834D01*
X386073D01*
X386457Y328911D01*
X386783Y329128D01*
X392251Y334596D01*
X428136D01*
Y331010D01*
X432664D01*
Y335143D01*
X430638D01*
X429472Y336310D01*
X429146Y336527D01*
X428762Y336603D01*
X392685D01*
X392493Y337066D01*
X401405Y345978D01*
X427955D01*
Y344112D01*
X434845D01*
Y350214D01*
D02*
G37*
G36*
X528642Y347362D02*
X524921D01*
Y343642D01*
X528642D01*
Y347362D01*
D02*
G37*
G36*
X523740D02*
X520020D01*
Y343642D01*
X523740D01*
Y347362D01*
D02*
G37*
G36*
X528642Y342461D02*
X524921D01*
Y338740D01*
X528642D01*
Y342461D01*
D02*
G37*
G36*
X523740D02*
X520020D01*
Y338740D01*
X523740D01*
Y342461D01*
D02*
G37*
G36*
X357632Y339609D02*
X354680D01*
Y337791D01*
X359924D01*
X359858Y338122D01*
X359335Y338903D01*
X358554Y339425D01*
X357632Y339609D01*
D02*
G37*
G36*
X318656Y339408D02*
X316491D01*
Y337791D01*
X320746D01*
X320696Y338045D01*
X320217Y338761D01*
X319501Y339240D01*
X318656Y339408D01*
D02*
G37*
G36*
X315309D02*
X313144D01*
X312299Y339240D01*
X311583Y338761D01*
X311104Y338045D01*
X311054Y337791D01*
X315309D01*
Y339408D01*
D02*
G37*
G36*
X334207Y339609D02*
X331254D01*
X330333Y339425D01*
X329551Y338903D01*
X329029Y338122D01*
X328963Y337791D01*
X334207D01*
Y339609D01*
D02*
G37*
G36*
X353499D02*
X350546D01*
X349624Y339425D01*
X348843Y338903D01*
X348321Y338122D01*
X348255Y337791D01*
X353499D01*
Y339609D01*
D02*
G37*
G36*
X320746Y336610D02*
X316491D01*
Y334992D01*
X318656D01*
X319501Y335160D01*
X320217Y335639D01*
X320696Y336355D01*
X320746Y336610D01*
D02*
G37*
G36*
X315309D02*
X311054D01*
X311104Y336355D01*
X311583Y335639D01*
X312299Y335160D01*
X313144Y334992D01*
X315309D01*
Y336610D01*
D02*
G37*
G36*
X359924D02*
X354680D01*
Y334791D01*
X357632D01*
X358554Y334975D01*
X359335Y335497D01*
X359858Y336278D01*
X359924Y336610D01*
D02*
G37*
G36*
X353499D02*
X348255D01*
X348321Y336278D01*
X348843Y335497D01*
X349624Y334975D01*
X350546Y334791D01*
X353499D01*
Y336610D01*
D02*
G37*
G36*
X536002Y341319D02*
X535022D01*
X534076Y341065D01*
X533227Y340576D01*
X532535Y339883D01*
X532045Y339035D01*
X531791Y338088D01*
Y337109D01*
X532045Y336162D01*
X532535Y335314D01*
X533227Y334621D01*
X534076Y334132D01*
X535022Y333878D01*
X536002D01*
X536948Y334132D01*
X537796Y334621D01*
X538489Y335314D01*
X538979Y336162D01*
X539232Y337109D01*
Y338088D01*
X538979Y339035D01*
X538489Y339883D01*
X537796Y340576D01*
X536948Y341065D01*
X536002Y341319D01*
D02*
G37*
G36*
X451845Y337250D02*
X444955D01*
Y331148D01*
X451845D01*
Y337250D01*
D02*
G37*
G36*
X318656Y333806D02*
X313144D01*
X312530Y333683D01*
X312009Y333335D01*
X311661Y332815D01*
X311538Y332200D01*
X311661Y331586D01*
X312009Y331065D01*
X312530Y330717D01*
X313144Y330594D01*
X318656D01*
X319270Y330717D01*
X319791Y331065D01*
X320139Y331586D01*
X320262Y332200D01*
X320139Y332815D01*
X319791Y333335D01*
X319270Y333683D01*
X318656Y333806D01*
D02*
G37*
G36*
X334207Y331610D02*
X328963D01*
X329029Y331278D01*
X329551Y330497D01*
X330333Y329975D01*
X331254Y329791D01*
X334207D01*
Y331610D01*
D02*
G37*
G36*
X524821Y335866D02*
X523841D01*
X522895Y335613D01*
X522046Y335123D01*
X521354Y334430D01*
X520864Y333582D01*
X520610Y332635D01*
Y331656D01*
X520864Y330710D01*
X521354Y329861D01*
X522046Y329169D01*
X522895Y328679D01*
X523841Y328425D01*
X524821D01*
X525767Y328679D01*
X526615Y329169D01*
X527308Y329861D01*
X527798Y330710D01*
X528051Y331656D01*
Y332635D01*
X527798Y333582D01*
X527308Y334430D01*
X526615Y335123D01*
X525767Y335613D01*
X524821Y335866D01*
D02*
G37*
G36*
X318656Y328806D02*
X313144D01*
X312530Y328683D01*
X312009Y328335D01*
X311661Y327815D01*
X311538Y327200D01*
X311661Y326586D01*
X312009Y326065D01*
X312530Y325717D01*
X313144Y325594D01*
X318656D01*
X319270Y325717D01*
X319791Y326065D01*
X320139Y326586D01*
X320262Y327200D01*
X320139Y327815D01*
X319791Y328335D01*
X319270Y328683D01*
X318656Y328806D01*
D02*
G37*
G36*
X338341Y329006D02*
X331254D01*
X330563Y328869D01*
X329977Y328477D01*
X329586Y327891D01*
X329448Y327200D01*
X329586Y326509D01*
X329977Y325923D01*
X330563Y325531D01*
X331254Y325394D01*
X338341D01*
X339032Y325531D01*
X339618Y325923D01*
X340010Y326509D01*
X340147Y327200D01*
X340010Y327891D01*
X339618Y328477D01*
X339032Y328869D01*
X338341Y329006D01*
D02*
G37*
G36*
X432664Y330025D02*
X428136D01*
Y325891D01*
X430162D01*
X430438Y325616D01*
X430763Y325398D01*
X431147Y325322D01*
X444955D01*
Y323274D01*
X451845D01*
Y329376D01*
X444955D01*
Y327329D01*
X432664D01*
Y330025D01*
D02*
G37*
G36*
X536002Y330414D02*
X535022D01*
X534076Y330160D01*
X533227Y329670D01*
X532535Y328977D01*
X532045Y328129D01*
X531791Y327183D01*
Y326203D01*
X532045Y325257D01*
X532535Y324409D01*
X533227Y323716D01*
X534076Y323226D01*
X535022Y322973D01*
X536002D01*
X536948Y323226D01*
X537796Y323716D01*
X538489Y324409D01*
X538979Y325257D01*
X539232Y326203D01*
Y327183D01*
X538979Y328129D01*
X538489Y328977D01*
X537796Y329670D01*
X536948Y330160D01*
X536002Y330414D01*
D02*
G37*
G36*
X338341Y324608D02*
X335388D01*
Y322791D01*
X340632D01*
X340566Y323122D01*
X340044Y323903D01*
X339263Y324425D01*
X338341Y324608D01*
D02*
G37*
G36*
X524821Y324961D02*
X523841D01*
X522895Y324707D01*
X522046Y324217D01*
X521354Y323525D01*
X520864Y322676D01*
X520610Y321730D01*
Y320750D01*
X520864Y319804D01*
X521354Y318956D01*
X522046Y318263D01*
X522895Y317773D01*
X523841Y317520D01*
X524821D01*
X525767Y317773D01*
X526615Y318263D01*
X527308Y318956D01*
X527798Y319804D01*
X528051Y320750D01*
Y321730D01*
X527798Y322676D01*
X527308Y323525D01*
X526615Y324217D01*
X525767Y324707D01*
X524821Y324961D01*
D02*
G37*
G36*
X536002Y319508D02*
X535022D01*
X534076Y319254D01*
X533227Y318764D01*
X532535Y318072D01*
X532045Y317224D01*
X531791Y316277D01*
Y315298D01*
X532045Y314351D01*
X532535Y313503D01*
X533227Y312810D01*
X534076Y312320D01*
X535022Y312067D01*
X536002D01*
X536948Y312320D01*
X537796Y312810D01*
X538489Y313503D01*
X538979Y314351D01*
X539232Y315298D01*
Y316277D01*
X538979Y317224D01*
X538489Y318072D01*
X537796Y318764D01*
X536948Y319254D01*
X536002Y319508D01*
D02*
G37*
G36*
X318656Y309408D02*
X316491D01*
Y307791D01*
X320746D01*
X320696Y308045D01*
X320217Y308761D01*
X319501Y309240D01*
X318656Y309408D01*
D02*
G37*
G36*
X315309D02*
X313144D01*
X312299Y309240D01*
X311583Y308761D01*
X311104Y308045D01*
X311054Y307791D01*
X315309D01*
Y309408D01*
D02*
G37*
G36*
X320746Y306610D02*
X316491D01*
Y304992D01*
X318656D01*
X319501Y305160D01*
X320217Y305639D01*
X320696Y306355D01*
X320746Y306610D01*
D02*
G37*
G36*
X315309D02*
X311054D01*
X311104Y306355D01*
X311583Y305639D01*
X312299Y305160D01*
X313144Y304992D01*
X315309D01*
Y306610D01*
D02*
G37*
G36*
X536002Y308602D02*
X535022D01*
X534076Y308349D01*
X533227Y307859D01*
X532535Y307166D01*
X532045Y306318D01*
X531791Y305372D01*
Y304392D01*
X532045Y303446D01*
X532535Y302597D01*
X533227Y301905D01*
X534076Y301415D01*
X535022Y301161D01*
X536002D01*
X536948Y301415D01*
X537796Y301905D01*
X538489Y302597D01*
X538979Y303446D01*
X539232Y304392D01*
Y305372D01*
X538979Y306318D01*
X538489Y307166D01*
X537796Y307859D01*
X536948Y308349D01*
X536002Y308602D01*
D02*
G37*
G36*
X524821Y314055D02*
X523841D01*
X522895Y313802D01*
X522046Y313312D01*
X521354Y312619D01*
X520864Y311771D01*
X520610Y310824D01*
Y309845D01*
X520864Y308899D01*
X521354Y308050D01*
X522046Y307358D01*
X522895Y306868D01*
X523078Y306819D01*
X523012Y306319D01*
X494747D01*
X494363Y306242D01*
X494037Y306025D01*
X479309Y291296D01*
X478116D01*
X477678Y292055D01*
X477055Y292678D01*
X476292Y293118D01*
X475441Y293347D01*
X474559D01*
X473708Y293118D01*
X472945Y292678D01*
X472322Y292055D01*
X471881Y291292D01*
X471654Y290441D01*
Y289560D01*
X471881Y288708D01*
X472322Y287945D01*
X472945Y287322D01*
X473708Y286882D01*
X474559Y286654D01*
X475441D01*
X476292Y286882D01*
X477055Y287322D01*
X477678Y287945D01*
X478118Y288708D01*
X478274Y289289D01*
X479724D01*
X480108Y289365D01*
X480434Y289583D01*
X480601Y289750D01*
X481063Y289558D01*
Y289482D01*
X481331Y288480D01*
X481850Y287583D01*
X482583Y286850D01*
X483480Y286331D01*
X484409Y286082D01*
Y290000D01*
X485000D01*
Y290591D01*
X488918D01*
X488669Y291520D01*
X488150Y292417D01*
X487417Y293150D01*
X486520Y293669D01*
X485518Y293937D01*
X485442D01*
X485250Y294399D01*
X495163Y304311D01*
X526353D01*
X529213Y301451D01*
Y292878D01*
X511689Y275354D01*
X345502D01*
X329659Y291197D01*
X329645Y291268D01*
Y292233D01*
X331350D01*
X331590Y292073D01*
X331974Y291997D01*
X334455D01*
X334619Y291832D01*
X335126Y291622D01*
X335674D01*
X336180Y291832D01*
X336568Y292219D01*
X336778Y292726D01*
Y293274D01*
X336568Y293780D01*
X336180Y294168D01*
X335674Y294378D01*
X335126D01*
X334619Y294168D01*
X334140Y294396D01*
X334084Y294503D01*
X334103Y294599D01*
Y300394D01*
X338341D01*
X339032Y300531D01*
X339618Y300923D01*
X340010Y301509D01*
X340147Y302200D01*
X340010Y302891D01*
X339618Y303477D01*
X339032Y303869D01*
X338341Y304006D01*
X331254D01*
X330563Y303869D01*
X329977Y303477D01*
X329794Y303204D01*
X319879D01*
X319791Y303335D01*
X319270Y303683D01*
X318656Y303806D01*
X313144D01*
X312530Y303683D01*
X312009Y303335D01*
X311661Y302815D01*
X311538Y302200D01*
X311661Y301586D01*
X312009Y301065D01*
X312530Y300717D01*
X313144Y300594D01*
X318656D01*
X319270Y300717D01*
X319791Y301065D01*
X319879Y301197D01*
X329794D01*
X329977Y300923D01*
X330563Y300531D01*
X331254Y300394D01*
X332095D01*
Y295015D01*
X331321Y294240D01*
X329645D01*
Y296288D01*
X322755D01*
Y290186D01*
X327872D01*
X327951Y290067D01*
X328551Y289467D01*
X328360Y289005D01*
X326790D01*
Y285954D01*
X330235D01*
Y287129D01*
X330697Y287321D01*
X344377Y273641D01*
X344703Y273423D01*
X345087Y273347D01*
X512105D01*
X512489Y273423D01*
X512814Y273641D01*
X530926Y291753D01*
X531144Y292078D01*
X531220Y292462D01*
Y301867D01*
X531144Y302251D01*
X530926Y302577D01*
X527478Y306025D01*
X527153Y306242D01*
X526769Y306319D01*
X525649D01*
X525583Y306819D01*
X525767Y306868D01*
X526615Y307358D01*
X527308Y308050D01*
X527798Y308899D01*
X528051Y309845D01*
Y310824D01*
X527798Y311771D01*
X527308Y312619D01*
X526615Y313312D01*
X525767Y313802D01*
X524821Y314055D01*
D02*
G37*
G36*
X488918Y289409D02*
X485591D01*
Y286082D01*
X486520Y286331D01*
X487417Y286850D01*
X488150Y287583D01*
X488669Y288480D01*
X488918Y289409D01*
D02*
G37*
G36*
X325609Y289005D02*
X322165D01*
Y285954D01*
X325609D01*
Y289005D01*
D02*
G37*
G36*
X330235Y284772D02*
X326790D01*
Y281721D01*
X330235D01*
Y284772D01*
D02*
G37*
G36*
X325609D02*
X322165D01*
Y281721D01*
X325609D01*
Y284772D01*
D02*
G37*
%LPD*%
D16*
X448700Y59259D02*
D03*
Y54141D02*
D03*
X448400Y87159D02*
D03*
Y82041D02*
D03*
X448700Y112459D02*
D03*
Y107341D02*
D03*
X442200Y215641D02*
D03*
Y220759D02*
D03*
X425200Y201759D02*
D03*
Y196641D02*
D03*
X425500Y180259D02*
D03*
Y175141D02*
D03*
X449700Y348196D02*
D03*
Y353314D02*
D03*
X430400Y333076D02*
D03*
Y327958D02*
D03*
X429600Y312596D02*
D03*
Y307478D02*
D03*
D17*
X281893Y201800D02*
D03*
Y196800D02*
D03*
Y191800D02*
D03*
Y186800D02*
D03*
Y181800D02*
D03*
Y176800D02*
D03*
Y171800D02*
D03*
Y166800D02*
D03*
X318507Y201800D02*
D03*
Y196800D02*
D03*
Y191800D02*
D03*
Y186800D02*
D03*
Y181800D02*
D03*
Y176800D02*
D03*
Y171800D02*
D03*
Y166800D02*
D03*
X279286Y337200D02*
D03*
Y332200D02*
D03*
Y327200D02*
D03*
Y322200D02*
D03*
Y317200D02*
D03*
Y312200D02*
D03*
Y307200D02*
D03*
Y302200D02*
D03*
X315900Y337200D02*
D03*
Y332200D02*
D03*
Y327200D02*
D03*
Y322200D02*
D03*
Y317200D02*
D03*
Y312200D02*
D03*
Y307200D02*
D03*
Y302200D02*
D03*
X320407Y32500D02*
D03*
Y37500D02*
D03*
Y42500D02*
D03*
Y47500D02*
D03*
Y52500D02*
D03*
Y57500D02*
D03*
Y62500D02*
D03*
Y67500D02*
D03*
X283793Y32500D02*
D03*
Y37500D02*
D03*
Y42500D02*
D03*
Y47500D02*
D03*
Y52500D02*
D03*
Y57500D02*
D03*
Y62500D02*
D03*
Y67500D02*
D03*
D18*
X337354Y201700D02*
D03*
Y196700D02*
D03*
Y191700D02*
D03*
Y186700D02*
D03*
Y181700D02*
D03*
Y176700D02*
D03*
Y171700D02*
D03*
Y166700D02*
D03*
X356646Y201700D02*
D03*
Y196700D02*
D03*
Y191700D02*
D03*
Y186700D02*
D03*
Y181700D02*
D03*
Y176700D02*
D03*
Y171700D02*
D03*
Y166700D02*
D03*
X354089Y302200D02*
D03*
Y307200D02*
D03*
Y312200D02*
D03*
Y317200D02*
D03*
Y322200D02*
D03*
Y327200D02*
D03*
Y332200D02*
D03*
Y337200D02*
D03*
X334798Y302200D02*
D03*
Y307200D02*
D03*
Y312200D02*
D03*
Y317200D02*
D03*
Y322200D02*
D03*
Y327200D02*
D03*
Y332200D02*
D03*
Y337200D02*
D03*
X358040Y32400D02*
D03*
Y37400D02*
D03*
Y42400D02*
D03*
Y47400D02*
D03*
Y52400D02*
D03*
Y57400D02*
D03*
Y62400D02*
D03*
Y67400D02*
D03*
X338749Y32400D02*
D03*
Y37400D02*
D03*
Y42400D02*
D03*
Y47400D02*
D03*
Y52400D02*
D03*
Y57400D02*
D03*
Y62400D02*
D03*
Y67400D02*
D03*
D19*
X24159Y36700D02*
D03*
X19041D02*
D03*
X24159Y45400D02*
D03*
X19041D02*
D03*
D20*
X431400Y355037D02*
D03*
Y347163D02*
D03*
X448400Y326325D02*
D03*
Y334199D02*
D03*
X448200Y305400D02*
D03*
Y313274D02*
D03*
X326200Y285363D02*
D03*
Y293237D02*
D03*
X430000Y52126D02*
D03*
Y60000D02*
D03*
Y81063D02*
D03*
Y88937D02*
D03*
Y106063D02*
D03*
Y113937D02*
D03*
X330500Y157474D02*
D03*
Y149600D02*
D03*
X425500Y215963D02*
D03*
Y223837D02*
D03*
X442900Y194963D02*
D03*
Y202837D02*
D03*
X443700Y173263D02*
D03*
Y181137D02*
D03*
D21*
X-390Y283000D02*
D03*
X-19209D02*
D03*
X-490Y248500D02*
D03*
X-19309D02*
D03*
X-790Y265600D02*
D03*
X-19610D02*
D03*
D22*
X254037Y288400D02*
D03*
X246163D02*
D03*
X244763Y20100D02*
D03*
X252637D02*
D03*
X363937Y11400D02*
D03*
X356063D02*
D03*
X243363Y154100D02*
D03*
X251237D02*
D03*
D23*
X-48976Y280280D02*
D03*
Y277130D02*
D03*
Y273980D02*
D03*
Y270831D02*
D03*
Y267681D02*
D03*
Y264531D02*
D03*
Y261382D02*
D03*
Y258232D02*
D03*
Y255083D02*
D03*
Y251933D02*
D03*
Y248783D02*
D03*
Y245634D02*
D03*
Y242484D02*
D03*
Y239335D02*
D03*
Y236185D02*
D03*
Y233035D02*
D03*
Y229886D02*
D03*
Y226736D02*
D03*
Y223587D02*
D03*
Y220437D02*
D03*
Y217287D02*
D03*
Y214138D02*
D03*
Y210988D02*
D03*
Y207839D02*
D03*
Y204689D02*
D03*
Y201539D02*
D03*
Y198390D02*
D03*
Y182642D02*
D03*
Y179492D02*
D03*
Y176343D02*
D03*
Y173193D02*
D03*
Y170043D02*
D03*
Y166894D02*
D03*
Y163744D02*
D03*
Y160594D02*
D03*
Y157445D02*
D03*
Y154295D02*
D03*
Y151146D02*
D03*
Y147996D02*
D03*
Y144846D02*
D03*
Y141697D02*
D03*
Y138547D02*
D03*
Y135398D02*
D03*
Y132248D02*
D03*
Y129098D02*
D03*
Y125949D02*
D03*
Y122799D02*
D03*
Y119650D02*
D03*
Y116500D02*
D03*
Y113350D02*
D03*
D45*
X474449Y112949D02*
X474600Y113100D01*
X448700Y112459D02*
X449190Y112949D01*
X474449D01*
X439613Y86900D02*
X439872Y87159D01*
X448400D01*
X437380Y220759D02*
X442200D01*
X425500Y215963D02*
X432584D01*
X437380Y220759D01*
X431400Y355037D02*
X447780D01*
X449503Y353314D01*
X449700D01*
X334379Y242611D02*
X335214Y243446D01*
X334379Y242537D02*
Y242611D01*
X332500Y240659D02*
X334379Y242537D01*
X332500Y239700D02*
Y240659D01*
X377896Y243446D02*
X379800Y241543D01*
X335214Y243446D02*
X377896D01*
X332500Y239700D02*
X343260Y228940D01*
Y194456D02*
Y228940D01*
Y194456D02*
X346623Y191093D01*
Y187893D02*
Y191093D01*
Y187893D02*
X349463Y185054D01*
X349749D01*
X353102Y181700D01*
X363937Y11400D02*
X364137Y11600D01*
X371100D01*
X358040Y67400D02*
X377900D01*
X329469Y376802D02*
X332816Y380149D01*
X349905D01*
X356911Y373143D01*
X370800D01*
X309470Y340875D02*
Y366931D01*
Y376802D01*
Y366931D02*
X316839Y359561D01*
X331254Y337200D02*
X334798D01*
X316839Y351616D02*
X331254Y337200D01*
X316839Y351616D02*
Y359561D01*
X309470Y340875D02*
X313144Y337200D01*
X313735D01*
X329469Y376802D02*
X340703Y365568D01*
Y330406D02*
Y365568D01*
X344063Y320533D02*
Y327045D01*
Y320533D02*
X347396Y317200D01*
X354089D01*
X340703Y330406D02*
X344063Y327045D01*
X281893Y201800D02*
X284649D01*
X279137Y181800D02*
X281893D01*
X276972Y179635D02*
X279137Y181800D01*
X276972Y175903D02*
X278240Y174635D01*
X287697Y194400D02*
X288389Y193708D01*
X284938Y171800D02*
X289964Y176825D01*
X276972Y175903D02*
Y179635D01*
X281893Y171800D02*
X284938D01*
X34200Y194400D02*
X287697D01*
X28800Y189000D02*
X34200Y194400D01*
X284649Y201800D02*
X289964Y196485D01*
X25119Y185319D02*
X28800Y189000D01*
X285546Y174635D02*
X288389Y177478D01*
Y193708D01*
X278240Y174635D02*
X285546D01*
X289964Y176825D02*
Y196485D01*
X252637Y20100D02*
Y20494D01*
X29000Y146900D02*
X35319Y140581D01*
X21073Y161700D02*
X29000Y153773D01*
X288714Y41603D02*
Y50335D01*
X-9692Y179492D02*
X8100Y161700D01*
X287446Y40335D02*
X288714Y41603D01*
X286549Y52500D02*
X288714Y50335D01*
X142438Y40335D02*
X287446D01*
X-48976Y179492D02*
X-9692D01*
X283793Y52500D02*
X286549D01*
X8100Y161700D02*
X21073D01*
X42192Y140581D02*
X142438Y40335D01*
X29000Y146900D02*
Y153773D01*
X35319Y140581D02*
X42192D01*
X271268Y320000D02*
X275633Y324365D01*
X57536Y232530D02*
Y319308D01*
X58228Y320000D01*
X271268D01*
X275633Y324365D02*
X282939D01*
X535089Y59647D02*
Y60411D01*
X523805Y71695D02*
X535089Y60411D01*
X478228Y86372D02*
X492905Y71695D01*
X448400Y88045D02*
X450073Y86372D01*
X478228D01*
X492905Y71695D02*
X523805D01*
X515113Y65100D02*
X523908D01*
X513600Y63800D02*
X513813D01*
X515113Y65100D01*
X513907Y54194D02*
X523908D01*
X512300Y52800D02*
X512513D01*
X513907Y54194D01*
X496947Y48742D02*
X535089D01*
X482296Y63393D02*
X496947Y48742D01*
X449094Y60145D02*
X478169D01*
X415800Y14600D02*
Y22300D01*
Y14600D02*
X416603Y13798D01*
X417000Y13400D01*
X430900D01*
X431700Y45808D02*
X432392Y46500D01*
X448258D01*
X431700Y14200D02*
Y45808D01*
X430900Y13400D02*
X431700Y14200D01*
X435800Y22300D02*
Y42718D01*
X448258Y46500D02*
X452342Y50584D01*
Y56897D01*
X449094Y60145D02*
X452342Y56897D01*
X448700Y60145D02*
X449094D01*
X437400Y44318D02*
Y44532D01*
X435800Y42718D02*
X437400Y44318D01*
X447571Y52126D02*
X448700Y53255D01*
X430000Y52126D02*
X447571D01*
X410200Y58600D02*
X410400Y58400D01*
X410200Y58600D02*
Y58800D01*
X410400Y32000D02*
Y58400D01*
X358040Y62400D02*
X427206D01*
X429606Y60000D01*
X349113Y62400D02*
X358040D01*
X429606Y60000D02*
X442242D01*
X416749Y66451D02*
X416900Y66300D01*
X416749Y66451D02*
Y67151D01*
X416700Y67200D02*
Y101031D01*
Y67200D02*
X416749Y67151D01*
X443300Y38500D02*
Y44000D01*
X445800Y22300D02*
Y36000D01*
X443300Y38500D02*
X445800Y36000D01*
X443200Y44100D02*
X443300Y44000D01*
X369600Y32400D02*
X369800Y32200D01*
X358040Y32400D02*
X369600D01*
X356268Y30038D02*
X372238D01*
X375900Y33700D01*
Y45300D01*
X380700Y57400D02*
X415800Y22300D01*
X358040Y57400D02*
X380700D01*
X425800Y56194D02*
X429606Y60000D01*
X425800Y22300D02*
Y56194D01*
X373800Y47400D02*
X375900Y45300D01*
X369500Y37400D02*
X369700Y37200D01*
X358040Y37400D02*
X369500D01*
X358040Y47400D02*
X373800D01*
X351647Y35249D02*
X354497Y32400D01*
X343270Y50038D02*
X347995Y54762D01*
X346623Y57300D02*
X346673Y57350D01*
X347995Y54762D02*
X362562D01*
X346673Y57350D02*
X357990D01*
X325625Y50038D02*
X343270D01*
X357990Y57350D02*
X358040Y57400D01*
X328200Y39665D02*
X332471D01*
X328200D02*
Y41600D01*
X328300Y41700D01*
X326316Y42500D02*
X327485Y43668D01*
X320407Y42500D02*
X326316D01*
X333133Y43668D02*
X334503Y45038D01*
X327485Y43668D02*
X333133D01*
X334503Y45038D02*
X343532D01*
X350894Y52400D01*
X348713Y62000D02*
X349113Y62400D01*
X348500Y62000D02*
X348713D01*
X362562Y54762D02*
X363946Y53378D01*
X330800Y35248D02*
X332903D01*
X317337D02*
X330800D01*
X330900Y35348D01*
Y37500D01*
X332471Y39665D02*
X335205Y42400D01*
X338749D01*
X363946Y51422D02*
Y53378D01*
X362286Y49762D02*
X363946Y51422D01*
X348000Y37700D02*
X348150Y37550D01*
X357890D02*
X358040Y37400D01*
X348150Y37550D02*
X357890D01*
X354497Y32400D02*
X358040D01*
X350951Y35249D02*
X351647D01*
X350800Y35400D02*
X350951Y35249D01*
X338749Y32400D02*
X351156D01*
X353518Y30038D01*
X356268D01*
X418024Y296500D02*
X421063Y293461D01*
X346613Y297595D02*
Y298267D01*
X334798Y307200D02*
X347205D01*
X346462Y297445D02*
X346613Y297595D01*
X354089Y302200D02*
X388107D01*
X428915Y286063D02*
X432065Y282913D01*
X346613Y298267D02*
X350546Y302200D01*
X349843Y304562D02*
X387972D01*
X396034Y296500D02*
X418024D01*
X387972Y304562D02*
X396034Y296500D01*
X347205Y307200D02*
X349843Y304562D01*
X350546Y302200D02*
X354089D01*
X421063Y288369D02*
X423369Y286063D01*
X341211Y314562D02*
X345935Y309838D01*
X340703Y317297D02*
Y318178D01*
X325112Y314562D02*
X341211D01*
X340703Y317297D02*
X345800Y312200D01*
X345935Y309838D02*
X358611D01*
X345800Y312200D02*
X354089D01*
X331974Y293000D02*
X335400D01*
X331737Y293237D02*
X331974Y293000D01*
X346335Y314838D02*
X358611D01*
X359995Y313995D02*
X361569Y315569D01*
X359995Y316222D02*
Y318179D01*
X361569Y310569D02*
Y313342D01*
X361569Y315569D02*
Y318831D01*
X358611Y319562D02*
X359995Y318179D01*
X361569Y313342D02*
X364227Y316000D01*
X358611Y314838D02*
X359995Y316222D01*
X359995Y311222D02*
Y313995D01*
X364227Y316000D02*
X426841D01*
X359263Y321137D02*
X361569Y318831D01*
X342489Y318684D02*
X346335Y314838D01*
X391836Y335600D02*
X428762D01*
X430400Y333962D01*
X386073Y329838D02*
X391836Y335600D01*
X364087Y306600D02*
X364300D01*
X363487Y307200D02*
X364087Y306600D01*
X341287Y176700D02*
X349762D01*
X341287D02*
X345487Y180900D01*
X337354Y176700D02*
X341287D01*
X345487Y180900D02*
X345700D01*
X344219Y173813D02*
X344327Y173921D01*
X346975D01*
X347154Y174100D01*
X349589D01*
X348805Y188708D02*
X349024Y188927D01*
X348592Y188708D02*
X348805D01*
X350875Y188927D02*
X353102Y186700D01*
X349024Y188927D02*
X350875D01*
X348950Y191750D02*
X356596D01*
X356646Y191700D01*
X348900Y191800D02*
X348950Y191750D01*
X328105Y307208D02*
X334789D01*
X334798Y307200D01*
X326713Y308600D02*
X328105Y307208D01*
X326500Y308600D02*
X326713D01*
X346713Y332200D02*
X354089D01*
X346313Y331800D02*
X346713Y332200D01*
X346100Y331800D02*
X346313D01*
X342489Y336508D02*
X343181Y337200D01*
X342489Y330847D02*
X345638Y327698D01*
Y323767D02*
X349843Y319562D01*
X343181Y337200D02*
X356965D01*
X345638Y323767D02*
Y327698D01*
X342489Y330847D02*
Y336508D01*
X360401Y326899D02*
X363500Y323800D01*
X354089Y327200D02*
X354391Y326899D01*
X360401D01*
X358611Y324562D02*
X361773Y321400D01*
X427532D01*
X428737Y320195D01*
X348184Y326222D02*
X349843Y324562D01*
X358611D01*
X349843Y329838D02*
X386073D01*
X348184Y328179D02*
X349843Y329838D01*
X358049Y307200D02*
X363487D01*
X356063Y23500D02*
Y29832D01*
Y11400D02*
Y23500D01*
X349800Y23400D02*
X349900Y23500D01*
X356063D01*
X360069Y7000D02*
X374600D01*
X356063Y11006D02*
Y11400D01*
Y11006D02*
X360069Y7000D01*
X441600Y6700D02*
X460200D01*
X441500Y6600D02*
X441600Y6700D01*
X460200D02*
X475800Y22300D01*
X445200Y18600D02*
Y21700D01*
X445800Y22300D01*
X335056Y37400D02*
X338749D01*
X332903Y35248D02*
X335056Y37400D01*
X315486Y33397D02*
X317337Y35248D01*
X315486Y31603D02*
Y33397D01*
Y31603D02*
X343189Y3900D01*
X430500D01*
X445200Y18600D01*
X466149Y37649D02*
X466300Y37800D01*
X466149Y22649D02*
Y37649D01*
X465800Y22300D02*
X466149Y22649D01*
X480000Y36500D02*
X512200D01*
X465800Y22300D02*
X480000Y36500D01*
X475800Y22300D02*
X488031Y34532D01*
X526975D01*
X539400Y46956D01*
Y61433D01*
X523908Y75637D02*
Y76006D01*
Y75637D02*
X533303Y66242D01*
X534591D01*
X539400Y61433D01*
X455800Y35900D02*
X475800Y55900D01*
X455800Y22300D02*
Y35900D01*
X440300Y65300D02*
X440800D01*
X428179Y77421D02*
X440300Y65300D01*
X426541Y77421D02*
X428179D01*
X425964Y77998D02*
X426541Y77421D01*
X425964Y85295D02*
X429606Y88937D01*
X425964Y77998D02*
Y85295D01*
X429606Y88937D02*
X430000D01*
X429606Y113937D02*
X430000D01*
X416700Y101031D02*
X429606Y113937D01*
X430000Y106063D02*
X430392Y106455D01*
X448700D01*
X527264Y91600D02*
X530778Y88086D01*
Y79672D02*
Y88086D01*
Y79672D02*
X534799Y75651D01*
Y70842D02*
Y75651D01*
Y70842D02*
X535089Y70553D01*
X442086Y91600D02*
X527264D01*
X439423Y88937D02*
X442086Y91600D01*
X430000Y88937D02*
X439423D01*
X439400Y86900D02*
X439613D01*
X430092Y81155D02*
X448400D01*
X430000Y81063D02*
X430092Y81155D01*
X478169Y60145D02*
X495025Y43289D01*
X523908D01*
X445635Y63393D02*
X482296D01*
X442242Y60000D02*
X445635Y63393D01*
X356063Y29832D02*
X356268Y30038D01*
X352135Y44762D02*
Y48379D01*
X353518Y49762D01*
X362286D01*
X354497Y42400D02*
X358040D01*
X352135Y44762D02*
X354497Y42400D01*
X350894Y52400D02*
X358040D01*
X323163Y52500D02*
X325625Y50038D01*
X320407Y52500D02*
X323163D01*
X542449Y195951D02*
X542600Y195800D01*
X535589Y201353D02*
X540991Y195951D01*
X542449D01*
X498508Y207108D02*
Y209708D01*
X498400Y207000D02*
X498508Y207108D01*
Y209708D02*
X499200Y210400D01*
X520814D01*
X524408Y206806D01*
X419400Y210400D02*
X499200D01*
X442506Y202837D02*
X442655D01*
X438865Y198028D02*
Y199195D01*
Y191898D02*
Y198028D01*
Y186392D02*
Y191898D01*
X472365Y197400D02*
X516400D01*
X466286Y191321D02*
X472365Y197400D01*
X439441Y191321D02*
X466286D01*
X438865Y191898D02*
X439441Y191321D01*
X438865Y199195D02*
X442506Y202837D01*
X497500Y177500D02*
Y181200D01*
X497600Y181300D01*
X475000Y155000D02*
X497500Y177500D01*
X465000Y155000D02*
X494994Y184994D01*
X524408D01*
X520210Y193183D02*
X522927Y195900D01*
X470374Y193183D02*
X520210D01*
X469200Y191138D02*
Y192008D01*
X522927Y195900D02*
X524408D01*
X469200Y192008D02*
X470374Y193183D01*
X455000Y176938D02*
X469200Y191138D01*
X535644Y171756D02*
X535700Y171700D01*
X535589Y179542D02*
X535644Y179486D01*
Y171756D02*
Y179486D01*
X517400Y173178D02*
X524403Y180181D01*
X525691D01*
X529997Y184487D01*
Y184856D01*
X535589Y190447D01*
X517400Y170900D02*
Y173178D01*
X446032Y148400D02*
X494900D01*
X517400Y170900D01*
X439724Y154708D02*
X446032Y148400D01*
X435292Y154708D02*
X439724D01*
X435000Y155000D02*
X435292Y154708D01*
X509814Y159306D02*
Y159495D01*
X423500Y146500D02*
X497008D01*
X509814Y159495D02*
X524408Y174089D01*
X497008Y146500D02*
X509814Y159306D01*
X415000Y155000D02*
X423500Y146500D01*
X426849Y169451D02*
X433632D01*
X432000Y185700D02*
X438173D01*
X420000D02*
X432000D01*
Y183400D02*
Y185700D01*
X432600Y162400D02*
X432700Y162300D01*
X437700D01*
X445000Y155000D01*
X534554Y191482D02*
X535589Y190447D01*
X534554Y191482D02*
Y195546D01*
X527900Y202200D02*
X534554Y195546D01*
X522200Y202200D02*
X527900D01*
X517200Y204000D02*
X520400D01*
X522200Y202200D01*
X516900Y203700D02*
X517200Y204000D01*
X470600Y203700D02*
X516900D01*
X466247Y208053D02*
X470600Y203700D01*
X425200Y202645D02*
X433380D01*
X438789Y208053D01*
X466247D01*
X390700Y181700D02*
X419400Y210400D01*
X442900Y194963D02*
X443294D01*
X446935Y198605D02*
Y205902D01*
X446359Y206479D02*
X446935Y205902D01*
X443294Y194963D02*
X446935Y198605D01*
X439441Y206479D02*
X446359D01*
X437290Y204327D02*
X439441Y206479D01*
X435515Y190532D02*
X437290Y192306D01*
Y204327D01*
X430817Y190532D02*
X435515D01*
X425594Y195755D02*
X430817Y190532D01*
X425200Y195755D02*
X425594D01*
X425500Y170800D02*
Y174255D01*
Y170800D02*
X426849Y169451D01*
X433000Y165400D02*
X435600Y168000D01*
X353102Y166700D02*
X360368D01*
X361668Y165400D01*
X433000D01*
X441900Y164500D02*
Y171463D01*
Y164500D02*
X442100Y164300D01*
X441900Y171463D02*
X443700Y173263D01*
X461063Y151063D02*
X465000Y155000D01*
X453369Y151063D02*
X461063D01*
X449765Y154667D02*
X453369Y151063D01*
X449765Y154667D02*
Y175466D01*
X444094Y181137D02*
X449765Y175466D01*
X443700Y181137D02*
X444094D01*
X455000Y155000D02*
Y176938D01*
X447159Y184779D02*
X455000Y176938D01*
X439478Y184779D02*
X447159D01*
X435845Y181145D02*
X439478Y184779D01*
X425500Y181145D02*
X435845D01*
X438173Y185700D02*
X438865Y186392D01*
X403638Y169338D02*
X420000Y185700D01*
X442655Y202837D02*
X442900D01*
X440588Y199297D02*
Y200770D01*
X439441Y198605D02*
X439896D01*
X438865Y198028D02*
X439441Y198605D01*
X440588Y200770D02*
X442655Y202837D01*
X439896Y198605D02*
X440588Y199297D01*
X423969Y222700D02*
X424363D01*
X416800D02*
X423969D01*
X397969Y196700D02*
X423969Y222700D01*
X415651Y222651D02*
X416751D01*
X416800Y222700D01*
X415500Y222500D02*
X415651Y222651D01*
X424363Y222700D02*
X425500Y223837D01*
X435800Y214300D02*
X441745D01*
X442200Y214755D01*
X414300Y155700D02*
Y162300D01*
Y155700D02*
X415000Y155000D01*
X356646Y196700D02*
X397969D01*
X366400Y154600D02*
X414600D01*
X415000Y155000D01*
X365400Y186700D02*
X365700Y186400D01*
X365189Y186700D02*
X365400D01*
X356646Y191700D02*
X360189D01*
X365189Y186700D01*
X435600Y168000D02*
Y173431D01*
X443306Y181137D02*
X443700D01*
X435600Y173431D02*
X443306Y181137D01*
X356646Y181700D02*
X390700D01*
X352676Y171700D02*
X356646D01*
X350926Y172763D02*
X351613D01*
X352676Y171700D01*
X349589Y174100D02*
X350926Y172763D01*
X340600Y161600D02*
X348002D01*
X340300Y161300D02*
X340600Y161600D01*
X348002D02*
X353102Y166700D01*
X329351Y174949D02*
X330562D01*
X333811Y171700D02*
X337354D01*
X330562Y174949D02*
X333811Y171700D01*
X329200Y175100D02*
X329351Y174949D01*
X348975Y194100D02*
X350502D01*
X345300Y195200D02*
X345451Y195049D01*
X348026D02*
X348975Y194100D01*
X345451Y195049D02*
X348026D01*
X350502Y194100D02*
X353102Y196700D01*
X356646D01*
X330894Y149600D02*
X337354Y156061D01*
Y166700D01*
X330500Y149600D02*
X330894D01*
X353102Y181700D02*
X356646D01*
X350329D02*
X353102D01*
X318557Y166750D02*
X333761D01*
X333811Y166700D01*
X326546Y173965D02*
X333761Y166750D01*
X342967Y189062D02*
X350329Y181700D01*
X333108Y189062D02*
X342967D01*
X333811Y166700D02*
X337354D01*
X315524Y173965D02*
X326546D01*
X312011Y177478D02*
Y191122D01*
X314854Y193965D02*
X328205D01*
X333108Y189062D01*
X312011Y177478D02*
X315524Y173965D01*
X312011Y191122D02*
X314854Y193965D01*
X318507Y181800D02*
X318557Y181750D01*
X337304D02*
X337354Y181700D01*
X318557Y181750D02*
X337304D01*
X23594Y169000D02*
X29913Y175319D01*
X18800Y169000D02*
X23594D01*
X23544Y183744D02*
X152504D01*
X345740Y184062D02*
X353102Y176700D01*
X315289Y189400D02*
X327300D01*
X327500Y189200D01*
X318507Y166800D02*
X318557Y166750D01*
X152504Y183744D02*
X157726Y188965D01*
X285546D01*
X286814Y187697D01*
Y178965D02*
Y187697D01*
X284649Y176800D02*
X286814Y178965D01*
X281893Y176800D02*
X284649D01*
X29913Y175319D02*
X146734D01*
X158516Y187100D01*
X218516D01*
X218816Y186800D01*
X281893D01*
X318507D02*
X330370D01*
X333108Y184062D01*
X345740D01*
X315751Y176800D02*
X318507D01*
X313586Y178965D02*
X315751Y176800D01*
X313586Y178965D02*
Y187697D01*
X315289Y189400D01*
X353102Y176700D02*
X356646D01*
X18800Y179000D02*
X23544Y183744D01*
X352124Y169338D02*
X403638D01*
X420100Y180600D02*
X420313D01*
X420858Y181145D02*
X425500D01*
X420313Y180600D02*
X420858Y181145D01*
X409000Y180900D02*
X409100Y180800D01*
X404700Y180900D02*
X409000D01*
X356646Y171700D02*
X395500D01*
X404700Y180900D01*
X337354Y171700D02*
X349762D01*
X352124Y169338D01*
X387338Y174338D02*
X415645Y202645D01*
X425200D01*
X349762Y176700D02*
X352124Y174338D01*
X387338D01*
X353102Y186700D02*
X356646D01*
X452559Y279764D02*
X460512Y287717D01*
X435000Y290000D02*
Y314395D01*
X428737Y320195D02*
X429200D01*
X421063Y288369D02*
Y293461D01*
X423369Y286063D02*
X428915D01*
X438645Y281339D02*
X443369Y286063D01*
X430760Y279764D02*
X452559D01*
X428263Y284488D02*
X431412Y281339D01*
X419488Y287717D02*
Y292809D01*
X417372Y294925D02*
X419488Y292809D01*
X429200Y320195D02*
X435000Y314395D01*
X438937Y296531D02*
X447806Y305400D01*
X395382Y294925D02*
X417372D01*
X431063Y288369D02*
Y305129D01*
X429600Y306592D02*
X431063Y305129D01*
X440512Y291080D02*
X443369Y293937D01*
X451063D01*
X422717Y284488D02*
X428263D01*
X348184Y326222D02*
Y328179D01*
X451063Y293937D02*
X455000Y290000D01*
X337751Y332200D02*
Y336473D01*
X419488Y287717D02*
X422717Y284488D01*
X438937Y288369D02*
Y296531D01*
X440512Y287717D02*
Y291080D01*
X428937Y288268D02*
Y294255D01*
X432065Y282913D02*
X437935D01*
X425117Y298075D02*
X428937Y294255D01*
X427610Y282913D02*
X430760Y279764D01*
X431412Y281339D02*
X438645D01*
X437935Y282913D02*
X445000Y289978D01*
X433369Y286063D02*
X436631D01*
X422065Y282913D02*
X427610D01*
X417913Y287065D02*
X422065Y282913D01*
X443369Y286063D02*
X456631D01*
X422086Y282913D02*
X427500Y277500D01*
X415000Y290000D02*
X417913Y287087D01*
Y287065D02*
Y287087D01*
X432717Y284488D02*
X437283D01*
X447806Y305400D02*
X448200D01*
X445000Y289978D02*
Y290000D01*
X437283Y284488D02*
X440512Y287717D01*
X337751Y331131D02*
Y332200D01*
X431063Y288369D02*
X433369Y286063D01*
X428937Y288268D02*
X432717Y284488D01*
X436631Y286063D02*
X438937Y288369D01*
X422100Y306375D02*
X429206Y313482D01*
X429600D01*
X422100Y301092D02*
Y306375D01*
X429389Y321770D02*
X446805D01*
X460512Y287717D02*
Y308063D01*
X354089Y327200D02*
X423959D01*
X429389Y321770D01*
X446805D02*
X460512Y308063D01*
X-24698Y129098D02*
X-18700Y123100D01*
X-14181D01*
X-48976Y129098D02*
X-24698D01*
X-14181Y123100D02*
X10594Y98324D01*
X19041Y36700D02*
Y45400D01*
X19041Y36700D02*
X19041Y36700D01*
Y45400D02*
X19041Y45400D01*
X-26100Y107200D02*
X-3481D01*
X5500Y52492D02*
Y98219D01*
X-3481Y107200D02*
X5500Y98219D01*
X-32250Y113350D02*
X-26100Y107200D01*
X6192Y51800D02*
X13900D01*
X5500Y52492D02*
X6192Y51800D01*
X22681Y100652D02*
X25078Y98255D01*
Y95616D02*
Y98255D01*
X5100Y116300D02*
X5251Y116149D01*
X30525Y93219D02*
X32681Y95375D01*
X5251Y115443D02*
Y116149D01*
X25078Y95616D02*
X27475Y93219D01*
X5251Y115443D02*
X18858Y101836D01*
X22681Y100652D02*
Y108425D01*
X19270Y101836D02*
X22810Y98296D01*
X18858Y101836D02*
X19270D01*
X22810Y95657D02*
Y98296D01*
X34359Y86335D02*
Y86747D01*
Y86335D02*
X39000Y81694D01*
X27732Y90735D02*
X30371D01*
X39000Y76900D02*
Y81694D01*
X22810Y95657D02*
X27732Y90735D01*
X30371D02*
X34359Y86747D01*
X27475Y93219D02*
X30525D01*
X24256Y101644D02*
X29000Y96900D01*
X24256Y101644D02*
Y114211D01*
X1469Y114431D02*
X19000Y96900D01*
X-102Y116281D02*
X534D01*
X-10973Y109800D02*
X-3108D01*
X1469Y114431D02*
Y115346D01*
X15319Y95375D02*
Y98054D01*
X-3108Y109800D02*
X8500Y98192D01*
X-10800Y124173D02*
Y137855D01*
X-13000Y124146D02*
Y134706D01*
X13744Y94723D02*
Y97402D01*
X-10800Y124173D02*
X15319Y98054D01*
X8500Y63819D02*
Y98192D01*
X-13000Y124146D02*
X13744Y97402D01*
X10594Y87406D02*
Y98324D01*
X534Y116281D02*
X1469Y115346D01*
X-252Y116431D02*
X-102Y116281D01*
X-26199Y121699D02*
Y122799D01*
Y121699D02*
X-24100Y119600D01*
X-26058Y116358D02*
X-24379D01*
X-29350Y119650D02*
X-26058Y116358D01*
X-48976Y119650D02*
X-29350D01*
X-27122Y125949D02*
X-10973Y109800D01*
X8500Y63819D02*
X10163Y62156D01*
X-48976Y122799D02*
X-26199D01*
X-48976Y125949D02*
X-27122D01*
X14850Y85765D02*
Y93617D01*
X13744Y94723D02*
X14850Y93617D01*
X19000Y86900D02*
Y91694D01*
X15319Y95375D02*
X19000Y91694D01*
X10875Y69225D02*
Y87125D01*
X10594Y87406D02*
X10875Y87125D01*
X14850Y85765D02*
X19000Y81614D01*
Y76900D02*
Y81614D01*
X-48976Y138547D02*
X-11492D01*
X-10800Y137855D01*
X-13692Y135398D02*
X-13000Y134706D01*
X-48976Y135398D02*
X-13692D01*
X-48976Y113350D02*
X-32250D01*
X326338Y311500D02*
X327038Y312200D01*
X325900Y311500D02*
X326338D01*
X327038Y312200D02*
X334798D01*
X315900D02*
X322749D01*
X325112Y314562D01*
X333099Y294599D02*
Y301473D01*
X354089Y332200D02*
X386209D01*
X400989Y346981D02*
X431218D01*
X386209Y332200D02*
X400989Y346981D01*
X315900Y302200D02*
X333826D01*
X330414Y319700D02*
X339182D01*
X315900Y322200D02*
X328200D01*
X328892Y321508D01*
Y321222D02*
X330414Y319700D01*
X328892Y321222D02*
Y321508D01*
X339182Y319700D02*
X340703Y318178D01*
X315900Y317200D02*
X334798D01*
X357692Y340350D02*
X370800Y353457D01*
X357692Y337927D02*
Y340350D01*
X356965Y337200D02*
X357692Y337927D01*
X448594Y313274D02*
X458937Y302931D01*
X359263Y308263D02*
X361569Y310569D01*
X330416Y324838D02*
X331108Y324146D01*
X330276Y329562D02*
X330416D01*
X328892Y326222D02*
Y328179D01*
X330276Y324838D02*
X330416D01*
X328892Y326222D02*
X330276Y324838D01*
X328892Y328179D02*
X330276Y329562D01*
X330416D02*
X331108Y330254D01*
X333099Y301473D02*
X333826Y302200D01*
X358611Y309838D02*
X359995Y311222D01*
X359122Y321137D02*
X359263D01*
X358059Y322200D02*
X359122Y321137D01*
X354089Y322200D02*
X358059D01*
X333826Y302200D02*
X334798D01*
X349843Y319562D02*
X358611D01*
X342489Y318684D02*
Y326393D01*
X337751Y331131D02*
X342489Y326393D01*
X334798Y337200D02*
X337023D01*
X337751Y336473D01*
X334798Y332200D02*
Y337200D01*
X331836Y322200D02*
X334798D01*
X331108Y322927D02*
X331836Y322200D01*
X331108Y322927D02*
Y324146D01*
Y330254D02*
Y331473D01*
X331836Y332200D01*
X334798D01*
X388107Y302200D02*
X395382Y294925D01*
X456631Y286063D02*
X458937Y288369D01*
Y302931D01*
X354089Y307200D02*
X358049D01*
X359112Y308263D01*
X359263D01*
X326594Y293237D02*
X331737D01*
X333099Y294599D01*
X427533Y315155D02*
X429206Y313482D01*
X427533Y315155D02*
Y315308D01*
X426841Y316000D02*
X427533Y315308D01*
X422100Y301092D02*
X425117Y298075D01*
X326594Y293237D02*
X328661Y291170D01*
X479724Y290292D02*
X494747Y305315D01*
X328661Y290776D02*
Y291170D01*
X530217Y292462D02*
Y301867D01*
X526769Y305315D02*
X530217Y301867D01*
X494747Y305315D02*
X526769D01*
X326200Y293237D02*
X326594D01*
X328661Y290776D02*
X345087Y274350D01*
X512105D01*
X530217Y292462D01*
X475292Y290292D02*
X479724D01*
X475000Y290000D02*
X475292Y290292D01*
X448200Y313274D02*
X448594D01*
X431218Y346981D02*
X431400Y347163D01*
X309400Y310944D02*
X313144Y307200D01*
X309400Y310944D02*
Y333456D01*
X313144Y337200D01*
X39462Y62156D02*
X44256Y66950D01*
X39000Y96900D02*
X44256Y91644D01*
Y66950D02*
Y91644D01*
X10875Y69225D02*
X13200Y66900D01*
X10163Y62156D02*
X39462D01*
X32681Y98706D02*
X33744Y99769D01*
Y111644D01*
X32681Y95375D02*
Y98706D01*
X33744Y111644D02*
X39000Y116900D01*
X13200Y66900D02*
X19000D01*
X13900Y51800D02*
X19000Y56900D01*
X24159Y45400D02*
Y52059D01*
X29000Y56900D01*
X19020Y45421D02*
Y56880D01*
Y45421D02*
X19041Y45400D01*
X19000Y56900D02*
X19020Y56880D01*
X29000Y116900D02*
Y121694D01*
X18784Y112322D02*
X22681Y108425D01*
X-48976Y144846D02*
X-6665D01*
X18372Y112322D02*
X18784D01*
X14475Y116219D02*
X18372Y112322D01*
X14475Y116219D02*
Y123706D01*
X-6665Y144846D02*
X14475Y123706D01*
X6948Y157125D02*
X20375D01*
X-48976Y166894D02*
X-2821D01*
X6948Y157125D01*
X17619Y130581D02*
X20525D01*
X-48976Y154295D02*
X-6095D01*
X17619Y130581D01*
X-6893Y173193D02*
X7600Y158700D01*
X-48976Y160594D02*
X1251D01*
X6295Y155550D01*
X14150D01*
X15319Y154381D01*
Y135375D02*
Y154381D01*
X-48976Y173193D02*
X-6893D01*
X20664Y133358D02*
X21642D01*
X17475Y133219D02*
X20525D01*
X15319Y135375D02*
X17475Y133219D01*
X20525D02*
X20664Y133358D01*
X21642D02*
X25100Y129900D01*
Y125900D02*
Y129900D01*
Y125900D02*
X25500Y125500D01*
Y125194D02*
Y125500D01*
Y125194D02*
X29000Y121694D01*
X-48976Y147996D02*
X-3096D01*
X20375Y157125D02*
X22681Y154819D01*
Y138013D02*
Y154819D01*
Y138013D02*
X29000Y131694D01*
Y126900D02*
Y131694D01*
X20525Y130581D02*
X22681Y128425D01*
Y125519D02*
Y128425D01*
Y125519D02*
X25319Y122881D01*
Y115375D02*
Y122881D01*
Y115375D02*
X29000Y111694D01*
Y106900D02*
Y111694D01*
X7600Y158700D02*
X21846D01*
X25149Y155397D01*
Y145545D02*
Y155397D01*
Y145545D02*
X29000Y141694D01*
Y136900D02*
Y141694D01*
X-3096Y147996D02*
X15408Y129492D01*
Y128514D02*
Y129492D01*
X15319Y128425D02*
X15408Y128514D01*
X15319Y125375D02*
Y128425D01*
Y125375D02*
X19326Y121368D01*
X19737D01*
X23744Y117362D01*
Y114723D02*
Y117362D01*
Y114723D02*
X24256Y114211D01*
X41781Y143219D02*
X142500Y42500D01*
X37475Y143219D02*
X41781D01*
X35319Y145375D02*
X37475Y143219D01*
X35319Y145375D02*
Y149681D01*
X21725Y163275D02*
X35319Y149681D01*
X19319Y163275D02*
X21725D01*
X42681Y148219D02*
X143400Y47500D01*
X-48976Y255083D02*
X-36772D01*
X-23024Y241335D01*
X3224D01*
X3801Y241911D01*
Y244001D01*
X18800Y259000D01*
X-48976Y248783D02*
X-48484Y248291D01*
X-42091D01*
X-34700Y240900D01*
Y237692D02*
Y240900D01*
Y237692D02*
X-34008Y237000D01*
X6500D01*
X12900Y243400D01*
Y248306D01*
X18953Y254359D01*
X24159D01*
X28800Y259000D01*
X-48976Y242484D02*
X-48804Y242311D01*
X-42412D01*
X-34700Y234600D01*
X8400D01*
X19119Y245319D01*
X20325D01*
X20406Y245400D01*
X21300D01*
X24331Y248431D01*
X28231D01*
X28800Y249000D01*
X-48976Y236185D02*
X-44547D01*
X-43465Y235102D01*
X-43057D01*
X-40455Y232500D01*
X17094D01*
X18294Y233700D01*
X19306D01*
X20506Y232500D01*
X22300D01*
X28800Y239000D01*
X-48976Y229886D02*
X-12452D01*
X-7885Y225319D01*
X25119D01*
X28800Y229000D01*
X-48976Y223587D02*
X-10987D01*
X-1300Y213900D01*
X23700D01*
X28800Y219000D01*
X25119Y205319D02*
X28800Y209000D01*
X-4054Y205319D02*
X25119D01*
X-16023Y217287D02*
X-4054Y205319D01*
X-48976Y217287D02*
X-16023D01*
X28800Y209000D02*
X35119Y215319D01*
X40325D01*
X57536Y232530D01*
X282939Y324365D02*
X284207Y323097D01*
Y314365D02*
Y323097D01*
X282042Y312200D02*
X284207Y314365D01*
X279286Y312200D02*
X282042D01*
X142500Y42500D02*
X283793D01*
X15000Y167594D02*
X19319Y163275D01*
X15000Y167594D02*
Y170700D01*
X18000Y173700D01*
X26067D01*
X27975Y175608D01*
Y176202D01*
X27994Y176221D01*
Y178194D01*
X-48976Y198390D02*
X-23401D01*
X27994Y178194D02*
X28800Y179000D01*
X25119Y175319D02*
X27994Y178194D01*
X-330Y175319D02*
X25119D01*
X-23401Y198390D02*
X-330Y175319D01*
X25119Y195319D02*
X28800Y199000D01*
X-2204Y195319D02*
X25119D01*
X-17873Y210988D02*
X-2204Y195319D01*
X-48976Y210988D02*
X-17873D01*
X28800Y199000D02*
X35119Y205319D01*
X40325D01*
X65300Y230294D01*
Y311408D01*
X65992Y312100D01*
X269186D01*
X274364Y317279D01*
Y318097D01*
X275633Y319365D01*
X276167D01*
X276859Y320057D01*
Y321654D01*
X277405Y322200D01*
X279286D01*
X18800Y189000D02*
X23594D01*
X29913Y195319D01*
X30325D01*
X33800Y198794D01*
Y199206D01*
X38338Y203744D01*
X40977D01*
X71000Y233767D01*
Y309308D01*
X71692Y310000D01*
X272086D01*
X274364Y312279D01*
Y313097D01*
X275633Y314365D01*
X276167D01*
X276859Y315057D01*
Y316654D01*
X277405Y317200D01*
X279286D01*
X-353Y185319D02*
X25119D01*
X-19723Y204689D02*
X-353Y185319D01*
X-48976Y204689D02*
X-19723D01*
X28800Y162100D02*
Y169000D01*
Y162100D02*
X40319Y150581D01*
X40525D01*
X42681Y148425D01*
Y148219D02*
Y148425D01*
X143400Y47500D02*
X283793D01*
X320407D02*
X320457Y47450D01*
X338699D01*
X338749Y47400D01*
X325806Y285363D02*
X326200D01*
X320111Y279668D02*
X325806Y285363D01*
X319132Y279668D02*
X320111D01*
X309000Y289800D02*
X319132Y279668D01*
X309000Y289800D02*
Y306508D01*
X309692Y307200D01*
X313144D01*
X315900D01*
X314280Y337200D02*
X315900D01*
X430400Y327072D02*
X431147Y326325D01*
X448400D01*
X320407Y32500D02*
X320457Y32450D01*
X338699D01*
X338749Y32400D01*
X524331Y291031D02*
Y299429D01*
X510800Y277500D02*
X524331Y291031D01*
X427500Y277500D02*
X510800D01*
D46*
X280702Y237902D02*
X282500Y239700D01*
X282244Y115363D02*
X294600Y127719D01*
Y224004D01*
X280702Y237902D02*
X294600Y224004D01*
X282500Y239700D02*
X290962Y248162D01*
Y365309D01*
X279469Y376802D02*
X290962Y365309D01*
X52Y266443D02*
Y268474D01*
Y273581D01*
X-790Y265600D02*
Y266443D01*
Y268474D01*
X171265Y376802D02*
X279469D01*
X126589Y332125D02*
X171265Y376802D01*
X19762Y332125D02*
X126589D01*
X15525Y327888D02*
X19762Y332125D01*
X15525Y324512D02*
X19625Y320413D01*
X21150D01*
X25249Y316313D01*
Y286087D02*
Y316313D01*
X9959Y270797D02*
X25249Y286087D01*
X1532Y270797D02*
X9959D01*
X-790Y268474D02*
X1532Y270797D01*
X15525Y324512D02*
Y327888D01*
X-19209Y280126D02*
Y283000D01*
X-48976Y273980D02*
X-25355D01*
X-19209Y280126D01*
X-29317Y261382D02*
X-19309Y251374D01*
Y248500D02*
Y251374D01*
X-48976Y261382D02*
X-29317D01*
X-48976Y267681D02*
X-21690D01*
X-19610Y265600D01*
X288600Y303353D02*
Y329300D01*
X279286Y302200D02*
X287447D01*
X285700Y332200D02*
X288600Y329300D01*
X287447Y302200D02*
X288600Y303353D01*
X254037Y240163D02*
Y288794D01*
X280273Y166800D02*
X282818D01*
X276578Y200740D02*
Y202860D01*
X278077Y204359D02*
X285709D01*
X279062Y196982D02*
Y198256D01*
X285709Y204359D02*
X288158Y201910D01*
X279062Y196982D02*
X279243Y196800D01*
X254037Y240163D02*
X291539Y202661D01*
X276578Y202860D02*
X278077Y204359D01*
X291539Y201910D02*
X292016Y201432D01*
X291539Y201910D02*
Y202661D01*
X261657Y154100D02*
X276326Y168769D01*
X276578Y200740D02*
X279062Y198256D01*
X279243Y196800D02*
X281893D01*
X278077Y169241D02*
X290509D01*
X288158Y201910D02*
X291539D01*
X290509Y169241D02*
X292016Y170748D01*
X276326Y168769D02*
X278077D01*
X292016Y170748D02*
Y201432D01*
X252637Y20494D02*
X264643Y32500D01*
X283793D01*
X286549D02*
X292600Y38551D01*
X283793Y62500D02*
X291447D01*
X292600Y61347D01*
Y38551D02*
Y61347D01*
X280937Y62500D02*
X283793D01*
X258700Y84737D02*
X280937Y62500D01*
X258700Y129200D02*
X283000Y153500D01*
X258700Y84737D02*
Y129200D01*
X283000Y153500D02*
Y166618D01*
X282818Y166800D02*
X283000Y166618D01*
X261657Y154100D02*
X267400D01*
X279062Y165761D01*
X276727Y302200D02*
X279286D01*
X254037Y288794D02*
X255710Y290467D01*
X267837Y302200D02*
X276275D01*
X256104Y290467D02*
X267837Y302200D01*
X255710Y290467D02*
X256104D01*
X279286Y332200D02*
X279286Y332200D01*
X285700D01*
X159586Y332200D02*
X279286D01*
X29600Y326200D02*
X153586D01*
X159586Y332200D01*
X29600Y326200D02*
X33281Y322519D01*
X41047Y274200D02*
X42200Y275353D01*
X18778Y268593D02*
X24385Y274200D01*
X276275Y302200D02*
X276501Y301974D01*
X251237Y154100D02*
X261657D01*
X-490Y248500D02*
Y251374D01*
X283793Y32500D02*
X286549D01*
X33281Y322519D02*
X42200D01*
X-490Y251374D02*
X16728Y268593D01*
X279728Y166254D02*
X280273Y166800D01*
X16728Y268593D02*
X18778D01*
X42200Y275353D02*
Y322519D01*
X19600Y326200D02*
X29600D01*
X24385Y274200D02*
X41047D01*
X276501Y301974D02*
X276727Y302200D01*
X17308Y304835D02*
X18673Y306200D01*
X-790Y265600D02*
X52Y266443D01*
X-1808Y275441D02*
X52Y273581D01*
X-4268Y275441D02*
X-1808D01*
X-5076Y289752D02*
X10008Y304835D01*
X-5076Y276248D02*
Y289752D01*
X10008Y304835D02*
X17308D01*
X18673Y306200D02*
X19600D01*
X-5076Y276248D02*
X-4268Y275441D01*
D47*
X16400Y283000D02*
X19600Y286200D01*
X-390Y283000D02*
X16400D01*
D48*
X339470Y376802D02*
D03*
X329469D02*
D03*
X319469D02*
D03*
X309470D02*
D03*
X289470D02*
D03*
X342244Y115363D02*
D03*
X332244D02*
D03*
X322244D02*
D03*
X312244D02*
D03*
X292244D02*
D03*
X342500Y239700D02*
D03*
X332500D02*
D03*
X322500D02*
D03*
X312500D02*
D03*
X292500D02*
D03*
D49*
X279469Y376802D02*
D03*
X282244Y115363D02*
D03*
X282500Y239700D02*
D03*
D50*
X19000Y146900D02*
D03*
X18800Y259000D02*
D03*
X29600Y286200D02*
D03*
D51*
X29000Y146900D02*
D03*
X39000D02*
D03*
X19000Y136900D02*
D03*
X29000D02*
D03*
X39000D02*
D03*
X19000Y126900D02*
D03*
X29000D02*
D03*
X39000D02*
D03*
X19000Y116900D02*
D03*
X29000D02*
D03*
X39000D02*
D03*
X19000Y106900D02*
D03*
X29000D02*
D03*
X39000D02*
D03*
X19000Y96900D02*
D03*
X29000D02*
D03*
X39000D02*
D03*
X19000Y86900D02*
D03*
X29000D02*
D03*
X39000D02*
D03*
X19000Y76900D02*
D03*
X29000D02*
D03*
X39000D02*
D03*
X19000Y66900D02*
D03*
X29000D02*
D03*
X39000D02*
D03*
X19000Y56900D02*
D03*
X29000D02*
D03*
X39000D02*
D03*
X38800Y169000D02*
D03*
X28800D02*
D03*
X18800D02*
D03*
X38800Y179000D02*
D03*
X28800D02*
D03*
X18800D02*
D03*
X38800Y189000D02*
D03*
X28800D02*
D03*
X18800D02*
D03*
X38800Y199000D02*
D03*
X28800D02*
D03*
X18800D02*
D03*
X38800Y209000D02*
D03*
X28800D02*
D03*
X18800D02*
D03*
X38800Y219000D02*
D03*
X28800D02*
D03*
X18800D02*
D03*
X38800Y229000D02*
D03*
X28800D02*
D03*
X18800D02*
D03*
X38800Y239000D02*
D03*
X28800D02*
D03*
X18800D02*
D03*
X38800Y249000D02*
D03*
X28800D02*
D03*
X18800D02*
D03*
X38800Y259000D02*
D03*
X28800D02*
D03*
X19600Y286200D02*
D03*
X29600Y296200D02*
D03*
X19600D02*
D03*
X29600Y306200D02*
D03*
X19600D02*
D03*
X29600Y316200D02*
D03*
X19600D02*
D03*
X29600Y326200D02*
D03*
X19600D02*
D03*
X29600Y336200D02*
D03*
X19600D02*
D03*
D52*
X529998Y146707D02*
D03*
Y245093D02*
D03*
X529921Y272047D02*
D03*
Y370433D02*
D03*
X529498Y114293D02*
D03*
Y15907D02*
D03*
D53*
X524408Y217711D02*
D03*
X524331Y343051D02*
D03*
X523908Y86911D02*
D03*
D54*
X535589Y212258D02*
D03*
X524408Y206806D02*
D03*
X535589Y201353D02*
D03*
X524408Y195900D02*
D03*
X535589Y190447D02*
D03*
X524408Y184994D02*
D03*
X535589Y179542D02*
D03*
X524408Y174089D02*
D03*
X535512Y337598D02*
D03*
X524331Y332146D02*
D03*
X535512Y326693D02*
D03*
X524331Y321240D02*
D03*
X535512Y315787D02*
D03*
X524331Y310335D02*
D03*
X535512Y304882D02*
D03*
X524331Y299429D02*
D03*
X523908Y43289D02*
D03*
X535089Y48742D02*
D03*
X523908Y54194D02*
D03*
X535089Y59647D02*
D03*
X523908Y65100D02*
D03*
X535089Y70553D02*
D03*
X523908Y76006D02*
D03*
X535089Y81458D02*
D03*
D55*
X485000Y290000D02*
D03*
X475000D02*
D03*
X465000D02*
D03*
X455000D02*
D03*
X445000D02*
D03*
X435000D02*
D03*
X425000D02*
D03*
X425800Y22300D02*
D03*
X435800D02*
D03*
X445800D02*
D03*
X455800D02*
D03*
X465800D02*
D03*
X475800D02*
D03*
X485800D02*
D03*
X425000Y155000D02*
D03*
X435000D02*
D03*
X445000D02*
D03*
X455000D02*
D03*
X465000D02*
D03*
X475000D02*
D03*
X485000D02*
D03*
D56*
X415000Y290000D02*
D03*
X415800Y22300D02*
D03*
X415000Y155000D02*
D03*
D57*
X370800Y353457D02*
D03*
X366900Y115943D02*
D03*
X379800Y221857D02*
D03*
D58*
X370800Y373143D02*
D03*
X366900Y96257D02*
D03*
X379800Y241543D02*
D03*
D59*
X295390Y378532D02*
D03*
Y358847D02*
D03*
Y339162D02*
D03*
Y319477D02*
D03*
Y299792D02*
D03*
Y280107D02*
D03*
Y260422D02*
D03*
X290469Y152154D02*
D03*
Y132469D02*
D03*
X295390Y122627D02*
D03*
Y102942D02*
D03*
X290469Y93099D02*
D03*
X295390Y83257D02*
D03*
X290469Y73414D02*
D03*
X295390Y63572D02*
D03*
Y43887D02*
D03*
Y24202D02*
D03*
X290469Y14359D02*
D03*
X285548Y378532D02*
D03*
X280627Y368690D02*
D03*
X285548Y358847D02*
D03*
X280627Y349005D02*
D03*
X285548Y339162D02*
D03*
Y161997D02*
D03*
Y142312D02*
D03*
X280627Y132469D02*
D03*
X285548Y122627D02*
D03*
Y102942D02*
D03*
X280627Y93099D02*
D03*
X285548Y83257D02*
D03*
X280627Y73414D02*
D03*
X285548Y24202D02*
D03*
X280627Y14359D02*
D03*
X270784Y368690D02*
D03*
X275705Y358847D02*
D03*
X270784Y349005D02*
D03*
Y329320D02*
D03*
Y211210D02*
D03*
Y191524D02*
D03*
Y171839D02*
D03*
Y152154D02*
D03*
X275705Y142312D02*
D03*
X270784Y132469D02*
D03*
X275705Y122627D02*
D03*
X270784Y112784D02*
D03*
X275705Y102942D02*
D03*
X270784Y93099D02*
D03*
X275705Y83257D02*
D03*
Y63572D02*
D03*
X270784Y53729D02*
D03*
X275705Y24202D02*
D03*
X270784Y14359D02*
D03*
X260942Y368690D02*
D03*
X265863Y358847D02*
D03*
X260942Y349005D02*
D03*
X265863Y339162D02*
D03*
X260942Y329320D02*
D03*
X265863Y221052D02*
D03*
X260942Y211210D02*
D03*
X265863Y201367D02*
D03*
X260942Y191524D02*
D03*
X265863Y181682D02*
D03*
X260942Y171839D02*
D03*
X265863Y161997D02*
D03*
Y142312D02*
D03*
Y122627D02*
D03*
X260942Y112784D02*
D03*
X265863Y102942D02*
D03*
X260942Y93099D02*
D03*
X265863Y83257D02*
D03*
X260942Y73414D02*
D03*
X265863Y63572D02*
D03*
X260942Y53729D02*
D03*
Y34044D02*
D03*
X265863Y24202D02*
D03*
X260942Y14359D02*
D03*
X251099Y368690D02*
D03*
X256020Y358847D02*
D03*
X251099Y349005D02*
D03*
X256020Y339162D02*
D03*
X251099Y329320D02*
D03*
X256020Y299792D02*
D03*
X251099Y270265D02*
D03*
Y250580D02*
D03*
Y230894D02*
D03*
X256020Y221052D02*
D03*
X251099Y211210D02*
D03*
X256020Y201367D02*
D03*
X251099Y191524D02*
D03*
X256020Y181682D02*
D03*
X251099Y171839D02*
D03*
X256020Y161997D02*
D03*
Y142312D02*
D03*
X251099Y132469D02*
D03*
X256020Y122627D02*
D03*
X251099Y112784D02*
D03*
X256020Y102942D02*
D03*
X251099Y93099D02*
D03*
X256020Y83257D02*
D03*
X251099Y73414D02*
D03*
X256020Y63572D02*
D03*
X251099Y53729D02*
D03*
Y34044D02*
D03*
Y14359D02*
D03*
X241256Y368690D02*
D03*
X246178Y358847D02*
D03*
X241256Y349005D02*
D03*
X246178Y339162D02*
D03*
X241256Y329320D02*
D03*
X246178Y299792D02*
D03*
X241256Y289950D02*
D03*
X246178Y280107D02*
D03*
X241256Y270265D02*
D03*
X246178Y260422D02*
D03*
X241256Y250580D02*
D03*
X246178Y240737D02*
D03*
X241256Y230894D02*
D03*
X246178Y221052D02*
D03*
X241256Y211210D02*
D03*
X246178Y201367D02*
D03*
X241256Y191524D02*
D03*
X246178Y181682D02*
D03*
X241256Y171839D02*
D03*
X246178Y161997D02*
D03*
Y142312D02*
D03*
X241256Y132469D02*
D03*
X246178Y122627D02*
D03*
X241256Y112784D02*
D03*
X246178Y102942D02*
D03*
X241256Y93099D02*
D03*
X246178Y83257D02*
D03*
X241256Y73414D02*
D03*
X246178Y63572D02*
D03*
X241256Y53729D02*
D03*
Y34044D02*
D03*
Y14359D02*
D03*
X231414Y368690D02*
D03*
X236335Y358847D02*
D03*
X231414Y349005D02*
D03*
X236335Y339162D02*
D03*
X231414Y329320D02*
D03*
X236335Y299792D02*
D03*
X231414Y289950D02*
D03*
X236335Y280107D02*
D03*
X231414Y270265D02*
D03*
X236335Y260422D02*
D03*
X231414Y250580D02*
D03*
X236335Y240737D02*
D03*
X231414Y230894D02*
D03*
X236335Y221052D02*
D03*
X231414Y211210D02*
D03*
X236335Y201367D02*
D03*
X231414Y191524D02*
D03*
X236335Y181682D02*
D03*
X231414Y171839D02*
D03*
X236335Y161997D02*
D03*
X231414Y152154D02*
D03*
X236335Y142312D02*
D03*
X231414Y132469D02*
D03*
X236335Y122627D02*
D03*
X231414Y112784D02*
D03*
X236335Y102942D02*
D03*
X231414Y93099D02*
D03*
X236335Y83257D02*
D03*
X231414Y73414D02*
D03*
X236335Y63572D02*
D03*
X231414Y53729D02*
D03*
Y34044D02*
D03*
X236335Y24202D02*
D03*
X231414Y14359D02*
D03*
X221571Y368690D02*
D03*
X226493Y358847D02*
D03*
X221571Y349005D02*
D03*
X226493Y339162D02*
D03*
X221571Y329320D02*
D03*
X226493Y299792D02*
D03*
X221571Y289950D02*
D03*
X226493Y280107D02*
D03*
X221571Y270265D02*
D03*
X226493Y260422D02*
D03*
X221571Y250580D02*
D03*
X226493Y240737D02*
D03*
X221571Y230894D02*
D03*
X226493Y221052D02*
D03*
X221571Y211210D02*
D03*
X226493Y201367D02*
D03*
X221571Y191524D02*
D03*
X226493Y181682D02*
D03*
X221571Y171839D02*
D03*
X226493Y161997D02*
D03*
X221571Y152154D02*
D03*
X226493Y142312D02*
D03*
X221571Y132469D02*
D03*
X226493Y122627D02*
D03*
X221571Y112784D02*
D03*
X226493Y102942D02*
D03*
X221571Y93099D02*
D03*
X226493Y83257D02*
D03*
X221571Y73414D02*
D03*
X226493Y63572D02*
D03*
X221571Y53729D02*
D03*
Y34044D02*
D03*
X226493Y24202D02*
D03*
X221571Y14359D02*
D03*
X211729Y368690D02*
D03*
X216650Y358847D02*
D03*
X211729Y349005D02*
D03*
X216650Y339162D02*
D03*
X211729Y329320D02*
D03*
X216650Y299792D02*
D03*
X211729Y289950D02*
D03*
X216650Y280107D02*
D03*
X211729Y270265D02*
D03*
X216650Y260422D02*
D03*
X211729Y250580D02*
D03*
X216650Y240737D02*
D03*
X211729Y230894D02*
D03*
X216650Y221052D02*
D03*
X211729Y211210D02*
D03*
X216650Y201367D02*
D03*
X211729Y191524D02*
D03*
X216650Y181682D02*
D03*
X211729Y171839D02*
D03*
X216650Y161997D02*
D03*
X211729Y152154D02*
D03*
X216650Y142312D02*
D03*
X211729Y132469D02*
D03*
X216650Y122627D02*
D03*
X211729Y112784D02*
D03*
X216650Y102942D02*
D03*
X211729Y93099D02*
D03*
X216650Y83257D02*
D03*
X211729Y73414D02*
D03*
X216650Y63572D02*
D03*
X211729Y53729D02*
D03*
Y34044D02*
D03*
X216650Y24202D02*
D03*
X211729Y14359D02*
D03*
X201886Y368690D02*
D03*
X206808Y358847D02*
D03*
X201886Y349005D02*
D03*
X206808Y339162D02*
D03*
X201886Y329320D02*
D03*
X206808Y299792D02*
D03*
X201886Y289950D02*
D03*
X206808Y280107D02*
D03*
X201886Y270265D02*
D03*
X206808Y260422D02*
D03*
X201886Y250580D02*
D03*
X206808Y240737D02*
D03*
X201886Y230894D02*
D03*
X206808Y221052D02*
D03*
X201886Y211210D02*
D03*
X206808Y201367D02*
D03*
X201886Y191524D02*
D03*
X206808Y181682D02*
D03*
X201886Y171839D02*
D03*
X206808Y161997D02*
D03*
X201886Y152154D02*
D03*
X206808Y142312D02*
D03*
X201886Y132469D02*
D03*
X206808Y122627D02*
D03*
X201886Y112784D02*
D03*
X206808Y102942D02*
D03*
X201886Y93099D02*
D03*
X206808Y83257D02*
D03*
X201886Y73414D02*
D03*
X206808Y63572D02*
D03*
X201886Y53729D02*
D03*
Y34044D02*
D03*
X206808Y24202D02*
D03*
X201886Y14359D02*
D03*
X192044Y368690D02*
D03*
X196965Y358847D02*
D03*
X192044Y349005D02*
D03*
X196965Y339162D02*
D03*
X192044Y329320D02*
D03*
X196965Y299792D02*
D03*
X192044Y289950D02*
D03*
X196965Y280107D02*
D03*
X192044Y270265D02*
D03*
X196965Y260422D02*
D03*
X192044Y250580D02*
D03*
X196965Y240737D02*
D03*
X192044Y230894D02*
D03*
X196965Y221052D02*
D03*
X192044Y211210D02*
D03*
X196965Y201367D02*
D03*
X192044Y191524D02*
D03*
X196965Y181682D02*
D03*
X192044Y171839D02*
D03*
X196965Y161997D02*
D03*
X192044Y152154D02*
D03*
X196965Y142312D02*
D03*
X192044Y132469D02*
D03*
X196965Y122627D02*
D03*
X192044Y112784D02*
D03*
X196965Y102942D02*
D03*
X192044Y93099D02*
D03*
X196965Y83257D02*
D03*
X192044Y73414D02*
D03*
X196965Y63572D02*
D03*
X192044Y53729D02*
D03*
Y34044D02*
D03*
X196965Y24202D02*
D03*
X192044Y14359D02*
D03*
X182201Y368690D02*
D03*
X187123Y358847D02*
D03*
X182201Y349005D02*
D03*
X187123Y339162D02*
D03*
X182201Y329320D02*
D03*
X187123Y299792D02*
D03*
X182201Y289950D02*
D03*
X187123Y280107D02*
D03*
X182201Y270265D02*
D03*
X187123Y260422D02*
D03*
X182201Y250580D02*
D03*
X187123Y240737D02*
D03*
X182201Y230894D02*
D03*
X187123Y221052D02*
D03*
X182201Y211210D02*
D03*
X187123Y201367D02*
D03*
X182201Y191524D02*
D03*
X187123Y181682D02*
D03*
X182201Y171839D02*
D03*
X187123Y161997D02*
D03*
X182201Y152154D02*
D03*
X187123Y142312D02*
D03*
X182201Y132469D02*
D03*
X187123Y122627D02*
D03*
X182201Y112784D02*
D03*
X187123Y102942D02*
D03*
X182201Y93099D02*
D03*
X187123Y83257D02*
D03*
X182201Y73414D02*
D03*
X187123Y63572D02*
D03*
X182201Y53729D02*
D03*
Y34044D02*
D03*
X187123Y24202D02*
D03*
X182201Y14359D02*
D03*
X172359Y368690D02*
D03*
X177280Y358847D02*
D03*
X172359Y349005D02*
D03*
X177280Y339162D02*
D03*
X172359Y329320D02*
D03*
X177280Y299792D02*
D03*
X172359Y289950D02*
D03*
X177280Y280107D02*
D03*
X172359Y270265D02*
D03*
X177280Y260422D02*
D03*
X172359Y250580D02*
D03*
X177280Y240737D02*
D03*
X172359Y230894D02*
D03*
X177280Y221052D02*
D03*
X172359Y211210D02*
D03*
X177280Y201367D02*
D03*
X172359Y191524D02*
D03*
X177280Y181682D02*
D03*
X172359Y171839D02*
D03*
X177280Y161997D02*
D03*
X172359Y152154D02*
D03*
X177280Y142312D02*
D03*
X172359Y132469D02*
D03*
X177280Y122627D02*
D03*
X172359Y112784D02*
D03*
X177280Y102942D02*
D03*
X172359Y93099D02*
D03*
X177280Y83257D02*
D03*
X172359Y73414D02*
D03*
X177280Y63572D02*
D03*
X172359Y53729D02*
D03*
Y34044D02*
D03*
X177280Y24202D02*
D03*
X172359Y14359D02*
D03*
X167438Y378532D02*
D03*
Y358847D02*
D03*
X162516Y349005D02*
D03*
X167438Y339162D02*
D03*
X162516Y329320D02*
D03*
X167438Y299792D02*
D03*
X162516Y289950D02*
D03*
X167438Y280107D02*
D03*
X162516Y270265D02*
D03*
X167438Y260422D02*
D03*
X162516Y250580D02*
D03*
X167438Y240737D02*
D03*
X162516Y230894D02*
D03*
X167438Y221052D02*
D03*
X162516Y211210D02*
D03*
X167438Y201367D02*
D03*
X162516Y191524D02*
D03*
X167438Y181682D02*
D03*
X162516Y171839D02*
D03*
X167438Y161997D02*
D03*
X162516Y152154D02*
D03*
X167438Y142312D02*
D03*
X162516Y132469D02*
D03*
X167438Y122627D02*
D03*
X162516Y112784D02*
D03*
X167438Y102942D02*
D03*
X162516Y93099D02*
D03*
X167438Y83257D02*
D03*
X162516Y73414D02*
D03*
X167438Y63572D02*
D03*
X162516Y53729D02*
D03*
Y34044D02*
D03*
X167438Y24202D02*
D03*
X162516Y14359D02*
D03*
X157595Y378532D02*
D03*
X152674Y368690D02*
D03*
X157595Y358847D02*
D03*
X152674Y349005D02*
D03*
X157595Y339162D02*
D03*
X152674Y329320D02*
D03*
X157595Y299792D02*
D03*
X152674Y289950D02*
D03*
X157595Y280107D02*
D03*
X152674Y270265D02*
D03*
X157595Y260422D02*
D03*
X152674Y250580D02*
D03*
X157595Y240737D02*
D03*
X152674Y230894D02*
D03*
X157595Y221052D02*
D03*
X152674Y211210D02*
D03*
X157595Y201367D02*
D03*
X152674Y191524D02*
D03*
X157595Y181682D02*
D03*
X152674Y171839D02*
D03*
X157595Y161997D02*
D03*
X152674Y152154D02*
D03*
X157595Y142312D02*
D03*
X152674Y132469D02*
D03*
X157595Y122627D02*
D03*
X152674Y112784D02*
D03*
X157595Y102942D02*
D03*
X152674Y93099D02*
D03*
X157595Y83257D02*
D03*
X152674Y73414D02*
D03*
X157595Y63572D02*
D03*
X152674Y53729D02*
D03*
Y34044D02*
D03*
X157595Y24202D02*
D03*
X152674Y14359D02*
D03*
X147753Y378532D02*
D03*
X142831Y368690D02*
D03*
X147753Y358847D02*
D03*
Y339162D02*
D03*
X142831Y329320D02*
D03*
X147753Y299792D02*
D03*
X142831Y289950D02*
D03*
X147753Y280107D02*
D03*
X142831Y270265D02*
D03*
X147753Y260422D02*
D03*
X142831Y250580D02*
D03*
X147753Y240737D02*
D03*
X142831Y230894D02*
D03*
X147753Y221052D02*
D03*
X142831Y211210D02*
D03*
X147753Y201367D02*
D03*
X142831Y191524D02*
D03*
X147753Y181682D02*
D03*
X142831Y171839D02*
D03*
X147753Y161997D02*
D03*
X142831Y152154D02*
D03*
X147753Y142312D02*
D03*
X142831Y132469D02*
D03*
X147753Y122627D02*
D03*
X142831Y112784D02*
D03*
X147753Y102942D02*
D03*
X142831Y93099D02*
D03*
X147753Y83257D02*
D03*
X142831Y73414D02*
D03*
X147753Y63572D02*
D03*
X142831Y53729D02*
D03*
Y34044D02*
D03*
X147753Y24202D02*
D03*
X142831Y14359D02*
D03*
X137910Y378532D02*
D03*
X132989Y368690D02*
D03*
X137910Y358847D02*
D03*
X132989Y349005D02*
D03*
X137910Y339162D02*
D03*
X132989Y329320D02*
D03*
X137910Y299792D02*
D03*
X132989Y289950D02*
D03*
X137910Y280107D02*
D03*
X132989Y270265D02*
D03*
X137910Y260422D02*
D03*
X132989Y250580D02*
D03*
X137910Y240737D02*
D03*
X132989Y230894D02*
D03*
X137910Y221052D02*
D03*
X132989Y211210D02*
D03*
X137910Y201367D02*
D03*
X132989Y191524D02*
D03*
X137910Y181682D02*
D03*
X132989Y171839D02*
D03*
X137910Y161997D02*
D03*
X132989Y152154D02*
D03*
X137910Y142312D02*
D03*
X132989Y132469D02*
D03*
X137910Y122627D02*
D03*
X132989Y112784D02*
D03*
X137910Y102942D02*
D03*
X132989Y93099D02*
D03*
X137910Y83257D02*
D03*
X132989Y73414D02*
D03*
X137910Y63572D02*
D03*
X132989Y34044D02*
D03*
X137910Y24202D02*
D03*
X132989Y14359D02*
D03*
X128068Y378532D02*
D03*
X123146Y368690D02*
D03*
X128068Y358847D02*
D03*
X123146Y349005D02*
D03*
X128068Y339162D02*
D03*
X123146Y329320D02*
D03*
X128068Y299792D02*
D03*
X123146Y289950D02*
D03*
X128068Y280107D02*
D03*
X123146Y270265D02*
D03*
X128068Y260422D02*
D03*
X123146Y250580D02*
D03*
X128068Y240737D02*
D03*
X123146Y230894D02*
D03*
X128068Y221052D02*
D03*
X123146Y211210D02*
D03*
X128068Y201367D02*
D03*
X123146Y191524D02*
D03*
X128068Y181682D02*
D03*
X123146Y171839D02*
D03*
X128068Y161997D02*
D03*
X123146Y152154D02*
D03*
X128068Y142312D02*
D03*
X123146Y132469D02*
D03*
X128068Y122627D02*
D03*
X123146Y112784D02*
D03*
X128068Y102942D02*
D03*
X123146Y93099D02*
D03*
X128068Y83257D02*
D03*
X123146Y73414D02*
D03*
Y53729D02*
D03*
X128068Y43887D02*
D03*
X123146Y34044D02*
D03*
X128068Y24202D02*
D03*
X123146Y14359D02*
D03*
X118225Y378532D02*
D03*
X113304Y368690D02*
D03*
X118225Y358847D02*
D03*
X113304Y349005D02*
D03*
X118225Y339162D02*
D03*
X113304Y329320D02*
D03*
X118225Y299792D02*
D03*
X113304Y289950D02*
D03*
X118225Y280107D02*
D03*
X113304Y270265D02*
D03*
X118225Y260422D02*
D03*
X113304Y250580D02*
D03*
X118225Y240737D02*
D03*
X113304Y230894D02*
D03*
X118225Y221052D02*
D03*
X113304Y211210D02*
D03*
X118225Y201367D02*
D03*
X113304Y191524D02*
D03*
X118225Y181682D02*
D03*
X113304Y171839D02*
D03*
X118225Y161997D02*
D03*
X113304Y152154D02*
D03*
X118225Y142312D02*
D03*
X113304Y132469D02*
D03*
X118225Y122627D02*
D03*
X113304Y112784D02*
D03*
X118225Y102942D02*
D03*
X113304Y93099D02*
D03*
X118225Y83257D02*
D03*
X113304Y53729D02*
D03*
X118225Y43887D02*
D03*
X113304Y34044D02*
D03*
X118225Y24202D02*
D03*
X113304Y14359D02*
D03*
X108382Y378532D02*
D03*
X103461Y368690D02*
D03*
X108382Y358847D02*
D03*
X103461Y349005D02*
D03*
X108382Y339162D02*
D03*
X103461Y329320D02*
D03*
X108382Y299792D02*
D03*
X103461Y289950D02*
D03*
X108382Y280107D02*
D03*
X103461Y270265D02*
D03*
X108382Y260422D02*
D03*
X103461Y250580D02*
D03*
X108382Y240737D02*
D03*
X103461Y230894D02*
D03*
X108382Y221052D02*
D03*
X103461Y211210D02*
D03*
X108382Y201367D02*
D03*
X103461Y191524D02*
D03*
X108382Y181682D02*
D03*
X103461Y171839D02*
D03*
X108382Y161997D02*
D03*
X103461Y152154D02*
D03*
X108382Y142312D02*
D03*
X103461Y132469D02*
D03*
X108382Y122627D02*
D03*
X103461Y112784D02*
D03*
X108382Y102942D02*
D03*
X103461Y93099D02*
D03*
Y73414D02*
D03*
X108382Y63572D02*
D03*
X103461Y53729D02*
D03*
X108382Y43887D02*
D03*
X103461Y34044D02*
D03*
X108382Y24202D02*
D03*
X103461Y14359D02*
D03*
X98540Y378532D02*
D03*
X93619Y368690D02*
D03*
X98540Y358847D02*
D03*
X93619Y349005D02*
D03*
X98540Y339162D02*
D03*
X93619Y329320D02*
D03*
X98540Y299792D02*
D03*
X93619Y289950D02*
D03*
X98540Y280107D02*
D03*
X93619Y270265D02*
D03*
X98540Y260422D02*
D03*
X93619Y250580D02*
D03*
X98540Y240737D02*
D03*
X93619Y230894D02*
D03*
X98540Y221052D02*
D03*
X93619Y211210D02*
D03*
X98540Y201367D02*
D03*
X93619Y191524D02*
D03*
X98540Y181682D02*
D03*
X93619Y171839D02*
D03*
X98540Y161997D02*
D03*
X93619Y152154D02*
D03*
X98540Y142312D02*
D03*
X93619Y132469D02*
D03*
X98540Y122627D02*
D03*
X93619Y112784D02*
D03*
X98540Y102942D02*
D03*
X93619Y73414D02*
D03*
X98540Y63572D02*
D03*
X93619Y53729D02*
D03*
X98540Y43887D02*
D03*
X93619Y34044D02*
D03*
X98540Y24202D02*
D03*
X93619Y14359D02*
D03*
X88697Y378532D02*
D03*
X83776Y368690D02*
D03*
X88697Y358847D02*
D03*
X83776Y349005D02*
D03*
X88697Y339162D02*
D03*
X83776Y329320D02*
D03*
X88697Y299792D02*
D03*
X83776Y289950D02*
D03*
X88697Y280107D02*
D03*
X83776Y270265D02*
D03*
X88697Y260422D02*
D03*
X83776Y250580D02*
D03*
X88697Y240737D02*
D03*
X83776Y230894D02*
D03*
X88697Y221052D02*
D03*
X83776Y211210D02*
D03*
X88697Y201367D02*
D03*
X83776Y191524D02*
D03*
X88697Y181682D02*
D03*
X83776Y171839D02*
D03*
X88697Y161997D02*
D03*
X83776Y152154D02*
D03*
X88697Y142312D02*
D03*
X83776Y132469D02*
D03*
X88697Y122627D02*
D03*
X83776Y112784D02*
D03*
Y93099D02*
D03*
X88697Y83257D02*
D03*
X83776Y73414D02*
D03*
X88697Y63572D02*
D03*
X83776Y53729D02*
D03*
X88697Y43887D02*
D03*
X83776Y34044D02*
D03*
X88697Y24202D02*
D03*
X83776Y14359D02*
D03*
X78855Y378532D02*
D03*
X73934Y368690D02*
D03*
X78855Y358847D02*
D03*
X73934Y349005D02*
D03*
X78855Y339162D02*
D03*
X73934Y329320D02*
D03*
X78855Y299792D02*
D03*
X73934Y289950D02*
D03*
X78855Y280107D02*
D03*
X73934Y270265D02*
D03*
X78855Y260422D02*
D03*
X73934Y250580D02*
D03*
X78855Y240737D02*
D03*
X73934Y230894D02*
D03*
X78855Y221052D02*
D03*
X73934Y211210D02*
D03*
X78855Y201367D02*
D03*
X73934Y191524D02*
D03*
X78855Y181682D02*
D03*
X73934Y171839D02*
D03*
X78855Y161997D02*
D03*
X73934Y152154D02*
D03*
X78855Y142312D02*
D03*
X73934Y132469D02*
D03*
X78855Y122627D02*
D03*
X73934Y93099D02*
D03*
X78855Y83257D02*
D03*
X73934Y73414D02*
D03*
X78855Y63572D02*
D03*
X73934Y53729D02*
D03*
X78855Y43887D02*
D03*
X73934Y34044D02*
D03*
X78855Y24202D02*
D03*
X73934Y14359D02*
D03*
X69012Y378532D02*
D03*
X64091Y368690D02*
D03*
X69012Y358847D02*
D03*
X64091Y349005D02*
D03*
X69012Y339162D02*
D03*
X64091Y329320D02*
D03*
X69012Y221052D02*
D03*
X64091Y211210D02*
D03*
X69012Y201367D02*
D03*
X64091Y191524D02*
D03*
X69012Y181682D02*
D03*
X64091Y171839D02*
D03*
X69012Y161997D02*
D03*
X64091Y152154D02*
D03*
X69012Y142312D02*
D03*
X64091Y132469D02*
D03*
Y112784D02*
D03*
X69012Y102942D02*
D03*
X64091Y93099D02*
D03*
X69012Y83257D02*
D03*
X64091Y73414D02*
D03*
X69012Y63572D02*
D03*
X64091Y53729D02*
D03*
X69012Y43887D02*
D03*
X64091Y34044D02*
D03*
X69012Y24202D02*
D03*
X64091Y14359D02*
D03*
X59170Y378532D02*
D03*
X54249Y368690D02*
D03*
X59170Y358847D02*
D03*
X54249Y349005D02*
D03*
X59170Y339162D02*
D03*
X54249Y329320D02*
D03*
Y309635D02*
D03*
Y289950D02*
D03*
Y270265D02*
D03*
Y250580D02*
D03*
Y211210D02*
D03*
X59170Y201367D02*
D03*
X54249Y191524D02*
D03*
X59170Y181682D02*
D03*
X54249Y171839D02*
D03*
X59170Y161997D02*
D03*
X54249Y152154D02*
D03*
X59170Y142312D02*
D03*
X54249Y112784D02*
D03*
X59170Y102942D02*
D03*
X54249Y93099D02*
D03*
X59170Y83257D02*
D03*
X54249Y73414D02*
D03*
X59170Y63572D02*
D03*
X54249Y53729D02*
D03*
X59170Y43887D02*
D03*
X54249Y34044D02*
D03*
X59170Y24202D02*
D03*
X54249Y14359D02*
D03*
X49327Y378532D02*
D03*
X44406Y368690D02*
D03*
X49327Y358847D02*
D03*
X44406Y349005D02*
D03*
X49327Y339162D02*
D03*
X44406Y329320D02*
D03*
X49327Y319477D02*
D03*
Y299792D02*
D03*
Y280107D02*
D03*
X44406Y270265D02*
D03*
X49327Y260422D02*
D03*
X44406Y250580D02*
D03*
X49327Y240737D02*
D03*
X44406Y230894D02*
D03*
X49327Y221052D02*
D03*
Y201367D02*
D03*
X44406Y191524D02*
D03*
X49327Y181682D02*
D03*
X44406Y171839D02*
D03*
X49327Y161997D02*
D03*
X44406Y152154D02*
D03*
Y132469D02*
D03*
X49327Y122627D02*
D03*
Y102942D02*
D03*
Y83257D02*
D03*
Y63572D02*
D03*
X44406Y53729D02*
D03*
X49327Y43887D02*
D03*
X44406Y34044D02*
D03*
X49327Y24202D02*
D03*
X44406Y14359D02*
D03*
X39485Y378532D02*
D03*
X34564Y368690D02*
D03*
X39485Y358847D02*
D03*
X34564Y349005D02*
D03*
X39485Y339162D02*
D03*
X34564Y329320D02*
D03*
X39485Y319477D02*
D03*
X34564Y309635D02*
D03*
X39485Y299792D02*
D03*
X34564Y289950D02*
D03*
X39485Y280107D02*
D03*
X34564Y270265D02*
D03*
Y250580D02*
D03*
Y230894D02*
D03*
Y211210D02*
D03*
Y191524D02*
D03*
Y171839D02*
D03*
X39485Y161997D02*
D03*
X34564Y132469D02*
D03*
Y93099D02*
D03*
Y73414D02*
D03*
X39485Y43887D02*
D03*
X34564Y34044D02*
D03*
X39485Y24202D02*
D03*
X34564Y14359D02*
D03*
X29642Y378532D02*
D03*
X24721Y368690D02*
D03*
X29642Y358847D02*
D03*
X24721Y349005D02*
D03*
Y329320D02*
D03*
X29642Y280107D02*
D03*
X24721Y270265D02*
D03*
Y73414D02*
D03*
X29642Y43887D02*
D03*
Y24202D02*
D03*
X24721Y14359D02*
D03*
X19800Y378532D02*
D03*
X14878Y368690D02*
D03*
X19800Y358847D02*
D03*
X14878Y349005D02*
D03*
Y309635D02*
D03*
Y289950D02*
D03*
Y270265D02*
D03*
Y73414D02*
D03*
Y34044D02*
D03*
X19800Y24202D02*
D03*
X14878Y14359D02*
D03*
X9957Y378532D02*
D03*
X5036Y368690D02*
D03*
X9957Y358847D02*
D03*
X5036Y349005D02*
D03*
X9957Y339162D02*
D03*
X5036Y329320D02*
D03*
X9957Y319477D02*
D03*
X5036Y309635D02*
D03*
X9957Y299792D02*
D03*
Y221052D02*
D03*
Y201367D02*
D03*
Y181682D02*
D03*
X5036Y171839D02*
D03*
X9957Y142312D02*
D03*
Y43887D02*
D03*
X5036Y34044D02*
D03*
X9957Y24202D02*
D03*
X5036Y14359D02*
D03*
X325900Y311500D02*
D03*
D60*
X371100Y11600D02*
D03*
X377900Y67400D02*
D03*
X513600Y63800D02*
D03*
X512300Y52800D02*
D03*
X437400Y44532D02*
D03*
X410200Y58800D02*
D03*
X416900Y66300D02*
D03*
X410400Y32000D02*
D03*
X443200Y44100D02*
D03*
X369800Y32200D02*
D03*
X369700Y37200D02*
D03*
X346623Y57300D02*
D03*
X328300Y41700D02*
D03*
X348500Y62000D02*
D03*
X330900Y37500D02*
D03*
X348000Y37700D02*
D03*
X350800Y35400D02*
D03*
X346462Y297445D02*
D03*
X335400Y293000D02*
D03*
X364300Y306600D02*
D03*
X345700Y180900D02*
D03*
X344219Y173813D02*
D03*
X348592Y188708D02*
D03*
X348900Y191800D02*
D03*
X326500Y308600D02*
D03*
X346100Y331800D02*
D03*
X363500Y323800D02*
D03*
X349800Y23400D02*
D03*
X374600Y7000D02*
D03*
X441500Y6600D02*
D03*
X440800Y65300D02*
D03*
X466300Y37800D02*
D03*
X474600Y113100D02*
D03*
X475800Y55900D02*
D03*
X512200Y36500D02*
D03*
X439400Y86900D02*
D03*
X542600Y195800D02*
D03*
X516400Y197400D02*
D03*
X498400Y207000D02*
D03*
X497600Y181300D02*
D03*
X535700Y171700D02*
D03*
X433632Y169451D02*
D03*
X432000Y183400D02*
D03*
X432600Y162400D02*
D03*
X442100Y164300D02*
D03*
X415500Y222500D02*
D03*
X435800Y214300D02*
D03*
X414300Y162300D02*
D03*
X366400Y154600D02*
D03*
X365700Y186400D02*
D03*
X340300Y161300D02*
D03*
X329200Y175100D02*
D03*
X345300Y195200D02*
D03*
X420100Y180600D02*
D03*
X409100Y180800D02*
D03*
X327500Y189200D02*
D03*
X5100Y116300D02*
D03*
X-24100Y119600D02*
D03*
X-24379Y116358D02*
D03*
X-252Y116431D02*
D03*
M02*
