G04*
G04 #@! TF.GenerationSoftware,Altium Limited,Altium Designer,22.2.1 (43)*
G04*
G04 Layer_Color=8388736*
%FSLAX25Y25*%
%MOIN*%
G70*
G04*
G04 #@! TF.SameCoordinates,AF04F028-1FEE-4182-B250-BA9835736C91*
G04*
G04*
G04 #@! TF.FilePolarity,Negative*
G04*
G01*
G75*
%ADD24R,0.04540X0.04147*%
%ADD25O,0.08674X0.03162*%
%ADD26O,0.10642X0.03556*%
%ADD27R,0.04147X0.04540*%
%ADD28R,0.06902X0.06115*%
%ADD29R,0.07414X0.13162*%
%ADD30R,0.06115X0.06902*%
%ADD31R,0.11417X0.02559*%
%ADD32C,0.05524*%
%ADD33R,0.05524X0.05524*%
%ADD34R,0.06194X0.06194*%
%ADD35C,0.06194*%
%ADD36C,0.19540*%
%ADD37R,0.07453X0.07453*%
%ADD38C,0.07453*%
%ADD39C,0.06706*%
%ADD40R,0.06706X0.06706*%
%ADD41C,0.06115*%
%ADD42R,0.06115X0.06115*%
%ADD43C,0.02375*%
%ADD44C,0.02769*%
D24*
X448700Y59259D02*
D03*
Y54141D02*
D03*
X448400Y87159D02*
D03*
Y82041D02*
D03*
X448700Y112459D02*
D03*
Y107341D02*
D03*
X442200Y215641D02*
D03*
Y220759D02*
D03*
X425200Y201759D02*
D03*
Y196641D02*
D03*
X425500Y180259D02*
D03*
Y175141D02*
D03*
X449700Y348196D02*
D03*
Y353314D02*
D03*
X430400Y333076D02*
D03*
Y327958D02*
D03*
X429600Y312596D02*
D03*
Y307478D02*
D03*
D25*
X281893Y201800D02*
D03*
Y196800D02*
D03*
Y191800D02*
D03*
Y186800D02*
D03*
Y181800D02*
D03*
Y176800D02*
D03*
Y171800D02*
D03*
Y166800D02*
D03*
X318507Y201800D02*
D03*
Y196800D02*
D03*
Y191800D02*
D03*
Y186800D02*
D03*
Y181800D02*
D03*
Y176800D02*
D03*
Y171800D02*
D03*
Y166800D02*
D03*
X279286Y337200D02*
D03*
Y332200D02*
D03*
Y327200D02*
D03*
Y322200D02*
D03*
Y317200D02*
D03*
Y312200D02*
D03*
Y307200D02*
D03*
Y302200D02*
D03*
X315900Y337200D02*
D03*
Y332200D02*
D03*
Y327200D02*
D03*
Y322200D02*
D03*
Y317200D02*
D03*
Y312200D02*
D03*
Y307200D02*
D03*
Y302200D02*
D03*
X320407Y32500D02*
D03*
Y37500D02*
D03*
Y42500D02*
D03*
Y47500D02*
D03*
Y52500D02*
D03*
Y57500D02*
D03*
Y62500D02*
D03*
Y67500D02*
D03*
X283793Y32500D02*
D03*
Y37500D02*
D03*
Y42500D02*
D03*
Y47500D02*
D03*
Y52500D02*
D03*
Y57500D02*
D03*
Y62500D02*
D03*
Y67500D02*
D03*
D26*
X337354Y201700D02*
D03*
Y196700D02*
D03*
Y191700D02*
D03*
Y186700D02*
D03*
Y181700D02*
D03*
Y176700D02*
D03*
Y171700D02*
D03*
Y166700D02*
D03*
X356646Y201700D02*
D03*
Y196700D02*
D03*
Y191700D02*
D03*
Y186700D02*
D03*
Y181700D02*
D03*
Y176700D02*
D03*
Y171700D02*
D03*
Y166700D02*
D03*
X354089Y302200D02*
D03*
Y307200D02*
D03*
Y312200D02*
D03*
Y317200D02*
D03*
Y322200D02*
D03*
Y327200D02*
D03*
Y332200D02*
D03*
Y337200D02*
D03*
X334798Y302200D02*
D03*
Y307200D02*
D03*
Y312200D02*
D03*
Y317200D02*
D03*
Y322200D02*
D03*
Y327200D02*
D03*
Y332200D02*
D03*
Y337200D02*
D03*
X358040Y32400D02*
D03*
Y37400D02*
D03*
Y42400D02*
D03*
Y47400D02*
D03*
Y52400D02*
D03*
Y57400D02*
D03*
Y62400D02*
D03*
Y67400D02*
D03*
X338749Y32400D02*
D03*
Y37400D02*
D03*
Y42400D02*
D03*
Y47400D02*
D03*
Y52400D02*
D03*
Y57400D02*
D03*
Y62400D02*
D03*
Y67400D02*
D03*
D27*
X24159Y36700D02*
D03*
X19041D02*
D03*
X24159Y45400D02*
D03*
X19041D02*
D03*
D28*
X431400Y355037D02*
D03*
Y347163D02*
D03*
X448400Y326325D02*
D03*
Y334199D02*
D03*
X448200Y305400D02*
D03*
Y313274D02*
D03*
X326200Y285363D02*
D03*
Y293237D02*
D03*
X430000Y52126D02*
D03*
Y60000D02*
D03*
Y81063D02*
D03*
Y88937D02*
D03*
Y106063D02*
D03*
Y113937D02*
D03*
X330500Y157474D02*
D03*
Y149600D02*
D03*
X425500Y215963D02*
D03*
Y223837D02*
D03*
X442900Y194963D02*
D03*
Y202837D02*
D03*
X443700Y173263D02*
D03*
Y181137D02*
D03*
D29*
X-390Y283000D02*
D03*
X-19209D02*
D03*
X-490Y248500D02*
D03*
X-19309D02*
D03*
X-790Y265600D02*
D03*
X-19610D02*
D03*
D30*
X254037Y288400D02*
D03*
X246163D02*
D03*
X244763Y20100D02*
D03*
X252637D02*
D03*
X363937Y11400D02*
D03*
X356063D02*
D03*
X243363Y154100D02*
D03*
X251237D02*
D03*
D31*
X-48976Y280280D02*
D03*
Y277130D02*
D03*
Y273980D02*
D03*
Y270831D02*
D03*
Y267681D02*
D03*
Y264531D02*
D03*
Y261382D02*
D03*
Y258232D02*
D03*
Y255083D02*
D03*
Y251933D02*
D03*
Y248783D02*
D03*
Y245634D02*
D03*
Y242484D02*
D03*
Y239335D02*
D03*
Y236185D02*
D03*
Y233035D02*
D03*
Y229886D02*
D03*
Y226736D02*
D03*
Y223587D02*
D03*
Y220437D02*
D03*
Y217287D02*
D03*
Y214138D02*
D03*
Y210988D02*
D03*
Y207839D02*
D03*
Y204689D02*
D03*
Y201539D02*
D03*
Y198390D02*
D03*
Y182642D02*
D03*
Y179492D02*
D03*
Y176343D02*
D03*
Y173193D02*
D03*
Y170043D02*
D03*
Y166894D02*
D03*
Y163744D02*
D03*
Y160594D02*
D03*
Y157445D02*
D03*
Y154295D02*
D03*
Y151146D02*
D03*
Y147996D02*
D03*
Y144846D02*
D03*
Y141697D02*
D03*
Y138547D02*
D03*
Y135398D02*
D03*
Y132248D02*
D03*
Y129098D02*
D03*
Y125949D02*
D03*
Y122799D02*
D03*
Y119650D02*
D03*
Y116500D02*
D03*
Y113350D02*
D03*
D32*
X339470Y376802D02*
D03*
X329469D02*
D03*
X319469D02*
D03*
X309470D02*
D03*
X289470D02*
D03*
X342244Y115363D02*
D03*
X332244D02*
D03*
X322244D02*
D03*
X312244D02*
D03*
X292244D02*
D03*
X342500Y239700D02*
D03*
X332500D02*
D03*
X322500D02*
D03*
X312500D02*
D03*
X292500D02*
D03*
D33*
X279469Y376802D02*
D03*
X282244Y115363D02*
D03*
X282500Y239700D02*
D03*
D34*
X19000Y146900D02*
D03*
X18800Y259000D02*
D03*
X29600Y286200D02*
D03*
D35*
X29000Y146900D02*
D03*
X39000D02*
D03*
X19000Y136900D02*
D03*
X29000D02*
D03*
X39000D02*
D03*
X19000Y126900D02*
D03*
X29000D02*
D03*
X39000D02*
D03*
X19000Y116900D02*
D03*
X29000D02*
D03*
X39000D02*
D03*
X19000Y106900D02*
D03*
X29000D02*
D03*
X39000D02*
D03*
X19000Y96900D02*
D03*
X29000D02*
D03*
X39000D02*
D03*
X19000Y86900D02*
D03*
X29000D02*
D03*
X39000D02*
D03*
X19000Y76900D02*
D03*
X29000D02*
D03*
X39000D02*
D03*
X19000Y66900D02*
D03*
X29000D02*
D03*
X39000D02*
D03*
X19000Y56900D02*
D03*
X29000D02*
D03*
X39000D02*
D03*
X38800Y169000D02*
D03*
X28800D02*
D03*
X18800D02*
D03*
X38800Y179000D02*
D03*
X28800D02*
D03*
X18800D02*
D03*
X38800Y189000D02*
D03*
X28800D02*
D03*
X18800D02*
D03*
X38800Y199000D02*
D03*
X28800D02*
D03*
X18800D02*
D03*
X38800Y209000D02*
D03*
X28800D02*
D03*
X18800D02*
D03*
X38800Y219000D02*
D03*
X28800D02*
D03*
X18800D02*
D03*
X38800Y229000D02*
D03*
X28800D02*
D03*
X18800D02*
D03*
X38800Y239000D02*
D03*
X28800D02*
D03*
X18800D02*
D03*
X38800Y249000D02*
D03*
X28800D02*
D03*
X18800D02*
D03*
X38800Y259000D02*
D03*
X28800D02*
D03*
X19600Y286200D02*
D03*
X29600Y296200D02*
D03*
X19600D02*
D03*
X29600Y306200D02*
D03*
X19600D02*
D03*
X29600Y316200D02*
D03*
X19600D02*
D03*
X29600Y326200D02*
D03*
X19600D02*
D03*
X29600Y336200D02*
D03*
X19600D02*
D03*
D36*
X529998Y146707D02*
D03*
Y245093D02*
D03*
X529921Y272047D02*
D03*
Y370433D02*
D03*
X529498Y114293D02*
D03*
Y15907D02*
D03*
D37*
X524408Y217711D02*
D03*
X524331Y343051D02*
D03*
X523908Y86911D02*
D03*
D38*
X535589Y212258D02*
D03*
X524408Y206806D02*
D03*
X535589Y201353D02*
D03*
X524408Y195900D02*
D03*
X535589Y190447D02*
D03*
X524408Y184994D02*
D03*
X535589Y179542D02*
D03*
X524408Y174089D02*
D03*
X535512Y337598D02*
D03*
X524331Y332146D02*
D03*
X535512Y326693D02*
D03*
X524331Y321240D02*
D03*
X535512Y315787D02*
D03*
X524331Y310335D02*
D03*
X535512Y304882D02*
D03*
X524331Y299429D02*
D03*
X523908Y43289D02*
D03*
X535089Y48742D02*
D03*
X523908Y54194D02*
D03*
X535089Y59647D02*
D03*
X523908Y65100D02*
D03*
X535089Y70553D02*
D03*
X523908Y76006D02*
D03*
X535089Y81458D02*
D03*
D39*
X485000Y290000D02*
D03*
X475000D02*
D03*
X465000D02*
D03*
X455000D02*
D03*
X445000D02*
D03*
X435000D02*
D03*
X425000D02*
D03*
X425800Y22300D02*
D03*
X435800D02*
D03*
X445800D02*
D03*
X455800D02*
D03*
X465800D02*
D03*
X475800D02*
D03*
X485800D02*
D03*
X425000Y155000D02*
D03*
X435000D02*
D03*
X445000D02*
D03*
X455000D02*
D03*
X465000D02*
D03*
X475000D02*
D03*
X485000D02*
D03*
D40*
X415000Y290000D02*
D03*
X415800Y22300D02*
D03*
X415000Y155000D02*
D03*
D41*
X370800Y353457D02*
D03*
X366900Y115943D02*
D03*
X379800Y221857D02*
D03*
D42*
X370800Y373143D02*
D03*
X366900Y96257D02*
D03*
X379800Y241543D02*
D03*
D43*
X295390Y378532D02*
D03*
Y358847D02*
D03*
Y339162D02*
D03*
Y319477D02*
D03*
Y299792D02*
D03*
Y280107D02*
D03*
Y260422D02*
D03*
X290469Y152154D02*
D03*
Y132469D02*
D03*
X295390Y122627D02*
D03*
Y102942D02*
D03*
X290469Y93099D02*
D03*
X295390Y83257D02*
D03*
X290469Y73414D02*
D03*
X295390Y63572D02*
D03*
Y43887D02*
D03*
Y24202D02*
D03*
X290469Y14359D02*
D03*
X285548Y378532D02*
D03*
X280627Y368690D02*
D03*
X285548Y358847D02*
D03*
X280627Y349005D02*
D03*
X285548Y339162D02*
D03*
Y161997D02*
D03*
Y142312D02*
D03*
X280627Y132469D02*
D03*
X285548Y122627D02*
D03*
Y102942D02*
D03*
X280627Y93099D02*
D03*
X285548Y83257D02*
D03*
X280627Y73414D02*
D03*
X285548Y24202D02*
D03*
X280627Y14359D02*
D03*
X270784Y368690D02*
D03*
X275705Y358847D02*
D03*
X270784Y349005D02*
D03*
Y329320D02*
D03*
Y211210D02*
D03*
Y191524D02*
D03*
Y171839D02*
D03*
Y152154D02*
D03*
X275705Y142312D02*
D03*
X270784Y132469D02*
D03*
X275705Y122627D02*
D03*
X270784Y112784D02*
D03*
X275705Y102942D02*
D03*
X270784Y93099D02*
D03*
X275705Y83257D02*
D03*
Y63572D02*
D03*
X270784Y53729D02*
D03*
X275705Y24202D02*
D03*
X270784Y14359D02*
D03*
X260942Y368690D02*
D03*
X265863Y358847D02*
D03*
X260942Y349005D02*
D03*
X265863Y339162D02*
D03*
X260942Y329320D02*
D03*
X265863Y221052D02*
D03*
X260942Y211210D02*
D03*
X265863Y201367D02*
D03*
X260942Y191524D02*
D03*
X265863Y181682D02*
D03*
X260942Y171839D02*
D03*
X265863Y161997D02*
D03*
Y142312D02*
D03*
Y122627D02*
D03*
X260942Y112784D02*
D03*
X265863Y102942D02*
D03*
X260942Y93099D02*
D03*
X265863Y83257D02*
D03*
X260942Y73414D02*
D03*
X265863Y63572D02*
D03*
X260942Y53729D02*
D03*
Y34044D02*
D03*
X265863Y24202D02*
D03*
X260942Y14359D02*
D03*
X251099Y368690D02*
D03*
X256020Y358847D02*
D03*
X251099Y349005D02*
D03*
X256020Y339162D02*
D03*
X251099Y329320D02*
D03*
X256020Y299792D02*
D03*
X251099Y270265D02*
D03*
Y250580D02*
D03*
Y230894D02*
D03*
X256020Y221052D02*
D03*
X251099Y211210D02*
D03*
X256020Y201367D02*
D03*
X251099Y191524D02*
D03*
X256020Y181682D02*
D03*
X251099Y171839D02*
D03*
X256020Y161997D02*
D03*
Y142312D02*
D03*
X251099Y132469D02*
D03*
X256020Y122627D02*
D03*
X251099Y112784D02*
D03*
X256020Y102942D02*
D03*
X251099Y93099D02*
D03*
X256020Y83257D02*
D03*
X251099Y73414D02*
D03*
X256020Y63572D02*
D03*
X251099Y53729D02*
D03*
Y34044D02*
D03*
Y14359D02*
D03*
X241256Y368690D02*
D03*
X246178Y358847D02*
D03*
X241256Y349005D02*
D03*
X246178Y339162D02*
D03*
X241256Y329320D02*
D03*
X246178Y299792D02*
D03*
X241256Y289950D02*
D03*
X246178Y280107D02*
D03*
X241256Y270265D02*
D03*
X246178Y260422D02*
D03*
X241256Y250580D02*
D03*
X246178Y240737D02*
D03*
X241256Y230894D02*
D03*
X246178Y221052D02*
D03*
X241256Y211210D02*
D03*
X246178Y201367D02*
D03*
X241256Y191524D02*
D03*
X246178Y181682D02*
D03*
X241256Y171839D02*
D03*
X246178Y161997D02*
D03*
Y142312D02*
D03*
X241256Y132469D02*
D03*
X246178Y122627D02*
D03*
X241256Y112784D02*
D03*
X246178Y102942D02*
D03*
X241256Y93099D02*
D03*
X246178Y83257D02*
D03*
X241256Y73414D02*
D03*
X246178Y63572D02*
D03*
X241256Y53729D02*
D03*
Y34044D02*
D03*
Y14359D02*
D03*
X231414Y368690D02*
D03*
X236335Y358847D02*
D03*
X231414Y349005D02*
D03*
X236335Y339162D02*
D03*
X231414Y329320D02*
D03*
X236335Y299792D02*
D03*
X231414Y289950D02*
D03*
X236335Y280107D02*
D03*
X231414Y270265D02*
D03*
X236335Y260422D02*
D03*
X231414Y250580D02*
D03*
X236335Y240737D02*
D03*
X231414Y230894D02*
D03*
X236335Y221052D02*
D03*
X231414Y211210D02*
D03*
X236335Y201367D02*
D03*
X231414Y191524D02*
D03*
X236335Y181682D02*
D03*
X231414Y171839D02*
D03*
X236335Y161997D02*
D03*
X231414Y152154D02*
D03*
X236335Y142312D02*
D03*
X231414Y132469D02*
D03*
X236335Y122627D02*
D03*
X231414Y112784D02*
D03*
X236335Y102942D02*
D03*
X231414Y93099D02*
D03*
X236335Y83257D02*
D03*
X231414Y73414D02*
D03*
X236335Y63572D02*
D03*
X231414Y53729D02*
D03*
Y34044D02*
D03*
X236335Y24202D02*
D03*
X231414Y14359D02*
D03*
X221571Y368690D02*
D03*
X226493Y358847D02*
D03*
X221571Y349005D02*
D03*
X226493Y339162D02*
D03*
X221571Y329320D02*
D03*
X226493Y299792D02*
D03*
X221571Y289950D02*
D03*
X226493Y280107D02*
D03*
X221571Y270265D02*
D03*
X226493Y260422D02*
D03*
X221571Y250580D02*
D03*
X226493Y240737D02*
D03*
X221571Y230894D02*
D03*
X226493Y221052D02*
D03*
X221571Y211210D02*
D03*
X226493Y201367D02*
D03*
X221571Y191524D02*
D03*
X226493Y181682D02*
D03*
X221571Y171839D02*
D03*
X226493Y161997D02*
D03*
X221571Y152154D02*
D03*
X226493Y142312D02*
D03*
X221571Y132469D02*
D03*
X226493Y122627D02*
D03*
X221571Y112784D02*
D03*
X226493Y102942D02*
D03*
X221571Y93099D02*
D03*
X226493Y83257D02*
D03*
X221571Y73414D02*
D03*
X226493Y63572D02*
D03*
X221571Y53729D02*
D03*
Y34044D02*
D03*
X226493Y24202D02*
D03*
X221571Y14359D02*
D03*
X211729Y368690D02*
D03*
X216650Y358847D02*
D03*
X211729Y349005D02*
D03*
X216650Y339162D02*
D03*
X211729Y329320D02*
D03*
X216650Y299792D02*
D03*
X211729Y289950D02*
D03*
X216650Y280107D02*
D03*
X211729Y270265D02*
D03*
X216650Y260422D02*
D03*
X211729Y250580D02*
D03*
X216650Y240737D02*
D03*
X211729Y230894D02*
D03*
X216650Y221052D02*
D03*
X211729Y211210D02*
D03*
X216650Y201367D02*
D03*
X211729Y191524D02*
D03*
X216650Y181682D02*
D03*
X211729Y171839D02*
D03*
X216650Y161997D02*
D03*
X211729Y152154D02*
D03*
X216650Y142312D02*
D03*
X211729Y132469D02*
D03*
X216650Y122627D02*
D03*
X211729Y112784D02*
D03*
X216650Y102942D02*
D03*
X211729Y93099D02*
D03*
X216650Y83257D02*
D03*
X211729Y73414D02*
D03*
X216650Y63572D02*
D03*
X211729Y53729D02*
D03*
Y34044D02*
D03*
X216650Y24202D02*
D03*
X211729Y14359D02*
D03*
X201886Y368690D02*
D03*
X206808Y358847D02*
D03*
X201886Y349005D02*
D03*
X206808Y339162D02*
D03*
X201886Y329320D02*
D03*
X206808Y299792D02*
D03*
X201886Y289950D02*
D03*
X206808Y280107D02*
D03*
X201886Y270265D02*
D03*
X206808Y260422D02*
D03*
X201886Y250580D02*
D03*
X206808Y240737D02*
D03*
X201886Y230894D02*
D03*
X206808Y221052D02*
D03*
X201886Y211210D02*
D03*
X206808Y201367D02*
D03*
X201886Y191524D02*
D03*
X206808Y181682D02*
D03*
X201886Y171839D02*
D03*
X206808Y161997D02*
D03*
X201886Y152154D02*
D03*
X206808Y142312D02*
D03*
X201886Y132469D02*
D03*
X206808Y122627D02*
D03*
X201886Y112784D02*
D03*
X206808Y102942D02*
D03*
X201886Y93099D02*
D03*
X206808Y83257D02*
D03*
X201886Y73414D02*
D03*
X206808Y63572D02*
D03*
X201886Y53729D02*
D03*
Y34044D02*
D03*
X206808Y24202D02*
D03*
X201886Y14359D02*
D03*
X192044Y368690D02*
D03*
X196965Y358847D02*
D03*
X192044Y349005D02*
D03*
X196965Y339162D02*
D03*
X192044Y329320D02*
D03*
X196965Y299792D02*
D03*
X192044Y289950D02*
D03*
X196965Y280107D02*
D03*
X192044Y270265D02*
D03*
X196965Y260422D02*
D03*
X192044Y250580D02*
D03*
X196965Y240737D02*
D03*
X192044Y230894D02*
D03*
X196965Y221052D02*
D03*
X192044Y211210D02*
D03*
X196965Y201367D02*
D03*
X192044Y191524D02*
D03*
X196965Y181682D02*
D03*
X192044Y171839D02*
D03*
X196965Y161997D02*
D03*
X192044Y152154D02*
D03*
X196965Y142312D02*
D03*
X192044Y132469D02*
D03*
X196965Y122627D02*
D03*
X192044Y112784D02*
D03*
X196965Y102942D02*
D03*
X192044Y93099D02*
D03*
X196965Y83257D02*
D03*
X192044Y73414D02*
D03*
X196965Y63572D02*
D03*
X192044Y53729D02*
D03*
Y34044D02*
D03*
X196965Y24202D02*
D03*
X192044Y14359D02*
D03*
X182201Y368690D02*
D03*
X187123Y358847D02*
D03*
X182201Y349005D02*
D03*
X187123Y339162D02*
D03*
X182201Y329320D02*
D03*
X187123Y299792D02*
D03*
X182201Y289950D02*
D03*
X187123Y280107D02*
D03*
X182201Y270265D02*
D03*
X187123Y260422D02*
D03*
X182201Y250580D02*
D03*
X187123Y240737D02*
D03*
X182201Y230894D02*
D03*
X187123Y221052D02*
D03*
X182201Y211210D02*
D03*
X187123Y201367D02*
D03*
X182201Y191524D02*
D03*
X187123Y181682D02*
D03*
X182201Y171839D02*
D03*
X187123Y161997D02*
D03*
X182201Y152154D02*
D03*
X187123Y142312D02*
D03*
X182201Y132469D02*
D03*
X187123Y122627D02*
D03*
X182201Y112784D02*
D03*
X187123Y102942D02*
D03*
X182201Y93099D02*
D03*
X187123Y83257D02*
D03*
X182201Y73414D02*
D03*
X187123Y63572D02*
D03*
X182201Y53729D02*
D03*
Y34044D02*
D03*
X187123Y24202D02*
D03*
X182201Y14359D02*
D03*
X172359Y368690D02*
D03*
X177280Y358847D02*
D03*
X172359Y349005D02*
D03*
X177280Y339162D02*
D03*
X172359Y329320D02*
D03*
X177280Y299792D02*
D03*
X172359Y289950D02*
D03*
X177280Y280107D02*
D03*
X172359Y270265D02*
D03*
X177280Y260422D02*
D03*
X172359Y250580D02*
D03*
X177280Y240737D02*
D03*
X172359Y230894D02*
D03*
X177280Y221052D02*
D03*
X172359Y211210D02*
D03*
X177280Y201367D02*
D03*
X172359Y191524D02*
D03*
X177280Y181682D02*
D03*
X172359Y171839D02*
D03*
X177280Y161997D02*
D03*
X172359Y152154D02*
D03*
X177280Y142312D02*
D03*
X172359Y132469D02*
D03*
X177280Y122627D02*
D03*
X172359Y112784D02*
D03*
X177280Y102942D02*
D03*
X172359Y93099D02*
D03*
X177280Y83257D02*
D03*
X172359Y73414D02*
D03*
X177280Y63572D02*
D03*
X172359Y53729D02*
D03*
Y34044D02*
D03*
X177280Y24202D02*
D03*
X172359Y14359D02*
D03*
X167438Y378532D02*
D03*
Y358847D02*
D03*
X162516Y349005D02*
D03*
X167438Y339162D02*
D03*
X162516Y329320D02*
D03*
X167438Y299792D02*
D03*
X162516Y289950D02*
D03*
X167438Y280107D02*
D03*
X162516Y270265D02*
D03*
X167438Y260422D02*
D03*
X162516Y250580D02*
D03*
X167438Y240737D02*
D03*
X162516Y230894D02*
D03*
X167438Y221052D02*
D03*
X162516Y211210D02*
D03*
X167438Y201367D02*
D03*
X162516Y191524D02*
D03*
X167438Y181682D02*
D03*
X162516Y171839D02*
D03*
X167438Y161997D02*
D03*
X162516Y152154D02*
D03*
X167438Y142312D02*
D03*
X162516Y132469D02*
D03*
X167438Y122627D02*
D03*
X162516Y112784D02*
D03*
X167438Y102942D02*
D03*
X162516Y93099D02*
D03*
X167438Y83257D02*
D03*
X162516Y73414D02*
D03*
X167438Y63572D02*
D03*
X162516Y53729D02*
D03*
Y34044D02*
D03*
X167438Y24202D02*
D03*
X162516Y14359D02*
D03*
X157595Y378532D02*
D03*
X152674Y368690D02*
D03*
X157595Y358847D02*
D03*
X152674Y349005D02*
D03*
X157595Y339162D02*
D03*
X152674Y329320D02*
D03*
X157595Y299792D02*
D03*
X152674Y289950D02*
D03*
X157595Y280107D02*
D03*
X152674Y270265D02*
D03*
X157595Y260422D02*
D03*
X152674Y250580D02*
D03*
X157595Y240737D02*
D03*
X152674Y230894D02*
D03*
X157595Y221052D02*
D03*
X152674Y211210D02*
D03*
X157595Y201367D02*
D03*
X152674Y191524D02*
D03*
X157595Y181682D02*
D03*
X152674Y171839D02*
D03*
X157595Y161997D02*
D03*
X152674Y152154D02*
D03*
X157595Y142312D02*
D03*
X152674Y132469D02*
D03*
X157595Y122627D02*
D03*
X152674Y112784D02*
D03*
X157595Y102942D02*
D03*
X152674Y93099D02*
D03*
X157595Y83257D02*
D03*
X152674Y73414D02*
D03*
X157595Y63572D02*
D03*
X152674Y53729D02*
D03*
Y34044D02*
D03*
X157595Y24202D02*
D03*
X152674Y14359D02*
D03*
X147753Y378532D02*
D03*
X142831Y368690D02*
D03*
X147753Y358847D02*
D03*
Y339162D02*
D03*
X142831Y329320D02*
D03*
X147753Y299792D02*
D03*
X142831Y289950D02*
D03*
X147753Y280107D02*
D03*
X142831Y270265D02*
D03*
X147753Y260422D02*
D03*
X142831Y250580D02*
D03*
X147753Y240737D02*
D03*
X142831Y230894D02*
D03*
X147753Y221052D02*
D03*
X142831Y211210D02*
D03*
X147753Y201367D02*
D03*
X142831Y191524D02*
D03*
X147753Y181682D02*
D03*
X142831Y171839D02*
D03*
X147753Y161997D02*
D03*
X142831Y152154D02*
D03*
X147753Y142312D02*
D03*
X142831Y132469D02*
D03*
X147753Y122627D02*
D03*
X142831Y112784D02*
D03*
X147753Y102942D02*
D03*
X142831Y93099D02*
D03*
X147753Y83257D02*
D03*
X142831Y73414D02*
D03*
X147753Y63572D02*
D03*
X142831Y53729D02*
D03*
Y34044D02*
D03*
X147753Y24202D02*
D03*
X142831Y14359D02*
D03*
X137910Y378532D02*
D03*
X132989Y368690D02*
D03*
X137910Y358847D02*
D03*
X132989Y349005D02*
D03*
X137910Y339162D02*
D03*
X132989Y329320D02*
D03*
X137910Y299792D02*
D03*
X132989Y289950D02*
D03*
X137910Y280107D02*
D03*
X132989Y270265D02*
D03*
X137910Y260422D02*
D03*
X132989Y250580D02*
D03*
X137910Y240737D02*
D03*
X132989Y230894D02*
D03*
X137910Y221052D02*
D03*
X132989Y211210D02*
D03*
X137910Y201367D02*
D03*
X132989Y191524D02*
D03*
X137910Y181682D02*
D03*
X132989Y171839D02*
D03*
X137910Y161997D02*
D03*
X132989Y152154D02*
D03*
X137910Y142312D02*
D03*
X132989Y132469D02*
D03*
X137910Y122627D02*
D03*
X132989Y112784D02*
D03*
X137910Y102942D02*
D03*
X132989Y93099D02*
D03*
X137910Y83257D02*
D03*
X132989Y73414D02*
D03*
X137910Y63572D02*
D03*
X132989Y34044D02*
D03*
X137910Y24202D02*
D03*
X132989Y14359D02*
D03*
X128068Y378532D02*
D03*
X123146Y368690D02*
D03*
X128068Y358847D02*
D03*
X123146Y349005D02*
D03*
X128068Y339162D02*
D03*
X123146Y329320D02*
D03*
X128068Y299792D02*
D03*
X123146Y289950D02*
D03*
X128068Y280107D02*
D03*
X123146Y270265D02*
D03*
X128068Y260422D02*
D03*
X123146Y250580D02*
D03*
X128068Y240737D02*
D03*
X123146Y230894D02*
D03*
X128068Y221052D02*
D03*
X123146Y211210D02*
D03*
X128068Y201367D02*
D03*
X123146Y191524D02*
D03*
X128068Y181682D02*
D03*
X123146Y171839D02*
D03*
X128068Y161997D02*
D03*
X123146Y152154D02*
D03*
X128068Y142312D02*
D03*
X123146Y132469D02*
D03*
X128068Y122627D02*
D03*
X123146Y112784D02*
D03*
X128068Y102942D02*
D03*
X123146Y93099D02*
D03*
X128068Y83257D02*
D03*
X123146Y73414D02*
D03*
Y53729D02*
D03*
X128068Y43887D02*
D03*
X123146Y34044D02*
D03*
X128068Y24202D02*
D03*
X123146Y14359D02*
D03*
X118225Y378532D02*
D03*
X113304Y368690D02*
D03*
X118225Y358847D02*
D03*
X113304Y349005D02*
D03*
X118225Y339162D02*
D03*
X113304Y329320D02*
D03*
X118225Y299792D02*
D03*
X113304Y289950D02*
D03*
X118225Y280107D02*
D03*
X113304Y270265D02*
D03*
X118225Y260422D02*
D03*
X113304Y250580D02*
D03*
X118225Y240737D02*
D03*
X113304Y230894D02*
D03*
X118225Y221052D02*
D03*
X113304Y211210D02*
D03*
X118225Y201367D02*
D03*
X113304Y191524D02*
D03*
X118225Y181682D02*
D03*
X113304Y171839D02*
D03*
X118225Y161997D02*
D03*
X113304Y152154D02*
D03*
X118225Y142312D02*
D03*
X113304Y132469D02*
D03*
X118225Y122627D02*
D03*
X113304Y112784D02*
D03*
X118225Y102942D02*
D03*
X113304Y93099D02*
D03*
X118225Y83257D02*
D03*
X113304Y53729D02*
D03*
X118225Y43887D02*
D03*
X113304Y34044D02*
D03*
X118225Y24202D02*
D03*
X113304Y14359D02*
D03*
X108382Y378532D02*
D03*
X103461Y368690D02*
D03*
X108382Y358847D02*
D03*
X103461Y349005D02*
D03*
X108382Y339162D02*
D03*
X103461Y329320D02*
D03*
X108382Y299792D02*
D03*
X103461Y289950D02*
D03*
X108382Y280107D02*
D03*
X103461Y270265D02*
D03*
X108382Y260422D02*
D03*
X103461Y250580D02*
D03*
X108382Y240737D02*
D03*
X103461Y230894D02*
D03*
X108382Y221052D02*
D03*
X103461Y211210D02*
D03*
X108382Y201367D02*
D03*
X103461Y191524D02*
D03*
X108382Y181682D02*
D03*
X103461Y171839D02*
D03*
X108382Y161997D02*
D03*
X103461Y152154D02*
D03*
X108382Y142312D02*
D03*
X103461Y132469D02*
D03*
X108382Y122627D02*
D03*
X103461Y112784D02*
D03*
X108382Y102942D02*
D03*
X103461Y93099D02*
D03*
Y73414D02*
D03*
X108382Y63572D02*
D03*
X103461Y53729D02*
D03*
X108382Y43887D02*
D03*
X103461Y34044D02*
D03*
X108382Y24202D02*
D03*
X103461Y14359D02*
D03*
X98540Y378532D02*
D03*
X93619Y368690D02*
D03*
X98540Y358847D02*
D03*
X93619Y349005D02*
D03*
X98540Y339162D02*
D03*
X93619Y329320D02*
D03*
X98540Y299792D02*
D03*
X93619Y289950D02*
D03*
X98540Y280107D02*
D03*
X93619Y270265D02*
D03*
X98540Y260422D02*
D03*
X93619Y250580D02*
D03*
X98540Y240737D02*
D03*
X93619Y230894D02*
D03*
X98540Y221052D02*
D03*
X93619Y211210D02*
D03*
X98540Y201367D02*
D03*
X93619Y191524D02*
D03*
X98540Y181682D02*
D03*
X93619Y171839D02*
D03*
X98540Y161997D02*
D03*
X93619Y152154D02*
D03*
X98540Y142312D02*
D03*
X93619Y132469D02*
D03*
X98540Y122627D02*
D03*
X93619Y112784D02*
D03*
X98540Y102942D02*
D03*
X93619Y73414D02*
D03*
X98540Y63572D02*
D03*
X93619Y53729D02*
D03*
X98540Y43887D02*
D03*
X93619Y34044D02*
D03*
X98540Y24202D02*
D03*
X93619Y14359D02*
D03*
X88697Y378532D02*
D03*
X83776Y368690D02*
D03*
X88697Y358847D02*
D03*
X83776Y349005D02*
D03*
X88697Y339162D02*
D03*
X83776Y329320D02*
D03*
X88697Y299792D02*
D03*
X83776Y289950D02*
D03*
X88697Y280107D02*
D03*
X83776Y270265D02*
D03*
X88697Y260422D02*
D03*
X83776Y250580D02*
D03*
X88697Y240737D02*
D03*
X83776Y230894D02*
D03*
X88697Y221052D02*
D03*
X83776Y211210D02*
D03*
X88697Y201367D02*
D03*
X83776Y191524D02*
D03*
X88697Y181682D02*
D03*
X83776Y171839D02*
D03*
X88697Y161997D02*
D03*
X83776Y152154D02*
D03*
X88697Y142312D02*
D03*
X83776Y132469D02*
D03*
X88697Y122627D02*
D03*
X83776Y112784D02*
D03*
Y93099D02*
D03*
X88697Y83257D02*
D03*
X83776Y73414D02*
D03*
X88697Y63572D02*
D03*
X83776Y53729D02*
D03*
X88697Y43887D02*
D03*
X83776Y34044D02*
D03*
X88697Y24202D02*
D03*
X83776Y14359D02*
D03*
X78855Y378532D02*
D03*
X73934Y368690D02*
D03*
X78855Y358847D02*
D03*
X73934Y349005D02*
D03*
X78855Y339162D02*
D03*
X73934Y329320D02*
D03*
X78855Y299792D02*
D03*
X73934Y289950D02*
D03*
X78855Y280107D02*
D03*
X73934Y270265D02*
D03*
X78855Y260422D02*
D03*
X73934Y250580D02*
D03*
X78855Y240737D02*
D03*
X73934Y230894D02*
D03*
X78855Y221052D02*
D03*
X73934Y211210D02*
D03*
X78855Y201367D02*
D03*
X73934Y191524D02*
D03*
X78855Y181682D02*
D03*
X73934Y171839D02*
D03*
X78855Y161997D02*
D03*
X73934Y152154D02*
D03*
X78855Y142312D02*
D03*
X73934Y132469D02*
D03*
X78855Y122627D02*
D03*
X73934Y93099D02*
D03*
X78855Y83257D02*
D03*
X73934Y73414D02*
D03*
X78855Y63572D02*
D03*
X73934Y53729D02*
D03*
X78855Y43887D02*
D03*
X73934Y34044D02*
D03*
X78855Y24202D02*
D03*
X73934Y14359D02*
D03*
X69012Y378532D02*
D03*
X64091Y368690D02*
D03*
X69012Y358847D02*
D03*
X64091Y349005D02*
D03*
X69012Y339162D02*
D03*
X64091Y329320D02*
D03*
X69012Y221052D02*
D03*
X64091Y211210D02*
D03*
X69012Y201367D02*
D03*
X64091Y191524D02*
D03*
X69012Y181682D02*
D03*
X64091Y171839D02*
D03*
X69012Y161997D02*
D03*
X64091Y152154D02*
D03*
X69012Y142312D02*
D03*
X64091Y132469D02*
D03*
Y112784D02*
D03*
X69012Y102942D02*
D03*
X64091Y93099D02*
D03*
X69012Y83257D02*
D03*
X64091Y73414D02*
D03*
X69012Y63572D02*
D03*
X64091Y53729D02*
D03*
X69012Y43887D02*
D03*
X64091Y34044D02*
D03*
X69012Y24202D02*
D03*
X64091Y14359D02*
D03*
X59170Y378532D02*
D03*
X54249Y368690D02*
D03*
X59170Y358847D02*
D03*
X54249Y349005D02*
D03*
X59170Y339162D02*
D03*
X54249Y329320D02*
D03*
Y309635D02*
D03*
Y289950D02*
D03*
Y270265D02*
D03*
Y250580D02*
D03*
Y211210D02*
D03*
X59170Y201367D02*
D03*
X54249Y191524D02*
D03*
X59170Y181682D02*
D03*
X54249Y171839D02*
D03*
X59170Y161997D02*
D03*
X54249Y152154D02*
D03*
X59170Y142312D02*
D03*
X54249Y112784D02*
D03*
X59170Y102942D02*
D03*
X54249Y93099D02*
D03*
X59170Y83257D02*
D03*
X54249Y73414D02*
D03*
X59170Y63572D02*
D03*
X54249Y53729D02*
D03*
X59170Y43887D02*
D03*
X54249Y34044D02*
D03*
X59170Y24202D02*
D03*
X54249Y14359D02*
D03*
X49327Y378532D02*
D03*
X44406Y368690D02*
D03*
X49327Y358847D02*
D03*
X44406Y349005D02*
D03*
X49327Y339162D02*
D03*
X44406Y329320D02*
D03*
X49327Y319477D02*
D03*
Y299792D02*
D03*
Y280107D02*
D03*
X44406Y270265D02*
D03*
X49327Y260422D02*
D03*
X44406Y250580D02*
D03*
X49327Y240737D02*
D03*
X44406Y230894D02*
D03*
X49327Y221052D02*
D03*
Y201367D02*
D03*
X44406Y191524D02*
D03*
X49327Y181682D02*
D03*
X44406Y171839D02*
D03*
X49327Y161997D02*
D03*
X44406Y152154D02*
D03*
Y132469D02*
D03*
X49327Y122627D02*
D03*
Y102942D02*
D03*
Y83257D02*
D03*
Y63572D02*
D03*
X44406Y53729D02*
D03*
X49327Y43887D02*
D03*
X44406Y34044D02*
D03*
X49327Y24202D02*
D03*
X44406Y14359D02*
D03*
X39485Y378532D02*
D03*
X34564Y368690D02*
D03*
X39485Y358847D02*
D03*
X34564Y349005D02*
D03*
X39485Y339162D02*
D03*
X34564Y329320D02*
D03*
X39485Y319477D02*
D03*
X34564Y309635D02*
D03*
X39485Y299792D02*
D03*
X34564Y289950D02*
D03*
X39485Y280107D02*
D03*
X34564Y270265D02*
D03*
Y250580D02*
D03*
Y230894D02*
D03*
Y211210D02*
D03*
Y191524D02*
D03*
Y171839D02*
D03*
X39485Y161997D02*
D03*
X34564Y132469D02*
D03*
Y93099D02*
D03*
Y73414D02*
D03*
X39485Y43887D02*
D03*
X34564Y34044D02*
D03*
X39485Y24202D02*
D03*
X34564Y14359D02*
D03*
X29642Y378532D02*
D03*
X24721Y368690D02*
D03*
X29642Y358847D02*
D03*
X24721Y349005D02*
D03*
Y329320D02*
D03*
X29642Y280107D02*
D03*
X24721Y270265D02*
D03*
Y73414D02*
D03*
X29642Y43887D02*
D03*
Y24202D02*
D03*
X24721Y14359D02*
D03*
X19800Y378532D02*
D03*
X14878Y368690D02*
D03*
X19800Y358847D02*
D03*
X14878Y349005D02*
D03*
Y309635D02*
D03*
Y289950D02*
D03*
Y270265D02*
D03*
Y73414D02*
D03*
Y34044D02*
D03*
X19800Y24202D02*
D03*
X14878Y14359D02*
D03*
X9957Y378532D02*
D03*
X5036Y368690D02*
D03*
X9957Y358847D02*
D03*
X5036Y349005D02*
D03*
X9957Y339162D02*
D03*
X5036Y329320D02*
D03*
X9957Y319477D02*
D03*
X5036Y309635D02*
D03*
X9957Y299792D02*
D03*
Y221052D02*
D03*
Y201367D02*
D03*
Y181682D02*
D03*
X5036Y171839D02*
D03*
X9957Y142312D02*
D03*
Y43887D02*
D03*
X5036Y34044D02*
D03*
X9957Y24202D02*
D03*
X5036Y14359D02*
D03*
X325900Y311500D02*
D03*
D44*
X371100Y11600D02*
D03*
X377900Y67400D02*
D03*
X513600Y63800D02*
D03*
X512300Y52800D02*
D03*
X437400Y44532D02*
D03*
X410200Y58800D02*
D03*
X416900Y66300D02*
D03*
X410400Y32000D02*
D03*
X443200Y44100D02*
D03*
X369800Y32200D02*
D03*
X369700Y37200D02*
D03*
X346623Y57300D02*
D03*
X328300Y41700D02*
D03*
X348500Y62000D02*
D03*
X330900Y37500D02*
D03*
X348000Y37700D02*
D03*
X350800Y35400D02*
D03*
X346462Y297445D02*
D03*
X335400Y293000D02*
D03*
X364300Y306600D02*
D03*
X345700Y180900D02*
D03*
X344219Y173813D02*
D03*
X348592Y188708D02*
D03*
X348900Y191800D02*
D03*
X326500Y308600D02*
D03*
X346100Y331800D02*
D03*
X363500Y323800D02*
D03*
X349800Y23400D02*
D03*
X374600Y7000D02*
D03*
X441500Y6600D02*
D03*
X440800Y65300D02*
D03*
X466300Y37800D02*
D03*
X474600Y113100D02*
D03*
X475800Y55900D02*
D03*
X512200Y36500D02*
D03*
X439400Y86900D02*
D03*
X542600Y195800D02*
D03*
X516400Y197400D02*
D03*
X498400Y207000D02*
D03*
X497600Y181300D02*
D03*
X535700Y171700D02*
D03*
X433632Y169451D02*
D03*
X432000Y183400D02*
D03*
X432600Y162400D02*
D03*
X442100Y164300D02*
D03*
X415500Y222500D02*
D03*
X435800Y214300D02*
D03*
X414300Y162300D02*
D03*
X366400Y154600D02*
D03*
X365700Y186400D02*
D03*
X340300Y161300D02*
D03*
X329200Y175100D02*
D03*
X345300Y195200D02*
D03*
X420100Y180600D02*
D03*
X409100Y180800D02*
D03*
X327500Y189200D02*
D03*
X5100Y116300D02*
D03*
X-24100Y119600D02*
D03*
X-24379Y116358D02*
D03*
X-252Y116431D02*
D03*
M02*
