M48
;Layer_Color=9474304
;FILE_FORMAT=2:4
INCH,TZ
;TYPE=PLATED
T1F00S00C0.0079
T2F00S00C0.0118
T3F00S00C0.0236
T4F00S00C0.0315
T5F00S00C0.0354
T6F00S00C0.0402
T7F00S00C0.0429
T8F00S00C0.1283
%
T01
X2472Y1436
X5425
X8378
X11330
X12807Y4389
X9854
X6901
X3948
X996
X15760
X18712
X21665
X24618
X26094Y1436
X23141
X20189
X17236
X14283
Y7341
X17236
X20189
X23141
X26094
X27571Y10294
X24618
X21665
X18712
X15760
X17236Y13247
X20189
X23141
X26094
X27571Y16200
X24618
X21665
X18712
X15760
X14283Y13247
X26094Y19152
X12807Y16200
X9854
X11330Y13247
X8378
X5425
X3948Y16200
X996
X-1957
Y10294
X996
X2472Y7341
X5425
X8378
X11330
X9854Y10294
X-3433Y13247
Y25058
X996Y28011
X3948
X6901
X9854
X11330Y30963
X8378
X5425
X6901Y33916
X9854
X12807
X3917
X996
Y22105
X5425Y25058
X11330
X12807Y22105
X9854
X15760
X18712
X21665
X24618
X27571
X26094Y25058
X23141
X20189
X17236
X14283
X15760Y28011
X18712
X21665
X24618
X27571
X26094Y30963
X23141
X20189
X17236
X18712Y33916
X21665
X24618
X15760
X17236Y36869
X20189
X23141
X26094
X14283
X11330
X8378
X5425
T02
X34897Y3827
X34976Y5048
X40527Y4733
Y4221
X46275Y8945
X52279Y6983
X52298Y19498
X40646Y19212
Y19929
X40663Y20451
X40685Y18433
Y17922
X35055Y17528
X35134Y18748
Y19772
X35921Y7725
X34976Y6071
X38638Y7922
X40506Y6751
X40488Y6229
Y5511
X28150Y10630
X27461Y10721
X27362Y11220
Y11811
X5827Y17362
X-4091Y11847
X-3792Y26140
X-3818Y26765
X-3829Y27398
X27362Y25591
Y25000
Y24409
X27165Y22047
X27362Y21457
X26575Y31732
X35118Y31417
Y32441
X35039Y30197
X40669Y30591
Y31102
X40630Y31881
Y32598
X40647Y33120
X38780Y34291
X38795Y21622
X36079Y21426
X46433Y22646
X46417Y35315
X52283Y32167
X27559Y37205
Y38189
T03
X28963Y11310
X30963
X31963
X32963
X33963
X27963
Y25011
X28963
X30963
X31963
X32963
X33963
X33963Y37680
X32963
X31963
X30963
X28963
X27963
T04
X36938Y8976
X36938Y10944
X37096Y22677
X37096Y24645
X37080Y35346
Y37314
T05
X47278Y2530
Y3530
Y4530
Y5530
Y6530
Y7530
Y8530
Y9530
X47436Y16231
Y17231
Y18231
Y19231
Y20231
Y21231
Y22231
Y23231
X47420Y28900
Y29900
Y30900
Y31900
Y32900
Y33900
Y34900
Y35900
T06
X1900Y5690
X2900
X3900
Y6690
X2900
X1900
Y7690
X2900
X3900
Y8690
X2900
X1900
Y9690
X2900
X3900
Y10690
X2900
X1900
Y11690
X2900
X3900
Y12690
X2900
X1900
Y13690
X2900
X3900
Y14690
X2900
X1900
X1880Y16900
Y17900
Y18900
Y19900
X2880
X3880
Y18900
X2880
Y17900
X3880
Y16900
X2880
Y20900
Y21900
Y22900
Y23900
Y24900
Y25900
X1880
Y24900
Y23900
Y22900
Y21900
Y20900
X3880
Y21900
Y22900
Y23900
Y24900
Y25900
X2960Y28620
X1960
Y29620
X2960
Y30620
X1960
Y31620
X2960
Y32620
X1960
Y33620
X2960
T07
X51636Y4730
Y5821
Y6911
Y8002
Y9092
X52754Y8547
Y7457
Y6366
Y5275
Y17819
Y18910
Y20000
X51636Y20546
Y19455
Y18364
Y17274
Y21636
X52754Y21091
X52754Y30488
Y31579
Y32669
Y33760
X51636Y34305
Y33215
Y32124
Y31033
Y29943
T08
X52195Y1992
Y11831
Y14536
Y24374
X52195Y27205
Y37043
M30
