M48
;Layer_Color=9474304
;FILE_FORMAT=2:4
INCH,TZ
;TYPE=PLATED
T1F00S00C0.0118
T2F00S00C0.0236
T3F00S00C0.0354
T4F00S00C0.0402
T5F00S00C0.0429
T6F00S00C0.1283
%
T01
X2472Y1436
X5425
X8378
X11330
X9854Y4389
X12807
X6901
X3948
X996
X15760
X18712
X21665
X24618
X26094Y1436
X23141
X20189
X17236
X14283
X32205Y3031
X33661
X34897Y3827
X34976Y5048
X32402Y4409
X46275Y8945
X52279Y6983
X52298Y19498
X40503Y19418
X40471Y18701
X40569Y20714
X35134Y19772
Y18748
X35055Y17528
X33701Y16772
X32244Y16811
X32362Y18150
X35591Y9409
X36890Y9213
X35921Y7725
X34976Y6071
X40472Y5827
Y6732
Y7835
Y8780
X28150Y10630
X27461Y10721
X27571Y10294
X27362Y11220
Y11811
X26094Y13247
X23141
X20189
X17236
X14283
X15760Y10294
X18712
X21665
X24618
X26094Y7341
X23141
X20189
X17236
X14283
X15760Y16200
X18712
X21665
X24618
X27571
X12807
X9854
X11330Y13247
X8378
X5425
X4843Y15472
X3948Y16200
X996
X-1957
Y10294
X855Y10154
X2472Y7341
X5425
X8378
X11330
X9854Y10294
X6901
X4843Y18425
X-2913Y18346
X-3346Y14488
X-3433Y13247
X-4091Y11847
X-3792Y26140
X-3818Y26765
X-3829Y27398
X-984Y28071
X-945Y26496
X-984Y25079
X-1957Y22105
X6732Y21299
X9854Y22105
X12807
X11330Y25058
X8378
X5425
X6901Y28011
X3948
X2472Y30963
X5425
X8378
X11330
X12807Y33916
X9854
X6901
X996
X9854Y28011
X15760
X18712
X21665
X24618
X27571
X27362Y25591
Y25000
Y24409
X26094Y25058
X23141
X20189
X17236
X14283
X15760Y22105
X18712
X21665
X24618
X27165Y22047
X27571Y22105
X27362Y21457
X26094Y30963
X23141
X20189
X17236
X14283
X15760Y33916
X18712
X21665
X24618
X31614Y34173
X34016Y34134
X36260Y34173
X35630Y35906
X35118Y32441
Y31417
X35039Y30197
X33386Y29646
X32441Y30709
X40591Y32205
Y33071
X40551Y34134
Y35079
Y22362
Y21457
X36079Y21426
X35433Y23189
X37441Y24055
X46433Y22646
X46417Y35315
X52283Y32167
X40866Y37362
X37047Y36685
X27559Y37205
Y38189
X23141Y36869
X20189
X17236
X14283
X11330
X8378
X5425
X2472
T02
X28963Y11310
X30963
X31963
X32963
X33963
X27963
Y25011
X28963
X30963
X31963
X32963
X33963
X33963Y37680
X32963
X31963
X30963
X28963
X27963
T03
X47436Y2530
Y3530
Y4530
Y5530
Y6530
Y7530
Y8530
Y9530
Y16231
Y17231
Y18231
Y19231
Y20231
Y21231
Y22231
Y23231
Y28900
Y29900
Y30900
Y31900
Y32900
Y33900
Y34900
Y35900
T04
X1900Y5690
X2900
X3900
Y6690
X2900
X1900
Y7690
X2900
X3900
Y8690
X2900
X1900
Y9690
X2900
X3900
Y10690
X2900
X1900
Y11690
X2900
X3900
Y12690
X2900
X1900
Y13690
X2900
X3900
Y14690
X2900
X1900
X1880Y16900
Y17900
Y18900
Y19900
X2880
X3880
Y18900
X2880
Y17900
X3880
Y16900
X2880
Y20900
Y21900
Y22900
Y23900
Y24900
Y25900
X1880
Y24900
Y23900
Y22900
Y21900
Y20900
X3880
Y21900
Y22900
Y23900
Y24900
Y25900
X2960Y28620
X1960
Y29620
X2960
Y30620
X1960
Y31620
X2960
Y32620
X1960
Y33620
X2960
T05
X51661Y4866
Y5957
Y7047
Y8138
Y9228
X52779Y8683
Y7593
Y6502
Y5411
Y18049
Y19140
Y20230
X51661Y20776
Y19685
Y18594
Y17504
Y21866
X52779Y21321
Y30687
Y31778
Y32868
Y33959
X51661Y34504
Y33413
Y32323
Y31232
Y30142
T06
X52220Y2128
Y11967
Y14766
Y24604
Y27404
Y37242
M30
